<svg width="844pt" height="496pt"
 viewBox="0.00 0.00 844.00 496.00" xmlns="http://www.w3.org/2000/svg" xmlns:xlink="http://www.w3.org/1999/xlink">
<g id="graph0" class="graph" transform="scale(1 1) rotate(0) translate(4 492)">
<title>G</title>
<polygon fill="white" stroke="none" points="-4,4 -4,-492 840,-492 840,4 -4,4"/>
<!-- senseWNTM030758bet207 -->
<g id="node1" class="node"><title>senseWNTM030758bet207</title>
<path fill="none" stroke="black" d="M415.5,-407C415.5,-407 238.5,-407 238.5,-407 232.5,-407 226.5,-401 226.5,-395 226.5,-395 226.5,-336 226.5,-336 226.5,-330 232.5,-324 238.5,-324 238.5,-324 415.5,-324 415.5,-324 421.5,-324 427.5,-330 427.5,-336 427.5,-336 427.5,-395 427.5,-395 427.5,-401 421.5,-407 415.5,-407"/>
<polygon fill="lightblue" stroke="none" points="235,-387.5 235,-402.5 420,-402.5 420,-387.5 235,-387.5"/>
<text text-anchor="start" x="237" y="-393.5" font-family="Times,serif" font-style="italic" font-size="10.00">/sense/WNT/M030758.bet.207:LexicalSense</text>
<text text-anchor="start" x="253" y="-377.5" font-family="Times,serif" font-size="10.00"> &#160;&#160;&#160;&#160;&#160;&#160;&#160;label &#160;&#160;&#160;&#160;&#160;</text>
<text text-anchor="start" x="361.5" y="-377.5" font-family="Times,serif" font-size="10.00">V.—</text>
<text text-anchor="start" x="242" y="-362.5" font-family="Times,serif" font-size="10.00"> &#160;&#160;&#160;&#160;&#160;&#160;&#160;dictionary &#160;&#160;&#160;&#160;&#160;</text>
<text text-anchor="start" x="359.5" y="-362.5" font-family="Times,serif" font-size="10.00">WNT</text>
<text text-anchor="start" x="252" y="-347.5" font-family="Times,serif" font-size="10.00"> &#160;&#160;&#160;&#160;&#160;&#160;&#160;gtbId &#160;&#160;&#160;&#160;&#160;</text>
<text text-anchor="start" x="334.5" y="-347.5" font-family="Times,serif" font-size="10.00">M030758.bet.207</text>
<text text-anchor="start" x="242.5" y="-332.5" font-family="Times,serif" font-size="10.00"> &#160;&#160;&#160;&#160;&#160;&#160;&#160;definition &#160;&#160;&#160;&#160;&#160;</text>
<text text-anchor="start" x="330" y="-332.5" font-family="Times,serif" font-size="10.00">Iemand een kat (of d</text>
</g>
<!-- definitionWNTM030758bet207 -->
<g id="node2" class="node"><title>definitionWNTM030758bet207</title>
<path fill="none" stroke="black" d="M220,-271.5C220,-271.5 12,-271.5 12,-271.5 6,-271.5 1.42109e-14,-265.5 1.42109e-14,-259.5 1.42109e-14,-259.5 1.42109e-14,-245.5 1.42109e-14,-245.5 1.42109e-14,-239.5 6,-233.5 12,-233.5 12,-233.5 220,-233.5 220,-233.5 226,-233.5 232,-239.5 232,-245.5 232,-245.5 232,-259.5 232,-259.5 232,-265.5 226,-271.5 220,-271.5"/>
<polygon fill="lightblue" stroke="none" points="8,-252.5 8,-267.5 224,-267.5 224,-252.5 8,-252.5"/>
<text text-anchor="start" x="10" y="-258.5" font-family="Times,serif" font-style="italic" font-size="10.00">/definition/WNT/M030758.bet.207:SenseDefinition</text>
<text text-anchor="start" x="27.5" y="-242.5" font-family="Times,serif" font-size="10.00"> &#160;&#160;&#160;&#160;&#160;&#160;&#160;value &#160;&#160;&#160;&#160;&#160;</text>
<text text-anchor="start" x="121.5" y="-242.5" font-family="Times,serif" font-size="10.00">Iemand een kat (of d</text>
</g>
<!-- senseWNTM030758bet207&#45;&gt;definitionWNTM030758bet207 -->
<g id="edge1" class="edge"><title>senseWNTM030758bet207&#45;&gt;definitionWNTM030758bet207</title>
<path fill="none" stroke="#000088" d="M249.929,-323.955C219.389,-307.89 185.415,-290.017 159.327,-276.293"/>
<polygon fill="#000088" stroke="#000088" points="150.447,-271.621 161.392,-272.295 154.872,-273.949 159.297,-276.277 159.297,-276.277 159.297,-276.277 154.872,-273.949 157.202,-280.26 150.447,-271.621 150.447,-271.621"/>
<text text-anchor="middle" x="231.5" y="-299.6" font-family="Times,serif" font-size="8.00">definition</text>
</g>
<!-- attestation2108540 -->
<g id="node3" class="node"><title>attestation2108540</title>
<path fill="none" stroke="black" d="M429.5,-271.5C429.5,-271.5 262.5,-271.5 262.5,-271.5 256.5,-271.5 250.5,-265.5 250.5,-259.5 250.5,-259.5 250.5,-245.5 250.5,-245.5 250.5,-239.5 256.5,-233.5 262.5,-233.5 262.5,-233.5 429.5,-233.5 429.5,-233.5 435.5,-233.5 441.5,-239.5 441.5,-245.5 441.5,-245.5 441.5,-259.5 441.5,-259.5 441.5,-265.5 435.5,-271.5 429.5,-271.5"/>
<polygon fill="lightblue" stroke="none" points="259,-252.5 259,-267.5 434,-267.5 434,-252.5 259,-252.5"/>
<text text-anchor="start" x="278.5" y="-258.5" font-family="Times,serif" font-style="italic" font-size="10.00">/attestation/2108540:Attestation</text>
<text text-anchor="start" x="261" y="-242.5" font-family="Times,serif" font-size="10.00"> &#160;&#160;&#160;&#160;&#160;&#160;&#160;quotation &#160;&#160;&#160;&#160;&#160;</text>
<text text-anchor="start" x="337" y="-242.5" font-family="Times,serif" font-size="10.00">Meene met dien man w</text>
</g>
<!-- senseWNTM030758bet207&#45;&gt;attestation2108540 -->
<g id="edge2" class="edge"><title>senseWNTM030758bet207&#45;&gt;attestation2108540</title>
<path fill="none" stroke="#000088" d="M299.862,-323.667C297.003,-314.837 296.306,-305.578 300,-297 302.804,-290.489 307.115,-284.497 311.996,-279.177"/>
<polygon fill="#000088" stroke="#000088" points="319.446,-271.879 315.451,-282.092 315.874,-275.378 312.302,-278.877 312.302,-278.877 312.302,-278.877 315.874,-275.378 309.153,-275.662 319.446,-271.879 319.446,-271.879"/>
<text text-anchor="middle" x="317" y="-299.6" font-family="Times,serif" font-size="8.00">attestation</text>
</g>
<!-- attestation2108540&#45;&gt;senseWNTM030758bet207 -->
<g id="edge4" class="edge"><title>attestation2108540&#45;&gt;senseWNTM030758bet207</title>
<path fill="none" stroke="#000088" d="M342.907,-271.568C340.944,-283.038 338.297,-298.504 335.726,-313.525"/>
<polygon fill="#000088" stroke="#000088" points="333.967,-323.798 331.219,-313.182 334.811,-318.87 335.654,-313.941 335.654,-313.941 335.654,-313.941 334.811,-318.87 340.09,-314.701 333.967,-323.798 333.967,-323.798"/>
<text text-anchor="middle" x="364" y="-299.6" font-family="Times,serif" font-size="8.00">hasCitingEntity</text>
</g>
<!-- quotationWNT332819 -->
<g id="node4" class="node"><title>quotationWNT332819</title>
<path fill="none" stroke="black" d="M367.5,-181C367.5,-181 182.5,-181 182.5,-181 176.5,-181 170.5,-175 170.5,-169 170.5,-169 170.5,-110 170.5,-110 170.5,-104 176.5,-98 182.5,-98 182.5,-98 367.5,-98 367.5,-98 373.5,-98 379.5,-104 379.5,-110 379.5,-110 379.5,-169 379.5,-169 379.5,-175 373.5,-181 367.5,-181"/>
<polygon fill="lightblue" stroke="none" points="179,-161.5 179,-176.5 372,-176.5 372,-161.5 179,-161.5"/>
<text text-anchor="start" x="201.5" y="-167.5" font-family="Times,serif" font-style="italic" font-size="10.00">/quotation/WNT/332819:Quotation</text>
<text text-anchor="start" x="195.5" y="-151.5" font-family="Times,serif" font-size="10.00"> &#160;&#160;&#160;&#160;&#160;&#160;&#160;dictionary &#160;&#160;&#160;&#160;&#160;</text>
<text text-anchor="start" x="317" y="-151.5" font-family="Times,serif" font-size="10.00">WNT</text>
<text text-anchor="start" x="205.5" y="-136.5" font-family="Times,serif" font-size="10.00"> &#160;&#160;&#160;&#160;&#160;&#160;&#160;gtbId &#160;&#160;&#160;&#160;&#160;</text>
<text text-anchor="start" x="288" y="-136.5" font-family="Times,serif" font-size="10.00">M030758.eg.31647</text>
<text text-anchor="start" x="181" y="-121.5" font-family="Times,serif" font-size="10.00"> &#160;&#160;&#160;&#160;&#160;&#160;&#160;witnessYearFrom &#160;&#160;&#160;&#160;&#160;</text>
<text text-anchor="start" x="318" y="-121.5" font-family="Times,serif" font-size="10.00">1621</text>
<text text-anchor="start" x="185.5" y="-106.5" font-family="Times,serif" font-size="10.00"> &#160;&#160;&#160;&#160;&#160;&#160;&#160;witnessYearTo &#160;&#160;&#160;&#160;&#160;</text>
<text text-anchor="start" x="318" y="-106.5" font-family="Times,serif" font-size="10.00">1621</text>
</g>
<!-- attestation2108540&#45;&gt;quotationWNT332819 -->
<g id="edge3" class="edge"><title>attestation2108540&#45;&gt;quotationWNT332819</title>
<path fill="none" stroke="#000088" d="M302.042,-233.372C291.717,-226.937 281.988,-218.586 276,-208 273.08,-202.837 271.275,-197.078 270.259,-191.159"/>
<polygon fill="#000088" stroke="#000088" points="269.235,-181.126 274.727,-190.618 269.743,-186.1 270.25,-191.074 270.25,-191.074 270.25,-191.074 269.743,-186.1 265.773,-191.531 269.235,-181.126 269.235,-181.126"/>
<text text-anchor="middle" x="300" y="-201.6" font-family="Times,serif" font-size="8.00">hasCitedEntity</text>
</g>
<!-- attestation2108540&#45;&gt;quotationWNT332819 -->
<g id="edge5" class="edge"><title>attestation2108540&#45;&gt;quotationWNT332819</title>
<path fill="none" stroke="#000088" d="M339.935,-233.353C336.08,-222.929 330.58,-209.804 324,-199 322.06,-195.814 319.953,-192.621 317.741,-189.462"/>
<polygon fill="#000088" stroke="#000088" points="311.679,-181.203 321.224,-186.602 314.638,-185.234 317.597,-189.265 317.597,-189.265 317.597,-189.265 314.638,-185.234 313.969,-191.928 311.679,-181.203 311.679,-181.203"/>
<text text-anchor="middle" x="335.5" y="-201.6" font-family="Times,serif" font-size="8.00">text</text>
</g>
<!-- locus2108540 -->
<g id="node6" class="node"><title>locus2108540</title>
<path fill="none" stroke="black" d="M504.5,-166C504.5,-166 409.5,-166 409.5,-166 403.5,-166 397.5,-160 397.5,-154 397.5,-154 397.5,-125 397.5,-125 397.5,-119 403.5,-113 409.5,-113 409.5,-113 504.5,-113 504.5,-113 510.5,-113 516.5,-119 516.5,-125 516.5,-125 516.5,-154 516.5,-154 516.5,-160 510.5,-166 504.5,-166"/>
<polygon fill="lightblue" stroke="none" points="406,-146.5 406,-161.5 509,-161.5 509,-146.5 406,-146.5"/>
<text text-anchor="start" x="411.5" y="-152.5" font-family="Times,serif" font-style="italic" font-size="10.00">/locus/2108540:Locus</text>
<text text-anchor="start" x="408" y="-136.5" font-family="Times,serif" font-size="10.00"> &#160;&#160;&#160;&#160;&#160;&#160;&#160;beginIndex &#160;&#160;&#160;&#160;&#160;</text>
<text text-anchor="start" x="491" y="-136.5" font-family="Times,serif" font-size="10.00">107</text>
<text text-anchor="start" x="412.5" y="-121.5" font-family="Times,serif" font-size="10.00"> &#160;&#160;&#160;&#160;&#160;&#160;&#160;endIndex &#160;&#160;&#160;&#160;&#160;</text>
<text text-anchor="start" x="491" y="-121.5" font-family="Times,serif" font-size="10.00">110</text>
</g>
<!-- attestation2108540&#45;&gt;locus2108540 -->
<g id="edge6" class="edge"><title>attestation2108540&#45;&gt;locus2108540</title>
<path fill="none" stroke="#000088" d="M364.329,-233.171C380.491,-217.009 404.436,-193.064 423.937,-173.563"/>
<polygon fill="#000088" stroke="#000088" points="431.168,-166.332 427.279,-176.585 427.632,-169.868 424.097,-173.403 424.097,-173.403 424.097,-173.403 427.632,-169.868 420.915,-170.221 431.168,-166.332 431.168,-166.332"/>
<text text-anchor="middle" x="407.5" y="-201.6" font-family="Times,serif" font-size="8.00">locus</text>
</g>
<!-- expressionWNT332819 -->
<g id="node5" class="node"><title>expressionWNT332819</title>
<path fill="none" stroke="black" d="M349.5,-53C349.5,-53 200.5,-53 200.5,-53 194.5,-53 188.5,-47 188.5,-41 188.5,-41 188.5,-12 188.5,-12 188.5,-6 194.5,-0 200.5,-0 200.5,-0 349.5,-0 349.5,-0 355.5,-0 361.5,-6 361.5,-12 361.5,-12 361.5,-41 361.5,-41 361.5,-47 355.5,-53 349.5,-53"/>
<polygon fill="lightblue" stroke="none" points="197,-33.5 197,-48.5 354,-48.5 354,-33.5 197,-33.5"/>
<text text-anchor="start" x="199" y="-39.5" font-family="Times,serif" font-style="italic" font-size="10.00">/expression/WNT/332819:Expression</text>
<text text-anchor="start" x="202.5" y="-23.5" font-family="Times,serif" font-size="10.00"> &#160;&#160;&#160;&#160;&#160;&#160;&#160;creator &#160;&#160;&#160;&#160;&#160;</text>
<text text-anchor="start" x="273.5" y="-23.5" font-family="Times,serif" font-size="10.00">N. V. REIGERSB.</text>
<text text-anchor="start" x="208" y="-8.5" font-family="Times,serif" font-size="10.00"> &#160;&#160;&#160;&#160;&#160;&#160;&#160;title &#160;&#160;&#160;&#160;&#160;</text>
<text text-anchor="start" x="304.5" y="-8.5" font-family="Times,serif" font-size="10.00">Br.</text>
</g>
<!-- quotationWNT332819&#45;&gt;expressionWNT332819 -->
<g id="edge7" class="edge"><title>quotationWNT332819&#45;&gt;expressionWNT332819</title>
<path fill="none" stroke="#000088" d="M241.853,-97.9073C238.228,-89.2253 236.841,-79.9641 240,-71 241.095,-67.8917 242.517,-64.8417 244.159,-61.8893"/>
<polygon fill="#000088" stroke="#000088" points="249.641,-53.3648 248.017,-64.2098 246.936,-57.5703 244.232,-61.7759 244.232,-61.7759 244.232,-61.7759 246.936,-57.5703 240.447,-59.342 249.641,-53.3648 249.641,-53.3648"/>
<text text-anchor="middle" x="264.5" y="-73.6" font-family="Times,serif" font-size="8.00">embodimentOf</text>
</g>
<!-- expressionWNT332819&#45;&gt;quotationWNT332819 -->
<g id="edge8" class="edge"><title>expressionWNT332819&#45;&gt;quotationWNT332819</title>
<path fill="none" stroke="#000088" d="M284.787,-53.4029C286.536,-59.1186 288.09,-65.2002 289,-71 289.858,-76.4683 289.949,-82.164 289.523,-87.8263"/>
<polygon fill="#000088" stroke="#000088" points="288.249,-97.9262 285.036,-87.4417 288.875,-92.9655 289.5,-88.0048 289.5,-88.0048 289.5,-88.0048 288.875,-92.9655 293.965,-88.5678 288.249,-97.9262 288.249,-97.9262"/>
<text text-anchor="middle" x="310" y="-73.6" font-family="Times,serif" font-size="8.00">embodiment</text>
</g>
<!-- selector2108540 -->
<g id="node7" class="node"><title>selector2108540</title>
<path fill="none" stroke="black" d="M632,-279C632,-279 472,-279 472,-279 466,-279 460,-273 460,-267 460,-267 460,-238 460,-238 460,-232 466,-226 472,-226 472,-226 632,-226 632,-226 638,-226 644,-232 644,-238 644,-238 644,-267 644,-267 644,-273 638,-279 632,-279"/>
<polygon fill="lightblue" stroke="none" points="468,-259.5 468,-274.5 636,-274.5 636,-259.5 468,-259.5"/>
<text text-anchor="start" x="470" y="-265.5" font-family="Times,serif" font-style="italic" font-size="10.00">/selector/2108540:TextPositionSelector</text>
<text text-anchor="start" x="494.5" y="-249.5" font-family="Times,serif" font-size="10.00"> &#160;&#160;&#160;&#160;&#160;&#160;&#160;end &#160;&#160;&#160;&#160;&#160;</text>
<text text-anchor="start" x="594" y="-249.5" font-family="Times,serif" font-size="10.00">110</text>
<text text-anchor="start" x="493.5" y="-234.5" font-family="Times,serif" font-size="10.00"> &#160;&#160;&#160;&#160;&#160;&#160;&#160;start &#160;&#160;&#160;&#160;&#160;</text>
<text text-anchor="start" x="594" y="-234.5" font-family="Times,serif" font-size="10.00">107</text>
</g>
<!-- M030758 -->
<g id="node8" class="node"><title>M030758</title>
<path fill="none" stroke="black" d="M375,-488C375,-488 279,-488 279,-488 273,-488 267,-482 267,-476 267,-476 267,-464 267,-464 267,-458 273,-452 279,-452 279,-452 375,-452 375,-452 381,-452 387,-458 387,-464 387,-464 387,-476 387,-476 387,-482 381,-488 375,-488"/>
<polygon fill="lightblue" stroke="none" points="275,-462 275,-477 379,-477 379,-462 275,-462"/>
<text text-anchor="start" x="277.5" y="-468" font-family="Times,serif" font-style="italic" font-size="10.00">/M030758:LexicalEntry</text>
</g>
<!-- M030758&#45;&gt;senseWNTM030758bet207 -->
<g id="edge9" class="edge"><title>M030758&#45;&gt;senseWNTM030758bet207</title>
<path fill="none" stroke="#000088" d="M327,-451.612C327,-442.063 327,-429.675 327,-417.32"/>
<polygon fill="#000088" stroke="#000088" points="327,-407.013 331.5,-417.013 327,-412.013 327,-417.013 327,-417.013 327,-417.013 327,-412.013 322.5,-417.013 327,-407.013 327,-407.013"/>
<text text-anchor="middle" x="336" y="-427.6" font-family="Times,serif" font-size="8.00">sense</text>
</g>
<!-- oasource2108540 -->
<g id="node9" class="node"><title>oasource2108540</title>
<path fill="none" stroke="black" d="M824,-271.5C824,-271.5 674,-271.5 674,-271.5 668,-271.5 662,-265.5 662,-259.5 662,-259.5 662,-245.5 662,-245.5 662,-239.5 668,-233.5 674,-233.5 674,-233.5 824,-233.5 824,-233.5 830,-233.5 836,-239.5 836,-245.5 836,-245.5 836,-259.5 836,-259.5 836,-265.5 830,-271.5 824,-271.5"/>
<polygon fill="lightblue" stroke="none" points="670,-252.5 670,-267.5 828,-267.5 828,-252.5 670,-252.5"/>
<text text-anchor="start" x="685.5" y="-258.5" font-family="Times,serif" font-style="italic" font-size="10.00">/oa_source/2108540:Resource</text>
<text text-anchor="start" x="672" y="-242.5" font-family="Times,serif" font-size="10.00"> &#160;&#160;&#160;&#160;&#160;&#160;&#160;value &#160;&#160;&#160;&#160;&#160;</text>
<text text-anchor="start" x="731" y="-242.5" font-family="Times,serif" font-size="10.00">Meene met dien man w</text>
</g>
<!-- oatarget2108540 -->
<g id="node10" class="node"><title>oatarget2108540</title>
<path fill="none" stroke="black" d="M612,-383.5C612,-383.5 492,-383.5 492,-383.5 486,-383.5 480,-377.5 480,-371.5 480,-371.5 480,-359.5 480,-359.5 480,-353.5 486,-347.5 492,-347.5 492,-347.5 612,-347.5 612,-347.5 618,-347.5 624,-353.5 624,-359.5 624,-359.5 624,-371.5 624,-371.5 624,-377.5 618,-383.5 612,-383.5"/>
<polygon fill="lightblue" stroke="none" points="488,-357.5 488,-372.5 616,-372.5 616,-357.5 488,-357.5"/>
<text text-anchor="start" x="490" y="-363.5" font-family="Times,serif" font-style="italic" font-size="10.00">/oa_target/2108540:Resource</text>
</g>
<!-- oatarget2108540&#45;&gt;selector2108540 -->
<g id="edge10" class="edge"><title>oatarget2108540&#45;&gt;selector2108540</title>
<path fill="none" stroke="#000088" d="M552,-347.156C552,-331.754 552,-308.753 552,-289.4"/>
<polygon fill="#000088" stroke="#000088" points="552,-279.384 556.5,-289.384 552,-284.384 552,-289.384 552,-289.384 552,-289.384 552,-284.384 547.5,-289.385 552,-279.384 552,-279.384"/>
<text text-anchor="middle" x="571" y="-299.6" font-family="Times,serif" font-size="8.00">hasSelector</text>
</g>
<!-- oatarget2108540&#45;&gt;oasource2108540 -->
<g id="edge11" class="edge"><title>oatarget2108540&#45;&gt;oasource2108540</title>
<path fill="none" stroke="#000088" d="M582.35,-347.4C615.98,-328.45 670.399,-297.788 707.848,-276.687"/>
<polygon fill="#000088" stroke="#000088" points="716.98,-271.541 710.477,-280.371 712.624,-273.996 708.268,-276.45 708.268,-276.45 708.268,-276.45 712.624,-273.996 706.059,-272.53 716.98,-271.541 716.98,-271.541"/>
<text text-anchor="middle" x="686" y="-299.6" font-family="Times,serif" font-size="8.00">hasSource</text>
</g>
<!-- annotation2108540 -->
<g id="node11" class="node"><title>annotation2108540</title>
<path fill="none" stroke="black" d="M572,-488C572,-488 436,-488 436,-488 430,-488 424,-482 424,-476 424,-476 424,-464 424,-464 424,-458 430,-452 436,-452 436,-452 572,-452 572,-452 578,-452 584,-458 584,-464 584,-464 584,-476 584,-476 584,-482 578,-488 572,-488"/>
<polygon fill="lightblue" stroke="none" points="432,-462 432,-477 576,-477 576,-462 432,-462"/>
<text text-anchor="start" x="434.5" y="-468" font-family="Times,serif" font-style="italic" font-size="10.00">/annotation/2108540:Annotation</text>
</g>
<!-- annotation2108540&#45;&gt;senseWNTM030758bet207 -->
<g id="edge12" class="edge"><title>annotation2108540&#45;&gt;senseWNTM030758bet207</title>
<path fill="none" stroke="#000088" d="M474.374,-451.844C455.617,-440.982 430.403,-426.38 406.138,-412.329"/>
<polygon fill="#000088" stroke="#000088" points="397.255,-407.184 408.164,-408.302 401.582,-409.69 405.909,-412.196 405.909,-412.196 405.909,-412.196 401.582,-409.69 403.654,-416.09 397.255,-407.184 397.255,-407.184"/>
<text text-anchor="middle" x="456" y="-427.6" font-family="Times,serif" font-size="8.00">hasBody</text>
</g>
<!-- annotation2108540&#45;&gt;oatarget2108540 -->
<g id="edge13" class="edge"><title>annotation2108540&#45;&gt;oatarget2108540</title>
<path fill="none" stroke="#000088" d="M512.143,-451.612C519.705,-435.464 531.068,-411.198 539.729,-392.703"/>
<polygon fill="#000088" stroke="#000088" points="543.978,-383.631 543.812,-394.596 541.857,-388.159 539.737,-392.687 539.737,-392.687 539.737,-392.687 541.857,-388.159 535.661,-390.779 543.978,-383.631 543.978,-383.631"/>
<text text-anchor="middle" x="540.5" y="-427.6" font-family="Times,serif" font-size="8.00">hasTarget</text>
</g>
</g>
</svg>
