<svg width="76pt" height="206pt"
 viewBox="0.00 0.00 76.00 206.00" xmlns="http://www.w3.org/2000/svg" xmlns:xlink="http://www.w3.org/1999/xlink">
<g id="graph0" class="graph" transform="scale(1 1) rotate(0) translate(4 202)">
<title>G</title>
<polygon fill="white" stroke="none" points="-4,4 -4,-202 72,-202 72,4 -4,4"/>
<!-- aap -->
<g id="node1" class="node"><title>aap</title>
<path fill="none" stroke="black" d="M53,-198C53,-198 15,-198 15,-198 9,-198 3,-192 3,-186 3,-186 3,-174 3,-174 3,-168 9,-162 15,-162 15,-162 53,-162 53,-162 59,-162 65,-168 65,-174 65,-174 65,-186 65,-186 65,-192 59,-198 53,-198"/>
<polygon fill="lightblue" stroke="none" points="11,-172 11,-187 57,-187 57,-172 11,-172"/>
<text text-anchor="start" x="13" y="-178" font-family="Times,serif" font-style="italic" font-size="10.00">aap:Beast</text>
</g>
<!-- Nuts -->
<g id="node2" class="node"><title>Nuts</title>
<path fill="none" stroke="black" d="M55,-117C55,-117 13,-117 13,-117 7,-117 1,-111 1,-105 1,-105 1,-93 1,-93 1,-87 7,-81 13,-81 13,-81 55,-81 55,-81 61,-81 67,-87 67,-93 67,-93 67,-105 67,-105 67,-111 61,-117 55,-117"/>
<polygon fill="lightblue" stroke="none" points="9,-91 9,-106 59,-106 59,-91 9,-91"/>
<text text-anchor="start" x="11.5" y="-97" font-family="Times,serif" font-style="italic" font-size="10.00">Nuts:Class</text>
</g>
<!-- aap&#45;&gt;Nuts -->
<g id="edge1" class="edge"><title>aap&#45;&gt;Nuts</title>
<path fill="none" stroke="#000088" d="M34,-161.858C34,-151.713 34,-138.634 34,-127.117"/>
<polygon fill="#000088" stroke="#000088" points="34,-117.108 38.5001,-127.108 34,-122.108 34.0001,-127.108 34.0001,-127.108 34.0001,-127.108 34,-122.108 29.5001,-127.108 34,-117.108 34,-117.108"/>
<text text-anchor="middle" x="40.5" y="-137.6" font-family="Times,serif" font-size="8.00">eats</text>
</g>
<!-- Food -->
<g id="node3" class="node"><title>Food</title>
<path fill="none" stroke="black" d="M56,-36C56,-36 12,-36 12,-36 6,-36 0,-30 0,-24 0,-24 0,-12 0,-12 0,-6 6,-0 12,-0 12,-0 56,-0 56,-0 62,-0 68,-6 68,-12 68,-12 68,-24 68,-24 68,-30 62,-36 56,-36"/>
<polygon fill="lightblue" stroke="none" points="8,-10 8,-25 60,-25 60,-10 8,-10"/>
<text text-anchor="start" x="10" y="-16" font-family="Times,serif" font-style="italic" font-size="10.00">Food:Class</text>
</g>
<!-- Nuts&#45;&gt;Food -->
<g id="edge2" class="edge"><title>Nuts&#45;&gt;Food</title>
<path fill="none" stroke="#000088" d="M34,-80.8582C34,-70.7129 34,-57.6336 34,-46.1168"/>
<polygon fill="#000088" stroke="#000088" points="34,-36.1084 38.5001,-46.1083 34,-41.1084 34.0001,-46.1084 34.0001,-46.1084 34.0001,-46.1084 34,-41.1084 29.5001,-46.1084 34,-36.1084 34,-36.1084"/>
<text text-anchor="middle" x="44.5" y="-56.6" font-family="Times,serif" font-size="8.00">kindof</text>
</g>
</g>
</svg>
