<svg width="1081pt" height="321pt"
 viewBox="0.00 0.00 1080.50 321.00" xmlns="http://www.w3.org/2000/svg" xmlns:xlink="http://www.w3.org/1999/xlink">
<g id="graph0" class="graph" transform="scale(1 1) rotate(0) translate(4 317)">
<title>G</title>
<polygon fill="white" stroke="none" points="-4,4 -4,-317 1076.5,-317 1076.5,4 -4,4"/>
<!-- celexwform147510 -->
<g id="node1" class="node"><title>celexwform147510</title>
<path fill="none" stroke="black" d="M151,-149C151,-149 12,-149 12,-149 6,-149 0,-143 0,-137 0,-137 0,-93 0,-93 0,-87 6,-81 12,-81 12,-81 151,-81 151,-81 157,-81 163,-87 163,-93 163,-93 163,-137 163,-137 163,-143 157,-149 151,-149"/>
<polygon fill="lightblue" stroke="none" points="8.5,-130 8.5,-145 155.5,-145 155.5,-130 8.5,-130"/>
<text text-anchor="start" x="24.5" y="-136" font-family="Times,serif" font-style="italic" font-size="10.00">celex_wform_147510:Form</text>
<text text-anchor="start" x="14" y="-120" font-family="Times,serif" font-size="10.00"> &#160;&#160;&#160;&#160;&#160;&#160;&#160;writtenRep &#160;&#160;&#160;&#160;&#160;</text>
<text text-anchor="start" x="102.5" y="-120" font-family="Times,serif" font-size="10.00">kattekwaad</text>
<text text-anchor="start" x="15" y="-105" font-family="Times,serif" font-size="10.00"> &#160;&#160;&#160;&#160;&#160;&#160;&#160;syllabified &#160;&#160;&#160;&#160;&#160;</text>
<text text-anchor="start" x="99.5" y="-105" font-family="Times,serif" font-size="10.00">kat&#45;te&#45;kwaad</text>
<text text-anchor="start" x="10.5" y="-90" font-family="Times,serif" font-size="10.00"> &#160;&#160;&#160;&#160;&#160;&#160;&#160;phoneticRep &#160;&#160;&#160;&#160;&#160;</text>
<text text-anchor="start" x="100.5" y="-90" font-family="Times,serif" font-size="10.00">ˌkɑ&#45;tə&#45;kwaːt</text>
</g>
<!-- singular -->
<g id="node2" class="node"><title>singular</title>
<path fill="none" stroke="black" d="M179.5,-36C179.5,-36 121.5,-36 121.5,-36 115.5,-36 109.5,-30 109.5,-24 109.5,-24 109.5,-12 109.5,-12 109.5,-6 115.5,-0 121.5,-0 121.5,-0 179.5,-0 179.5,-0 185.5,-0 191.5,-6 191.5,-12 191.5,-12 191.5,-24 191.5,-24 191.5,-30 185.5,-36 179.5,-36"/>
<polygon fill="lightblue" stroke="none" points="117.5,-10 117.5,-25 183.5,-25 183.5,-10 117.5,-10"/>
<text text-anchor="start" x="120" y="-16" font-family="Times,serif" font-style="italic" font-size="10.00">singular:Class</text>
</g>
<!-- celexwform147510&#45;&gt;singular -->
<g id="edge1" class="edge"><title>celexwform147510&#45;&gt;singular</title>
<path fill="none" stroke="#000088" d="M105.633,-80.7736C114.366,-68.7497 124.076,-55.3806 132.223,-44.1634"/>
<polygon fill="#000088" stroke="#000088" points="138.107,-36.0629 135.871,-46.7985 135.169,-40.1085 132.23,-44.154 132.23,-44.154 132.23,-44.154 135.169,-40.1085 128.589,-41.5095 138.107,-36.0629 138.107,-36.0629"/>
<text text-anchor="middle" x="137" y="-56.6" font-family="Times,serif" font-size="8.00">number</text>
</g>
<!-- celexcomp92555 -->
<g id="node3" class="node"><title>celexcomp92555</title>
<path fill="none" stroke="black" d="M448.5,-313C448.5,-313 320.5,-313 320.5,-313 314.5,-313 308.5,-307 308.5,-301 308.5,-301 308.5,-289 308.5,-289 308.5,-283 314.5,-277 320.5,-277 320.5,-277 448.5,-277 448.5,-277 454.5,-277 460.5,-283 460.5,-289 460.5,-289 460.5,-301 460.5,-301 460.5,-307 454.5,-313 448.5,-313"/>
<polygon fill="lightblue" stroke="none" points="316.5,-287 316.5,-302 452.5,-302 452.5,-287 316.5,-287"/>
<text text-anchor="start" x="318.5" y="-293" font-family="Times,serif" font-style="italic" font-size="10.00">celex_comp_92555:Component</text>
</g>
<!-- celexlemma54132 -->
<g id="node4" class="node"><title>celexlemma54132</title>
<path fill="none" stroke="black" d="M441.5,-232C441.5,-232 327.5,-232 327.5,-232 321.5,-232 315.5,-226 315.5,-220 315.5,-220 315.5,-206 315.5,-206 315.5,-200 321.5,-194 327.5,-194 327.5,-194 441.5,-194 441.5,-194 447.5,-194 453.5,-200 453.5,-206 453.5,-206 453.5,-220 453.5,-220 453.5,-226 447.5,-232 441.5,-232"/>
<polygon fill="lightblue" stroke="none" points="323.5,-213 323.5,-228 445.5,-228 445.5,-213 323.5,-213"/>
<text text-anchor="start" x="325.5" y="-219" font-family="Times,serif" font-style="italic" font-size="10.00">celex_lemma_54132:NOUN</text>
<text text-anchor="start" x="334" y="-203" font-family="Times,serif" font-size="10.00"> &#160;&#160;&#160;&#160;&#160;&#160;&#160;label &#160;&#160;&#160;&#160;&#160;</text>
<text text-anchor="start" x="407" y="-203" font-family="Times,serif" font-size="10.00">kwaad</text>
</g>
<!-- celexcomp92555&#45;&gt;celexlemma54132 -->
<g id="edge2" class="edge"><title>celexcomp92555&#45;&gt;celexlemma54132</title>
<path fill="none" stroke="#000088" d="M384.5,-276.641C384.5,-266.579 384.5,-253.666 384.5,-242.181"/>
<polygon fill="#000088" stroke="#000088" points="384.5,-232.158 389,-242.158 384.5,-237.158 384.5,-242.158 384.5,-242.158 384.5,-242.158 384.5,-237.158 380,-242.158 384.5,-232.158 384.5,-232.158"/>
<text text-anchor="middle" x="408.5" y="-252.6" font-family="Times,serif" font-size="8.00">correspondsTo</text>
</g>
<!-- NeutGender -->
<g id="node5" class="node"><title>NeutGender</title>
<path fill="none" stroke="black" d="M426.5,-133C426.5,-133 348.5,-133 348.5,-133 342.5,-133 336.5,-127 336.5,-121 336.5,-121 336.5,-109 336.5,-109 336.5,-103 342.5,-97 348.5,-97 348.5,-97 426.5,-97 426.5,-97 432.5,-97 438.5,-103 438.5,-109 438.5,-109 438.5,-121 438.5,-121 438.5,-127 432.5,-133 426.5,-133"/>
<polygon fill="lightblue" stroke="none" points="344.5,-107 344.5,-122 430.5,-122 430.5,-107 344.5,-107"/>
<text text-anchor="start" x="346.5" y="-113" font-family="Times,serif" font-style="italic" font-size="10.00">Neut_Gender:Class</text>
</g>
<!-- celexlemma54132&#45;&gt;NeutGender -->
<g id="edge3" class="edge"><title>celexlemma54132&#45;&gt;NeutGender</title>
<path fill="none" stroke="#000088" d="M384.838,-193.607C385.006,-185.455 385.231,-175.748 385.5,-167 385.733,-159.415 386.034,-151.197 386.331,-143.619"/>
<polygon fill="#000088" stroke="#000088" points="386.742,-133.464 390.834,-143.638 386.54,-138.46 386.338,-143.456 386.338,-143.456 386.338,-143.456 386.54,-138.46 381.841,-143.274 386.742,-133.464 386.742,-133.464"/>
<text text-anchor="middle" x="398" y="-169.6" font-family="Times,serif" font-size="8.00">Gender</text>
</g>
<!-- celexlemma54132&#45;&gt;NeutGender -->
<g id="edge4" class="edge"><title>celexlemma54132&#45;&gt;NeutGender</title>
<path fill="none" stroke="#000088" d="M400.97,-193.804C404.857,-188.441 408.46,-182.309 410.5,-176 414.126,-164.785 410.842,-152.607 405.733,-142.171"/>
<polygon fill="#000088" stroke="#000088" points="400.674,-133.155 409.492,-139.674 403.121,-137.515 405.567,-141.876 405.567,-141.876 405.567,-141.876 403.121,-137.515 401.643,-144.078 400.674,-133.155 400.674,-133.155"/>
<text text-anchor="middle" x="425" y="-169.6" font-family="Times,serif" font-size="8.00">Gender</text>
</g>
<!-- celexwform165612 -->
<g id="node6" class="node"><title>celexwform165612</title>
<path fill="none" stroke="black" d="M306,-149C306,-149 193,-149 193,-149 187,-149 181,-143 181,-137 181,-137 181,-93 181,-93 181,-87 187,-81 193,-81 193,-81 306,-81 306,-81 312,-81 318,-87 318,-93 318,-93 318,-137 318,-137 318,-143 312,-149 306,-149"/>
<polygon fill="lightblue" stroke="none" points="189.5,-130 189.5,-145 310.5,-145 310.5,-130 189.5,-130"/>
<text text-anchor="start" x="192.5" y="-136" font-family="Times,serif" font-style="italic" font-size="10.00">celex_wform_165612:Form</text>
<text text-anchor="start" x="195" y="-120" font-family="Times,serif" font-size="10.00"> &#160;&#160;&#160;&#160;&#160;&#160;&#160;writtenRep &#160;&#160;&#160;&#160;&#160;</text>
<text text-anchor="start" x="280.5" y="-120" font-family="Times,serif" font-size="10.00">kwaad</text>
<text text-anchor="start" x="196" y="-105" font-family="Times,serif" font-size="10.00"> &#160;&#160;&#160;&#160;&#160;&#160;&#160;syllabified &#160;&#160;&#160;&#160;&#160;</text>
<text text-anchor="start" x="280.5" y="-105" font-family="Times,serif" font-size="10.00">kwaad</text>
<text text-anchor="start" x="191.5" y="-90" font-family="Times,serif" font-size="10.00"> &#160;&#160;&#160;&#160;&#160;&#160;&#160;phoneticRep &#160;&#160;&#160;&#160;&#160;</text>
<text text-anchor="start" x="281" y="-90" font-family="Times,serif" font-size="10.00">ˌkwaːt</text>
</g>
<!-- celexlemma54132&#45;&gt;celexwform165612 -->
<g id="edge5" class="edge"><title>celexlemma54132&#45;&gt;celexwform165612</title>
<path fill="none" stroke="#000088" d="M358.24,-193.974C349.978,-188.261 340.836,-181.898 332.5,-176 323.07,-169.328 313.08,-162.178 303.423,-155.223"/>
<polygon fill="#000088" stroke="#000088" points="295.044,-149.177 305.786,-151.379 299.098,-152.103 303.153,-155.029 303.153,-155.029 303.153,-155.029 299.098,-152.103 300.52,-158.678 295.044,-149.177 295.044,-149.177"/>
<text text-anchor="middle" x="357" y="-169.6" font-family="Times,serif" font-size="8.00">canonicalForm</text>
</g>
<!-- celexlemma54132&#45;&gt;celexwform165612 -->
<g id="edge6" class="edge"><title>celexlemma54132&#45;&gt;celexwform165612</title>
<path fill="none" stroke="#000088" d="M315.272,-197.835C301.634,-192.655 288.241,-185.6 277.5,-176 271.961,-171.05 267.434,-164.775 263.762,-158.16"/>
<polygon fill="#000088" stroke="#000088" points="259.268,-149.021 267.719,-156.01 261.475,-153.508 263.681,-157.995 263.681,-157.995 263.681,-157.995 261.475,-153.508 259.643,-159.981 259.268,-149.021 259.268,-149.021"/>
<text text-anchor="middle" x="297.5" y="-169.6" font-family="Times,serif" font-size="8.00">lexicalForm</text>
</g>
<!-- celexwform165714 -->
<g id="node7" class="node"><title>celexwform165714</title>
<path fill="none" stroke="black" d="M590.5,-149C590.5,-149 468.5,-149 468.5,-149 462.5,-149 456.5,-143 456.5,-137 456.5,-137 456.5,-93 456.5,-93 456.5,-87 462.5,-81 468.5,-81 468.5,-81 590.5,-81 590.5,-81 596.5,-81 602.5,-87 602.5,-93 602.5,-93 602.5,-137 602.5,-137 602.5,-143 596.5,-149 590.5,-149"/>
<polygon fill="lightblue" stroke="none" points="464.5,-130 464.5,-145 594.5,-145 594.5,-130 464.5,-130"/>
<text text-anchor="start" x="472" y="-136" font-family="Times,serif" font-style="italic" font-size="10.00">celex_wform_165714:Form</text>
<text text-anchor="start" x="470" y="-120" font-family="Times,serif" font-size="10.00"> &#160;&#160;&#160;&#160;&#160;&#160;&#160;writtenRep &#160;&#160;&#160;&#160;&#160;</text>
<text text-anchor="start" x="557.5" y="-120" font-family="Times,serif" font-size="10.00">kwaden</text>
<text text-anchor="start" x="471" y="-105" font-family="Times,serif" font-size="10.00"> &#160;&#160;&#160;&#160;&#160;&#160;&#160;syllabified &#160;&#160;&#160;&#160;&#160;</text>
<text text-anchor="start" x="556" y="-105" font-family="Times,serif" font-size="10.00">kwa&#45;den</text>
<text text-anchor="start" x="466.5" y="-90" font-family="Times,serif" font-size="10.00"> &#160;&#160;&#160;&#160;&#160;&#160;&#160;phoneticRep &#160;&#160;&#160;&#160;&#160;</text>
<text text-anchor="start" x="555.5" y="-90" font-family="Times,serif" font-size="10.00">ˌkwaː&#45;də</text>
</g>
<!-- celexlemma54132&#45;&gt;celexwform165714 -->
<g id="edge7" class="edge"><title>celexlemma54132&#45;&gt;celexwform165714</title>
<path fill="none" stroke="#000088" d="M413.623,-193.882C422.605,-188.22 432.498,-181.909 441.5,-176 451.868,-169.194 462.844,-161.836 473.397,-154.683"/>
<polygon fill="#000088" stroke="#000088" points="481.75,-149.004 476.01,-158.347 477.615,-151.815 473.48,-154.626 473.48,-154.626 473.48,-154.626 477.615,-151.815 470.95,-150.905 481.75,-149.004 481.75,-149.004"/>
<text text-anchor="middle" x="474.5" y="-169.6" font-family="Times,serif" font-size="8.00">lexicalForm</text>
</g>
<!-- celexwform165612&#45;&gt;singular -->
<g id="edge8" class="edge"><title>celexwform165612&#45;&gt;singular</title>
<path fill="none" stroke="#000088" d="M214.875,-80.7736C201.976,-68.3961 187.592,-54.5931 175.697,-43.1793"/>
<polygon fill="#000088" stroke="#000088" points="168.281,-36.0629 178.612,-39.7399 171.889,-39.5248 175.497,-42.9868 175.497,-42.9868 175.497,-42.9868 171.889,-39.5248 172.381,-46.2337 168.281,-36.0629 168.281,-36.0629"/>
<text text-anchor="middle" x="207" y="-56.6" font-family="Times,serif" font-size="8.00">number</text>
</g>
<!-- plural -->
<g id="node8" class="node"><title>plural</title>
<path fill="none" stroke="black" d="M553.5,-36C553.5,-36 505.5,-36 505.5,-36 499.5,-36 493.5,-30 493.5,-24 493.5,-24 493.5,-12 493.5,-12 493.5,-6 499.5,-0 505.5,-0 505.5,-0 553.5,-0 553.5,-0 559.5,-0 565.5,-6 565.5,-12 565.5,-12 565.5,-24 565.5,-24 565.5,-30 559.5,-36 553.5,-36"/>
<polygon fill="lightblue" stroke="none" points="501.5,-10 501.5,-25 557.5,-25 557.5,-10 501.5,-10"/>
<text text-anchor="start" x="503.5" y="-16" font-family="Times,serif" font-style="italic" font-size="10.00">plural:Class</text>
</g>
<!-- celexwform165714&#45;&gt;plural -->
<g id="edge9" class="edge"><title>celexwform165714&#45;&gt;plural</title>
<path fill="none" stroke="#000088" d="M529.5,-80.7736C529.5,-69.457 529.5,-56.9488 529.5,-46.1646"/>
<polygon fill="#000088" stroke="#000088" points="529.5,-36.0629 534,-46.0629 529.5,-41.0629 529.5,-46.0629 529.5,-46.0629 529.5,-46.0629 529.5,-41.0629 525,-46.063 529.5,-36.0629 529.5,-36.0629"/>
<text text-anchor="middle" x="542" y="-56.6" font-family="Times,serif" font-size="8.00">number</text>
</g>
<!-- celexlemma47843 -->
<g id="node9" class="node"><title>celexlemma47843</title>
<path fill="none" stroke="black" d="M150.5,-232C150.5,-232 12.5,-232 12.5,-232 6.5,-232 0.5,-226 0.5,-220 0.5,-220 0.5,-206 0.5,-206 0.5,-200 6.5,-194 12.5,-194 12.5,-194 150.5,-194 150.5,-194 156.5,-194 162.5,-200 162.5,-206 162.5,-206 162.5,-220 162.5,-220 162.5,-226 156.5,-232 150.5,-232"/>
<polygon fill="lightblue" stroke="none" points="8.5,-213 8.5,-228 154.5,-228 154.5,-213 8.5,-213"/>
<text text-anchor="start" x="10.5" y="-219" font-family="Times,serif" font-style="italic" font-size="10.00">celex_lemma_47843:LexicalEntry</text>
<text text-anchor="start" x="20" y="-203" font-family="Times,serif" font-size="10.00"> &#160;&#160;&#160;&#160;&#160;&#160;&#160;label &#160;&#160;&#160;&#160;&#160;</text>
<text text-anchor="start" x="95" y="-203" font-family="Times,serif" font-size="10.00">kattekwaad</text>
</g>
<!-- celexlemma47843&#45;&gt;celexwform147510 -->
<g id="edge10" class="edge"><title>celexlemma47843&#45;&gt;celexwform147510</title>
<path fill="none" stroke="#000088" d="M87.5614,-193.887C89.1758,-188.225 90.694,-181.913 91.5,-176 92.2399,-170.572 92.2693,-164.88 91.8458,-159.254"/>
<polygon fill="#000088" stroke="#000088" points="90.65,-149.27 96.3073,-158.664 91.2446,-154.235 91.8393,-159.199 91.8393,-159.199 91.8393,-159.199 91.2446,-154.235 87.3712,-159.734 90.65,-149.27 90.65,-149.27"/>
<text text-anchor="middle" x="117" y="-169.6" font-family="Times,serif" font-size="8.00">canonicalForm</text>
</g>
<!-- celexlemma47843&#45;&gt;celexwform147510 -->
<g id="edge11" class="edge"><title>celexlemma47843&#45;&gt;celexwform147510</title>
<path fill="none" stroke="#000088" d="M57.0625,-193.988C49.8045,-186.356 44.4923,-176.934 47.5,-167 48.3962,-164.04 49.5271,-161.095 50.8279,-158.199"/>
<polygon fill="#000088" stroke="#000088" points="55.4813,-149.162 54.9039,-160.113 53.1922,-153.608 50.9032,-158.053 50.9032,-158.053 50.9032,-158.053 53.1922,-153.608 46.9024,-155.993 55.4813,-149.162 55.4813,-149.162"/>
<text text-anchor="middle" x="67.5" y="-169.6" font-family="Times,serif" font-size="8.00">lexicalForm</text>
</g>
<!-- celexlemma108599 -->
<g id="node10" class="node"><title>celexlemma108599</title>
<path fill="none" stroke="black" d="M727.5,-313C727.5,-313 615.5,-313 615.5,-313 609.5,-313 603.5,-307 603.5,-301 603.5,-301 603.5,-289 603.5,-289 603.5,-283 609.5,-277 615.5,-277 615.5,-277 727.5,-277 727.5,-277 733.5,-277 739.5,-283 739.5,-289 739.5,-289 739.5,-301 739.5,-301 739.5,-307 733.5,-313 727.5,-313"/>
<polygon fill="lightblue" stroke="none" points="611.5,-287 611.5,-302 731.5,-302 731.5,-287 611.5,-287"/>
<text text-anchor="start" x="614" y="-293" font-family="Times,serif" font-style="italic" font-size="10.00">celex_lemma_108599:UNK</text>
</g>
<!-- celexcomp92551 -->
<g id="node11" class="node"><title>celexcomp92551</title>
<path fill="none" stroke="black" d="M585.5,-231C585.5,-231 483.5,-231 483.5,-231 477.5,-231 471.5,-225 471.5,-219 471.5,-219 471.5,-207 471.5,-207 471.5,-201 477.5,-195 483.5,-195 483.5,-195 585.5,-195 585.5,-195 591.5,-195 597.5,-201 597.5,-207 597.5,-207 597.5,-219 597.5,-219 597.5,-225 591.5,-231 585.5,-231"/>
<polygon fill="lightblue" stroke="none" points="479.5,-205 479.5,-220 589.5,-220 589.5,-205 479.5,-205"/>
<text text-anchor="start" x="481.5" y="-211" font-family="Times,serif" font-style="italic" font-size="10.00">celex_comp_92551:Class</text>
</g>
<!-- celexlemma108599&#45;&gt;celexcomp92551 -->
<g id="edge12" class="edge"><title>celexlemma108599&#45;&gt;celexcomp92551</title>
<path fill="none" stroke="#000088" d="M603.237,-284.585C585.422,-279.407 567.355,-271.395 553.5,-259 548.064,-254.137 544.137,-247.464 541.317,-240.744"/>
<polygon fill="#000088" stroke="#000088" points="537.932,-231.072 545.483,-239.024 539.584,-235.791 541.236,-240.511 541.236,-240.511 541.236,-240.511 539.584,-235.791 536.988,-241.997 537.932,-231.072 537.932,-231.072"/>
<text text-anchor="middle" x="557.5" y="-252.6" font-family="Times,serif" font-size="8.00">_1</text>
</g>
<!-- celexlemma108599&#45;&gt;celexcomp92551 -->
<g id="edge15" class="edge"><title>celexlemma108599&#45;&gt;celexcomp92551</title>
<path fill="none" stroke="#000088" d="M642.11,-276.838C621.794,-264.975 594.575,-249.08 572.596,-236.246"/>
<polygon fill="#000088" stroke="#000088" points="563.841,-231.134 574.746,-232.29 568.159,-233.655 572.477,-236.176 572.477,-236.176 572.477,-236.176 568.159,-233.655 570.208,-240.062 563.841,-231.134 563.841,-231.134"/>
<text text-anchor="middle" x="629" y="-252.6" font-family="Times,serif" font-size="8.00">constituent</text>
</g>
<!-- celexcomp92552 -->
<g id="node12" class="node"><title>celexcomp92552</title>
<path fill="none" stroke="black" d="M729.5,-231C729.5,-231 627.5,-231 627.5,-231 621.5,-231 615.5,-225 615.5,-219 615.5,-219 615.5,-207 615.5,-207 615.5,-201 621.5,-195 627.5,-195 627.5,-195 729.5,-195 729.5,-195 735.5,-195 741.5,-201 741.5,-207 741.5,-207 741.5,-219 741.5,-219 741.5,-225 735.5,-231 729.5,-231"/>
<polygon fill="lightblue" stroke="none" points="623.5,-205 623.5,-220 733.5,-220 733.5,-205 623.5,-205"/>
<text text-anchor="start" x="625.5" y="-211" font-family="Times,serif" font-style="italic" font-size="10.00">celex_comp_92552:Class</text>
</g>
<!-- celexlemma108599&#45;&gt;celexcomp92552 -->
<g id="edge13" class="edge"><title>celexlemma108599&#45;&gt;celexcomp92552</title>
<path fill="none" stroke="#000088" d="M661.341,-276.969C657.72,-268.852 655.073,-258.977 657.5,-250 658.415,-246.615 659.737,-243.221 661.278,-239.943"/>
<polygon fill="#000088" stroke="#000088" points="666.047,-231.115 665.253,-242.052 663.67,-235.514 661.294,-239.913 661.294,-239.913 661.294,-239.913 663.67,-235.514 657.335,-237.774 666.047,-231.115 666.047,-231.115"/>
<text text-anchor="middle" x="661.5" y="-252.6" font-family="Times,serif" font-size="8.00">_2</text>
</g>
<!-- celexlemma108599&#45;&gt;celexcomp92552 -->
<g id="edge16" class="edge"><title>celexlemma108599&#45;&gt;celexcomp92552</title>
<path fill="none" stroke="#000088" d="M673.019,-276.641C673.924,-266.297 675.093,-252.941 676.118,-241.221"/>
<polygon fill="#000088" stroke="#000088" points="677.008,-231.05 680.619,-241.404 676.572,-236.031 676.136,-241.012 676.136,-241.012 676.136,-241.012 676.572,-236.031 671.653,-240.62 677.008,-231.05 677.008,-231.05"/>
<text text-anchor="middle" x="693" y="-252.6" font-family="Times,serif" font-size="8.00">constituent</text>
</g>
<!-- celexcomp92553 -->
<g id="node13" class="node"><title>celexcomp92553</title>
<path fill="none" stroke="black" d="M899.5,-231C899.5,-231 771.5,-231 771.5,-231 765.5,-231 759.5,-225 759.5,-219 759.5,-219 759.5,-207 759.5,-207 759.5,-201 765.5,-195 771.5,-195 771.5,-195 899.5,-195 899.5,-195 905.5,-195 911.5,-201 911.5,-207 911.5,-207 911.5,-219 911.5,-219 911.5,-225 905.5,-231 899.5,-231"/>
<polygon fill="lightblue" stroke="none" points="767.5,-205 767.5,-220 903.5,-220 903.5,-205 767.5,-205"/>
<text text-anchor="start" x="769.5" y="-211" font-family="Times,serif" font-style="italic" font-size="10.00">celex_comp_92553:Component</text>
</g>
<!-- celexlemma108599&#45;&gt;celexcomp92553 -->
<g id="edge14" class="edge"><title>celexlemma108599&#45;&gt;celexcomp92553</title>
<path fill="none" stroke="#000088" d="M706.682,-276.838C731.435,-264.764 764.746,-248.514 791.293,-235.564"/>
<polygon fill="#000088" stroke="#000088" points="800.376,-231.134 793.361,-239.562 795.882,-233.326 791.388,-235.518 791.388,-235.518 791.388,-235.518 795.882,-233.326 789.415,-231.473 800.376,-231.134 800.376,-231.134"/>
<text text-anchor="middle" x="762.5" y="-252.6" font-family="Times,serif" font-size="8.00">_3</text>
</g>
<!-- celexlemma108599&#45;&gt;celexcomp92553 -->
<g id="edge17" class="edge"><title>celexlemma108599&#45;&gt;celexcomp92553</title>
<path fill="none" stroke="#000088" d="M727.83,-276.997C742.068,-271.916 757.109,-265.847 770.5,-259 782.553,-252.837 794.967,-244.743 805.675,-237.121"/>
<polygon fill="#000088" stroke="#000088" points="813.857,-231.155 808.428,-240.682 809.817,-234.101 805.777,-237.046 805.777,-237.046 805.777,-237.046 809.817,-234.101 803.126,-233.41 813.857,-231.155 813.857,-231.155"/>
<text text-anchor="middle" x="804" y="-252.6" font-family="Times,serif" font-size="8.00">constituent</text>
</g>
<!-- Noun -->
<g id="node14" class="node"><title>Noun</title>
<path fill="none" stroke="black" d="M744.5,-133C744.5,-133 698.5,-133 698.5,-133 692.5,-133 686.5,-127 686.5,-121 686.5,-121 686.5,-109 686.5,-109 686.5,-103 692.5,-97 698.5,-97 698.5,-97 744.5,-97 744.5,-97 750.5,-97 756.5,-103 756.5,-109 756.5,-109 756.5,-121 756.5,-121 756.5,-127 750.5,-133 744.5,-133"/>
<polygon fill="lightblue" stroke="none" points="694.5,-107 694.5,-122 748.5,-122 748.5,-107 694.5,-107"/>
<text text-anchor="start" x="697" y="-113" font-family="Times,serif" font-style="italic" font-size="10.00">Noun:Class</text>
</g>
<!-- celexcomp92553&#45;&gt;Noun -->
<g id="edge18" class="edge"><title>celexcomp92553&#45;&gt;Noun</title>
<path fill="none" stroke="#000088" d="M810.356,-194.855C802.255,-189.08 793.346,-182.457 785.5,-176 771.898,-164.806 757.522,-151.479 745.849,-140.232"/>
<polygon fill="#000088" stroke="#000088" points="738.603,-133.184 748.909,-136.931 742.188,-136.67 745.772,-140.157 745.772,-140.157 745.772,-140.157 742.188,-136.67 742.634,-143.382 738.603,-133.184 738.603,-133.184"/>
<text text-anchor="middle" x="808.5" y="-169.6" font-family="Times,serif" font-size="8.00">partOfSpeech</text>
</g>
<!-- node1d001pnnex1 -->
<g id="node15" class="node"><title>node1d001pnnex1</title>
<path fill="none" stroke="black" d="M884,-134C884,-134 787,-134 787,-134 781,-134 775,-128 775,-122 775,-122 775,-108 775,-108 775,-102 781,-96 787,-96 787,-96 884,-96 884,-96 890,-96 896,-102 896,-108 896,-108 896,-122 896,-122 896,-128 890,-134 884,-134"/>
<polygon fill="lightblue" stroke="none" points="783.5,-115 783.5,-130 888.5,-130 888.5,-115 783.5,-115"/>
<text text-anchor="start" x="785.5" y="-121" font-family="Times,serif" font-style="italic" font-size="10.00">node1d001pnnex1:UNK</text>
<text text-anchor="start" x="785.5" y="-105" font-family="Times,serif" font-size="10.00"> &#160;&#160;&#160;&#160;&#160;&#160;&#160;writtenRep &#160;&#160;&#160;&#160;&#160;</text>
<text text-anchor="start" x="867.5" y="-105" font-family="Times,serif" font-size="10.00">riem</text>
</g>
<!-- celexcomp92553&#45;&gt;node1d001pnnex1 -->
<g id="edge19" class="edge"><title>celexcomp92553&#45;&gt;node1d001pnnex1</title>
<path fill="none" stroke="#000088" d="M835.5,-194.837C835.5,-180.857 835.5,-160.825 835.5,-144.452"/>
<polygon fill="#000088" stroke="#000088" points="835.5,-134.322 840,-144.322 835.5,-139.322 835.5,-144.322 835.5,-144.322 835.5,-144.322 835.5,-139.322 831,-144.322 835.5,-134.322 835.5,-134.322"/>
<text text-anchor="middle" x="843.5" y="-169.6" font-family="Times,serif" font-size="8.00">stem</text>
</g>
<!-- node1d001pnnex2 -->
<g id="node16" class="node"><title>node1d001pnnex2</title>
<path fill="none" stroke="black" d="M1023,-134C1023,-134 926,-134 926,-134 920,-134 914,-128 914,-122 914,-122 914,-108 914,-108 914,-102 920,-96 926,-96 926,-96 1023,-96 1023,-96 1029,-96 1035,-102 1035,-108 1035,-108 1035,-122 1035,-122 1035,-128 1029,-134 1023,-134"/>
<polygon fill="lightblue" stroke="none" points="922.5,-115 922.5,-130 1027.5,-130 1027.5,-115 922.5,-115"/>
<text text-anchor="start" x="924.5" y="-121" font-family="Times,serif" font-style="italic" font-size="10.00">node1d001pnnex2:UNK</text>
<text text-anchor="start" x="926" y="-105" font-family="Times,serif" font-size="10.00"> &#160;&#160;&#160;&#160;&#160;&#160;&#160;writtenRep &#160;&#160;&#160;&#160;&#160;</text>
<text text-anchor="start" x="1011" y="-105" font-family="Times,serif" font-size="10.00">kat</text>
</g>
<!-- celexcomp92553&#45;&gt;node1d001pnnex2 -->
<g id="edge20" class="edge"><title>celexcomp92553&#45;&gt;node1d001pnnex2</title>
<path fill="none" stroke="#000088" d="M860.35,-194.837C882.424,-179.592 914.918,-157.15 939.598,-140.105"/>
<polygon fill="#000088" stroke="#000088" points="947.972,-134.322 942.301,-143.707 943.857,-137.163 939.743,-140.005 939.743,-140.005 939.743,-140.005 943.857,-137.163 937.186,-136.302 947.972,-134.322 947.972,-134.322"/>
<text text-anchor="middle" x="905.5" y="-169.6" font-family="Times,serif" font-size="8.00">stem</text>
</g>
<!-- NOUN -->
<g id="node17" class="node"><title>NOUN</title>
<path fill="none" stroke="black" d="M869.5,-313C869.5,-313 783.5,-313 783.5,-313 777.5,-313 771.5,-307 771.5,-301 771.5,-301 771.5,-289 771.5,-289 771.5,-283 777.5,-277 783.5,-277 783.5,-277 869.5,-277 869.5,-277 875.5,-277 881.5,-283 881.5,-289 881.5,-289 881.5,-301 881.5,-301 881.5,-307 875.5,-313 869.5,-313"/>
<polygon fill="lightblue" stroke="none" points="779.5,-287 779.5,-302 873.5,-302 873.5,-287 779.5,-287"/>
<text text-anchor="start" x="781.5" y="-293" font-family="Times,serif" font-style="italic" font-size="10.00">NOUN:PartOfSpeech</text>
</g>
<!-- celexlemma124345 -->
<g id="node18" class="node"><title>celexlemma124345</title>
<path fill="none" stroke="black" d="M1051.5,-232C1051.5,-232 941.5,-232 941.5,-232 935.5,-232 929.5,-226 929.5,-220 929.5,-220 929.5,-206 929.5,-206 929.5,-200 935.5,-194 941.5,-194 941.5,-194 1051.5,-194 1051.5,-194 1057.5,-194 1063.5,-200 1063.5,-206 1063.5,-206 1063.5,-220 1063.5,-220 1063.5,-226 1057.5,-232 1051.5,-232"/>
<polygon fill="lightblue" stroke="none" points="937.5,-213 937.5,-228 1055.5,-228 1055.5,-213 937.5,-213"/>
<text text-anchor="start" x="939.5" y="-219" font-family="Times,serif" font-style="italic" font-size="10.00">celex_lemma_124345:Affix</text>
<text text-anchor="start" x="952.5" y="-203" font-family="Times,serif" font-size="10.00"> &#160;&#160;&#160;&#160;&#160;&#160;&#160;label &#160;&#160;&#160;&#160;&#160;</text>
<text text-anchor="start" x="1035" y="-203" font-family="Times,serif" font-size="10.00">e</text>
</g>
<!-- celexcomp92554 -->
<g id="node19" class="node"><title>celexcomp92554</title>
<path fill="none" stroke="black" d="M1060.5,-313C1060.5,-313 932.5,-313 932.5,-313 926.5,-313 920.5,-307 920.5,-301 920.5,-301 920.5,-289 920.5,-289 920.5,-283 926.5,-277 932.5,-277 932.5,-277 1060.5,-277 1060.5,-277 1066.5,-277 1072.5,-283 1072.5,-289 1072.5,-289 1072.5,-301 1072.5,-301 1072.5,-307 1066.5,-313 1060.5,-313"/>
<polygon fill="lightblue" stroke="none" points="928.5,-287 928.5,-302 1064.5,-302 1064.5,-287 928.5,-287"/>
<text text-anchor="start" x="930.5" y="-293" font-family="Times,serif" font-style="italic" font-size="10.00">celex_comp_92554:Component</text>
</g>
<!-- celexcomp92554&#45;&gt;celexlemma124345 -->
<g id="edge21" class="edge"><title>celexcomp92554&#45;&gt;celexlemma124345</title>
<path fill="none" stroke="#000088" d="M996.5,-276.641C996.5,-266.579 996.5,-253.666 996.5,-242.181"/>
<polygon fill="#000088" stroke="#000088" points="996.5,-232.158 1001,-242.158 996.5,-237.158 996.5,-242.158 996.5,-242.158 996.5,-242.158 996.5,-237.158 992,-242.158 996.5,-232.158 996.5,-232.158"/>
<text text-anchor="middle" x="1020.5" y="-252.6" font-family="Times,serif" font-size="8.00">correspondsTo</text>
</g>
</g>
</svg>
