<svg width="1953pt" height="298pt"
 viewBox="0.00 0.00 1953.00 298.00" xmlns="http://www.w3.org/2000/svg" xmlns:xlink="http://www.w3.org/1999/xlink">
<g id="graph0" class="graph" transform="scale(1 1) rotate(0) translate(4 294)">
<title>G</title>
<polygon fill="#ffffff" stroke="transparent" points="-4,4 -4,-294 1949,-294 1949,4 -4,4"/>
<!-- cgnlexwform862735 -->
<g id="node1" class="node">
<title>cgnlexwform862735</title>
<path fill="none" stroke="#000000" d="M733.5,-201.5C733.5,-201.5 584.5,-201.5 584.5,-201.5 578.5,-201.5 572.5,-195.5 572.5,-189.5 572.5,-189.5 572.5,-100.5 572.5,-100.5 572.5,-94.5 578.5,-88.5 584.5,-88.5 584.5,-88.5 733.5,-88.5 733.5,-88.5 739.5,-88.5 745.5,-94.5 745.5,-100.5 745.5,-100.5 745.5,-189.5 745.5,-189.5 745.5,-195.5 739.5,-201.5 733.5,-201.5"/>
<polygon fill="#add8e6" stroke="transparent" points="581,-182 581,-197 738,-197 738,-182 581,-182"/>
<text text-anchor="start" x="584" y="-188" font-family="Times,serif" font-style="italic" font-size="10.00" fill="#000000">cgnlex_wform_862735:ontolexword</text>
<text text-anchor="start" x="586.5" y="-172" font-family="Times,serif" font-size="10.00" fill="#000000"> &#160;&#160;&#160;&#160;&#160;&#160;&#160;ontolexwrittenRep &#160;&#160;&#160;&#160;&#160;</text>
<text text-anchor="start" x="707" y="-172" font-family="Times,serif" font-size="10.00" fill="#000000">katjes</text>
<text text-anchor="start" x="583" y="-157" font-family="Times,serif" font-size="10.00" fill="#000000"> &#160;&#160;&#160;&#160;&#160;&#160;&#160;ontolexphoneticRep &#160;&#160;&#160;&#160;&#160;</text>
<text text-anchor="start" x="703.5" y="-157" font-family="Times,serif" font-size="10.00" fill="#000000">kAtj@s</text>
<text text-anchor="start" x="583" y="-142" font-family="Times,serif" font-size="10.00" fill="#000000"> &#160;&#160;&#160;&#160;&#160;&#160;&#160;ontolexphoneticRep &#160;&#160;&#160;&#160;&#160;</text>
<text text-anchor="start" x="703.5" y="-142" font-family="Times,serif" font-size="10.00" fill="#000000">kAtj@s</text>
<text text-anchor="start" x="599" y="-127" font-family="Times,serif" font-size="10.00" fill="#000000"> &#160;&#160;&#160;&#160;&#160;&#160;&#160;variantLabel &#160;&#160;&#160;&#160;&#160;</text>
<text text-anchor="start" x="703" y="-127" font-family="Times,serif" font-size="10.00" fill="#000000">Flemish</text>
<text text-anchor="start" x="583" y="-112" font-family="Times,serif" font-size="10.00" fill="#000000"> &#160;&#160;&#160;&#160;&#160;&#160;&#160;ontolexphoneticRep &#160;&#160;&#160;&#160;&#160;</text>
<text text-anchor="start" x="703.5" y="-112" font-family="Times,serif" font-size="10.00" fill="#000000">kAtj@s</text>
<text text-anchor="start" x="599" y="-97" font-family="Times,serif" font-size="10.00" fill="#000000"> &#160;&#160;&#160;&#160;&#160;&#160;&#160;variantLabel &#160;&#160;&#160;&#160;&#160;</text>
<text text-anchor="start" x="703" y="-97" font-family="Times,serif" font-size="10.00" fill="#000000">Flemish</text>
</g>
<!-- lexinfoneutralRegister -->
<g id="node2" class="node">
<title>lexinfoneutralRegister</title>
<path fill="none" stroke="#000000" d="M1356,-36C1356,-36 1242,-36 1242,-36 1236,-36 1230,-30 1230,-24 1230,-24 1230,-12 1230,-12 1230,-6 1236,0 1242,0 1242,0 1356,0 1356,0 1362,0 1368,-6 1368,-12 1368,-12 1368,-24 1368,-24 1368,-30 1362,-36 1356,-36"/>
<polygon fill="#add8e6" stroke="transparent" points="1238,-10 1238,-25 1360,-25 1360,-10 1238,-10"/>
<text text-anchor="start" x="1240" y="-16" font-family="Times,serif" font-style="italic" font-size="10.00" fill="#000000">lexinfoneutralRegister:Class</text>
</g>
<!-- cgnlexwform862735&#45;&gt;lexinfoneutralRegister -->
<g id="edge1" class="edge">
<title>cgnlexwform862735&#45;&gt;lexinfoneutralRegister</title>
<path fill="none" stroke="#000088" d="M660.7198,-88.3868C663.8934,-75.2977 669.7162,-62.6803 680,-54 681.2763,-52.9227 1053.0794,-31.8525 1219.7688,-22.4566"/>
<polygon fill="#000088" stroke="#000088" points="1229.9638,-21.8821 1220.2328,-26.9377 1224.9717,-22.1635 1219.9796,-22.4448 1219.9796,-22.4448 1219.9796,-22.4448 1224.9717,-22.1635 1219.7264,-17.952 1229.9638,-21.8821 1229.9638,-21.8821"/>
<text text-anchor="middle" x="705" y="-56.6" font-family="Times,serif" font-size="8.00" fill="#000000">lexinfoRegister</text>
</g>
<!-- cgnlexwform862735&#45;&gt;lexinfoneutralRegister -->
<g id="edge2" class="edge">
<title>cgnlexwform862735&#45;&gt;lexinfoneutralRegister</title>
<path fill="none" stroke="#000088" d="M615.2593,-88.2904C610.7763,-75.9618 610.7637,-63.7179 620,-54 633.5662,-39.7264 954.3356,-37.0445 974,-36 1057.8291,-31.5474 1153.806,-26.2012 1219.6045,-22.4978"/>
<polygon fill="#000088" stroke="#000088" points="1229.8992,-21.9179 1220.1681,-26.9733 1224.9071,-22.1992 1219.915,-22.4804 1219.915,-22.4804 1219.915,-22.4804 1224.9071,-22.1992 1219.6619,-17.9875 1229.8992,-21.9179 1229.8992,-21.9179"/>
<text text-anchor="middle" x="645" y="-56.6" font-family="Times,serif" font-size="8.00" fill="#000000">lexinfoRegister</text>
</g>
<!-- lexinfoformalRegister -->
<g id="node3" class="node">
<title>lexinfoformalRegister</title>
<path fill="none" stroke="#000000" d="M953,-36C953,-36 841,-36 841,-36 835,-36 829,-30 829,-24 829,-24 829,-12 829,-12 829,-6 835,0 841,0 841,0 953,0 953,0 959,0 965,-6 965,-12 965,-12 965,-24 965,-24 965,-30 959,-36 953,-36"/>
<polygon fill="#add8e6" stroke="transparent" points="837,-10 837,-25 957,-25 957,-10 837,-10"/>
<text text-anchor="start" x="839" y="-16" font-family="Times,serif" font-style="italic" font-size="10.00" fill="#000000">lexinfoformalRegister:Class</text>
</g>
<!-- cgnlexwform862735&#45;&gt;lexinfoformalRegister -->
<g id="edge3" class="edge">
<title>cgnlexwform862735&#45;&gt;lexinfoformalRegister</title>
<path fill="none" stroke="#000088" d="M573.8409,-88.3069C554.161,-75.005 538.6762,-64.2751 538,-63 536.126,-59.4662 535.2981,-56.9495 538,-54 553.445,-37.1394 720.2534,-38.3275 743,-36 767.6026,-33.4826 794.3812,-30.4537 818.6052,-27.6047"/>
<polygon fill="#000088" stroke="#000088" points="828.8167,-26.3968 819.4146,-32.0405 823.8513,-26.9842 818.886,-27.5716 818.886,-27.5716 818.886,-27.5716 823.8513,-26.9842 818.3573,-23.1028 828.8167,-26.3968 828.8167,-26.3968"/>
<text text-anchor="middle" x="563" y="-56.6" font-family="Times,serif" font-size="8.00" fill="#000000">lexinfoRegister</text>
</g>
<!-- lexinfoplural -->
<g id="node4" class="node">
<title>lexinfoplural</title>
<path fill="none" stroke="#000000" d="M722,-36C722,-36 646,-36 646,-36 640,-36 634,-30 634,-24 634,-24 634,-12 634,-12 634,-6 640,0 646,0 646,0 722,0 722,0 728,0 734,-6 734,-12 734,-12 734,-24 734,-24 734,-30 728,-36 722,-36"/>
<polygon fill="#add8e6" stroke="transparent" points="642,-10 642,-25 726,-25 726,-10 642,-10"/>
<text text-anchor="start" x="644" y="-16" font-family="Times,serif" font-style="italic" font-size="10.00" fill="#000000">lexinfoplural:Class</text>
</g>
<!-- cgnlexwform862735&#45;&gt;lexinfoplural -->
<g id="edge4" class="edge">
<title>cgnlexwform862735&#45;&gt;lexinfoplural</title>
<path fill="none" stroke="#000088" d="M579.1023,-88.4571C573.7694,-85.7153 568.378,-83.1957 563,-81 522.3622,-64.4082 439.6278,-87.4923 468,-54 478.0468,-42.1402 563.4062,-30.7416 623.7551,-24.0548"/>
<polygon fill="#000088" stroke="#000088" points="633.9583,-22.9425 624.505,-28.4999 628.9878,-23.4844 624.0172,-24.0264 624.0172,-24.0264 624.0172,-24.0264 628.9878,-23.4844 623.5295,-19.5529 633.9583,-22.9425 633.9583,-22.9425"/>
<text text-anchor="middle" x="491.5" y="-56.6" font-family="Times,serif" font-size="8.00" fill="#000000">lexinfonumber</text>
</g>
<!-- node1cj695b9jx1 -->
<g id="node5" class="node">
<title>node1cj695b9jx1</title>
<path fill="none" stroke="#000000" d="M270,-164C270,-164 148,-164 148,-164 142,-164 136,-158 136,-152 136,-152 136,-138 136,-138 136,-132 142,-126 148,-126 148,-126 270,-126 270,-126 276,-126 282,-132 282,-138 282,-138 282,-152 282,-152 282,-158 276,-164 270,-164"/>
<polygon fill="#add8e6" stroke="transparent" points="144,-145 144,-160 274,-160 274,-145 144,-145"/>
<text text-anchor="start" x="160.5" y="-151" font-family="Times,serif" font-style="italic" font-size="10.00" fill="#000000">node1cj695b9jx1:UNK</text>
<text text-anchor="start" x="146" y="-135" font-family="Times,serif" font-size="10.00" fill="#000000"> &#160;&#160;&#160;&#160;&#160;&#160;&#160;ontolexwrittenRep &#160;&#160;&#160;&#160;&#160;</text>
<text text-anchor="start" x="259" y="-135" font-family="Times,serif" font-size="10.00" fill="#000000">kat</text>
</g>
<!-- node1cj695b9jx4 -->
<g id="node6" class="node">
<title>node1cj695b9jx4</title>
<path fill="none" stroke="#000000" d="M106,-163C106,-163 12,-163 12,-163 6,-163 0,-157 0,-151 0,-151 0,-139 0,-139 0,-133 6,-127 12,-127 12,-127 106,-127 106,-127 112,-127 118,-133 118,-139 118,-139 118,-151 118,-151 118,-157 112,-163 106,-163"/>
<polygon fill="#add8e6" stroke="transparent" points="8,-137 8,-152 110,-152 110,-137 8,-137"/>
<text text-anchor="start" x="10.5" y="-143" font-family="Times,serif" font-style="italic" font-size="10.00" fill="#000000">node1cj695b9jx4:UNK</text>
</g>
<!-- lexinfoneuter -->
<g id="node7" class="node">
<title>lexinfoneuter</title>
<path fill="none" stroke="#000000" d="M98,-36C98,-36 20,-36 20,-36 14,-36 8,-30 8,-24 8,-24 8,-12 8,-12 8,-6 14,0 20,0 20,0 98,0 98,0 104,0 110,-6 110,-12 110,-12 110,-24 110,-24 110,-30 104,-36 98,-36"/>
<polygon fill="#add8e6" stroke="transparent" points="16,-10 16,-25 102,-25 102,-10 16,-10"/>
<text text-anchor="start" x="18.5" y="-16" font-family="Times,serif" font-style="italic" font-size="10.00" fill="#000000">lexinfoneuter:Class</text>
</g>
<!-- node1cj695b9jx4&#45;&gt;lexinfoneuter -->
<g id="edge5" class="edge">
<title>node1cj695b9jx4&#45;&gt;lexinfoneuter</title>
<path fill="none" stroke="#000088" d="M59,-126.804C59,-105.7735 59,-70.9094 59,-46.3236"/>
<polygon fill="#000088" stroke="#000088" points="59,-36.1622 63.5001,-46.1622 59,-41.1622 59.0001,-46.1622 59.0001,-46.1622 59.0001,-46.1622 59,-41.1622 54.5001,-46.1623 59,-36.1622 59,-36.1622"/>
<text text-anchor="middle" x="82.5" y="-56.6" font-family="Times,serif" font-size="8.00" fill="#000000">lexinfoGender</text>
</g>
<!-- cgnlexlemma47751 -->
<g id="node8" class="node">
<title>cgnlexlemma47751</title>
<path fill="none" stroke="#000000" d="M809,-290C809,-290 635,-290 635,-290 629,-290 623,-284 623,-278 623,-278 623,-266 623,-266 623,-260 629,-254 635,-254 635,-254 809,-254 809,-254 815,-254 821,-260 821,-266 821,-266 821,-278 821,-278 821,-284 815,-290 809,-290"/>
<polygon fill="#add8e6" stroke="transparent" points="631,-264 631,-279 813,-279 813,-264 631,-264"/>
<text text-anchor="start" x="633" y="-270" font-family="Times,serif" font-style="italic" font-size="10.00" fill="#000000">cgnlex_lemma_47751:ontolexLexicalEntry</text>
</g>
<!-- cgnlexlemma47751&#45;&gt;cgnlexwform862735 -->
<g id="edge13" class="edge">
<title>cgnlexlemma47751&#45;&gt;cgnlexwform862735</title>
<path fill="none" stroke="#000088" d="M712.9736,-253.804C707.2853,-242.3371 699.5569,-226.7575 691.7271,-210.9738"/>
<polygon fill="#000088" stroke="#000088" points="687.1201,-201.6865 695.5953,-208.6451 689.3421,-206.1657 691.564,-210.6449 691.564,-210.6449 691.564,-210.6449 689.3421,-206.1657 687.5328,-212.6446 687.1201,-201.6865 687.1201,-201.6865"/>
<text text-anchor="middle" x="724" y="-229.6" font-family="Times,serif" font-size="8.00" fill="#000000">ontolexform</text>
</g>
<!-- cgnlexlemma47751&#45;&gt;node1cj695b9jx1 -->
<g id="edge6" class="edge">
<title>cgnlexlemma47751&#45;&gt;node1cj695b9jx1</title>
<path fill="none" stroke="#000088" d="M622.6376,-264.245C514.0981,-254.5909 348.0751,-236.011 291,-209 270.7056,-199.3956 250.7827,-184.0249 235.6572,-170.7541"/>
<polygon fill="#000088" stroke="#000088" points="228.2082,-164.0474 238.6509,-167.3943 231.924,-167.393 235.6399,-170.7385 235.6399,-170.7385 235.6399,-170.7385 231.924,-167.393 232.6289,-174.0828 228.2082,-164.0474 228.2082,-164.0474"/>
<text text-anchor="middle" x="410" y="-229.6" font-family="Times,serif" font-size="8.00" fill="#000000">ontolexform</text>
</g>
<!-- cgnlexlemma47751&#45;&gt;node1cj695b9jx4 -->
<g id="edge9" class="edge">
<title>cgnlexlemma47751&#45;&gt;node1cj695b9jx4</title>
<path fill="none" stroke="#000088" d="M622.8798,-268.9938C525.6619,-265.0018 373.4528,-255.9631 243,-236 190.6754,-227.9928 173.6578,-234.0005 127,-209 109.2013,-199.463 92.6251,-184.056 80.2951,-170.7487"/>
<polygon fill="#000088" stroke="#000088" points="73.5489,-163.2164 83.5727,-167.6633 76.8848,-166.941 80.2206,-170.6655 80.2206,-170.6655 80.2206,-170.6655 76.8848,-166.941 76.8685,-173.6678 73.5489,-163.2164 73.5489,-163.2164"/>
<text text-anchor="middle" x="295" y="-229.6" font-family="Times,serif" font-size="8.00" fill="#000000">lexinfoMorphosyntacticProperty</text>
</g>
<!-- node1cj695b9jx2 -->
<g id="node9" class="node">
<title>node1cj695b9jx2</title>
<path fill="none" stroke="#000000" d="M406,-163C406,-163 312,-163 312,-163 306,-163 300,-157 300,-151 300,-151 300,-139 300,-139 300,-133 306,-127 312,-127 312,-127 406,-127 406,-127 412,-127 418,-133 418,-139 418,-139 418,-151 418,-151 418,-157 412,-163 406,-163"/>
<polygon fill="#add8e6" stroke="transparent" points="308,-137 308,-152 410,-152 410,-137 308,-137"/>
<text text-anchor="start" x="310.5" y="-143" font-family="Times,serif" font-style="italic" font-size="10.00" fill="#000000">node1cj695b9jx2:UNK</text>
</g>
<!-- cgnlexlemma47751&#45;&gt;node1cj695b9jx2 -->
<g id="edge7" class="edge">
<title>cgnlexlemma47751&#45;&gt;node1cj695b9jx2</title>
<path fill="none" stroke="#000088" d="M622.6995,-261.7458C565.3807,-255.0368 499.3712,-245.7352 472,-236 435.4858,-223.013 402.0451,-192.7659 381.1731,-170.697"/>
<polygon fill="#000088" stroke="#000088" points="374.3301,-163.2738 384.4167,-167.5764 377.719,-166.9501 381.108,-170.6264 381.108,-170.6264 381.108,-170.6264 377.719,-166.9501 377.7993,-173.6765 374.3301,-163.2738 374.3301,-163.2738"/>
<text text-anchor="middle" x="524" y="-229.6" font-family="Times,serif" font-size="8.00" fill="#000000">lexinfoMorphosyntacticProperty</text>
</g>
<!-- node1cj695b9jx3 -->
<g id="node11" class="node">
<title>node1cj695b9jx3</title>
<path fill="none" stroke="#000000" d="M542,-163C542,-163 448,-163 448,-163 442,-163 436,-157 436,-151 436,-151 436,-139 436,-139 436,-133 442,-127 448,-127 448,-127 542,-127 542,-127 548,-127 554,-133 554,-139 554,-139 554,-151 554,-151 554,-157 548,-163 542,-163"/>
<polygon fill="#add8e6" stroke="transparent" points="444,-137 444,-152 546,-152 546,-137 444,-137"/>
<text text-anchor="start" x="446.5" y="-143" font-family="Times,serif" font-style="italic" font-size="10.00" fill="#000000">node1cj695b9jx3:UNK</text>
</g>
<!-- cgnlexlemma47751&#45;&gt;node1cj695b9jx3 -->
<g id="edge8" class="edge">
<title>cgnlexlemma47751&#45;&gt;node1cj695b9jx3</title>
<path fill="none" stroke="#000088" d="M634.3872,-253.9705C619.7469,-249.2238 605.0813,-243.3159 592,-236 562.1101,-219.2837 534.2962,-191.3931 516.1851,-170.8864"/>
<polygon fill="#000088" stroke="#000088" points="509.5034,-163.1538 519.4466,-167.7782 512.7725,-166.937 516.0416,-170.7203 516.0416,-170.7203 516.0416,-170.7203 512.7725,-166.937 512.6366,-173.6625 509.5034,-163.1538 509.5034,-163.1538"/>
<text text-anchor="middle" x="644" y="-229.6" font-family="Times,serif" font-size="8.00" fill="#000000">lexinfoMorphosyntacticProperty</text>
</g>
<!-- cgnlexwform147297 -->
<g id="node13" class="node">
<title>cgnlexwform147297</title>
<path fill="none" stroke="#000000" d="M1870.5,-186.5C1870.5,-186.5 1721.5,-186.5 1721.5,-186.5 1715.5,-186.5 1709.5,-180.5 1709.5,-174.5 1709.5,-174.5 1709.5,-115.5 1709.5,-115.5 1709.5,-109.5 1715.5,-103.5 1721.5,-103.5 1721.5,-103.5 1870.5,-103.5 1870.5,-103.5 1876.5,-103.5 1882.5,-109.5 1882.5,-115.5 1882.5,-115.5 1882.5,-174.5 1882.5,-174.5 1882.5,-180.5 1876.5,-186.5 1870.5,-186.5"/>
<polygon fill="#add8e6" stroke="transparent" points="1718,-167 1718,-182 1875,-182 1875,-167 1718,-167"/>
<text text-anchor="start" x="1721" y="-173" font-family="Times,serif" font-style="italic" font-size="10.00" fill="#000000">cgnlex_wform_147297:ontolexword</text>
<text text-anchor="start" x="1723.5" y="-157" font-family="Times,serif" font-size="10.00" fill="#000000"> &#160;&#160;&#160;&#160;&#160;&#160;&#160;ontolexwrittenRep &#160;&#160;&#160;&#160;&#160;</text>
<text text-anchor="start" x="1850" y="-157" font-family="Times,serif" font-size="10.00" fill="#000000">kat</text>
<text text-anchor="start" x="1720" y="-142" font-family="Times,serif" font-size="10.00" fill="#000000"> &#160;&#160;&#160;&#160;&#160;&#160;&#160;ontolexphoneticRep &#160;&#160;&#160;&#160;&#160;</text>
<text text-anchor="start" x="1848.5" y="-142" font-family="Times,serif" font-size="10.00" fill="#000000">kAt</text>
<text text-anchor="start" x="1720" y="-127" font-family="Times,serif" font-size="10.00" fill="#000000"> &#160;&#160;&#160;&#160;&#160;&#160;&#160;ontolexphoneticRep &#160;&#160;&#160;&#160;&#160;</text>
<text text-anchor="start" x="1848.5" y="-127" font-family="Times,serif" font-size="10.00" fill="#000000">kAt</text>
<text text-anchor="start" x="1736" y="-112" font-family="Times,serif" font-size="10.00" fill="#000000"> &#160;&#160;&#160;&#160;&#160;&#160;&#160;variantLabel &#160;&#160;&#160;&#160;&#160;</text>
<text text-anchor="start" x="1840" y="-112" font-family="Times,serif" font-size="10.00" fill="#000000">Flemish</text>
</g>
<!-- cgnlexlemma47751&#45;&gt;cgnlexwform147297 -->
<g id="edge10" class="edge">
<title>cgnlexlemma47751&#45;&gt;cgnlexwform147297</title>
<path fill="none" stroke="#000088" d="M821.3996,-268.2009C1050.3902,-259.0585 1601.6563,-234.6793 1682,-209 1695.8772,-204.5646 1709.9623,-198.3299 1723.2786,-191.4771"/>
<polygon fill="#000088" stroke="#000088" points="1732.3628,-186.6485 1725.6448,-195.3156 1727.9477,-188.9953 1723.5327,-191.3421 1723.5327,-191.3421 1723.5327,-191.3421 1727.9477,-188.9953 1721.4206,-187.3685 1732.3628,-186.6485 1732.3628,-186.6485"/>
<text text-anchor="middle" x="1564" y="-229.6" font-family="Times,serif" font-size="8.00" fill="#000000">ontolexform</text>
</g>
<!-- cgnlexwform807576 -->
<g id="node15" class="node">
<title>cgnlexwform807576</title>
<path fill="none" stroke="#000000" d="M1455.5,-201.5C1455.5,-201.5 1306.5,-201.5 1306.5,-201.5 1300.5,-201.5 1294.5,-195.5 1294.5,-189.5 1294.5,-189.5 1294.5,-100.5 1294.5,-100.5 1294.5,-94.5 1300.5,-88.5 1306.5,-88.5 1306.5,-88.5 1455.5,-88.5 1455.5,-88.5 1461.5,-88.5 1467.5,-94.5 1467.5,-100.5 1467.5,-100.5 1467.5,-189.5 1467.5,-189.5 1467.5,-195.5 1461.5,-201.5 1455.5,-201.5"/>
<polygon fill="#add8e6" stroke="transparent" points="1303,-182 1303,-197 1460,-197 1460,-182 1303,-182"/>
<text text-anchor="start" x="1306" y="-188" font-family="Times,serif" font-style="italic" font-size="10.00" fill="#000000">cgnlex_wform_807576:ontolexword</text>
<text text-anchor="start" x="1308.5" y="-172" font-family="Times,serif" font-size="10.00" fill="#000000"> &#160;&#160;&#160;&#160;&#160;&#160;&#160;ontolexwrittenRep &#160;&#160;&#160;&#160;&#160;</text>
<text text-anchor="start" x="1431" y="-172" font-family="Times,serif" font-size="10.00" fill="#000000">katje</text>
<text text-anchor="start" x="1305" y="-157" font-family="Times,serif" font-size="10.00" fill="#000000"> &#160;&#160;&#160;&#160;&#160;&#160;&#160;ontolexphoneticRep &#160;&#160;&#160;&#160;&#160;</text>
<text text-anchor="start" x="1427.5" y="-157" font-family="Times,serif" font-size="10.00" fill="#000000">kAtj@</text>
<text text-anchor="start" x="1305" y="-142" font-family="Times,serif" font-size="10.00" fill="#000000"> &#160;&#160;&#160;&#160;&#160;&#160;&#160;ontolexphoneticRep &#160;&#160;&#160;&#160;&#160;</text>
<text text-anchor="start" x="1427.5" y="-142" font-family="Times,serif" font-size="10.00" fill="#000000">kAtj@</text>
<text text-anchor="start" x="1321" y="-127" font-family="Times,serif" font-size="10.00" fill="#000000"> &#160;&#160;&#160;&#160;&#160;&#160;&#160;variantLabel &#160;&#160;&#160;&#160;&#160;</text>
<text text-anchor="start" x="1425" y="-127" font-family="Times,serif" font-size="10.00" fill="#000000">Flemish</text>
<text text-anchor="start" x="1305" y="-112" font-family="Times,serif" font-size="10.00" fill="#000000"> &#160;&#160;&#160;&#160;&#160;&#160;&#160;ontolexphoneticRep &#160;&#160;&#160;&#160;&#160;</text>
<text text-anchor="start" x="1427.5" y="-112" font-family="Times,serif" font-size="10.00" fill="#000000">kAtj@</text>
<text text-anchor="start" x="1321" y="-97" font-family="Times,serif" font-size="10.00" fill="#000000"> &#160;&#160;&#160;&#160;&#160;&#160;&#160;variantLabel &#160;&#160;&#160;&#160;&#160;</text>
<text text-anchor="start" x="1425" y="-97" font-family="Times,serif" font-size="10.00" fill="#000000">Flemish</text>
</g>
<!-- cgnlexlemma47751&#45;&gt;cgnlexwform807576 -->
<g id="edge11" class="edge">
<title>cgnlexlemma47751&#45;&gt;cgnlexwform807576</title>
<path fill="none" stroke="#000088" d="M821.0883,-266.1821C921.1725,-258.7039 1079.6259,-242.4593 1213,-209 1236.6806,-203.0593 1261.575,-194.7737 1284.7305,-186.1308"/>
<polygon fill="#000088" stroke="#000088" points="1294.1946,-182.5432 1286.439,-190.2957 1289.5193,-184.3155 1284.8439,-186.0878 1284.8439,-186.0878 1284.8439,-186.0878 1289.5193,-184.3155 1283.2488,-181.88 1294.1946,-182.5432 1294.1946,-182.5432"/>
<text text-anchor="middle" x="1141" y="-229.6" font-family="Times,serif" font-size="8.00" fill="#000000">ontolexform</text>
</g>
<!-- cgnlexwform862734 -->
<g id="node16" class="node">
<title>cgnlexwform862734</title>
<path fill="none" stroke="#000000" d="M1192.5,-201.5C1192.5,-201.5 1043.5,-201.5 1043.5,-201.5 1037.5,-201.5 1031.5,-195.5 1031.5,-189.5 1031.5,-189.5 1031.5,-100.5 1031.5,-100.5 1031.5,-94.5 1037.5,-88.5 1043.5,-88.5 1043.5,-88.5 1192.5,-88.5 1192.5,-88.5 1198.5,-88.5 1204.5,-94.5 1204.5,-100.5 1204.5,-100.5 1204.5,-189.5 1204.5,-189.5 1204.5,-195.5 1198.5,-201.5 1192.5,-201.5"/>
<polygon fill="#add8e6" stroke="transparent" points="1040,-182 1040,-197 1197,-197 1197,-182 1040,-182"/>
<text text-anchor="start" x="1043" y="-188" font-family="Times,serif" font-style="italic" font-size="10.00" fill="#000000">cgnlex_wform_862734:ontolexword</text>
<text text-anchor="start" x="1045.5" y="-172" font-family="Times,serif" font-size="10.00" fill="#000000"> &#160;&#160;&#160;&#160;&#160;&#160;&#160;ontolexwrittenRep &#160;&#160;&#160;&#160;&#160;</text>
<text text-anchor="start" x="1168" y="-172" font-family="Times,serif" font-size="10.00" fill="#000000">katje</text>
<text text-anchor="start" x="1042" y="-157" font-family="Times,serif" font-size="10.00" fill="#000000"> &#160;&#160;&#160;&#160;&#160;&#160;&#160;ontolexphoneticRep &#160;&#160;&#160;&#160;&#160;</text>
<text text-anchor="start" x="1164.5" y="-157" font-family="Times,serif" font-size="10.00" fill="#000000">kAtj@</text>
<text text-anchor="start" x="1042" y="-142" font-family="Times,serif" font-size="10.00" fill="#000000"> &#160;&#160;&#160;&#160;&#160;&#160;&#160;ontolexphoneticRep &#160;&#160;&#160;&#160;&#160;</text>
<text text-anchor="start" x="1164.5" y="-142" font-family="Times,serif" font-size="10.00" fill="#000000">kAtj@</text>
<text text-anchor="start" x="1058" y="-127" font-family="Times,serif" font-size="10.00" fill="#000000"> &#160;&#160;&#160;&#160;&#160;&#160;&#160;variantLabel &#160;&#160;&#160;&#160;&#160;</text>
<text text-anchor="start" x="1162" y="-127" font-family="Times,serif" font-size="10.00" fill="#000000">Flemish</text>
<text text-anchor="start" x="1042" y="-112" font-family="Times,serif" font-size="10.00" fill="#000000"> &#160;&#160;&#160;&#160;&#160;&#160;&#160;ontolexphoneticRep &#160;&#160;&#160;&#160;&#160;</text>
<text text-anchor="start" x="1164.5" y="-112" font-family="Times,serif" font-size="10.00" fill="#000000">kAtj@</text>
<text text-anchor="start" x="1058" y="-97" font-family="Times,serif" font-size="10.00" fill="#000000"> &#160;&#160;&#160;&#160;&#160;&#160;&#160;variantLabel &#160;&#160;&#160;&#160;&#160;</text>
<text text-anchor="start" x="1162" y="-97" font-family="Times,serif" font-size="10.00" fill="#000000">Flemish</text>
</g>
<!-- cgnlexlemma47751&#45;&gt;cgnlexwform862734 -->
<g id="edge12" class="edge">
<title>cgnlexlemma47751&#45;&gt;cgnlexwform862734</title>
<path fill="none" stroke="#000088" d="M791.2377,-253.9534C835.4824,-242.049 893.932,-225.631 945,-209 970.1106,-200.8224 996.9951,-191.2722 1021.9051,-182.0823"/>
<polygon fill="#000088" stroke="#000088" points="1031.3476,-178.5814 1023.5357,-186.2771 1026.6595,-180.3196 1021.9713,-182.0578 1021.9713,-182.0578 1021.9713,-182.0578 1026.6595,-180.3196 1020.4069,-177.8384 1031.3476,-178.5814 1031.3476,-178.5814"/>
<text text-anchor="middle" x="905" y="-229.6" font-family="Times,serif" font-size="8.00" fill="#000000">ontolexform</text>
</g>
<!-- cgnlexwform147514 -->
<g id="node17" class="node">
<title>cgnlexwform147514</title>
<path fill="none" stroke="#000000" d="M924.5,-209C924.5,-209 775.5,-209 775.5,-209 769.5,-209 763.5,-203 763.5,-197 763.5,-197 763.5,-93 763.5,-93 763.5,-87 769.5,-81 775.5,-81 775.5,-81 924.5,-81 924.5,-81 930.5,-81 936.5,-87 936.5,-93 936.5,-93 936.5,-197 936.5,-197 936.5,-203 930.5,-209 924.5,-209"/>
<polygon fill="#add8e6" stroke="transparent" points="772,-190 772,-205 929,-205 929,-190 772,-190"/>
<text text-anchor="start" x="775" y="-196" font-family="Times,serif" font-style="italic" font-size="10.00" fill="#000000">cgnlex_wform_147514:ontolexword</text>
<text text-anchor="start" x="777.5" y="-180" font-family="Times,serif" font-size="10.00" fill="#000000"> &#160;&#160;&#160;&#160;&#160;&#160;&#160;ontolexwrittenRep &#160;&#160;&#160;&#160;&#160;</text>
<text text-anchor="start" x="897.5" y="-180" font-family="Times,serif" font-size="10.00" fill="#000000">katten</text>
<text text-anchor="start" x="777.5" y="-165" font-family="Times,serif" font-size="10.00" fill="#000000"> &#160;&#160;&#160;&#160;&#160;&#160;&#160;ontolexwrittenRep &#160;&#160;&#160;&#160;&#160;</text>
<text text-anchor="start" x="897.5" y="-165" font-family="Times,serif" font-size="10.00" fill="#000000">katten</text>
<text text-anchor="start" x="774" y="-150" font-family="Times,serif" font-size="10.00" fill="#000000"> &#160;&#160;&#160;&#160;&#160;&#160;&#160;ontolexphoneticRep &#160;&#160;&#160;&#160;&#160;</text>
<text text-anchor="start" x="898" y="-150" font-family="Times,serif" font-size="10.00" fill="#000000">kAt@</text>
<text text-anchor="start" x="774" y="-135" font-family="Times,serif" font-size="10.00" fill="#000000"> &#160;&#160;&#160;&#160;&#160;&#160;&#160;ontolexphoneticRep &#160;&#160;&#160;&#160;&#160;</text>
<text text-anchor="start" x="895" y="-135" font-family="Times,serif" font-size="10.00" fill="#000000">kAt@n</text>
<text text-anchor="start" x="790" y="-120" font-family="Times,serif" font-size="10.00" fill="#000000"> &#160;&#160;&#160;&#160;&#160;&#160;&#160;variantLabel &#160;&#160;&#160;&#160;&#160;</text>
<text text-anchor="start" x="894" y="-120" font-family="Times,serif" font-size="10.00" fill="#000000">Flemish</text>
<text text-anchor="start" x="774" y="-105" font-family="Times,serif" font-size="10.00" fill="#000000"> &#160;&#160;&#160;&#160;&#160;&#160;&#160;ontolexphoneticRep &#160;&#160;&#160;&#160;&#160;</text>
<text text-anchor="start" x="898" y="-105" font-family="Times,serif" font-size="10.00" fill="#000000">kAt@</text>
<text text-anchor="start" x="790" y="-90" font-family="Times,serif" font-size="10.00" fill="#000000"> &#160;&#160;&#160;&#160;&#160;&#160;&#160;variantLabel &#160;&#160;&#160;&#160;&#160;</text>
<text text-anchor="start" x="894" y="-90" font-family="Times,serif" font-size="10.00" fill="#000000">Flemish</text>
</g>
<!-- cgnlexlemma47751&#45;&gt;cgnlexwform147514 -->
<g id="edge14" class="edge">
<title>cgnlexlemma47751&#45;&gt;cgnlexwform147514</title>
<path fill="none" stroke="#000088" d="M740.3393,-253.804C750.582,-243.6413 764.0805,-230.2483 778.0925,-216.3457"/>
<polygon fill="#000088" stroke="#000088" points="785.4522,-209.0436 781.5229,-219.2813 781.9028,-212.5652 778.3534,-216.0869 778.3534,-216.0869 778.3534,-216.0869 781.9028,-212.5652 775.1839,-212.8924 785.4522,-209.0436 785.4522,-209.0436"/>
<text text-anchor="middle" x="788" y="-229.6" font-family="Times,serif" font-size="8.00" fill="#000000">ontolexform</text>
</g>
<!-- cgnlexwform802537 -->
<g id="node18" class="node">
<title>cgnlexwform802537</title>
<path fill="none" stroke="#000000" d="M1660.5,-186.5C1660.5,-186.5 1511.5,-186.5 1511.5,-186.5 1505.5,-186.5 1499.5,-180.5 1499.5,-174.5 1499.5,-174.5 1499.5,-115.5 1499.5,-115.5 1499.5,-109.5 1505.5,-103.5 1511.5,-103.5 1511.5,-103.5 1660.5,-103.5 1660.5,-103.5 1666.5,-103.5 1672.5,-109.5 1672.5,-115.5 1672.5,-115.5 1672.5,-174.5 1672.5,-174.5 1672.5,-180.5 1666.5,-186.5 1660.5,-186.5"/>
<polygon fill="#add8e6" stroke="transparent" points="1508,-167 1508,-182 1665,-182 1665,-167 1508,-167"/>
<text text-anchor="start" x="1526.5" y="-173" font-family="Times,serif" font-style="italic" font-size="10.00" fill="#000000">cgnlex_wform_802537:UNK</text>
<text text-anchor="start" x="1513.5" y="-157" font-family="Times,serif" font-size="10.00" fill="#000000"> &#160;&#160;&#160;&#160;&#160;&#160;&#160;ontolexwrittenRep &#160;&#160;&#160;&#160;&#160;</text>
<text text-anchor="start" x="1638.5" y="-157" font-family="Times,serif" font-size="10.00" fill="#000000">Kat</text>
<text text-anchor="start" x="1510" y="-142" font-family="Times,serif" font-size="10.00" fill="#000000"> &#160;&#160;&#160;&#160;&#160;&#160;&#160;ontolexphoneticRep &#160;&#160;&#160;&#160;&#160;</text>
<text text-anchor="start" x="1638.5" y="-142" font-family="Times,serif" font-size="10.00" fill="#000000">kAt</text>
<text text-anchor="start" x="1510" y="-127" font-family="Times,serif" font-size="10.00" fill="#000000"> &#160;&#160;&#160;&#160;&#160;&#160;&#160;ontolexphoneticRep &#160;&#160;&#160;&#160;&#160;</text>
<text text-anchor="start" x="1638.5" y="-127" font-family="Times,serif" font-size="10.00" fill="#000000">ka:t</text>
<text text-anchor="start" x="1526" y="-112" font-family="Times,serif" font-size="10.00" fill="#000000"> &#160;&#160;&#160;&#160;&#160;&#160;&#160;variantLabel &#160;&#160;&#160;&#160;&#160;</text>
<text text-anchor="start" x="1630" y="-112" font-family="Times,serif" font-size="10.00" fill="#000000">Flemish</text>
</g>
<!-- cgnlexlemma47751&#45;&gt;cgnlexwform802537 -->
<g id="edge15" class="edge">
<title>cgnlexlemma47751&#45;&gt;cgnlexwform802537</title>
<path fill="none" stroke="#000088" d="M821.0497,-269.1699C996.9677,-263.2422 1356.6437,-246.8086 1476,-209 1489.6909,-204.6631 1503.5208,-198.4026 1516.5367,-191.4749"/>
<polygon fill="#000088" stroke="#000088" points="1525.4059,-186.5876 1518.8194,-195.3551 1521.0267,-189.0007 1516.6475,-191.4138 1516.6475,-191.4138 1516.6475,-191.4138 1521.0267,-189.0007 1514.4757,-187.4726 1525.4059,-186.5876 1525.4059,-186.5876"/>
<text text-anchor="middle" x="1407" y="-229.6" font-family="Times,serif" font-size="8.00" fill="#000000">ontolexform</text>
</g>
<!-- lexinfonoun -->
<g id="node10" class="node">
<title>lexinfonoun</title>
<path fill="none" stroke="#000000" d="M296,-36C296,-36 224,-36 224,-36 218,-36 212,-30 212,-24 212,-24 212,-12 212,-12 212,-6 218,0 224,0 224,0 296,0 296,0 302,0 308,-6 308,-12 308,-12 308,-24 308,-24 308,-30 302,-36 296,-36"/>
<polygon fill="#add8e6" stroke="transparent" points="220,-10 220,-25 300,-25 300,-10 220,-10"/>
<text text-anchor="start" x="222" y="-16" font-family="Times,serif" font-style="italic" font-size="10.00" fill="#000000">lexinfonoun:Class</text>
</g>
<!-- node1cj695b9jx2&#45;&gt;lexinfonoun -->
<g id="edge16" class="edge">
<title>node1cj695b9jx2&#45;&gt;lexinfonoun</title>
<path fill="none" stroke="#000088" d="M344.8157,-126.804C327.9807,-105.2076 299.774,-69.0233 280.5498,-44.3619"/>
<polygon fill="#000088" stroke="#000088" points="274.158,-36.1622 283.8551,-41.2825 277.232,-40.1057 280.306,-44.0491 280.306,-44.0491 280.306,-44.0491 277.232,-40.1057 276.7569,-46.8157 274.158,-36.1622 274.158,-36.1622"/>
<text text-anchor="middle" x="329" y="-56.6" font-family="Times,serif" font-size="8.00" fill="#000000">lexinfopartOfSpeech</text>
</g>
<!-- lexinfocommonGender -->
<g id="node12" class="node">
<title>lexinfocommonGender</title>
<path fill="none" stroke="#000000" d="M456,-36C456,-36 338,-36 338,-36 332,-36 326,-30 326,-24 326,-24 326,-12 326,-12 326,-6 332,0 338,0 338,0 456,0 456,0 462,0 468,-6 468,-12 468,-12 468,-24 468,-24 468,-30 462,-36 456,-36"/>
<polygon fill="#add8e6" stroke="transparent" points="334,-10 334,-25 460,-25 460,-10 334,-10"/>
<text text-anchor="start" x="336.5" y="-16" font-family="Times,serif" font-style="italic" font-size="10.00" fill="#000000">lexinfocommonGender:Class</text>
</g>
<!-- node1cj695b9jx3&#45;&gt;lexinfocommonGender -->
<g id="edge17" class="edge">
<title>node1cj695b9jx3&#45;&gt;lexinfocommonGender</title>
<path fill="none" stroke="#000088" d="M475.5419,-126.6966C452.4873,-104.8693 416.6016,-70.3953 412,-63 408.7669,-57.804 406.1469,-51.8328 404.0564,-45.9742"/>
<polygon fill="#000088" stroke="#000088" points="401.0236,-36.3777 408.3279,-44.5567 402.5303,-41.1452 404.0371,-45.9128 404.0371,-45.9128 404.0371,-45.9128 402.5303,-41.1452 399.7463,-47.2689 401.0236,-36.3777 401.0236,-36.3777"/>
<text text-anchor="middle" x="435.5" y="-56.6" font-family="Times,serif" font-size="8.00" fill="#000000">lexinfoGender</text>
</g>
<!-- cgnlexwform147297&#45;&gt;lexinfoneutralRegister -->
<g id="edge18" class="edge">
<title>cgnlexwform147297&#45;&gt;lexinfoneutralRegister</title>
<path fill="none" stroke="#000088" d="M1777.3986,-103.1267C1767.0435,-84.8826 1752.2989,-65.1527 1733,-54 1703.1346,-36.741 1495.3033,-25.7944 1378.4124,-20.931"/>
<polygon fill="#000088" stroke="#000088" points="1368.0846,-20.5072 1378.2607,-16.4211 1373.0804,-20.7123 1378.0762,-20.9173 1378.0762,-20.9173 1378.0762,-20.9173 1373.0804,-20.7123 1377.8917,-25.4135 1368.0846,-20.5072 1368.0846,-20.5072"/>
<text text-anchor="middle" x="1770" y="-56.6" font-family="Times,serif" font-size="8.00" fill="#000000">lexinfoRegister</text>
</g>
<!-- cgnlexwform147297&#45;&gt;lexinfoneutralRegister -->
<g id="edge19" class="edge">
<title>cgnlexwform147297&#45;&gt;lexinfoneutralRegister</title>
<path fill="none" stroke="#000088" d="M1809.2281,-103.3154C1811.9942,-85.9984 1811.0608,-66.9604 1799,-54 1791.928,-46.4005 1517.5124,-30.124 1378.295,-22.3316"/>
<polygon fill="#000088" stroke="#000088" points="1368.1036,-21.7628 1378.3388,-17.8271 1373.0958,-22.0414 1378.088,-22.3201 1378.088,-22.3201 1378.088,-22.3201 1373.0958,-22.0414 1377.8372,-26.8131 1368.1036,-21.7628 1368.1036,-21.7628"/>
<text text-anchor="middle" x="1829" y="-56.6" font-family="Times,serif" font-size="8.00" fill="#000000">lexinfoRegister</text>
</g>
<!-- lexinfosingular -->
<g id="node14" class="node">
<title>lexinfosingular</title>
<path fill="none" stroke="#000000" d="M1742,-36C1742,-36 1656,-36 1656,-36 1650,-36 1644,-30 1644,-24 1644,-24 1644,-12 1644,-12 1644,-6 1650,0 1656,0 1656,0 1742,0 1742,0 1748,0 1754,-6 1754,-12 1754,-12 1754,-24 1754,-24 1754,-30 1748,-36 1742,-36"/>
<polygon fill="#add8e6" stroke="transparent" points="1652,-10 1652,-25 1746,-25 1746,-10 1652,-10"/>
<text text-anchor="start" x="1654.5" y="-16" font-family="Times,serif" font-style="italic" font-size="10.00" fill="#000000">lexinfosingular:Class</text>
</g>
<!-- cgnlexwform147297&#45;&gt;lexinfosingular -->
<g id="edge20" class="edge">
<title>cgnlexwform147297&#45;&gt;lexinfosingular</title>
<path fill="none" stroke="#000088" d="M1878.0603,-103.4529C1896.7538,-88.6358 1907.3942,-71.311 1893,-54 1876.7618,-34.4713 1814.2455,-25.4876 1764.511,-21.3849"/>
<polygon fill="#000088" stroke="#000088" points="1754.4332,-20.6046 1764.7508,-16.8901 1759.4183,-20.9906 1764.4034,-21.3766 1764.4034,-21.3766 1764.4034,-21.3766 1759.4183,-20.9906 1764.0559,-25.8632 1754.4332,-20.6046 1754.4332,-20.6046"/>
<text text-anchor="middle" x="1921.5" y="-56.6" font-family="Times,serif" font-size="8.00" fill="#000000">lexinfonumber</text>
</g>
<!-- cgnlexwform807576&#45;&gt;lexinfoneutralRegister -->
<g id="edge21" class="edge">
<title>cgnlexwform807576&#45;&gt;lexinfoneutralRegister</title>
<path fill="none" stroke="#000088" d="M1458.5015,-88.1281C1465.4276,-76.9101 1466.913,-65.1567 1458,-54 1447.5489,-40.9181 1412.7932,-32.2385 1378.4321,-26.6864"/>
<polygon fill="#000088" stroke="#000088" points="1368.2918,-25.1324 1378.8581,-22.1993 1373.2341,-25.8899 1378.1764,-26.6473 1378.1764,-26.6473 1378.1764,-26.6473 1373.2341,-25.8899 1377.4947,-31.0954 1368.2918,-25.1324 1368.2918,-25.1324"/>
<text text-anchor="middle" x="1488" y="-56.6" font-family="Times,serif" font-size="8.00" fill="#000000">lexinfoRegister</text>
</g>
<!-- cgnlexwform807576&#45;&gt;lexinfoneutralRegister -->
<g id="edge22" class="edge">
<title>cgnlexwform807576&#45;&gt;lexinfoneutralRegister</title>
<path fill="none" stroke="#000088" d="M1394.0272,-88.1385C1394.0109,-76.0905 1391.6584,-64.0055 1385,-54 1381.9175,-49.368 1378.1122,-45.3309 1373.8338,-41.8123"/>
<polygon fill="#000088" stroke="#000088" points="1365.6757,-36.0226 1376.4352,-38.1404 1369.7532,-38.9164 1373.8308,-41.8102 1373.8308,-41.8102 1373.8308,-41.8102 1369.7532,-38.9164 1371.2264,-45.4799 1365.6757,-36.0226 1365.6757,-36.0226"/>
<text text-anchor="middle" x="1415" y="-56.6" font-family="Times,serif" font-size="8.00" fill="#000000">lexinfoRegister</text>
</g>
<!-- cgnlexwform807576&#45;&gt;lexinfoformalRegister -->
<g id="edge23" class="edge">
<title>cgnlexwform807576&#45;&gt;lexinfoformalRegister</title>
<path fill="none" stroke="#000088" d="M1349.5193,-88.3344C1339.3184,-74.9107 1326.7548,-62.1429 1312,-54 1283.3338,-38.1797 1087.5482,-26.7269 975.4317,-21.3792"/>
<polygon fill="#000088" stroke="#000088" points="965.1836,-20.8963 975.3844,-16.8721 970.1781,-21.1317 975.1725,-21.3671 975.1725,-21.3671 975.1725,-21.3671 970.1781,-21.1317 974.9607,-25.8621 965.1836,-20.8963 965.1836,-20.8963"/>
<text text-anchor="middle" x="1350" y="-56.6" font-family="Times,serif" font-size="8.00" fill="#000000">lexinfoRegister</text>
</g>
<!-- cgnlexwform862734&#45;&gt;lexinfoneutralRegister -->
<g id="edge24" class="edge">
<title>cgnlexwform862734&#45;&gt;lexinfoneutralRegister</title>
<path fill="none" stroke="#000088" d="M1107.3486,-88.4298C1107.8891,-75.9533 1111.0339,-63.609 1119,-54 1132.1339,-38.1575 1177.826,-29.1375 1219.8839,-24.0882"/>
<polygon fill="#000088" stroke="#000088" points="1229.9104,-22.9489 1220.4824,-28.5492 1224.9424,-23.5135 1219.9744,-24.078 1219.9744,-24.078 1219.9744,-24.078 1224.9424,-23.5135 1219.4663,-19.6068 1229.9104,-22.9489 1229.9104,-22.9489"/>
<text text-anchor="middle" x="1144" y="-56.6" font-family="Times,serif" font-size="8.00" fill="#000000">lexinfoRegister</text>
</g>
<!-- cgnlexwform862734&#45;&gt;lexinfoneutralRegister -->
<g id="edge25" class="edge">
<title>cgnlexwform862734&#45;&gt;lexinfoneutralRegister</title>
<path fill="none" stroke="#000088" d="M1155.855,-88.2687C1166.3668,-75.6506 1178.6133,-63.2828 1192,-54 1200.6048,-48.0331 1210.2783,-42.9888 1220.1996,-38.7419"/>
<polygon fill="#000088" stroke="#000088" points="1229.7609,-34.9103 1222.1524,-42.8072 1225.1197,-36.7702 1220.4785,-38.6301 1220.4785,-38.6301 1220.4785,-38.6301 1225.1197,-36.7702 1218.8046,-34.4531 1229.7609,-34.9103 1229.7609,-34.9103"/>
<text text-anchor="middle" x="1217" y="-56.6" font-family="Times,serif" font-size="8.00" fill="#000000">lexinfoRegister</text>
</g>
<!-- cgnlexwform862734&#45;&gt;lexinfoformalRegister -->
<g id="edge26" class="edge">
<title>cgnlexwform862734&#45;&gt;lexinfoformalRegister</title>
<path fill="none" stroke="#000088" d="M1068.006,-88.4768C1054.4461,-75.7016 1039.0442,-63.2097 1023,-54 1008.2382,-45.5264 991.3429,-38.9308 974.822,-33.8394"/>
<polygon fill="#000088" stroke="#000088" points="965.1569,-31.0125 976.0181,-29.5007 969.9559,-32.4162 974.7548,-33.8198 974.7548,-33.8198 974.7548,-33.8198 969.9559,-32.4162 973.4916,-38.1389 965.1569,-31.0125 965.1569,-31.0125"/>
<text text-anchor="middle" x="1061" y="-56.6" font-family="Times,serif" font-size="8.00" fill="#000000">lexinfoRegister</text>
</g>
<!-- cgnlexwform862734&#45;&gt;lexinfosingular -->
<g id="edge27" class="edge">
<title>cgnlexwform862734&#45;&gt;lexinfosingular</title>
<path fill="none" stroke="#000088" d="M1203.2639,-88.4237C1229.7411,-71.3238 1253.8874,-56.3916 1261,-54 1295.3637,-42.4454 1520.1385,-28.204 1633.642,-21.6346"/>
<polygon fill="#000088" stroke="#000088" points="1643.9377,-21.0421 1634.2128,-26.1093 1638.946,-21.3294 1633.9542,-21.6167 1633.9542,-21.6167 1633.9542,-21.6167 1638.946,-21.3294 1633.6957,-17.1241 1643.9377,-21.0421 1643.9377,-21.0421"/>
<text text-anchor="middle" x="1284.5" y="-56.6" font-family="Times,serif" font-size="8.00" fill="#000000">lexinfonumber</text>
</g>
<!-- cgnlexwform147514&#45;&gt;lexinfoneutralRegister -->
<g id="edge28" class="edge">
<title>cgnlexwform147514&#45;&gt;lexinfoneutralRegister</title>
<path fill="none" stroke="#000088" d="M927.3974,-80.8204C943.9081,-68.332 959.2814,-57.8902 969,-54 1013.0429,-36.3702 1136.9181,-26.5271 1219.7303,-21.7467"/>
<polygon fill="#000088" stroke="#000088" points="1229.8693,-21.1747 1220.1386,-26.2309 1224.8772,-21.4564 1219.8852,-21.738 1219.8852,-21.738 1219.8852,-21.738 1224.8772,-21.4564 1219.6317,-17.2452 1229.8693,-21.1747 1229.8693,-21.1747"/>
<text text-anchor="middle" x="994" y="-56.6" font-family="Times,serif" font-size="8.00" fill="#000000">lexinfoRegister</text>
</g>
<!-- cgnlexwform147514&#45;&gt;lexinfoneutralRegister -->
<g id="edge29" class="edge">
<title>cgnlexwform147514&#45;&gt;lexinfoneutralRegister</title>
<path fill="none" stroke="#000088" d="M874.6928,-80.7059C881.4046,-70.2748 889.7412,-60.7092 900,-54 926.0452,-36.9666 1110.6953,-26.1542 1219.45,-21.1898"/>
<polygon fill="#000088" stroke="#000088" points="1229.7299,-20.7276 1219.9421,-25.6723 1224.7349,-20.9522 1219.74,-21.1769 1219.74,-21.1769 1219.74,-21.1769 1224.7349,-20.9522 1219.5378,-16.6814 1229.7299,-20.7276 1229.7299,-20.7276"/>
<text text-anchor="middle" x="925" y="-56.6" font-family="Times,serif" font-size="8.00" fill="#000000">lexinfoRegister</text>
</g>
<!-- cgnlexwform147514&#45;&gt;lexinfoformalRegister -->
<g id="edge30" class="edge">
<title>cgnlexwform147514&#45;&gt;lexinfoformalRegister</title>
<path fill="none" stroke="#000088" d="M821.205,-80.8527C820.5141,-71.4646 821.992,-62.207 827,-54 829.7328,-49.5216 833.2202,-45.5767 837.1743,-42.1062"/>
<polygon fill="#000088" stroke="#000088" points="845.2782,-36.0011 839.9988,-45.6125 841.2847,-39.0097 837.2911,-42.0183 837.2911,-42.0183 837.2911,-42.0183 841.2847,-39.0097 834.5834,-38.4241 845.2782,-36.0011 845.2782,-36.0011"/>
<text text-anchor="middle" x="852" y="-56.6" font-family="Times,serif" font-size="8.00" fill="#000000">lexinfoRegister</text>
</g>
<!-- cgnlexwform147514&#45;&gt;lexinfoplural -->
<g id="edge31" class="edge">
<title>cgnlexwform147514&#45;&gt;lexinfoplural</title>
<path fill="none" stroke="#000088" d="M769.2033,-80.9295C757.4532,-71.8125 745.4576,-62.6131 734,-54 728.8379,-50.1194 723.3297,-46.0669 717.9256,-42.1394"/>
<polygon fill="#000088" stroke="#000088" points="709.5841,-36.1132 720.3253,-38.3216 713.6371,-39.0412 717.6901,-41.9693 717.6901,-41.9693 717.6901,-41.9693 713.6371,-39.0412 715.0548,-45.617 709.5841,-36.1132 709.5841,-36.1132"/>
<text text-anchor="middle" x="767.5" y="-56.6" font-family="Times,serif" font-size="8.00" fill="#000000">lexinfonumber</text>
</g>
<!-- cgnlexwform802537&#45;&gt;lexinfoneutralRegister -->
<g id="edge32" class="edge">
<title>cgnlexwform802537&#45;&gt;lexinfoneutralRegister</title>
<path fill="none" stroke="#000088" d="M1564.0295,-103.3114C1552.4296,-85.3382 1536.5228,-65.7783 1517,-54 1493.9348,-40.0845 1430.562,-30.6021 1378.0516,-24.8771"/>
<polygon fill="#000088" stroke="#000088" points="1368.0479,-23.8168 1378.4666,-20.396 1373.0201,-24.3438 1377.9922,-24.8709 1377.9922,-24.8709 1377.9922,-24.8709 1373.0201,-24.3438 1377.5179,-29.3458 1368.0479,-23.8168 1368.0479,-23.8168"/>
<text text-anchor="middle" x="1555" y="-56.6" font-family="Times,serif" font-size="8.00" fill="#000000">lexinfoRegister</text>
</g>
<!-- cgnlexwform802537&#45;&gt;lexinfoneutralRegister -->
<g id="edge33" class="edge">
<title>cgnlexwform802537&#45;&gt;lexinfoneutralRegister</title>
<path fill="none" stroke="#000088" d="M1596.0614,-103.4921C1597.7136,-86.2078 1595.8496,-67.1465 1584,-54 1570.3311,-38.835 1457.5455,-28.3414 1378.0326,-22.7476"/>
<polygon fill="#000088" stroke="#000088" points="1368.0233,-22.0568 1378.3095,-18.2561 1373.0114,-22.4011 1377.9996,-22.7454 1377.9996,-22.7454 1377.9996,-22.7454 1373.0114,-22.4011 1377.6897,-27.2348 1368.0233,-22.0568 1368.0233,-22.0568"/>
<text text-anchor="middle" x="1614" y="-56.6" font-family="Times,serif" font-size="8.00" fill="#000000">lexinfoRegister</text>
</g>
<!-- cgnlexwform802537&#45;&gt;lexinfosingular -->
<g id="edge34" class="edge">
<title>cgnlexwform802537&#45;&gt;lexinfosingular</title>
<path fill="none" stroke="#000088" d="M1638.9983,-103.437C1652.4291,-91.3224 1666.1173,-77.4335 1677,-63 1680.9854,-57.7142 1684.546,-51.5928 1687.5819,-45.6003"/>
<polygon fill="#000088" stroke="#000088" points="1691.9065,-36.4281 1691.7121,-47.3922 1689.7742,-40.9506 1687.6418,-45.4731 1687.6418,-45.4731 1687.6418,-45.4731 1689.7742,-40.9506 1683.5715,-43.554 1691.9065,-36.4281 1691.9065,-36.4281"/>
<text text-anchor="middle" x="1705.5" y="-56.6" font-family="Times,serif" font-size="8.00" fill="#000000">lexinfonumber</text>
</g>
</g>
</svg>
