<svg width="2744pt" height="660pt"
 viewBox="0.00 0.00 2743.50 660.00" xmlns="http://www.w3.org/2000/svg" xmlns:xlink="http://www.w3.org/1999/xlink">
<g id="graph0" class="graph" transform="scale(1 1) rotate(0) translate(4 656)">
<title>G</title>
<polygon fill="#ffffff" stroke="transparent" points="-4,4 -4,-656 2739.5,-656 2739.5,4 -4,4"/>
<!-- node1cj6acqs0x29 -->
<g id="node1" class="node">
<title>node1cj6acqs0x29</title>
<path fill="none" stroke="#000000" d="M145,-463.5C145,-463.5 16,-463.5 16,-463.5 10,-463.5 4,-457.5 4,-451.5 4,-451.5 4,-422.5 4,-422.5 4,-416.5 10,-410.5 16,-410.5 16,-410.5 145,-410.5 145,-410.5 151,-410.5 157,-416.5 157,-422.5 157,-422.5 157,-451.5 157,-451.5 157,-457.5 151,-463.5 145,-463.5"/>
<polygon fill="#add8e6" stroke="transparent" points="12.5,-444 12.5,-459 149.5,-459 149.5,-444 12.5,-444"/>
<text text-anchor="start" x="30" y="-450" font-family="Times,serif" font-style="italic" font-size="10.00" fill="#000000">node1cj6acqs0x29:UNK</text>
<text text-anchor="start" x="14.5" y="-434" font-family="Times,serif" font-size="10.00" fill="#000000"> &#160;&#160;&#160;&#160;&#160;&#160;&#160;title &#160;&#160;&#160;&#160;&#160;</text>
<text text-anchor="start" x="67.5" y="-434" font-family="Times,serif" font-size="10.00" fill="#000000">Algemeen Dagblad</text>
<text text-anchor="start" x="14.5" y="-419" font-family="Times,serif" font-size="10.00" fill="#000000"> &#160;&#160;&#160;&#160;&#160;&#160;&#160;date &#160;&#160;&#160;&#160;&#160;</text>
<text text-anchor="start" x="83" y="-419" font-family="Times,serif" font-size="10.00" fill="#000000">2001&#45;04&#45;28</text>
</g>
<!-- node1cj6acqs0x13 -->
<g id="node2" class="node">
<title>node1cj6acqs0x13</title>
<path fill="none" stroke="#000000" d="M657.5,-463.5C657.5,-463.5 547.5,-463.5 547.5,-463.5 541.5,-463.5 535.5,-457.5 535.5,-451.5 535.5,-451.5 535.5,-422.5 535.5,-422.5 535.5,-416.5 541.5,-410.5 547.5,-410.5 547.5,-410.5 657.5,-410.5 657.5,-410.5 663.5,-410.5 669.5,-416.5 669.5,-422.5 669.5,-422.5 669.5,-451.5 669.5,-451.5 669.5,-457.5 663.5,-463.5 657.5,-463.5"/>
<polygon fill="#add8e6" stroke="transparent" points="543.5,-444 543.5,-459 661.5,-459 661.5,-444 543.5,-444"/>
<text text-anchor="start" x="551.5" y="-450" font-family="Times,serif" font-style="italic" font-size="10.00" fill="#000000">node1cj6acqs0x13:UNK</text>
<text text-anchor="start" x="545.5" y="-434" font-family="Times,serif" font-size="10.00" fill="#000000"> &#160;&#160;&#160;&#160;&#160;&#160;&#160;componentRank &#160;&#160;&#160;&#160;&#160;</text>
<text text-anchor="start" x="651.5" y="-434" font-family="Times,serif" font-size="10.00" fill="#000000">3</text>
<text text-anchor="start" x="551" y="-419" font-family="Times,serif" font-size="10.00" fill="#000000"> &#160;&#160;&#160;&#160;&#160;&#160;&#160;lmfhasLemma &#160;&#160;&#160;&#160;&#160;</text>
<text text-anchor="start" x="649.5" y="-419" font-family="Times,serif" font-size="10.00" fill="#000000">de</text>
</g>
<!-- node1cj6acqs0x24 -->
<g id="node3" class="node">
<title>node1cj6acqs0x24</title>
<path fill="none" stroke="#000000" d="M338,-561.5C338,-561.5 191,-561.5 191,-561.5 185,-561.5 179,-555.5 179,-549.5 179,-549.5 179,-535.5 179,-535.5 179,-529.5 185,-523.5 191,-523.5 191,-523.5 338,-523.5 338,-523.5 344,-523.5 350,-529.5 350,-535.5 350,-535.5 350,-549.5 350,-549.5 350,-555.5 344,-561.5 338,-561.5"/>
<polygon fill="#add8e6" stroke="transparent" points="187.5,-542.5 187.5,-557.5 342.5,-557.5 342.5,-542.5 187.5,-542.5"/>
<text text-anchor="start" x="212" y="-548.5" font-family="Times,serif" font-style="italic" font-size="10.00" fill="#000000">node1cj6acqs0x24:Entity</text>
<text text-anchor="start" x="189.5" y="-532.5" font-family="Times,serif" font-size="10.00" fill="#000000"> &#160;&#160;&#160;&#160;&#160;&#160;&#160;value &#160;&#160;&#160;&#160;&#160;</text>
<text text-anchor="start" x="248.5" y="-532.5" font-family="Times,serif" font-size="10.00" fill="#000000">Het was toenmalig D6</text>
</g>
<!-- node1cj6acqs0x25 -->
<g id="node4" class="node">
<title>node1cj6acqs0x25</title>
<path fill="none" stroke="#000000" d="M313.5,-463.5C313.5,-463.5 215.5,-463.5 215.5,-463.5 209.5,-463.5 203.5,-457.5 203.5,-451.5 203.5,-451.5 203.5,-422.5 203.5,-422.5 203.5,-416.5 209.5,-410.5 215.5,-410.5 215.5,-410.5 313.5,-410.5 313.5,-410.5 319.5,-410.5 325.5,-416.5 325.5,-422.5 325.5,-422.5 325.5,-451.5 325.5,-451.5 325.5,-457.5 319.5,-463.5 313.5,-463.5"/>
<polygon fill="#add8e6" stroke="transparent" points="211.5,-444 211.5,-459 317.5,-459 317.5,-444 211.5,-444"/>
<text text-anchor="start" x="213.5" y="-450" font-family="Times,serif" font-style="italic" font-size="10.00" fill="#000000">node1cj6acqs0x25:UNK</text>
<text text-anchor="start" x="213.5" y="-434" font-family="Times,serif" font-size="10.00" fill="#000000"> &#160;&#160;&#160;&#160;&#160;&#160;&#160;title &#160;&#160;&#160;&#160;&#160;</text>
<text text-anchor="start" x="283" y="-434" font-family="Times,serif" font-size="10.00" fill="#000000">NH</text>
<text text-anchor="start" x="213.5" y="-419" font-family="Times,serif" font-size="10.00" fill="#000000"> &#160;&#160;&#160;&#160;&#160;&#160;&#160;date &#160;&#160;&#160;&#160;&#160;</text>
<text text-anchor="start" x="266.5" y="-419" font-family="Times,serif" font-size="10.00" fill="#000000">1994&#45;02&#45;19</text>
</g>
<!-- node1cj6acqs0x24&#45;&gt;node1cj6acqs0x25 -->
<g id="edge1" class="edge">
<title>node1cj6acqs0x24&#45;&gt;node1cj6acqs0x25</title>
<path fill="none" stroke="#000088" d="M264.5,-523.1497C264.5,-509.4864 264.5,-490.7445 264.5,-474.2303"/>
<polygon fill="#000088" stroke="#000088" points="264.5,-463.7756 269.0001,-473.7755 264.5,-468.7756 264.5001,-473.7756 264.5001,-473.7756 264.5001,-473.7756 264.5,-468.7756 260.0001,-473.7756 264.5,-463.7756 264.5,-463.7756"/>
<text text-anchor="middle" x="291.5" y="-491.6" font-family="Times,serif" font-size="8.00" fill="#000000">wasQuotedFrom</text>
</g>
<!-- node1cj6acqs0x40 -->
<g id="node5" class="node">
<title>node1cj6acqs0x40</title>
<path fill="none" stroke="#000000" d="M2175.5,-68C2175.5,-68 2043.5,-68 2043.5,-68 2037.5,-68 2031.5,-62 2031.5,-56 2031.5,-56 2031.5,-12 2031.5,-12 2031.5,-6 2037.5,0 2043.5,0 2043.5,0 2175.5,0 2175.5,0 2181.5,0 2187.5,-6 2187.5,-12 2187.5,-12 2187.5,-56 2187.5,-56 2187.5,-62 2181.5,-68 2175.5,-68"/>
<polygon fill="#add8e6" stroke="transparent" points="2039.5,-49 2039.5,-64 2179.5,-64 2179.5,-49 2039.5,-49"/>
<text text-anchor="start" x="2058.5" y="-55" font-family="Times,serif" font-style="italic" font-size="10.00" fill="#000000">node1cj6acqs0x40:UNK</text>
<text text-anchor="start" x="2046" y="-39" font-family="Times,serif" font-size="10.00" fill="#000000"> &#160;&#160;&#160;&#160;&#160;&#160;&#160;componentRank &#160;&#160;&#160;&#160;&#160;</text>
<text text-anchor="start" x="2163" y="-39" font-family="Times,serif" font-size="10.00" fill="#000000">2</text>
<text text-anchor="start" x="2041.5" y="-24" font-family="Times,serif" font-size="10.00" fill="#000000"> &#160;&#160;&#160;&#160;&#160;&#160;&#160;graphicalSeparator &#160;&#160;&#160;&#160;&#160;</text>
<text text-anchor="start" x="2154.5" y="-24" font-family="Times,serif" font-size="10.00" fill="#000000">space</text>
<text text-anchor="start" x="2051.5" y="-9" font-family="Times,serif" font-size="10.00" fill="#000000"> &#160;&#160;&#160;&#160;&#160;&#160;&#160;lmfhasLemma &#160;&#160;&#160;&#160;&#160;</text>
<text text-anchor="start" x="2159.5" y="-9" font-family="Times,serif" font-size="10.00" fill="#000000">kat</text>
</g>
<!-- node1cj6acqs0x18 -->
<g id="node6" class="node">
<title>node1cj6acqs0x18</title>
<path fill="none" stroke="#000000" d="M518.5,-561.5C518.5,-561.5 380.5,-561.5 380.5,-561.5 374.5,-561.5 368.5,-555.5 368.5,-549.5 368.5,-549.5 368.5,-535.5 368.5,-535.5 368.5,-529.5 374.5,-523.5 380.5,-523.5 380.5,-523.5 518.5,-523.5 518.5,-523.5 524.5,-523.5 530.5,-529.5 530.5,-535.5 530.5,-535.5 530.5,-549.5 530.5,-549.5 530.5,-555.5 524.5,-561.5 518.5,-561.5"/>
<polygon fill="#add8e6" stroke="transparent" points="376.5,-542.5 376.5,-557.5 522.5,-557.5 522.5,-542.5 376.5,-542.5"/>
<text text-anchor="start" x="396.5" y="-548.5" font-family="Times,serif" font-style="italic" font-size="10.00" fill="#000000">node1cj6acqs0x18:Entity</text>
<text text-anchor="start" x="378.5" y="-532.5" font-family="Times,serif" font-size="10.00" fill="#000000"> &#160;&#160;&#160;&#160;&#160;&#160;&#160;value &#160;&#160;&#160;&#160;&#160;</text>
<text text-anchor="start" x="437.5" y="-532.5" font-family="Times,serif" font-size="10.00" fill="#000000"> Dit probleem speelt</text>
</g>
<!-- node1cj6acqs0x19 -->
<g id="node7" class="node">
<title>node1cj6acqs0x19</title>
<path fill="none" stroke="#000000" d="M505,-463.5C505,-463.5 376,-463.5 376,-463.5 370,-463.5 364,-457.5 364,-451.5 364,-451.5 364,-422.5 364,-422.5 364,-416.5 370,-410.5 376,-410.5 376,-410.5 505,-410.5 505,-410.5 511,-410.5 517,-416.5 517,-422.5 517,-422.5 517,-451.5 517,-451.5 517,-457.5 511,-463.5 505,-463.5"/>
<polygon fill="#add8e6" stroke="transparent" points="372.5,-444 372.5,-459 509.5,-459 509.5,-444 372.5,-444"/>
<text text-anchor="start" x="390" y="-450" font-family="Times,serif" font-style="italic" font-size="10.00" fill="#000000">node1cj6acqs0x19:UNK</text>
<text text-anchor="start" x="374.5" y="-434" font-family="Times,serif" font-size="10.00" fill="#000000"> &#160;&#160;&#160;&#160;&#160;&#160;&#160;title &#160;&#160;&#160;&#160;&#160;</text>
<text text-anchor="start" x="427.5" y="-434" font-family="Times,serif" font-size="10.00" fill="#000000">Algemeen Dagblad</text>
<text text-anchor="start" x="374.5" y="-419" font-family="Times,serif" font-size="10.00" fill="#000000"> &#160;&#160;&#160;&#160;&#160;&#160;&#160;date &#160;&#160;&#160;&#160;&#160;</text>
<text text-anchor="start" x="443" y="-419" font-family="Times,serif" font-size="10.00" fill="#000000">1994&#45;05&#45;09</text>
</g>
<!-- node1cj6acqs0x18&#45;&gt;node1cj6acqs0x19 -->
<g id="edge2" class="edge">
<title>node1cj6acqs0x18&#45;&gt;node1cj6acqs0x19</title>
<path fill="none" stroke="#000088" d="M447.8493,-523.1497C446.6726,-509.3563 445.0543,-490.387 443.6358,-473.7591"/>
<polygon fill="#000088" stroke="#000088" points="442.7842,-463.7756 448.118,-473.3568 443.2092,-468.7575 443.6343,-473.7394 443.6343,-473.7394 443.6343,-473.7394 443.2092,-468.7575 439.1505,-474.1219 442.7842,-463.7756 442.7842,-463.7756"/>
<text text-anchor="middle" x="473.5" y="-491.6" font-family="Times,serif" font-size="8.00" fill="#000000">wasQuotedFrom</text>
</g>
<!-- node1cj6acqs0x35 -->
<g id="node8" class="node">
<title>node1cj6acqs0x35</title>
<path fill="none" stroke="#000000" d="M1999.5,-253.5C1999.5,-253.5 1865.5,-253.5 1865.5,-253.5 1859.5,-253.5 1853.5,-247.5 1853.5,-241.5 1853.5,-241.5 1853.5,-229.5 1853.5,-229.5 1853.5,-223.5 1859.5,-217.5 1865.5,-217.5 1865.5,-217.5 1999.5,-217.5 1999.5,-217.5 2005.5,-217.5 2011.5,-223.5 2011.5,-229.5 2011.5,-229.5 2011.5,-241.5 2011.5,-241.5 2011.5,-247.5 2005.5,-253.5 1999.5,-253.5"/>
<polygon fill="#add8e6" stroke="transparent" points="1861.5,-227.5 1861.5,-242.5 2003.5,-242.5 2003.5,-227.5 1861.5,-227.5"/>
<text text-anchor="start" x="1863.5" y="-233.5" font-family="Times,serif" font-style="italic" font-size="10.00" fill="#000000">node1cj6acqs0x35:lmfMWEEdge</text>
</g>
<!-- node1cj6acqs0x36 -->
<g id="node9" class="node">
<title>node1cj6acqs0x36</title>
<path fill="none" stroke="#000000" d="M1999.5,-149C1999.5,-149 1863.5,-149 1863.5,-149 1857.5,-149 1851.5,-143 1851.5,-137 1851.5,-137 1851.5,-125 1851.5,-125 1851.5,-119 1857.5,-113 1863.5,-113 1863.5,-113 1999.5,-113 1999.5,-113 2005.5,-113 2011.5,-119 2011.5,-125 2011.5,-125 2011.5,-137 2011.5,-137 2011.5,-143 2005.5,-149 1999.5,-149"/>
<polygon fill="#add8e6" stroke="transparent" points="1859.5,-123 1859.5,-138 2003.5,-138 2003.5,-123 1859.5,-123"/>
<text text-anchor="start" x="1862" y="-129" font-family="Times,serif" font-style="italic" font-size="10.00" fill="#000000">node1cj6acqs0x36:lmfMWENode</text>
</g>
<!-- node1cj6acqs0x35&#45;&gt;node1cj6acqs0x36 -->
<g id="edge3" class="edge">
<title>node1cj6acqs0x35&#45;&gt;node1cj6acqs0x36</title>
<path fill="none" stroke="#000088" d="M1932.3258,-217.2975C1932.1733,-201.3617 1931.9492,-177.942 1931.7729,-159.5195"/>
<polygon fill="#000088" stroke="#000088" points="1931.6755,-149.3445 1936.2711,-159.301 1931.7234,-154.3443 1931.7713,-159.3441 1931.7713,-159.3441 1931.7713,-159.3441 1931.7234,-154.3443 1927.2715,-159.3872 1931.6755,-149.3445 1931.6755,-149.3445"/>
<text text-anchor="middle" x="1962" y="-169.6" font-family="Times,serif" font-size="8.00" fill="#000000">lmfhasMWENode</text>
</g>
<!-- node1cj6acqs0x37 -->
<g id="node10" class="node">
<title>node1cj6acqs0x37</title>
<path fill="none" stroke="#000000" d="M1997.5,-68C1997.5,-68 1865.5,-68 1865.5,-68 1859.5,-68 1853.5,-62 1853.5,-56 1853.5,-56 1853.5,-12 1853.5,-12 1853.5,-6 1859.5,0 1865.5,0 1865.5,0 1997.5,0 1997.5,0 2003.5,0 2009.5,-6 2009.5,-12 2009.5,-12 2009.5,-56 2009.5,-56 2009.5,-62 2003.5,-68 1997.5,-68"/>
<polygon fill="#add8e6" stroke="transparent" points="1861.5,-49 1861.5,-64 2001.5,-64 2001.5,-49 1861.5,-49"/>
<text text-anchor="start" x="1880.5" y="-55" font-family="Times,serif" font-style="italic" font-size="10.00" fill="#000000">node1cj6acqs0x37:UNK</text>
<text text-anchor="start" x="1868" y="-39" font-family="Times,serif" font-size="10.00" fill="#000000"> &#160;&#160;&#160;&#160;&#160;&#160;&#160;componentRank &#160;&#160;&#160;&#160;&#160;</text>
<text text-anchor="start" x="1985" y="-39" font-family="Times,serif" font-size="10.00" fill="#000000">1</text>
<text text-anchor="start" x="1863.5" y="-24" font-family="Times,serif" font-size="10.00" fill="#000000"> &#160;&#160;&#160;&#160;&#160;&#160;&#160;graphicalSeparator &#160;&#160;&#160;&#160;&#160;</text>
<text text-anchor="start" x="1976.5" y="-24" font-family="Times,serif" font-size="10.00" fill="#000000">space</text>
<text text-anchor="start" x="1873.5" y="-9" font-family="Times,serif" font-size="10.00" fill="#000000"> &#160;&#160;&#160;&#160;&#160;&#160;&#160;lmfhasLemma &#160;&#160;&#160;&#160;&#160;</text>
<text text-anchor="start" x="1983" y="-9" font-family="Times,serif" font-size="10.00" fill="#000000">de</text>
</g>
<!-- node1cj6acqs0x36&#45;&gt;node1cj6acqs0x37 -->
<g id="edge4" class="edge">
<title>node1cj6acqs0x36&#45;&gt;node1cj6acqs0x37</title>
<path fill="none" stroke="#000088" d="M1931.5,-112.755C1931.5,-102.9796 1931.5,-90.4738 1931.5,-78.3206"/>
<polygon fill="#000088" stroke="#000088" points="1931.5,-68.2625 1936.0001,-78.2625 1931.5,-73.2625 1931.5001,-78.2625 1931.5001,-78.2625 1931.5001,-78.2625 1931.5,-73.2625 1927.0001,-78.2626 1931.5,-68.2625 1931.5,-68.2625"/>
<text text-anchor="middle" x="1953.5" y="-88.6" font-family="Times,serif" font-size="8.00" fill="#000000">lmfMWELex</text>
</g>
<!-- node1cj6acqs0x41 -->
<g id="node11" class="node">
<title>node1cj6acqs0x41</title>
<path fill="none" stroke="#000000" d="M2539.5,-455C2539.5,-455 2405.5,-455 2405.5,-455 2399.5,-455 2393.5,-449 2393.5,-443 2393.5,-443 2393.5,-431 2393.5,-431 2393.5,-425 2399.5,-419 2405.5,-419 2405.5,-419 2539.5,-419 2539.5,-419 2545.5,-419 2551.5,-425 2551.5,-431 2551.5,-431 2551.5,-443 2551.5,-443 2551.5,-449 2545.5,-455 2539.5,-455"/>
<polygon fill="#add8e6" stroke="transparent" points="2401.5,-429 2401.5,-444 2543.5,-444 2543.5,-429 2401.5,-429"/>
<text text-anchor="start" x="2403.5" y="-435" font-family="Times,serif" font-style="italic" font-size="10.00" fill="#000000">node1cj6acqs0x41:lmfMWEEdge</text>
</g>
<!-- node1cj6acqs0x42 -->
<g id="node12" class="node">
<title>node1cj6acqs0x42</title>
<path fill="none" stroke="#000000" d="M2546.5,-358C2546.5,-358 2410.5,-358 2410.5,-358 2404.5,-358 2398.5,-352 2398.5,-346 2398.5,-346 2398.5,-334 2398.5,-334 2398.5,-328 2404.5,-322 2410.5,-322 2410.5,-322 2546.5,-322 2546.5,-322 2552.5,-322 2558.5,-328 2558.5,-334 2558.5,-334 2558.5,-346 2558.5,-346 2558.5,-352 2552.5,-358 2546.5,-358"/>
<polygon fill="#add8e6" stroke="transparent" points="2406.5,-332 2406.5,-347 2550.5,-347 2550.5,-332 2406.5,-332"/>
<text text-anchor="start" x="2409" y="-338" font-family="Times,serif" font-style="italic" font-size="10.00" fill="#000000">node1cj6acqs0x42:lmfMWENode</text>
</g>
<!-- node1cj6acqs0x41&#45;&gt;node1cj6acqs0x42 -->
<g id="edge5" class="edge">
<title>node1cj6acqs0x41&#45;&gt;node1cj6acqs0x42</title>
<path fill="none" stroke="#000088" d="M2473.6286,-418.755C2474.5085,-404.5291 2475.7461,-384.521 2476.7537,-368.2321"/>
<polygon fill="#000088" stroke="#000088" points="2477.3765,-358.1631 2481.2505,-368.4219 2477.0678,-363.1536 2476.759,-368.1441 2476.759,-368.1441 2476.759,-368.1441 2477.0678,-363.1536 2472.2676,-367.8662 2477.3765,-358.1631 2477.3765,-358.1631"/>
<text text-anchor="middle" x="2505" y="-378.6" font-family="Times,serif" font-size="8.00" fill="#000000">lmfhasMWENode</text>
</g>
<!-- node1cj6acqs0x43 -->
<g id="node13" class="node">
<title>node1cj6acqs0x43</title>
<path fill="none" stroke="#000000" d="M2722.5,-253.5C2722.5,-253.5 2588.5,-253.5 2588.5,-253.5 2582.5,-253.5 2576.5,-247.5 2576.5,-241.5 2576.5,-241.5 2576.5,-229.5 2576.5,-229.5 2576.5,-223.5 2582.5,-217.5 2588.5,-217.5 2588.5,-217.5 2722.5,-217.5 2722.5,-217.5 2728.5,-217.5 2734.5,-223.5 2734.5,-229.5 2734.5,-229.5 2734.5,-241.5 2734.5,-241.5 2734.5,-247.5 2728.5,-253.5 2722.5,-253.5"/>
<polygon fill="#add8e6" stroke="transparent" points="2584.5,-227.5 2584.5,-242.5 2726.5,-242.5 2726.5,-227.5 2584.5,-227.5"/>
<text text-anchor="start" x="2586.5" y="-233.5" font-family="Times,serif" font-style="italic" font-size="10.00" fill="#000000">node1cj6acqs0x43:lmfMWEEdge</text>
</g>
<!-- node1cj6acqs0x42&#45;&gt;node1cj6acqs0x43 -->
<g id="edge6" class="edge">
<title>node1cj6acqs0x42&#45;&gt;node1cj6acqs0x43</title>
<path fill="none" stroke="#000088" d="M2509.7626,-321.9383C2519.6115,-316.2238 2530.5221,-309.8682 2540.5,-304 2565.8521,-289.0898 2594.2447,-272.1799 2616.4749,-258.8917"/>
<polygon fill="#000088" stroke="#000088" points="2625.2885,-253.6203 2619.0163,-262.6153 2620.9974,-256.1868 2616.7064,-258.7534 2616.7064,-258.7534 2616.7064,-258.7534 2620.9974,-256.1868 2614.3965,-254.8914 2625.2885,-253.6203 2625.2885,-253.6203"/>
<text text-anchor="middle" x="2581.5" y="-297.6" font-family="Times,serif" font-size="8.00" fill="#000000">lmfhasMWEEdge</text>
</g>
<!-- node1cj6acqs0x46 -->
<g id="node16" class="node">
<title>node1cj6acqs0x46</title>
<path fill="none" stroke="#000000" d="M2545.5,-253.5C2545.5,-253.5 2411.5,-253.5 2411.5,-253.5 2405.5,-253.5 2399.5,-247.5 2399.5,-241.5 2399.5,-241.5 2399.5,-229.5 2399.5,-229.5 2399.5,-223.5 2405.5,-217.5 2411.5,-217.5 2411.5,-217.5 2545.5,-217.5 2545.5,-217.5 2551.5,-217.5 2557.5,-223.5 2557.5,-229.5 2557.5,-229.5 2557.5,-241.5 2557.5,-241.5 2557.5,-247.5 2551.5,-253.5 2545.5,-253.5"/>
<polygon fill="#add8e6" stroke="transparent" points="2407.5,-227.5 2407.5,-242.5 2549.5,-242.5 2549.5,-227.5 2407.5,-227.5"/>
<text text-anchor="start" x="2409.5" y="-233.5" font-family="Times,serif" font-style="italic" font-size="10.00" fill="#000000">node1cj6acqs0x46:lmfMWEEdge</text>
</g>
<!-- node1cj6acqs0x42&#45;&gt;node1cj6acqs0x46 -->
<g id="edge7" class="edge">
<title>node1cj6acqs0x42&#45;&gt;node1cj6acqs0x46</title>
<path fill="none" stroke="#000088" d="M2478.5,-321.7975C2478.5,-305.8617 2478.5,-282.442 2478.5,-264.0195"/>
<polygon fill="#000088" stroke="#000088" points="2478.5,-253.8445 2483.0001,-263.8445 2478.5,-258.8445 2478.5001,-263.8445 2478.5001,-263.8445 2478.5001,-263.8445 2478.5,-258.8445 2474.0001,-263.8446 2478.5,-253.8445 2478.5,-253.8445"/>
<text text-anchor="middle" x="2507.5" y="-297.6" font-family="Times,serif" font-size="8.00" fill="#000000">lmfhasMWEEdge</text>
</g>
<!-- node1cj6acqs0x44 -->
<g id="node14" class="node">
<title>node1cj6acqs0x44</title>
<path fill="none" stroke="#000000" d="M2723.5,-149C2723.5,-149 2587.5,-149 2587.5,-149 2581.5,-149 2575.5,-143 2575.5,-137 2575.5,-137 2575.5,-125 2575.5,-125 2575.5,-119 2581.5,-113 2587.5,-113 2587.5,-113 2723.5,-113 2723.5,-113 2729.5,-113 2735.5,-119 2735.5,-125 2735.5,-125 2735.5,-137 2735.5,-137 2735.5,-143 2729.5,-149 2723.5,-149"/>
<polygon fill="#add8e6" stroke="transparent" points="2583.5,-123 2583.5,-138 2727.5,-138 2727.5,-123 2583.5,-123"/>
<text text-anchor="start" x="2586" y="-129" font-family="Times,serif" font-style="italic" font-size="10.00" fill="#000000">node1cj6acqs0x44:lmfMWENode</text>
</g>
<!-- node1cj6acqs0x43&#45;&gt;node1cj6acqs0x44 -->
<g id="edge8" class="edge">
<title>node1cj6acqs0x43&#45;&gt;node1cj6acqs0x44</title>
<path fill="none" stroke="#000088" d="M2655.5,-217.2975C2655.5,-201.3617 2655.5,-177.942 2655.5,-159.5195"/>
<polygon fill="#000088" stroke="#000088" points="2655.5,-149.3445 2660.0001,-159.3445 2655.5,-154.3445 2655.5001,-159.3445 2655.5001,-159.3445 2655.5001,-159.3445 2655.5,-154.3445 2651.0001,-159.3446 2655.5,-149.3445 2655.5,-149.3445"/>
<text text-anchor="middle" x="2685" y="-169.6" font-family="Times,serif" font-size="8.00" fill="#000000">lmfhasMWENode</text>
</g>
<!-- node1cj6acqs0x45 -->
<g id="node15" class="node">
<title>node1cj6acqs0x45</title>
<path fill="none" stroke="#000000" d="M2721.5,-68C2721.5,-68 2589.5,-68 2589.5,-68 2583.5,-68 2577.5,-62 2577.5,-56 2577.5,-56 2577.5,-12 2577.5,-12 2577.5,-6 2583.5,0 2589.5,0 2589.5,0 2721.5,0 2721.5,0 2727.5,0 2733.5,-6 2733.5,-12 2733.5,-12 2733.5,-56 2733.5,-56 2733.5,-62 2727.5,-68 2721.5,-68"/>
<polygon fill="#add8e6" stroke="transparent" points="2585.5,-49 2585.5,-64 2725.5,-64 2725.5,-49 2585.5,-49"/>
<text text-anchor="start" x="2604.5" y="-55" font-family="Times,serif" font-style="italic" font-size="10.00" fill="#000000">node1cj6acqs0x45:UNK</text>
<text text-anchor="start" x="2592" y="-39" font-family="Times,serif" font-size="10.00" fill="#000000"> &#160;&#160;&#160;&#160;&#160;&#160;&#160;componentRank &#160;&#160;&#160;&#160;&#160;</text>
<text text-anchor="start" x="2709" y="-39" font-family="Times,serif" font-size="10.00" fill="#000000">3</text>
<text text-anchor="start" x="2587.5" y="-24" font-family="Times,serif" font-size="10.00" fill="#000000"> &#160;&#160;&#160;&#160;&#160;&#160;&#160;graphicalSeparator &#160;&#160;&#160;&#160;&#160;</text>
<text text-anchor="start" x="2700.5" y="-24" font-family="Times,serif" font-size="10.00" fill="#000000">space</text>
<text text-anchor="start" x="2597.5" y="-9" font-family="Times,serif" font-size="10.00" fill="#000000"> &#160;&#160;&#160;&#160;&#160;&#160;&#160;lmfhasLemma &#160;&#160;&#160;&#160;&#160;</text>
<text text-anchor="start" x="2707" y="-9" font-family="Times,serif" font-size="10.00" fill="#000000">de</text>
</g>
<!-- node1cj6acqs0x44&#45;&gt;node1cj6acqs0x45 -->
<g id="edge9" class="edge">
<title>node1cj6acqs0x44&#45;&gt;node1cj6acqs0x45</title>
<path fill="none" stroke="#000088" d="M2655.5,-112.755C2655.5,-102.9796 2655.5,-90.4738 2655.5,-78.3206"/>
<polygon fill="#000088" stroke="#000088" points="2655.5,-68.2625 2660.0001,-78.2625 2655.5,-73.2625 2655.5001,-78.2625 2655.5001,-78.2625 2655.5001,-78.2625 2655.5,-73.2625 2651.0001,-78.2626 2655.5,-68.2625 2655.5,-68.2625"/>
<text text-anchor="middle" x="2677.5" y="-88.6" font-family="Times,serif" font-size="8.00" fill="#000000">lmfMWELex</text>
</g>
<!-- node1cj6acqs0x47 -->
<g id="node17" class="node">
<title>node1cj6acqs0x47</title>
<path fill="none" stroke="#000000" d="M2545.5,-149C2545.5,-149 2409.5,-149 2409.5,-149 2403.5,-149 2397.5,-143 2397.5,-137 2397.5,-137 2397.5,-125 2397.5,-125 2397.5,-119 2403.5,-113 2409.5,-113 2409.5,-113 2545.5,-113 2545.5,-113 2551.5,-113 2557.5,-119 2557.5,-125 2557.5,-125 2557.5,-137 2557.5,-137 2557.5,-143 2551.5,-149 2545.5,-149"/>
<polygon fill="#add8e6" stroke="transparent" points="2405.5,-123 2405.5,-138 2549.5,-138 2549.5,-123 2405.5,-123"/>
<text text-anchor="start" x="2408" y="-129" font-family="Times,serif" font-style="italic" font-size="10.00" fill="#000000">node1cj6acqs0x47:lmfMWENode</text>
</g>
<!-- node1cj6acqs0x46&#45;&gt;node1cj6acqs0x47 -->
<g id="edge10" class="edge">
<title>node1cj6acqs0x46&#45;&gt;node1cj6acqs0x47</title>
<path fill="none" stroke="#000088" d="M2478.3258,-217.2975C2478.1733,-201.3617 2477.9492,-177.942 2477.7729,-159.5195"/>
<polygon fill="#000088" stroke="#000088" points="2477.6755,-149.3445 2482.2711,-159.301 2477.7234,-154.3443 2477.7713,-159.3441 2477.7713,-159.3441 2477.7713,-159.3441 2477.7234,-154.3443 2473.2715,-159.3872 2477.6755,-149.3445 2477.6755,-149.3445"/>
<text text-anchor="middle" x="2507" y="-169.6" font-family="Times,serif" font-size="8.00" fill="#000000">lmfhasMWENode</text>
</g>
<!-- node1cj6acqs0x48 -->
<g id="node18" class="node">
<title>node1cj6acqs0x48</title>
<path fill="none" stroke="#000000" d="M2543.5,-68C2543.5,-68 2411.5,-68 2411.5,-68 2405.5,-68 2399.5,-62 2399.5,-56 2399.5,-56 2399.5,-12 2399.5,-12 2399.5,-6 2405.5,0 2411.5,0 2411.5,0 2543.5,0 2543.5,0 2549.5,0 2555.5,-6 2555.5,-12 2555.5,-12 2555.5,-56 2555.5,-56 2555.5,-62 2549.5,-68 2543.5,-68"/>
<polygon fill="#add8e6" stroke="transparent" points="2407.5,-49 2407.5,-64 2547.5,-64 2547.5,-49 2407.5,-49"/>
<text text-anchor="start" x="2426.5" y="-55" font-family="Times,serif" font-style="italic" font-size="10.00" fill="#000000">node1cj6acqs0x48:UNK</text>
<text text-anchor="start" x="2414" y="-39" font-family="Times,serif" font-size="10.00" fill="#000000"> &#160;&#160;&#160;&#160;&#160;&#160;&#160;componentRank &#160;&#160;&#160;&#160;&#160;</text>
<text text-anchor="start" x="2531" y="-39" font-family="Times,serif" font-size="10.00" fill="#000000">4</text>
<text text-anchor="start" x="2409.5" y="-24" font-family="Times,serif" font-size="10.00" fill="#000000"> &#160;&#160;&#160;&#160;&#160;&#160;&#160;graphicalSeparator &#160;&#160;&#160;&#160;&#160;</text>
<text text-anchor="start" x="2522.5" y="-24" font-family="Times,serif" font-size="10.00" fill="#000000">space</text>
<text text-anchor="start" x="2419.5" y="-9" font-family="Times,serif" font-size="10.00" fill="#000000"> &#160;&#160;&#160;&#160;&#160;&#160;&#160;lmfhasLemma &#160;&#160;&#160;&#160;&#160;</text>
<text text-anchor="start" x="2527.5" y="-9" font-family="Times,serif" font-size="10.00" fill="#000000">bel</text>
</g>
<!-- node1cj6acqs0x47&#45;&gt;node1cj6acqs0x48 -->
<g id="edge11" class="edge">
<title>node1cj6acqs0x47&#45;&gt;node1cj6acqs0x48</title>
<path fill="none" stroke="#000088" d="M2477.5,-112.755C2477.5,-102.9796 2477.5,-90.4738 2477.5,-78.3206"/>
<polygon fill="#000088" stroke="#000088" points="2477.5,-68.2625 2482.0001,-78.2625 2477.5,-73.2625 2477.5001,-78.2625 2477.5001,-78.2625 2477.5001,-78.2625 2477.5,-73.2625 2473.0001,-78.2626 2477.5,-68.2625 2477.5,-68.2625"/>
<text text-anchor="middle" x="2499.5" y="-88.6" font-family="Times,serif" font-size="8.00" fill="#000000">lmfMWELex</text>
</g>
<!-- duelmedekatdebelaanbinden -->
<g id="node19" class="node">
<title>duelmedekatdebelaanbinden</title>
<path fill="none" stroke="#000000" d="M1121.5,-652C1121.5,-652 893.5,-652 893.5,-652 887.5,-652 881.5,-646 881.5,-640 881.5,-640 881.5,-626 881.5,-626 881.5,-620 887.5,-614 893.5,-614 893.5,-614 1121.5,-614 1121.5,-614 1127.5,-614 1133.5,-620 1133.5,-626 1133.5,-626 1133.5,-640 1133.5,-640 1133.5,-646 1127.5,-652 1121.5,-652"/>
<polygon fill="#add8e6" stroke="transparent" points="889.5,-633 889.5,-648 1125.5,-648 1125.5,-633 889.5,-633"/>
<text text-anchor="start" x="891.5" y="-639" font-family="Times,serif" font-style="italic" font-size="10.00" fill="#000000">duelme_de_kat_de_bel_aanbinden:ontolexLexicalEntry</text>
<text text-anchor="start" x="903" y="-623" font-family="Times,serif" font-size="10.00" fill="#000000"> &#160;&#160;&#160;&#160;&#160;&#160;&#160;ExampleSentence &#160;&#160;&#160;&#160;&#160;</text>
<text text-anchor="start" x="1035.5" y="-623" font-family="Times,serif" font-size="10.00" fill="#000000">hij heeft de kat de </text>
</g>
<!-- duelmedekatdebelaanbinden&#45;&gt;node1cj6acqs0x24 -->
<g id="edge20" class="edge">
<title>duelmedekatdebelaanbinden&#45;&gt;node1cj6acqs0x24</title>
<path fill="none" stroke="#000088" d="M881.331,-627.6768C749.982,-620.4742 538.7872,-604.2145 359.5,-569 352.2569,-567.5774 344.7593,-565.8824 337.2983,-564.0471"/>
<polygon fill="#000088" stroke="#000088" points="327.5355,-561.5648 338.3361,-559.6679 332.3813,-562.797 337.2272,-564.0291 337.2272,-564.0291 337.2272,-564.0291 332.3813,-562.797 336.1182,-568.3904 327.5355,-561.5648 327.5355,-561.5648"/>
<text text-anchor="middle" x="541.5" y="-589.6" font-family="Times,serif" font-size="8.00" fill="#000000">hasAttestation</text>
</g>
<!-- duelmedekatdebelaanbinden&#45;&gt;node1cj6acqs0x18 -->
<g id="edge17" class="edge">
<title>duelmedekatdebelaanbinden&#45;&gt;node1cj6acqs0x18</title>
<path fill="none" stroke="#000088" d="M881.2662,-621.8763C786.4511,-612.043 653.8193,-595.1361 539.5,-569 533.352,-567.5944 527.005,-566.0078 520.6598,-564.3271"/>
<polygon fill="#000088" stroke="#000088" points="510.719,-561.6211 521.5499,-559.9058 515.5434,-562.9344 520.3679,-564.2477 520.3679,-564.2477 520.3679,-564.2477 515.5434,-562.9344 519.1859,-568.5897 510.719,-561.6211 510.719,-561.6211"/>
<text text-anchor="middle" x="703.5" y="-589.6" font-family="Times,serif" font-size="8.00" fill="#000000">hasAttestation</text>
</g>
<!-- mwepatternec117 -->
<g id="node20" class="node">
<title>mwepatternec117</title>
<path fill="none" stroke="#000000" d="M662.5,-560.5C662.5,-560.5 560.5,-560.5 560.5,-560.5 554.5,-560.5 548.5,-554.5 548.5,-548.5 548.5,-548.5 548.5,-536.5 548.5,-536.5 548.5,-530.5 554.5,-524.5 560.5,-524.5 560.5,-524.5 662.5,-524.5 662.5,-524.5 668.5,-524.5 674.5,-530.5 674.5,-536.5 674.5,-536.5 674.5,-548.5 674.5,-548.5 674.5,-554.5 668.5,-560.5 662.5,-560.5"/>
<polygon fill="#add8e6" stroke="transparent" points="556.5,-534.5 556.5,-549.5 666.5,-549.5 666.5,-534.5 556.5,-534.5"/>
<text text-anchor="start" x="559" y="-540.5" font-family="Times,serif" font-style="italic" font-size="10.00" fill="#000000">mwepattern_ec117:Class</text>
</g>
<!-- duelmedekatdebelaanbinden&#45;&gt;mwepatternec117 -->
<g id="edge12" class="edge">
<title>duelmedekatdebelaanbinden&#45;&gt;mwepatternec117</title>
<path fill="none" stroke="#000088" d="M884.751,-613.9371C823.6561,-603.1429 749.0381,-587.9793 683.5,-569 678.2224,-567.4717 672.7763,-565.7478 667.3528,-563.9311"/>
<polygon fill="#000088" stroke="#000088" points="657.6566,-560.5831 668.5777,-559.5934 662.3827,-562.215 667.1089,-563.847 667.1089,-563.847 667.1089,-563.847 662.3827,-562.215 665.6402,-568.1006 657.6566,-560.5831 657.6566,-560.5831"/>
<text text-anchor="middle" x="822" y="-589.6" font-family="Times,serif" font-size="8.00" fill="#000000">lmfhasMWEPattern</text>
</g>
<!-- celexlemma38935 -->
<g id="node21" class="node">
<title>celexlemma38935</title>
<path fill="none" stroke="#000000" d="M812.5,-560.5C812.5,-560.5 704.5,-560.5 704.5,-560.5 698.5,-560.5 692.5,-554.5 692.5,-548.5 692.5,-548.5 692.5,-536.5 692.5,-536.5 692.5,-530.5 698.5,-524.5 704.5,-524.5 704.5,-524.5 812.5,-524.5 812.5,-524.5 818.5,-524.5 824.5,-530.5 824.5,-536.5 824.5,-536.5 824.5,-548.5 824.5,-548.5 824.5,-554.5 818.5,-560.5 812.5,-560.5"/>
<polygon fill="#add8e6" stroke="transparent" points="700.5,-534.5 700.5,-549.5 816.5,-549.5 816.5,-534.5 700.5,-534.5"/>
<text text-anchor="start" x="702.5" y="-540.5" font-family="Times,serif" font-style="italic" font-size="10.00" fill="#000000">celex_lemma_38935:Class</text>
</g>
<!-- duelmedekatdebelaanbinden&#45;&gt;celexlemma38935 -->
<g id="edge13" class="edge">
<title>duelmedekatdebelaanbinden&#45;&gt;celexlemma38935</title>
<path fill="none" stroke="#000088" d="M952.1283,-613.9321C935.7963,-608.2378 917.9057,-601.9314 901.5,-596 873.0823,-585.7258 841.6167,-573.9929 815.4532,-564.1378"/>
<polygon fill="#000088" stroke="#000088" points="806.0693,-560.5981 817.014,-559.9171 810.7475,-562.3628 815.4258,-564.1275 815.4258,-564.1275 815.4258,-564.1275 810.7475,-562.3628 813.8375,-568.3379 806.0693,-560.5981 806.0693,-560.5981"/>
<text text-anchor="middle" x="920" y="-589.6" font-family="Times,serif" font-size="8.00" fill="#000000">conjugation</text>
</g>
<!-- node1cj6acqs0x10 -->
<g id="node22" class="node">
<title>node1cj6acqs0x10</title>
<path fill="none" stroke="#000000" d="M952.5,-560.5C952.5,-560.5 854.5,-560.5 854.5,-560.5 848.5,-560.5 842.5,-554.5 842.5,-548.5 842.5,-548.5 842.5,-536.5 842.5,-536.5 842.5,-530.5 848.5,-524.5 854.5,-524.5 854.5,-524.5 952.5,-524.5 952.5,-524.5 958.5,-524.5 964.5,-530.5 964.5,-536.5 964.5,-536.5 964.5,-548.5 964.5,-548.5 964.5,-554.5 958.5,-560.5 952.5,-560.5"/>
<polygon fill="#add8e6" stroke="transparent" points="850.5,-534.5 850.5,-549.5 956.5,-549.5 956.5,-534.5 850.5,-534.5"/>
<text text-anchor="start" x="852.5" y="-540.5" font-family="Times,serif" font-style="italic" font-size="10.00" fill="#000000">node1cj6acqs0x10:UNK</text>
</g>
<!-- duelmedekatdebelaanbinden&#45;&gt;node1cj6acqs0x10 -->
<g id="edge14" class="edge">
<title>duelmedekatdebelaanbinden&#45;&gt;node1cj6acqs0x10</title>
<path fill="none" stroke="#000088" d="M974.7388,-613.9201C966.5037,-608.5451 957.9077,-602.4042 950.5,-596 941.0962,-587.8701 931.829,-577.8734 924.0417,-568.7305"/>
<polygon fill="#000088" stroke="#000088" points="917.6131,-560.984 927.4622,-565.8055 920.8062,-564.8316 923.9993,-568.6793 923.9993,-568.6793 923.9993,-568.6793 920.8062,-564.8316 920.5364,-571.5531 917.6131,-560.984 917.6131,-560.984"/>
<text text-anchor="middle" x="987" y="-589.6" font-family="Times,serif" font-size="8.00" fill="#000000">lmfListOfComponents</text>
</g>
<!-- node1cj6acqs0x16 -->
<g id="node31" class="node">
<title>node1cj6acqs0x16</title>
<path fill="none" stroke="#000000" d="M1116,-569C1116,-569 995,-569 995,-569 989,-569 983,-563 983,-557 983,-557 983,-528 983,-528 983,-522 989,-516 995,-516 995,-516 1116,-516 1116,-516 1122,-516 1128,-522 1128,-528 1128,-528 1128,-557 1128,-557 1128,-563 1122,-569 1116,-569"/>
<polygon fill="#add8e6" stroke="transparent" points="991.5,-549.5 991.5,-564.5 1120.5,-564.5 1120.5,-549.5 991.5,-549.5"/>
<text text-anchor="start" x="1005" y="-555.5" font-family="Times,serif" font-style="italic" font-size="10.00" fill="#000000">node1cj6acqs0x16:UNK</text>
<text text-anchor="start" x="1004" y="-539.5" font-family="Times,serif" font-size="10.00" fill="#000000"> &#160;&#160;&#160;&#160;&#160;&#160;&#160;label &#160;&#160;&#160;&#160;&#160;</text>
<text text-anchor="start" x="1089.5" y="-539.5" font-family="Times,serif" font-size="10.00" fill="#000000">W</text>
<text text-anchor="start" x="993.5" y="-524.5" font-family="Times,serif" font-size="10.00" fill="#000000"> &#160;&#160;&#160;&#160;&#160;&#160;&#160;restriction &#160;&#160;&#160;&#160;&#160;</text>
<text text-anchor="start" x="1070.5" y="-524.5" font-family="Times,serif" font-size="10.00" fill="#000000">unspecified</text>
</g>
<!-- duelmedekatdebelaanbinden&#45;&gt;node1cj6acqs0x16 -->
<g id="edge15" class="edge">
<title>duelmedekatdebelaanbinden&#45;&gt;node1cj6acqs0x16</title>
<path fill="none" stroke="#000088" d="M1017.6796,-613.8073C1023.162,-603.4707 1030.1039,-590.3822 1036.5396,-578.2483"/>
<polygon fill="#000088" stroke="#000088" points="1041.3297,-569.2169 1040.6195,-580.1598 1038.9869,-573.6341 1036.644,-578.0513 1036.644,-578.0513 1036.644,-578.0513 1038.9869,-573.6341 1032.6686,-575.9427 1041.3297,-569.2169 1041.3297,-569.2169"/>
<text text-anchor="middle" x="1060.5" y="-589.6" font-family="Times,serif" font-size="8.00" fill="#000000">semanticVariable</text>
</g>
<!-- node1cj6acqs0x17 -->
<g id="node32" class="node">
<title>node1cj6acqs0x17</title>
<path fill="none" stroke="#000000" d="M1312.5,-569C1312.5,-569 1158.5,-569 1158.5,-569 1152.5,-569 1146.5,-563 1146.5,-557 1146.5,-557 1146.5,-528 1146.5,-528 1146.5,-522 1152.5,-516 1158.5,-516 1158.5,-516 1312.5,-516 1312.5,-516 1318.5,-516 1324.5,-522 1324.5,-528 1324.5,-528 1324.5,-557 1324.5,-557 1324.5,-563 1318.5,-569 1312.5,-569"/>
<polygon fill="#add8e6" stroke="transparent" points="1154.5,-549.5 1154.5,-564.5 1316.5,-564.5 1316.5,-549.5 1154.5,-549.5"/>
<text text-anchor="start" x="1184.5" y="-555.5" font-family="Times,serif" font-style="italic" font-size="10.00" fill="#000000">node1cj6acqs0x17:UNK</text>
<text text-anchor="start" x="1156.5" y="-539.5" font-family="Times,serif" font-size="10.00" fill="#000000"> &#160;&#160;&#160;&#160;&#160;&#160;&#160;syntacticFunction &#160;&#160;&#160;&#160;&#160;</text>
<text text-anchor="start" x="1285.5" y="-539.5" font-family="Times,serif" font-size="10.00" fill="#000000">su</text>
<text text-anchor="start" x="1173" y="-524.5" font-family="Times,serif" font-size="10.00" fill="#000000"> &#160;&#160;&#160;&#160;&#160;&#160;&#160;restriction &#160;&#160;&#160;&#160;&#160;</text>
<text text-anchor="start" x="1266.5" y="-524.5" font-family="Times,serif" font-size="10.00" fill="#000000">unspecified</text>
</g>
<!-- duelmedekatdebelaanbinden&#45;&gt;node1cj6acqs0x17 -->
<g id="edge16" class="edge">
<title>duelmedekatdebelaanbinden&#45;&gt;node1cj6acqs0x17</title>
<path fill="none" stroke="#000088" d="M1055.5743,-613.9179C1085.5492,-602.0199 1124.7891,-586.4445 1158.9716,-572.8764"/>
<polygon fill="#000088" stroke="#000088" points="1168.4668,-569.1075 1160.8324,-576.9794 1163.8195,-570.9522 1159.1722,-572.7968 1159.1722,-572.7968 1159.1722,-572.7968 1163.8195,-570.9522 1157.512,-568.6143 1168.4668,-569.1075 1168.4668,-569.1075"/>
<text text-anchor="middle" x="1151" y="-589.6" font-family="Times,serif" font-size="8.00" fill="#000000">SyntacticVariable</text>
</g>
<!-- node1cj6acqs0x20 -->
<g id="node33" class="node">
<title>node1cj6acqs0x20</title>
<path fill="none" stroke="#000000" d="M1496.5,-561.5C1496.5,-561.5 1354.5,-561.5 1354.5,-561.5 1348.5,-561.5 1342.5,-555.5 1342.5,-549.5 1342.5,-549.5 1342.5,-535.5 1342.5,-535.5 1342.5,-529.5 1348.5,-523.5 1354.5,-523.5 1354.5,-523.5 1496.5,-523.5 1496.5,-523.5 1502.5,-523.5 1508.5,-529.5 1508.5,-535.5 1508.5,-535.5 1508.5,-549.5 1508.5,-549.5 1508.5,-555.5 1502.5,-561.5 1496.5,-561.5"/>
<polygon fill="#add8e6" stroke="transparent" points="1350.5,-542.5 1350.5,-557.5 1500.5,-557.5 1500.5,-542.5 1350.5,-542.5"/>
<text text-anchor="start" x="1372.5" y="-548.5" font-family="Times,serif" font-style="italic" font-size="10.00" fill="#000000">node1cj6acqs0x20:Entity</text>
<text text-anchor="start" x="1352.5" y="-532.5" font-family="Times,serif" font-size="10.00" fill="#000000"> &#160;&#160;&#160;&#160;&#160;&#160;&#160;value &#160;&#160;&#160;&#160;&#160;</text>
<text text-anchor="start" x="1411.5" y="-532.5" font-family="Times,serif" font-size="10.00" fill="#000000">Volgens bronnen bij </text>
</g>
<!-- duelmedekatdebelaanbinden&#45;&gt;node1cj6acqs0x20 -->
<g id="edge18" class="edge">
<title>duelmedekatdebelaanbinden&#45;&gt;node1cj6acqs0x20</title>
<path fill="none" stroke="#000088" d="M1117.0519,-613.9401C1180.5574,-602.2822 1261.8792,-586.3108 1333.5,-569 1339.5435,-567.5393 1345.7851,-565.9396 1352.0379,-564.2729"/>
<polygon fill="#000088" stroke="#000088" points="1361.8461,-561.6087 1353.3754,-568.5727 1357.0209,-562.9194 1352.1958,-564.2301 1352.1958,-564.2301 1352.1958,-564.2301 1357.0209,-562.9194 1351.0162,-559.8874 1361.8461,-561.6087 1361.8461,-561.6087"/>
<text text-anchor="middle" x="1277.5" y="-589.6" font-family="Times,serif" font-size="8.00" fill="#000000">hasAttestation</text>
</g>
<!-- node1cj6acqs0x22 -->
<g id="node35" class="node">
<title>node1cj6acqs0x22</title>
<path fill="none" stroke="#000000" d="M1682.5,-561.5C1682.5,-561.5 1538.5,-561.5 1538.5,-561.5 1532.5,-561.5 1526.5,-555.5 1526.5,-549.5 1526.5,-549.5 1526.5,-535.5 1526.5,-535.5 1526.5,-529.5 1532.5,-523.5 1538.5,-523.5 1538.5,-523.5 1682.5,-523.5 1682.5,-523.5 1688.5,-523.5 1694.5,-529.5 1694.5,-535.5 1694.5,-535.5 1694.5,-549.5 1694.5,-549.5 1694.5,-555.5 1688.5,-561.5 1682.5,-561.5"/>
<polygon fill="#add8e6" stroke="transparent" points="1534.5,-542.5 1534.5,-557.5 1686.5,-557.5 1686.5,-542.5 1534.5,-542.5"/>
<text text-anchor="start" x="1557.5" y="-548.5" font-family="Times,serif" font-style="italic" font-size="10.00" fill="#000000">node1cj6acqs0x22:Entity</text>
<text text-anchor="start" x="1536.5" y="-532.5" font-family="Times,serif" font-size="10.00" fill="#000000"> &#160;&#160;&#160;&#160;&#160;&#160;&#160;value &#160;&#160;&#160;&#160;&#160;</text>
<text text-anchor="start" x="1595.5" y="-532.5" font-family="Times,serif" font-size="10.00" fill="#000000">Eén van de zes voorm</text>
</g>
<!-- duelmedekatdebelaanbinden&#45;&gt;node1cj6acqs0x22 -->
<g id="edge19" class="edge">
<title>duelmedekatdebelaanbinden&#45;&gt;node1cj6acqs0x22</title>
<path fill="none" stroke="#000088" d="M1133.6104,-622.6253C1237.3644,-612.7881 1387.8931,-595.5208 1517.5,-569 1524.4543,-567.577 1531.6483,-565.9011 1538.8131,-564.0948"/>
<polygon fill="#000088" stroke="#000088" points="1548.54,-561.5622 1539.9966,-568.4368 1543.7014,-562.8221 1538.8627,-564.082 1538.8627,-564.082 1538.8627,-564.082 1543.7014,-562.8221 1537.7288,-559.7272 1548.54,-561.5622 1548.54,-561.5622"/>
<text text-anchor="middle" x="1430.5" y="-589.6" font-family="Times,serif" font-size="8.00" fill="#000000">hasAttestation</text>
</g>
<!-- node1cj6acqs0x26 -->
<g id="node37" class="node">
<title>node1cj6acqs0x26</title>
<path fill="none" stroke="#000000" d="M1862,-561.5C1862,-561.5 1725,-561.5 1725,-561.5 1719,-561.5 1713,-555.5 1713,-549.5 1713,-549.5 1713,-535.5 1713,-535.5 1713,-529.5 1719,-523.5 1725,-523.5 1725,-523.5 1862,-523.5 1862,-523.5 1868,-523.5 1874,-529.5 1874,-535.5 1874,-535.5 1874,-549.5 1874,-549.5 1874,-555.5 1868,-561.5 1862,-561.5"/>
<polygon fill="#add8e6" stroke="transparent" points="1721.5,-542.5 1721.5,-557.5 1866.5,-557.5 1866.5,-542.5 1721.5,-542.5"/>
<text text-anchor="start" x="1741" y="-548.5" font-family="Times,serif" font-style="italic" font-size="10.00" fill="#000000">node1cj6acqs0x26:Entity</text>
<text text-anchor="start" x="1723.5" y="-532.5" font-family="Times,serif" font-size="10.00" fill="#000000"> &#160;&#160;&#160;&#160;&#160;&#160;&#160;value &#160;&#160;&#160;&#160;&#160;</text>
<text text-anchor="start" x="1782.5" y="-532.5" font-family="Times,serif" font-size="10.00" fill="#000000">Vandaar dat de initi</text>
</g>
<!-- duelmedekatdebelaanbinden&#45;&gt;node1cj6acqs0x26 -->
<g id="edge21" class="edge">
<title>duelmedekatdebelaanbinden&#45;&gt;node1cj6acqs0x26</title>
<path fill="none" stroke="#000088" d="M1133.7581,-629.4323C1274.0983,-623.6097 1506.8918,-608.4116 1703.5,-569 1710.26,-567.6449 1717.2451,-566.0134 1724.1959,-564.2341"/>
<polygon fill="#000088" stroke="#000088" points="1734.3251,-561.5362 1725.8202,-568.4584 1729.4935,-562.8231 1724.6619,-564.11 1724.6619,-564.11 1724.6619,-564.11 1729.4935,-562.8231 1723.5037,-559.7616 1734.3251,-561.5362 1734.3251,-561.5362"/>
<text text-anchor="middle" x="1614.5" y="-589.6" font-family="Times,serif" font-size="8.00" fill="#000000">hasAttestation</text>
</g>
<!-- node1cj6acqs0x28 -->
<g id="node39" class="node">
<title>node1cj6acqs0x28</title>
<path fill="none" stroke="#000000" d="M149,-561.5C149,-561.5 12,-561.5 12,-561.5 6,-561.5 0,-555.5 0,-549.5 0,-549.5 0,-535.5 0,-535.5 0,-529.5 6,-523.5 12,-523.5 12,-523.5 149,-523.5 149,-523.5 155,-523.5 161,-529.5 161,-535.5 161,-535.5 161,-549.5 161,-549.5 161,-555.5 155,-561.5 149,-561.5"/>
<polygon fill="#add8e6" stroke="transparent" points="8.5,-542.5 8.5,-557.5 153.5,-557.5 153.5,-542.5 8.5,-542.5"/>
<text text-anchor="start" x="28" y="-548.5" font-family="Times,serif" font-style="italic" font-size="10.00" fill="#000000">node1cj6acqs0x28:Entity</text>
<text text-anchor="start" x="10.5" y="-532.5" font-family="Times,serif" font-size="10.00" fill="#000000"> &#160;&#160;&#160;&#160;&#160;&#160;&#160;value &#160;&#160;&#160;&#160;&#160;</text>
<text text-anchor="start" x="69.5" y="-532.5" font-family="Times,serif" font-size="10.00" fill="#000000">Subsidie voor het bl</text>
</g>
<!-- duelmedekatdebelaanbinden&#45;&gt;node1cj6acqs0x28 -->
<g id="edge22" class="edge">
<title>duelmedekatdebelaanbinden&#45;&gt;node1cj6acqs0x28</title>
<path fill="none" stroke="#000088" d="M881.2145,-627.1766C681.5327,-617.3232 301.9663,-595.794 169.5,-569 162.8114,-567.6471 155.9015,-566.0171 149.0263,-564.2386"/>
<polygon fill="#000088" stroke="#000088" points="139.0081,-561.5417 149.8341,-559.796 143.8362,-562.8415 148.6643,-564.1413 148.6643,-564.1413 148.6643,-564.1413 143.8362,-562.8415 147.4946,-568.4866 139.0081,-561.5417 139.0081,-561.5417"/>
<text text-anchor="middle" x="411.5" y="-589.6" font-family="Times,serif" font-size="8.00" fill="#000000">hasAttestation</text>
</g>
<!-- node1cj6acqs0x30 -->
<g id="node40" class="node">
<title>node1cj6acqs0x30</title>
<path fill="none" stroke="#000000" d="M2181.5,-560.5C2181.5,-560.5 2045.5,-560.5 2045.5,-560.5 2039.5,-560.5 2033.5,-554.5 2033.5,-548.5 2033.5,-548.5 2033.5,-536.5 2033.5,-536.5 2033.5,-530.5 2039.5,-524.5 2045.5,-524.5 2045.5,-524.5 2181.5,-524.5 2181.5,-524.5 2187.5,-524.5 2193.5,-530.5 2193.5,-536.5 2193.5,-536.5 2193.5,-548.5 2193.5,-548.5 2193.5,-554.5 2187.5,-560.5 2181.5,-560.5"/>
<polygon fill="#add8e6" stroke="transparent" points="2041.5,-534.5 2041.5,-549.5 2185.5,-549.5 2185.5,-534.5 2041.5,-534.5"/>
<text text-anchor="start" x="2044" y="-540.5" font-family="Times,serif" font-style="italic" font-size="10.00" fill="#000000">node1cj6acqs0x30:lmfMWENode</text>
</g>
<!-- duelmedekatdebelaanbinden&#45;&gt;node1cj6acqs0x30 -->
<g id="edge23" class="edge">
<title>duelmedekatdebelaanbinden&#45;&gt;node1cj6acqs0x30</title>
<path fill="none" stroke="#000088" d="M1133.6465,-627.6201C1261.6943,-621.6934 1465.5878,-610.9764 1641.5,-596 1748.8927,-586.8571 1775.4049,-581.142 1882.5,-569 1928.9166,-563.7375 1980.5717,-557.8177 2023.2443,-552.9102"/>
<polygon fill="#000088" stroke="#000088" points="2033.3269,-551.7502 2023.9067,-557.3637 2028.3596,-552.3217 2023.3924,-552.8932 2023.3924,-552.8932 2023.3924,-552.8932 2028.3596,-552.3217 2022.878,-548.4227 2033.3269,-551.7502 2033.3269,-551.7502"/>
<text text-anchor="middle" x="1759" y="-589.6" font-family="Times,serif" font-size="8.00" fill="#000000">lmfhasMWENode</text>
</g>
<!-- node1cj6acqs0x10&#45;&gt;node1cj6acqs0x13 -->
<g id="edge26" class="edge">
<title>node1cj6acqs0x10&#45;&gt;node1cj6acqs0x13</title>
<path fill="none" stroke="#000088" d="M857.3721,-524.4453C849.4478,-521.5139 841.2652,-518.5925 833.5,-516 765.4585,-493.2835 745.8447,-495.7056 678.5,-471 675.4467,-469.8799 672.343,-468.694 669.2214,-467.4626"/>
<polygon fill="#000088" stroke="#000088" points="659.8352,-463.652 670.7935,-463.2442 664.468,-465.5329 669.1008,-467.4137 669.1008,-467.4137 669.1008,-467.4137 664.468,-465.5329 667.408,-471.5832 659.8352,-463.652 659.8352,-463.652"/>
<text text-anchor="middle" x="793.5" y="-491.6" font-family="Times,serif" font-size="8.00" fill="#000000">lmfComponent</text>
</g>
<!-- node1cj6acqs0x11 -->
<g id="node23" class="node">
<title>node1cj6acqs0x11</title>
<path fill="none" stroke="#000000" d="M809.5,-463.5C809.5,-463.5 699.5,-463.5 699.5,-463.5 693.5,-463.5 687.5,-457.5 687.5,-451.5 687.5,-451.5 687.5,-422.5 687.5,-422.5 687.5,-416.5 693.5,-410.5 699.5,-410.5 699.5,-410.5 809.5,-410.5 809.5,-410.5 815.5,-410.5 821.5,-416.5 821.5,-422.5 821.5,-422.5 821.5,-451.5 821.5,-451.5 821.5,-457.5 815.5,-463.5 809.5,-463.5"/>
<polygon fill="#add8e6" stroke="transparent" points="695.5,-444 695.5,-459 813.5,-459 813.5,-444 695.5,-444"/>
<text text-anchor="start" x="703.5" y="-450" font-family="Times,serif" font-style="italic" font-size="10.00" fill="#000000">node1cj6acqs0x11:UNK</text>
<text text-anchor="start" x="697.5" y="-434" font-family="Times,serif" font-size="10.00" fill="#000000"> &#160;&#160;&#160;&#160;&#160;&#160;&#160;componentRank &#160;&#160;&#160;&#160;&#160;</text>
<text text-anchor="start" x="803.5" y="-434" font-family="Times,serif" font-size="10.00" fill="#000000">1</text>
<text text-anchor="start" x="703" y="-419" font-family="Times,serif" font-size="10.00" fill="#000000"> &#160;&#160;&#160;&#160;&#160;&#160;&#160;lmfhasLemma &#160;&#160;&#160;&#160;&#160;</text>
<text text-anchor="start" x="801.5" y="-419" font-family="Times,serif" font-size="10.00" fill="#000000">de</text>
</g>
<!-- node1cj6acqs0x10&#45;&gt;node1cj6acqs0x11 -->
<g id="edge24" class="edge">
<title>node1cj6acqs0x10&#45;&gt;node1cj6acqs0x11</title>
<path fill="none" stroke="#000088" d="M877.886,-524.3639C856.6555,-509.3316 825.9421,-487.5848 800.47,-469.5492"/>
<polygon fill="#000088" stroke="#000088" points="792.0539,-463.5902 802.8156,-465.6963 796.1346,-466.4795 800.2152,-469.3689 800.2152,-469.3689 800.2152,-469.3689 796.1346,-466.4795 797.6148,-473.0415 792.0539,-463.5902 792.0539,-463.5902"/>
<text text-anchor="middle" x="862.5" y="-491.6" font-family="Times,serif" font-size="8.00" fill="#000000">lmfComponent</text>
</g>
<!-- node1cj6acqs0x12 -->
<g id="node24" class="node">
<title>node1cj6acqs0x12</title>
<path fill="none" stroke="#000000" d="M965,-463.5C965,-463.5 852,-463.5 852,-463.5 846,-463.5 840,-457.5 840,-451.5 840,-451.5 840,-422.5 840,-422.5 840,-416.5 846,-410.5 852,-410.5 852,-410.5 965,-410.5 965,-410.5 971,-410.5 977,-416.5 977,-422.5 977,-422.5 977,-451.5 977,-451.5 977,-457.5 971,-463.5 965,-463.5"/>
<polygon fill="#add8e6" stroke="transparent" points="848.5,-444 848.5,-459 969.5,-459 969.5,-444 848.5,-444"/>
<text text-anchor="start" x="858" y="-450" font-family="Times,serif" font-style="italic" font-size="10.00" fill="#000000">node1cj6acqs0x12:UNK</text>
<text text-anchor="start" x="850.5" y="-434" font-family="Times,serif" font-size="10.00" fill="#000000"> &#160;&#160;&#160;&#160;&#160;&#160;&#160;componentRank &#160;&#160;&#160;&#160;&#160;</text>
<text text-anchor="start" x="958" y="-434" font-family="Times,serif" font-size="10.00" fill="#000000">2</text>
<text text-anchor="start" x="856" y="-419" font-family="Times,serif" font-size="10.00" fill="#000000"> &#160;&#160;&#160;&#160;&#160;&#160;&#160;lmfhasLemma &#160;&#160;&#160;&#160;&#160;</text>
<text text-anchor="start" x="954.5" y="-419" font-family="Times,serif" font-size="10.00" fill="#000000">kat</text>
</g>
<!-- node1cj6acqs0x10&#45;&gt;node1cj6acqs0x12 -->
<g id="edge25" class="edge">
<title>node1cj6acqs0x10&#45;&gt;node1cj6acqs0x12</title>
<path fill="none" stroke="#000088" d="M904.3709,-524.1233C905.0243,-510.3365 905.9407,-491.0012 906.7442,-474.0472"/>
<polygon fill="#000088" stroke="#000088" points="907.2266,-463.8695 911.248,-474.0713 906.9898,-468.8638 906.7531,-473.8582 906.7531,-473.8582 906.7531,-473.8582 906.9898,-468.8638 902.2581,-473.6452 907.2266,-463.8695 907.2266,-463.8695"/>
<text text-anchor="middle" x="930.5" y="-491.6" font-family="Times,serif" font-size="8.00" fill="#000000">lmfComponent</text>
</g>
<!-- node1cj6acqs0x14 -->
<g id="node28" class="node">
<title>node1cj6acqs0x14</title>
<path fill="none" stroke="#000000" d="M1120,-463.5C1120,-463.5 1007,-463.5 1007,-463.5 1001,-463.5 995,-457.5 995,-451.5 995,-451.5 995,-422.5 995,-422.5 995,-416.5 1001,-410.5 1007,-410.5 1007,-410.5 1120,-410.5 1120,-410.5 1126,-410.5 1132,-416.5 1132,-422.5 1132,-422.5 1132,-451.5 1132,-451.5 1132,-457.5 1126,-463.5 1120,-463.5"/>
<polygon fill="#add8e6" stroke="transparent" points="1003.5,-444 1003.5,-459 1124.5,-459 1124.5,-444 1003.5,-444"/>
<text text-anchor="start" x="1013" y="-450" font-family="Times,serif" font-style="italic" font-size="10.00" fill="#000000">node1cj6acqs0x14:UNK</text>
<text text-anchor="start" x="1005.5" y="-434" font-family="Times,serif" font-size="10.00" fill="#000000"> &#160;&#160;&#160;&#160;&#160;&#160;&#160;componentRank &#160;&#160;&#160;&#160;&#160;</text>
<text text-anchor="start" x="1113" y="-434" font-family="Times,serif" font-size="10.00" fill="#000000">4</text>
<text text-anchor="start" x="1011" y="-419" font-family="Times,serif" font-size="10.00" fill="#000000"> &#160;&#160;&#160;&#160;&#160;&#160;&#160;lmfhasLemma &#160;&#160;&#160;&#160;&#160;</text>
<text text-anchor="start" x="1109.5" y="-419" font-family="Times,serif" font-size="10.00" fill="#000000">bel</text>
</g>
<!-- node1cj6acqs0x10&#45;&gt;node1cj6acqs0x14 -->
<g id="edge27" class="edge">
<title>node1cj6acqs0x10&#45;&gt;node1cj6acqs0x14</title>
<path fill="none" stroke="#000088" d="M931.005,-524.3639C953.9019,-509.2663 987.0707,-487.3956 1014.4927,-469.3142"/>
<polygon fill="#000088" stroke="#000088" points="1023.1737,-463.5902 1017.3023,-472.8518 1018.9994,-466.3426 1014.8252,-469.095 1014.8252,-469.095 1014.8252,-469.095 1018.9994,-466.3426 1012.348,-465.3382 1023.1737,-463.5902 1023.1737,-463.5902"/>
<text text-anchor="middle" x="1007.5" y="-491.6" font-family="Times,serif" font-size="8.00" fill="#000000">lmfComponent</text>
</g>
<!-- node1cj6acqs0x15 -->
<g id="node29" class="node">
<title>node1cj6acqs0x15</title>
<path fill="none" stroke="#000000" d="M1314.5,-471C1314.5,-471 1162.5,-471 1162.5,-471 1156.5,-471 1150.5,-465 1150.5,-459 1150.5,-459 1150.5,-415 1150.5,-415 1150.5,-409 1156.5,-403 1162.5,-403 1162.5,-403 1314.5,-403 1314.5,-403 1320.5,-403 1326.5,-409 1326.5,-415 1326.5,-415 1326.5,-459 1326.5,-459 1326.5,-465 1320.5,-471 1314.5,-471"/>
<polygon fill="#add8e6" stroke="transparent" points="1158.5,-452 1158.5,-467 1318.5,-467 1318.5,-452 1158.5,-452"/>
<text text-anchor="start" x="1187.5" y="-458" font-family="Times,serif" font-style="italic" font-size="10.00" fill="#000000">node1cj6acqs0x15:UNK</text>
<text text-anchor="start" x="1165" y="-442" font-family="Times,serif" font-size="10.00" fill="#000000"> &#160;&#160;&#160;&#160;&#160;&#160;&#160;componentRank &#160;&#160;&#160;&#160;&#160;</text>
<text text-anchor="start" x="1292" y="-442" font-family="Times,serif" font-size="10.00" fill="#000000">5</text>
<text text-anchor="start" x="1170.5" y="-427" font-family="Times,serif" font-size="10.00" fill="#000000"> &#160;&#160;&#160;&#160;&#160;&#160;&#160;lmfhasLemma &#160;&#160;&#160;&#160;&#160;</text>
<text text-anchor="start" x="1273.5" y="-427" font-family="Times,serif" font-size="10.00" fill="#000000">aanbinden</text>
<text text-anchor="start" x="1160.5" y="-412" font-family="Times,serif" font-size="10.00" fill="#000000"> &#160;&#160;&#160;&#160;&#160;&#160;&#160;lexinfoproposition &#160;&#160;&#160;&#160;&#160;</text>
<text text-anchor="start" x="1287.5" y="-412" font-family="Times,serif" font-size="10.00" fill="#000000">aan</text>
</g>
<!-- node1cj6acqs0x10&#45;&gt;node1cj6acqs0x15 -->
<g id="edge28" class="edge">
<title>node1cj6acqs0x10&#45;&gt;node1cj6acqs0x15</title>
<path fill="none" stroke="#000088" d="M949.2084,-524.4559C957.2547,-521.4921 965.5865,-518.5572 973.5,-516 1046.6454,-492.3634 1067.0314,-493.612 1140.5,-471 1140.6022,-470.9685 1140.7044,-470.9371 1140.8067,-470.9055"/>
<polygon fill="#000088" stroke="#000088" points="1150.4479,-467.878 1142.2555,-475.1673 1145.6776,-469.376 1140.9073,-470.874 1140.9073,-470.874 1140.9073,-470.874 1145.6776,-469.376 1139.559,-466.5807 1150.4479,-467.878 1150.4479,-467.878"/>
<text text-anchor="middle" x="1098.5" y="-491.6" font-family="Times,serif" font-size="8.00" fill="#000000">lmfComponent</text>
</g>
<!-- lexinfocommonGender -->
<g id="node25" class="node">
<title>lexinfocommonGender</title>
<path fill="none" stroke="#000000" d="M855.5,-358C855.5,-358 737.5,-358 737.5,-358 731.5,-358 725.5,-352 725.5,-346 725.5,-346 725.5,-334 725.5,-334 725.5,-328 731.5,-322 737.5,-322 737.5,-322 855.5,-322 855.5,-322 861.5,-322 867.5,-328 867.5,-334 867.5,-334 867.5,-346 867.5,-346 867.5,-352 861.5,-358 855.5,-358"/>
<polygon fill="#add8e6" stroke="transparent" points="733.5,-332 733.5,-347 859.5,-347 859.5,-332 733.5,-332"/>
<text text-anchor="start" x="736" y="-338" font-family="Times,serif" font-style="italic" font-size="10.00" fill="#000000">lexinfocommonGender:Class</text>
</g>
<!-- node1cj6acqs0x12&#45;&gt;lexinfocommonGender -->
<g id="edge29" class="edge">
<title>node1cj6acqs0x12&#45;&gt;lexinfocommonGender</title>
<path fill="none" stroke="#000088" d="M847.8305,-410.4411C830.3956,-401.758 814.4682,-392.4419 808.5,-385 804.6112,-380.151 801.9759,-374.1563 800.1919,-368.1413"/>
<polygon fill="#000088" stroke="#000088" points="797.9222,-358.1979 804.5348,-366.9457 799.0349,-363.0726 800.1477,-367.9472 800.1477,-367.9472 800.1477,-367.9472 799.0349,-363.0726 795.7605,-368.9486 797.9222,-358.1979 797.9222,-358.1979"/>
<text text-anchor="middle" x="831" y="-378.6" font-family="Times,serif" font-size="8.00" fill="#000000">lexinfogender</text>
</g>
<!-- countable -->
<g id="node26" class="node">
<title>countable</title>
<path fill="none" stroke="#000000" d="M996.5,-358C996.5,-358 932.5,-358 932.5,-358 926.5,-358 920.5,-352 920.5,-346 920.5,-346 920.5,-334 920.5,-334 920.5,-328 926.5,-322 932.5,-322 932.5,-322 996.5,-322 996.5,-322 1002.5,-322 1008.5,-328 1008.5,-334 1008.5,-334 1008.5,-346 1008.5,-346 1008.5,-352 1002.5,-358 996.5,-358"/>
<polygon fill="#add8e6" stroke="transparent" points="928.5,-332 928.5,-347 1000.5,-347 1000.5,-332 928.5,-332"/>
<text text-anchor="start" x="931" y="-338" font-family="Times,serif" font-style="italic" font-size="10.00" fill="#000000">countable:Class</text>
</g>
<!-- node1cj6acqs0x12&#45;&gt;countable -->
<g id="edge30" class="edge">
<title>node1cj6acqs0x12&#45;&gt;countable</title>
<path fill="none" stroke="#000088" d="M869.5345,-410.3981C858.8929,-399.8592 852.2927,-387.5261 860.5,-376 866.8958,-367.018 888.6648,-358.8173 910.6447,-352.5193"/>
<polygon fill="#000088" stroke="#000088" points="920.3674,-349.852 911.9143,-356.8374 915.5455,-351.1748 910.7237,-352.4977 910.7237,-352.4977 910.7237,-352.4977 915.5455,-351.1748 909.5331,-348.1581 920.3674,-349.852 920.3674,-349.852"/>
<text text-anchor="middle" x="884" y="-378.6" font-family="Times,serif" font-size="8.00" fill="#000000">lexinfonumber</text>
</g>
<!-- lexinfosingular -->
<g id="node27" class="node">
<title>lexinfosingular</title>
<path fill="none" stroke="#000000" d="M1141.5,-358C1141.5,-358 1055.5,-358 1055.5,-358 1049.5,-358 1043.5,-352 1043.5,-346 1043.5,-346 1043.5,-334 1043.5,-334 1043.5,-328 1049.5,-322 1055.5,-322 1055.5,-322 1141.5,-322 1141.5,-322 1147.5,-322 1153.5,-328 1153.5,-334 1153.5,-334 1153.5,-346 1153.5,-346 1153.5,-352 1147.5,-358 1141.5,-358"/>
<polygon fill="#add8e6" stroke="transparent" points="1051.5,-332 1051.5,-347 1145.5,-347 1145.5,-332 1051.5,-332"/>
<text text-anchor="start" x="1054" y="-338" font-family="Times,serif" font-style="italic" font-size="10.00" fill="#000000">lexinfosingular:Class</text>
</g>
<!-- node1cj6acqs0x12&#45;&gt;lexinfosingular -->
<g id="edge31" class="edge">
<title>node1cj6acqs0x12&#45;&gt;lexinfosingular</title>
<path fill="none" stroke="#000088" d="M941.3981,-410.3267C956.8596,-398.6859 975.9433,-385.5454 994.5,-376 1006.8049,-369.6705 1020.471,-364.041 1033.7434,-359.2221"/>
<polygon fill="#000088" stroke="#000088" points="1043.313,-355.8581 1035.3714,-363.4199 1038.596,-357.5163 1033.879,-359.1745 1033.879,-359.1745 1033.879,-359.1745 1038.596,-357.5163 1032.3866,-354.9292 1043.313,-355.8581 1043.313,-355.8581"/>
<text text-anchor="middle" x="1018" y="-378.6" font-family="Times,serif" font-size="8.00" fill="#000000">lexinfonumber</text>
</g>
<!-- node1cj6acqs0x14&#45;&gt;lexinfocommonGender -->
<g id="edge32" class="edge">
<title>node1cj6acqs0x14&#45;&gt;lexinfocommonGender</title>
<path fill="none" stroke="#000088" d="M1004.1184,-410.4247C997.8654,-407.8337 991.5747,-405.3121 985.5,-403 961.462,-393.851 954.7078,-393.6897 930.5,-385 920.1685,-381.2914 917.8364,-379.6949 907.5,-376 893.5501,-371.0135 878.5128,-365.9383 864.1475,-361.2321"/>
<polygon fill="#000088" stroke="#000088" points="854.3313,-358.0385 865.233,-356.8531 859.086,-359.5854 863.8407,-361.1324 863.8407,-361.1324 863.8407,-361.1324 859.086,-359.5854 862.4485,-365.4116 854.3313,-358.0385 854.3313,-358.0385"/>
<text text-anchor="middle" x="953" y="-378.6" font-family="Times,serif" font-size="8.00" fill="#000000">lexinfogender</text>
</g>
<!-- node1cj6acqs0x14&#45;&gt;countable -->
<g id="edge33" class="edge">
<title>node1cj6acqs0x14&#45;&gt;countable</title>
<path fill="none" stroke="#000088" d="M1060.6884,-410.253C1058.2748,-398.5972 1053.7977,-385.4654 1045.5,-376 1038.1216,-367.5833 1028.3973,-361.0432 1018.2557,-355.9928"/>
<polygon fill="#000088" stroke="#000088" points="1008.88,-351.7624 1019.8459,-351.7735 1013.4375,-353.8188 1017.9951,-355.8753 1017.9951,-355.8753 1017.9951,-355.8753 1013.4375,-353.8188 1016.1443,-359.9771 1008.88,-351.7624 1008.88,-351.7624"/>
<text text-anchor="middle" x="1075" y="-378.6" font-family="Times,serif" font-size="8.00" fill="#000000">lexinfonumber</text>
</g>
<!-- node1cj6acqs0x14&#45;&gt;lexinfosingular -->
<g id="edge34" class="edge">
<title>node1cj6acqs0x14&#45;&gt;lexinfosingular</title>
<path fill="none" stroke="#000088" d="M1097.8971,-410.4409C1105.0475,-403.053 1111.5914,-394.4363 1115.5,-385 1117.834,-379.3651 1117.4528,-373.283 1115.7157,-367.4674"/>
<polygon fill="#000088" stroke="#000088" points="1111.7519,-358.0578 1119.7811,-365.5266 1113.693,-362.6656 1115.6341,-367.2735 1115.6341,-367.2735 1115.6341,-367.2735 1113.693,-362.6656 1111.487,-369.0205 1111.7519,-358.0578 1111.7519,-358.0578"/>
<text text-anchor="middle" x="1141" y="-378.6" font-family="Times,serif" font-size="8.00" fill="#000000">lexinfonumber</text>
</g>
<!-- lexinfoparticiple -->
<g id="node30" class="node">
<title>lexinfoparticiple</title>
<path fill="none" stroke="#000000" d="M1284.5,-358C1284.5,-358 1192.5,-358 1192.5,-358 1186.5,-358 1180.5,-352 1180.5,-346 1180.5,-346 1180.5,-334 1180.5,-334 1180.5,-328 1186.5,-322 1192.5,-322 1192.5,-322 1284.5,-322 1284.5,-322 1290.5,-322 1296.5,-328 1296.5,-334 1296.5,-334 1296.5,-346 1296.5,-346 1296.5,-352 1290.5,-358 1284.5,-358"/>
<polygon fill="#add8e6" stroke="transparent" points="1188.5,-332 1188.5,-347 1288.5,-347 1288.5,-332 1188.5,-332"/>
<text text-anchor="start" x="1191" y="-338" font-family="Times,serif" font-style="italic" font-size="10.00" fill="#000000">lexinfoparticiple:Class</text>
</g>
<!-- node1cj6acqs0x15&#45;&gt;lexinfoparticiple -->
<g id="edge35" class="edge">
<title>node1cj6acqs0x15&#45;&gt;lexinfoparticiple</title>
<path fill="none" stroke="#000088" d="M1238.5,-402.8014C1238.5,-391.5107 1238.5,-379.0843 1238.5,-368.2861"/>
<polygon fill="#000088" stroke="#000088" points="1238.5,-358.1329 1243.0001,-368.1329 1238.5,-363.1329 1238.5001,-368.1329 1238.5001,-368.1329 1238.5001,-368.1329 1238.5,-363.1329 1234.0001,-368.133 1238.5,-358.1329 1238.5,-358.1329"/>
<text text-anchor="middle" x="1275" y="-378.6" font-family="Times,serif" font-size="8.00" fill="#000000">lexinfoverbFormMood</text>
</g>
<!-- node1cj6acqs0x21 -->
<g id="node34" class="node">
<title>node1cj6acqs0x21</title>
<path fill="none" stroke="#000000" d="M1490,-463.5C1490,-463.5 1361,-463.5 1361,-463.5 1355,-463.5 1349,-457.5 1349,-451.5 1349,-451.5 1349,-422.5 1349,-422.5 1349,-416.5 1355,-410.5 1361,-410.5 1361,-410.5 1490,-410.5 1490,-410.5 1496,-410.5 1502,-416.5 1502,-422.5 1502,-422.5 1502,-451.5 1502,-451.5 1502,-457.5 1496,-463.5 1490,-463.5"/>
<polygon fill="#add8e6" stroke="transparent" points="1357.5,-444 1357.5,-459 1494.5,-459 1494.5,-444 1357.5,-444"/>
<text text-anchor="start" x="1375" y="-450" font-family="Times,serif" font-style="italic" font-size="10.00" fill="#000000">node1cj6acqs0x21:UNK</text>
<text text-anchor="start" x="1359.5" y="-434" font-family="Times,serif" font-size="10.00" fill="#000000"> &#160;&#160;&#160;&#160;&#160;&#160;&#160;title &#160;&#160;&#160;&#160;&#160;</text>
<text text-anchor="start" x="1412.5" y="-434" font-family="Times,serif" font-size="10.00" fill="#000000">Algemeen Dagblad</text>
<text text-anchor="start" x="1359.5" y="-419" font-family="Times,serif" font-size="10.00" fill="#000000"> &#160;&#160;&#160;&#160;&#160;&#160;&#160;date &#160;&#160;&#160;&#160;&#160;</text>
<text text-anchor="start" x="1428" y="-419" font-family="Times,serif" font-size="10.00" fill="#000000">1994&#45;05&#45;13</text>
</g>
<!-- node1cj6acqs0x20&#45;&gt;node1cj6acqs0x21 -->
<g id="edge36" class="edge">
<title>node1cj6acqs0x20&#45;&gt;node1cj6acqs0x21</title>
<path fill="none" stroke="#000088" d="M1425.5,-523.1497C1425.5,-509.4864 1425.5,-490.7445 1425.5,-474.2303"/>
<polygon fill="#000088" stroke="#000088" points="1425.5,-463.7756 1430.0001,-473.7755 1425.5,-468.7756 1425.5001,-473.7756 1425.5001,-473.7756 1425.5001,-473.7756 1425.5,-468.7756 1421.0001,-473.7756 1425.5,-463.7756 1425.5,-463.7756"/>
<text text-anchor="middle" x="1452.5" y="-491.6" font-family="Times,serif" font-size="8.00" fill="#000000">wasQuotedFrom</text>
</g>
<!-- node1cj6acqs0x23 -->
<g id="node36" class="node">
<title>node1cj6acqs0x23</title>
<path fill="none" stroke="#000000" d="M1675,-463.5C1675,-463.5 1546,-463.5 1546,-463.5 1540,-463.5 1534,-457.5 1534,-451.5 1534,-451.5 1534,-422.5 1534,-422.5 1534,-416.5 1540,-410.5 1546,-410.5 1546,-410.5 1675,-410.5 1675,-410.5 1681,-410.5 1687,-416.5 1687,-422.5 1687,-422.5 1687,-451.5 1687,-451.5 1687,-457.5 1681,-463.5 1675,-463.5"/>
<polygon fill="#add8e6" stroke="transparent" points="1542.5,-444 1542.5,-459 1679.5,-459 1679.5,-444 1542.5,-444"/>
<text text-anchor="start" x="1560" y="-450" font-family="Times,serif" font-style="italic" font-size="10.00" fill="#000000">node1cj6acqs0x23:UNK</text>
<text text-anchor="start" x="1544.5" y="-434" font-family="Times,serif" font-size="10.00" fill="#000000"> &#160;&#160;&#160;&#160;&#160;&#160;&#160;title &#160;&#160;&#160;&#160;&#160;</text>
<text text-anchor="start" x="1597.5" y="-434" font-family="Times,serif" font-size="10.00" fill="#000000">Algemeen Dagblad</text>
<text text-anchor="start" x="1544.5" y="-419" font-family="Times,serif" font-size="10.00" fill="#000000"> &#160;&#160;&#160;&#160;&#160;&#160;&#160;date &#160;&#160;&#160;&#160;&#160;</text>
<text text-anchor="start" x="1613" y="-419" font-family="Times,serif" font-size="10.00" fill="#000000">1995&#45;03&#45;08</text>
</g>
<!-- node1cj6acqs0x22&#45;&gt;node1cj6acqs0x23 -->
<g id="edge37" class="edge">
<title>node1cj6acqs0x22&#45;&gt;node1cj6acqs0x23</title>
<path fill="none" stroke="#000088" d="M1610.5,-523.1497C1610.5,-509.4864 1610.5,-490.7445 1610.5,-474.2303"/>
<polygon fill="#000088" stroke="#000088" points="1610.5,-463.7756 1615.0001,-473.7755 1610.5,-468.7756 1610.5001,-473.7756 1610.5001,-473.7756 1610.5001,-473.7756 1610.5,-468.7756 1606.0001,-473.7756 1610.5,-463.7756 1610.5,-463.7756"/>
<text text-anchor="middle" x="1637.5" y="-491.6" font-family="Times,serif" font-size="8.00" fill="#000000">wasQuotedFrom</text>
</g>
<!-- node1cj6acqs0x27 -->
<g id="node38" class="node">
<title>node1cj6acqs0x27</title>
<path fill="none" stroke="#000000" d="M1828.5,-463.5C1828.5,-463.5 1730.5,-463.5 1730.5,-463.5 1724.5,-463.5 1718.5,-457.5 1718.5,-451.5 1718.5,-451.5 1718.5,-422.5 1718.5,-422.5 1718.5,-416.5 1724.5,-410.5 1730.5,-410.5 1730.5,-410.5 1828.5,-410.5 1828.5,-410.5 1834.5,-410.5 1840.5,-416.5 1840.5,-422.5 1840.5,-422.5 1840.5,-451.5 1840.5,-451.5 1840.5,-457.5 1834.5,-463.5 1828.5,-463.5"/>
<polygon fill="#add8e6" stroke="transparent" points="1726.5,-444 1726.5,-459 1832.5,-459 1832.5,-444 1726.5,-444"/>
<text text-anchor="start" x="1728.5" y="-450" font-family="Times,serif" font-style="italic" font-size="10.00" fill="#000000">node1cj6acqs0x27:UNK</text>
<text text-anchor="start" x="1728.5" y="-434" font-family="Times,serif" font-size="10.00" fill="#000000"> &#160;&#160;&#160;&#160;&#160;&#160;&#160;title &#160;&#160;&#160;&#160;&#160;</text>
<text text-anchor="start" x="1798" y="-434" font-family="Times,serif" font-size="10.00" fill="#000000">NH</text>
<text text-anchor="start" x="1728.5" y="-419" font-family="Times,serif" font-size="10.00" fill="#000000"> &#160;&#160;&#160;&#160;&#160;&#160;&#160;date &#160;&#160;&#160;&#160;&#160;</text>
<text text-anchor="start" x="1781.5" y="-419" font-family="Times,serif" font-size="10.00" fill="#000000">1994&#45;02&#45;25</text>
</g>
<!-- node1cj6acqs0x26&#45;&gt;node1cj6acqs0x27 -->
<g id="edge38" class="edge">
<title>node1cj6acqs0x26&#45;&gt;node1cj6acqs0x27</title>
<path fill="none" stroke="#000088" d="M1790.9322,-523.1497C1789.1018,-509.3563 1786.5845,-490.387 1784.378,-473.7591"/>
<polygon fill="#000088" stroke="#000088" points="1783.0532,-463.7756 1788.8296,-473.0966 1783.7109,-468.7321 1784.3687,-473.6886 1784.3687,-473.6886 1784.3687,-473.6886 1783.7109,-468.7321 1779.9078,-474.2807 1783.0532,-463.7756 1783.0532,-463.7756"/>
<text text-anchor="middle" x="1814.5" y="-491.6" font-family="Times,serif" font-size="8.00" fill="#000000">wasQuotedFrom</text>
</g>
<!-- node1cj6acqs0x28&#45;&gt;node1cj6acqs0x29 -->
<g id="edge39" class="edge">
<title>node1cj6acqs0x28&#45;&gt;node1cj6acqs0x29</title>
<path fill="none" stroke="#000088" d="M80.5,-523.1497C80.5,-509.4864 80.5,-490.7445 80.5,-474.2303"/>
<polygon fill="#000088" stroke="#000088" points="80.5,-463.7756 85.0001,-473.7755 80.5,-468.7756 80.5001,-473.7756 80.5001,-473.7756 80.5001,-473.7756 80.5,-468.7756 76.0001,-473.7756 80.5,-463.7756 80.5,-463.7756"/>
<text text-anchor="middle" x="107.5" y="-491.6" font-family="Times,serif" font-size="8.00" fill="#000000">wasQuotedFrom</text>
</g>
<!-- node1cj6acqs0x30&#45;&gt;node1cj6acqs0x41 -->
<g id="edge42" class="edge">
<title>node1cj6acqs0x30&#45;&gt;node1cj6acqs0x41</title>
<path fill="none" stroke="#000088" d="M2186.8047,-524.476C2240.2735,-510.9045 2314.3039,-491.2315 2378.5,-471 2390.5155,-467.2133 2403.2752,-462.8402 2415.3909,-458.5177"/>
<polygon fill="#000088" stroke="#000088" points="2424.9428,-455.0743 2417.0616,-462.699 2420.2391,-456.77 2415.5355,-458.4657 2415.5355,-458.4657 2415.5355,-458.4657 2420.2391,-456.77 2414.0093,-454.2324 2424.9428,-455.0743 2424.9428,-455.0743"/>
<text text-anchor="middle" x="2342.5" y="-491.6" font-family="Times,serif" font-size="8.00" fill="#000000">lmfhasMWEEdge</text>
</g>
<!-- node1cj6acqs0x31 -->
<g id="node41" class="node">
<title>node1cj6acqs0x31</title>
<path fill="none" stroke="#000000" d="M2004.5,-455C2004.5,-455 1870.5,-455 1870.5,-455 1864.5,-455 1858.5,-449 1858.5,-443 1858.5,-443 1858.5,-431 1858.5,-431 1858.5,-425 1864.5,-419 1870.5,-419 1870.5,-419 2004.5,-419 2004.5,-419 2010.5,-419 2016.5,-425 2016.5,-431 2016.5,-431 2016.5,-443 2016.5,-443 2016.5,-449 2010.5,-455 2004.5,-455"/>
<polygon fill="#add8e6" stroke="transparent" points="1866.5,-429 1866.5,-444 2008.5,-444 2008.5,-429 1866.5,-429"/>
<text text-anchor="start" x="1868.5" y="-435" font-family="Times,serif" font-style="italic" font-size="10.00" fill="#000000">node1cj6acqs0x31:lmfMWEEdge</text>
</g>
<!-- node1cj6acqs0x30&#45;&gt;node1cj6acqs0x31 -->
<g id="edge40" class="edge">
<title>node1cj6acqs0x30&#45;&gt;node1cj6acqs0x31</title>
<path fill="none" stroke="#000088" d="M2083.2445,-524.3639C2053.6882,-506.6469 2008.572,-479.6028 1976.3709,-460.3004"/>
<polygon fill="#000088" stroke="#000088" points="1967.6546,-455.0757 1978.5454,-456.3574 1971.9432,-457.6464 1976.2317,-460.2171 1976.2317,-460.2171 1976.2317,-460.2171 1971.9432,-457.6464 1973.9181,-464.0768 1967.6546,-455.0757 1967.6546,-455.0757"/>
<text text-anchor="middle" x="2065.5" y="-491.6" font-family="Times,serif" font-size="8.00" fill="#000000">lmfhasMWEEdge</text>
</g>
<!-- node1cj6acqs0x33 -->
<g id="node43" class="node">
<title>node1cj6acqs0x33</title>
<path fill="none" stroke="#000000" d="M2180.5,-455C2180.5,-455 2046.5,-455 2046.5,-455 2040.5,-455 2034.5,-449 2034.5,-443 2034.5,-443 2034.5,-431 2034.5,-431 2034.5,-425 2040.5,-419 2046.5,-419 2046.5,-419 2180.5,-419 2180.5,-419 2186.5,-419 2192.5,-425 2192.5,-431 2192.5,-431 2192.5,-443 2192.5,-443 2192.5,-449 2186.5,-455 2180.5,-455"/>
<polygon fill="#add8e6" stroke="transparent" points="2042.5,-429 2042.5,-444 2184.5,-444 2184.5,-429 2042.5,-429"/>
<text text-anchor="start" x="2044.5" y="-435" font-family="Times,serif" font-style="italic" font-size="10.00" fill="#000000">node1cj6acqs0x33:lmfMWEEdge</text>
</g>
<!-- node1cj6acqs0x30&#45;&gt;node1cj6acqs0x33 -->
<g id="edge41" class="edge">
<title>node1cj6acqs0x30&#45;&gt;node1cj6acqs0x33</title>
<path fill="none" stroke="#000088" d="M2113.5,-524.1233C2113.5,-507.8607 2113.5,-483.8778 2113.5,-465.1896"/>
<polygon fill="#000088" stroke="#000088" points="2113.5,-455.1661 2118.0001,-465.1661 2113.5,-460.1661 2113.5001,-465.1661 2113.5001,-465.1661 2113.5001,-465.1661 2113.5,-460.1661 2109.0001,-465.1662 2113.5,-455.1661 2113.5,-455.1661"/>
<text text-anchor="middle" x="2142.5" y="-491.6" font-family="Times,serif" font-size="8.00" fill="#000000">lmfhasMWEEdge</text>
</g>
<!-- node1cj6acqs0x49 -->
<g id="node47" class="node">
<title>node1cj6acqs0x49</title>
<path fill="none" stroke="#000000" d="M2357.5,-455C2357.5,-455 2223.5,-455 2223.5,-455 2217.5,-455 2211.5,-449 2211.5,-443 2211.5,-443 2211.5,-431 2211.5,-431 2211.5,-425 2217.5,-419 2223.5,-419 2223.5,-419 2357.5,-419 2357.5,-419 2363.5,-419 2369.5,-425 2369.5,-431 2369.5,-431 2369.5,-443 2369.5,-443 2369.5,-449 2363.5,-455 2357.5,-455"/>
<polygon fill="#add8e6" stroke="transparent" points="2219.5,-429 2219.5,-444 2361.5,-444 2361.5,-429 2219.5,-429"/>
<text text-anchor="start" x="2221.5" y="-435" font-family="Times,serif" font-style="italic" font-size="10.00" fill="#000000">node1cj6acqs0x49:lmfMWEEdge</text>
</g>
<!-- node1cj6acqs0x30&#45;&gt;node1cj6acqs0x49 -->
<g id="edge43" class="edge">
<title>node1cj6acqs0x30&#45;&gt;node1cj6acqs0x49</title>
<path fill="none" stroke="#000088" d="M2143.9274,-524.3639C2173.6517,-506.6469 2219.0242,-479.6028 2251.4083,-460.3004"/>
<polygon fill="#000088" stroke="#000088" points="2260.174,-455.0757 2253.8881,-464.0611 2255.8791,-457.6357 2251.5841,-460.1957 2251.5841,-460.1957 2251.5841,-460.1957 2255.8791,-457.6357 2249.2801,-456.3302 2260.174,-455.0757 2260.174,-455.0757"/>
<text text-anchor="middle" x="2231.5" y="-491.6" font-family="Times,serif" font-size="8.00" fill="#000000">lmfhasMWEEdge</text>
</g>
<!-- node1cj6acqs0x32 -->
<g id="node42" class="node">
<title>node1cj6acqs0x32</title>
<path fill="none" stroke="#000000" d="M1998.5,-358C1998.5,-358 1862.5,-358 1862.5,-358 1856.5,-358 1850.5,-352 1850.5,-346 1850.5,-346 1850.5,-334 1850.5,-334 1850.5,-328 1856.5,-322 1862.5,-322 1862.5,-322 1998.5,-322 1998.5,-322 2004.5,-322 2010.5,-328 2010.5,-334 2010.5,-334 2010.5,-346 2010.5,-346 2010.5,-352 2004.5,-358 1998.5,-358"/>
<polygon fill="#add8e6" stroke="transparent" points="1858.5,-332 1858.5,-347 2002.5,-347 2002.5,-332 1858.5,-332"/>
<text text-anchor="start" x="1861" y="-338" font-family="Times,serif" font-style="italic" font-size="10.00" fill="#000000">node1cj6acqs0x32:lmfMWENode</text>
</g>
<!-- node1cj6acqs0x31&#45;&gt;node1cj6acqs0x32 -->
<g id="edge44" class="edge">
<title>node1cj6acqs0x31&#45;&gt;node1cj6acqs0x32</title>
<path fill="none" stroke="#000088" d="M1936.1834,-418.755C1935.1567,-404.5291 1933.7129,-384.521 1932.5374,-368.2321"/>
<polygon fill="#000088" stroke="#000088" points="1931.8107,-358.1631 1937.0189,-367.8133 1932.1707,-363.1502 1932.5306,-368.1372 1932.5306,-368.1372 1932.5306,-368.1372 1932.1707,-363.1502 1928.0423,-368.4612 1931.8107,-358.1631 1931.8107,-358.1631"/>
<text text-anchor="middle" x="1964" y="-378.6" font-family="Times,serif" font-size="8.00" fill="#000000">lmfhasMWENode</text>
</g>
<!-- node1cj6acqs0x34 -->
<g id="node44" class="node">
<title>node1cj6acqs0x34</title>
<path fill="none" stroke="#000000" d="M2176.5,-358C2176.5,-358 2040.5,-358 2040.5,-358 2034.5,-358 2028.5,-352 2028.5,-346 2028.5,-346 2028.5,-334 2028.5,-334 2028.5,-328 2034.5,-322 2040.5,-322 2040.5,-322 2176.5,-322 2176.5,-322 2182.5,-322 2188.5,-328 2188.5,-334 2188.5,-334 2188.5,-346 2188.5,-346 2188.5,-352 2182.5,-358 2176.5,-358"/>
<polygon fill="#add8e6" stroke="transparent" points="2036.5,-332 2036.5,-347 2180.5,-347 2180.5,-332 2036.5,-332"/>
<text text-anchor="start" x="2039" y="-338" font-family="Times,serif" font-style="italic" font-size="10.00" fill="#000000">node1cj6acqs0x34:lmfMWENode</text>
</g>
<!-- node1cj6acqs0x33&#45;&gt;node1cj6acqs0x34 -->
<g id="edge45" class="edge">
<title>node1cj6acqs0x33&#45;&gt;node1cj6acqs0x34</title>
<path fill="none" stroke="#000088" d="M2112.5595,-418.755C2111.8262,-404.5291 2110.7949,-384.521 2109.9553,-368.2321"/>
<polygon fill="#000088" stroke="#000088" points="2109.4362,-358.1631 2114.4452,-367.9182 2109.6937,-363.1565 2109.9511,-368.1499 2109.9511,-368.1499 2109.9511,-368.1499 2109.6937,-363.1565 2105.4571,-368.3816 2109.4362,-358.1631 2109.4362,-358.1631"/>
<text text-anchor="middle" x="2141" y="-378.6" font-family="Times,serif" font-size="8.00" fill="#000000">lmfhasMWENode</text>
</g>
<!-- node1cj6acqs0x34&#45;&gt;node1cj6acqs0x35 -->
<g id="edge46" class="edge">
<title>node1cj6acqs0x34&#45;&gt;node1cj6acqs0x35</title>
<path fill="none" stroke="#000088" d="M2077.2237,-321.9616C2067.3741,-316.2483 2056.4665,-309.8874 2046.5,-304 2021.339,-289.137 1993.193,-272.2276 1971.1632,-258.9279"/>
<polygon fill="#000088" stroke="#000088" points="1962.4296,-253.6511 1973.3158,-254.9709 1966.7092,-256.2368 1970.9887,-258.8225 1970.9887,-258.8225 1970.9887,-258.8225 1966.7092,-256.2368 1968.6615,-262.6741 1962.4296,-253.6511 1962.4296,-253.6511"/>
<text text-anchor="middle" x="2075.5" y="-297.6" font-family="Times,serif" font-size="8.00" fill="#000000">lmfhasMWEEdge</text>
</g>
<!-- node1cj6acqs0x38 -->
<g id="node45" class="node">
<title>node1cj6acqs0x38</title>
<path fill="none" stroke="#000000" d="M2175.5,-253.5C2175.5,-253.5 2041.5,-253.5 2041.5,-253.5 2035.5,-253.5 2029.5,-247.5 2029.5,-241.5 2029.5,-241.5 2029.5,-229.5 2029.5,-229.5 2029.5,-223.5 2035.5,-217.5 2041.5,-217.5 2041.5,-217.5 2175.5,-217.5 2175.5,-217.5 2181.5,-217.5 2187.5,-223.5 2187.5,-229.5 2187.5,-229.5 2187.5,-241.5 2187.5,-241.5 2187.5,-247.5 2181.5,-253.5 2175.5,-253.5"/>
<polygon fill="#add8e6" stroke="transparent" points="2037.5,-227.5 2037.5,-242.5 2179.5,-242.5 2179.5,-227.5 2037.5,-227.5"/>
<text text-anchor="start" x="2039.5" y="-233.5" font-family="Times,serif" font-style="italic" font-size="10.00" fill="#000000">node1cj6acqs0x38:lmfMWEEdge</text>
</g>
<!-- node1cj6acqs0x34&#45;&gt;node1cj6acqs0x38 -->
<g id="edge47" class="edge">
<title>node1cj6acqs0x34&#45;&gt;node1cj6acqs0x38</title>
<path fill="none" stroke="#000088" d="M2108.5,-321.7975C2108.5,-305.8617 2108.5,-282.442 2108.5,-264.0195"/>
<polygon fill="#000088" stroke="#000088" points="2108.5,-253.8445 2113.0001,-263.8445 2108.5,-258.8445 2108.5001,-263.8445 2108.5001,-263.8445 2108.5001,-263.8445 2108.5,-258.8445 2104.0001,-263.8446 2108.5,-253.8445 2108.5,-253.8445"/>
<text text-anchor="middle" x="2137.5" y="-297.6" font-family="Times,serif" font-size="8.00" fill="#000000">lmfhasMWEEdge</text>
</g>
<!-- node1cj6acqs0x39 -->
<g id="node46" class="node">
<title>node1cj6acqs0x39</title>
<path fill="none" stroke="#000000" d="M2177.5,-149C2177.5,-149 2041.5,-149 2041.5,-149 2035.5,-149 2029.5,-143 2029.5,-137 2029.5,-137 2029.5,-125 2029.5,-125 2029.5,-119 2035.5,-113 2041.5,-113 2041.5,-113 2177.5,-113 2177.5,-113 2183.5,-113 2189.5,-119 2189.5,-125 2189.5,-125 2189.5,-137 2189.5,-137 2189.5,-143 2183.5,-149 2177.5,-149"/>
<polygon fill="#add8e6" stroke="transparent" points="2037.5,-123 2037.5,-138 2181.5,-138 2181.5,-123 2037.5,-123"/>
<text text-anchor="start" x="2040" y="-129" font-family="Times,serif" font-style="italic" font-size="10.00" fill="#000000">node1cj6acqs0x39:lmfMWENode</text>
</g>
<!-- node1cj6acqs0x38&#45;&gt;node1cj6acqs0x39 -->
<g id="edge48" class="edge">
<title>node1cj6acqs0x38&#45;&gt;node1cj6acqs0x39</title>
<path fill="none" stroke="#000088" d="M2108.6742,-217.2975C2108.8267,-201.3617 2109.0508,-177.942 2109.2271,-159.5195"/>
<polygon fill="#000088" stroke="#000088" points="2109.3245,-149.3445 2113.7285,-159.3872 2109.2766,-154.3443 2109.2287,-159.3441 2109.2287,-159.3441 2109.2287,-159.3441 2109.2766,-154.3443 2104.7289,-159.301 2109.3245,-149.3445 2109.3245,-149.3445"/>
<text text-anchor="middle" x="2139" y="-169.6" font-family="Times,serif" font-size="8.00" fill="#000000">lmfhasMWENode</text>
</g>
<!-- node1cj6acqs0x39&#45;&gt;node1cj6acqs0x40 -->
<g id="edge49" class="edge">
<title>node1cj6acqs0x39&#45;&gt;node1cj6acqs0x40</title>
<path fill="none" stroke="#000088" d="M2109.5,-112.755C2109.5,-102.9796 2109.5,-90.4738 2109.5,-78.3206"/>
<polygon fill="#000088" stroke="#000088" points="2109.5,-68.2625 2114.0001,-78.2625 2109.5,-73.2625 2109.5001,-78.2625 2109.5001,-78.2625 2109.5001,-78.2625 2109.5,-73.2625 2105.0001,-78.2626 2109.5,-68.2625 2109.5,-68.2625"/>
<text text-anchor="middle" x="2131.5" y="-88.6" font-family="Times,serif" font-size="8.00" fill="#000000">lmfMWELex</text>
</g>
<!-- node1cj6acqs0x50 -->
<g id="node48" class="node">
<title>node1cj6acqs0x50</title>
<path fill="none" stroke="#000000" d="M2359.5,-358C2359.5,-358 2223.5,-358 2223.5,-358 2217.5,-358 2211.5,-352 2211.5,-346 2211.5,-346 2211.5,-334 2211.5,-334 2211.5,-328 2217.5,-322 2223.5,-322 2223.5,-322 2359.5,-322 2359.5,-322 2365.5,-322 2371.5,-328 2371.5,-334 2371.5,-334 2371.5,-346 2371.5,-346 2371.5,-352 2365.5,-358 2359.5,-358"/>
<polygon fill="#add8e6" stroke="transparent" points="2219.5,-332 2219.5,-347 2363.5,-347 2363.5,-332 2219.5,-332"/>
<text text-anchor="start" x="2222" y="-338" font-family="Times,serif" font-style="italic" font-size="10.00" fill="#000000">node1cj6acqs0x50:lmfMWENode</text>
</g>
<!-- node1cj6acqs0x49&#45;&gt;node1cj6acqs0x50 -->
<g id="edge50" class="edge">
<title>node1cj6acqs0x49&#45;&gt;node1cj6acqs0x50</title>
<path fill="none" stroke="#000088" d="M2290.6881,-418.755C2290.8348,-404.5291 2291.041,-384.521 2291.2089,-368.2321"/>
<polygon fill="#000088" stroke="#000088" points="2291.3128,-358.1631 2295.7093,-368.209 2291.2612,-363.1629 2291.2096,-368.1626 2291.2096,-368.1626 2291.2096,-368.1626 2291.2612,-363.1629 2286.7098,-368.1162 2291.3128,-358.1631 2291.3128,-358.1631"/>
<text text-anchor="middle" x="2321" y="-378.6" font-family="Times,serif" font-size="8.00" fill="#000000">lmfhasMWENode</text>
</g>
<!-- node1cj6acqs0x51 -->
<g id="node49" class="node">
<title>node1cj6acqs0x51</title>
<path fill="none" stroke="#000000" d="M2369.5,-277C2369.5,-277 2217.5,-277 2217.5,-277 2211.5,-277 2205.5,-271 2205.5,-265 2205.5,-265 2205.5,-206 2205.5,-206 2205.5,-200 2211.5,-194 2217.5,-194 2217.5,-194 2369.5,-194 2369.5,-194 2375.5,-194 2381.5,-200 2381.5,-206 2381.5,-206 2381.5,-265 2381.5,-265 2381.5,-271 2375.5,-277 2369.5,-277"/>
<polygon fill="#add8e6" stroke="transparent" points="2213.5,-257.5 2213.5,-272.5 2373.5,-272.5 2373.5,-257.5 2213.5,-257.5"/>
<text text-anchor="start" x="2242.5" y="-263.5" font-family="Times,serif" font-style="italic" font-size="10.00" fill="#000000">node1cj6acqs0x51:UNK</text>
<text text-anchor="start" x="2220" y="-247.5" font-family="Times,serif" font-size="10.00" fill="#000000"> &#160;&#160;&#160;&#160;&#160;&#160;&#160;componentRank &#160;&#160;&#160;&#160;&#160;</text>
<text text-anchor="start" x="2347" y="-247.5" font-family="Times,serif" font-size="10.00" fill="#000000">5</text>
<text text-anchor="start" x="2215.5" y="-232.5" font-family="Times,serif" font-size="10.00" fill="#000000"> &#160;&#160;&#160;&#160;&#160;&#160;&#160;graphicalSeparator &#160;&#160;&#160;&#160;&#160;</text>
<text text-anchor="start" x="2338.5" y="-232.5" font-family="Times,serif" font-size="10.00" fill="#000000">space</text>
<text text-anchor="start" x="2225.5" y="-217.5" font-family="Times,serif" font-size="10.00" fill="#000000"> &#160;&#160;&#160;&#160;&#160;&#160;&#160;lmfhasLemma &#160;&#160;&#160;&#160;&#160;</text>
<text text-anchor="start" x="2328.5" y="-217.5" font-family="Times,serif" font-size="10.00" fill="#000000">aanbinden</text>
<text text-anchor="start" x="2215.5" y="-202.5" font-family="Times,serif" font-size="10.00" fill="#000000"> &#160;&#160;&#160;&#160;&#160;&#160;&#160;lexinfoproposition &#160;&#160;&#160;&#160;&#160;</text>
<text text-anchor="start" x="2342.5" y="-202.5" font-family="Times,serif" font-size="10.00" fill="#000000">aan</text>
</g>
<!-- node1cj6acqs0x50&#45;&gt;node1cj6acqs0x51 -->
<g id="edge51" class="edge">
<title>node1cj6acqs0x50&#45;&gt;node1cj6acqs0x51</title>
<path fill="none" stroke="#000088" d="M2291.8484,-321.7975C2292.032,-312.2037 2292.2675,-299.8974 2292.5028,-287.602"/>
<polygon fill="#000088" stroke="#000088" points="2292.6993,-277.3362 2297.007,-287.4206 2292.6036,-282.3353 2292.5079,-287.3344 2292.5079,-287.3344 2292.5079,-287.3344 2292.6036,-282.3353 2288.0087,-287.2483 2292.6993,-277.3362 2292.6993,-277.3362"/>
<text text-anchor="middle" x="2314.5" y="-297.6" font-family="Times,serif" font-size="8.00" fill="#000000">lmfMWELex</text>
</g>
</g>
</svg>
