<svg width="1344pt" height="490pt"
 viewBox="0.00 0.00 1343.50 490.00" xmlns="http://www.w3.org/2000/svg" xmlns:xlink="http://www.w3.org/1999/xlink">
<g id="graph0" class="graph" transform="scale(1 1) rotate(0) translate(4 486)">
<title>G</title>
<polygon fill="#ffffff" stroke="transparent" points="-4,4 -4,-486 1339.5,-486 1339.5,4 -4,4"/>
<!-- celexwform147510 -->
<g id="node1" class="node">
<title>celexwform147510</title>
<path fill="none" stroke="#000000" d="M370,-399C370,-399 200,-399 200,-399 194,-399 188,-393 188,-387 188,-387 188,-343 188,-343 188,-337 194,-331 200,-331 200,-331 370,-331 370,-331 376,-331 382,-337 382,-343 382,-343 382,-387 382,-387 382,-393 376,-399 370,-399"/>
<polygon fill="#add8e6" stroke="transparent" points="196,-380 196,-395 374,-395 374,-380 196,-380"/>
<text text-anchor="start" x="212" y="-386" font-family="Times,serif" font-style="italic" font-size="10.00" fill="#000000">celex_wform_147510:ontolexForm</text>
<text text-anchor="start" x="201.5" y="-370" font-family="Times,serif" font-size="10.00" fill="#000000"> &#160;&#160;&#160;&#160;&#160;&#160;&#160;ontolexwrittenRep &#160;&#160;&#160;&#160;&#160;</text>
<text text-anchor="start" x="321" y="-370" font-family="Times,serif" font-size="10.00" fill="#000000">kattekwaad</text>
<text text-anchor="start" x="218" y="-355" font-family="Times,serif" font-size="10.00" fill="#000000"> &#160;&#160;&#160;&#160;&#160;&#160;&#160;syllabified &#160;&#160;&#160;&#160;&#160;</text>
<text text-anchor="start" x="318" y="-355" font-family="Times,serif" font-size="10.00" fill="#000000">kat&#45;te&#45;kwaad</text>
<text text-anchor="start" x="198" y="-340" font-family="Times,serif" font-size="10.00" fill="#000000"> &#160;&#160;&#160;&#160;&#160;&#160;&#160;ontolexphoneticRep &#160;&#160;&#160;&#160;&#160;</text>
<text text-anchor="start" x="319" y="-340" font-family="Times,serif" font-size="10.00" fill="#000000">ˌkɑ&#45;tə&#45;kwaːt</text>
</g>
<!-- lexinfosingular -->
<g id="node2" class="node">
<title>lexinfosingular</title>
<path fill="none" stroke="#000000" d="M98,-36C98,-36 12,-36 12,-36 6,-36 0,-30 0,-24 0,-24 0,-12 0,-12 0,-6 6,0 12,0 12,0 98,0 98,0 104,0 110,-6 110,-12 110,-12 110,-24 110,-24 110,-30 104,-36 98,-36"/>
<polygon fill="#add8e6" stroke="transparent" points="8,-10 8,-25 102,-25 102,-10 8,-10"/>
<text text-anchor="start" x="10.5" y="-16" font-family="Times,serif" font-style="italic" font-size="10.00" fill="#000000">lexinfosingular:Class</text>
</g>
<!-- celexwform147510&#45;&gt;lexinfosingular -->
<g id="edge1" class="edge">
<title>celexwform147510&#45;&gt;lexinfosingular</title>
<path fill="none" stroke="#000088" d="M206.1893,-330.8947C154.9751,-304.1433 92.1409,-261.589 61,-203 34.393,-152.9412 41.6074,-84.0218 48.6646,-46.0083"/>
<polygon fill="#000088" stroke="#000088" points="50.6226,-36.1474 53.0887,-46.8324 49.6488,-41.0517 48.6749,-45.9559 48.6749,-45.9559 48.6749,-45.9559 49.6488,-41.0517 44.2611,-45.0794 50.6226,-36.1474 50.6226,-36.1474"/>
<text text-anchor="middle" x="84.5" y="-183.1" font-family="Times,serif" font-size="8.00" fill="#000000">lexinfonumber</text>
</g>
<!-- celexcomp92555 -->
<g id="node3" class="node">
<title>celexcomp92555</title>
<path fill="none" stroke="#000000" d="M720,-383C720,-383 592,-383 592,-383 586,-383 580,-377 580,-371 580,-371 580,-359 580,-359 580,-353 586,-347 592,-347 592,-347 720,-347 720,-347 726,-347 732,-353 732,-359 732,-359 732,-371 732,-371 732,-377 726,-383 720,-383"/>
<polygon fill="#add8e6" stroke="transparent" points="588,-357 588,-372 724,-372 724,-357 588,-357"/>
<text text-anchor="start" x="590" y="-363" font-family="Times,serif" font-style="italic" font-size="10.00" fill="#000000">celex_comp_92555:Component</text>
</g>
<!-- celexlemma54132 -->
<g id="node4" class="node">
<title>celexlemma54132</title>
<path fill="none" stroke="#000000" d="M672,-259C672,-259 504,-259 504,-259 498,-259 492,-253 492,-247 492,-247 492,-233 492,-233 492,-227 498,-221 504,-221 504,-221 672,-221 672,-221 678,-221 684,-227 684,-233 684,-233 684,-247 684,-247 684,-253 678,-259 672,-259"/>
<polygon fill="#add8e6" stroke="transparent" points="500,-240 500,-255 676,-255 676,-240 500,-240"/>
<text text-anchor="start" x="502" y="-246" font-family="Times,serif" font-style="italic" font-size="10.00" fill="#000000">celex_lemma_54132:ontolexLexicalEntry</text>
<text text-anchor="start" x="524" y="-230" font-family="Times,serif" font-size="10.00" fill="#000000"> &#160;&#160;&#160;&#160;&#160;&#160;&#160;label &#160;&#160;&#160;&#160;&#160;</text>
<text text-anchor="start" x="624" y="-230" font-family="Times,serif" font-size="10.00" fill="#000000">kwaad</text>
</g>
<!-- celexcomp92555&#45;&gt;celexlemma54132 -->
<g id="edge2" class="edge">
<title>celexcomp92555&#45;&gt;celexlemma54132</title>
<path fill="none" stroke="#000088" d="M646.1122,-346.8239C634.8608,-326.1411 616.3511,-292.1161 603.2482,-268.0298"/>
<polygon fill="#000088" stroke="#000088" points="598.3456,-259.0177 607.0773,-265.6516 600.735,-263.4099 603.1244,-267.8021 603.1244,-267.8021 603.1244,-267.8021 600.735,-263.4099 599.1714,-269.9525 598.3456,-259.0177 598.3456,-259.0177"/>
<text text-anchor="middle" x="650" y="-293.1" font-family="Times,serif" font-size="8.00" fill="#000000">correspondsTo</text>
</g>
<!-- celexwform165612 -->
<g id="node5" class="node">
<title>celexwform165612</title>
<path fill="none" stroke="#000000" d="M354,-149C354,-149 210,-149 210,-149 204,-149 198,-143 198,-137 198,-137 198,-93 198,-93 198,-87 204,-81 210,-81 210,-81 354,-81 354,-81 360,-81 366,-87 366,-93 366,-93 366,-137 366,-137 366,-143 360,-149 354,-149"/>
<polygon fill="#add8e6" stroke="transparent" points="206,-130 206,-145 358,-145 358,-130 206,-130"/>
<text text-anchor="start" x="209" y="-136" font-family="Times,serif" font-style="italic" font-size="10.00" fill="#000000">celex_wform_165612:ontolexForm</text>
<text text-anchor="start" x="211.5" y="-120" font-family="Times,serif" font-size="10.00" fill="#000000"> &#160;&#160;&#160;&#160;&#160;&#160;&#160;ontolexwrittenRep &#160;&#160;&#160;&#160;&#160;</text>
<text text-anchor="start" x="328" y="-120" font-family="Times,serif" font-size="10.00" fill="#000000">kwaad</text>
<text text-anchor="start" x="228" y="-105" font-family="Times,serif" font-size="10.00" fill="#000000"> &#160;&#160;&#160;&#160;&#160;&#160;&#160;syllabified &#160;&#160;&#160;&#160;&#160;</text>
<text text-anchor="start" x="328" y="-105" font-family="Times,serif" font-size="10.00" fill="#000000">kwaad</text>
<text text-anchor="start" x="208" y="-90" font-family="Times,serif" font-size="10.00" fill="#000000"> &#160;&#160;&#160;&#160;&#160;&#160;&#160;ontolexphoneticRep &#160;&#160;&#160;&#160;&#160;</text>
<text text-anchor="start" x="328.5" y="-90" font-family="Times,serif" font-size="10.00" fill="#000000">ˌkwaːt</text>
</g>
<!-- celexlemma54132&#45;&gt;celexwform165612 -->
<g id="edge3" class="edge">
<title>celexlemma54132&#45;&gt;celexwform165612</title>
<path fill="none" stroke="#000088" d="M491.8583,-223.7521C485.145,-222.7717 478.4757,-221.8427 472,-221 451.4104,-218.3205 300.3023,-218.0517 286,-203 275.1115,-191.5409 272.3633,-174.9899 272.9572,-159.3267"/>
<polygon fill="#000088" stroke="#000088" points="273.7781,-149.2243 277.4533,-159.556 273.3731,-154.2079 272.9681,-159.1915 272.9681,-159.1915 272.9681,-159.1915 273.3731,-154.2079 268.4829,-158.827 273.7781,-149.2243 273.7781,-149.2243"/>
<text text-anchor="middle" x="322" y="-183.1" font-family="Times,serif" font-size="8.00" fill="#000000">ontolexcanonicalForm</text>
</g>
<!-- celexlemma54132&#45;&gt;celexwform165612 -->
<g id="edge6" class="edge">
<title>celexlemma54132&#45;&gt;celexwform165612</title>
<path fill="none" stroke="#000088" d="M491.7655,-224.0591C448.13,-216.3682 404.1893,-207.7906 395,-203 374.6548,-192.3937 375.7554,-181.5315 358,-167 353.1285,-163.0131 347.9576,-159.0224 342.6947,-155.1235"/>
<polygon fill="#000088" stroke="#000088" points="334.3785,-149.0859 345.1145,-151.3194 338.4246,-152.0234 342.4707,-154.9609 342.4707,-154.9609 342.4707,-154.9609 338.4246,-152.0234 339.827,-158.6024 334.3785,-149.0859 334.3785,-149.0859"/>
<text text-anchor="middle" x="426.5" y="-183.1" font-family="Times,serif" font-size="8.00" fill="#000000">ontolexlexicalForm</text>
</g>
<!-- node1cj6aeecqx8 -->
<g id="node6" class="node">
<title>node1cj6aeecqx8</title>
<path fill="none" stroke="#000000" d="M822,-133C822,-133 728,-133 728,-133 722,-133 716,-127 716,-121 716,-121 716,-109 716,-109 716,-103 722,-97 728,-97 728,-97 822,-97 822,-97 828,-97 834,-103 834,-109 834,-109 834,-121 834,-121 834,-127 828,-133 822,-133"/>
<polygon fill="#add8e6" stroke="transparent" points="724,-107 724,-122 826,-122 826,-107 724,-107"/>
<text text-anchor="start" x="726.5" y="-113" font-family="Times,serif" font-style="italic" font-size="10.00" fill="#000000">node1cj6aeecqx8:UNK</text>
</g>
<!-- celexlemma54132&#45;&gt;node1cj6aeecqx8 -->
<g id="edge4" class="edge">
<title>celexlemma54132&#45;&gt;node1cj6aeecqx8</title>
<path fill="none" stroke="#000088" d="M633.7151,-220.9162C644.8887,-215.6254 656.6119,-209.5253 667,-203 696.602,-184.4055 727.2043,-158.7565 748.2414,-139.946"/>
<polygon fill="#000088" stroke="#000088" points="755.8137,-133.1005 751.4134,-143.1448 752.1047,-136.4535 748.3956,-139.8066 748.3956,-139.8066 748.3956,-139.8066 752.1047,-136.4535 745.3778,-136.4685 755.8137,-133.1005 755.8137,-133.1005"/>
<text text-anchor="middle" x="768" y="-183.1" font-family="Times,serif" font-size="8.00" fill="#000000">lexinfoMorphosyntacticProperty</text>
</g>
<!-- node1cj6aeecqx9 -->
<g id="node8" class="node">
<title>node1cj6aeecqx9</title>
<path fill="none" stroke="#000000" d="M490,-133C490,-133 396,-133 396,-133 390,-133 384,-127 384,-121 384,-121 384,-109 384,-109 384,-103 390,-97 396,-97 396,-97 490,-97 490,-97 496,-97 502,-103 502,-109 502,-109 502,-121 502,-121 502,-127 496,-133 490,-133"/>
<polygon fill="#add8e6" stroke="transparent" points="392,-107 392,-122 494,-122 494,-107 392,-107"/>
<text text-anchor="start" x="394.5" y="-113" font-family="Times,serif" font-style="italic" font-size="10.00" fill="#000000">node1cj6aeecqx9:UNK</text>
</g>
<!-- celexlemma54132&#45;&gt;node1cj6aeecqx9 -->
<g id="edge5" class="edge">
<title>celexlemma54132&#45;&gt;node1cj6aeecqx9</title>
<path fill="none" stroke="#000088" d="M514.9587,-220.9092C504.8444,-216.1623 495.1468,-210.2783 487,-203 469.1842,-187.0835 457.7019,-162.2917 450.9504,-143.0733"/>
<polygon fill="#000088" stroke="#000088" points="447.7593,-133.3353 455.1497,-141.4368 449.3164,-138.0867 450.8734,-142.8381 450.8734,-142.8381 450.8734,-142.8381 449.3164,-138.0867 446.5971,-144.2395 447.7593,-133.3353 447.7593,-133.3353"/>
<text text-anchor="middle" x="539" y="-183.1" font-family="Times,serif" font-size="8.00" fill="#000000">lexinfoMorphosyntacticProperty</text>
</g>
<!-- celexwform165714 -->
<g id="node10" class="node">
<title>celexwform165714</title>
<path fill="none" stroke="#000000" d="M685.5,-149C685.5,-149 532.5,-149 532.5,-149 526.5,-149 520.5,-143 520.5,-137 520.5,-137 520.5,-93 520.5,-93 520.5,-87 526.5,-81 532.5,-81 532.5,-81 685.5,-81 685.5,-81 691.5,-81 697.5,-87 697.5,-93 697.5,-93 697.5,-137 697.5,-137 697.5,-143 691.5,-149 685.5,-149"/>
<polygon fill="#add8e6" stroke="transparent" points="529,-130 529,-145 690,-145 690,-130 529,-130"/>
<text text-anchor="start" x="536.5" y="-136" font-family="Times,serif" font-style="italic" font-size="10.00" fill="#000000">celex_wform_165714:ontolexForm</text>
<text text-anchor="start" x="534.5" y="-120" font-family="Times,serif" font-size="10.00" fill="#000000"> &#160;&#160;&#160;&#160;&#160;&#160;&#160;ontolexwrittenRep &#160;&#160;&#160;&#160;&#160;</text>
<text text-anchor="start" x="653" y="-120" font-family="Times,serif" font-size="10.00" fill="#000000">kwaden</text>
<text text-anchor="start" x="551" y="-105" font-family="Times,serif" font-size="10.00" fill="#000000"> &#160;&#160;&#160;&#160;&#160;&#160;&#160;syllabified &#160;&#160;&#160;&#160;&#160;</text>
<text text-anchor="start" x="651.5" y="-105" font-family="Times,serif" font-size="10.00" fill="#000000">kwa&#45;den</text>
<text text-anchor="start" x="531" y="-90" font-family="Times,serif" font-size="10.00" fill="#000000"> &#160;&#160;&#160;&#160;&#160;&#160;&#160;ontolexphoneticRep &#160;&#160;&#160;&#160;&#160;</text>
<text text-anchor="start" x="651" y="-90" font-family="Times,serif" font-size="10.00" fill="#000000">ˌkwaː&#45;də</text>
</g>
<!-- celexlemma54132&#45;&gt;celexwform165714 -->
<g id="edge7" class="edge">
<title>celexlemma54132&#45;&gt;celexwform165714</title>
<path fill="none" stroke="#000088" d="M591.2352,-220.7427C593.9839,-204.3816 598.0353,-180.2659 601.5753,-159.1947"/>
<polygon fill="#000088" stroke="#000088" points="603.264,-149.1426 606.045,-159.75 602.4356,-154.0735 601.6072,-159.0044 601.6072,-159.0044 601.6072,-159.0044 602.4356,-154.0735 597.1694,-158.2588 603.264,-149.1426 603.264,-149.1426"/>
<text text-anchor="middle" x="631.5" y="-183.1" font-family="Times,serif" font-size="8.00" fill="#000000">ontolexlexicalForm</text>
</g>
<!-- celexwform165612&#45;&gt;lexinfosingular -->
<g id="edge8" class="edge">
<title>celexwform165612&#45;&gt;lexinfosingular</title>
<path fill="none" stroke="#000088" d="M202.2875,-80.9378C170.4948,-67.3524 134.8104,-52.104 106.529,-40.019"/>
<polygon fill="#000088" stroke="#000088" points="97.2381,-36.0489 108.202,-35.8403 101.8359,-38.0136 106.4337,-39.9783 106.4337,-39.9783 106.4337,-39.9783 101.8359,-38.0136 104.6655,-44.1164 97.2381,-36.0489 97.2381,-36.0489"/>
<text text-anchor="middle" x="178.5" y="-56.6" font-family="Times,serif" font-size="8.00" fill="#000000">lexinfonumber</text>
</g>
<!-- lexinfonoun -->
<g id="node7" class="node">
<title>lexinfonoun</title>
<path fill="none" stroke="#000000" d="M856,-36C856,-36 784,-36 784,-36 778,-36 772,-30 772,-24 772,-24 772,-12 772,-12 772,-6 778,0 784,0 784,0 856,0 856,0 862,0 868,-6 868,-12 868,-12 868,-24 868,-24 868,-30 862,-36 856,-36"/>
<polygon fill="#add8e6" stroke="transparent" points="780,-10 780,-25 860,-25 860,-10 780,-10"/>
<text text-anchor="start" x="782" y="-16" font-family="Times,serif" font-style="italic" font-size="10.00" fill="#000000">lexinfonoun:Class</text>
</g>
<!-- node1cj6aeecqx8&#45;&gt;lexinfonoun -->
<g id="edge9" class="edge">
<title>node1cj6aeecqx8&#45;&gt;lexinfonoun</title>
<path fill="none" stroke="#000088" d="M773.0824,-96.9877C772.521,-84.3242 773.3973,-67.3306 780,-54 781.8142,-50.3372 784.1766,-46.8749 786.8467,-43.6516"/>
<polygon fill="#000088" stroke="#000088" points="793.9813,-36.1533 790.3482,-46.4998 790.5347,-39.7756 787.0881,-43.3979 787.0881,-43.3979 787.0881,-43.3979 790.5347,-39.7756 783.828,-40.296 793.9813,-36.1533 793.9813,-36.1533"/>
<text text-anchor="middle" x="814" y="-56.6" font-family="Times,serif" font-size="8.00" fill="#000000">lexinfopartOfSpeech</text>
</g>
<!-- lexinfoneuter -->
<g id="node9" class="node">
<title>lexinfoneuter</title>
<path fill="none" stroke="#000000" d="M284,-36C284,-36 206,-36 206,-36 200,-36 194,-30 194,-24 194,-24 194,-12 194,-12 194,-6 200,0 206,0 206,0 284,0 284,0 290,0 296,-6 296,-12 296,-12 296,-24 296,-24 296,-30 290,-36 284,-36"/>
<polygon fill="#add8e6" stroke="transparent" points="202,-10 202,-25 288,-25 288,-10 202,-10"/>
<text text-anchor="start" x="204.5" y="-16" font-family="Times,serif" font-style="italic" font-size="10.00" fill="#000000">lexinfoneuter:Class</text>
</g>
<!-- node1cj6aeecqx9&#45;&gt;lexinfoneuter -->
<g id="edge10" class="edge">
<title>node1cj6aeecqx9&#45;&gt;lexinfoneuter</title>
<path fill="none" stroke="#000088" d="M407.045,-96.9186C396.7125,-91.7507 385.4209,-86.13 375,-81 347.4658,-67.4453 316.5516,-52.4546 291.7797,-40.4975"/>
<polygon fill="#000088" stroke="#000088" points="282.6062,-36.0728 293.5682,-36.3641 287.1097,-38.245 291.6132,-40.4173 291.6132,-40.4173 291.6132,-40.4173 287.1097,-38.245 289.6582,-44.4704 282.6062,-36.0728 282.6062,-36.0728"/>
<text text-anchor="middle" x="359.5" y="-56.6" font-family="Times,serif" font-size="8.00" fill="#000000">lexinfoGender</text>
</g>
<!-- lexinfoplural -->
<g id="node11" class="node">
<title>lexinfoplural</title>
<path fill="none" stroke="#000000" d="M647,-36C647,-36 571,-36 571,-36 565,-36 559,-30 559,-24 559,-24 559,-12 559,-12 559,-6 565,0 571,0 571,0 647,0 647,0 653,0 659,-6 659,-12 659,-12 659,-24 659,-24 659,-30 653,-36 647,-36"/>
<polygon fill="#add8e6" stroke="transparent" points="567,-10 567,-25 651,-25 651,-10 567,-10"/>
<text text-anchor="start" x="569" y="-16" font-family="Times,serif" font-style="italic" font-size="10.00" fill="#000000">lexinfoplural:Class</text>
</g>
<!-- celexwform165714&#45;&gt;lexinfoplural -->
<g id="edge11" class="edge">
<title>celexwform165714&#45;&gt;lexinfoplural</title>
<path fill="none" stroke="#000088" d="M609,-80.8014C609,-69.5107 609,-57.0843 609,-46.2861"/>
<polygon fill="#000088" stroke="#000088" points="609,-36.1329 613.5001,-46.1329 609,-41.1329 609.0001,-46.1329 609.0001,-46.1329 609.0001,-46.1329 609,-41.1329 604.5001,-46.133 609,-36.1329 609,-36.1329"/>
<text text-anchor="middle" x="632.5" y="-56.6" font-family="Times,serif" font-size="8.00" fill="#000000">lexinfonumber</text>
</g>
<!-- celexlemma47843 -->
<g id="node12" class="node">
<title>celexlemma47843</title>
<path fill="none" stroke="#000000" d="M821,-482C821,-482 653,-482 653,-482 647,-482 641,-476 641,-470 641,-470 641,-456 641,-456 641,-450 647,-444 653,-444 653,-444 821,-444 821,-444 827,-444 833,-450 833,-456 833,-456 833,-470 833,-470 833,-476 827,-482 821,-482"/>
<polygon fill="#add8e6" stroke="transparent" points="649,-463 649,-478 825,-478 825,-463 649,-463"/>
<text text-anchor="start" x="651" y="-469" font-family="Times,serif" font-style="italic" font-size="10.00" fill="#000000">celex_lemma_47843:ontolexLexicalEntry</text>
<text text-anchor="start" x="668" y="-453" font-family="Times,serif" font-size="10.00" fill="#000000"> &#160;&#160;&#160;&#160;&#160;&#160;&#160;label &#160;&#160;&#160;&#160;&#160;</text>
<text text-anchor="start" x="758" y="-453" font-family="Times,serif" font-size="10.00" fill="#000000">kattekwaad</text>
</g>
<!-- celexlemma47843&#45;&gt;celexwform147510 -->
<g id="edge12" class="edge">
<title>celexlemma47843&#45;&gt;celexwform147510</title>
<path fill="none" stroke="#000088" d="M640.9193,-461.8423C515.681,-459.3248 309.7303,-451.337 286,-426 281.7327,-421.4438 279.3773,-415.7523 278.2796,-409.6897"/>
<polygon fill="#000088" stroke="#000088" points="277.5042,-399.2715 282.7341,-408.9098 277.8754,-404.2577 278.2465,-409.2439 278.2465,-409.2439 278.2465,-409.2439 277.8754,-404.2577 273.7589,-409.5779 277.5042,-399.2715 277.5042,-399.2715"/>
<text text-anchor="middle" x="322" y="-419.6" font-family="Times,serif" font-size="8.00" fill="#000000">ontolexcanonicalForm</text>
</g>
<!-- celexlemma47843&#45;&gt;celexwform147510 -->
<g id="edge15" class="edge">
<title>celexlemma47843&#45;&gt;celexwform147510</title>
<path fill="none" stroke="#000088" d="M640.8154,-457.9762C552.1048,-452.4437 427.3636,-442.1302 381,-426 366.16,-420.8371 351.2706,-412.9904 337.7962,-404.6272"/>
<polygon fill="#000088" stroke="#000088" points="329.1607,-399.0797 340.0064,-400.6985 333.3675,-401.7822 337.5742,-404.4846 337.5742,-404.4846 337.5742,-404.4846 333.3675,-401.7822 335.142,-408.2707 329.1607,-399.0797 329.1607,-399.0797"/>
<text text-anchor="middle" x="412.5" y="-419.6" font-family="Times,serif" font-size="8.00" fill="#000000">ontolexlexicalForm</text>
</g>
<!-- celexlemma47843&#45;&gt;celexcomp92555 -->
<g id="edge20" class="edge">
<title>celexlemma47843&#45;&gt;celexcomp92555</title>
<path fill="none" stroke="#000088" d="M684.7231,-443.8954C677.1314,-439.0962 670.1538,-433.1994 665,-426 658.2947,-416.6332 655.6362,-404.3627 654.8073,-393.2848"/>
<polygon fill="#000088" stroke="#000088" points="654.5007,-383.1628 659.3015,-393.0219 654.6521,-388.1605 654.8036,-393.1582 654.8036,-393.1582 654.8036,-393.1582 654.6521,-388.1605 650.3056,-393.2945 654.5007,-383.1628 654.5007,-383.1628"/>
<text text-anchor="middle" x="682.5" y="-419.6" font-family="Times,serif" font-size="8.00" fill="#000000">constituent</text>
</g>
<!-- celexlemma47843&#45;&gt;celexcomp92555 -->
<g id="edge21" class="edge">
<title>celexlemma47843&#45;&gt;celexcomp92555</title>
<path fill="none" stroke="#000088" d="M721.6242,-443.6659C715.015,-435.4121 707.1747,-425.6962 700,-417 692.9279,-408.4281 685.1192,-399.1428 678.0675,-390.8227"/>
<polygon fill="#000088" stroke="#000088" points="671.5874,-383.1963 681.4918,-387.903 674.825,-387.0066 678.0626,-390.8169 678.0626,-390.8169 678.0626,-390.8169 674.825,-387.0066 674.6333,-393.7307 671.5874,-383.1963 671.5874,-383.1963"/>
<text text-anchor="middle" x="711" y="-419.6" font-family="Times,serif" font-size="8.00" fill="#000000">_3</text>
</g>
<!-- node1cj6aeecqx5 -->
<g id="node13" class="node">
<title>node1cj6aeecqx5</title>
<path fill="none" stroke="#000000" d="M858,-313C858,-313 764,-313 764,-313 758,-313 752,-307 752,-301 752,-301 752,-289 752,-289 752,-283 758,-277 764,-277 764,-277 858,-277 858,-277 864,-277 870,-283 870,-289 870,-289 870,-301 870,-301 870,-307 864,-313 858,-313"/>
<polygon fill="#add8e6" stroke="transparent" points="760,-287 760,-302 862,-302 862,-287 760,-287"/>
<text text-anchor="start" x="762.5" y="-293" font-family="Times,serif" font-style="italic" font-size="10.00" fill="#000000">node1cj6aeecqx5:UNK</text>
</g>
<!-- celexlemma47843&#45;&gt;node1cj6aeecqx5 -->
<g id="edge13" class="edge">
<title>celexlemma47843&#45;&gt;node1cj6aeecqx5</title>
<path fill="none" stroke="#000088" d="M745.3404,-443.74C748.9179,-435.4987 753.1517,-425.7721 757,-417 771.2306,-384.5617 787.7297,-347.342 798.7086,-322.6296"/>
<polygon fill="#000088" stroke="#000088" points="802.9118,-313.1726 802.9624,-324.1384 800.881,-317.7417 798.8503,-322.3107 798.8503,-322.3107 798.8503,-322.3107 800.881,-317.7417 794.7381,-320.483 802.9118,-313.1726 802.9118,-313.1726"/>
<text text-anchor="middle" x="809" y="-419.6" font-family="Times,serif" font-size="8.00" fill="#000000">lexinfoMorphosyntacticProperty</text>
</g>
<!-- node1cj6aeecqx6 -->
<g id="node14" class="node">
<title>node1cj6aeecqx6</title>
<path fill="none" stroke="#000000" d="M223,-203C223,-203 129,-203 129,-203 123,-203 117,-197 117,-191 117,-191 117,-179 117,-179 117,-173 123,-167 129,-167 129,-167 223,-167 223,-167 229,-167 235,-173 235,-179 235,-179 235,-191 235,-191 235,-197 229,-203 223,-203"/>
<polygon fill="#add8e6" stroke="transparent" points="125,-177 125,-192 227,-192 227,-177 125,-177"/>
<text text-anchor="start" x="127.5" y="-183" font-family="Times,serif" font-style="italic" font-size="10.00" fill="#000000">node1cj6aeecqx6:UNK</text>
</g>
<!-- celexlemma47843&#45;&gt;node1cj6aeecqx6 -->
<g id="edge14" class="edge">
<title>celexlemma47843&#45;&gt;node1cj6aeecqx6</title>
<path fill="none" stroke="#000088" d="M640.7768,-452.0425C587.3134,-443.1068 520.9095,-427.1564 467,-399 426.825,-378.017 426.7164,-358.9044 391,-331 331.4593,-284.4822 257.8143,-236.3483 213.996,-208.6183"/>
<polygon fill="#000088" stroke="#000088" points="205.3787,-203.1847 216.2377,-204.7119 209.6081,-205.8516 213.8376,-208.5184 213.8376,-208.5184 213.8376,-208.5184 209.6081,-205.8516 211.4374,-212.3249 205.3787,-203.1847 205.3787,-203.1847"/>
<text text-anchor="middle" x="519" y="-363.1" font-family="Times,serif" font-size="8.00" fill="#000000">lexinfoMorphosyntacticProperty</text>
</g>
<!-- celexcomp92553 -->
<g id="node15" class="node">
<title>celexcomp92553</title>
<path fill="none" stroke="#000000" d="M1003,-383C1003,-383 875,-383 875,-383 869,-383 863,-377 863,-371 863,-371 863,-359 863,-359 863,-353 869,-347 875,-347 875,-347 1003,-347 1003,-347 1009,-347 1015,-353 1015,-359 1015,-359 1015,-371 1015,-371 1015,-377 1009,-383 1003,-383"/>
<polygon fill="#add8e6" stroke="transparent" points="871,-357 871,-372 1007,-372 1007,-357 871,-357"/>
<text text-anchor="start" x="873" y="-363" font-family="Times,serif" font-style="italic" font-size="10.00" fill="#000000">celex_comp_92553:Component</text>
</g>
<!-- celexlemma47843&#45;&gt;celexcomp92553 -->
<g id="edge16" class="edge">
<title>celexlemma47843&#45;&gt;celexcomp92553</title>
<path fill="none" stroke="#000088" d="M821.2097,-443.9907C836.2196,-439.122 851.3941,-433.177 865,-426 882.8499,-416.5844 900.3862,-402.4098 913.9043,-390.0936"/>
<polygon fill="#000088" stroke="#000088" points="921.3712,-383.1068 917.1438,-393.2251 917.7202,-386.523 914.0692,-389.9393 914.0692,-389.9393 914.0692,-389.9393 917.7202,-386.523 910.9946,-386.6534 921.3712,-383.1068 921.3712,-383.1068"/>
<text text-anchor="middle" x="895.5" y="-419.6" font-family="Times,serif" font-size="8.00" fill="#000000">constituent</text>
</g>
<!-- celexlemma47843&#45;&gt;celexcomp92553 -->
<g id="edge17" class="edge">
<title>celexlemma47843&#45;&gt;celexcomp92553</title>
<path fill="none" stroke="#000088" d="M833.4032,-451.7512C868.9552,-445.8566 903.7958,-437.4345 917,-426 926.6102,-417.6778 932.0228,-404.8287 935.071,-393.0656"/>
<polygon fill="#000088" stroke="#000088" points="937.1873,-383.1489 939.5011,-393.8679 936.1437,-388.0388 935.1002,-392.9287 935.1002,-392.9287 935.1002,-392.9287 936.1437,-388.0388 930.6993,-391.9895 937.1873,-383.1489 937.1873,-383.1489"/>
<text text-anchor="middle" x="927" y="-419.6" font-family="Times,serif" font-size="8.00" fill="#000000">_1</text>
</g>
<!-- celexcomp92554 -->
<g id="node18" class="node">
<title>celexcomp92554</title>
<path fill="none" stroke="#000000" d="M1173,-383C1173,-383 1045,-383 1045,-383 1039,-383 1033,-377 1033,-371 1033,-371 1033,-359 1033,-359 1033,-353 1039,-347 1045,-347 1045,-347 1173,-347 1173,-347 1179,-347 1185,-353 1185,-359 1185,-359 1185,-371 1185,-371 1185,-377 1179,-383 1173,-383"/>
<polygon fill="#add8e6" stroke="transparent" points="1041,-357 1041,-372 1177,-372 1177,-357 1041,-357"/>
<text text-anchor="start" x="1043" y="-363" font-family="Times,serif" font-style="italic" font-size="10.00" fill="#000000">celex_comp_92554:Component</text>
</g>
<!-- celexlemma47843&#45;&gt;celexcomp92554 -->
<g id="edge18" class="edge">
<title>celexlemma47843&#45;&gt;celexcomp92554</title>
<path fill="none" stroke="#000088" d="M833.1277,-447.2283C865.6411,-441.3133 902.0484,-434.0513 935,-426 975.1545,-416.1888 984.9966,-412.6885 1024,-399 1034.5635,-395.2927 1045.7489,-391.0515 1056.4143,-386.8509"/>
<polygon fill="#000088" stroke="#000088" points="1066.0302,-383.021 1058.405,-390.9019 1061.385,-384.8711 1056.7399,-386.7213 1056.7399,-386.7213 1056.7399,-386.7213 1061.385,-384.8711 1055.0748,-382.5406 1066.0302,-383.021 1066.0302,-383.021"/>
<text text-anchor="middle" x="986.5" y="-419.6" font-family="Times,serif" font-size="8.00" fill="#000000">constituent</text>
</g>
<!-- celexlemma47843&#45;&gt;celexcomp92554 -->
<g id="edge19" class="edge">
<title>celexlemma47843&#45;&gt;celexcomp92554</title>
<path fill="none" stroke="#000088" d="M833.1623,-454.0217C897.7093,-447.2049 976.4899,-437.1289 1008,-426 1032.79,-417.2445 1058.1093,-401.936 1077.1962,-388.8458"/>
<polygon fill="#000088" stroke="#000088" points="1085.5031,-383.0189 1079.9005,-392.4456 1081.4097,-385.8902 1077.3163,-388.7615 1077.3163,-388.7615 1077.3163,-388.7615 1081.4097,-385.8902 1074.7321,-385.0775 1085.5031,-383.0189 1085.5031,-383.0189"/>
<text text-anchor="middle" x="1032" y="-419.6" font-family="Times,serif" font-size="8.00" fill="#000000">_2</text>
</g>
<!-- node1cj6aeecqx5&#45;&gt;lexinfonoun -->
<g id="edge22" class="edge">
<title>node1cj6aeecqx5&#45;&gt;lexinfonoun</title>
<path fill="none" stroke="#000088" d="M815.9797,-276.7293C823.2471,-249.2469 836.5893,-195.528 843,-149 848.2259,-111.0716 846.8884,-101.2706 848,-63 848.1161,-59.0017 849.2981,-57.7835 848,-54 846.8605,-50.679 845.2757,-47.4283 843.4339,-44.3232"/>
<polygon fill="#000088" stroke="#000088" points="837.7198,-36.0206 847.0962,-41.707 840.5545,-40.1394 843.3892,-44.2582 843.3892,-44.2582 843.3892,-44.2582 840.5545,-40.1394 839.6823,-46.8095 837.7198,-36.0206 837.7198,-36.0206"/>
<text text-anchor="middle" x="874" y="-183.1" font-family="Times,serif" font-size="8.00" fill="#000000">lexinfopartOfSpeech</text>
</g>
<!-- node1cj6aeecqx6&#45;&gt;lexinfoneuter -->
<g id="edge23" class="edge">
<title>node1cj6aeecqx6&#45;&gt;lexinfoneuter</title>
<path fill="none" stroke="#000088" d="M153.84,-166.7933C149.0288,-161.5984 144.6044,-155.5507 142,-149 130.8344,-120.916 127.2218,-107.3626 142,-81 151.7323,-63.6388 168.4143,-50.4895 185.5519,-40.816"/>
<polygon fill="#000088" stroke="#000088" points="194.521,-36.0703 187.7866,-44.7247 190.1015,-38.4088 185.682,-40.7472 185.682,-40.7472 185.682,-40.7472 190.1015,-38.4088 183.5774,-36.7697 194.521,-36.0703 194.521,-36.0703"/>
<text text-anchor="middle" x="165.5" y="-113.1" font-family="Times,serif" font-size="8.00" fill="#000000">lexinfoGender</text>
</g>
<!-- lexinfoNoun -->
<g id="node16" class="node">
<title>lexinfoNoun</title>
<path fill="none" stroke="#000000" d="M976,-258C976,-258 902,-258 902,-258 896,-258 890,-252 890,-246 890,-246 890,-234 890,-234 890,-228 896,-222 902,-222 902,-222 976,-222 976,-222 982,-222 988,-228 988,-234 988,-234 988,-246 988,-246 988,-252 982,-258 976,-258"/>
<polygon fill="#add8e6" stroke="transparent" points="898,-232 898,-247 980,-247 980,-232 898,-232"/>
<text text-anchor="start" x="900.5" y="-238" font-family="Times,serif" font-style="italic" font-size="10.00" fill="#000000">lexinfoNoun:Class</text>
</g>
<!-- celexcomp92553&#45;&gt;lexinfoNoun -->
<g id="edge24" class="edge">
<title>celexcomp92553&#45;&gt;lexinfoNoun</title>
<path fill="none" stroke="#000088" d="M939,-346.8239C939,-326.2723 939,-292.5472 939,-268.4893"/>
<polygon fill="#000088" stroke="#000088" points="939,-258.198 943.5001,-268.198 939,-263.198 939.0001,-268.198 939.0001,-268.198 939.0001,-268.198 939,-263.198 934.5001,-268.1981 939,-258.198 939,-258.198"/>
<text text-anchor="middle" x="973" y="-293.1" font-family="Times,serif" font-size="8.00" fill="#000000">lexinfopartOfSpeech</text>
</g>
<!-- node1cj6aeecqx7 -->
<g id="node17" class="node">
<title>node1cj6aeecqx7</title>
<path fill="none" stroke="#000000" d="M1140,-259C1140,-259 1018,-259 1018,-259 1012,-259 1006,-253 1006,-247 1006,-247 1006,-233 1006,-233 1006,-227 1012,-221 1018,-221 1018,-221 1140,-221 1140,-221 1146,-221 1152,-227 1152,-233 1152,-233 1152,-247 1152,-247 1152,-253 1146,-259 1140,-259"/>
<polygon fill="#add8e6" stroke="transparent" points="1014,-240 1014,-255 1144,-255 1144,-240 1014,-240"/>
<text text-anchor="start" x="1030.5" y="-246" font-family="Times,serif" font-style="italic" font-size="10.00" fill="#000000">node1cj6aeecqx7:UNK</text>
<text text-anchor="start" x="1016" y="-230" font-family="Times,serif" font-size="10.00" fill="#000000"> &#160;&#160;&#160;&#160;&#160;&#160;&#160;ontolexwrittenRep &#160;&#160;&#160;&#160;&#160;</text>
<text text-anchor="start" x="1129" y="-230" font-family="Times,serif" font-size="10.00" fill="#000000">kat</text>
</g>
<!-- celexcomp92553&#45;&gt;node1cj6aeecqx7 -->
<g id="edge25" class="edge">
<title>celexcomp92553&#45;&gt;node1cj6aeecqx7</title>
<path fill="none" stroke="#000088" d="M966.6255,-346.9329C980.4407,-337.4356 997.128,-325.2446 1011,-313 1027.1058,-298.7837 1043.5673,-281.2071 1056.2592,-266.8634"/>
<polygon fill="#000088" stroke="#000088" points="1062.8963,-259.2691 1059.704,-269.7601 1059.606,-263.034 1056.3156,-266.7988 1056.3156,-266.7988 1056.3156,-266.7988 1059.606,-263.034 1052.9273,-263.8375 1062.8963,-259.2691 1062.8963,-259.2691"/>
<text text-anchor="middle" x="1053" y="-293.1" font-family="Times,serif" font-size="8.00" fill="#000000">stem</text>
</g>
<!-- celexlemma124345 -->
<g id="node19" class="node">
<title>celexlemma124345</title>
<path fill="none" stroke="#000000" d="M1323.5,-259C1323.5,-259 1182.5,-259 1182.5,-259 1176.5,-259 1170.5,-253 1170.5,-247 1170.5,-247 1170.5,-233 1170.5,-233 1170.5,-227 1176.5,-221 1182.5,-221 1182.5,-221 1323.5,-221 1323.5,-221 1329.5,-221 1335.5,-227 1335.5,-233 1335.5,-233 1335.5,-247 1335.5,-247 1335.5,-253 1329.5,-259 1323.5,-259"/>
<polygon fill="#add8e6" stroke="transparent" points="1179,-240 1179,-255 1328,-255 1328,-240 1179,-240"/>
<text text-anchor="start" x="1181" y="-246" font-family="Times,serif" font-style="italic" font-size="10.00" fill="#000000">celex_lemma_124345:ontolexAffix</text>
<text text-anchor="start" x="1202" y="-230" font-family="Times,serif" font-size="10.00" fill="#000000"> &#160;&#160;&#160;&#160;&#160;&#160;&#160;label &#160;&#160;&#160;&#160;&#160;</text>
<text text-anchor="start" x="1300" y="-230" font-family="Times,serif" font-size="10.00" fill="#000000">e</text>
</g>
<!-- celexcomp92554&#45;&gt;celexlemma124345 -->
<g id="edge26" class="edge">
<title>celexcomp92554&#45;&gt;celexlemma124345</title>
<path fill="none" stroke="#000088" d="M1129.9388,-346.8239C1154.5034,-325.5005 1195.4052,-289.9955 1223.2542,-265.821"/>
<polygon fill="#000088" stroke="#000088" points="1231.0916,-259.0177 1226.4898,-268.9713 1227.3157,-262.2954 1223.5399,-265.5731 1223.5399,-265.5731 1223.5399,-265.5731 1227.3157,-262.2954 1220.59,-262.1748 1231.0916,-259.0177 1231.0916,-259.0177"/>
<text text-anchor="middle" x="1230" y="-293.1" font-family="Times,serif" font-size="8.00" fill="#000000">correspondsTo</text>
</g>
</g>
</svg>
