<svg width="2451pt" height="242pt"
 viewBox="0.00 0.00 2451.00 242.00" xmlns="http://www.w3.org/2000/svg" xmlns:xlink="http://www.w3.org/1999/xlink">
<g id="graph0" class="graph" transform="scale(1 1) rotate(0) translate(4 238)">
<title>G</title>
<polygon fill="#ffffff" stroke="transparent" points="-4,4 -4,-238 2447,-238 2447,4 -4,4"/>
<!-- sensebet4078336definition -->
<g id="node1" class="node">
<title>sensebet4078336definition</title>
<path fill="none" stroke="#000000" d="M1050,-45.5C1050,-45.5 840,-45.5 840,-45.5 834,-45.5 828,-39.5 828,-33.5 828,-33.5 828,-19.5 828,-19.5 828,-13.5 834,-7.5 840,-7.5 840,-7.5 1050,-7.5 1050,-7.5 1056,-7.5 1062,-13.5 1062,-19.5 1062,-19.5 1062,-33.5 1062,-33.5 1062,-39.5 1056,-45.5 1050,-45.5"/>
<polygon fill="#add8e6" stroke="transparent" points="836,-26.5 836,-41.5 1054,-41.5 1054,-26.5 836,-26.5"/>
<text text-anchor="start" x="838" y="-32.5" font-family="Times,serif" font-size="10.00" fill="#000000"> &#160;&#160;&#160;&#160;&#160;&#160;&#160;&#160;&#160;</text>
<text text-anchor="start" x="861" y="-32.5" font-family="Times,serif" font-style="italic" font-size="10.00" fill="#000000">sensebet4.0_78336_definition:UNK &#160;&#160;&#160;&#160;&#160;&#160;&#160;&#160;&#160;</text>
<text text-anchor="start" x="1033" y="-32.5" font-family="Times,serif" font-size="10.00" fill="#000000"> &#160;&#160;&#160;&#160;&#160;&#160;&#160;</text>
<text text-anchor="start" x="847.5" y="-16.5" font-family="Times,serif" font-size="10.00" fill="#000000"> &#160;&#160;&#160;&#160;&#160;&#160;&#160;value &#160;&#160;&#160;&#160;&#160;</text>
<text text-anchor="start" x="925.5" y="-16.5" font-family="Times,serif" font-size="10.00" fill="#000000"> &#160;&#160;&#160;&#160;&#160;&#160;&#160;bitse opmerking; sna &#160;&#160;&#160;&#160;&#160;</text>
</g>
<!-- sensebet1078333definition -->
<g id="node2" class="node">
<title>sensebet1078333definition</title>
<path fill="none" stroke="#000000" d="M2138,-53C2138,-53 1896,-53 1896,-53 1890,-53 1884,-47 1884,-41 1884,-41 1884,-12 1884,-12 1884,-6 1890,0 1896,0 1896,0 2138,0 2138,0 2144,0 2150,-6 2150,-12 2150,-12 2150,-41 2150,-41 2150,-47 2144,-53 2138,-53"/>
<polygon fill="#add8e6" stroke="transparent" points="1892,-33.5 1892,-48.5 2142,-48.5 2142,-33.5 1892,-33.5"/>
<text text-anchor="start" x="1910" y="-39.5" font-family="Times,serif" font-size="10.00" fill="#000000"> &#160;&#160;&#160;&#160;&#160;&#160;&#160;&#160;&#160;</text>
<text text-anchor="start" x="1933" y="-39.5" font-family="Times,serif" font-style="italic" font-size="10.00" fill="#000000">sensebet1.0_78333_definition:UNK &#160;&#160;&#160;&#160;&#160;&#160;&#160;&#160;&#160;</text>
<text text-anchor="start" x="2105" y="-39.5" font-family="Times,serif" font-size="10.00" fill="#000000"> &#160;&#160;&#160;&#160;&#160;&#160;&#160;</text>
<text text-anchor="start" x="1929" y="-23.5" font-family="Times,serif" font-size="10.00" fill="#000000"> &#160;&#160;&#160;&#160;&#160;&#160;&#160;value &#160;&#160;&#160;&#160;&#160;</text>
<text text-anchor="start" x="2025" y="-23.5" font-family="Times,serif" font-size="10.00" fill="#000000"> &#160;&#160;&#160;&#160;&#160;&#160;&#160;klein huisdier dat m &#160;&#160;&#160;&#160;&#160;</text>
<text text-anchor="start" x="1894" y="-8.5" font-family="Times,serif" font-size="10.00" fill="#000000"> &#160;&#160;&#160;&#160;&#160;&#160;&#160;definitionComplement &#160;&#160;&#160;&#160;&#160;</text>
<text text-anchor="start" x="2023" y="-8.5" font-family="Times,serif" font-size="10.00" fill="#000000"> &#160;&#160;&#160;&#160;&#160;&#160;&#160;Zowel in toepassing &#160;&#160;&#160;&#160;&#160;&#160;</text>
</g>
<!-- sensebet80204831definition -->
<g id="node3" class="node">
<title>sensebet80204831definition</title>
<path fill="none" stroke="#000000" d="M798,-53C798,-53 552,-53 552,-53 546,-53 540,-47 540,-41 540,-41 540,-12 540,-12 540,-6 546,0 552,0 552,0 798,0 798,0 804,0 810,-6 810,-12 810,-12 810,-41 810,-41 810,-47 804,-53 798,-53"/>
<polygon fill="#add8e6" stroke="transparent" points="548,-33.5 548,-48.5 802,-48.5 802,-33.5 548,-33.5"/>
<text text-anchor="start" x="565.5" y="-39.5" font-family="Times,serif" font-size="10.00" fill="#000000"> &#160;&#160;&#160;&#160;&#160;&#160;&#160;&#160;&#160;</text>
<text text-anchor="start" x="588.5" y="-39.5" font-family="Times,serif" font-style="italic" font-size="10.00" fill="#000000">sensebet8.0_204831_definition:UNK &#160;&#160;&#160;&#160;&#160;&#160;&#160;&#160;&#160;</text>
<text text-anchor="start" x="765.5" y="-39.5" font-family="Times,serif" font-size="10.00" fill="#000000"> &#160;&#160;&#160;&#160;&#160;&#160;&#160;</text>
<text text-anchor="start" x="585" y="-23.5" font-family="Times,serif" font-size="10.00" fill="#000000"> &#160;&#160;&#160;&#160;&#160;&#160;&#160;value &#160;&#160;&#160;&#160;&#160;</text>
<text text-anchor="start" x="679" y="-23.5" font-family="Times,serif" font-size="10.00" fill="#000000"> &#160;&#160;&#160;&#160;&#160;&#160;&#160;gesel van touwen met &#160;&#160;&#160;&#160;&#160;</text>
<text text-anchor="start" x="550" y="-8.5" font-family="Times,serif" font-size="10.00" fill="#000000"> &#160;&#160;&#160;&#160;&#160;&#160;&#160;definitionComplement &#160;&#160;&#160;&#160;&#160;</text>
<text text-anchor="start" x="684.5" y="-8.5" font-family="Times,serif" font-size="10.00" fill="#000000"> &#160;&#160;&#160;&#160;&#160;&#160;&#160;Alleen in historiser &#160;&#160;&#160;&#160;&#160;</text>
</g>
<!-- sensebet3078335definition -->
<g id="node4" class="node">
<title>sensebet3078335definition</title>
<path fill="none" stroke="#000000" d="M222,-45.5C222,-45.5 12,-45.5 12,-45.5 6,-45.5 0,-39.5 0,-33.5 0,-33.5 0,-19.5 0,-19.5 0,-13.5 6,-7.5 12,-7.5 12,-7.5 222,-7.5 222,-7.5 228,-7.5 234,-13.5 234,-19.5 234,-19.5 234,-33.5 234,-33.5 234,-39.5 228,-45.5 222,-45.5"/>
<polygon fill="#add8e6" stroke="transparent" points="8,-26.5 8,-41.5 226,-41.5 226,-26.5 8,-26.5"/>
<text text-anchor="start" x="10" y="-32.5" font-family="Times,serif" font-size="10.00" fill="#000000"> &#160;&#160;&#160;&#160;&#160;&#160;&#160;&#160;&#160;</text>
<text text-anchor="start" x="33" y="-32.5" font-family="Times,serif" font-style="italic" font-size="10.00" fill="#000000">sensebet3.0_78335_definition:UNK &#160;&#160;&#160;&#160;&#160;&#160;&#160;&#160;&#160;</text>
<text text-anchor="start" x="205" y="-32.5" font-family="Times,serif" font-size="10.00" fill="#000000"> &#160;&#160;&#160;&#160;&#160;&#160;&#160;</text>
<text text-anchor="start" x="19.5" y="-16.5" font-family="Times,serif" font-size="10.00" fill="#000000"> &#160;&#160;&#160;&#160;&#160;&#160;&#160;value &#160;&#160;&#160;&#160;&#160;</text>
<text text-anchor="start" x="98" y="-16.5" font-family="Times,serif" font-size="10.00" fill="#000000"> &#160;&#160;&#160;&#160;&#160;&#160;&#160;bitse, vinnige vrouw &#160;&#160;&#160;&#160;&#160;</text>
</g>
<!-- sensebet11195644definition -->
<g id="node5" class="node">
<title>sensebet11195644definition</title>
<path fill="none" stroke="#000000" d="M1596.5,-45.5C1596.5,-45.5 1381.5,-45.5 1381.5,-45.5 1375.5,-45.5 1369.5,-39.5 1369.5,-33.5 1369.5,-33.5 1369.5,-19.5 1369.5,-19.5 1369.5,-13.5 1375.5,-7.5 1381.5,-7.5 1381.5,-7.5 1596.5,-7.5 1596.5,-7.5 1602.5,-7.5 1608.5,-13.5 1608.5,-19.5 1608.5,-19.5 1608.5,-33.5 1608.5,-33.5 1608.5,-39.5 1602.5,-45.5 1596.5,-45.5"/>
<polygon fill="#add8e6" stroke="transparent" points="1378,-26.5 1378,-41.5 1601,-41.5 1601,-26.5 1378,-26.5"/>
<text text-anchor="start" x="1380" y="-32.5" font-family="Times,serif" font-size="10.00" fill="#000000"> &#160;&#160;&#160;&#160;&#160;&#160;&#160;&#160;&#160;</text>
<text text-anchor="start" x="1403" y="-32.5" font-family="Times,serif" font-style="italic" font-size="10.00" fill="#000000">sensebet1.1_195644_definition:UNK &#160;&#160;&#160;&#160;&#160;&#160;&#160;&#160;&#160;</text>
<text text-anchor="start" x="1580" y="-32.5" font-family="Times,serif" font-size="10.00" fill="#000000"> &#160;&#160;&#160;&#160;&#160;&#160;&#160;</text>
<text text-anchor="start" x="1391.5" y="-16.5" font-family="Times,serif" font-size="10.00" fill="#000000"> &#160;&#160;&#160;&#160;&#160;&#160;&#160;value &#160;&#160;&#160;&#160;&#160;</text>
<text text-anchor="start" x="1474" y="-16.5" font-family="Times,serif" font-size="10.00" fill="#000000"> &#160;&#160;&#160;&#160;&#160;&#160;&#160;beeld of afbeelding &#160;&#160;&#160;&#160;&#160;&#160;</text>
</g>
<!-- sensebet2078334 -->
<g id="node6" class="node">
<title>sensebet2078334</title>
<path fill="none" stroke="#000000" d="M1401,-143.5C1401,-143.5 1237,-143.5 1237,-143.5 1231,-143.5 1225,-137.5 1225,-131.5 1225,-131.5 1225,-117.5 1225,-117.5 1225,-111.5 1231,-105.5 1237,-105.5 1237,-105.5 1401,-105.5 1401,-105.5 1407,-105.5 1413,-111.5 1413,-117.5 1413,-117.5 1413,-131.5 1413,-131.5 1413,-137.5 1407,-143.5 1401,-143.5"/>
<polygon fill="#add8e6" stroke="transparent" points="1233,-124.5 1233,-139.5 1405,-139.5 1405,-124.5 1233,-124.5"/>
<text text-anchor="start" x="1235" y="-130.5" font-family="Times,serif" font-size="10.00" fill="#000000"> &#160;&#160;&#160;&#160;&#160;&#160;&#160;&#160;&#160;</text>
<text text-anchor="start" x="1258" y="-130.5" font-family="Times,serif" font-style="italic" font-size="10.00" fill="#000000">sensebet2.0_78334:UNK &#160;&#160;&#160;&#160;&#160;&#160;&#160;&#160;&#160;</text>
<text text-anchor="start" x="1384" y="-130.5" font-family="Times,serif" font-size="10.00" fill="#000000"> &#160;&#160;&#160;&#160;&#160;&#160;&#160;</text>
<text text-anchor="start" x="1247.5" y="-114.5" font-family="Times,serif" font-size="10.00" fill="#000000"> &#160;&#160;&#160;&#160;&#160;&#160;&#160;senseOrder &#160;&#160;&#160;&#160;&#160;</text>
<text text-anchor="start" x="1353.5" y="-114.5" font-family="Times,serif" font-size="10.00" fill="#000000"> &#160;&#160;&#160;&#160;&#160;&#160;&#160;2 &#160;&#160;&#160;&#160;&#160;</text>
</g>
<!-- sensebet2078334definition -->
<g id="node7" class="node">
<title>sensebet2078334definition</title>
<path fill="none" stroke="#000000" d="M1339.5,-53C1339.5,-53 1092.5,-53 1092.5,-53 1086.5,-53 1080.5,-47 1080.5,-41 1080.5,-41 1080.5,-12 1080.5,-12 1080.5,-6 1086.5,0 1092.5,0 1092.5,0 1339.5,0 1339.5,0 1345.5,0 1351.5,-6 1351.5,-12 1351.5,-12 1351.5,-41 1351.5,-41 1351.5,-47 1345.5,-53 1339.5,-53"/>
<polygon fill="#add8e6" stroke="transparent" points="1089,-33.5 1089,-48.5 1344,-48.5 1344,-33.5 1089,-33.5"/>
<text text-anchor="start" x="1109.5" y="-39.5" font-family="Times,serif" font-size="10.00" fill="#000000"> &#160;&#160;&#160;&#160;&#160;&#160;&#160;&#160;&#160;</text>
<text text-anchor="start" x="1132.5" y="-39.5" font-family="Times,serif" font-style="italic" font-size="10.00" fill="#000000">sensebet2.0_78334_definition:UNK &#160;&#160;&#160;&#160;&#160;&#160;&#160;&#160;&#160;</text>
<text text-anchor="start" x="1304.5" y="-39.5" font-family="Times,serif" font-size="10.00" fill="#000000"> &#160;&#160;&#160;&#160;&#160;&#160;&#160;</text>
<text text-anchor="start" x="1126" y="-23.5" font-family="Times,serif" font-size="10.00" fill="#000000"> &#160;&#160;&#160;&#160;&#160;&#160;&#160;value &#160;&#160;&#160;&#160;&#160;</text>
<text text-anchor="start" x="1224.5" y="-23.5" font-family="Times,serif" font-size="10.00" fill="#000000"> &#160;&#160;&#160;&#160;&#160;&#160;&#160;roofdier dat behoort &#160;&#160;&#160;&#160;&#160;</text>
<text text-anchor="start" x="1091" y="-8.5" font-family="Times,serif" font-size="10.00" fill="#000000"> &#160;&#160;&#160;&#160;&#160;&#160;&#160;definitionComplement &#160;&#160;&#160;&#160;&#160;</text>
<text text-anchor="start" x="1220" y="-8.5" font-family="Times,serif" font-size="10.00" fill="#000000"> &#160;&#160;&#160;&#160;&#160;&#160;&#160;Vaak in het meervoud &#160;&#160;&#160;&#160;&#160;</text>
</g>
<!-- sensebet2078334&#45;&gt;sensebet2078334definition -->
<g id="edge1" class="edge">
<title>sensebet2078334&#45;&gt;sensebet2078334definition</title>
<path fill="none" stroke="#000088" d="M1298.6505,-105.1384C1285.2486,-92.387 1267.3385,-75.3464 1251.6173,-60.3883"/>
<polygon fill="#000088" stroke="#000088" points="1244.1048,-53.2405 1254.4514,-56.8734 1247.7272,-56.687 1251.3495,-60.1336 1251.3495,-60.1336 1251.3495,-60.1336 1247.7272,-56.687 1248.2477,-63.3937 1244.1048,-53.2405 1244.1048,-53.2405"/>
<text text-anchor="middle" x="1285.5" y="-73.6" font-family="Times,serif" font-size="8.00" fill="#000000">definition</text>
</g>
<!-- lemmavorm78332 -->
<g id="node8" class="node">
<title>lemmavorm78332</title>
<path fill="none" stroke="#000000" d="M1194.5,-151C1194.5,-151 1007.5,-151 1007.5,-151 1001.5,-151 995.5,-145 995.5,-139 995.5,-139 995.5,-110 995.5,-110 995.5,-104 1001.5,-98 1007.5,-98 1007.5,-98 1194.5,-98 1194.5,-98 1200.5,-98 1206.5,-104 1206.5,-110 1206.5,-110 1206.5,-139 1206.5,-139 1206.5,-145 1200.5,-151 1194.5,-151"/>
<polygon fill="#add8e6" stroke="transparent" points="1004,-131.5 1004,-146.5 1199,-146.5 1199,-131.5 1004,-131.5"/>
<text text-anchor="start" x="1016" y="-137.5" font-family="Times,serif" font-size="10.00" fill="#000000"> &#160;&#160;&#160;&#160;&#160;&#160;&#160;&#160;&#160;</text>
<text text-anchor="start" x="1039" y="-137.5" font-family="Times,serif" font-style="italic" font-size="10.00" fill="#000000">lemmavorm_78332:Form &#160;&#160;&#160;&#160;&#160;&#160;&#160;&#160;&#160;</text>
<text text-anchor="start" x="1168" y="-137.5" font-family="Times,serif" font-size="10.00" fill="#000000"> &#160;&#160;&#160;&#160;&#160;&#160;&#160;</text>
<text text-anchor="start" x="1009.5" y="-121.5" font-family="Times,serif" font-size="10.00" fill="#000000"> &#160;&#160;&#160;&#160;&#160;&#160;&#160;writtenRepresentation &#160;&#160;&#160;&#160;&#160;</text>
<text text-anchor="start" x="1146" y="-121.5" font-family="Times,serif" font-size="10.00" fill="#000000"> &#160;&#160;&#160;&#160;&#160;&#160;&#160;kat &#160;&#160;&#160;&#160;&#160;</text>
<text text-anchor="start" x="1006" y="-106.5" font-family="Times,serif" font-size="10.00" fill="#000000"> &#160;&#160;&#160;&#160;&#160;&#160;&#160;phoneticRepresentation &#160;&#160;&#160;&#160;&#160;</text>
<text text-anchor="start" x="1140" y="-106.5" font-family="Times,serif" font-size="10.00" fill="#000000"> &#160;&#160;&#160;&#160;&#160;&#160;&#160;*k ɑ t &#160;&#160;&#160;&#160;&#160;</text>
</g>
<!-- sensebet50204707 -->
<g id="node9" class="node">
<title>sensebet50204707</title>
<path fill="none" stroke="#000000" d="M509.5,-143.5C509.5,-143.5 340.5,-143.5 340.5,-143.5 334.5,-143.5 328.5,-137.5 328.5,-131.5 328.5,-131.5 328.5,-117.5 328.5,-117.5 328.5,-111.5 334.5,-105.5 340.5,-105.5 340.5,-105.5 509.5,-105.5 509.5,-105.5 515.5,-105.5 521.5,-111.5 521.5,-117.5 521.5,-117.5 521.5,-131.5 521.5,-131.5 521.5,-137.5 515.5,-143.5 509.5,-143.5"/>
<polygon fill="#add8e6" stroke="transparent" points="337,-124.5 337,-139.5 514,-139.5 514,-124.5 337,-124.5"/>
<text text-anchor="start" x="339" y="-130.5" font-family="Times,serif" font-size="10.00" fill="#000000"> &#160;&#160;&#160;&#160;&#160;&#160;&#160;&#160;&#160;</text>
<text text-anchor="start" x="362" y="-130.5" font-family="Times,serif" font-style="italic" font-size="10.00" fill="#000000">sensebet5.0_204707:UNK &#160;&#160;&#160;&#160;&#160;&#160;&#160;&#160;&#160;</text>
<text text-anchor="start" x="493" y="-130.5" font-family="Times,serif" font-size="10.00" fill="#000000"> &#160;&#160;&#160;&#160;&#160;&#160;&#160;</text>
<text text-anchor="start" x="352.5" y="-114.5" font-family="Times,serif" font-size="10.00" fill="#000000"> &#160;&#160;&#160;&#160;&#160;&#160;&#160;senseOrder &#160;&#160;&#160;&#160;&#160;</text>
<text text-anchor="start" x="461" y="-114.5" font-family="Times,serif" font-size="10.00" fill="#000000"> &#160;&#160;&#160;&#160;&#160;&#160;&#160;5 &#160;&#160;&#160;&#160;&#160;</text>
</g>
<!-- sensebet50204707definition -->
<g id="node10" class="node">
<title>sensebet50204707definition</title>
<path fill="none" stroke="#000000" d="M510,-53C510,-53 264,-53 264,-53 258,-53 252,-47 252,-41 252,-41 252,-12 252,-12 252,-6 258,0 264,0 264,0 510,0 510,0 516,0 522,-6 522,-12 522,-12 522,-41 522,-41 522,-47 516,-53 510,-53"/>
<polygon fill="#add8e6" stroke="transparent" points="260,-33.5 260,-48.5 514,-48.5 514,-33.5 260,-33.5"/>
<text text-anchor="start" x="277.5" y="-39.5" font-family="Times,serif" font-size="10.00" fill="#000000"> &#160;&#160;&#160;&#160;&#160;&#160;&#160;&#160;&#160;</text>
<text text-anchor="start" x="300.5" y="-39.5" font-family="Times,serif" font-style="italic" font-size="10.00" fill="#000000">sensebet5.0_204707_definition:UNK &#160;&#160;&#160;&#160;&#160;&#160;&#160;&#160;&#160;</text>
<text text-anchor="start" x="477.5" y="-39.5" font-family="Times,serif" font-size="10.00" fill="#000000"> &#160;&#160;&#160;&#160;&#160;&#160;&#160;</text>
<text text-anchor="start" x="297" y="-23.5" font-family="Times,serif" font-size="10.00" fill="#000000"> &#160;&#160;&#160;&#160;&#160;&#160;&#160;value &#160;&#160;&#160;&#160;&#160;</text>
<text text-anchor="start" x="391" y="-23.5" font-family="Times,serif" font-size="10.00" fill="#000000"> &#160;&#160;&#160;&#160;&#160;&#160;&#160;middeleeuws belegeri &#160;&#160;&#160;&#160;&#160;</text>
<text text-anchor="start" x="262" y="-8.5" font-family="Times,serif" font-size="10.00" fill="#000000"> &#160;&#160;&#160;&#160;&#160;&#160;&#160;definitionComplement &#160;&#160;&#160;&#160;&#160;</text>
<text text-anchor="start" x="396.5" y="-8.5" font-family="Times,serif" font-size="10.00" fill="#000000"> &#160;&#160;&#160;&#160;&#160;&#160;&#160;Alleen in historiser &#160;&#160;&#160;&#160;&#160;</text>
</g>
<!-- sensebet50204707&#45;&gt;sensebet50204707definition -->
<g id="edge2" class="edge">
<title>sensebet50204707&#45;&gt;sensebet50204707definition</title>
<path fill="none" stroke="#000088" d="M417.4924,-105.1384C412.8177,-93.0825 406.6563,-77.1926 401.0963,-62.8535"/>
<polygon fill="#000088" stroke="#000088" points="397.3688,-53.2405 405.1797,-60.9372 399.1764,-57.9023 400.9841,-62.5641 400.9841,-62.5641 400.9841,-62.5641 399.1764,-57.9023 396.7885,-64.191 397.3688,-53.2405 397.3688,-53.2405"/>
<text text-anchor="middle" x="423.5" y="-73.6" font-family="Times,serif" font-size="8.00" fill="#000000">definition</text>
</g>
<!-- relationsensebet11195644 -->
<g id="node11" class="node">
<title>relationsensebet11195644</title>
<path fill="none" stroke="#000000" d="M2082,-233C2082,-233 1836,-233 1836,-233 1830,-233 1824,-227 1824,-221 1824,-221 1824,-209 1824,-209 1824,-203 1830,-197 1836,-197 1836,-197 2082,-197 2082,-197 2088,-197 2094,-203 2094,-209 2094,-209 2094,-221 2094,-221 2094,-227 2088,-233 2082,-233"/>
<polygon fill="#add8e6" stroke="transparent" points="1832,-207 1832,-222 2086,-222 2086,-207 1832,-207"/>
<text text-anchor="start" x="1834.5" y="-213" font-family="Times,serif" font-size="10.00" fill="#000000"> &#160;&#160;&#160;&#160;&#160;&#160;&#160;&#160;&#160;</text>
<text text-anchor="start" x="1857.5" y="-213" font-family="Times,serif" font-style="italic" font-size="10.00" fill="#000000">relation_sensebet1.1_195644:SenseRelation &#160;&#160;&#160;&#160;&#160;&#160;&#160;&#160;&#160;</text>
<text text-anchor="start" x="2064.5" y="-213" font-family="Times,serif" font-size="10.00" fill="#000000"> &#160;&#160;&#160;&#160;&#160;&#160;&#160;</text>
</g>
<!-- sensebet1078333 -->
<g id="node12" class="node">
<title>sensebet1078333</title>
<path fill="none" stroke="#000000" d="M2045,-142.5C2045,-142.5 1873,-142.5 1873,-142.5 1867,-142.5 1861,-136.5 1861,-130.5 1861,-130.5 1861,-118.5 1861,-118.5 1861,-112.5 1867,-106.5 1873,-106.5 1873,-106.5 2045,-106.5 2045,-106.5 2051,-106.5 2057,-112.5 2057,-118.5 2057,-118.5 2057,-130.5 2057,-130.5 2057,-136.5 2051,-142.5 2045,-142.5"/>
<polygon fill="#add8e6" stroke="transparent" points="1869,-116.5 1869,-131.5 2049,-131.5 2049,-116.5 1869,-116.5"/>
<text text-anchor="start" x="1871.5" y="-122.5" font-family="Times,serif" font-size="10.00" fill="#000000"> &#160;&#160;&#160;&#160;&#160;&#160;&#160;&#160;&#160;</text>
<text text-anchor="start" x="1894.5" y="-122.5" font-family="Times,serif" font-style="italic" font-size="10.00" fill="#000000">sense_bet1.0_78333:Class &#160;&#160;&#160;&#160;&#160;&#160;&#160;&#160;&#160;</text>
<text text-anchor="start" x="2027.5" y="-122.5" font-family="Times,serif" font-size="10.00" fill="#000000"> &#160;&#160;&#160;&#160;&#160;&#160;&#160;</text>
</g>
<!-- relationsensebet11195644&#45;&gt;sensebet1078333 -->
<g id="edge3" class="edge">
<title>relationsensebet11195644&#45;&gt;sensebet1078333</title>
<path fill="none" stroke="#000088" d="M1959,-196.686C1959,-184.174 1959,-167.342 1959,-153.0789"/>
<polygon fill="#000088" stroke="#000088" points="1959,-142.7868 1963.5001,-152.7867 1959,-147.7868 1959.0001,-152.7868 1959.0001,-152.7868 1959.0001,-152.7868 1959,-147.7868 1954.5001,-152.7868 1959,-142.7868 1959,-142.7868"/>
<text text-anchor="middle" x="1970" y="-171.6" font-family="Times,serif" font-size="8.00" fill="#000000">source</text>
</g>
<!-- sensebet11195644 -->
<g id="node13" class="node">
<title>sensebet11195644</title>
<path fill="none" stroke="#000000" d="M1619,-142.5C1619,-142.5 1443,-142.5 1443,-142.5 1437,-142.5 1431,-136.5 1431,-130.5 1431,-130.5 1431,-118.5 1431,-118.5 1431,-112.5 1437,-106.5 1443,-106.5 1443,-106.5 1619,-106.5 1619,-106.5 1625,-106.5 1631,-112.5 1631,-118.5 1631,-118.5 1631,-130.5 1631,-130.5 1631,-136.5 1625,-142.5 1619,-142.5"/>
<polygon fill="#add8e6" stroke="transparent" points="1439,-116.5 1439,-131.5 1623,-131.5 1623,-116.5 1439,-116.5"/>
<text text-anchor="start" x="1441" y="-122.5" font-family="Times,serif" font-size="10.00" fill="#000000"> &#160;&#160;&#160;&#160;&#160;&#160;&#160;&#160;&#160;</text>
<text text-anchor="start" x="1464" y="-122.5" font-family="Times,serif" font-style="italic" font-size="10.00" fill="#000000">sense_bet1.1_195644:Class &#160;&#160;&#160;&#160;&#160;&#160;&#160;&#160;&#160;</text>
<text text-anchor="start" x="1602" y="-122.5" font-family="Times,serif" font-size="10.00" fill="#000000"> &#160;&#160;&#160;&#160;&#160;&#160;&#160;</text>
</g>
<!-- relationsensebet11195644&#45;&gt;sensebet11195644 -->
<g id="edge4" class="edge">
<title>relationsensebet11195644&#45;&gt;sensebet11195644</title>
<path fill="none" stroke="#000088" d="M1864.5322,-196.9586C1801.1712,-184.6195 1715.9218,-167.5578 1641,-151 1632.2668,-149.0699 1623.1604,-146.9882 1614.09,-144.8697"/>
<polygon fill="#000088" stroke="#000088" points="1604.281,-142.5619 1615.0458,-140.4718 1609.1481,-143.7071 1614.0152,-144.8522 1614.0152,-144.8522 1614.0152,-144.8522 1609.1481,-143.7071 1612.9846,-149.2326 1604.281,-142.5619 1604.281,-142.5619"/>
<text text-anchor="middle" x="1772.5" y="-171.6" font-family="Times,serif" font-size="8.00" fill="#000000">target</text>
</g>
<!-- metonymie -->
<g id="node14" class="node">
<title>metonymie</title>
<path fill="none" stroke="#000000" d="M2431,-142.5C2431,-142.5 2299,-142.5 2299,-142.5 2293,-142.5 2287,-136.5 2287,-130.5 2287,-130.5 2287,-118.5 2287,-118.5 2287,-112.5 2293,-106.5 2299,-106.5 2299,-106.5 2431,-106.5 2431,-106.5 2437,-106.5 2443,-112.5 2443,-118.5 2443,-118.5 2443,-130.5 2443,-130.5 2443,-136.5 2437,-142.5 2431,-142.5"/>
<polygon fill="#add8e6" stroke="transparent" points="2295,-116.5 2295,-131.5 2435,-131.5 2435,-116.5 2295,-116.5"/>
<text text-anchor="start" x="2297" y="-122.5" font-family="Times,serif" font-size="10.00" fill="#000000"> &#160;&#160;&#160;&#160;&#160;&#160;&#160;&#160;&#160;</text>
<text text-anchor="start" x="2320" y="-122.5" font-family="Times,serif" font-style="italic" font-size="10.00" fill="#000000">metonymie:Class &#160;&#160;&#160;&#160;&#160;&#160;&#160;&#160;&#160;</text>
<text text-anchor="start" x="2414" y="-122.5" font-family="Times,serif" font-size="10.00" fill="#000000"> &#160;&#160;&#160;&#160;&#160;&#160;&#160;</text>
</g>
<!-- relationsensebet11195644&#45;&gt;metonymie -->
<g id="edge5" class="edge">
<title>relationsensebet11195644&#45;&gt;metonymie</title>
<path fill="none" stroke="#000088" d="M2061.9315,-196.9898C2124.7087,-185.3525 2206.3836,-169.0453 2278,-151 2284.6865,-149.3152 2291.6235,-147.434 2298.531,-145.4725"/>
<polygon fill="#000088" stroke="#000088" points="2308.5975,-142.5547 2300.2457,-149.6608 2303.7952,-143.9467 2298.9929,-145.3387 2298.9929,-145.3387 2298.9929,-145.3387 2303.7952,-143.9467 2297.7401,-141.0166 2308.5975,-142.5547 2308.5975,-142.5547"/>
<text text-anchor="middle" x="2213" y="-171.6" font-family="Times,serif" font-size="8.00" fill="#000000">category</text>
</g>
<!-- sensebet1078333&#45;&gt;sensebet1078333definition -->
<g id="edge6" class="edge">
<title>sensebet1078333&#45;&gt;sensebet1078333definition</title>
<path fill="none" stroke="#000088" d="M1969.9094,-106.0669C1977.1922,-93.7615 1987.0094,-77.1737 1995.7955,-62.3283"/>
<polygon fill="#000088" stroke="#000088" points="2001.1009,-53.364 1999.8803,-64.2617 1998.5543,-57.6669 1996.0077,-61.9698 1996.0077,-61.9698 1996.0077,-61.9698 1998.5543,-57.6669 1992.1351,-59.6778 2001.1009,-53.364 2001.1009,-53.364"/>
<text text-anchor="middle" x="2004.5" y="-73.6" font-family="Times,serif" font-size="8.00" fill="#000000">definition</text>
</g>
<!-- sensebet11195644&#45;&gt;sensebet11195644definition -->
<g id="edge7" class="edge">
<title>sensebet11195644&#45;&gt;sensebet11195644definition</title>
<path fill="none" stroke="#000088" d="M1523.1001,-106.0669C1516.9026,-91.606 1508.1705,-71.2312 1501.0943,-54.72"/>
<polygon fill="#000088" stroke="#000088" points="1497.1509,-45.5189 1505.2263,-52.9377 1499.1206,-50.1146 1501.0902,-54.7103 1501.0902,-54.7103 1501.0902,-54.7103 1499.1206,-50.1146 1496.954,-56.483 1497.1509,-45.5189 1497.1509,-45.5189"/>
<text text-anchor="middle" x="1526.5" y="-73.6" font-family="Times,serif" font-size="8.00" fill="#000000">definition</text>
</g>
<!-- sensebet70204817definition -->
<g id="node15" class="node">
<title>sensebet70204817definition</title>
<path fill="none" stroke="#000000" d="M1853.5,-45.5C1853.5,-45.5 1638.5,-45.5 1638.5,-45.5 1632.5,-45.5 1626.5,-39.5 1626.5,-33.5 1626.5,-33.5 1626.5,-19.5 1626.5,-19.5 1626.5,-13.5 1632.5,-7.5 1638.5,-7.5 1638.5,-7.5 1853.5,-7.5 1853.5,-7.5 1859.5,-7.5 1865.5,-13.5 1865.5,-19.5 1865.5,-19.5 1865.5,-33.5 1865.5,-33.5 1865.5,-39.5 1859.5,-45.5 1853.5,-45.5"/>
<polygon fill="#add8e6" stroke="transparent" points="1635,-26.5 1635,-41.5 1858,-41.5 1858,-26.5 1635,-26.5"/>
<text text-anchor="start" x="1637" y="-32.5" font-family="Times,serif" font-size="10.00" fill="#000000"> &#160;&#160;&#160;&#160;&#160;&#160;&#160;&#160;&#160;</text>
<text text-anchor="start" x="1660" y="-32.5" font-family="Times,serif" font-style="italic" font-size="10.00" fill="#000000">sensebet7.0_204817_definition:UNK &#160;&#160;&#160;&#160;&#160;&#160;&#160;&#160;&#160;</text>
<text text-anchor="start" x="1837" y="-32.5" font-family="Times,serif" font-size="10.00" fill="#000000"> &#160;&#160;&#160;&#160;&#160;&#160;&#160;</text>
<text text-anchor="start" x="1648.5" y="-16.5" font-family="Times,serif" font-size="10.00" fill="#000000"> &#160;&#160;&#160;&#160;&#160;&#160;&#160;value &#160;&#160;&#160;&#160;&#160;</text>
<text text-anchor="start" x="1730.5" y="-16.5" font-family="Times,serif" font-size="10.00" fill="#000000"> &#160;&#160;&#160;&#160;&#160;&#160;&#160;toestel waaraan een &#160;&#160;&#160;&#160;&#160;&#160;</text>
</g>
<!-- sensebet70204817 -->
<g id="node16" class="node">
<title>sensebet70204817</title>
<path fill="none" stroke="#000000" d="M1830.5,-143.5C1830.5,-143.5 1661.5,-143.5 1661.5,-143.5 1655.5,-143.5 1649.5,-137.5 1649.5,-131.5 1649.5,-131.5 1649.5,-117.5 1649.5,-117.5 1649.5,-111.5 1655.5,-105.5 1661.5,-105.5 1661.5,-105.5 1830.5,-105.5 1830.5,-105.5 1836.5,-105.5 1842.5,-111.5 1842.5,-117.5 1842.5,-117.5 1842.5,-131.5 1842.5,-131.5 1842.5,-137.5 1836.5,-143.5 1830.5,-143.5"/>
<polygon fill="#add8e6" stroke="transparent" points="1658,-124.5 1658,-139.5 1835,-139.5 1835,-124.5 1658,-124.5"/>
<text text-anchor="start" x="1660" y="-130.5" font-family="Times,serif" font-size="10.00" fill="#000000"> &#160;&#160;&#160;&#160;&#160;&#160;&#160;&#160;&#160;</text>
<text text-anchor="start" x="1683" y="-130.5" font-family="Times,serif" font-style="italic" font-size="10.00" fill="#000000">sensebet7.0_204817:UNK &#160;&#160;&#160;&#160;&#160;&#160;&#160;&#160;&#160;</text>
<text text-anchor="start" x="1814" y="-130.5" font-family="Times,serif" font-size="10.00" fill="#000000"> &#160;&#160;&#160;&#160;&#160;&#160;&#160;</text>
<text text-anchor="start" x="1673.5" y="-114.5" font-family="Times,serif" font-size="10.00" fill="#000000"> &#160;&#160;&#160;&#160;&#160;&#160;&#160;senseOrder &#160;&#160;&#160;&#160;&#160;</text>
<text text-anchor="start" x="1782" y="-114.5" font-family="Times,serif" font-size="10.00" fill="#000000"> &#160;&#160;&#160;&#160;&#160;&#160;&#160;7 &#160;&#160;&#160;&#160;&#160;</text>
</g>
<!-- sensebet70204817&#45;&gt;sensebet70204817definition -->
<g id="edge8" class="edge">
<title>sensebet70204817&#45;&gt;sensebet70204817definition</title>
<path fill="none" stroke="#000088" d="M1746,-105.1384C1746,-91.179 1746,-72.0791 1746,-56.1986"/>
<polygon fill="#000088" stroke="#000088" points="1746,-45.8214 1750.5001,-55.8214 1746,-50.8214 1746.0001,-55.8214 1746.0001,-55.8214 1746.0001,-55.8214 1746,-50.8214 1741.5001,-55.8215 1746,-45.8214 1746,-45.8214"/>
<text text-anchor="middle" x="1761.5" y="-73.6" font-family="Times,serif" font-size="8.00" fill="#000000">definition</text>
</g>
<!-- sensebet60204722 -->
<g id="node17" class="node">
<title>sensebet60204722</title>
<path fill="none" stroke="#000000" d="M2256.5,-143.5C2256.5,-143.5 2087.5,-143.5 2087.5,-143.5 2081.5,-143.5 2075.5,-137.5 2075.5,-131.5 2075.5,-131.5 2075.5,-117.5 2075.5,-117.5 2075.5,-111.5 2081.5,-105.5 2087.5,-105.5 2087.5,-105.5 2256.5,-105.5 2256.5,-105.5 2262.5,-105.5 2268.5,-111.5 2268.5,-117.5 2268.5,-117.5 2268.5,-131.5 2268.5,-131.5 2268.5,-137.5 2262.5,-143.5 2256.5,-143.5"/>
<polygon fill="#add8e6" stroke="transparent" points="2084,-124.5 2084,-139.5 2261,-139.5 2261,-124.5 2084,-124.5"/>
<text text-anchor="start" x="2086" y="-130.5" font-family="Times,serif" font-size="10.00" fill="#000000"> &#160;&#160;&#160;&#160;&#160;&#160;&#160;&#160;&#160;</text>
<text text-anchor="start" x="2109" y="-130.5" font-family="Times,serif" font-style="italic" font-size="10.00" fill="#000000">sensebet6.0_204722:UNK &#160;&#160;&#160;&#160;&#160;&#160;&#160;&#160;&#160;</text>
<text text-anchor="start" x="2240" y="-130.5" font-family="Times,serif" font-size="10.00" fill="#000000"> &#160;&#160;&#160;&#160;&#160;&#160;&#160;</text>
<text text-anchor="start" x="2099.5" y="-114.5" font-family="Times,serif" font-size="10.00" fill="#000000"> &#160;&#160;&#160;&#160;&#160;&#160;&#160;senseOrder &#160;&#160;&#160;&#160;&#160;</text>
<text text-anchor="start" x="2208" y="-114.5" font-family="Times,serif" font-size="10.00" fill="#000000"> &#160;&#160;&#160;&#160;&#160;&#160;&#160;6 &#160;&#160;&#160;&#160;&#160;</text>
</g>
<!-- sensebet60204722definition -->
<g id="node18" class="node">
<title>sensebet60204722definition</title>
<path fill="none" stroke="#000000" d="M2426,-53C2426,-53 2180,-53 2180,-53 2174,-53 2168,-47 2168,-41 2168,-41 2168,-12 2168,-12 2168,-6 2174,0 2180,0 2180,0 2426,0 2426,0 2432,0 2438,-6 2438,-12 2438,-12 2438,-41 2438,-41 2438,-47 2432,-53 2426,-53"/>
<polygon fill="#add8e6" stroke="transparent" points="2176,-33.5 2176,-48.5 2430,-48.5 2430,-33.5 2176,-33.5"/>
<text text-anchor="start" x="2193.5" y="-39.5" font-family="Times,serif" font-size="10.00" fill="#000000"> &#160;&#160;&#160;&#160;&#160;&#160;&#160;&#160;&#160;</text>
<text text-anchor="start" x="2216.5" y="-39.5" font-family="Times,serif" font-style="italic" font-size="10.00" fill="#000000">sensebet6.0_204722_definition:UNK &#160;&#160;&#160;&#160;&#160;&#160;&#160;&#160;&#160;</text>
<text text-anchor="start" x="2393.5" y="-39.5" font-family="Times,serif" font-size="10.00" fill="#000000"> &#160;&#160;&#160;&#160;&#160;&#160;&#160;</text>
<text text-anchor="start" x="2213" y="-23.5" font-family="Times,serif" font-size="10.00" fill="#000000"> &#160;&#160;&#160;&#160;&#160;&#160;&#160;value &#160;&#160;&#160;&#160;&#160;</text>
<text text-anchor="start" x="2307" y="-23.5" font-family="Times,serif" font-size="10.00" fill="#000000"> &#160;&#160;&#160;&#160;&#160;&#160;&#160;hoog boven de wal ui &#160;&#160;&#160;&#160;&#160;</text>
<text text-anchor="start" x="2178" y="-8.5" font-family="Times,serif" font-size="10.00" fill="#000000"> &#160;&#160;&#160;&#160;&#160;&#160;&#160;definitionComplement &#160;&#160;&#160;&#160;&#160;</text>
<text text-anchor="start" x="2312.5" y="-8.5" font-family="Times,serif" font-size="10.00" fill="#000000"> &#160;&#160;&#160;&#160;&#160;&#160;&#160;Alleen in historiser &#160;&#160;&#160;&#160;&#160;</text>
</g>
<!-- sensebet60204722&#45;&gt;sensebet60204722definition -->
<g id="edge9" class="edge">
<title>sensebet60204722&#45;&gt;sensebet60204722definition</title>
<path fill="none" stroke="#000088" d="M2197.5691,-105.372C2214.977,-92.3493 2238.4698,-74.7745 2258.8609,-59.5201"/>
<polygon fill="#000088" stroke="#000088" points="2267.0886,-53.365 2261.7769,-62.9586 2263.085,-56.3601 2259.0813,-59.3552 2259.0813,-59.3552 2259.0813,-59.3552 2263.085,-56.3601 2256.3857,-55.7519 2267.0886,-53.365 2267.0886,-53.365"/>
<text text-anchor="middle" x="2256.5" y="-73.6" font-family="Times,serif" font-size="8.00" fill="#000000">definition</text>
</g>
<!-- sensebet3078335 -->
<g id="node19" class="node">
<title>sensebet3078335</title>
<path fill="none" stroke="#000000" d="M268,-143.5C268,-143.5 104,-143.5 104,-143.5 98,-143.5 92,-137.5 92,-131.5 92,-131.5 92,-117.5 92,-117.5 92,-111.5 98,-105.5 104,-105.5 104,-105.5 268,-105.5 268,-105.5 274,-105.5 280,-111.5 280,-117.5 280,-117.5 280,-131.5 280,-131.5 280,-137.5 274,-143.5 268,-143.5"/>
<polygon fill="#add8e6" stroke="transparent" points="100,-124.5 100,-139.5 272,-139.5 272,-124.5 100,-124.5"/>
<text text-anchor="start" x="102" y="-130.5" font-family="Times,serif" font-size="10.00" fill="#000000"> &#160;&#160;&#160;&#160;&#160;&#160;&#160;&#160;&#160;</text>
<text text-anchor="start" x="125" y="-130.5" font-family="Times,serif" font-style="italic" font-size="10.00" fill="#000000">sensebet3.0_78335:UNK &#160;&#160;&#160;&#160;&#160;&#160;&#160;&#160;&#160;</text>
<text text-anchor="start" x="251" y="-130.5" font-family="Times,serif" font-size="10.00" fill="#000000"> &#160;&#160;&#160;&#160;&#160;&#160;&#160;</text>
<text text-anchor="start" x="114.5" y="-114.5" font-family="Times,serif" font-size="10.00" fill="#000000"> &#160;&#160;&#160;&#160;&#160;&#160;&#160;senseOrder &#160;&#160;&#160;&#160;&#160;</text>
<text text-anchor="start" x="220.5" y="-114.5" font-family="Times,serif" font-size="10.00" fill="#000000"> &#160;&#160;&#160;&#160;&#160;&#160;&#160;3 &#160;&#160;&#160;&#160;&#160;</text>
</g>
<!-- sensebet3078335&#45;&gt;sensebet3078335definition -->
<g id="edge10" class="edge">
<title>sensebet3078335&#45;&gt;sensebet3078335definition</title>
<path fill="none" stroke="#000088" d="M172.3678,-105.1384C162.1613,-90.6421 148.0516,-70.6023 136.6305,-54.381"/>
<polygon fill="#000088" stroke="#000088" points="130.6039,-45.8214 140.0404,-51.4074 133.4824,-49.9097 136.3609,-53.9981 136.3609,-53.9981 136.3609,-53.9981 133.4824,-49.9097 132.6814,-56.5887 130.6039,-45.8214 130.6039,-45.8214"/>
<text text-anchor="middle" x="169.5" y="-73.6" font-family="Times,serif" font-size="8.00" fill="#000000">definition</text>
</g>
<!-- sensebet80204831 -->
<g id="node20" class="node">
<title>sensebet80204831</title>
<path fill="none" stroke="#000000" d="M758.5,-143.5C758.5,-143.5 589.5,-143.5 589.5,-143.5 583.5,-143.5 577.5,-137.5 577.5,-131.5 577.5,-131.5 577.5,-117.5 577.5,-117.5 577.5,-111.5 583.5,-105.5 589.5,-105.5 589.5,-105.5 758.5,-105.5 758.5,-105.5 764.5,-105.5 770.5,-111.5 770.5,-117.5 770.5,-117.5 770.5,-131.5 770.5,-131.5 770.5,-137.5 764.5,-143.5 758.5,-143.5"/>
<polygon fill="#add8e6" stroke="transparent" points="586,-124.5 586,-139.5 763,-139.5 763,-124.5 586,-124.5"/>
<text text-anchor="start" x="588" y="-130.5" font-family="Times,serif" font-size="10.00" fill="#000000"> &#160;&#160;&#160;&#160;&#160;&#160;&#160;&#160;&#160;</text>
<text text-anchor="start" x="611" y="-130.5" font-family="Times,serif" font-style="italic" font-size="10.00" fill="#000000">sensebet8.0_204831:UNK &#160;&#160;&#160;&#160;&#160;&#160;&#160;&#160;&#160;</text>
<text text-anchor="start" x="742" y="-130.5" font-family="Times,serif" font-size="10.00" fill="#000000"> &#160;&#160;&#160;&#160;&#160;&#160;&#160;</text>
<text text-anchor="start" x="601.5" y="-114.5" font-family="Times,serif" font-size="10.00" fill="#000000"> &#160;&#160;&#160;&#160;&#160;&#160;&#160;senseOrder &#160;&#160;&#160;&#160;&#160;</text>
<text text-anchor="start" x="710" y="-114.5" font-family="Times,serif" font-size="10.00" fill="#000000"> &#160;&#160;&#160;&#160;&#160;&#160;&#160;8 &#160;&#160;&#160;&#160;&#160;</text>
</g>
<!-- sensebet80204831&#45;&gt;sensebet80204831definition -->
<g id="edge11" class="edge">
<title>sensebet80204831&#45;&gt;sensebet80204831definition</title>
<path fill="none" stroke="#000088" d="M674.1976,-105.1384C674.3194,-93.1985 674.4796,-77.4978 674.6248,-63.2676"/>
<polygon fill="#000088" stroke="#000088" points="674.7271,-53.2405 679.1248,-63.2859 674.6761,-58.2402 674.625,-63.24 674.625,-63.24 674.625,-63.24 674.6761,-58.2402 670.1252,-63.194 674.7271,-53.2405 674.7271,-53.2405"/>
<text text-anchor="middle" x="689.5" y="-73.6" font-family="Times,serif" font-size="8.00" fill="#000000">definition</text>
</g>
<!-- sensebet4078336 -->
<g id="node21" class="node">
<title>sensebet4078336</title>
<path fill="none" stroke="#000000" d="M965,-143.5C965,-143.5 801,-143.5 801,-143.5 795,-143.5 789,-137.5 789,-131.5 789,-131.5 789,-117.5 789,-117.5 789,-111.5 795,-105.5 801,-105.5 801,-105.5 965,-105.5 965,-105.5 971,-105.5 977,-111.5 977,-117.5 977,-117.5 977,-131.5 977,-131.5 977,-137.5 971,-143.5 965,-143.5"/>
<polygon fill="#add8e6" stroke="transparent" points="797,-124.5 797,-139.5 969,-139.5 969,-124.5 797,-124.5"/>
<text text-anchor="start" x="799" y="-130.5" font-family="Times,serif" font-size="10.00" fill="#000000"> &#160;&#160;&#160;&#160;&#160;&#160;&#160;&#160;&#160;</text>
<text text-anchor="start" x="822" y="-130.5" font-family="Times,serif" font-style="italic" font-size="10.00" fill="#000000">sensebet4.0_78336:UNK &#160;&#160;&#160;&#160;&#160;&#160;&#160;&#160;&#160;</text>
<text text-anchor="start" x="948" y="-130.5" font-family="Times,serif" font-size="10.00" fill="#000000"> &#160;&#160;&#160;&#160;&#160;&#160;&#160;</text>
<text text-anchor="start" x="811.5" y="-114.5" font-family="Times,serif" font-size="10.00" fill="#000000"> &#160;&#160;&#160;&#160;&#160;&#160;&#160;senseOrder &#160;&#160;&#160;&#160;&#160;</text>
<text text-anchor="start" x="917.5" y="-114.5" font-family="Times,serif" font-size="10.00" fill="#000000"> &#160;&#160;&#160;&#160;&#160;&#160;&#160;4 &#160;&#160;&#160;&#160;&#160;</text>
</g>
<!-- sensebet4078336&#45;&gt;sensebet4078336definition -->
<g id="edge12" class="edge">
<title>sensebet4078336&#45;&gt;sensebet4078336definition</title>
<path fill="none" stroke="#000088" d="M895.2492,-105.1384C904.4203,-90.6421 917.0986,-70.6023 927.361,-54.381"/>
<polygon fill="#000088" stroke="#000088" points="932.7762,-45.8214 931.2326,-56.6781 930.103,-50.0468 927.4298,-54.2722 927.4298,-54.2722 927.4298,-54.2722 930.103,-50.0468 923.6269,-51.8663 932.7762,-45.8214 932.7762,-45.8214"/>
<text text-anchor="middle" x="930.5" y="-73.6" font-family="Times,serif" font-size="8.00" fill="#000000">definition</text>
</g>
<!-- lemma78332 -->
<g id="node22" class="node">
<title>lemma78332</title>
<path fill="none" stroke="#000000" d="M1262,-234C1262,-234 1086,-234 1086,-234 1080,-234 1074,-228 1074,-222 1074,-222 1074,-208 1074,-208 1074,-202 1080,-196 1086,-196 1086,-196 1262,-196 1262,-196 1268,-196 1274,-202 1274,-208 1274,-208 1274,-222 1274,-222 1274,-228 1268,-234 1262,-234"/>
<polygon fill="#add8e6" stroke="transparent" points="1082,-215 1082,-230 1266,-230 1266,-215 1082,-215"/>
<text text-anchor="start" x="1084" y="-221" font-family="Times,serif" font-size="10.00" fill="#000000"> &#160;&#160;&#160;&#160;&#160;&#160;&#160;&#160;&#160;</text>
<text text-anchor="start" x="1107" y="-221" font-family="Times,serif" font-style="italic" font-size="10.00" fill="#000000">lemma_78332:LexicalEntry &#160;&#160;&#160;&#160;&#160;&#160;&#160;&#160;&#160;</text>
<text text-anchor="start" x="1245" y="-221" font-family="Times,serif" font-size="10.00" fill="#000000"> &#160;&#160;&#160;&#160;&#160;&#160;&#160;</text>
<text text-anchor="start" x="1103.5" y="-205" font-family="Times,serif" font-size="10.00" fill="#000000"> &#160;&#160;&#160;&#160;&#160;&#160;&#160;label &#160;&#160;&#160;&#160;&#160;</text>
<text text-anchor="start" x="1199" y="-205" font-family="Times,serif" font-size="10.00" fill="#000000"> &#160;&#160;&#160;&#160;&#160;&#160;&#160;kat &#160;&#160;&#160;&#160;&#160;</text>
</g>
<!-- lemma78332&#45;&gt;sensebet2078334 -->
<g id="edge16" class="edge">
<title>lemma78332&#45;&gt;sensebet2078334</title>
<path fill="none" stroke="#000088" d="M1204.7508,-195.8073C1226.5702,-182.1889 1256.0429,-163.7939 1279.5881,-149.0984"/>
<polygon fill="#000088" stroke="#000088" points="1288.2936,-143.6651 1282.1929,-152.7773 1284.0519,-146.3124 1279.8103,-148.9598 1279.8103,-148.9598 1279.8103,-148.9598 1284.0519,-146.3124 1277.4276,-145.1424 1288.2936,-143.6651 1288.2936,-143.6651"/>
<text text-anchor="middle" x="1255" y="-171.6" font-family="Times,serif" font-size="8.00" fill="#000000">sense</text>
</g>
<!-- lemma78332&#45;&gt;lemmavorm78332 -->
<g id="edge13" class="edge">
<title>lemma78332&#45;&gt;lemmavorm78332</title>
<path fill="none" stroke="#000088" d="M1158.5186,-195.8073C1149.9355,-185.1667 1139.0003,-171.6099 1128.9741,-159.1803"/>
<polygon fill="#000088" stroke="#000088" points="1122.5507,-151.2169 1132.3316,-156.1751 1125.6899,-155.1087 1128.8291,-159.0004 1128.8291,-159.0004 1128.8291,-159.0004 1125.6899,-155.1087 1125.3265,-161.8257 1122.5507,-151.2169 1122.5507,-151.2169"/>
<text text-anchor="middle" x="1168.5" y="-171.6" font-family="Times,serif" font-size="8.00" fill="#000000">canonicalForm</text>
</g>
<!-- lemma78332&#45;&gt;sensebet50204707 -->
<g id="edge19" class="edge">
<title>lemma78332&#45;&gt;sensebet50204707</title>
<path fill="none" stroke="#000088" d="M1073.9753,-206.8449C953.5864,-196.4741 745.458,-176.7734 568,-151 556.2874,-149.2989 544.0696,-147.3323 531.9244,-145.2544"/>
<polygon fill="#000088" stroke="#000088" points="521.7521,-143.4862 532.375,-140.7653 526.6782,-144.3425 531.6044,-145.1989 531.6044,-145.1989 531.6044,-145.1989 526.6782,-144.3425 530.8337,-149.6324 521.7521,-143.4862 521.7521,-143.4862"/>
<text text-anchor="middle" x="776" y="-171.6" font-family="Times,serif" font-size="8.00" fill="#000000">sense</text>
</g>
<!-- lemma78332&#45;&gt;sensebet1078333 -->
<g id="edge14" class="edge">
<title>lemma78332&#45;&gt;sensebet1078333</title>
<path fill="none" stroke="#000088" d="M1274.2279,-206.3691C1449.0685,-191.1895 1796.562,-160.4277 1852,-151 1862.0797,-149.2859 1872.6125,-147.133 1882.9702,-144.7992"/>
<polygon fill="#000088" stroke="#000088" points="1892.8266,-142.5147 1884.101,-149.1565 1887.9558,-143.6437 1883.0849,-144.7727 1883.0849,-144.7727 1883.0849,-144.7727 1887.9558,-143.6437 1882.0688,-140.3889 1892.8266,-142.5147 1892.8266,-142.5147"/>
<text text-anchor="middle" x="1681" y="-171.6" font-family="Times,serif" font-size="8.00" fill="#000000">sense</text>
</g>
<!-- lemma78332&#45;&gt;sensebet11195644 -->
<g id="edge15" class="edge">
<title>lemma78332&#45;&gt;sensebet11195644</title>
<path fill="none" stroke="#000088" d="M1249.2743,-195.9179C1308.0871,-181.0087 1389.679,-160.3251 1449.9249,-145.0527"/>
<polygon fill="#000088" stroke="#000088" points="1459.7805,-142.5542 1451.1929,-149.3736 1454.9338,-143.7829 1450.0871,-145.0116 1450.0871,-145.0116 1450.0871,-145.0116 1454.9338,-143.7829 1448.9813,-140.6496 1459.7805,-142.5542 1459.7805,-142.5542"/>
<text text-anchor="middle" x="1361" y="-171.6" font-family="Times,serif" font-size="8.00" fill="#000000">sense</text>
</g>
<!-- lemma78332&#45;&gt;sensebet70204817 -->
<g id="edge21" class="edge">
<title>lemma78332&#45;&gt;sensebet70204817</title>
<path fill="none" stroke="#000088" d="M1274.0529,-204.4396C1368.7686,-193.6927 1514.7167,-175.1896 1640,-151 1647.9448,-149.466 1656.185,-147.7075 1664.4015,-145.8418"/>
<polygon fill="#000088" stroke="#000088" points="1674.3908,-143.5209 1665.6687,-150.1674 1669.5205,-144.6525 1664.6502,-145.7841 1664.6502,-145.7841 1664.6502,-145.7841 1669.5205,-144.6525 1663.6318,-141.4009 1674.3908,-143.5209 1674.3908,-143.5209"/>
<text text-anchor="middle" x="1534" y="-171.6" font-family="Times,serif" font-size="8.00" fill="#000000">sense</text>
</g>
<!-- lemma78332&#45;&gt;sensebet60204722 -->
<g id="edge20" class="edge">
<title>lemma78332&#45;&gt;sensebet60204722</title>
<path fill="none" stroke="#000088" d="M1274.083,-210.3196C1473.9688,-200.5604 1916.2449,-176.7921 2066,-151 2074.5568,-149.5263 2083.4426,-147.7323 2092.266,-145.7798"/>
<polygon fill="#000088" stroke="#000088" points="2102.1807,-143.5166 2093.4329,-150.1293 2097.306,-144.6294 2092.4314,-145.7421 2092.4314,-145.7421 2092.4314,-145.7421 2097.306,-144.6294 2091.4299,-141.355 2102.1807,-143.5166 2102.1807,-143.5166"/>
<text text-anchor="middle" x="1907" y="-171.6" font-family="Times,serif" font-size="8.00" fill="#000000">sense</text>
</g>
<!-- lemma78332&#45;&gt;sensebet3078335 -->
<g id="edge17" class="edge">
<title>lemma78332&#45;&gt;sensebet3078335</title>
<path fill="none" stroke="#000088" d="M1073.8714,-211.4659C913.7796,-204.9266 590.5558,-188.0762 319,-151 307.5184,-149.4324 295.5355,-147.488 283.6684,-145.3697"/>
<polygon fill="#000088" stroke="#000088" points="273.7409,-143.5538 284.3874,-140.9266 278.6593,-144.4535 283.5777,-145.3532 283.5777,-145.3532 283.5777,-145.3532 278.6593,-144.4535 282.768,-149.7797 273.7409,-143.5538 273.7409,-143.5538"/>
<text text-anchor="middle" x="562" y="-171.6" font-family="Times,serif" font-size="8.00" fill="#000000">sense</text>
</g>
<!-- lemma78332&#45;&gt;sensebet80204831 -->
<g id="edge22" class="edge">
<title>lemma78332&#45;&gt;sensebet80204831</title>
<path fill="none" stroke="#000088" d="M1073.9906,-201.1237C994.097,-189.4693 879.4388,-171.4685 780,-151 772.423,-149.4404 764.5701,-147.7051 756.7215,-145.8898"/>
<polygon fill="#000088" stroke="#000088" points="746.8032,-143.5548 757.5684,-141.4663 751.6702,-144.7007 756.5371,-145.8465 756.5371,-145.8465 756.5371,-145.8465 751.6702,-144.7007 755.5059,-150.2268 746.8032,-143.5548 746.8032,-143.5548"/>
<text text-anchor="middle" x="929" y="-171.6" font-family="Times,serif" font-size="8.00" fill="#000000">sense</text>
</g>
<!-- lemma78332&#45;&gt;sensebet4078336 -->
<g id="edge18" class="edge">
<title>lemma78332&#45;&gt;sensebet4078336</title>
<path fill="none" stroke="#000088" d="M1112.642,-195.9179C1066.3092,-181.5085 1002.6326,-161.7053 954.0825,-146.6064"/>
<polygon fill="#000088" stroke="#000088" points="944.2741,-143.556 955.1594,-142.2288 949.0485,-145.0409 953.823,-146.5258 953.823,-146.5258 953.823,-146.5258 949.0485,-145.0409 952.4866,-150.8228 944.2741,-143.556 944.2741,-143.556"/>
<text text-anchor="middle" x="1063" y="-171.6" font-family="Times,serif" font-size="8.00" fill="#000000">sense</text>
</g>
</g>
</svg>
