<svg width="2466pt" height="242pt"
 viewBox="0.00 0.00 2466.00 242.00" xmlns="http://www.w3.org/2000/svg" xmlns:xlink="http://www.w3.org/1999/xlink">
<g id="graph0" class="graph" transform="scale(1 1) rotate(0) translate(4 238)">
<title>G</title>
<polygon fill="#ffffff" stroke="transparent" points="-4,4 -4,-238 2462,-238 2462,4 -4,4"/>
<!-- sensebet4078336definition -->
<g id="node1" class="node">
<title>sensebet4078336definition</title>
<path fill="none" stroke="#000000" d="M1050,-45.5C1050,-45.5 840,-45.5 840,-45.5 834,-45.5 828,-39.5 828,-33.5 828,-33.5 828,-19.5 828,-19.5 828,-13.5 834,-7.5 840,-7.5 840,-7.5 1050,-7.5 1050,-7.5 1056,-7.5 1062,-13.5 1062,-19.5 1062,-19.5 1062,-33.5 1062,-33.5 1062,-39.5 1056,-45.5 1050,-45.5"/>
<polygon fill="#add8e6" stroke="transparent" points="836,-26.5 836,-41.5 1054,-41.5 1054,-26.5 836,-26.5"/>
<text text-anchor="start" x="838" y="-32.5" font-family="Times,serif" font-size="10.00" fill="#000000"> &#160;&#160;&#160;&#160;&#160;&#160;&#160;&#160;&#160;</text>
<text text-anchor="start" x="861" y="-32.5" font-family="Times,serif" font-style="italic" font-size="10.00" fill="#000000">sensebet4.0_78336_definition:UNK &#160;&#160;&#160;&#160;&#160;&#160;&#160;&#160;&#160;</text>
<text text-anchor="start" x="1033" y="-32.5" font-family="Times,serif" font-size="10.00" fill="#000000"> &#160;&#160;&#160;&#160;&#160;&#160;&#160;</text>
<text text-anchor="start" x="847.5" y="-16.5" font-family="Times,serif" font-size="10.00" fill="#000000"> &#160;&#160;&#160;&#160;&#160;&#160;&#160;value &#160;&#160;&#160;&#160;&#160;</text>
<text text-anchor="start" x="925.5" y="-16.5" font-family="Times,serif" font-size="10.00" fill="#000000"> &#160;&#160;&#160;&#160;&#160;&#160;&#160;bitse opmerking; sna &#160;&#160;&#160;&#160;&#160;</text>
</g>
<!-- sensebet1078333definition -->
<g id="node2" class="node">
<title>sensebet1078333definition</title>
<path fill="none" stroke="#000000" d="M2153,-53C2153,-53 1911,-53 1911,-53 1905,-53 1899,-47 1899,-41 1899,-41 1899,-12 1899,-12 1899,-6 1905,0 1911,0 1911,0 2153,0 2153,0 2159,0 2165,-6 2165,-12 2165,-12 2165,-41 2165,-41 2165,-47 2159,-53 2153,-53"/>
<polygon fill="#add8e6" stroke="transparent" points="1907,-33.5 1907,-48.5 2157,-48.5 2157,-33.5 1907,-33.5"/>
<text text-anchor="start" x="1925" y="-39.5" font-family="Times,serif" font-size="10.00" fill="#000000"> &#160;&#160;&#160;&#160;&#160;&#160;&#160;&#160;&#160;</text>
<text text-anchor="start" x="1948" y="-39.5" font-family="Times,serif" font-style="italic" font-size="10.00" fill="#000000">sensebet1.0_78333_definition:UNK &#160;&#160;&#160;&#160;&#160;&#160;&#160;&#160;&#160;</text>
<text text-anchor="start" x="2120" y="-39.5" font-family="Times,serif" font-size="10.00" fill="#000000"> &#160;&#160;&#160;&#160;&#160;&#160;&#160;</text>
<text text-anchor="start" x="1944" y="-23.5" font-family="Times,serif" font-size="10.00" fill="#000000"> &#160;&#160;&#160;&#160;&#160;&#160;&#160;value &#160;&#160;&#160;&#160;&#160;</text>
<text text-anchor="start" x="2040" y="-23.5" font-family="Times,serif" font-size="10.00" fill="#000000"> &#160;&#160;&#160;&#160;&#160;&#160;&#160;klein huisdier dat m &#160;&#160;&#160;&#160;&#160;</text>
<text text-anchor="start" x="1909" y="-8.5" font-family="Times,serif" font-size="10.00" fill="#000000"> &#160;&#160;&#160;&#160;&#160;&#160;&#160;definitionComplement &#160;&#160;&#160;&#160;&#160;</text>
<text text-anchor="start" x="2038" y="-8.5" font-family="Times,serif" font-size="10.00" fill="#000000"> &#160;&#160;&#160;&#160;&#160;&#160;&#160;Zowel in toepassing &#160;&#160;&#160;&#160;&#160;&#160;</text>
</g>
<!-- sensebet80204831definition -->
<g id="node3" class="node">
<title>sensebet80204831definition</title>
<path fill="none" stroke="#000000" d="M798,-53C798,-53 552,-53 552,-53 546,-53 540,-47 540,-41 540,-41 540,-12 540,-12 540,-6 546,0 552,0 552,0 798,0 798,0 804,0 810,-6 810,-12 810,-12 810,-41 810,-41 810,-47 804,-53 798,-53"/>
<polygon fill="#add8e6" stroke="transparent" points="548,-33.5 548,-48.5 802,-48.5 802,-33.5 548,-33.5"/>
<text text-anchor="start" x="565.5" y="-39.5" font-family="Times,serif" font-size="10.00" fill="#000000"> &#160;&#160;&#160;&#160;&#160;&#160;&#160;&#160;&#160;</text>
<text text-anchor="start" x="588.5" y="-39.5" font-family="Times,serif" font-style="italic" font-size="10.00" fill="#000000">sensebet8.0_204831_definition:UNK &#160;&#160;&#160;&#160;&#160;&#160;&#160;&#160;&#160;</text>
<text text-anchor="start" x="765.5" y="-39.5" font-family="Times,serif" font-size="10.00" fill="#000000"> &#160;&#160;&#160;&#160;&#160;&#160;&#160;</text>
<text text-anchor="start" x="585" y="-23.5" font-family="Times,serif" font-size="10.00" fill="#000000"> &#160;&#160;&#160;&#160;&#160;&#160;&#160;value &#160;&#160;&#160;&#160;&#160;</text>
<text text-anchor="start" x="679" y="-23.5" font-family="Times,serif" font-size="10.00" fill="#000000"> &#160;&#160;&#160;&#160;&#160;&#160;&#160;gesel van touwen met &#160;&#160;&#160;&#160;&#160;</text>
<text text-anchor="start" x="550" y="-8.5" font-family="Times,serif" font-size="10.00" fill="#000000"> &#160;&#160;&#160;&#160;&#160;&#160;&#160;definitionComplement &#160;&#160;&#160;&#160;&#160;</text>
<text text-anchor="start" x="684.5" y="-8.5" font-family="Times,serif" font-size="10.00" fill="#000000"> &#160;&#160;&#160;&#160;&#160;&#160;&#160;Alleen in historiser &#160;&#160;&#160;&#160;&#160;</text>
</g>
<!-- sensebet3078335definition -->
<g id="node4" class="node">
<title>sensebet3078335definition</title>
<path fill="none" stroke="#000000" d="M222,-45.5C222,-45.5 12,-45.5 12,-45.5 6,-45.5 0,-39.5 0,-33.5 0,-33.5 0,-19.5 0,-19.5 0,-13.5 6,-7.5 12,-7.5 12,-7.5 222,-7.5 222,-7.5 228,-7.5 234,-13.5 234,-19.5 234,-19.5 234,-33.5 234,-33.5 234,-39.5 228,-45.5 222,-45.5"/>
<polygon fill="#add8e6" stroke="transparent" points="8,-26.5 8,-41.5 226,-41.5 226,-26.5 8,-26.5"/>
<text text-anchor="start" x="10" y="-32.5" font-family="Times,serif" font-size="10.00" fill="#000000"> &#160;&#160;&#160;&#160;&#160;&#160;&#160;&#160;&#160;</text>
<text text-anchor="start" x="33" y="-32.5" font-family="Times,serif" font-style="italic" font-size="10.00" fill="#000000">sensebet3.0_78335_definition:UNK &#160;&#160;&#160;&#160;&#160;&#160;&#160;&#160;&#160;</text>
<text text-anchor="start" x="205" y="-32.5" font-family="Times,serif" font-size="10.00" fill="#000000"> &#160;&#160;&#160;&#160;&#160;&#160;&#160;</text>
<text text-anchor="start" x="19.5" y="-16.5" font-family="Times,serif" font-size="10.00" fill="#000000"> &#160;&#160;&#160;&#160;&#160;&#160;&#160;value &#160;&#160;&#160;&#160;&#160;</text>
<text text-anchor="start" x="98" y="-16.5" font-family="Times,serif" font-size="10.00" fill="#000000"> &#160;&#160;&#160;&#160;&#160;&#160;&#160;bitse, vinnige vrouw &#160;&#160;&#160;&#160;&#160;</text>
</g>
<!-- sensebet11195644definition -->
<g id="node5" class="node">
<title>sensebet11195644definition</title>
<path fill="none" stroke="#000000" d="M1611.5,-45.5C1611.5,-45.5 1396.5,-45.5 1396.5,-45.5 1390.5,-45.5 1384.5,-39.5 1384.5,-33.5 1384.5,-33.5 1384.5,-19.5 1384.5,-19.5 1384.5,-13.5 1390.5,-7.5 1396.5,-7.5 1396.5,-7.5 1611.5,-7.5 1611.5,-7.5 1617.5,-7.5 1623.5,-13.5 1623.5,-19.5 1623.5,-19.5 1623.5,-33.5 1623.5,-33.5 1623.5,-39.5 1617.5,-45.5 1611.5,-45.5"/>
<polygon fill="#add8e6" stroke="transparent" points="1393,-26.5 1393,-41.5 1616,-41.5 1616,-26.5 1393,-26.5"/>
<text text-anchor="start" x="1395" y="-32.5" font-family="Times,serif" font-size="10.00" fill="#000000"> &#160;&#160;&#160;&#160;&#160;&#160;&#160;&#160;&#160;</text>
<text text-anchor="start" x="1418" y="-32.5" font-family="Times,serif" font-style="italic" font-size="10.00" fill="#000000">sensebet1.1_195644_definition:UNK &#160;&#160;&#160;&#160;&#160;&#160;&#160;&#160;&#160;</text>
<text text-anchor="start" x="1595" y="-32.5" font-family="Times,serif" font-size="10.00" fill="#000000"> &#160;&#160;&#160;&#160;&#160;&#160;&#160;</text>
<text text-anchor="start" x="1406.5" y="-16.5" font-family="Times,serif" font-size="10.00" fill="#000000"> &#160;&#160;&#160;&#160;&#160;&#160;&#160;value &#160;&#160;&#160;&#160;&#160;</text>
<text text-anchor="start" x="1489" y="-16.5" font-family="Times,serif" font-size="10.00" fill="#000000"> &#160;&#160;&#160;&#160;&#160;&#160;&#160;beeld of afbeelding &#160;&#160;&#160;&#160;&#160;&#160;</text>
</g>
<!-- sensebet2078334 -->
<g id="node6" class="node">
<title>sensebet2078334</title>
<path fill="none" stroke="#000000" d="M1416,-143.5C1416,-143.5 1252,-143.5 1252,-143.5 1246,-143.5 1240,-137.5 1240,-131.5 1240,-131.5 1240,-117.5 1240,-117.5 1240,-111.5 1246,-105.5 1252,-105.5 1252,-105.5 1416,-105.5 1416,-105.5 1422,-105.5 1428,-111.5 1428,-117.5 1428,-117.5 1428,-131.5 1428,-131.5 1428,-137.5 1422,-143.5 1416,-143.5"/>
<polygon fill="#add8e6" stroke="transparent" points="1248,-124.5 1248,-139.5 1420,-139.5 1420,-124.5 1248,-124.5"/>
<text text-anchor="start" x="1250" y="-130.5" font-family="Times,serif" font-size="10.00" fill="#000000"> &#160;&#160;&#160;&#160;&#160;&#160;&#160;&#160;&#160;</text>
<text text-anchor="start" x="1273" y="-130.5" font-family="Times,serif" font-style="italic" font-size="10.00" fill="#000000">sensebet2.0_78334:UNK &#160;&#160;&#160;&#160;&#160;&#160;&#160;&#160;&#160;</text>
<text text-anchor="start" x="1399" y="-130.5" font-family="Times,serif" font-size="10.00" fill="#000000"> &#160;&#160;&#160;&#160;&#160;&#160;&#160;</text>
<text text-anchor="start" x="1262.5" y="-114.5" font-family="Times,serif" font-size="10.00" fill="#000000"> &#160;&#160;&#160;&#160;&#160;&#160;&#160;senseOrder &#160;&#160;&#160;&#160;&#160;</text>
<text text-anchor="start" x="1368.5" y="-114.5" font-family="Times,serif" font-size="10.00" fill="#000000"> &#160;&#160;&#160;&#160;&#160;&#160;&#160;2 &#160;&#160;&#160;&#160;&#160;</text>
</g>
<!-- sensebet2078334definition -->
<g id="node7" class="node">
<title>sensebet2078334definition</title>
<path fill="none" stroke="#000000" d="M1354.5,-53C1354.5,-53 1107.5,-53 1107.5,-53 1101.5,-53 1095.5,-47 1095.5,-41 1095.5,-41 1095.5,-12 1095.5,-12 1095.5,-6 1101.5,0 1107.5,0 1107.5,0 1354.5,0 1354.5,0 1360.5,0 1366.5,-6 1366.5,-12 1366.5,-12 1366.5,-41 1366.5,-41 1366.5,-47 1360.5,-53 1354.5,-53"/>
<polygon fill="#add8e6" stroke="transparent" points="1104,-33.5 1104,-48.5 1359,-48.5 1359,-33.5 1104,-33.5"/>
<text text-anchor="start" x="1124.5" y="-39.5" font-family="Times,serif" font-size="10.00" fill="#000000"> &#160;&#160;&#160;&#160;&#160;&#160;&#160;&#160;&#160;</text>
<text text-anchor="start" x="1147.5" y="-39.5" font-family="Times,serif" font-style="italic" font-size="10.00" fill="#000000">sensebet2.0_78334_definition:UNK &#160;&#160;&#160;&#160;&#160;&#160;&#160;&#160;&#160;</text>
<text text-anchor="start" x="1319.5" y="-39.5" font-family="Times,serif" font-size="10.00" fill="#000000"> &#160;&#160;&#160;&#160;&#160;&#160;&#160;</text>
<text text-anchor="start" x="1141" y="-23.5" font-family="Times,serif" font-size="10.00" fill="#000000"> &#160;&#160;&#160;&#160;&#160;&#160;&#160;value &#160;&#160;&#160;&#160;&#160;</text>
<text text-anchor="start" x="1239.5" y="-23.5" font-family="Times,serif" font-size="10.00" fill="#000000"> &#160;&#160;&#160;&#160;&#160;&#160;&#160;roofdier dat behoort &#160;&#160;&#160;&#160;&#160;</text>
<text text-anchor="start" x="1106" y="-8.5" font-family="Times,serif" font-size="10.00" fill="#000000"> &#160;&#160;&#160;&#160;&#160;&#160;&#160;definitionComplement &#160;&#160;&#160;&#160;&#160;</text>
<text text-anchor="start" x="1235" y="-8.5" font-family="Times,serif" font-size="10.00" fill="#000000"> &#160;&#160;&#160;&#160;&#160;&#160;&#160;Vaak in het meervoud &#160;&#160;&#160;&#160;&#160;</text>
</g>
<!-- sensebet2078334&#45;&gt;sensebet2078334definition -->
<g id="edge1" class="edge">
<title>sensebet2078334&#45;&gt;sensebet2078334definition</title>
<path fill="none" stroke="#000088" d="M1313.6505,-105.1384C1300.2486,-92.387 1282.3385,-75.3464 1266.6173,-60.3883"/>
<polygon fill="#000088" stroke="#000088" points="1259.1048,-53.2405 1269.4514,-56.8734 1262.7272,-56.687 1266.3495,-60.1336 1266.3495,-60.1336 1266.3495,-60.1336 1262.7272,-56.687 1263.2477,-63.3937 1259.1048,-53.2405 1259.1048,-53.2405"/>
<text text-anchor="middle" x="1300.5" y="-73.6" font-family="Times,serif" font-size="8.00" fill="#000000">definition</text>
</g>
<!-- lemmavorm78332 -->
<g id="node8" class="node">
<title>lemmavorm78332</title>
<path fill="none" stroke="#000000" d="M1210,-151C1210,-151 992,-151 992,-151 986,-151 980,-145 980,-139 980,-139 980,-110 980,-110 980,-104 986,-98 992,-98 992,-98 1210,-98 1210,-98 1216,-98 1222,-104 1222,-110 1222,-110 1222,-139 1222,-139 1222,-145 1216,-151 1210,-151"/>
<polygon fill="#add8e6" stroke="transparent" points="988,-131.5 988,-146.5 1214,-146.5 1214,-131.5 988,-131.5"/>
<text text-anchor="start" x="1000" y="-137.5" font-family="Times,serif" font-size="10.00" fill="#000000"> &#160;&#160;&#160;&#160;&#160;&#160;&#160;&#160;&#160;</text>
<text text-anchor="start" x="1023" y="-137.5" font-family="Times,serif" font-style="italic" font-size="10.00" fill="#000000">lemmavorm_78332:ontolexForm &#160;&#160;&#160;&#160;&#160;&#160;&#160;&#160;&#160;</text>
<text text-anchor="start" x="1183" y="-137.5" font-family="Times,serif" font-size="10.00" fill="#000000"> &#160;&#160;&#160;&#160;&#160;&#160;&#160;</text>
<text text-anchor="start" x="993.5" y="-121.5" font-family="Times,serif" font-size="10.00" fill="#000000"> &#160;&#160;&#160;&#160;&#160;&#160;&#160;ontolexwrittenRepresentation &#160;&#160;&#160;&#160;&#160;</text>
<text text-anchor="start" x="1161" y="-121.5" font-family="Times,serif" font-size="10.00" fill="#000000"> &#160;&#160;&#160;&#160;&#160;&#160;&#160;kat &#160;&#160;&#160;&#160;&#160;</text>
<text text-anchor="start" x="990" y="-106.5" font-family="Times,serif" font-size="10.00" fill="#000000"> &#160;&#160;&#160;&#160;&#160;&#160;&#160;ontolexphoneticRepresentation &#160;&#160;&#160;&#160;&#160;</text>
<text text-anchor="start" x="1155" y="-106.5" font-family="Times,serif" font-size="10.00" fill="#000000"> &#160;&#160;&#160;&#160;&#160;&#160;&#160;*k ɑ t &#160;&#160;&#160;&#160;&#160;</text>
</g>
<!-- sensebet50204707 -->
<g id="node9" class="node">
<title>sensebet50204707</title>
<path fill="none" stroke="#000000" d="M494.5,-143.5C494.5,-143.5 325.5,-143.5 325.5,-143.5 319.5,-143.5 313.5,-137.5 313.5,-131.5 313.5,-131.5 313.5,-117.5 313.5,-117.5 313.5,-111.5 319.5,-105.5 325.5,-105.5 325.5,-105.5 494.5,-105.5 494.5,-105.5 500.5,-105.5 506.5,-111.5 506.5,-117.5 506.5,-117.5 506.5,-131.5 506.5,-131.5 506.5,-137.5 500.5,-143.5 494.5,-143.5"/>
<polygon fill="#add8e6" stroke="transparent" points="322,-124.5 322,-139.5 499,-139.5 499,-124.5 322,-124.5"/>
<text text-anchor="start" x="324" y="-130.5" font-family="Times,serif" font-size="10.00" fill="#000000"> &#160;&#160;&#160;&#160;&#160;&#160;&#160;&#160;&#160;</text>
<text text-anchor="start" x="347" y="-130.5" font-family="Times,serif" font-style="italic" font-size="10.00" fill="#000000">sensebet5.0_204707:UNK &#160;&#160;&#160;&#160;&#160;&#160;&#160;&#160;&#160;</text>
<text text-anchor="start" x="478" y="-130.5" font-family="Times,serif" font-size="10.00" fill="#000000"> &#160;&#160;&#160;&#160;&#160;&#160;&#160;</text>
<text text-anchor="start" x="337.5" y="-114.5" font-family="Times,serif" font-size="10.00" fill="#000000"> &#160;&#160;&#160;&#160;&#160;&#160;&#160;senseOrder &#160;&#160;&#160;&#160;&#160;</text>
<text text-anchor="start" x="446" y="-114.5" font-family="Times,serif" font-size="10.00" fill="#000000"> &#160;&#160;&#160;&#160;&#160;&#160;&#160;5 &#160;&#160;&#160;&#160;&#160;</text>
</g>
<!-- sensebet50204707definition -->
<g id="node10" class="node">
<title>sensebet50204707definition</title>
<path fill="none" stroke="#000000" d="M510,-53C510,-53 264,-53 264,-53 258,-53 252,-47 252,-41 252,-41 252,-12 252,-12 252,-6 258,0 264,0 264,0 510,0 510,0 516,0 522,-6 522,-12 522,-12 522,-41 522,-41 522,-47 516,-53 510,-53"/>
<polygon fill="#add8e6" stroke="transparent" points="260,-33.5 260,-48.5 514,-48.5 514,-33.5 260,-33.5"/>
<text text-anchor="start" x="277.5" y="-39.5" font-family="Times,serif" font-size="10.00" fill="#000000"> &#160;&#160;&#160;&#160;&#160;&#160;&#160;&#160;&#160;</text>
<text text-anchor="start" x="300.5" y="-39.5" font-family="Times,serif" font-style="italic" font-size="10.00" fill="#000000">sensebet5.0_204707_definition:UNK &#160;&#160;&#160;&#160;&#160;&#160;&#160;&#160;&#160;</text>
<text text-anchor="start" x="477.5" y="-39.5" font-family="Times,serif" font-size="10.00" fill="#000000"> &#160;&#160;&#160;&#160;&#160;&#160;&#160;</text>
<text text-anchor="start" x="297" y="-23.5" font-family="Times,serif" font-size="10.00" fill="#000000"> &#160;&#160;&#160;&#160;&#160;&#160;&#160;value &#160;&#160;&#160;&#160;&#160;</text>
<text text-anchor="start" x="391" y="-23.5" font-family="Times,serif" font-size="10.00" fill="#000000"> &#160;&#160;&#160;&#160;&#160;&#160;&#160;middeleeuws belegeri &#160;&#160;&#160;&#160;&#160;</text>
<text text-anchor="start" x="262" y="-8.5" font-family="Times,serif" font-size="10.00" fill="#000000"> &#160;&#160;&#160;&#160;&#160;&#160;&#160;definitionComplement &#160;&#160;&#160;&#160;&#160;</text>
<text text-anchor="start" x="396.5" y="-8.5" font-family="Times,serif" font-size="10.00" fill="#000000"> &#160;&#160;&#160;&#160;&#160;&#160;&#160;Alleen in historiser &#160;&#160;&#160;&#160;&#160;</text>
</g>
<!-- sensebet50204707&#45;&gt;sensebet50204707definition -->
<g id="edge2" class="edge">
<title>sensebet50204707&#45;&gt;sensebet50204707definition</title>
<path fill="none" stroke="#000088" d="M405.4559,-105.1384C402.6537,-93.1985 398.9689,-77.4978 395.6291,-63.2676"/>
<polygon fill="#000088" stroke="#000088" points="393.2758,-53.2405 399.9417,-61.9477 394.4183,-58.1082 395.5608,-62.976 395.5608,-62.976 395.5608,-62.976 394.4183,-58.1082 391.1798,-64.0042 393.2758,-53.2405 393.2758,-53.2405"/>
<text text-anchor="middle" x="415.5" y="-73.6" font-family="Times,serif" font-size="8.00" fill="#000000">definition</text>
</g>
<!-- relationsensebet11195644 -->
<g id="node11" class="node">
<title>relationsensebet11195644</title>
<path fill="none" stroke="#000000" d="M2097,-233C2097,-233 1851,-233 1851,-233 1845,-233 1839,-227 1839,-221 1839,-221 1839,-209 1839,-209 1839,-203 1845,-197 1851,-197 1851,-197 2097,-197 2097,-197 2103,-197 2109,-203 2109,-209 2109,-209 2109,-221 2109,-221 2109,-227 2103,-233 2097,-233"/>
<polygon fill="#add8e6" stroke="transparent" points="1847,-207 1847,-222 2101,-222 2101,-207 1847,-207"/>
<text text-anchor="start" x="1849.5" y="-213" font-family="Times,serif" font-size="10.00" fill="#000000"> &#160;&#160;&#160;&#160;&#160;&#160;&#160;&#160;&#160;</text>
<text text-anchor="start" x="1872.5" y="-213" font-family="Times,serif" font-style="italic" font-size="10.00" fill="#000000">relation_sensebet1.1_195644:SenseRelation &#160;&#160;&#160;&#160;&#160;&#160;&#160;&#160;&#160;</text>
<text text-anchor="start" x="2079.5" y="-213" font-family="Times,serif" font-size="10.00" fill="#000000"> &#160;&#160;&#160;&#160;&#160;&#160;&#160;</text>
</g>
<!-- sensebet1078333 -->
<g id="node12" class="node">
<title>sensebet1078333</title>
<path fill="none" stroke="#000000" d="M2060,-142.5C2060,-142.5 1888,-142.5 1888,-142.5 1882,-142.5 1876,-136.5 1876,-130.5 1876,-130.5 1876,-118.5 1876,-118.5 1876,-112.5 1882,-106.5 1888,-106.5 1888,-106.5 2060,-106.5 2060,-106.5 2066,-106.5 2072,-112.5 2072,-118.5 2072,-118.5 2072,-130.5 2072,-130.5 2072,-136.5 2066,-142.5 2060,-142.5"/>
<polygon fill="#add8e6" stroke="transparent" points="1884,-116.5 1884,-131.5 2064,-131.5 2064,-116.5 1884,-116.5"/>
<text text-anchor="start" x="1886.5" y="-122.5" font-family="Times,serif" font-size="10.00" fill="#000000"> &#160;&#160;&#160;&#160;&#160;&#160;&#160;&#160;&#160;</text>
<text text-anchor="start" x="1909.5" y="-122.5" font-family="Times,serif" font-style="italic" font-size="10.00" fill="#000000">sense_bet1.0_78333:Class &#160;&#160;&#160;&#160;&#160;&#160;&#160;&#160;&#160;</text>
<text text-anchor="start" x="2042.5" y="-122.5" font-family="Times,serif" font-size="10.00" fill="#000000"> &#160;&#160;&#160;&#160;&#160;&#160;&#160;</text>
</g>
<!-- relationsensebet11195644&#45;&gt;sensebet1078333 -->
<g id="edge3" class="edge">
<title>relationsensebet11195644&#45;&gt;sensebet1078333</title>
<path fill="none" stroke="#000088" d="M1974,-196.686C1974,-184.174 1974,-167.342 1974,-153.0789"/>
<polygon fill="#000088" stroke="#000088" points="1974,-142.7868 1978.5001,-152.7867 1974,-147.7868 1974.0001,-152.7868 1974.0001,-152.7868 1974.0001,-152.7868 1974,-147.7868 1969.5001,-152.7868 1974,-142.7868 1974,-142.7868"/>
<text text-anchor="middle" x="1985" y="-171.6" font-family="Times,serif" font-size="8.00" fill="#000000">source</text>
</g>
<!-- sensebet11195644 -->
<g id="node13" class="node">
<title>sensebet11195644</title>
<path fill="none" stroke="#000000" d="M1634,-142.5C1634,-142.5 1458,-142.5 1458,-142.5 1452,-142.5 1446,-136.5 1446,-130.5 1446,-130.5 1446,-118.5 1446,-118.5 1446,-112.5 1452,-106.5 1458,-106.5 1458,-106.5 1634,-106.5 1634,-106.5 1640,-106.5 1646,-112.5 1646,-118.5 1646,-118.5 1646,-130.5 1646,-130.5 1646,-136.5 1640,-142.5 1634,-142.5"/>
<polygon fill="#add8e6" stroke="transparent" points="1454,-116.5 1454,-131.5 1638,-131.5 1638,-116.5 1454,-116.5"/>
<text text-anchor="start" x="1456" y="-122.5" font-family="Times,serif" font-size="10.00" fill="#000000"> &#160;&#160;&#160;&#160;&#160;&#160;&#160;&#160;&#160;</text>
<text text-anchor="start" x="1479" y="-122.5" font-family="Times,serif" font-style="italic" font-size="10.00" fill="#000000">sense_bet1.1_195644:Class &#160;&#160;&#160;&#160;&#160;&#160;&#160;&#160;&#160;</text>
<text text-anchor="start" x="1617" y="-122.5" font-family="Times,serif" font-size="10.00" fill="#000000"> &#160;&#160;&#160;&#160;&#160;&#160;&#160;</text>
</g>
<!-- relationsensebet11195644&#45;&gt;sensebet11195644 -->
<g id="edge4" class="edge">
<title>relationsensebet11195644&#45;&gt;sensebet11195644</title>
<path fill="none" stroke="#000088" d="M1893.8762,-196.9754C1853.7571,-188.1546 1804.3945,-177.6096 1760,-169 1713.9486,-160.0691 1701.9377,-160.4983 1656,-151 1646.8626,-149.1107 1637.329,-147.0102 1627.8607,-144.8419"/>
<polygon fill="#000088" stroke="#000088" points="1618.0369,-142.5637 1628.795,-140.4392 1622.9076,-143.6933 1627.7784,-144.8228 1627.7784,-144.8228 1627.7784,-144.8228 1622.9076,-143.6933 1626.7618,-149.2065 1618.0369,-142.5637 1618.0369,-142.5637"/>
<text text-anchor="middle" x="1810.5" y="-171.6" font-family="Times,serif" font-size="8.00" fill="#000000">target</text>
</g>
<!-- metonymie -->
<g id="node14" class="node">
<title>metonymie</title>
<path fill="none" stroke="#000000" d="M2446,-142.5C2446,-142.5 2314,-142.5 2314,-142.5 2308,-142.5 2302,-136.5 2302,-130.5 2302,-130.5 2302,-118.5 2302,-118.5 2302,-112.5 2308,-106.5 2314,-106.5 2314,-106.5 2446,-106.5 2446,-106.5 2452,-106.5 2458,-112.5 2458,-118.5 2458,-118.5 2458,-130.5 2458,-130.5 2458,-136.5 2452,-142.5 2446,-142.5"/>
<polygon fill="#add8e6" stroke="transparent" points="2310,-116.5 2310,-131.5 2450,-131.5 2450,-116.5 2310,-116.5"/>
<text text-anchor="start" x="2312" y="-122.5" font-family="Times,serif" font-size="10.00" fill="#000000"> &#160;&#160;&#160;&#160;&#160;&#160;&#160;&#160;&#160;</text>
<text text-anchor="start" x="2335" y="-122.5" font-family="Times,serif" font-style="italic" font-size="10.00" fill="#000000">metonymie:Class &#160;&#160;&#160;&#160;&#160;&#160;&#160;&#160;&#160;</text>
<text text-anchor="start" x="2429" y="-122.5" font-family="Times,serif" font-size="10.00" fill="#000000"> &#160;&#160;&#160;&#160;&#160;&#160;&#160;</text>
</g>
<!-- relationsensebet11195644&#45;&gt;metonymie -->
<g id="edge5" class="edge">
<title>relationsensebet11195644&#45;&gt;metonymie</title>
<path fill="none" stroke="#000088" d="M2076.9315,-196.9898C2139.7087,-185.3525 2221.3836,-169.0453 2293,-151 2299.6865,-149.3152 2306.6235,-147.434 2313.531,-145.4725"/>
<polygon fill="#000088" stroke="#000088" points="2323.5975,-142.5547 2315.2457,-149.6608 2318.7952,-143.9467 2313.9929,-145.3387 2313.9929,-145.3387 2313.9929,-145.3387 2318.7952,-143.9467 2312.7401,-141.0166 2323.5975,-142.5547 2323.5975,-142.5547"/>
<text text-anchor="middle" x="2228" y="-171.6" font-family="Times,serif" font-size="8.00" fill="#000000">category</text>
</g>
<!-- sensebet1078333&#45;&gt;sensebet1078333definition -->
<g id="edge6" class="edge">
<title>sensebet1078333&#45;&gt;sensebet1078333definition</title>
<path fill="none" stroke="#000088" d="M1984.9094,-106.0669C1992.1922,-93.7615 2002.0094,-77.1737 2010.7955,-62.3283"/>
<polygon fill="#000088" stroke="#000088" points="2016.1009,-53.364 2014.8803,-64.2617 2013.5543,-57.6669 2011.0077,-61.9698 2011.0077,-61.9698 2011.0077,-61.9698 2013.5543,-57.6669 2007.1351,-59.6778 2016.1009,-53.364 2016.1009,-53.364"/>
<text text-anchor="middle" x="2019.5" y="-73.6" font-family="Times,serif" font-size="8.00" fill="#000000">definition</text>
</g>
<!-- sensebet11195644&#45;&gt;sensebet11195644definition -->
<g id="edge7" class="edge">
<title>sensebet11195644&#45;&gt;sensebet11195644definition</title>
<path fill="none" stroke="#000088" d="M1538.1001,-106.0669C1531.9026,-91.606 1523.1705,-71.2312 1516.0943,-54.72"/>
<polygon fill="#000088" stroke="#000088" points="1512.1509,-45.5189 1520.2263,-52.9377 1514.1206,-50.1146 1516.0902,-54.7103 1516.0902,-54.7103 1516.0902,-54.7103 1514.1206,-50.1146 1511.954,-56.483 1512.1509,-45.5189 1512.1509,-45.5189"/>
<text text-anchor="middle" x="1541.5" y="-73.6" font-family="Times,serif" font-size="8.00" fill="#000000">definition</text>
</g>
<!-- sensebet70204817definition -->
<g id="node15" class="node">
<title>sensebet70204817definition</title>
<path fill="none" stroke="#000000" d="M1868.5,-45.5C1868.5,-45.5 1653.5,-45.5 1653.5,-45.5 1647.5,-45.5 1641.5,-39.5 1641.5,-33.5 1641.5,-33.5 1641.5,-19.5 1641.5,-19.5 1641.5,-13.5 1647.5,-7.5 1653.5,-7.5 1653.5,-7.5 1868.5,-7.5 1868.5,-7.5 1874.5,-7.5 1880.5,-13.5 1880.5,-19.5 1880.5,-19.5 1880.5,-33.5 1880.5,-33.5 1880.5,-39.5 1874.5,-45.5 1868.5,-45.5"/>
<polygon fill="#add8e6" stroke="transparent" points="1650,-26.5 1650,-41.5 1873,-41.5 1873,-26.5 1650,-26.5"/>
<text text-anchor="start" x="1652" y="-32.5" font-family="Times,serif" font-size="10.00" fill="#000000"> &#160;&#160;&#160;&#160;&#160;&#160;&#160;&#160;&#160;</text>
<text text-anchor="start" x="1675" y="-32.5" font-family="Times,serif" font-style="italic" font-size="10.00" fill="#000000">sensebet7.0_204817_definition:UNK &#160;&#160;&#160;&#160;&#160;&#160;&#160;&#160;&#160;</text>
<text text-anchor="start" x="1852" y="-32.5" font-family="Times,serif" font-size="10.00" fill="#000000"> &#160;&#160;&#160;&#160;&#160;&#160;&#160;</text>
<text text-anchor="start" x="1663.5" y="-16.5" font-family="Times,serif" font-size="10.00" fill="#000000"> &#160;&#160;&#160;&#160;&#160;&#160;&#160;value &#160;&#160;&#160;&#160;&#160;</text>
<text text-anchor="start" x="1745.5" y="-16.5" font-family="Times,serif" font-size="10.00" fill="#000000"> &#160;&#160;&#160;&#160;&#160;&#160;&#160;toestel waaraan een &#160;&#160;&#160;&#160;&#160;&#160;</text>
</g>
<!-- sensebet70204817 -->
<g id="node16" class="node">
<title>sensebet70204817</title>
<path fill="none" stroke="#000000" d="M1845.5,-143.5C1845.5,-143.5 1676.5,-143.5 1676.5,-143.5 1670.5,-143.5 1664.5,-137.5 1664.5,-131.5 1664.5,-131.5 1664.5,-117.5 1664.5,-117.5 1664.5,-111.5 1670.5,-105.5 1676.5,-105.5 1676.5,-105.5 1845.5,-105.5 1845.5,-105.5 1851.5,-105.5 1857.5,-111.5 1857.5,-117.5 1857.5,-117.5 1857.5,-131.5 1857.5,-131.5 1857.5,-137.5 1851.5,-143.5 1845.5,-143.5"/>
<polygon fill="#add8e6" stroke="transparent" points="1673,-124.5 1673,-139.5 1850,-139.5 1850,-124.5 1673,-124.5"/>
<text text-anchor="start" x="1675" y="-130.5" font-family="Times,serif" font-size="10.00" fill="#000000"> &#160;&#160;&#160;&#160;&#160;&#160;&#160;&#160;&#160;</text>
<text text-anchor="start" x="1698" y="-130.5" font-family="Times,serif" font-style="italic" font-size="10.00" fill="#000000">sensebet7.0_204817:UNK &#160;&#160;&#160;&#160;&#160;&#160;&#160;&#160;&#160;</text>
<text text-anchor="start" x="1829" y="-130.5" font-family="Times,serif" font-size="10.00" fill="#000000"> &#160;&#160;&#160;&#160;&#160;&#160;&#160;</text>
<text text-anchor="start" x="1688.5" y="-114.5" font-family="Times,serif" font-size="10.00" fill="#000000"> &#160;&#160;&#160;&#160;&#160;&#160;&#160;senseOrder &#160;&#160;&#160;&#160;&#160;</text>
<text text-anchor="start" x="1797" y="-114.5" font-family="Times,serif" font-size="10.00" fill="#000000"> &#160;&#160;&#160;&#160;&#160;&#160;&#160;7 &#160;&#160;&#160;&#160;&#160;</text>
</g>
<!-- sensebet70204817&#45;&gt;sensebet70204817definition -->
<g id="edge8" class="edge">
<title>sensebet70204817&#45;&gt;sensebet70204817definition</title>
<path fill="none" stroke="#000088" d="M1761,-105.1384C1761,-91.179 1761,-72.0791 1761,-56.1986"/>
<polygon fill="#000088" stroke="#000088" points="1761,-45.8214 1765.5001,-55.8214 1761,-50.8214 1761.0001,-55.8214 1761.0001,-55.8214 1761.0001,-55.8214 1761,-50.8214 1756.5001,-55.8215 1761,-45.8214 1761,-45.8214"/>
<text text-anchor="middle" x="1776.5" y="-73.6" font-family="Times,serif" font-size="8.00" fill="#000000">definition</text>
</g>
<!-- sensebet60204722 -->
<g id="node17" class="node">
<title>sensebet60204722</title>
<path fill="none" stroke="#000000" d="M2271.5,-143.5C2271.5,-143.5 2102.5,-143.5 2102.5,-143.5 2096.5,-143.5 2090.5,-137.5 2090.5,-131.5 2090.5,-131.5 2090.5,-117.5 2090.5,-117.5 2090.5,-111.5 2096.5,-105.5 2102.5,-105.5 2102.5,-105.5 2271.5,-105.5 2271.5,-105.5 2277.5,-105.5 2283.5,-111.5 2283.5,-117.5 2283.5,-117.5 2283.5,-131.5 2283.5,-131.5 2283.5,-137.5 2277.5,-143.5 2271.5,-143.5"/>
<polygon fill="#add8e6" stroke="transparent" points="2099,-124.5 2099,-139.5 2276,-139.5 2276,-124.5 2099,-124.5"/>
<text text-anchor="start" x="2101" y="-130.5" font-family="Times,serif" font-size="10.00" fill="#000000"> &#160;&#160;&#160;&#160;&#160;&#160;&#160;&#160;&#160;</text>
<text text-anchor="start" x="2124" y="-130.5" font-family="Times,serif" font-style="italic" font-size="10.00" fill="#000000">sensebet6.0_204722:UNK &#160;&#160;&#160;&#160;&#160;&#160;&#160;&#160;&#160;</text>
<text text-anchor="start" x="2255" y="-130.5" font-family="Times,serif" font-size="10.00" fill="#000000"> &#160;&#160;&#160;&#160;&#160;&#160;&#160;</text>
<text text-anchor="start" x="2114.5" y="-114.5" font-family="Times,serif" font-size="10.00" fill="#000000"> &#160;&#160;&#160;&#160;&#160;&#160;&#160;senseOrder &#160;&#160;&#160;&#160;&#160;</text>
<text text-anchor="start" x="2223" y="-114.5" font-family="Times,serif" font-size="10.00" fill="#000000"> &#160;&#160;&#160;&#160;&#160;&#160;&#160;6 &#160;&#160;&#160;&#160;&#160;</text>
</g>
<!-- sensebet60204722definition -->
<g id="node18" class="node">
<title>sensebet60204722definition</title>
<path fill="none" stroke="#000000" d="M2441,-53C2441,-53 2195,-53 2195,-53 2189,-53 2183,-47 2183,-41 2183,-41 2183,-12 2183,-12 2183,-6 2189,0 2195,0 2195,0 2441,0 2441,0 2447,0 2453,-6 2453,-12 2453,-12 2453,-41 2453,-41 2453,-47 2447,-53 2441,-53"/>
<polygon fill="#add8e6" stroke="transparent" points="2191,-33.5 2191,-48.5 2445,-48.5 2445,-33.5 2191,-33.5"/>
<text text-anchor="start" x="2208.5" y="-39.5" font-family="Times,serif" font-size="10.00" fill="#000000"> &#160;&#160;&#160;&#160;&#160;&#160;&#160;&#160;&#160;</text>
<text text-anchor="start" x="2231.5" y="-39.5" font-family="Times,serif" font-style="italic" font-size="10.00" fill="#000000">sensebet6.0_204722_definition:UNK &#160;&#160;&#160;&#160;&#160;&#160;&#160;&#160;&#160;</text>
<text text-anchor="start" x="2408.5" y="-39.5" font-family="Times,serif" font-size="10.00" fill="#000000"> &#160;&#160;&#160;&#160;&#160;&#160;&#160;</text>
<text text-anchor="start" x="2228" y="-23.5" font-family="Times,serif" font-size="10.00" fill="#000000"> &#160;&#160;&#160;&#160;&#160;&#160;&#160;value &#160;&#160;&#160;&#160;&#160;</text>
<text text-anchor="start" x="2322" y="-23.5" font-family="Times,serif" font-size="10.00" fill="#000000"> &#160;&#160;&#160;&#160;&#160;&#160;&#160;hoog boven de wal ui &#160;&#160;&#160;&#160;&#160;</text>
<text text-anchor="start" x="2193" y="-8.5" font-family="Times,serif" font-size="10.00" fill="#000000"> &#160;&#160;&#160;&#160;&#160;&#160;&#160;definitionComplement &#160;&#160;&#160;&#160;&#160;</text>
<text text-anchor="start" x="2327.5" y="-8.5" font-family="Times,serif" font-size="10.00" fill="#000000"> &#160;&#160;&#160;&#160;&#160;&#160;&#160;Alleen in historiser &#160;&#160;&#160;&#160;&#160;</text>
</g>
<!-- sensebet60204722&#45;&gt;sensebet60204722definition -->
<g id="edge9" class="edge">
<title>sensebet60204722&#45;&gt;sensebet60204722definition</title>
<path fill="none" stroke="#000088" d="M2212.5691,-105.372C2229.977,-92.3493 2253.4698,-74.7745 2273.8609,-59.5201"/>
<polygon fill="#000088" stroke="#000088" points="2282.0886,-53.365 2276.7769,-62.9586 2278.085,-56.3601 2274.0813,-59.3552 2274.0813,-59.3552 2274.0813,-59.3552 2278.085,-56.3601 2271.3857,-55.7519 2282.0886,-53.365 2282.0886,-53.365"/>
<text text-anchor="middle" x="2271.5" y="-73.6" font-family="Times,serif" font-size="8.00" fill="#000000">definition</text>
</g>
<!-- sensebet3078335 -->
<g id="node19" class="node">
<title>sensebet3078335</title>
<path fill="none" stroke="#000000" d="M253,-143.5C253,-143.5 89,-143.5 89,-143.5 83,-143.5 77,-137.5 77,-131.5 77,-131.5 77,-117.5 77,-117.5 77,-111.5 83,-105.5 89,-105.5 89,-105.5 253,-105.5 253,-105.5 259,-105.5 265,-111.5 265,-117.5 265,-117.5 265,-131.5 265,-131.5 265,-137.5 259,-143.5 253,-143.5"/>
<polygon fill="#add8e6" stroke="transparent" points="85,-124.5 85,-139.5 257,-139.5 257,-124.5 85,-124.5"/>
<text text-anchor="start" x="87" y="-130.5" font-family="Times,serif" font-size="10.00" fill="#000000"> &#160;&#160;&#160;&#160;&#160;&#160;&#160;&#160;&#160;</text>
<text text-anchor="start" x="110" y="-130.5" font-family="Times,serif" font-style="italic" font-size="10.00" fill="#000000">sensebet3.0_78335:UNK &#160;&#160;&#160;&#160;&#160;&#160;&#160;&#160;&#160;</text>
<text text-anchor="start" x="236" y="-130.5" font-family="Times,serif" font-size="10.00" fill="#000000"> &#160;&#160;&#160;&#160;&#160;&#160;&#160;</text>
<text text-anchor="start" x="99.5" y="-114.5" font-family="Times,serif" font-size="10.00" fill="#000000"> &#160;&#160;&#160;&#160;&#160;&#160;&#160;senseOrder &#160;&#160;&#160;&#160;&#160;</text>
<text text-anchor="start" x="205.5" y="-114.5" font-family="Times,serif" font-size="10.00" fill="#000000"> &#160;&#160;&#160;&#160;&#160;&#160;&#160;3 &#160;&#160;&#160;&#160;&#160;</text>
</g>
<!-- sensebet3078335&#45;&gt;sensebet3078335definition -->
<g id="edge10" class="edge">
<title>sensebet3078335&#45;&gt;sensebet3078335definition</title>
<path fill="none" stroke="#000088" d="M160.3313,-105.1384C152.4176,-90.7763 141.5055,-70.9729 132.6118,-54.8325"/>
<polygon fill="#000088" stroke="#000088" points="127.6465,-45.8214 136.4139,-52.4081 130.0595,-50.2006 132.4726,-54.5798 132.4726,-54.5798 132.4726,-54.5798 130.0595,-50.2006 128.5313,-56.7516 127.6465,-45.8214 127.6465,-45.8214"/>
<text text-anchor="middle" x="161.5" y="-73.6" font-family="Times,serif" font-size="8.00" fill="#000000">definition</text>
</g>
<!-- sensebet80204831 -->
<g id="node20" class="node">
<title>sensebet80204831</title>
<path fill="none" stroke="#000000" d="M743.5,-143.5C743.5,-143.5 574.5,-143.5 574.5,-143.5 568.5,-143.5 562.5,-137.5 562.5,-131.5 562.5,-131.5 562.5,-117.5 562.5,-117.5 562.5,-111.5 568.5,-105.5 574.5,-105.5 574.5,-105.5 743.5,-105.5 743.5,-105.5 749.5,-105.5 755.5,-111.5 755.5,-117.5 755.5,-117.5 755.5,-131.5 755.5,-131.5 755.5,-137.5 749.5,-143.5 743.5,-143.5"/>
<polygon fill="#add8e6" stroke="transparent" points="571,-124.5 571,-139.5 748,-139.5 748,-124.5 571,-124.5"/>
<text text-anchor="start" x="573" y="-130.5" font-family="Times,serif" font-size="10.00" fill="#000000"> &#160;&#160;&#160;&#160;&#160;&#160;&#160;&#160;&#160;</text>
<text text-anchor="start" x="596" y="-130.5" font-family="Times,serif" font-style="italic" font-size="10.00" fill="#000000">sensebet8.0_204831:UNK &#160;&#160;&#160;&#160;&#160;&#160;&#160;&#160;&#160;</text>
<text text-anchor="start" x="727" y="-130.5" font-family="Times,serif" font-size="10.00" fill="#000000"> &#160;&#160;&#160;&#160;&#160;&#160;&#160;</text>
<text text-anchor="start" x="586.5" y="-114.5" font-family="Times,serif" font-size="10.00" fill="#000000"> &#160;&#160;&#160;&#160;&#160;&#160;&#160;senseOrder &#160;&#160;&#160;&#160;&#160;</text>
<text text-anchor="start" x="695" y="-114.5" font-family="Times,serif" font-size="10.00" fill="#000000"> &#160;&#160;&#160;&#160;&#160;&#160;&#160;8 &#160;&#160;&#160;&#160;&#160;</text>
</g>
<!-- sensebet80204831&#45;&gt;sensebet80204831definition -->
<g id="edge11" class="edge">
<title>sensebet80204831&#45;&gt;sensebet80204831definition</title>
<path fill="none" stroke="#000088" d="M662.1611,-105.1384C664.1105,-93.1985 666.6738,-77.4978 668.9971,-63.2676"/>
<polygon fill="#000088" stroke="#000088" points="670.6342,-53.2405 673.464,-63.8349 669.8285,-58.1751 669.0228,-63.1098 669.0228,-63.1098 669.0228,-63.1098 669.8285,-58.1751 664.5816,-62.3847 670.6342,-53.2405 670.6342,-53.2405"/>
<text text-anchor="middle" x="683.5" y="-73.6" font-family="Times,serif" font-size="8.00" fill="#000000">definition</text>
</g>
<!-- sensebet4078336 -->
<g id="node21" class="node">
<title>sensebet4078336</title>
<path fill="none" stroke="#000000" d="M950,-143.5C950,-143.5 786,-143.5 786,-143.5 780,-143.5 774,-137.5 774,-131.5 774,-131.5 774,-117.5 774,-117.5 774,-111.5 780,-105.5 786,-105.5 786,-105.5 950,-105.5 950,-105.5 956,-105.5 962,-111.5 962,-117.5 962,-117.5 962,-131.5 962,-131.5 962,-137.5 956,-143.5 950,-143.5"/>
<polygon fill="#add8e6" stroke="transparent" points="782,-124.5 782,-139.5 954,-139.5 954,-124.5 782,-124.5"/>
<text text-anchor="start" x="784" y="-130.5" font-family="Times,serif" font-size="10.00" fill="#000000"> &#160;&#160;&#160;&#160;&#160;&#160;&#160;&#160;&#160;</text>
<text text-anchor="start" x="807" y="-130.5" font-family="Times,serif" font-style="italic" font-size="10.00" fill="#000000">sensebet4.0_78336:UNK &#160;&#160;&#160;&#160;&#160;&#160;&#160;&#160;&#160;</text>
<text text-anchor="start" x="933" y="-130.5" font-family="Times,serif" font-size="10.00" fill="#000000"> &#160;&#160;&#160;&#160;&#160;&#160;&#160;</text>
<text text-anchor="start" x="796.5" y="-114.5" font-family="Times,serif" font-size="10.00" fill="#000000"> &#160;&#160;&#160;&#160;&#160;&#160;&#160;senseOrder &#160;&#160;&#160;&#160;&#160;</text>
<text text-anchor="start" x="902.5" y="-114.5" font-family="Times,serif" font-size="10.00" fill="#000000"> &#160;&#160;&#160;&#160;&#160;&#160;&#160;4 &#160;&#160;&#160;&#160;&#160;</text>
</g>
<!-- sensebet4078336&#45;&gt;sensebet4078336definition -->
<g id="edge12" class="edge">
<title>sensebet4078336&#45;&gt;sensebet4078336definition</title>
<path fill="none" stroke="#000088" d="M883.2127,-105.1384C894.7081,-90.5079 910.6402,-70.2307 923.4468,-53.9314"/>
<polygon fill="#000088" stroke="#000088" points="929.8189,-45.8214 927.1791,-56.4648 926.7298,-49.753 923.6406,-53.6846 923.6406,-53.6846 923.6406,-53.6846 926.7298,-49.753 920.1022,-50.9044 929.8189,-45.8214 929.8189,-45.8214"/>
<text text-anchor="middle" x="923.5" y="-73.6" font-family="Times,serif" font-size="8.00" fill="#000000">definition</text>
</g>
<!-- lemma78332 -->
<g id="node22" class="node">
<title>lemma78332</title>
<path fill="none" stroke="#000000" d="M1263.5,-234C1263.5,-234 1056.5,-234 1056.5,-234 1050.5,-234 1044.5,-228 1044.5,-222 1044.5,-222 1044.5,-208 1044.5,-208 1044.5,-202 1050.5,-196 1056.5,-196 1056.5,-196 1263.5,-196 1263.5,-196 1269.5,-196 1275.5,-202 1275.5,-208 1275.5,-208 1275.5,-222 1275.5,-222 1275.5,-228 1269.5,-234 1263.5,-234"/>
<polygon fill="#add8e6" stroke="transparent" points="1053,-215 1053,-230 1268,-230 1268,-215 1053,-215"/>
<text text-anchor="start" x="1055" y="-221" font-family="Times,serif" font-size="10.00" fill="#000000"> &#160;&#160;&#160;&#160;&#160;&#160;&#160;&#160;&#160;</text>
<text text-anchor="start" x="1078" y="-221" font-family="Times,serif" font-style="italic" font-size="10.00" fill="#000000">lemma_78332:ontolexLexicalEntry &#160;&#160;&#160;&#160;&#160;&#160;&#160;&#160;&#160;</text>
<text text-anchor="start" x="1247" y="-221" font-family="Times,serif" font-size="10.00" fill="#000000"> &#160;&#160;&#160;&#160;&#160;&#160;&#160;</text>
<text text-anchor="start" x="1082.5" y="-205" font-family="Times,serif" font-size="10.00" fill="#000000"> &#160;&#160;&#160;&#160;&#160;&#160;&#160;label &#160;&#160;&#160;&#160;&#160;</text>
<text text-anchor="start" x="1193.5" y="-205" font-family="Times,serif" font-size="10.00" fill="#000000"> &#160;&#160;&#160;&#160;&#160;&#160;&#160;kat &#160;&#160;&#160;&#160;&#160;</text>
</g>
<!-- lemma78332&#45;&gt;sensebet2078334 -->
<g id="edge16" class="edge">
<title>lemma78332&#45;&gt;sensebet2078334</title>
<path fill="none" stroke="#000088" d="M1196.9009,-195.8073C1223.6357,-181.9021 1259.9452,-163.017 1288.4812,-148.175"/>
<polygon fill="#000088" stroke="#000088" points="1297.451,-143.5097 1290.6557,-152.1164 1293.0151,-145.8169 1288.5792,-148.1241 1288.5792,-148.1241 1288.5792,-148.1241 1293.0151,-145.8169 1286.5028,-144.1318 1297.451,-143.5097 1297.451,-143.5097"/>
<text text-anchor="middle" x="1267.5" y="-171.6" font-family="Times,serif" font-size="8.00" fill="#000000">ontolexsense</text>
</g>
<!-- lemma78332&#45;&gt;lemmavorm78332 -->
<g id="edge13" class="edge">
<title>lemma78332&#45;&gt;lemmavorm78332</title>
<path fill="none" stroke="#000088" d="M1147.4876,-195.8073C1140.6828,-185.3693 1132.0485,-172.1253 1124.0731,-159.8917"/>
<polygon fill="#000088" stroke="#000088" points="1118.4177,-151.2169 1127.6486,-157.1364 1121.1483,-155.4054 1123.879,-159.594 1123.879,-159.594 1123.879,-159.594 1121.1483,-155.4054 1120.1093,-162.0516 1118.4177,-151.2169 1118.4177,-151.2169"/>
<text text-anchor="middle" x="1171" y="-171.6" font-family="Times,serif" font-size="8.00" fill="#000000">ontolexcanonicalForm</text>
</g>
<!-- lemma78332&#45;&gt;sensebet50204707 -->
<g id="edge19" class="edge">
<title>lemma78332&#45;&gt;sensebet50204707</title>
<path fill="none" stroke="#000088" d="M1044.4285,-205.5227C922.0555,-194.8553 723.4091,-175.7347 553,-151 541.2872,-149.2999 529.0694,-147.3339 516.9241,-145.2564"/>
<polygon fill="#000088" stroke="#000088" points="506.7518,-143.4885 517.3747,-140.7673 511.6779,-144.3447 516.6041,-145.2009 516.6041,-145.2009 516.6041,-145.2009 511.6779,-144.3447 515.8335,-149.6344 506.7518,-143.4885 506.7518,-143.4885"/>
<text text-anchor="middle" x="772.5" y="-171.6" font-family="Times,serif" font-size="8.00" fill="#000000">ontolexsense</text>
</g>
<!-- lemma78332&#45;&gt;sensebet1078333 -->
<g id="edge14" class="edge">
<title>lemma78332&#45;&gt;sensebet1078333</title>
<path fill="none" stroke="#000088" d="M1275.5105,-205.5637C1461.0212,-190.2556 1810.3685,-160.74 1867,-151 1877.005,-149.2792 1887.458,-147.1338 1897.7437,-144.8135"/>
<polygon fill="#000088" stroke="#000088" points="1907.534,-142.5434 1898.8089,-149.186 1902.6632,-143.6729 1897.7924,-144.8023 1897.7924,-144.8023 1897.7924,-144.8023 1902.6632,-143.6729 1896.7759,-140.4186 1907.534,-142.5434 1907.534,-142.5434"/>
<text text-anchor="middle" x="1717.5" y="-171.6" font-family="Times,serif" font-size="8.00" fill="#000000">ontolexsense</text>
</g>
<!-- lemma78332&#45;&gt;sensebet11195644 -->
<g id="edge15" class="edge">
<title>lemma78332&#45;&gt;sensebet11195644</title>
<path fill="none" stroke="#000088" d="M1243.3915,-195.994C1298.4071,-183.3908 1372.0448,-166.3992 1437,-151 1445.3297,-149.0252 1454.0125,-146.9473 1462.6816,-144.8599"/>
<polygon fill="#000088" stroke="#000088" points="1472.444,-142.5041 1463.7787,-149.2245 1467.5835,-143.6771 1462.723,-144.85 1462.723,-144.85 1462.723,-144.85 1467.5835,-143.6771 1461.6674,-140.4756 1472.444,-142.5041 1472.444,-142.5041"/>
<text text-anchor="middle" x="1373.5" y="-171.6" font-family="Times,serif" font-size="8.00" fill="#000000">ontolexsense</text>
</g>
<!-- lemma78332&#45;&gt;sensebet70204817 -->
<g id="edge21" class="edge">
<title>lemma78332&#45;&gt;sensebet70204817</title>
<path fill="none" stroke="#000088" d="M1275.623,-203.8997C1376.3264,-193.3165 1526.0043,-175.3779 1655,-151 1663.1052,-149.4683 1671.5152,-147.6923 1679.8927,-145.7993"/>
<polygon fill="#000088" stroke="#000088" points="1689.692,-143.5309 1680.9645,-150.1703 1684.8208,-144.6585 1679.9496,-145.7862 1679.9496,-145.7862 1679.9496,-145.7862 1684.8208,-144.6585 1678.9347,-141.4021 1689.692,-143.5309 1689.692,-143.5309"/>
<text text-anchor="middle" x="1567.5" y="-171.6" font-family="Times,serif" font-size="8.00" fill="#000000">ontolexsense</text>
</g>
<!-- lemma78332&#45;&gt;sensebet60204722 -->
<g id="edge20" class="edge">
<title>lemma78332&#45;&gt;sensebet60204722</title>
<path fill="none" stroke="#000088" d="M1275.5705,-210.2793C1408.1342,-204.4654 1631.9506,-193.4296 1824,-178 1881.241,-173.4011 2024.4499,-160.9884 2081,-151 2089.4148,-149.5137 2098.1502,-147.7299 2106.833,-145.7994"/>
<polygon fill="#000088" stroke="#000088" points="2116.5939,-143.5655 2107.8499,-150.1831 2111.7199,-144.681 2106.8459,-145.7966 2106.8459,-145.7966 2106.8459,-145.7966 2111.7199,-144.681 2105.842,-141.41 2116.5939,-143.5655 2116.5939,-143.5655"/>
<text text-anchor="middle" x="1942.5" y="-171.6" font-family="Times,serif" font-size="8.00" fill="#000000">ontolexsense</text>
</g>
<!-- lemma78332&#45;&gt;sensebet3078335 -->
<g id="edge17" class="edge">
<title>lemma78332&#45;&gt;sensebet3078335</title>
<path fill="none" stroke="#000088" d="M1044.2585,-210.8933C879.2955,-204.0095 567.3521,-187.174 304,-151 292.5197,-149.4231 280.5375,-147.4729 268.6709,-145.3514"/>
<polygon fill="#000088" stroke="#000088" points="258.7436,-143.5335 269.3907,-140.9085 263.6619,-144.4342 268.5801,-145.3349 268.5801,-145.3349 268.5801,-145.3349 263.6619,-144.4342 267.7694,-149.7613 258.7436,-143.5335 258.7436,-143.5335"/>
<text text-anchor="middle" x="559.5" y="-171.6" font-family="Times,serif" font-size="8.00" fill="#000000">ontolexsense</text>
</g>
<!-- lemma78332&#45;&gt;sensebet80204831 -->
<g id="edge22" class="edge">
<title>lemma78332&#45;&gt;sensebet80204831</title>
<path fill="none" stroke="#000088" d="M1044.1592,-198.8598C965.1834,-187.213 858.3944,-170.2048 765,-151 757.4227,-149.4419 749.5696,-147.7077 741.7208,-145.893"/>
<polygon fill="#000088" stroke="#000088" points="731.8024,-143.5587 742.5674,-141.4694 736.6695,-144.7042 741.5365,-145.8497 741.5365,-145.8497 741.5365,-145.8497 736.6695,-144.7042 740.5055,-150.2301 731.8024,-143.5587 731.8024,-143.5587"/>
<text text-anchor="middle" x="925.5" y="-171.6" font-family="Times,serif" font-size="8.00" fill="#000000">ontolexsense</text>
</g>
<!-- lemma78332&#45;&gt;sensebet4078336 -->
<g id="edge18" class="edge">
<title>lemma78332&#45;&gt;sensebet4078336</title>
<path fill="none" stroke="#000088" d="M1098.4311,-195.9179C1051.9391,-181.5085 988.0437,-161.7053 939.3267,-146.6064"/>
<polygon fill="#000088" stroke="#000088" points="929.4847,-143.556 940.3686,-142.2182 934.2605,-145.0363 939.0364,-146.5165 939.0364,-146.5165 939.0364,-146.5165 934.2605,-145.0363 937.7042,-150.8148 929.4847,-143.556 929.4847,-143.556"/>
<text text-anchor="middle" x="1060.5" y="-171.6" font-family="Times,serif" font-size="8.00" fill="#000000">ontolexsense</text>
</g>
</g>
</svg>
