<svg width="1336pt" height="490pt"
 viewBox="0.00 0.00 1335.50 490.00" xmlns="http://www.w3.org/2000/svg" xmlns:xlink="http://www.w3.org/1999/xlink">
<g id="graph0" class="graph" transform="scale(1 1) rotate(0) translate(4 486)">
<title>G</title>
<polygon fill="#ffffff" stroke="transparent" points="-4,4 -4,-486 1331.5,-486 1331.5,4 -4,4"/>
<!-- celexwform147510 -->
<g id="node1" class="node">
<title>celexwform147510</title>
<path fill="none" stroke="#000000" d="M382,-399C382,-399 212,-399 212,-399 206,-399 200,-393 200,-387 200,-387 200,-343 200,-343 200,-337 206,-331 212,-331 212,-331 382,-331 382,-331 388,-331 394,-337 394,-343 394,-343 394,-387 394,-387 394,-393 388,-399 382,-399"/>
<polygon fill="#add8e6" stroke="transparent" points="208,-380 208,-395 386,-395 386,-380 208,-380"/>
<text text-anchor="start" x="224" y="-386" font-family="Times,serif" font-style="italic" font-size="10.00" fill="#000000">celex_wform_147510:ontolexForm</text>
<text text-anchor="start" x="213.5" y="-370" font-family="Times,serif" font-size="10.00" fill="#000000"> &#160;&#160;&#160;&#160;&#160;&#160;&#160;ontolexwrittenRep &#160;&#160;&#160;&#160;&#160;</text>
<text text-anchor="start" x="333" y="-370" font-family="Times,serif" font-size="10.00" fill="#000000">kattekwaad</text>
<text text-anchor="start" x="230" y="-355" font-family="Times,serif" font-size="10.00" fill="#000000"> &#160;&#160;&#160;&#160;&#160;&#160;&#160;syllabified &#160;&#160;&#160;&#160;&#160;</text>
<text text-anchor="start" x="330" y="-355" font-family="Times,serif" font-size="10.00" fill="#000000">kat&#45;te&#45;kwaad</text>
<text text-anchor="start" x="210" y="-340" font-family="Times,serif" font-size="10.00" fill="#000000"> &#160;&#160;&#160;&#160;&#160;&#160;&#160;ontolexphoneticRep &#160;&#160;&#160;&#160;&#160;</text>
<text text-anchor="start" x="331" y="-340" font-family="Times,serif" font-size="10.00" fill="#000000">ˌkɑ&#45;tə&#45;kwaːt</text>
</g>
<!-- lexinfosingular -->
<g id="node2" class="node">
<title>lexinfosingular</title>
<path fill="none" stroke="#000000" d="M98,-36C98,-36 12,-36 12,-36 6,-36 0,-30 0,-24 0,-24 0,-12 0,-12 0,-6 6,0 12,0 12,0 98,0 98,0 104,0 110,-6 110,-12 110,-12 110,-24 110,-24 110,-30 104,-36 98,-36"/>
<polygon fill="#add8e6" stroke="transparent" points="8,-10 8,-25 102,-25 102,-10 8,-10"/>
<text text-anchor="start" x="10.5" y="-16" font-family="Times,serif" font-style="italic" font-size="10.00" fill="#000000">lexinfosingular:Class</text>
</g>
<!-- celexwform147510&#45;&gt;lexinfosingular -->
<g id="edge1" class="edge">
<title>celexwform147510&#45;&gt;lexinfosingular</title>
<path fill="none" stroke="#000088" d="M213.52,-330.9486C160.421,-304.4961 95.7047,-262.2678 63,-203 35.5995,-153.3446 42.1643,-84.2727 48.8942,-46.1253"/>
<polygon fill="#000088" stroke="#000088" points="50.7687,-36.2276 53.3292,-46.8904 49.8383,-41.1403 48.9078,-46.053 48.9078,-46.053 48.9078,-46.053 49.8383,-41.1403 44.4864,-45.2156 50.7687,-36.2276 50.7687,-36.2276"/>
<text text-anchor="middle" x="86.5" y="-183.1" font-family="Times,serif" font-size="8.00" fill="#000000">lexinfonumber</text>
</g>
<!-- node1cj5v4ttvx7 -->
<g id="node3" class="node">
<title>node1cj5v4ttvx7</title>
<path fill="none" stroke="#000000" d="M1016,-259C1016,-259 894,-259 894,-259 888,-259 882,-253 882,-247 882,-247 882,-233 882,-233 882,-227 888,-221 894,-221 894,-221 1016,-221 1016,-221 1022,-221 1028,-227 1028,-233 1028,-233 1028,-247 1028,-247 1028,-253 1022,-259 1016,-259"/>
<polygon fill="#add8e6" stroke="transparent" points="890,-240 890,-255 1020,-255 1020,-240 890,-240"/>
<text text-anchor="start" x="908.5" y="-246" font-family="Times,serif" font-style="italic" font-size="10.00" fill="#000000">node1cj5v4ttvx7:UNK</text>
<text text-anchor="start" x="892" y="-230" font-family="Times,serif" font-size="10.00" fill="#000000"> &#160;&#160;&#160;&#160;&#160;&#160;&#160;ontolexwrittenRep &#160;&#160;&#160;&#160;&#160;</text>
<text text-anchor="start" x="1005" y="-230" font-family="Times,serif" font-size="10.00" fill="#000000">kat</text>
</g>
<!-- celexcomp92555 -->
<g id="node4" class="node">
<title>celexcomp92555</title>
<path fill="none" stroke="#000000" d="M732,-383C732,-383 604,-383 604,-383 598,-383 592,-377 592,-371 592,-371 592,-359 592,-359 592,-353 598,-347 604,-347 604,-347 732,-347 732,-347 738,-347 744,-353 744,-359 744,-359 744,-371 744,-371 744,-377 738,-383 732,-383"/>
<polygon fill="#add8e6" stroke="transparent" points="600,-357 600,-372 736,-372 736,-357 600,-357"/>
<text text-anchor="start" x="602" y="-363" font-family="Times,serif" font-style="italic" font-size="10.00" fill="#000000">celex_comp_92555:Component</text>
</g>
<!-- celexlemma54132 -->
<g id="node5" class="node">
<title>celexlemma54132</title>
<path fill="none" stroke="#000000" d="M680,-259C680,-259 512,-259 512,-259 506,-259 500,-253 500,-247 500,-247 500,-233 500,-233 500,-227 506,-221 512,-221 512,-221 680,-221 680,-221 686,-221 692,-227 692,-233 692,-233 692,-247 692,-247 692,-253 686,-259 680,-259"/>
<polygon fill="#add8e6" stroke="transparent" points="508,-240 508,-255 684,-255 684,-240 508,-240"/>
<text text-anchor="start" x="510" y="-246" font-family="Times,serif" font-style="italic" font-size="10.00" fill="#000000">celex_lemma_54132:ontolexLexicalEntry</text>
<text text-anchor="start" x="532" y="-230" font-family="Times,serif" font-size="10.00" fill="#000000"> &#160;&#160;&#160;&#160;&#160;&#160;&#160;label &#160;&#160;&#160;&#160;&#160;</text>
<text text-anchor="start" x="632" y="-230" font-family="Times,serif" font-size="10.00" fill="#000000">kwaad</text>
</g>
<!-- celexcomp92555&#45;&gt;celexlemma54132 -->
<g id="edge2" class="edge">
<title>celexcomp92555&#45;&gt;celexlemma54132</title>
<path fill="none" stroke="#000088" d="M657.5306,-346.8239C645.5646,-326.0496 625.8453,-291.8147 611.9613,-267.7106"/>
<polygon fill="#000088" stroke="#000088" points="606.9542,-259.0177 615.8449,-265.437 609.4498,-263.3504 611.9455,-267.6831 611.9455,-267.6831 611.9455,-267.6831 609.4498,-263.3504 608.0461,-269.9291 606.9542,-259.0177 606.9542,-259.0177"/>
<text text-anchor="middle" x="660" y="-293.1" font-family="Times,serif" font-size="8.00" fill="#000000">correspondsTo</text>
</g>
<!-- celexwform165612 -->
<g id="node6" class="node">
<title>celexwform165612</title>
<path fill="none" stroke="#000000" d="M354,-149C354,-149 210,-149 210,-149 204,-149 198,-143 198,-137 198,-137 198,-93 198,-93 198,-87 204,-81 210,-81 210,-81 354,-81 354,-81 360,-81 366,-87 366,-93 366,-93 366,-137 366,-137 366,-143 360,-149 354,-149"/>
<polygon fill="#add8e6" stroke="transparent" points="206,-130 206,-145 358,-145 358,-130 206,-130"/>
<text text-anchor="start" x="209" y="-136" font-family="Times,serif" font-style="italic" font-size="10.00" fill="#000000">celex_wform_165612:ontolexForm</text>
<text text-anchor="start" x="211.5" y="-120" font-family="Times,serif" font-size="10.00" fill="#000000"> &#160;&#160;&#160;&#160;&#160;&#160;&#160;ontolexwrittenRep &#160;&#160;&#160;&#160;&#160;</text>
<text text-anchor="start" x="328" y="-120" font-family="Times,serif" font-size="10.00" fill="#000000">kwaad</text>
<text text-anchor="start" x="228" y="-105" font-family="Times,serif" font-size="10.00" fill="#000000"> &#160;&#160;&#160;&#160;&#160;&#160;&#160;syllabified &#160;&#160;&#160;&#160;&#160;</text>
<text text-anchor="start" x="328" y="-105" font-family="Times,serif" font-size="10.00" fill="#000000">kwaad</text>
<text text-anchor="start" x="208" y="-90" font-family="Times,serif" font-size="10.00" fill="#000000"> &#160;&#160;&#160;&#160;&#160;&#160;&#160;ontolexphoneticRep &#160;&#160;&#160;&#160;&#160;</text>
<text text-anchor="start" x="328.5" y="-90" font-family="Times,serif" font-size="10.00" fill="#000000">ˌkwaːt</text>
</g>
<!-- celexlemma54132&#45;&gt;celexwform165612 -->
<g id="edge3" class="edge">
<title>celexlemma54132&#45;&gt;celexwform165612</title>
<path fill="none" stroke="#000088" d="M499.8478,-223.1941C494.4926,-222.4123 489.1827,-221.6742 484,-221 462.0938,-218.1505 301.2632,-218.9698 286,-203 275.0782,-191.5726 272.3236,-175.0277 272.9217,-159.3605"/>
<polygon fill="#000088" stroke="#000088" points="273.7467,-149.2542 277.4181,-159.5872 273.3399,-154.2376 272.933,-159.2211 272.933,-159.2211 272.933,-159.2211 273.3399,-154.2376 268.4479,-158.8549 273.7467,-149.2542 273.7467,-149.2542"/>
<text text-anchor="middle" x="322" y="-183.1" font-family="Times,serif" font-size="8.00" fill="#000000">ontolexcanonicalForm</text>
</g>
<!-- celexlemma54132&#45;&gt;celexwform165612 -->
<g id="edge6" class="edge">
<title>celexlemma54132&#45;&gt;celexwform165612</title>
<path fill="none" stroke="#000088" d="M499.9857,-223.339C451.5823,-214.7333 402.0167,-205.5145 397,-203 375.9116,-192.43 376.4495,-181.699 358,-167 353.0765,-163.0774 347.8697,-159.1313 342.5831,-155.2617"/>
<polygon fill="#000088" stroke="#000088" points="334.2392,-149.2583 344.9847,-151.4459 338.2979,-152.1785 342.3565,-155.0987 342.3565,-155.0987 342.3565,-155.0987 338.2979,-152.1785 339.7283,-158.7515 334.2392,-149.2583 334.2392,-149.2583"/>
<text text-anchor="middle" x="428.5" y="-183.1" font-family="Times,serif" font-size="8.00" fill="#000000">ontolexlexicalForm</text>
</g>
<!-- node1cj5v4ttvx8 -->
<g id="node7" class="node">
<title>node1cj5v4ttvx8</title>
<path fill="none" stroke="#000000" d="M814,-133C814,-133 724,-133 724,-133 718,-133 712,-127 712,-121 712,-121 712,-109 712,-109 712,-103 718,-97 724,-97 724,-97 814,-97 814,-97 820,-97 826,-103 826,-109 826,-109 826,-121 826,-121 826,-127 820,-133 814,-133"/>
<polygon fill="#add8e6" stroke="transparent" points="720,-107 720,-122 818,-122 818,-107 720,-107"/>
<text text-anchor="start" x="722.5" y="-113" font-family="Times,serif" font-style="italic" font-size="10.00" fill="#000000">node1cj5v4ttvx8:UNK</text>
</g>
<!-- celexlemma54132&#45;&gt;node1cj5v4ttvx8 -->
<g id="edge4" class="edge">
<title>celexlemma54132&#45;&gt;node1cj5v4ttvx8</title>
<path fill="none" stroke="#000088" d="M638.3418,-220.8171C648.6643,-215.5287 659.4714,-209.4545 669,-203 696.5521,-184.3367 724.726,-158.8503 744.1172,-140.1083"/>
<polygon fill="#000088" stroke="#000088" points="751.3531,-133.0329 747.3493,-143.2417 747.7782,-136.5286 744.2032,-140.0242 744.2032,-140.0242 744.2032,-140.0242 747.7782,-136.5286 741.0571,-136.8067 751.3531,-133.0329 751.3531,-133.0329"/>
<text text-anchor="middle" x="764" y="-183.1" font-family="Times,serif" font-size="8.00" fill="#000000">lexinfoMorphosyntacticProperty</text>
</g>
<!-- node1cj5v4ttvx9 -->
<g id="node9" class="node">
<title>node1cj5v4ttvx9</title>
<path fill="none" stroke="#000000" d="M486,-133C486,-133 396,-133 396,-133 390,-133 384,-127 384,-121 384,-121 384,-109 384,-109 384,-103 390,-97 396,-97 396,-97 486,-97 486,-97 492,-97 498,-103 498,-109 498,-109 498,-121 498,-121 498,-127 492,-133 486,-133"/>
<polygon fill="#add8e6" stroke="transparent" points="392,-107 392,-122 490,-122 490,-107 392,-107"/>
<text text-anchor="start" x="394.5" y="-113" font-family="Times,serif" font-style="italic" font-size="10.00" fill="#000000">node1cj5v4ttvx9:UNK</text>
</g>
<!-- celexlemma54132&#45;&gt;node1cj5v4ttvx9 -->
<g id="edge5" class="edge">
<title>celexlemma54132&#45;&gt;node1cj5v4ttvx9</title>
<path fill="none" stroke="#000088" d="M520.7016,-220.9858C510.0407,-216.2239 499.7479,-210.3153 491,-203 471.9452,-187.0658 458.6886,-161.8969 450.6367,-142.5503"/>
<polygon fill="#000088" stroke="#000088" points="446.8974,-133.0438 454.7456,-140.7025 448.7276,-137.6968 450.5579,-142.3498 450.5579,-142.3498 450.5579,-142.3498 448.7276,-137.6968 446.3702,-143.997 446.8974,-133.0438 446.8974,-133.0438"/>
<text text-anchor="middle" x="543" y="-183.1" font-family="Times,serif" font-size="8.00" fill="#000000">lexinfoMorphosyntacticProperty</text>
</g>
<!-- celexwform165714 -->
<g id="node11" class="node">
<title>celexwform165714</title>
<path fill="none" stroke="#000000" d="M681.5,-149C681.5,-149 528.5,-149 528.5,-149 522.5,-149 516.5,-143 516.5,-137 516.5,-137 516.5,-93 516.5,-93 516.5,-87 522.5,-81 528.5,-81 528.5,-81 681.5,-81 681.5,-81 687.5,-81 693.5,-87 693.5,-93 693.5,-93 693.5,-137 693.5,-137 693.5,-143 687.5,-149 681.5,-149"/>
<polygon fill="#add8e6" stroke="transparent" points="525,-130 525,-145 686,-145 686,-130 525,-130"/>
<text text-anchor="start" x="532.5" y="-136" font-family="Times,serif" font-style="italic" font-size="10.00" fill="#000000">celex_wform_165714:ontolexForm</text>
<text text-anchor="start" x="530.5" y="-120" font-family="Times,serif" font-size="10.00" fill="#000000"> &#160;&#160;&#160;&#160;&#160;&#160;&#160;ontolexwrittenRep &#160;&#160;&#160;&#160;&#160;</text>
<text text-anchor="start" x="649" y="-120" font-family="Times,serif" font-size="10.00" fill="#000000">kwaden</text>
<text text-anchor="start" x="547" y="-105" font-family="Times,serif" font-size="10.00" fill="#000000"> &#160;&#160;&#160;&#160;&#160;&#160;&#160;syllabified &#160;&#160;&#160;&#160;&#160;</text>
<text text-anchor="start" x="647.5" y="-105" font-family="Times,serif" font-size="10.00" fill="#000000">kwa&#45;den</text>
<text text-anchor="start" x="527" y="-90" font-family="Times,serif" font-size="10.00" fill="#000000"> &#160;&#160;&#160;&#160;&#160;&#160;&#160;ontolexphoneticRep &#160;&#160;&#160;&#160;&#160;</text>
<text text-anchor="start" x="647" y="-90" font-family="Times,serif" font-size="10.00" fill="#000000">ˌkwaː&#45;də</text>
</g>
<!-- celexlemma54132&#45;&gt;celexwform165714 -->
<g id="edge7" class="edge">
<title>celexlemma54132&#45;&gt;celexwform165714</title>
<path fill="none" stroke="#000088" d="M597.3865,-220.7427C598.5645,-204.3816 600.3009,-180.2659 601.818,-159.1947"/>
<polygon fill="#000088" stroke="#000088" points="602.5417,-149.1426 606.3119,-159.44 602.1826,-154.1297 601.8235,-159.1168 601.8235,-159.1168 601.8235,-159.1168 602.1826,-154.1297 597.3351,-158.7936 602.5417,-149.1426 602.5417,-149.1426"/>
<text text-anchor="middle" x="633.5" y="-183.1" font-family="Times,serif" font-size="8.00" fill="#000000">ontolexlexicalForm</text>
</g>
<!-- celexwform165612&#45;&gt;lexinfosingular -->
<g id="edge8" class="edge">
<title>celexwform165612&#45;&gt;lexinfosingular</title>
<path fill="none" stroke="#000088" d="M202.2875,-80.9378C170.4948,-67.3524 134.8104,-52.104 106.529,-40.019"/>
<polygon fill="#000088" stroke="#000088" points="97.2381,-36.0489 108.202,-35.8403 101.8359,-38.0136 106.4337,-39.9783 106.4337,-39.9783 106.4337,-39.9783 101.8359,-38.0136 104.6655,-44.1164 97.2381,-36.0489 97.2381,-36.0489"/>
<text text-anchor="middle" x="178.5" y="-56.6" font-family="Times,serif" font-size="8.00" fill="#000000">lexinfonumber</text>
</g>
<!-- lexinfonoun -->
<g id="node8" class="node">
<title>lexinfonoun</title>
<path fill="none" stroke="#000000" d="M848,-36C848,-36 776,-36 776,-36 770,-36 764,-30 764,-24 764,-24 764,-12 764,-12 764,-6 770,0 776,0 776,0 848,0 848,0 854,0 860,-6 860,-12 860,-12 860,-24 860,-24 860,-30 854,-36 848,-36"/>
<polygon fill="#add8e6" stroke="transparent" points="772,-10 772,-25 852,-25 852,-10 772,-10"/>
<text text-anchor="start" x="774" y="-16" font-family="Times,serif" font-style="italic" font-size="10.00" fill="#000000">lexinfonoun:Class</text>
</g>
<!-- node1cj5v4ttvx8&#45;&gt;lexinfonoun -->
<g id="edge9" class="edge">
<title>node1cj5v4ttvx8&#45;&gt;lexinfonoun</title>
<path fill="none" stroke="#000088" d="M766.3436,-96.7637C765.3341,-84.1518 765.6749,-67.312 772,-54 773.7542,-50.3081 776.077,-46.8266 778.723,-43.5915"/>
<polygon fill="#000088" stroke="#000088" points="785.8257,-36.0778 782.2263,-46.4361 782.3909,-39.7113 778.9561,-43.3448 778.9561,-43.3448 778.9561,-43.3448 782.3909,-39.7113 775.686,-40.2535 785.8257,-36.0778 785.8257,-36.0778"/>
<text text-anchor="middle" x="806" y="-56.6" font-family="Times,serif" font-size="8.00" fill="#000000">lexinfopartOfSpeech</text>
</g>
<!-- lexinfoneuter -->
<g id="node10" class="node">
<title>lexinfoneuter</title>
<path fill="none" stroke="#000000" d="M284,-36C284,-36 206,-36 206,-36 200,-36 194,-30 194,-24 194,-24 194,-12 194,-12 194,-6 200,0 206,0 206,0 284,0 284,0 290,0 296,-6 296,-12 296,-12 296,-24 296,-24 296,-30 290,-36 284,-36"/>
<polygon fill="#add8e6" stroke="transparent" points="202,-10 202,-25 288,-25 288,-10 202,-10"/>
<text text-anchor="start" x="204.5" y="-16" font-family="Times,serif" font-style="italic" font-size="10.00" fill="#000000">lexinfoneuter:Class</text>
</g>
<!-- node1cj5v4ttvx9&#45;&gt;lexinfoneuter -->
<g id="edge10" class="edge">
<title>node1cj5v4ttvx9&#45;&gt;lexinfoneuter</title>
<path fill="none" stroke="#000088" d="M406.1434,-96.8422C396.1155,-91.6731 385.146,-86.0709 375,-81 347.6474,-67.3294 316.8613,-52.3903 292.1165,-40.4918"/>
<polygon fill="#000088" stroke="#000088" points="282.9484,-36.0895 293.9109,-36.3616 287.4557,-38.2538 291.963,-40.4182 291.963,-40.4182 291.963,-40.4182 287.4557,-38.2538 290.0151,-44.4748 282.9484,-36.0895 282.9484,-36.0895"/>
<text text-anchor="middle" x="359.5" y="-56.6" font-family="Times,serif" font-size="8.00" fill="#000000">lexinfoGender</text>
</g>
<!-- lexinfoplural -->
<g id="node12" class="node">
<title>lexinfoplural</title>
<path fill="none" stroke="#000000" d="M643,-36C643,-36 567,-36 567,-36 561,-36 555,-30 555,-24 555,-24 555,-12 555,-12 555,-6 561,0 567,0 567,0 643,0 643,0 649,0 655,-6 655,-12 655,-12 655,-24 655,-24 655,-30 649,-36 643,-36"/>
<polygon fill="#add8e6" stroke="transparent" points="563,-10 563,-25 647,-25 647,-10 563,-10"/>
<text text-anchor="start" x="565" y="-16" font-family="Times,serif" font-style="italic" font-size="10.00" fill="#000000">lexinfoplural:Class</text>
</g>
<!-- celexwform165714&#45;&gt;lexinfoplural -->
<g id="edge11" class="edge">
<title>celexwform165714&#45;&gt;lexinfoplural</title>
<path fill="none" stroke="#000088" d="M605,-80.8014C605,-69.5107 605,-57.0843 605,-46.2861"/>
<polygon fill="#000088" stroke="#000088" points="605,-36.1329 609.5001,-46.1329 605,-41.1329 605.0001,-46.1329 605.0001,-46.1329 605.0001,-46.1329 605,-41.1329 600.5001,-46.133 605,-36.1329 605,-36.1329"/>
<text text-anchor="middle" x="628.5" y="-56.6" font-family="Times,serif" font-size="8.00" fill="#000000">lexinfonumber</text>
</g>
<!-- celexlemma47843 -->
<g id="node13" class="node">
<title>celexlemma47843</title>
<path fill="none" stroke="#000000" d="M844,-482C844,-482 676,-482 676,-482 670,-482 664,-476 664,-470 664,-470 664,-456 664,-456 664,-450 670,-444 676,-444 676,-444 844,-444 844,-444 850,-444 856,-450 856,-456 856,-456 856,-470 856,-470 856,-476 850,-482 844,-482"/>
<polygon fill="#add8e6" stroke="transparent" points="672,-463 672,-478 848,-478 848,-463 672,-463"/>
<text text-anchor="start" x="674" y="-469" font-family="Times,serif" font-style="italic" font-size="10.00" fill="#000000">celex_lemma_47843:ontolexLexicalEntry</text>
<text text-anchor="start" x="691" y="-453" font-family="Times,serif" font-size="10.00" fill="#000000"> &#160;&#160;&#160;&#160;&#160;&#160;&#160;label &#160;&#160;&#160;&#160;&#160;</text>
<text text-anchor="start" x="781" y="-453" font-family="Times,serif" font-size="10.00" fill="#000000">kattekwaad</text>
</g>
<!-- celexlemma47843&#45;&gt;celexwform147510 -->
<g id="edge12" class="edge">
<title>celexlemma47843&#45;&gt;celexwform147510</title>
<path fill="none" stroke="#000088" d="M663.9239,-458.5758C532.213,-452.0411 310.3459,-439.1562 298,-426 293.7283,-421.4479 291.3705,-415.7587 290.2718,-409.6971"/>
<polygon fill="#000088" stroke="#000088" points="289.4957,-399.2794 294.7262,-408.9175 289.8672,-404.2656 290.2387,-409.2518 290.2387,-409.2518 290.2387,-409.2518 289.8672,-404.2656 285.7511,-409.5861 289.4957,-399.2794 289.4957,-399.2794"/>
<text text-anchor="middle" x="334" y="-419.6" font-family="Times,serif" font-size="8.00" fill="#000000">ontolexcanonicalForm</text>
</g>
<!-- celexlemma47843&#45;&gt;celexwform147510 -->
<g id="edge15" class="edge">
<title>celexlemma47843&#45;&gt;celexwform147510</title>
<path fill="none" stroke="#000088" d="M663.8728,-458.3382C572.2583,-452.9904 441.3362,-442.733 393,-426 378.152,-420.8599 363.2596,-413.022 349.7849,-404.6598"/>
<polygon fill="#000088" stroke="#000088" points="341.1495,-399.112 351.9952,-400.7312 345.3562,-401.8146 349.5629,-404.5172 349.5629,-404.5172 349.5629,-404.5172 345.3562,-401.8146 347.1305,-408.3032 341.1495,-399.112 341.1495,-399.112"/>
<text text-anchor="middle" x="424.5" y="-419.6" font-family="Times,serif" font-size="8.00" fill="#000000">ontolexlexicalForm</text>
</g>
<!-- celexlemma47843&#45;&gt;celexcomp92555 -->
<g id="edge20" class="edge">
<title>celexlemma47843&#45;&gt;celexcomp92555</title>
<path fill="none" stroke="#000088" d="M701.0984,-443.8411C693.08,-439.0878 685.6721,-433.2198 680,-426 672.7742,-416.8026 669.5156,-404.4612 668.1603,-393.2858"/>
<polygon fill="#000088" stroke="#000088" points="667.3767,-383.069 672.6284,-392.6956 667.7591,-388.0544 668.1415,-393.0398 668.1415,-393.0398 668.1415,-393.0398 667.7591,-388.0544 663.6547,-393.3839 667.3767,-383.069 667.3767,-383.069"/>
<text text-anchor="middle" x="697.5" y="-419.6" font-family="Times,serif" font-size="8.00" fill="#000000">constituent</text>
</g>
<!-- celexlemma47843&#45;&gt;celexcomp92555 -->
<g id="edge21" class="edge">
<title>celexlemma47843&#45;&gt;celexcomp92555</title>
<path fill="none" stroke="#000088" d="M741.8238,-443.6384C727.693,-428.586 707.9512,-407.5567 692.4378,-391.0316"/>
<polygon fill="#000088" stroke="#000088" points="685.205,-383.3271 695.3302,-387.5378 688.6272,-386.9724 692.0494,-390.6178 692.0494,-390.6178 692.0494,-390.6178 688.6272,-386.9724 688.7685,-393.6978 685.205,-383.3271 685.205,-383.3271"/>
<text text-anchor="middle" x="728" y="-419.6" font-family="Times,serif" font-size="8.00" fill="#000000">_3</text>
</g>
<!-- node1cj5v4ttvx5 -->
<g id="node14" class="node">
<title>node1cj5v4ttvx5</title>
<path fill="none" stroke="#000000" d="M859,-313C859,-313 769,-313 769,-313 763,-313 757,-307 757,-301 757,-301 757,-289 757,-289 757,-283 763,-277 769,-277 769,-277 859,-277 859,-277 865,-277 871,-283 871,-289 871,-289 871,-301 871,-301 871,-307 865,-313 859,-313"/>
<polygon fill="#add8e6" stroke="transparent" points="765,-287 765,-302 863,-302 863,-287 765,-287"/>
<text text-anchor="start" x="767.5" y="-293" font-family="Times,serif" font-style="italic" font-size="10.00" fill="#000000">node1cj5v4ttvx5:UNK</text>
</g>
<!-- celexlemma47843&#45;&gt;node1cj5v4ttvx5 -->
<g id="edge13" class="edge">
<title>celexlemma47843&#45;&gt;node1cj5v4ttvx5</title>
<path fill="none" stroke="#000088" d="M763.0855,-443.5907C764.5826,-435.3242 766.584,-425.6191 769,-417 778.2647,-383.9478 792.3987,-347.1197 802.3495,-322.661"/>
<polygon fill="#000088" stroke="#000088" points="806.2006,-313.2981 806.5583,-324.2582 804.2986,-317.9222 802.3966,-322.5464 802.3966,-322.5464 802.3966,-322.5464 804.2986,-317.9222 798.2349,-320.8346 806.2006,-313.2981 806.2006,-313.2981"/>
<text text-anchor="middle" x="821" y="-419.6" font-family="Times,serif" font-size="8.00" fill="#000000">lexinfoMorphosyntacticProperty</text>
</g>
<!-- node1cj5v4ttvx6 -->
<g id="node15" class="node">
<title>node1cj5v4ttvx6</title>
<path fill="none" stroke="#000000" d="M221,-203C221,-203 131,-203 131,-203 125,-203 119,-197 119,-191 119,-191 119,-179 119,-179 119,-173 125,-167 131,-167 131,-167 221,-167 221,-167 227,-167 233,-173 233,-179 233,-179 233,-191 233,-191 233,-197 227,-203 221,-203"/>
<polygon fill="#add8e6" stroke="transparent" points="127,-177 127,-192 225,-192 225,-177 127,-177"/>
<text text-anchor="start" x="129.5" y="-183" font-family="Times,serif" font-style="italic" font-size="10.00" fill="#000000">node1cj5v4ttvx6:UNK</text>
</g>
<!-- celexlemma47843&#45;&gt;node1cj5v4ttvx6 -->
<g id="edge14" class="edge">
<title>celexlemma47843&#45;&gt;node1cj5v4ttvx6</title>
<path fill="none" stroke="#000088" d="M663.8102,-453.3004C607.5205,-444.71 536.4528,-428.6859 479,-399 438.733,-378.194 439.0622,-358.4562 403,-331 340.6115,-283.5001 262.7896,-235.7136 216.3704,-208.3122"/>
<polygon fill="#000088" stroke="#000088" points="207.5192,-203.1098 218.4206,-204.2975 211.8298,-205.6434 216.1404,-208.177 216.1404,-208.177 216.1404,-208.177 211.8298,-205.6434 213.8601,-212.0565 207.5192,-203.1098 207.5192,-203.1098"/>
<text text-anchor="middle" x="531" y="-363.1" font-family="Times,serif" font-size="8.00" fill="#000000">lexinfoMorphosyntacticProperty</text>
</g>
<!-- celexcomp92553 -->
<g id="node16" class="node">
<title>celexcomp92553</title>
<path fill="none" stroke="#000000" d="M1019,-383C1019,-383 891,-383 891,-383 885,-383 879,-377 879,-371 879,-371 879,-359 879,-359 879,-353 885,-347 891,-347 891,-347 1019,-347 1019,-347 1025,-347 1031,-353 1031,-359 1031,-359 1031,-371 1031,-371 1031,-377 1025,-383 1019,-383"/>
<polygon fill="#add8e6" stroke="transparent" points="887,-357 887,-372 1023,-372 1023,-357 887,-357"/>
<text text-anchor="start" x="889" y="-363" font-family="Times,serif" font-style="italic" font-size="10.00" fill="#000000">celex_comp_92553:Component</text>
</g>
<!-- celexlemma47843&#45;&gt;celexcomp92553 -->
<g id="edge16" class="edge">
<title>celexlemma47843&#45;&gt;celexcomp92553</title>
<path fill="none" stroke="#000088" d="M834.3376,-443.9022C848.8706,-438.9536 863.7127,-433.0021 877,-426 895.3072,-416.3525 913.6438,-402.2906 927.9343,-390.0988"/>
<polygon fill="#000088" stroke="#000088" points="935.8499,-383.184 931.2792,-393.152 932.0843,-386.4735 928.3187,-389.7629 928.3187,-389.7629 928.3187,-389.7629 932.0843,-386.4735 925.3582,-386.3739 935.8499,-383.184 935.8499,-383.184"/>
<text text-anchor="middle" x="907.5" y="-419.6" font-family="Times,serif" font-size="8.00" fill="#000000">constituent</text>
</g>
<!-- celexlemma47843&#45;&gt;celexcomp92553 -->
<g id="edge17" class="edge">
<title>celexlemma47843&#45;&gt;celexcomp92553</title>
<path fill="none" stroke="#000088" d="M856.1755,-449.7217C887.4026,-443.783 917.0871,-435.8664 929,-426 939.0118,-417.7081 945.25,-404.8625 949.0957,-393.0939"/>
<polygon fill="#000088" stroke="#000088" points="951.894,-383.1706 953.5109,-394.0166 950.5369,-387.9829 949.1798,-392.7952 949.1798,-392.7952 949.1798,-392.7952 950.5369,-387.9829 944.8488,-391.5738 951.894,-383.1706 951.894,-383.1706"/>
<text text-anchor="middle" x="940" y="-419.6" font-family="Times,serif" font-size="8.00" fill="#000000">_1</text>
</g>
<!-- celexcomp92554 -->
<g id="node18" class="node">
<title>celexcomp92554</title>
<path fill="none" stroke="#000000" d="M1189,-383C1189,-383 1061,-383 1061,-383 1055,-383 1049,-377 1049,-371 1049,-371 1049,-359 1049,-359 1049,-353 1055,-347 1061,-347 1061,-347 1189,-347 1189,-347 1195,-347 1201,-353 1201,-359 1201,-359 1201,-371 1201,-371 1201,-377 1195,-383 1189,-383"/>
<polygon fill="#add8e6" stroke="transparent" points="1057,-357 1057,-372 1193,-372 1193,-357 1057,-357"/>
<text text-anchor="start" x="1059" y="-363" font-family="Times,serif" font-style="italic" font-size="10.00" fill="#000000">celex_comp_92554:Component</text>
</g>
<!-- celexlemma47843&#45;&gt;celexcomp92554 -->
<g id="edge18" class="edge">
<title>celexlemma47843&#45;&gt;celexcomp92554</title>
<path fill="none" stroke="#000088" d="M856.0102,-445.8537C885.6315,-440.0951 918.2726,-433.2714 948,-426 989.3931,-415.8751 999.7273,-412.9288 1040,-399 1050.5802,-395.3407 1061.7732,-391.1211 1072.4407,-386.9266"/>
<polygon fill="#000088" stroke="#000088" points="1082.0571,-383.0983 1074.4307,-390.9779 1077.4117,-384.9476 1072.7662,-386.797 1072.7662,-386.797 1072.7662,-386.797 1077.4117,-384.9476 1071.1018,-382.6161 1082.0571,-383.0983 1082.0571,-383.0983"/>
<text text-anchor="middle" x="1000.5" y="-419.6" font-family="Times,serif" font-size="8.00" fill="#000000">constituent</text>
</g>
<!-- celexlemma47843&#45;&gt;celexcomp92554 -->
<g id="edge19" class="edge">
<title>celexlemma47843&#45;&gt;celexcomp92554</title>
<path fill="none" stroke="#000088" d="M856.281,-453.3909C918.0262,-446.4633 992.0371,-436.5145 1022,-426 1046.9985,-417.2276 1072.6405,-402.0662 1092.0866,-389.0539"/>
<polygon fill="#000088" stroke="#000088" points="1100.5607,-383.2571 1094.8477,-392.6173 1096.4339,-386.0801 1092.307,-388.9031 1092.307,-388.9031 1092.307,-388.9031 1096.4339,-386.0801 1089.7663,-385.189 1100.5607,-383.2571 1100.5607,-383.2571"/>
<text text-anchor="middle" x="1047" y="-419.6" font-family="Times,serif" font-size="8.00" fill="#000000">_2</text>
</g>
<!-- node1cj5v4ttvx5&#45;&gt;lexinfonoun -->
<g id="edge22" class="edge">
<title>node1cj5v4ttvx5&#45;&gt;lexinfonoun</title>
<path fill="none" stroke="#000088" d="M817.1542,-276.6234C821.7783,-249.006 830.3512,-195.1169 835,-149 838.84,-110.9063 838.8884,-101.2706 840,-63 840.1161,-59.0017 841.2981,-57.7835 840,-54 838.8605,-50.679 837.2757,-47.4283 835.4339,-44.3232"/>
<polygon fill="#000088" stroke="#000088" points="829.7198,-36.0206 839.0962,-41.707 832.5545,-40.1394 835.3892,-44.2582 835.3892,-44.2582 835.3892,-44.2582 832.5545,-40.1394 831.6823,-46.8095 829.7198,-36.0206 829.7198,-36.0206"/>
<text text-anchor="middle" x="867" y="-183.1" font-family="Times,serif" font-size="8.00" fill="#000000">lexinfopartOfSpeech</text>
</g>
<!-- node1cj5v4ttvx6&#45;&gt;lexinfoneuter -->
<g id="edge23" class="edge">
<title>node1cj5v4ttvx6&#45;&gt;lexinfoneuter</title>
<path fill="none" stroke="#000088" d="M153.84,-166.7933C149.0288,-161.5984 144.6044,-155.5507 142,-149 130.8344,-120.916 127.2218,-107.3626 142,-81 151.7323,-63.6388 168.4143,-50.4895 185.5519,-40.816"/>
<polygon fill="#000088" stroke="#000088" points="194.521,-36.0703 187.7866,-44.7247 190.1015,-38.4088 185.682,-40.7472 185.682,-40.7472 185.682,-40.7472 190.1015,-38.4088 183.5774,-36.7697 194.521,-36.0703 194.521,-36.0703"/>
<text text-anchor="middle" x="165.5" y="-113.1" font-family="Times,serif" font-size="8.00" fill="#000000">lexinfoGender</text>
</g>
<!-- celexcomp92553&#45;&gt;node1cj5v4ttvx7 -->
<g id="edge25" class="edge">
<title>celexcomp92553&#45;&gt;node1cj5v4ttvx7</title>
<path fill="none" stroke="#000088" d="M955,-346.8239C955,-326.5072 955,-293.3163 955,-269.3179"/>
<polygon fill="#000088" stroke="#000088" points="955,-259.0177 959.5001,-269.0177 955,-264.0177 955.0001,-269.0177 955.0001,-269.0177 955.0001,-269.0177 955,-264.0177 950.5001,-269.0178 955,-259.0177 955,-259.0177"/>
<text text-anchor="middle" x="963" y="-293.1" font-family="Times,serif" font-size="8.00" fill="#000000">stem</text>
</g>
<!-- lexinfoNoun -->
<g id="node17" class="node">
<title>lexinfoNoun</title>
<path fill="none" stroke="#000000" d="M1132,-258C1132,-258 1058,-258 1058,-258 1052,-258 1046,-252 1046,-246 1046,-246 1046,-234 1046,-234 1046,-228 1052,-222 1058,-222 1058,-222 1132,-222 1132,-222 1138,-222 1144,-228 1144,-234 1144,-234 1144,-246 1144,-246 1144,-252 1138,-258 1132,-258"/>
<polygon fill="#add8e6" stroke="transparent" points="1054,-232 1054,-247 1136,-247 1136,-232 1054,-232"/>
<text text-anchor="start" x="1056.5" y="-238" font-family="Times,serif" font-style="italic" font-size="10.00" fill="#000000">lexinfoNoun:Class</text>
</g>
<!-- celexcomp92553&#45;&gt;lexinfoNoun -->
<g id="edge24" class="edge">
<title>celexcomp92553&#45;&gt;lexinfoNoun</title>
<path fill="none" stroke="#000088" d="M975.3572,-346.8239C999.5155,-325.254 1039.9266,-289.1727 1067.0144,-264.9871"/>
<polygon fill="#000088" stroke="#000088" points="1074.6182,-258.198 1070.1559,-268.2149 1070.8885,-261.5281 1067.1588,-264.8582 1067.1588,-264.8582 1067.1588,-264.8582 1070.8885,-261.5281 1064.1617,-261.5015 1074.6182,-258.198 1074.6182,-258.198"/>
<text text-anchor="middle" x="1083" y="-293.1" font-family="Times,serif" font-size="8.00" fill="#000000">lexinfopartOfSpeech</text>
</g>
<!-- celexlemma124345 -->
<g id="node19" class="node">
<title>celexlemma124345</title>
<path fill="none" stroke="#000000" d="M1315.5,-259C1315.5,-259 1174.5,-259 1174.5,-259 1168.5,-259 1162.5,-253 1162.5,-247 1162.5,-247 1162.5,-233 1162.5,-233 1162.5,-227 1168.5,-221 1174.5,-221 1174.5,-221 1315.5,-221 1315.5,-221 1321.5,-221 1327.5,-227 1327.5,-233 1327.5,-233 1327.5,-247 1327.5,-247 1327.5,-253 1321.5,-259 1315.5,-259"/>
<polygon fill="#add8e6" stroke="transparent" points="1171,-240 1171,-255 1320,-255 1320,-240 1171,-240"/>
<text text-anchor="start" x="1173" y="-246" font-family="Times,serif" font-style="italic" font-size="10.00" fill="#000000">celex_lemma_124345:ontolexAffix</text>
<text text-anchor="start" x="1194" y="-230" font-family="Times,serif" font-size="10.00" fill="#000000"> &#160;&#160;&#160;&#160;&#160;&#160;&#160;label &#160;&#160;&#160;&#160;&#160;</text>
<text text-anchor="start" x="1292" y="-230" font-family="Times,serif" font-size="10.00" fill="#000000">e</text>
</g>
<!-- celexcomp92554&#45;&gt;celexlemma124345 -->
<g id="edge26" class="edge">
<title>celexcomp92554&#45;&gt;celexlemma124345</title>
<path fill="none" stroke="#000088" d="M1142.449,-346.8239C1162.7438,-325.6836 1196.4202,-290.604 1219.6119,-266.446"/>
<polygon fill="#000088" stroke="#000088" points="1226.743,-259.0177 1223.0639,-269.348 1223.2803,-262.6247 1219.8176,-266.2316 1219.8176,-266.2316 1219.8176,-266.2316 1223.2803,-262.6247 1216.5714,-263.1152 1226.743,-259.0177 1226.743,-259.0177"/>
<text text-anchor="middle" x="1230" y="-293.1" font-family="Times,serif" font-size="8.00" fill="#000000">correspondsTo</text>
</g>
</g>
</svg>
