<svg width="321pt" height="225pt"
 viewBox="0.00 0.00 320.50 225.00" xmlns="http://www.w3.org/2000/svg" xmlns:xlink="http://www.w3.org/1999/xlink">
<g id="graph0" class="graph" transform="scale(1 1) rotate(0) translate(4 221)">
<title>G</title>
<polygon fill="#ffffff" stroke="transparent" points="-4,4 -4,-221 316.5,-221 316.5,4 -4,4"/>
<!-- sensebet1078333 -->
<g id="node1" class="node">
<title>sensebet1078333</title>
<path fill="none" stroke="#000000" d="M135.5,-126.5C135.5,-126.5 36.5,-126.5 36.5,-126.5 30.5,-126.5 24.5,-120.5 24.5,-114.5 24.5,-114.5 24.5,-100.5 24.5,-100.5 24.5,-94.5 30.5,-88.5 36.5,-88.5 36.5,-88.5 135.5,-88.5 135.5,-88.5 141.5,-88.5 147.5,-94.5 147.5,-100.5 147.5,-100.5 147.5,-114.5 147.5,-114.5 147.5,-120.5 141.5,-126.5 135.5,-126.5"/>
<polygon fill="#add8e6" stroke="transparent" points="33,-107.5 33,-122.5 140,-122.5 140,-107.5 33,-107.5"/>
<text text-anchor="start" x="35" y="-113.5" font-family="Times,serif" font-style="italic" font-size="10.00" fill="#000000">sensebet1.0_78333:UNK</text>
<text text-anchor="start" x="46.5" y="-97.5" font-family="Times,serif" font-size="10.00" fill="#000000">senseOrder</text>
<text text-anchor="start" x="120" y="-97.5" font-family="Times,serif" font-size="10.00" fill="#000000">1</text>
</g>
<!-- sensebet1078333definition -->
<g id="node2" class="node">
<title>sensebet1078333definition</title>
<path fill="none" stroke="#000000" d="M160,-36C160,-36 12,-36 12,-36 6,-36 0,-30 0,-24 0,-24 0,-12 0,-12 0,-6 6,0 12,0 12,0 160,0 160,0 166,0 172,-6 172,-12 172,-12 172,-24 172,-24 172,-30 166,-36 160,-36"/>
<polygon fill="#add8e6" stroke="transparent" points="8,-10 8,-25 164,-25 164,-10 8,-10"/>
<text text-anchor="start" x="10.5" y="-16" font-family="Times,serif" font-style="italic" font-size="10.00" fill="#000000">sensebet1.0_78333_definition:Class</text>
</g>
<!-- sensebet1078333&#45;&gt;sensebet1078333definition -->
<g id="edge1" class="edge">
<title>sensebet1078333&#45;&gt;sensebet1078333definition</title>
<path fill="none" stroke="#000088" d="M86,-88.0798C86,-75.9098 86,-60.0129 86,-46.4369"/>
<polygon fill="#000088" stroke="#000088" points="86,-36.1622 90.5001,-46.1622 86,-41.1622 86.0001,-46.1622 86.0001,-46.1622 86.0001,-46.1622 86,-41.1622 81.5001,-46.1622 86,-36.1622 86,-36.1622"/>
<text text-anchor="middle" x="101.5" y="-56.6" font-family="Times,serif" font-size="8.00" fill="#000000">definition</text>
</g>
<!-- lemmavorm78332 -->
<g id="node3" class="node">
<title>lemmavorm78332</title>
<path fill="none" stroke="#000000" d="M300.5,-134C300.5,-134 177.5,-134 177.5,-134 171.5,-134 165.5,-128 165.5,-122 165.5,-122 165.5,-93 165.5,-93 165.5,-87 171.5,-81 177.5,-81 177.5,-81 300.5,-81 300.5,-81 306.5,-81 312.5,-87 312.5,-93 312.5,-93 312.5,-122 312.5,-122 312.5,-128 306.5,-134 300.5,-134"/>
<polygon fill="#add8e6" stroke="transparent" points="174,-114.5 174,-129.5 305,-129.5 305,-114.5 174,-114.5"/>
<text text-anchor="start" x="186.5" y="-120.5" font-family="Times,serif" font-style="italic" font-size="10.00" fill="#000000">lemmavorm_78332:Form</text>
<text text-anchor="start" x="179.5" y="-104.5" font-family="Times,serif" font-size="10.00" fill="#000000">writtenRepresentation</text>
<text text-anchor="start" x="284" y="-104.5" font-family="Times,serif" font-size="10.00" fill="#000000">kat</text>
<text text-anchor="start" x="176" y="-89.5" font-family="Times,serif" font-size="10.00" fill="#000000">phoneticRepresentation</text>
<text text-anchor="start" x="278" y="-89.5" font-family="Times,serif" font-size="10.00" fill="#000000">*k ɑ t</text>
</g>
<!-- lemma78332 -->
<g id="node4" class="node">
<title>lemma78332</title>
<path fill="none" stroke="#000000" d="M245.5,-217C245.5,-217 134.5,-217 134.5,-217 128.5,-217 122.5,-211 122.5,-205 122.5,-205 122.5,-191 122.5,-191 122.5,-185 128.5,-179 134.5,-179 134.5,-179 245.5,-179 245.5,-179 251.5,-179 257.5,-185 257.5,-191 257.5,-191 257.5,-205 257.5,-205 257.5,-211 251.5,-217 245.5,-217"/>
<polygon fill="#add8e6" stroke="transparent" points="131,-198 131,-213 250,-213 250,-198 131,-198"/>
<text text-anchor="start" x="133" y="-204" font-family="Times,serif" font-style="italic" font-size="10.00" fill="#000000">lemma_78332:LexicalEntry</text>
<text text-anchor="start" x="152" y="-188" font-family="Times,serif" font-size="10.00" fill="#000000">label</text>
<text text-anchor="start" x="215.5" y="-188" font-family="Times,serif" font-size="10.00" fill="#000000">kat</text>
</g>
<!-- lemma78332&#45;&gt;sensebet1078333 -->
<g id="edge3" class="edge">
<title>lemma78332&#45;&gt;sensebet1078333</title>
<path fill="none" stroke="#000088" d="M167.9443,-178.8073C152.777,-165.6089 132.4539,-147.9239 115.8419,-133.4682"/>
<polygon fill="#000088" stroke="#000088" points="108.0239,-126.6651 118.5217,-129.8349 111.7958,-129.9473 115.5677,-133.2296 115.5677,-133.2296 115.5677,-133.2296 111.7958,-129.9473 112.6136,-136.6243 108.0239,-126.6651 108.0239,-126.6651"/>
<text text-anchor="middle" x="157" y="-154.6" font-family="Times,serif" font-size="8.00" fill="#000000">sense</text>
</g>
<!-- lemma78332&#45;&gt;lemmavorm78332 -->
<g id="edge2" class="edge">
<title>lemma78332&#45;&gt;lemmavorm78332</title>
<path fill="none" stroke="#000088" d="M200.3916,-178.8073C205.9882,-168.4707 213.0748,-155.3822 219.6446,-143.2483"/>
<polygon fill="#000088" stroke="#000088" points="224.5345,-134.2169 223.7304,-145.1533 222.1538,-138.6138 219.7732,-143.0107 219.7732,-143.0107 219.7732,-143.0107 222.1538,-138.6138 215.816,-140.8681 224.5345,-134.2169 224.5345,-134.2169"/>
<text text-anchor="middle" x="238.5" y="-154.6" font-family="Times,serif" font-size="8.00" fill="#000000">canonicalForm</text>
</g>
</g>
</svg>
