<svg width="929pt" height="242pt"
 viewBox="0.00 0.00 929.00 242.00" xmlns="http://www.w3.org/2000/svg" xmlns:xlink="http://www.w3.org/1999/xlink">
<g id="graph0" class="graph" transform="scale(1 1) rotate(0) translate(4 238)">
<title>G</title>
<polygon fill="#ffffff" stroke="transparent" points="-4,4 -4,-238 925,-238 925,4 -4,4"/>
<!-- sensebet1078333definition -->
<g id="node1" class="node">
<title>sensebet1078333definition</title>
<path fill="none" stroke="#000000" d="M909,-53C909,-53 274,-53 274,-53 268,-53 262,-47 262,-41 262,-41 262,-12 262,-12 262,-6 268,0 274,0 274,0 909,0 909,0 915,0 921,-6 921,-12 921,-12 921,-41 921,-41 921,-47 915,-53 909,-53"/>
<polygon fill="#add8e6" stroke="transparent" points="270.5,-33.5 270.5,-48.5 913.5,-48.5 913.5,-33.5 270.5,-33.5"/>
<text text-anchor="start" x="517.5" y="-39.5" font-family="Times,serif" font-style="italic" font-size="10.00" fill="#000000">sensebet1.0_78333_definition:UNK</text>
<text text-anchor="start" x="308" y="-23.5" font-family="Times,serif" font-size="10.00" fill="#000000">value</text>
<text text-anchor="start" x="370.5" y="-23.5" font-family="Times,serif" font-size="10.00" fill="#000000">klein huisdier dat miauwt en spint en dat gehouden wordt als gezelschapsdier of voor het vangen van muizen en ratten; huiskat; poes</text>
<text text-anchor="start" x="272.5" y="-8.5" font-family="Times,serif" font-size="10.00" fill="#000000">definitionComplement</text>
<text text-anchor="start" x="475.5" y="-8.5" font-family="Times,serif" font-size="10.00" fill="#000000">Zowel in toepassing op dieren van het vrouwelijk als van het mannelijk geslacht.</text>
</g>
<!-- lemmavorm78332 -->
<g id="node2" class="node">
<title>lemmavorm78332</title>
<path fill="none" stroke="#000000" d="M135,-151C135,-151 12,-151 12,-151 6,-151 0,-145 0,-139 0,-139 0,-110 0,-110 0,-104 6,-98 12,-98 12,-98 135,-98 135,-98 141,-98 147,-104 147,-110 147,-110 147,-139 147,-139 147,-145 141,-151 135,-151"/>
<polygon fill="#add8e6" stroke="transparent" points="8.5,-131.5 8.5,-146.5 139.5,-146.5 139.5,-131.5 8.5,-131.5"/>
<text text-anchor="start" x="21" y="-137.5" font-family="Times,serif" font-style="italic" font-size="10.00" fill="#000000">lemmavorm_78332:Form</text>
<text text-anchor="start" x="14" y="-121.5" font-family="Times,serif" font-size="10.00" fill="#000000">writtenRepresentation</text>
<text text-anchor="start" x="118.5" y="-121.5" font-family="Times,serif" font-size="10.00" fill="#000000">kat</text>
<text text-anchor="start" x="10.5" y="-106.5" font-family="Times,serif" font-size="10.00" fill="#000000">phoneticRepresentation</text>
<text text-anchor="start" x="112.5" y="-106.5" font-family="Times,serif" font-size="10.00" fill="#000000">*k ɑ t</text>
</g>
<!-- sensebet11195644 -->
<g id="node3" class="node">
<title>sensebet11195644</title>
<path fill="none" stroke="#000000" d="M282,-143.5C282,-143.5 177,-143.5 177,-143.5 171,-143.5 165,-137.5 165,-131.5 165,-131.5 165,-117.5 165,-117.5 165,-111.5 171,-105.5 177,-105.5 177,-105.5 282,-105.5 282,-105.5 288,-105.5 294,-111.5 294,-117.5 294,-117.5 294,-131.5 294,-131.5 294,-137.5 288,-143.5 282,-143.5"/>
<polygon fill="#add8e6" stroke="transparent" points="173.5,-124.5 173.5,-139.5 286.5,-139.5 286.5,-124.5 173.5,-124.5"/>
<text text-anchor="start" x="175.5" y="-130.5" font-family="Times,serif" font-style="italic" font-size="10.00" fill="#000000">sensebet1.1_195644:UNK</text>
<text text-anchor="start" x="185" y="-114.5" font-family="Times,serif" font-size="10.00" fill="#000000">subsenseOrder</text>
<text text-anchor="start" x="268.5" y="-114.5" font-family="Times,serif" font-size="10.00" fill="#000000">1</text>
</g>
<!-- sensebet11195644definition -->
<g id="node4" class="node">
<title>sensebet11195644definition</title>
<path fill="none" stroke="#000000" d="M232.5,-44.5C232.5,-44.5 80.5,-44.5 80.5,-44.5 74.5,-44.5 68.5,-38.5 68.5,-32.5 68.5,-32.5 68.5,-20.5 68.5,-20.5 68.5,-14.5 74.5,-8.5 80.5,-8.5 80.5,-8.5 232.5,-8.5 232.5,-8.5 238.5,-8.5 244.5,-14.5 244.5,-20.5 244.5,-20.5 244.5,-32.5 244.5,-32.5 244.5,-38.5 238.5,-44.5 232.5,-44.5"/>
<polygon fill="#add8e6" stroke="transparent" points="76.5,-18.5 76.5,-33.5 236.5,-33.5 236.5,-18.5 76.5,-18.5"/>
<text text-anchor="start" x="78.5" y="-24.5" font-family="Times,serif" font-style="italic" font-size="10.00" fill="#000000">sensebet1.1_195644_definition:Class</text>
</g>
<!-- sensebet11195644&#45;&gt;sensebet11195644definition -->
<g id="edge1" class="edge">
<title>sensebet11195644&#45;&gt;sensebet11195644definition</title>
<path fill="none" stroke="#000088" d="M215.0775,-105.1384C203.967,-90.2229 188.4848,-69.4385 176.2274,-52.9834"/>
<polygon fill="#000088" stroke="#000088" points="170.1518,-44.8271 179.7344,-50.1585 173.1387,-48.8369 176.1256,-52.8467 176.1256,-52.8467 176.1256,-52.8467 173.1387,-48.8369 172.5168,-55.5349 170.1518,-44.8271 170.1518,-44.8271"/>
<text text-anchor="middle" x="210" y="-73.6" font-family="Times,serif" font-size="8.00" fill="#000000">definition</text>
</g>
<!-- lemma78332 -->
<g id="node5" class="node">
<title>lemma78332</title>
<path fill="none" stroke="#000000" d="M285,-234C285,-234 174,-234 174,-234 168,-234 162,-228 162,-222 162,-222 162,-208 162,-208 162,-202 168,-196 174,-196 174,-196 285,-196 285,-196 291,-196 297,-202 297,-208 297,-208 297,-222 297,-222 297,-228 291,-234 285,-234"/>
<polygon fill="#add8e6" stroke="transparent" points="170.5,-215 170.5,-230 289.5,-230 289.5,-215 170.5,-215"/>
<text text-anchor="start" x="172.5" y="-221" font-family="Times,serif" font-style="italic" font-size="10.00" fill="#000000">lemma_78332:LexicalEntry</text>
<text text-anchor="start" x="191.5" y="-205" font-family="Times,serif" font-size="10.00" fill="#000000">label</text>
<text text-anchor="start" x="255" y="-205" font-family="Times,serif" font-size="10.00" fill="#000000">kat</text>
</g>
<!-- lemma78332&#45;&gt;lemmavorm78332 -->
<g id="edge2" class="edge">
<title>lemma78332&#45;&gt;lemmavorm78332</title>
<path fill="none" stroke="#000088" d="M196.4164,-195.8073C176.5982,-184.3101 150.9114,-169.4085 128.1477,-156.2027"/>
<polygon fill="#000088" stroke="#000088" points="119.2576,-151.0453 130.1656,-152.1709 123.5826,-153.5543 127.9075,-156.0634 127.9075,-156.0634 127.9075,-156.0634 123.5826,-153.5543 125.6494,-159.9558 119.2576,-151.0453 119.2576,-151.0453"/>
<text text-anchor="middle" x="189" y="-171.6" font-family="Times,serif" font-size="8.00" fill="#000000">canonicalForm</text>
</g>
<!-- lemma78332&#45;&gt;sensebet11195644 -->
<g id="edge4" class="edge">
<title>lemma78332&#45;&gt;sensebet11195644</title>
<path fill="none" stroke="#000088" d="M229.5,-195.8073C229.5,-183.5687 229.5,-167.4725 229.5,-153.6705"/>
<polygon fill="#000088" stroke="#000088" points="229.5,-143.6651 234.0001,-153.665 229.5,-148.6651 229.5001,-153.6651 229.5001,-153.6651 229.5001,-153.6651 229.5,-148.6651 225.0001,-153.6651 229.5,-143.6651 229.5,-143.6651"/>
<text text-anchor="middle" x="238.5" y="-171.6" font-family="Times,serif" font-size="8.00" fill="#000000">sense</text>
</g>
<!-- sensebet1078333 -->
<g id="node6" class="node">
<title>sensebet1078333</title>
<path fill="none" stroke="#000000" d="M568,-143.5C568,-143.5 469,-143.5 469,-143.5 463,-143.5 457,-137.5 457,-131.5 457,-131.5 457,-117.5 457,-117.5 457,-111.5 463,-105.5 469,-105.5 469,-105.5 568,-105.5 568,-105.5 574,-105.5 580,-111.5 580,-117.5 580,-117.5 580,-131.5 580,-131.5 580,-137.5 574,-143.5 568,-143.5"/>
<polygon fill="#add8e6" stroke="transparent" points="465.5,-124.5 465.5,-139.5 572.5,-139.5 572.5,-124.5 465.5,-124.5"/>
<text text-anchor="start" x="467.5" y="-130.5" font-family="Times,serif" font-style="italic" font-size="10.00" fill="#000000">sensebet1.0_78333:UNK</text>
<text text-anchor="start" x="479" y="-114.5" font-family="Times,serif" font-size="10.00" fill="#000000">senseOrder</text>
<text text-anchor="start" x="552.5" y="-114.5" font-family="Times,serif" font-size="10.00" fill="#000000">1</text>
</g>
<!-- lemma78332&#45;&gt;sensebet1078333 -->
<g id="edge3" class="edge">
<title>lemma78332&#45;&gt;sensebet1078333</title>
<path fill="none" stroke="#000088" d="M290.4363,-195.9179C336.4507,-181.5085 399.6896,-161.7053 447.9061,-146.6064"/>
<polygon fill="#000088" stroke="#000088" points="457.647,-143.556 449.4488,-150.8389 452.8755,-145.0503 448.104,-146.5445 448.104,-146.5445 448.104,-146.5445 452.8755,-145.0503 446.7592,-142.2501 457.647,-143.556 457.647,-143.556"/>
<text text-anchor="middle" x="382.5" y="-171.6" font-family="Times,serif" font-size="8.00" fill="#000000">sense</text>
</g>
<!-- sensebet1078333&#45;&gt;sensebet1078333definition -->
<g id="edge5" class="edge">
<title>sensebet1078333&#45;&gt;sensebet1078333definition</title>
<path fill="none" stroke="#000088" d="M532.9225,-105.1384C542.1618,-92.7348 554.4245,-76.2727 565.3417,-61.6167"/>
<polygon fill="#000088" stroke="#000088" points="571.5811,-53.2405 569.2161,-63.9483 568.5942,-57.2503 565.6072,-61.2601 565.6072,-61.2601 565.6072,-61.2601 568.5942,-57.2503 561.9984,-58.5719 571.5811,-53.2405 571.5811,-53.2405"/>
<text text-anchor="middle" x="572" y="-73.6" font-family="Times,serif" font-size="8.00" fill="#000000">definition</text>
</g>
</g>
</svg>
