<svg width="1917pt" height="298pt"
 viewBox="0.00 0.00 1917.00 298.00" xmlns="http://www.w3.org/2000/svg" xmlns:xlink="http://www.w3.org/1999/xlink">
<g id="graph0" class="graph" transform="scale(1 1) rotate(0) translate(4 294)">
<title>G</title>
<polygon fill="#ffffff" stroke="transparent" points="-4,4 -4,-294 1913,-294 1913,4 -4,4"/>
<!-- cgnlexwform862735 -->
<g id="node1" class="node">
<title>cgnlexwform862735</title>
<path fill="none" stroke="#000000" d="M722.5,-201.5C722.5,-201.5 573.5,-201.5 573.5,-201.5 567.5,-201.5 561.5,-195.5 561.5,-189.5 561.5,-189.5 561.5,-100.5 561.5,-100.5 561.5,-94.5 567.5,-88.5 573.5,-88.5 573.5,-88.5 722.5,-88.5 722.5,-88.5 728.5,-88.5 734.5,-94.5 734.5,-100.5 734.5,-100.5 734.5,-189.5 734.5,-189.5 734.5,-195.5 728.5,-201.5 722.5,-201.5"/>
<polygon fill="#add8e6" stroke="transparent" points="570,-182 570,-197 727,-197 727,-182 570,-182"/>
<text text-anchor="start" x="573" y="-188" font-family="Times,serif" font-style="italic" font-size="10.00" fill="#000000">cgnlex_wform_862735:ontolexword</text>
<text text-anchor="start" x="575.5" y="-172" font-family="Times,serif" font-size="10.00" fill="#000000"> &#160;&#160;&#160;&#160;&#160;&#160;&#160;ontolexwrittenRep &#160;&#160;&#160;&#160;&#160;</text>
<text text-anchor="start" x="696" y="-172" font-family="Times,serif" font-size="10.00" fill="#000000">katjes</text>
<text text-anchor="start" x="572" y="-157" font-family="Times,serif" font-size="10.00" fill="#000000"> &#160;&#160;&#160;&#160;&#160;&#160;&#160;ontolexphoneticRep &#160;&#160;&#160;&#160;&#160;</text>
<text text-anchor="start" x="692.5" y="-157" font-family="Times,serif" font-size="10.00" fill="#000000">kAtj@s</text>
<text text-anchor="start" x="572" y="-142" font-family="Times,serif" font-size="10.00" fill="#000000"> &#160;&#160;&#160;&#160;&#160;&#160;&#160;ontolexphoneticRep &#160;&#160;&#160;&#160;&#160;</text>
<text text-anchor="start" x="692.5" y="-142" font-family="Times,serif" font-size="10.00" fill="#000000">kAtj@s</text>
<text text-anchor="start" x="588" y="-127" font-family="Times,serif" font-size="10.00" fill="#000000"> &#160;&#160;&#160;&#160;&#160;&#160;&#160;variantLabel &#160;&#160;&#160;&#160;&#160;</text>
<text text-anchor="start" x="692" y="-127" font-family="Times,serif" font-size="10.00" fill="#000000">Flemish</text>
<text text-anchor="start" x="572" y="-112" font-family="Times,serif" font-size="10.00" fill="#000000"> &#160;&#160;&#160;&#160;&#160;&#160;&#160;ontolexphoneticRep &#160;&#160;&#160;&#160;&#160;</text>
<text text-anchor="start" x="692.5" y="-112" font-family="Times,serif" font-size="10.00" fill="#000000">kAtj@s</text>
<text text-anchor="start" x="588" y="-97" font-family="Times,serif" font-size="10.00" fill="#000000"> &#160;&#160;&#160;&#160;&#160;&#160;&#160;variantLabel &#160;&#160;&#160;&#160;&#160;</text>
<text text-anchor="start" x="692" y="-97" font-family="Times,serif" font-size="10.00" fill="#000000">Flemish</text>
</g>
<!-- lexinfoneutralRegister -->
<g id="node2" class="node">
<title>lexinfoneutralRegister</title>
<path fill="none" stroke="#000000" d="M1321,-36C1321,-36 1207,-36 1207,-36 1201,-36 1195,-30 1195,-24 1195,-24 1195,-12 1195,-12 1195,-6 1201,0 1207,0 1207,0 1321,0 1321,0 1327,0 1333,-6 1333,-12 1333,-12 1333,-24 1333,-24 1333,-30 1327,-36 1321,-36"/>
<polygon fill="#add8e6" stroke="transparent" points="1203,-10 1203,-25 1325,-25 1325,-10 1203,-10"/>
<text text-anchor="start" x="1205" y="-16" font-family="Times,serif" font-style="italic" font-size="10.00" fill="#000000">lexinfoneutralRegister:Class</text>
</g>
<!-- cgnlexwform862735&#45;&gt;lexinfoneutralRegister -->
<g id="edge1" class="edge">
<title>cgnlexwform862735&#45;&gt;lexinfoneutralRegister</title>
<path fill="none" stroke="#000088" d="M636.3993,-88.0764C636.9084,-75.4642 640.2771,-63.1472 649,-54 650.1438,-52.8006 1018.7028,-31.8488 1184.6485,-22.4727"/>
<polygon fill="#000088" stroke="#000088" points="1194.8002,-21.8992 1185.0699,-26.9561 1189.8081,-22.1813 1184.8161,-22.4633 1184.8161,-22.4633 1184.8161,-22.4633 1189.8081,-22.1813 1184.5623,-17.9704 1194.8002,-21.8992 1194.8002,-21.8992"/>
<text text-anchor="middle" x="674" y="-56.6" font-family="Times,serif" font-size="8.00" fill="#000000">lexinfoRegister</text>
</g>
<!-- cgnlexwform862735&#45;&gt;lexinfoneutralRegister -->
<g id="edge2" class="edge">
<title>cgnlexwform862735&#45;&gt;lexinfoneutralRegister</title>
<path fill="none" stroke="#000088" d="M587.5007,-88.1291C581.29,-76.2124 580.32,-64.1847 590,-54 603.5662,-39.7264 924.3361,-37.053 944,-36 1026.0141,-31.6083 1119.8343,-26.297 1184.5816,-22.5865"/>
<polygon fill="#000088" stroke="#000088" points="1194.7172,-22.0051 1184.9914,-27.0704 1189.7254,-22.2915 1184.7336,-22.5778 1184.7336,-22.5778 1184.7336,-22.5778 1189.7254,-22.2915 1184.4759,-18.0852 1194.7172,-22.0051 1194.7172,-22.0051"/>
<text text-anchor="middle" x="615" y="-56.6" font-family="Times,serif" font-size="8.00" fill="#000000">lexinfoRegister</text>
</g>
<!-- lexinfoformalRegister -->
<g id="node3" class="node">
<title>lexinfoformalRegister</title>
<path fill="none" stroke="#000000" d="M923,-36C923,-36 811,-36 811,-36 805,-36 799,-30 799,-24 799,-24 799,-12 799,-12 799,-6 805,0 811,0 811,0 923,0 923,0 929,0 935,-6 935,-12 935,-12 935,-24 935,-24 935,-30 929,-36 923,-36"/>
<polygon fill="#add8e6" stroke="transparent" points="807,-10 807,-25 927,-25 927,-10 807,-10"/>
<text text-anchor="start" x="809" y="-16" font-family="Times,serif" font-style="italic" font-size="10.00" fill="#000000">lexinfoformalRegister:Class</text>
</g>
<!-- cgnlexwform862735&#45;&gt;lexinfoformalRegister -->
<g id="edge3" class="edge">
<title>cgnlexwform862735&#45;&gt;lexinfoformalRegister</title>
<path fill="none" stroke="#000088" d="M565.7435,-88.4049C561.1532,-85.8009 556.554,-83.3134 552,-81 529.8314,-69.7384 486.2243,-72.3534 503,-54 518.0533,-37.5311 680.7984,-38.2172 703,-36 730.9264,-33.211 761.5003,-29.9201 788.6041,-26.9201"/>
<polygon fill="#000088" stroke="#000088" points="798.8092,-25.7861 789.3673,-31.363 793.8398,-26.3383 788.8703,-26.8905 788.8703,-26.8905 788.8703,-26.8905 793.8398,-26.3383 788.3734,-22.4181 798.8092,-25.7861 798.8092,-25.7861"/>
<text text-anchor="middle" x="528" y="-56.6" font-family="Times,serif" font-size="8.00" fill="#000000">lexinfoRegister</text>
</g>
<!-- lexinfoplural -->
<g id="node4" class="node">
<title>lexinfoplural</title>
<path fill="none" stroke="#000000" d="M682,-36C682,-36 606,-36 606,-36 600,-36 594,-30 594,-24 594,-24 594,-12 594,-12 594,-6 600,0 606,0 606,0 682,0 682,0 688,0 694,-6 694,-12 694,-12 694,-24 694,-24 694,-30 688,-36 682,-36"/>
<polygon fill="#add8e6" stroke="transparent" points="602,-10 602,-25 686,-25 686,-10 602,-10"/>
<text text-anchor="start" x="604" y="-16" font-family="Times,serif" font-style="italic" font-size="10.00" fill="#000000">lexinfoplural:Class</text>
</g>
<!-- cgnlexwform862735&#45;&gt;lexinfoplural -->
<g id="edge4" class="edge">
<title>cgnlexwform862735&#45;&gt;lexinfoplural</title>
<path fill="none" stroke="#000088" d="M568.7501,-88.4992C563.214,-85.7064 557.6046,-83.1678 552,-81 501.4186,-61.4359 398.0246,-95.4482 433,-54 442.7275,-42.4723 524.985,-31.0866 583.8616,-24.2994"/>
<polygon fill="#000088" stroke="#000088" points="593.8266,-23.1685 584.3978,-28.7676 588.8585,-23.7324 583.8903,-24.2963 583.8903,-24.2963 583.8903,-24.2963 588.8585,-23.7324 583.3829,-19.825 593.8266,-23.1685 593.8266,-23.1685"/>
<text text-anchor="middle" x="456.5" y="-56.6" font-family="Times,serif" font-size="8.00" fill="#000000">lexinfonumber</text>
</g>
<!-- node1cj5v4ttvx2 -->
<g id="node5" class="node">
<title>node1cj5v4ttvx2</title>
<path fill="none" stroke="#000000" d="M102,-163C102,-163 12,-163 12,-163 6,-163 0,-157 0,-151 0,-151 0,-139 0,-139 0,-133 6,-127 12,-127 12,-127 102,-127 102,-127 108,-127 114,-133 114,-139 114,-139 114,-151 114,-151 114,-157 108,-163 102,-163"/>
<polygon fill="#add8e6" stroke="transparent" points="8,-137 8,-152 106,-152 106,-137 8,-137"/>
<text text-anchor="start" x="10.5" y="-143" font-family="Times,serif" font-style="italic" font-size="10.00" fill="#000000">node1cj5v4ttvx2:UNK</text>
</g>
<!-- lexinfonoun -->
<g id="node6" class="node">
<title>lexinfonoun</title>
<path fill="none" stroke="#000000" d="M91,-36C91,-36 19,-36 19,-36 13,-36 7,-30 7,-24 7,-24 7,-12 7,-12 7,-6 13,0 19,0 19,0 91,0 91,0 97,0 103,-6 103,-12 103,-12 103,-24 103,-24 103,-30 97,-36 91,-36"/>
<polygon fill="#add8e6" stroke="transparent" points="15,-10 15,-25 95,-25 95,-10 15,-10"/>
<text text-anchor="start" x="17" y="-16" font-family="Times,serif" font-style="italic" font-size="10.00" fill="#000000">lexinfonoun:Class</text>
</g>
<!-- node1cj5v4ttvx2&#45;&gt;lexinfonoun -->
<g id="edge5" class="edge">
<title>node1cj5v4ttvx2&#45;&gt;lexinfonoun</title>
<path fill="none" stroke="#000088" d="M56.7134,-126.804C56.3823,-105.7735 55.8332,-70.9094 55.446,-46.3236"/>
<polygon fill="#000088" stroke="#000088" points="55.286,-36.1622 59.943,-46.0901 55.3648,-41.1616 55.4436,-46.161 55.4436,-46.161 55.4436,-46.161 55.3648,-41.1616 50.9441,-46.2319 55.286,-36.1622 55.286,-36.1622"/>
<text text-anchor="middle" x="90" y="-56.6" font-family="Times,serif" font-size="8.00" fill="#000000">lexinfopartOfSpeech</text>
</g>
<!-- cgnlexlemma47751 -->
<g id="node7" class="node">
<title>cgnlexlemma47751</title>
<path fill="none" stroke="#000000" d="M798,-290C798,-290 624,-290 624,-290 618,-290 612,-284 612,-278 612,-278 612,-266 612,-266 612,-260 618,-254 624,-254 624,-254 798,-254 798,-254 804,-254 810,-260 810,-266 810,-266 810,-278 810,-278 810,-284 804,-290 798,-290"/>
<polygon fill="#add8e6" stroke="transparent" points="620,-264 620,-279 802,-279 802,-264 620,-264"/>
<text text-anchor="start" x="622" y="-270" font-family="Times,serif" font-style="italic" font-size="10.00" fill="#000000">cgnlex_lemma_47751:ontolexLexicalEntry</text>
</g>
<!-- cgnlexlemma47751&#45;&gt;cgnlexwform862735 -->
<g id="edge13" class="edge">
<title>cgnlexlemma47751&#45;&gt;cgnlexwform862735</title>
<path fill="none" stroke="#000088" d="M701.9736,-253.804C696.2853,-242.3371 688.5569,-226.7575 680.7271,-210.9738"/>
<polygon fill="#000088" stroke="#000088" points="676.1201,-201.6865 684.5953,-208.6451 678.3421,-206.1657 680.564,-210.6449 680.564,-210.6449 680.564,-210.6449 678.3421,-206.1657 676.5328,-212.6446 676.1201,-201.6865 676.1201,-201.6865"/>
<text text-anchor="middle" x="713" y="-229.6" font-family="Times,serif" font-size="8.00" fill="#000000">ontolexform</text>
</g>
<!-- cgnlexlemma47751&#45;&gt;node1cj5v4ttvx2 -->
<g id="edge7" class="edge">
<title>cgnlexlemma47751&#45;&gt;node1cj5v4ttvx2</title>
<path fill="none" stroke="#000088" d="M611.9688,-268.2111C486.0924,-262.841 276.0122,-251.8715 200,-236 164.9107,-228.6733 154.5234,-227.7952 124,-209 107.3255,-198.7325 91.359,-183.7579 79.1976,-170.8747"/>
<polygon fill="#000088" stroke="#000088" points="72.1449,-163.1842 82.2203,-167.5128 75.5243,-166.8692 78.9037,-170.5543 78.9037,-170.5543 78.9037,-170.5543 75.5243,-166.8692 75.5872,-173.5958 72.1449,-163.1842 72.1449,-163.1842"/>
<text text-anchor="middle" x="252" y="-229.6" font-family="Times,serif" font-size="8.00" fill="#000000">lexinfoMorphosyntacticProperty</text>
</g>
<!-- node1cj5v4ttvx1 -->
<g id="node8" class="node">
<title>node1cj5v4ttvx1</title>
<path fill="none" stroke="#000000" d="M399,-164C399,-164 277,-164 277,-164 271,-164 265,-158 265,-152 265,-152 265,-138 265,-138 265,-132 271,-126 277,-126 277,-126 399,-126 399,-126 405,-126 411,-132 411,-138 411,-138 411,-152 411,-152 411,-158 405,-164 399,-164"/>
<polygon fill="#add8e6" stroke="transparent" points="273,-145 273,-160 403,-160 403,-145 273,-145"/>
<text text-anchor="start" x="291.5" y="-151" font-family="Times,serif" font-style="italic" font-size="10.00" fill="#000000">node1cj5v4ttvx1:UNK</text>
<text text-anchor="start" x="275" y="-135" font-family="Times,serif" font-size="10.00" fill="#000000"> &#160;&#160;&#160;&#160;&#160;&#160;&#160;ontolexwrittenRep &#160;&#160;&#160;&#160;&#160;</text>
<text text-anchor="start" x="388" y="-135" font-family="Times,serif" font-size="10.00" fill="#000000">kat</text>
</g>
<!-- cgnlexlemma47751&#45;&gt;node1cj5v4ttvx1 -->
<g id="edge6" class="edge">
<title>cgnlexlemma47751&#45;&gt;node1cj5v4ttvx1</title>
<path fill="none" stroke="#000088" d="M611.7189,-262.6516C553.541,-254.2645 479.9486,-238.4934 420,-209 400.1754,-199.2467 380.5711,-184.1985 365.5043,-171.144"/>
<polygon fill="#000088" stroke="#000088" points="357.6282,-164.1428 368.0919,-167.4232 361.3652,-167.4647 365.1022,-170.7866 365.1022,-170.7866 365.1022,-170.7866 361.3652,-167.4647 362.1126,-174.1499 357.6282,-164.1428 357.6282,-164.1428"/>
<text text-anchor="middle" x="509" y="-229.6" font-family="Times,serif" font-size="8.00" fill="#000000">ontolexform</text>
</g>
<!-- node1cj5v4ttvx3 -->
<g id="node9" class="node">
<title>node1cj5v4ttvx3</title>
<path fill="none" stroke="#000000" d="M235,-163C235,-163 145,-163 145,-163 139,-163 133,-157 133,-151 133,-151 133,-139 133,-139 133,-133 139,-127 145,-127 145,-127 235,-127 235,-127 241,-127 247,-133 247,-139 247,-139 247,-151 247,-151 247,-157 241,-163 235,-163"/>
<polygon fill="#add8e6" stroke="transparent" points="141,-137 141,-152 239,-152 239,-137 141,-137"/>
<text text-anchor="start" x="143.5" y="-143" font-family="Times,serif" font-style="italic" font-size="10.00" fill="#000000">node1cj5v4ttvx3:UNK</text>
</g>
<!-- cgnlexlemma47751&#45;&gt;node1cj5v4ttvx3 -->
<g id="edge8" class="edge">
<title>cgnlexlemma47751&#45;&gt;node1cj5v4ttvx3</title>
<path fill="none" stroke="#000088" d="M611.9274,-266.7963C496.8007,-259.287 315.0586,-242.4718 256,-209 238.8662,-199.2893 222.9162,-184.0712 210.9893,-170.9108"/>
<polygon fill="#000088" stroke="#000088" points="204.1084,-163.0501 214.081,-167.6106 207.4017,-166.8123 210.6949,-170.5745 210.6949,-170.5745 210.6949,-170.5745 207.4017,-166.8123 207.3089,-173.5385 204.1084,-163.0501 204.1084,-163.0501"/>
<text text-anchor="middle" x="390" y="-229.6" font-family="Times,serif" font-size="8.00" fill="#000000">lexinfoMorphosyntacticProperty</text>
</g>
<!-- node1cj5v4ttvx4 -->
<g id="node11" class="node">
<title>node1cj5v4ttvx4</title>
<path fill="none" stroke="#000000" d="M531,-163C531,-163 441,-163 441,-163 435,-163 429,-157 429,-151 429,-151 429,-139 429,-139 429,-133 435,-127 441,-127 441,-127 531,-127 531,-127 537,-127 543,-133 543,-139 543,-139 543,-151 543,-151 543,-157 537,-163 531,-163"/>
<polygon fill="#add8e6" stroke="transparent" points="437,-137 437,-152 535,-152 535,-137 437,-137"/>
<text text-anchor="start" x="439.5" y="-143" font-family="Times,serif" font-style="italic" font-size="10.00" fill="#000000">node1cj5v4ttvx4:UNK</text>
</g>
<!-- cgnlexlemma47751&#45;&gt;node1cj5v4ttvx4 -->
<g id="edge9" class="edge">
<title>cgnlexlemma47751&#45;&gt;node1cj5v4ttvx4</title>
<path fill="none" stroke="#000088" d="M623.3872,-253.9705C608.7469,-249.2238 594.0813,-243.3159 581,-236 551.4363,-219.4662 524.2419,-191.5466 506.5943,-170.9832"/>
<polygon fill="#000088" stroke="#000088" points="500.0879,-163.227 509.9623,-167.9963 503.3013,-167.0577 506.5147,-170.8884 506.5147,-170.8884 506.5147,-170.8884 503.3013,-167.0577 503.0671,-173.7805 500.0879,-163.227 500.0879,-163.227"/>
<text text-anchor="middle" x="633" y="-229.6" font-family="Times,serif" font-size="8.00" fill="#000000">lexinfoMorphosyntacticProperty</text>
</g>
<!-- cgnlexwform147297 -->
<g id="node13" class="node">
<title>cgnlexwform147297</title>
<path fill="none" stroke="#000000" d="M1837.5,-186.5C1837.5,-186.5 1688.5,-186.5 1688.5,-186.5 1682.5,-186.5 1676.5,-180.5 1676.5,-174.5 1676.5,-174.5 1676.5,-115.5 1676.5,-115.5 1676.5,-109.5 1682.5,-103.5 1688.5,-103.5 1688.5,-103.5 1837.5,-103.5 1837.5,-103.5 1843.5,-103.5 1849.5,-109.5 1849.5,-115.5 1849.5,-115.5 1849.5,-174.5 1849.5,-174.5 1849.5,-180.5 1843.5,-186.5 1837.5,-186.5"/>
<polygon fill="#add8e6" stroke="transparent" points="1685,-167 1685,-182 1842,-182 1842,-167 1685,-167"/>
<text text-anchor="start" x="1688" y="-173" font-family="Times,serif" font-style="italic" font-size="10.00" fill="#000000">cgnlex_wform_147297:ontolexword</text>
<text text-anchor="start" x="1690.5" y="-157" font-family="Times,serif" font-size="10.00" fill="#000000"> &#160;&#160;&#160;&#160;&#160;&#160;&#160;ontolexwrittenRep &#160;&#160;&#160;&#160;&#160;</text>
<text text-anchor="start" x="1817" y="-157" font-family="Times,serif" font-size="10.00" fill="#000000">kat</text>
<text text-anchor="start" x="1687" y="-142" font-family="Times,serif" font-size="10.00" fill="#000000"> &#160;&#160;&#160;&#160;&#160;&#160;&#160;ontolexphoneticRep &#160;&#160;&#160;&#160;&#160;</text>
<text text-anchor="start" x="1815.5" y="-142" font-family="Times,serif" font-size="10.00" fill="#000000">kAt</text>
<text text-anchor="start" x="1687" y="-127" font-family="Times,serif" font-size="10.00" fill="#000000"> &#160;&#160;&#160;&#160;&#160;&#160;&#160;ontolexphoneticRep &#160;&#160;&#160;&#160;&#160;</text>
<text text-anchor="start" x="1815.5" y="-127" font-family="Times,serif" font-size="10.00" fill="#000000">kAt</text>
<text text-anchor="start" x="1703" y="-112" font-family="Times,serif" font-size="10.00" fill="#000000"> &#160;&#160;&#160;&#160;&#160;&#160;&#160;variantLabel &#160;&#160;&#160;&#160;&#160;</text>
<text text-anchor="start" x="1807" y="-112" font-family="Times,serif" font-size="10.00" fill="#000000">Flemish</text>
</g>
<!-- cgnlexlemma47751&#45;&gt;cgnlexwform147297 -->
<g id="edge10" class="edge">
<title>cgnlexlemma47751&#45;&gt;cgnlexwform147297</title>
<path fill="none" stroke="#000088" d="M810.1353,-268.191C1036.3669,-259.0974 1577.2814,-234.9363 1656,-209 1669.1519,-204.6667 1682.4124,-198.5025 1694.906,-191.6932"/>
<polygon fill="#000088" stroke="#000088" points="1703.8552,-186.6378 1697.3617,-195.4744 1699.5018,-189.097 1695.1484,-191.5563 1695.1484,-191.5563 1695.1484,-191.5563 1699.5018,-189.097 1692.9351,-187.6382 1703.8552,-186.6378 1703.8552,-186.6378"/>
<text text-anchor="middle" x="1540" y="-229.6" font-family="Times,serif" font-size="8.00" fill="#000000">ontolexform</text>
</g>
<!-- cgnlexwform807576 -->
<g id="node15" class="node">
<title>cgnlexwform807576</title>
<path fill="none" stroke="#000000" d="M1417.5,-201.5C1417.5,-201.5 1268.5,-201.5 1268.5,-201.5 1262.5,-201.5 1256.5,-195.5 1256.5,-189.5 1256.5,-189.5 1256.5,-100.5 1256.5,-100.5 1256.5,-94.5 1262.5,-88.5 1268.5,-88.5 1268.5,-88.5 1417.5,-88.5 1417.5,-88.5 1423.5,-88.5 1429.5,-94.5 1429.5,-100.5 1429.5,-100.5 1429.5,-189.5 1429.5,-189.5 1429.5,-195.5 1423.5,-201.5 1417.5,-201.5"/>
<polygon fill="#add8e6" stroke="transparent" points="1265,-182 1265,-197 1422,-197 1422,-182 1265,-182"/>
<text text-anchor="start" x="1268" y="-188" font-family="Times,serif" font-style="italic" font-size="10.00" fill="#000000">cgnlex_wform_807576:ontolexword</text>
<text text-anchor="start" x="1270.5" y="-172" font-family="Times,serif" font-size="10.00" fill="#000000"> &#160;&#160;&#160;&#160;&#160;&#160;&#160;ontolexwrittenRep &#160;&#160;&#160;&#160;&#160;</text>
<text text-anchor="start" x="1393" y="-172" font-family="Times,serif" font-size="10.00" fill="#000000">katje</text>
<text text-anchor="start" x="1267" y="-157" font-family="Times,serif" font-size="10.00" fill="#000000"> &#160;&#160;&#160;&#160;&#160;&#160;&#160;ontolexphoneticRep &#160;&#160;&#160;&#160;&#160;</text>
<text text-anchor="start" x="1389.5" y="-157" font-family="Times,serif" font-size="10.00" fill="#000000">kAtj@</text>
<text text-anchor="start" x="1267" y="-142" font-family="Times,serif" font-size="10.00" fill="#000000"> &#160;&#160;&#160;&#160;&#160;&#160;&#160;ontolexphoneticRep &#160;&#160;&#160;&#160;&#160;</text>
<text text-anchor="start" x="1389.5" y="-142" font-family="Times,serif" font-size="10.00" fill="#000000">kAtj@</text>
<text text-anchor="start" x="1283" y="-127" font-family="Times,serif" font-size="10.00" fill="#000000"> &#160;&#160;&#160;&#160;&#160;&#160;&#160;variantLabel &#160;&#160;&#160;&#160;&#160;</text>
<text text-anchor="start" x="1387" y="-127" font-family="Times,serif" font-size="10.00" fill="#000000">Flemish</text>
<text text-anchor="start" x="1267" y="-112" font-family="Times,serif" font-size="10.00" fill="#000000"> &#160;&#160;&#160;&#160;&#160;&#160;&#160;ontolexphoneticRep &#160;&#160;&#160;&#160;&#160;</text>
<text text-anchor="start" x="1389.5" y="-112" font-family="Times,serif" font-size="10.00" fill="#000000">kAtj@</text>
<text text-anchor="start" x="1283" y="-97" font-family="Times,serif" font-size="10.00" fill="#000000"> &#160;&#160;&#160;&#160;&#160;&#160;&#160;variantLabel &#160;&#160;&#160;&#160;&#160;</text>
<text text-anchor="start" x="1387" y="-97" font-family="Times,serif" font-size="10.00" fill="#000000">Flemish</text>
</g>
<!-- cgnlexlemma47751&#45;&gt;cgnlexwform807576 -->
<g id="edge11" class="edge">
<title>cgnlexlemma47751&#45;&gt;cgnlexwform807576</title>
<path fill="none" stroke="#000088" d="M810.243,-265.4314C905.6815,-257.5229 1053.4175,-241.0838 1178,-209 1200.7807,-203.1333 1224.6936,-195.0513 1247.0238,-186.6038"/>
<polygon fill="#000088" stroke="#000088" points="1256.489,-182.9664 1248.7687,-190.7541 1251.8218,-184.76 1247.1545,-186.5536 1247.1545,-186.5536 1247.1545,-186.5536 1251.8218,-184.76 1245.5403,-182.3531 1256.489,-182.9664 1256.489,-182.9664"/>
<text text-anchor="middle" x="1111" y="-229.6" font-family="Times,serif" font-size="8.00" fill="#000000">ontolexform</text>
</g>
<!-- cgnlexwform862734 -->
<g id="node16" class="node">
<title>cgnlexwform862734</title>
<path fill="none" stroke="#000000" d="M1157.5,-201.5C1157.5,-201.5 1008.5,-201.5 1008.5,-201.5 1002.5,-201.5 996.5,-195.5 996.5,-189.5 996.5,-189.5 996.5,-100.5 996.5,-100.5 996.5,-94.5 1002.5,-88.5 1008.5,-88.5 1008.5,-88.5 1157.5,-88.5 1157.5,-88.5 1163.5,-88.5 1169.5,-94.5 1169.5,-100.5 1169.5,-100.5 1169.5,-189.5 1169.5,-189.5 1169.5,-195.5 1163.5,-201.5 1157.5,-201.5"/>
<polygon fill="#add8e6" stroke="transparent" points="1005,-182 1005,-197 1162,-197 1162,-182 1005,-182"/>
<text text-anchor="start" x="1008" y="-188" font-family="Times,serif" font-style="italic" font-size="10.00" fill="#000000">cgnlex_wform_862734:ontolexword</text>
<text text-anchor="start" x="1010.5" y="-172" font-family="Times,serif" font-size="10.00" fill="#000000"> &#160;&#160;&#160;&#160;&#160;&#160;&#160;ontolexwrittenRep &#160;&#160;&#160;&#160;&#160;</text>
<text text-anchor="start" x="1133" y="-172" font-family="Times,serif" font-size="10.00" fill="#000000">katje</text>
<text text-anchor="start" x="1007" y="-157" font-family="Times,serif" font-size="10.00" fill="#000000"> &#160;&#160;&#160;&#160;&#160;&#160;&#160;ontolexphoneticRep &#160;&#160;&#160;&#160;&#160;</text>
<text text-anchor="start" x="1129.5" y="-157" font-family="Times,serif" font-size="10.00" fill="#000000">kAtj@</text>
<text text-anchor="start" x="1007" y="-142" font-family="Times,serif" font-size="10.00" fill="#000000"> &#160;&#160;&#160;&#160;&#160;&#160;&#160;ontolexphoneticRep &#160;&#160;&#160;&#160;&#160;</text>
<text text-anchor="start" x="1129.5" y="-142" font-family="Times,serif" font-size="10.00" fill="#000000">kAtj@</text>
<text text-anchor="start" x="1023" y="-127" font-family="Times,serif" font-size="10.00" fill="#000000"> &#160;&#160;&#160;&#160;&#160;&#160;&#160;variantLabel &#160;&#160;&#160;&#160;&#160;</text>
<text text-anchor="start" x="1127" y="-127" font-family="Times,serif" font-size="10.00" fill="#000000">Flemish</text>
<text text-anchor="start" x="1007" y="-112" font-family="Times,serif" font-size="10.00" fill="#000000"> &#160;&#160;&#160;&#160;&#160;&#160;&#160;ontolexphoneticRep &#160;&#160;&#160;&#160;&#160;</text>
<text text-anchor="start" x="1129.5" y="-112" font-family="Times,serif" font-size="10.00" fill="#000000">kAtj@</text>
<text text-anchor="start" x="1023" y="-97" font-family="Times,serif" font-size="10.00" fill="#000000"> &#160;&#160;&#160;&#160;&#160;&#160;&#160;variantLabel &#160;&#160;&#160;&#160;&#160;</text>
<text text-anchor="start" x="1127" y="-97" font-family="Times,serif" font-size="10.00" fill="#000000">Flemish</text>
</g>
<!-- cgnlexlemma47751&#45;&gt;cgnlexwform862734 -->
<g id="edge12" class="edge">
<title>cgnlexlemma47751&#45;&gt;cgnlexwform862734</title>
<path fill="none" stroke="#000088" d="M783.8075,-253.9984C827.7494,-242.5014 884.6084,-226.5005 934,-209 951.2407,-202.8913 969.3271,-195.7611 986.7195,-188.5215"/>
<polygon fill="#000088" stroke="#000088" points="996.3008,-184.4939 988.826,-192.5175 991.6915,-186.4315 987.0822,-188.3691 987.0822,-188.3691 987.0822,-188.3691 991.6915,-186.4315 985.3384,-184.2207 996.3008,-184.4939 996.3008,-184.4939"/>
<text text-anchor="middle" x="894" y="-229.6" font-family="Times,serif" font-size="8.00" fill="#000000">ontolexform</text>
</g>
<!-- cgnlexwform147514 -->
<g id="node17" class="node">
<title>cgnlexwform147514</title>
<path fill="none" stroke="#000000" d="M913.5,-209C913.5,-209 764.5,-209 764.5,-209 758.5,-209 752.5,-203 752.5,-197 752.5,-197 752.5,-93 752.5,-93 752.5,-87 758.5,-81 764.5,-81 764.5,-81 913.5,-81 913.5,-81 919.5,-81 925.5,-87 925.5,-93 925.5,-93 925.5,-197 925.5,-197 925.5,-203 919.5,-209 913.5,-209"/>
<polygon fill="#add8e6" stroke="transparent" points="761,-190 761,-205 918,-205 918,-190 761,-190"/>
<text text-anchor="start" x="764" y="-196" font-family="Times,serif" font-style="italic" font-size="10.00" fill="#000000">cgnlex_wform_147514:ontolexword</text>
<text text-anchor="start" x="766.5" y="-180" font-family="Times,serif" font-size="10.00" fill="#000000"> &#160;&#160;&#160;&#160;&#160;&#160;&#160;ontolexwrittenRep &#160;&#160;&#160;&#160;&#160;</text>
<text text-anchor="start" x="886.5" y="-180" font-family="Times,serif" font-size="10.00" fill="#000000">katten</text>
<text text-anchor="start" x="766.5" y="-165" font-family="Times,serif" font-size="10.00" fill="#000000"> &#160;&#160;&#160;&#160;&#160;&#160;&#160;ontolexwrittenRep &#160;&#160;&#160;&#160;&#160;</text>
<text text-anchor="start" x="886.5" y="-165" font-family="Times,serif" font-size="10.00" fill="#000000">katten</text>
<text text-anchor="start" x="763" y="-150" font-family="Times,serif" font-size="10.00" fill="#000000"> &#160;&#160;&#160;&#160;&#160;&#160;&#160;ontolexphoneticRep &#160;&#160;&#160;&#160;&#160;</text>
<text text-anchor="start" x="887" y="-150" font-family="Times,serif" font-size="10.00" fill="#000000">kAt@</text>
<text text-anchor="start" x="763" y="-135" font-family="Times,serif" font-size="10.00" fill="#000000"> &#160;&#160;&#160;&#160;&#160;&#160;&#160;ontolexphoneticRep &#160;&#160;&#160;&#160;&#160;</text>
<text text-anchor="start" x="884" y="-135" font-family="Times,serif" font-size="10.00" fill="#000000">kAt@n</text>
<text text-anchor="start" x="779" y="-120" font-family="Times,serif" font-size="10.00" fill="#000000"> &#160;&#160;&#160;&#160;&#160;&#160;&#160;variantLabel &#160;&#160;&#160;&#160;&#160;</text>
<text text-anchor="start" x="883" y="-120" font-family="Times,serif" font-size="10.00" fill="#000000">Flemish</text>
<text text-anchor="start" x="763" y="-105" font-family="Times,serif" font-size="10.00" fill="#000000"> &#160;&#160;&#160;&#160;&#160;&#160;&#160;ontolexphoneticRep &#160;&#160;&#160;&#160;&#160;</text>
<text text-anchor="start" x="887" y="-105" font-family="Times,serif" font-size="10.00" fill="#000000">kAt@</text>
<text text-anchor="start" x="779" y="-90" font-family="Times,serif" font-size="10.00" fill="#000000"> &#160;&#160;&#160;&#160;&#160;&#160;&#160;variantLabel &#160;&#160;&#160;&#160;&#160;</text>
<text text-anchor="start" x="883" y="-90" font-family="Times,serif" font-size="10.00" fill="#000000">Flemish</text>
</g>
<!-- cgnlexlemma47751&#45;&gt;cgnlexwform147514 -->
<g id="edge14" class="edge">
<title>cgnlexlemma47751&#45;&gt;cgnlexwform147514</title>
<path fill="none" stroke="#000088" d="M729.3393,-253.804C739.582,-243.6413 753.0805,-230.2483 767.0925,-216.3457"/>
<polygon fill="#000088" stroke="#000088" points="774.4522,-209.0436 770.5229,-219.2813 770.9028,-212.5652 767.3534,-216.0869 767.3534,-216.0869 767.3534,-216.0869 770.9028,-212.5652 764.1839,-212.8924 774.4522,-209.0436 774.4522,-209.0436"/>
<text text-anchor="middle" x="777" y="-229.6" font-family="Times,serif" font-size="8.00" fill="#000000">ontolexform</text>
</g>
<!-- cgnlexwform802537 -->
<g id="node18" class="node">
<title>cgnlexwform802537</title>
<path fill="none" stroke="#000000" d="M1634.5,-186.5C1634.5,-186.5 1485.5,-186.5 1485.5,-186.5 1479.5,-186.5 1473.5,-180.5 1473.5,-174.5 1473.5,-174.5 1473.5,-115.5 1473.5,-115.5 1473.5,-109.5 1479.5,-103.5 1485.5,-103.5 1485.5,-103.5 1634.5,-103.5 1634.5,-103.5 1640.5,-103.5 1646.5,-109.5 1646.5,-115.5 1646.5,-115.5 1646.5,-174.5 1646.5,-174.5 1646.5,-180.5 1640.5,-186.5 1634.5,-186.5"/>
<polygon fill="#add8e6" stroke="transparent" points="1482,-167 1482,-182 1639,-182 1639,-167 1482,-167"/>
<text text-anchor="start" x="1500.5" y="-173" font-family="Times,serif" font-style="italic" font-size="10.00" fill="#000000">cgnlex_wform_802537:UNK</text>
<text text-anchor="start" x="1487.5" y="-157" font-family="Times,serif" font-size="10.00" fill="#000000"> &#160;&#160;&#160;&#160;&#160;&#160;&#160;ontolexwrittenRep &#160;&#160;&#160;&#160;&#160;</text>
<text text-anchor="start" x="1612.5" y="-157" font-family="Times,serif" font-size="10.00" fill="#000000">Kat</text>
<text text-anchor="start" x="1484" y="-142" font-family="Times,serif" font-size="10.00" fill="#000000"> &#160;&#160;&#160;&#160;&#160;&#160;&#160;ontolexphoneticRep &#160;&#160;&#160;&#160;&#160;</text>
<text text-anchor="start" x="1612.5" y="-142" font-family="Times,serif" font-size="10.00" fill="#000000">kAt</text>
<text text-anchor="start" x="1484" y="-127" font-family="Times,serif" font-size="10.00" fill="#000000"> &#160;&#160;&#160;&#160;&#160;&#160;&#160;ontolexphoneticRep &#160;&#160;&#160;&#160;&#160;</text>
<text text-anchor="start" x="1612.5" y="-127" font-family="Times,serif" font-size="10.00" fill="#000000">ka:t</text>
<text text-anchor="start" x="1500" y="-112" font-family="Times,serif" font-size="10.00" fill="#000000"> &#160;&#160;&#160;&#160;&#160;&#160;&#160;variantLabel &#160;&#160;&#160;&#160;&#160;</text>
<text text-anchor="start" x="1604" y="-112" font-family="Times,serif" font-size="10.00" fill="#000000">Flemish</text>
</g>
<!-- cgnlexlemma47751&#45;&gt;cgnlexwform802537 -->
<g id="edge15" class="edge">
<title>cgnlexlemma47751&#45;&gt;cgnlexwform802537</title>
<path fill="none" stroke="#000088" d="M810.0463,-268.282C980.7174,-261.0661 1322.9907,-242.8198 1438,-209 1453.2021,-204.5297 1468.7064,-198.0869 1483.3385,-190.9919"/>
<polygon fill="#000088" stroke="#000088" points="1492.3258,-186.5018 1485.3913,-194.9968 1487.853,-188.7365 1483.3801,-190.9712 1483.3801,-190.9712 1483.3801,-190.9712 1487.853,-188.7365 1481.3689,-186.9456 1492.3258,-186.5018 1492.3258,-186.5018"/>
<text text-anchor="middle" x="1356" y="-229.6" font-family="Times,serif" font-size="8.00" fill="#000000">ontolexform</text>
</g>
<!-- lexinfocommonGender -->
<g id="node10" class="node">
<title>lexinfocommonGender</title>
<path fill="none" stroke="#000000" d="M251,-36C251,-36 133,-36 133,-36 127,-36 121,-30 121,-24 121,-24 121,-12 121,-12 121,-6 127,0 133,0 133,0 251,0 251,0 257,0 263,-6 263,-12 263,-12 263,-24 263,-24 263,-30 257,-36 251,-36"/>
<polygon fill="#add8e6" stroke="transparent" points="129,-10 129,-25 255,-25 255,-10 129,-10"/>
<text text-anchor="start" x="131.5" y="-16" font-family="Times,serif" font-style="italic" font-size="10.00" fill="#000000">lexinfocommonGender:Class</text>
</g>
<!-- node1cj5v4ttvx3&#45;&gt;lexinfocommonGender -->
<g id="edge16" class="edge">
<title>node1cj5v4ttvx3&#45;&gt;lexinfocommonGender</title>
<path fill="none" stroke="#000088" d="M190.2866,-126.804C190.6177,-105.7735 191.1668,-70.9094 191.554,-46.3236"/>
<polygon fill="#000088" stroke="#000088" points="191.714,-36.1622 196.0559,-46.2319 191.6352,-41.1616 191.5564,-46.161 191.5564,-46.161 191.5564,-46.161 191.6352,-41.1616 187.057,-46.0901 191.714,-36.1622 191.714,-36.1622"/>
<text text-anchor="middle" x="215.5" y="-56.6" font-family="Times,serif" font-size="8.00" fill="#000000">lexinfoGender</text>
</g>
<!-- lexinfoneuter -->
<g id="node12" class="node">
<title>lexinfoneuter</title>
<path fill="none" stroke="#000000" d="M401,-36C401,-36 323,-36 323,-36 317,-36 311,-30 311,-24 311,-24 311,-12 311,-12 311,-6 317,0 323,0 323,0 401,0 401,0 407,0 413,-6 413,-12 413,-12 413,-24 413,-24 413,-30 407,-36 401,-36"/>
<polygon fill="#add8e6" stroke="transparent" points="319,-10 319,-25 405,-25 405,-10 319,-10"/>
<text text-anchor="start" x="321.5" y="-16" font-family="Times,serif" font-style="italic" font-size="10.00" fill="#000000">lexinfoneuter:Class</text>
</g>
<!-- node1cj5v4ttvx4&#45;&gt;lexinfoneuter -->
<g id="edge17" class="edge">
<title>node1cj5v4ttvx4&#45;&gt;lexinfoneuter</title>
<path fill="none" stroke="#000088" d="M470.6887,-126.8139C458.1824,-112.8451 439.4507,-93.8334 420,-81 402.7069,-69.5902 391.0926,-78.1866 377,-63 372.5152,-58.1671 369.3685,-51.9557 367.1615,-45.7007"/>
<polygon fill="#000088" stroke="#000088" points="364.4097,-36.0276 371.4742,-44.4146 365.7778,-40.8368 367.146,-45.646 367.146,-45.646 367.146,-45.646 365.7778,-40.8368 362.8177,-46.8773 364.4097,-36.0276 364.4097,-36.0276"/>
<text text-anchor="middle" x="400.5" y="-56.6" font-family="Times,serif" font-size="8.00" fill="#000000">lexinfoGender</text>
</g>
<!-- cgnlexwform147297&#45;&gt;lexinfoneutralRegister -->
<g id="edge18" class="edge">
<title>cgnlexwform147297&#45;&gt;lexinfoneutralRegister</title>
<path fill="none" stroke="#000088" d="M1743.5122,-103.1018C1732.7636,-84.8522 1717.5818,-65.1249 1698,-54 1668.0085,-36.961 1460.2309,-25.9208 1343.3812,-20.9854"/>
<polygon fill="#000088" stroke="#000088" points="1333.0571,-20.5552 1343.2358,-16.4755 1338.0528,-20.7634 1343.0485,-20.9716 1343.0485,-20.9716 1343.0485,-20.9716 1338.0528,-20.7634 1342.8611,-25.4677 1333.0571,-20.5552 1333.0571,-20.5552"/>
<text text-anchor="middle" x="1735" y="-56.6" font-family="Times,serif" font-size="8.00" fill="#000000">lexinfoRegister</text>
</g>
<!-- cgnlexwform147297&#45;&gt;lexinfoneutralRegister -->
<g id="edge19" class="edge">
<title>cgnlexwform147297&#45;&gt;lexinfoneutralRegister</title>
<path fill="none" stroke="#000088" d="M1775.0361,-103.3095C1777.3704,-85.9914 1776.055,-66.9541 1764,-54 1756.928,-46.4005 1482.5124,-30.124 1343.295,-22.3316"/>
<polygon fill="#000088" stroke="#000088" points="1333.1036,-21.7628 1343.3388,-17.8271 1338.0958,-22.0414 1343.088,-22.3201 1343.088,-22.3201 1343.088,-22.3201 1338.0958,-22.0414 1342.8372,-26.8131 1333.1036,-21.7628 1333.1036,-21.7628"/>
<text text-anchor="middle" x="1794" y="-56.6" font-family="Times,serif" font-size="8.00" fill="#000000">lexinfoRegister</text>
</g>
<!-- lexinfosingular -->
<g id="node14" class="node">
<title>lexinfosingular</title>
<path fill="none" stroke="#000000" d="M1707,-36C1707,-36 1621,-36 1621,-36 1615,-36 1609,-30 1609,-24 1609,-24 1609,-12 1609,-12 1609,-6 1615,0 1621,0 1621,0 1707,0 1707,0 1713,0 1719,-6 1719,-12 1719,-12 1719,-24 1719,-24 1719,-30 1713,-36 1707,-36"/>
<polygon fill="#add8e6" stroke="transparent" points="1617,-10 1617,-25 1711,-25 1711,-10 1617,-10"/>
<text text-anchor="start" x="1619.5" y="-16" font-family="Times,serif" font-style="italic" font-size="10.00" fill="#000000">lexinfosingular:Class</text>
</g>
<!-- cgnlexwform147297&#45;&gt;lexinfosingular -->
<g id="edge20" class="edge">
<title>cgnlexwform147297&#45;&gt;lexinfosingular</title>
<path fill="none" stroke="#000088" d="M1843.2465,-103.4636C1861.7423,-88.5791 1872.3101,-71.2099 1858,-54 1841.7618,-34.4713 1779.2455,-25.4876 1729.511,-21.3849"/>
<polygon fill="#000088" stroke="#000088" points="1719.4332,-20.6046 1729.7508,-16.8901 1724.4183,-20.9906 1729.4034,-21.3766 1729.4034,-21.3766 1729.4034,-21.3766 1724.4183,-20.9906 1729.0559,-25.8632 1719.4332,-20.6046 1719.4332,-20.6046"/>
<text text-anchor="middle" x="1885.5" y="-56.6" font-family="Times,serif" font-size="8.00" fill="#000000">lexinfonumber</text>
</g>
<!-- cgnlexwform807576&#45;&gt;lexinfoneutralRegister -->
<g id="edge21" class="edge">
<title>cgnlexwform807576&#45;&gt;lexinfoneutralRegister</title>
<path fill="none" stroke="#000088" d="M1423.1997,-88.4217C1430.4237,-77.178 1432.0596,-65.3401 1423,-54 1412.5489,-40.9181 1377.7932,-32.2385 1343.4321,-26.6864"/>
<polygon fill="#000088" stroke="#000088" points="1333.2918,-25.1324 1343.8581,-22.1993 1338.2341,-25.8899 1343.1764,-26.6473 1343.1764,-26.6473 1343.1764,-26.6473 1338.2341,-25.8899 1342.4947,-31.0954 1333.2918,-25.1324 1333.2918,-25.1324"/>
<text text-anchor="middle" x="1453" y="-56.6" font-family="Times,serif" font-size="8.00" fill="#000000">lexinfoRegister</text>
</g>
<!-- cgnlexwform807576&#45;&gt;lexinfoneutralRegister -->
<g id="edge22" class="edge">
<title>cgnlexwform807576&#45;&gt;lexinfoneutralRegister</title>
<path fill="none" stroke="#000088" d="M1358.4106,-88.168C1358.7651,-76.1185 1356.6717,-64.0254 1350,-54 1346.9175,-49.368 1343.1122,-45.3309 1338.8338,-41.8123"/>
<polygon fill="#000088" stroke="#000088" points="1330.6757,-36.0226 1341.4352,-38.1404 1334.7532,-38.9164 1338.8308,-41.8102 1338.8308,-41.8102 1338.8308,-41.8102 1334.7532,-38.9164 1336.2264,-45.4799 1330.6757,-36.0226 1330.6757,-36.0226"/>
<text text-anchor="middle" x="1380" y="-56.6" font-family="Times,serif" font-size="8.00" fill="#000000">lexinfoRegister</text>
</g>
<!-- cgnlexwform807576&#45;&gt;lexinfoformalRegister -->
<g id="edge23" class="edge">
<title>cgnlexwform807576&#45;&gt;lexinfoformalRegister</title>
<path fill="none" stroke="#000088" d="M1313.3167,-88.3801C1303.5585,-74.9563 1291.4336,-62.177 1277,-54 1248.9282,-38.0965 1056.389,-26.7143 945.4232,-21.3897"/>
<polygon fill="#000088" stroke="#000088" points="935.2767,-20.9087 945.4786,-16.8873 940.2711,-21.1455 945.2655,-21.3823 945.2655,-21.3823 945.2655,-21.3823 940.2711,-21.1455 945.0524,-25.8772 935.2767,-20.9087 935.2767,-20.9087"/>
<text text-anchor="middle" x="1315" y="-56.6" font-family="Times,serif" font-size="8.00" fill="#000000">lexinfoRegister</text>
</g>
<!-- cgnlexwform862734&#45;&gt;lexinfoneutralRegister -->
<g id="edge24" class="edge">
<title>cgnlexwform862734&#45;&gt;lexinfoneutralRegister</title>
<path fill="none" stroke="#000088" d="M1072.3486,-88.4298C1072.8891,-75.9533 1076.0339,-63.609 1084,-54 1097.1339,-38.1575 1142.826,-29.1375 1184.8839,-24.0882"/>
<polygon fill="#000088" stroke="#000088" points="1194.9104,-22.9489 1185.4824,-28.5492 1189.9424,-23.5135 1184.9744,-24.078 1184.9744,-24.078 1184.9744,-24.078 1189.9424,-23.5135 1184.4663,-19.6068 1194.9104,-22.9489 1194.9104,-22.9489"/>
<text text-anchor="middle" x="1109" y="-56.6" font-family="Times,serif" font-size="8.00" fill="#000000">lexinfoRegister</text>
</g>
<!-- cgnlexwform862734&#45;&gt;lexinfoneutralRegister -->
<g id="edge25" class="edge">
<title>cgnlexwform862734&#45;&gt;lexinfoneutralRegister</title>
<path fill="none" stroke="#000088" d="M1120.855,-88.2687C1131.3668,-75.6506 1143.6133,-63.2828 1157,-54 1165.6048,-48.0331 1175.2783,-42.9888 1185.1996,-38.7419"/>
<polygon fill="#000088" stroke="#000088" points="1194.7609,-34.9103 1187.1524,-42.8072 1190.1197,-36.7702 1185.4785,-38.6301 1185.4785,-38.6301 1185.4785,-38.6301 1190.1197,-36.7702 1183.8046,-34.4531 1194.7609,-34.9103 1194.7609,-34.9103"/>
<text text-anchor="middle" x="1182" y="-56.6" font-family="Times,serif" font-size="8.00" fill="#000000">lexinfoRegister</text>
</g>
<!-- cgnlexwform862734&#45;&gt;lexinfoformalRegister -->
<g id="edge26" class="edge">
<title>cgnlexwform862734&#45;&gt;lexinfoformalRegister</title>
<path fill="none" stroke="#000088" d="M1032.6841,-88.3624C1019.1873,-75.6663 1003.8951,-63.2394 988,-54 974.788,-46.3201 959.7966,-40.1531 944.9754,-35.2446"/>
<polygon fill="#000088" stroke="#000088" points="935.2807,-32.1975 946.1699,-30.9031 940.0506,-33.6968 944.8206,-35.196 944.8206,-35.196 944.8206,-35.196 940.0506,-33.6968 943.4712,-39.489 935.2807,-32.1975 935.2807,-32.1975"/>
<text text-anchor="middle" x="1025" y="-56.6" font-family="Times,serif" font-size="8.00" fill="#000000">lexinfoRegister</text>
</g>
<!-- cgnlexwform862734&#45;&gt;lexinfosingular -->
<g id="edge27" class="edge">
<title>cgnlexwform862734&#45;&gt;lexinfosingular</title>
<path fill="none" stroke="#000088" d="M1168.2639,-88.4237C1194.7411,-71.3238 1218.8874,-56.3916 1226,-54 1260.3637,-42.4454 1485.1385,-28.204 1598.642,-21.6346"/>
<polygon fill="#000088" stroke="#000088" points="1608.9377,-21.0421 1599.2128,-26.1093 1603.946,-21.3294 1598.9542,-21.6167 1598.9542,-21.6167 1598.9542,-21.6167 1603.946,-21.3294 1598.6957,-17.1241 1608.9377,-21.0421 1608.9377,-21.0421"/>
<text text-anchor="middle" x="1249.5" y="-56.6" font-family="Times,serif" font-size="8.00" fill="#000000">lexinfonumber</text>
</g>
<!-- cgnlexwform147514&#45;&gt;lexinfoneutralRegister -->
<g id="edge28" class="edge">
<title>cgnlexwform147514&#45;&gt;lexinfoneutralRegister</title>
<path fill="none" stroke="#000088" d="M894.1528,-80.9287C906.2323,-70.3396 919.7173,-60.6592 934,-54 977.0593,-33.9239 1101.5334,-24.7751 1184.6939,-20.8057"/>
<polygon fill="#000088" stroke="#000088" points="1194.875,-20.3356 1185.0932,-25.2921 1189.8803,-20.5662 1184.8856,-20.7969 1184.8856,-20.7969 1184.8856,-20.7969 1189.8803,-20.5662 1184.6781,-16.3017 1194.875,-20.3356 1194.875,-20.3356"/>
<text text-anchor="middle" x="959" y="-56.6" font-family="Times,serif" font-size="8.00" fill="#000000">lexinfoRegister</text>
</g>
<!-- cgnlexwform147514&#45;&gt;lexinfoneutralRegister -->
<g id="edge29" class="edge">
<title>cgnlexwform147514&#45;&gt;lexinfoneutralRegister</title>
<path fill="none" stroke="#000088" d="M846.7204,-80.9125C850.6954,-70.5956 856.5183,-61.0179 865,-54 889.0337,-34.114 1075.3281,-24.4201 1184.6628,-20.3993"/>
<polygon fill="#000088" stroke="#000088" points="1194.6703,-20.0392 1184.8386,-24.896 1189.6735,-20.2191 1184.6767,-20.3989 1184.6767,-20.3989 1184.6767,-20.3989 1189.6735,-20.2191 1184.5149,-15.9018 1194.6703,-20.0392 1194.6703,-20.0392"/>
<text text-anchor="middle" x="890" y="-56.6" font-family="Times,serif" font-size="8.00" fill="#000000">lexinfoRegister</text>
</g>
<!-- cgnlexwform147514&#45;&gt;lexinfoformalRegister -->
<g id="edge30" class="edge">
<title>cgnlexwform147514&#45;&gt;lexinfoformalRegister</title>
<path fill="none" stroke="#000088" d="M788.0528,-80.5904C785.9629,-71.5231 786.6969,-62.4279 792,-54 794.8124,-49.5304 798.3513,-45.6032 802.3519,-42.1547"/>
<polygon fill="#000088" stroke="#000088" points="810.5445,-36.096 805.1799,-45.6601 806.5244,-39.069 802.5042,-42.042 802.5042,-42.042 802.5042,-42.042 806.5244,-39.069 799.8285,-38.4239 810.5445,-36.096 810.5445,-36.096"/>
<text text-anchor="middle" x="817" y="-56.6" font-family="Times,serif" font-size="8.00" fill="#000000">lexinfoRegister</text>
</g>
<!-- cgnlexwform147514&#45;&gt;lexinfoplural -->
<g id="edge31" class="edge">
<title>cgnlexwform147514&#45;&gt;lexinfoplural</title>
<path fill="none" stroke="#000088" d="M752.449,-87.177C749.2626,-85.0872 746.105,-83.0226 743,-81 722.6638,-67.7528 699.8153,-53.1917 681.1969,-41.4084"/>
<polygon fill="#000088" stroke="#000088" points="672.6961,-36.0352 683.5535,-37.5743 676.9226,-38.7067 681.1491,-41.3782 681.1491,-41.3782 681.1491,-41.3782 676.9226,-38.7067 678.7448,-45.1821 672.6961,-36.0352 672.6961,-36.0352"/>
<text text-anchor="middle" x="737.5" y="-56.6" font-family="Times,serif" font-size="8.00" fill="#000000">lexinfonumber</text>
</g>
<!-- cgnlexwform802537&#45;&gt;lexinfoneutralRegister -->
<g id="edge32" class="edge">
<title>cgnlexwform802537&#45;&gt;lexinfoneutralRegister</title>
<path fill="none" stroke="#000088" d="M1534.0541,-103.2788C1520.7077,-85.2987 1502.8499,-65.7425 1482,-54 1458.5678,-40.8032 1395.407,-31.2629 1343.0663,-25.3326"/>
<polygon fill="#000088" stroke="#000088" points="1333.0947,-24.231 1343.5284,-20.8564 1338.0645,-24.7801 1343.0342,-25.3292 1343.0342,-25.3292 1343.0342,-25.3292 1338.0645,-24.7801 1342.54,-29.802 1333.0947,-24.231 1333.0947,-24.231"/>
<text text-anchor="middle" x="1521" y="-56.6" font-family="Times,serif" font-size="8.00" fill="#000000">lexinfoRegister</text>
</g>
<!-- cgnlexwform802537&#45;&gt;lexinfoneutralRegister -->
<g id="edge33" class="edge">
<title>cgnlexwform802537&#45;&gt;lexinfoneutralRegister</title>
<path fill="none" stroke="#000088" d="M1565.9208,-103.055C1565.9626,-85.6897 1562.4876,-66.686 1550,-54 1535.6284,-39.4001 1422.6299,-28.7486 1343.0549,-22.9678"/>
<polygon fill="#000088" stroke="#000088" points="1333.0384,-22.2528 1343.3334,-18.4763 1338.0257,-22.6089 1343.013,-22.9649 1343.013,-22.9649 1343.013,-22.9649 1338.0257,-22.6089 1342.6926,-27.4535 1333.0384,-22.2528 1333.0384,-22.2528"/>
<text text-anchor="middle" x="1580" y="-56.6" font-family="Times,serif" font-size="8.00" fill="#000000">lexinfoRegister</text>
</g>
<!-- cgnlexwform802537&#45;&gt;lexinfosingular -->
<g id="edge34" class="edge">
<title>cgnlexwform802537&#45;&gt;lexinfosingular</title>
<path fill="none" stroke="#000088" d="M1607.1453,-103.1862C1619.3837,-90.9688 1631.939,-77.0911 1642,-63 1645.8467,-57.6124 1649.3511,-51.4498 1652.3765,-45.4496"/>
<polygon fill="#000088" stroke="#000088" points="1656.7169,-36.2889 1656.5017,-47.2527 1654.576,-40.8074 1652.435,-45.3259 1652.435,-45.3259 1652.435,-45.3259 1654.576,-40.8074 1648.3684,-43.399 1656.7169,-36.2889 1656.7169,-36.2889"/>
<text text-anchor="middle" x="1670.5" y="-56.6" font-family="Times,serif" font-size="8.00" fill="#000000">lexinfonumber</text>
</g>
</g>
</svg>
