<svg width="2028pt" height="242pt"
 viewBox="0.00 0.00 2027.50 242.00" xmlns="http://www.w3.org/2000/svg" xmlns:xlink="http://www.w3.org/1999/xlink">
<g id="graph0" class="graph" transform="scale(1 1) rotate(0) translate(4 238)">
<title>G</title>
<polygon fill="#ffffff" stroke="transparent" points="-4,4 -4,-238 2023.5,-238 2023.5,4 -4,4"/>
<!-- sensebet4078336definition -->
<g id="node1" class="node">
<title>sensebet4078336definition</title>
<path fill="none" stroke="#000000" d="M858,-45.5C858,-45.5 713,-45.5 713,-45.5 707,-45.5 701,-39.5 701,-33.5 701,-33.5 701,-19.5 701,-19.5 701,-13.5 707,-7.5 713,-7.5 713,-7.5 858,-7.5 858,-7.5 864,-7.5 870,-13.5 870,-19.5 870,-19.5 870,-33.5 870,-33.5 870,-39.5 864,-45.5 858,-45.5"/>
<polygon fill="#add8e6" stroke="transparent" points="709.5,-26.5 709.5,-41.5 862.5,-41.5 862.5,-26.5 709.5,-26.5"/>
<text text-anchor="start" x="711.5" y="-32.5" font-family="Times,serif" font-style="italic" font-size="10.00" fill="#000000">sensebet4.0_78336_definition:UNK</text>
<text text-anchor="start" x="712.5" y="-16.5" font-family="Times,serif" font-size="10.00" fill="#000000"> &#160;&#160;&#160;&#160;&#160;&#160;&#160;value &#160;&#160;&#160;&#160;&#160;</text>
<text text-anchor="start" x="774" y="-16.5" font-family="Times,serif" font-size="10.00" fill="#000000">bitse opmerking; sna</text>
</g>
<!-- sensebet1078333definition -->
<g id="node2" class="node">
<title>sensebet1078333definition</title>
<path fill="none" stroke="#000000" d="M1751.5,-53C1751.5,-53 1541.5,-53 1541.5,-53 1535.5,-53 1529.5,-47 1529.5,-41 1529.5,-41 1529.5,-12 1529.5,-12 1529.5,-6 1535.5,0 1541.5,0 1541.5,0 1751.5,0 1751.5,0 1757.5,0 1763.5,-6 1763.5,-12 1763.5,-12 1763.5,-41 1763.5,-41 1763.5,-47 1757.5,-53 1751.5,-53"/>
<polygon fill="#add8e6" stroke="transparent" points="1537.5,-33.5 1537.5,-48.5 1755.5,-48.5 1755.5,-33.5 1537.5,-33.5"/>
<text text-anchor="start" x="1572" y="-39.5" font-family="Times,serif" font-style="italic" font-size="10.00" fill="#000000">sensebet1.0_78333_definition:UNK</text>
<text text-anchor="start" x="1574.5" y="-23.5" font-family="Times,serif" font-size="10.00" fill="#000000"> &#160;&#160;&#160;&#160;&#160;&#160;&#160;value &#160;&#160;&#160;&#160;&#160;</text>
<text text-anchor="start" x="1670" y="-23.5" font-family="Times,serif" font-size="10.00" fill="#000000">klein huisdier dat m</text>
<text text-anchor="start" x="1539.5" y="-8.5" font-family="Times,serif" font-size="10.00" fill="#000000"> &#160;&#160;&#160;&#160;&#160;&#160;&#160;definitionComplement &#160;&#160;&#160;&#160;&#160;</text>
<text text-anchor="start" x="1668.5" y="-8.5" font-family="Times,serif" font-size="10.00" fill="#000000">Zowel in toepassing </text>
</g>
<!-- sensebet80204831definition -->
<g id="node3" class="node">
<title>sensebet80204831definition</title>
<path fill="none" stroke="#000000" d="M670.5,-53C670.5,-53 456.5,-53 456.5,-53 450.5,-53 444.5,-47 444.5,-41 444.5,-41 444.5,-12 444.5,-12 444.5,-6 450.5,0 456.5,0 456.5,0 670.5,0 670.5,0 676.5,0 682.5,-6 682.5,-12 682.5,-12 682.5,-41 682.5,-41 682.5,-47 676.5,-53 670.5,-53"/>
<polygon fill="#add8e6" stroke="transparent" points="452.5,-33.5 452.5,-48.5 674.5,-48.5 674.5,-33.5 452.5,-33.5"/>
<text text-anchor="start" x="486.5" y="-39.5" font-family="Times,serif" font-style="italic" font-size="10.00" fill="#000000">sensebet8.0_204831_definition:UNK</text>
<text text-anchor="start" x="489.5" y="-23.5" font-family="Times,serif" font-size="10.00" fill="#000000"> &#160;&#160;&#160;&#160;&#160;&#160;&#160;value &#160;&#160;&#160;&#160;&#160;</text>
<text text-anchor="start" x="583.5" y="-23.5" font-family="Times,serif" font-size="10.00" fill="#000000">gesel van touwen met</text>
<text text-anchor="start" x="454.5" y="-8.5" font-family="Times,serif" font-size="10.00" fill="#000000"> &#160;&#160;&#160;&#160;&#160;&#160;&#160;definitionComplement &#160;&#160;&#160;&#160;&#160;</text>
<text text-anchor="start" x="588.5" y="-8.5" font-family="Times,serif" font-size="10.00" fill="#000000">Alleen in historiser</text>
</g>
<!-- sensebet3078335definition -->
<g id="node4" class="node">
<title>sensebet3078335definition</title>
<path fill="none" stroke="#000000" d="M157,-45.5C157,-45.5 12,-45.5 12,-45.5 6,-45.5 0,-39.5 0,-33.5 0,-33.5 0,-19.5 0,-19.5 0,-13.5 6,-7.5 12,-7.5 12,-7.5 157,-7.5 157,-7.5 163,-7.5 169,-13.5 169,-19.5 169,-19.5 169,-33.5 169,-33.5 169,-39.5 163,-45.5 157,-45.5"/>
<polygon fill="#add8e6" stroke="transparent" points="8.5,-26.5 8.5,-41.5 161.5,-41.5 161.5,-26.5 8.5,-26.5"/>
<text text-anchor="start" x="10.5" y="-32.5" font-family="Times,serif" font-style="italic" font-size="10.00" fill="#000000">sensebet3.0_78335_definition:UNK</text>
<text text-anchor="start" x="11.5" y="-16.5" font-family="Times,serif" font-size="10.00" fill="#000000"> &#160;&#160;&#160;&#160;&#160;&#160;&#160;value &#160;&#160;&#160;&#160;&#160;</text>
<text text-anchor="start" x="73" y="-16.5" font-family="Times,serif" font-size="10.00" fill="#000000">bitse, vinnige vrouw</text>
</g>
<!-- sensebet11195644definition -->
<g id="node5" class="node">
<title>sensebet11195644definition</title>
<path fill="none" stroke="#000000" d="M1307.5,-45.5C1307.5,-45.5 1157.5,-45.5 1157.5,-45.5 1151.5,-45.5 1145.5,-39.5 1145.5,-33.5 1145.5,-33.5 1145.5,-19.5 1145.5,-19.5 1145.5,-13.5 1151.5,-7.5 1157.5,-7.5 1157.5,-7.5 1307.5,-7.5 1307.5,-7.5 1313.5,-7.5 1319.5,-13.5 1319.5,-19.5 1319.5,-19.5 1319.5,-33.5 1319.5,-33.5 1319.5,-39.5 1313.5,-45.5 1307.5,-45.5"/>
<polygon fill="#add8e6" stroke="transparent" points="1153.5,-26.5 1153.5,-41.5 1311.5,-41.5 1311.5,-26.5 1153.5,-26.5"/>
<text text-anchor="start" x="1155.5" y="-32.5" font-family="Times,serif" font-style="italic" font-size="10.00" fill="#000000">sensebet1.1_195644_definition:UNK</text>
<text text-anchor="start" x="1158.5" y="-16.5" font-family="Times,serif" font-size="10.00" fill="#000000"> &#160;&#160;&#160;&#160;&#160;&#160;&#160;value &#160;&#160;&#160;&#160;&#160;</text>
<text text-anchor="start" x="1224" y="-16.5" font-family="Times,serif" font-size="10.00" fill="#000000">beeld of afbeelding </text>
</g>
<!-- sensebet2078334 -->
<g id="node6" class="node">
<title>sensebet2078334</title>
<path fill="none" stroke="#000000" d="M1134,-143.5C1134,-143.5 1035,-143.5 1035,-143.5 1029,-143.5 1023,-137.5 1023,-131.5 1023,-131.5 1023,-117.5 1023,-117.5 1023,-111.5 1029,-105.5 1035,-105.5 1035,-105.5 1134,-105.5 1134,-105.5 1140,-105.5 1146,-111.5 1146,-117.5 1146,-117.5 1146,-131.5 1146,-131.5 1146,-137.5 1140,-143.5 1134,-143.5"/>
<polygon fill="#add8e6" stroke="transparent" points="1031.5,-124.5 1031.5,-139.5 1138.5,-139.5 1138.5,-124.5 1031.5,-124.5"/>
<text text-anchor="start" x="1033.5" y="-130.5" font-family="Times,serif" font-style="italic" font-size="10.00" fill="#000000">sensebet2.0_78334:UNK</text>
<text text-anchor="start" x="1037.5" y="-114.5" font-family="Times,serif" font-size="10.00" fill="#000000"> &#160;&#160;&#160;&#160;&#160;&#160;&#160;senseOrder &#160;&#160;&#160;&#160;&#160;</text>
<text text-anchor="start" x="1126.5" y="-114.5" font-family="Times,serif" font-size="10.00" fill="#000000">2</text>
</g>
<!-- sensebet2078334definition -->
<g id="node7" class="node">
<title>sensebet2078334definition</title>
<path fill="none" stroke="#000000" d="M1115.5,-53C1115.5,-53 899.5,-53 899.5,-53 893.5,-53 887.5,-47 887.5,-41 887.5,-41 887.5,-12 887.5,-12 887.5,-6 893.5,0 899.5,0 899.5,0 1115.5,0 1115.5,0 1121.5,0 1127.5,-6 1127.5,-12 1127.5,-12 1127.5,-41 1127.5,-41 1127.5,-47 1121.5,-53 1115.5,-53"/>
<polygon fill="#add8e6" stroke="transparent" points="895.5,-33.5 895.5,-48.5 1119.5,-48.5 1119.5,-33.5 895.5,-33.5"/>
<text text-anchor="start" x="933" y="-39.5" font-family="Times,serif" font-style="italic" font-size="10.00" fill="#000000">sensebet2.0_78334_definition:UNK</text>
<text text-anchor="start" x="932.5" y="-23.5" font-family="Times,serif" font-size="10.00" fill="#000000"> &#160;&#160;&#160;&#160;&#160;&#160;&#160;value &#160;&#160;&#160;&#160;&#160;</text>
<text text-anchor="start" x="1031" y="-23.5" font-family="Times,serif" font-size="10.00" fill="#000000">roofdier dat behoort</text>
<text text-anchor="start" x="897.5" y="-8.5" font-family="Times,serif" font-size="10.00" fill="#000000"> &#160;&#160;&#160;&#160;&#160;&#160;&#160;definitionComplement &#160;&#160;&#160;&#160;&#160;</text>
<text text-anchor="start" x="1026.5" y="-8.5" font-family="Times,serif" font-size="10.00" fill="#000000">Vaak in het meervoud</text>
</g>
<!-- sensebet2078334&#45;&gt;sensebet2078334definition -->
<g id="edge1" class="edge">
<title>sensebet2078334&#45;&gt;sensebet2078334definition</title>
<path fill="none" stroke="#000088" d="M1069.2873,-105.1384C1059.4505,-92.6189 1046.365,-75.9646 1034.7692,-61.2062"/>
<polygon fill="#000088" stroke="#000088" points="1028.5104,-53.2405 1038.2271,-58.3235 1031.5995,-57.1721 1034.6886,-61.1037 1034.6886,-61.1037 1034.6886,-61.1037 1031.5995,-57.1721 1031.1502,-63.8839 1028.5104,-53.2405 1028.5104,-53.2405"/>
<text text-anchor="middle" x="1063" y="-73.6" font-family="Times,serif" font-size="8.00" fill="#000000">definition</text>
</g>
<!-- lemmavorm78332 -->
<g id="node8" class="node">
<title>lemmavorm78332</title>
<path fill="none" stroke="#000000" d="M992.5,-151C992.5,-151 806.5,-151 806.5,-151 800.5,-151 794.5,-145 794.5,-139 794.5,-139 794.5,-110 794.5,-110 794.5,-104 800.5,-98 806.5,-98 806.5,-98 992.5,-98 992.5,-98 998.5,-98 1004.5,-104 1004.5,-110 1004.5,-110 1004.5,-139 1004.5,-139 1004.5,-145 998.5,-151 992.5,-151"/>
<polygon fill="#add8e6" stroke="transparent" points="802.5,-131.5 802.5,-146.5 996.5,-146.5 996.5,-131.5 802.5,-131.5"/>
<text text-anchor="start" x="831" y="-137.5" font-family="Times,serif" font-style="italic" font-size="10.00" fill="#000000">lemmavorm_78332:ontolexForm</text>
<text text-anchor="start" x="808" y="-121.5" font-family="Times,serif" font-size="10.00" fill="#000000"> &#160;&#160;&#160;&#160;&#160;&#160;&#160;ontolexwrittenRepresentation &#160;&#160;&#160;&#160;&#160;</text>
<text text-anchor="start" x="975.5" y="-121.5" font-family="Times,serif" font-size="10.00" fill="#000000">kat</text>
<text text-anchor="start" x="804.5" y="-106.5" font-family="Times,serif" font-size="10.00" fill="#000000"> &#160;&#160;&#160;&#160;&#160;&#160;&#160;ontolexphoneticRepresentation &#160;&#160;&#160;&#160;&#160;</text>
<text text-anchor="start" x="969.5" y="-106.5" font-family="Times,serif" font-size="10.00" fill="#000000">*k ɑ t</text>
</g>
<!-- sensebet50204707 -->
<g id="node9" class="node">
<title>sensebet50204707</title>
<path fill="none" stroke="#000000" d="M394,-143.5C394,-143.5 289,-143.5 289,-143.5 283,-143.5 277,-137.5 277,-131.5 277,-131.5 277,-117.5 277,-117.5 277,-111.5 283,-105.5 289,-105.5 289,-105.5 394,-105.5 394,-105.5 400,-105.5 406,-111.5 406,-117.5 406,-117.5 406,-131.5 406,-131.5 406,-137.5 400,-143.5 394,-143.5"/>
<polygon fill="#add8e6" stroke="transparent" points="285.5,-124.5 285.5,-139.5 398.5,-139.5 398.5,-124.5 285.5,-124.5"/>
<text text-anchor="start" x="287.5" y="-130.5" font-family="Times,serif" font-style="italic" font-size="10.00" fill="#000000">sensebet5.0_204707:UNK</text>
<text text-anchor="start" x="293" y="-114.5" font-family="Times,serif" font-size="10.00" fill="#000000"> &#160;&#160;&#160;&#160;&#160;&#160;&#160;senseOrder &#160;&#160;&#160;&#160;&#160;</text>
<text text-anchor="start" x="385" y="-114.5" font-family="Times,serif" font-size="10.00" fill="#000000">5</text>
</g>
<!-- sensebet50204707definition -->
<g id="node10" class="node">
<title>sensebet50204707definition</title>
<path fill="none" stroke="#000000" d="M414,-53C414,-53 199,-53 199,-53 193,-53 187,-47 187,-41 187,-41 187,-12 187,-12 187,-6 193,0 199,0 199,0 414,0 414,0 420,0 426,-6 426,-12 426,-12 426,-41 426,-41 426,-47 420,-53 414,-53"/>
<polygon fill="#add8e6" stroke="transparent" points="195.5,-33.5 195.5,-48.5 418.5,-48.5 418.5,-33.5 195.5,-33.5"/>
<text text-anchor="start" x="230" y="-39.5" font-family="Times,serif" font-style="italic" font-size="10.00" fill="#000000">sensebet5.0_204707_definition:UNK</text>
<text text-anchor="start" x="232.5" y="-23.5" font-family="Times,serif" font-size="10.00" fill="#000000"> &#160;&#160;&#160;&#160;&#160;&#160;&#160;value &#160;&#160;&#160;&#160;&#160;</text>
<text text-anchor="start" x="326.5" y="-23.5" font-family="Times,serif" font-size="10.00" fill="#000000">middeleeuws belegeri</text>
<text text-anchor="start" x="197.5" y="-8.5" font-family="Times,serif" font-size="10.00" fill="#000000"> &#160;&#160;&#160;&#160;&#160;&#160;&#160;definitionComplement &#160;&#160;&#160;&#160;&#160;</text>
<text text-anchor="start" x="332" y="-8.5" font-family="Times,serif" font-size="10.00" fill="#000000">Alleen in historiser</text>
</g>
<!-- sensebet50204707&#45;&gt;sensebet50204707definition -->
<g id="edge2" class="edge">
<title>sensebet50204707&#45;&gt;sensebet50204707definition</title>
<path fill="none" stroke="#000088" d="M334.5851,-105.1384C330.2795,-93.0825 324.6045,-77.1926 319.4834,-62.8535"/>
<polygon fill="#000088" stroke="#000088" points="316.0502,-53.2405 323.6514,-61.1444 317.7319,-57.9492 319.4136,-62.6579 319.4136,-62.6579 319.4136,-62.6579 317.7319,-57.9492 315.1758,-64.1715 316.0502,-53.2405 316.0502,-53.2405"/>
<text text-anchor="middle" x="341" y="-73.6" font-family="Times,serif" font-size="8.00" fill="#000000">definition</text>
</g>
<!-- relationsensebet11195644 -->
<g id="node11" class="node">
<title>relationsensebet11195644</title>
<path fill="none" stroke="#000000" d="M1621.5,-233C1621.5,-233 1441.5,-233 1441.5,-233 1435.5,-233 1429.5,-227 1429.5,-221 1429.5,-221 1429.5,-209 1429.5,-209 1429.5,-203 1435.5,-197 1441.5,-197 1441.5,-197 1621.5,-197 1621.5,-197 1627.5,-197 1633.5,-203 1633.5,-209 1633.5,-209 1633.5,-221 1633.5,-221 1633.5,-227 1627.5,-233 1621.5,-233"/>
<polygon fill="#add8e6" stroke="transparent" points="1437.5,-207 1437.5,-222 1625.5,-222 1625.5,-207 1437.5,-207"/>
<text text-anchor="start" x="1439.5" y="-213" font-family="Times,serif" font-style="italic" font-size="10.00" fill="#000000">relation_sensebet1.1_195644:SenseRelation</text>
</g>
<!-- sensebet1078333 -->
<g id="node12" class="node">
<title>sensebet1078333</title>
<path fill="none" stroke="#000000" d="M1584.5,-142.5C1584.5,-142.5 1478.5,-142.5 1478.5,-142.5 1472.5,-142.5 1466.5,-136.5 1466.5,-130.5 1466.5,-130.5 1466.5,-118.5 1466.5,-118.5 1466.5,-112.5 1472.5,-106.5 1478.5,-106.5 1478.5,-106.5 1584.5,-106.5 1584.5,-106.5 1590.5,-106.5 1596.5,-112.5 1596.5,-118.5 1596.5,-118.5 1596.5,-130.5 1596.5,-130.5 1596.5,-136.5 1590.5,-142.5 1584.5,-142.5"/>
<polygon fill="#add8e6" stroke="transparent" points="1474.5,-116.5 1474.5,-131.5 1588.5,-131.5 1588.5,-116.5 1474.5,-116.5"/>
<text text-anchor="start" x="1476.5" y="-122.5" font-family="Times,serif" font-style="italic" font-size="10.00" fill="#000000">sense_bet1.0_78333:Class</text>
</g>
<!-- relationsensebet11195644&#45;&gt;sensebet1078333 -->
<g id="edge3" class="edge">
<title>relationsensebet11195644&#45;&gt;sensebet1078333</title>
<path fill="none" stroke="#000088" d="M1531.5,-196.686C1531.5,-184.174 1531.5,-167.342 1531.5,-153.0789"/>
<polygon fill="#000088" stroke="#000088" points="1531.5,-142.7868 1536.0001,-152.7867 1531.5,-147.7868 1531.5001,-152.7868 1531.5001,-152.7868 1531.5001,-152.7868 1531.5,-147.7868 1527.0001,-152.7868 1531.5,-142.7868 1531.5,-142.7868"/>
<text text-anchor="middle" x="1542.5" y="-171.6" font-family="Times,serif" font-size="8.00" fill="#000000">source</text>
</g>
<!-- sensebet11195644 -->
<g id="node13" class="node">
<title>sensebet11195644</title>
<path fill="none" stroke="#000000" d="M1288.5,-142.5C1288.5,-142.5 1176.5,-142.5 1176.5,-142.5 1170.5,-142.5 1164.5,-136.5 1164.5,-130.5 1164.5,-130.5 1164.5,-118.5 1164.5,-118.5 1164.5,-112.5 1170.5,-106.5 1176.5,-106.5 1176.5,-106.5 1288.5,-106.5 1288.5,-106.5 1294.5,-106.5 1300.5,-112.5 1300.5,-118.5 1300.5,-118.5 1300.5,-130.5 1300.5,-130.5 1300.5,-136.5 1294.5,-142.5 1288.5,-142.5"/>
<polygon fill="#add8e6" stroke="transparent" points="1172.5,-116.5 1172.5,-131.5 1292.5,-131.5 1292.5,-116.5 1172.5,-116.5"/>
<text text-anchor="start" x="1175" y="-122.5" font-family="Times,serif" font-style="italic" font-size="10.00" fill="#000000">sense_bet1.1_195644:Class</text>
</g>
<!-- relationsensebet11195644&#45;&gt;sensebet11195644 -->
<g id="edge4" class="edge">
<title>relationsensebet11195644&#45;&gt;sensebet11195644</title>
<path fill="none" stroke="#000088" d="M1473.1475,-196.9588C1444.6675,-188.2807 1409.8628,-177.863 1378.5,-169 1348.4151,-160.4982 1340.4295,-160.0338 1310.5,-151 1304.9741,-149.3321 1299.2519,-147.5314 1293.5326,-145.6813"/>
<polygon fill="#000088" stroke="#000088" points="1283.9454,-142.5358 1294.85,-141.3776 1288.6962,-144.0946 1293.4471,-145.6533 1293.4471,-145.6533 1293.4471,-145.6533 1288.6962,-144.0946 1292.0442,-149.9291 1283.9454,-142.5358 1283.9454,-142.5358"/>
<text text-anchor="middle" x="1417" y="-171.6" font-family="Times,serif" font-size="8.00" fill="#000000">target</text>
</g>
<!-- metonymie -->
<g id="node14" class="node">
<title>metonymie</title>
<path fill="none" stroke="#000000" d="M1842.5,-142.5C1842.5,-142.5 1774.5,-142.5 1774.5,-142.5 1768.5,-142.5 1762.5,-136.5 1762.5,-130.5 1762.5,-130.5 1762.5,-118.5 1762.5,-118.5 1762.5,-112.5 1768.5,-106.5 1774.5,-106.5 1774.5,-106.5 1842.5,-106.5 1842.5,-106.5 1848.5,-106.5 1854.5,-112.5 1854.5,-118.5 1854.5,-118.5 1854.5,-130.5 1854.5,-130.5 1854.5,-136.5 1848.5,-142.5 1842.5,-142.5"/>
<polygon fill="#add8e6" stroke="transparent" points="1770.5,-116.5 1770.5,-131.5 1846.5,-131.5 1846.5,-116.5 1770.5,-116.5"/>
<text text-anchor="start" x="1773" y="-122.5" font-family="Times,serif" font-style="italic" font-size="10.00" fill="#000000">metonymie:Class</text>
</g>
<!-- relationsensebet11195644&#45;&gt;metonymie -->
<g id="edge5" class="edge">
<title>relationsensebet11195644&#45;&gt;metonymie</title>
<path fill="none" stroke="#000088" d="M1605.764,-196.9394C1649.3861,-185.5063 1705.2558,-169.4262 1753.5,-151 1756.9191,-149.6941 1760.4166,-148.2584 1763.909,-146.7515"/>
<polygon fill="#000088" stroke="#000088" points="1773.0846,-142.6373 1765.8011,-150.8349 1768.5223,-144.683 1763.9599,-146.7288 1763.9599,-146.7288 1763.9599,-146.7288 1768.5223,-144.683 1762.1187,-142.6226 1773.0846,-142.6373 1773.0846,-142.6373"/>
<text text-anchor="middle" x="1713.5" y="-171.6" font-family="Times,serif" font-size="8.00" fill="#000000">category</text>
</g>
<!-- sensebet1078333&#45;&gt;sensebet1078333definition -->
<g id="edge6" class="edge">
<title>sensebet1078333&#45;&gt;sensebet1078333definition</title>
<path fill="none" stroke="#000088" d="M1552.8611,-106.2966C1568.2068,-93.2194 1589.3277,-75.2207 1607.6269,-59.6267"/>
<polygon fill="#000088" stroke="#000088" points="1615.2715,-53.1121 1610.579,-63.0233 1611.4659,-56.3552 1607.6603,-59.5982 1607.6603,-59.5982 1607.6603,-59.5982 1611.4659,-56.3552 1604.7415,-56.1732 1615.2715,-53.1121 1615.2715,-53.1121"/>
<text text-anchor="middle" x="1607" y="-73.6" font-family="Times,serif" font-size="8.00" fill="#000000">definition</text>
</g>
<!-- sensebet11195644&#45;&gt;sensebet11195644definition -->
<g id="edge7" class="edge">
<title>sensebet11195644&#45;&gt;sensebet11195644definition</title>
<path fill="none" stroke="#000088" d="M1232.5,-106.0669C1232.5,-91.8763 1232.5,-71.9908 1232.5,-55.6499"/>
<polygon fill="#000088" stroke="#000088" points="1232.5,-45.5189 1237.0001,-55.5188 1232.5,-50.5189 1232.5001,-55.5189 1232.5001,-55.5189 1232.5001,-55.5189 1232.5,-50.5189 1228.0001,-55.5189 1232.5,-45.5189 1232.5,-45.5189"/>
<text text-anchor="middle" x="1248" y="-73.6" font-family="Times,serif" font-size="8.00" fill="#000000">definition</text>
</g>
<!-- sensebet70204817definition -->
<g id="node15" class="node">
<title>sensebet70204817definition</title>
<path fill="none" stroke="#000000" d="M1499.5,-45.5C1499.5,-45.5 1349.5,-45.5 1349.5,-45.5 1343.5,-45.5 1337.5,-39.5 1337.5,-33.5 1337.5,-33.5 1337.5,-19.5 1337.5,-19.5 1337.5,-13.5 1343.5,-7.5 1349.5,-7.5 1349.5,-7.5 1499.5,-7.5 1499.5,-7.5 1505.5,-7.5 1511.5,-13.5 1511.5,-19.5 1511.5,-19.5 1511.5,-33.5 1511.5,-33.5 1511.5,-39.5 1505.5,-45.5 1499.5,-45.5"/>
<polygon fill="#add8e6" stroke="transparent" points="1345.5,-26.5 1345.5,-41.5 1503.5,-41.5 1503.5,-26.5 1345.5,-26.5"/>
<text text-anchor="start" x="1347.5" y="-32.5" font-family="Times,serif" font-style="italic" font-size="10.00" fill="#000000">sensebet7.0_204817_definition:UNK</text>
<text text-anchor="start" x="1350.5" y="-16.5" font-family="Times,serif" font-size="10.00" fill="#000000"> &#160;&#160;&#160;&#160;&#160;&#160;&#160;value &#160;&#160;&#160;&#160;&#160;</text>
<text text-anchor="start" x="1416" y="-16.5" font-family="Times,serif" font-size="10.00" fill="#000000">toestel waaraan een </text>
</g>
<!-- sensebet70204817 -->
<g id="node16" class="node">
<title>sensebet70204817</title>
<path fill="none" stroke="#000000" d="M1436,-143.5C1436,-143.5 1331,-143.5 1331,-143.5 1325,-143.5 1319,-137.5 1319,-131.5 1319,-131.5 1319,-117.5 1319,-117.5 1319,-111.5 1325,-105.5 1331,-105.5 1331,-105.5 1436,-105.5 1436,-105.5 1442,-105.5 1448,-111.5 1448,-117.5 1448,-117.5 1448,-131.5 1448,-131.5 1448,-137.5 1442,-143.5 1436,-143.5"/>
<polygon fill="#add8e6" stroke="transparent" points="1327.5,-124.5 1327.5,-139.5 1440.5,-139.5 1440.5,-124.5 1327.5,-124.5"/>
<text text-anchor="start" x="1329.5" y="-130.5" font-family="Times,serif" font-style="italic" font-size="10.00" fill="#000000">sensebet7.0_204817:UNK</text>
<text text-anchor="start" x="1335" y="-114.5" font-family="Times,serif" font-size="10.00" fill="#000000"> &#160;&#160;&#160;&#160;&#160;&#160;&#160;senseOrder &#160;&#160;&#160;&#160;&#160;</text>
<text text-anchor="start" x="1427" y="-114.5" font-family="Times,serif" font-size="10.00" fill="#000000">7</text>
</g>
<!-- sensebet70204817&#45;&gt;sensebet70204817definition -->
<g id="edge8" class="edge">
<title>sensebet70204817&#45;&gt;sensebet70204817definition</title>
<path fill="none" stroke="#000088" d="M1391.6003,-105.1384C1397.5527,-90.9105 1405.7393,-71.3426 1412.4569,-55.286"/>
<polygon fill="#000088" stroke="#000088" points="1416.4165,-45.8214 1416.7083,-56.7834 1414.4868,-50.434 1412.557,-55.0466 1412.557,-55.0466 1412.557,-55.0466 1414.4868,-50.434 1408.4056,-53.3098 1416.4165,-45.8214 1416.4165,-45.8214"/>
<text text-anchor="middle" x="1420" y="-73.6" font-family="Times,serif" font-size="8.00" fill="#000000">definition</text>
</g>
<!-- sensebet60204722 -->
<g id="node17" class="node">
<title>sensebet60204722</title>
<path fill="none" stroke="#000000" d="M1732,-143.5C1732,-143.5 1627,-143.5 1627,-143.5 1621,-143.5 1615,-137.5 1615,-131.5 1615,-131.5 1615,-117.5 1615,-117.5 1615,-111.5 1621,-105.5 1627,-105.5 1627,-105.5 1732,-105.5 1732,-105.5 1738,-105.5 1744,-111.5 1744,-117.5 1744,-117.5 1744,-131.5 1744,-131.5 1744,-137.5 1738,-143.5 1732,-143.5"/>
<polygon fill="#add8e6" stroke="transparent" points="1623.5,-124.5 1623.5,-139.5 1736.5,-139.5 1736.5,-124.5 1623.5,-124.5"/>
<text text-anchor="start" x="1625.5" y="-130.5" font-family="Times,serif" font-style="italic" font-size="10.00" fill="#000000">sensebet6.0_204722:UNK</text>
<text text-anchor="start" x="1631" y="-114.5" font-family="Times,serif" font-size="10.00" fill="#000000"> &#160;&#160;&#160;&#160;&#160;&#160;&#160;senseOrder &#160;&#160;&#160;&#160;&#160;</text>
<text text-anchor="start" x="1723" y="-114.5" font-family="Times,serif" font-size="10.00" fill="#000000">6</text>
</g>
<!-- sensebet60204722definition -->
<g id="node18" class="node">
<title>sensebet60204722definition</title>
<path fill="none" stroke="#000000" d="M2007.5,-53C2007.5,-53 1793.5,-53 1793.5,-53 1787.5,-53 1781.5,-47 1781.5,-41 1781.5,-41 1781.5,-12 1781.5,-12 1781.5,-6 1787.5,0 1793.5,0 1793.5,0 2007.5,0 2007.5,0 2013.5,0 2019.5,-6 2019.5,-12 2019.5,-12 2019.5,-41 2019.5,-41 2019.5,-47 2013.5,-53 2007.5,-53"/>
<polygon fill="#add8e6" stroke="transparent" points="1789.5,-33.5 1789.5,-48.5 2011.5,-48.5 2011.5,-33.5 1789.5,-33.5"/>
<text text-anchor="start" x="1823.5" y="-39.5" font-family="Times,serif" font-style="italic" font-size="10.00" fill="#000000">sensebet6.0_204722_definition:UNK</text>
<text text-anchor="start" x="1826.5" y="-23.5" font-family="Times,serif" font-size="10.00" fill="#000000"> &#160;&#160;&#160;&#160;&#160;&#160;&#160;value &#160;&#160;&#160;&#160;&#160;</text>
<text text-anchor="start" x="1920.5" y="-23.5" font-family="Times,serif" font-size="10.00" fill="#000000">hoog boven de wal ui</text>
<text text-anchor="start" x="1791.5" y="-8.5" font-family="Times,serif" font-size="10.00" fill="#000000"> &#160;&#160;&#160;&#160;&#160;&#160;&#160;definitionComplement &#160;&#160;&#160;&#160;&#160;</text>
<text text-anchor="start" x="1925.5" y="-8.5" font-family="Times,serif" font-size="10.00" fill="#000000">Alleen in historiser</text>
</g>
<!-- sensebet60204722&#45;&gt;sensebet60204722definition -->
<g id="edge9" class="edge">
<title>sensebet60204722&#45;&gt;sensebet60204722definition</title>
<path fill="none" stroke="#000088" d="M1722.3731,-105.4884C1753.2538,-91.7947 1795.5841,-73.0238 1831.2311,-57.2165"/>
<polygon fill="#000088" stroke="#000088" points="1840.6145,-53.0555 1833.2972,-61.223 1836.0438,-55.0824 1831.473,-57.1093 1831.473,-57.1093 1831.473,-57.1093 1836.0438,-55.0824 1829.6488,-52.9956 1840.6145,-53.0555 1840.6145,-53.0555"/>
<text text-anchor="middle" x="1812" y="-73.6" font-family="Times,serif" font-size="8.00" fill="#000000">definition</text>
</g>
<!-- sensebet3078335 -->
<g id="node19" class="node">
<title>sensebet3078335</title>
<path fill="none" stroke="#000000" d="M208,-143.5C208,-143.5 109,-143.5 109,-143.5 103,-143.5 97,-137.5 97,-131.5 97,-131.5 97,-117.5 97,-117.5 97,-111.5 103,-105.5 109,-105.5 109,-105.5 208,-105.5 208,-105.5 214,-105.5 220,-111.5 220,-117.5 220,-117.5 220,-131.5 220,-131.5 220,-137.5 214,-143.5 208,-143.5"/>
<polygon fill="#add8e6" stroke="transparent" points="105.5,-124.5 105.5,-139.5 212.5,-139.5 212.5,-124.5 105.5,-124.5"/>
<text text-anchor="start" x="107.5" y="-130.5" font-family="Times,serif" font-style="italic" font-size="10.00" fill="#000000">sensebet3.0_78335:UNK</text>
<text text-anchor="start" x="111.5" y="-114.5" font-family="Times,serif" font-size="10.00" fill="#000000"> &#160;&#160;&#160;&#160;&#160;&#160;&#160;senseOrder &#160;&#160;&#160;&#160;&#160;</text>
<text text-anchor="start" x="200.5" y="-114.5" font-family="Times,serif" font-size="10.00" fill="#000000">3</text>
</g>
<!-- sensebet3078335&#45;&gt;sensebet3078335definition -->
<g id="edge10" class="edge">
<title>sensebet3078335&#45;&gt;sensebet3078335definition</title>
<path fill="none" stroke="#000088" d="M143.88,-105.1384C132.8325,-90.5079 117.5211,-70.2307 105.2135,-53.9314"/>
<polygon fill="#000088" stroke="#000088" points="99.0896,-45.8214 108.7069,-51.0901 102.1027,-49.8116 105.1157,-53.8019 105.1157,-53.8019 105.1157,-53.8019 102.1027,-49.8116 101.5245,-56.5136 99.0896,-45.8214 99.0896,-45.8214"/>
<text text-anchor="middle" x="140" y="-73.6" font-family="Times,serif" font-size="8.00" fill="#000000">definition</text>
</g>
<!-- sensebet80204831 -->
<g id="node20" class="node">
<title>sensebet80204831</title>
<path fill="none" stroke="#000000" d="M619,-143.5C619,-143.5 514,-143.5 514,-143.5 508,-143.5 502,-137.5 502,-131.5 502,-131.5 502,-117.5 502,-117.5 502,-111.5 508,-105.5 514,-105.5 514,-105.5 619,-105.5 619,-105.5 625,-105.5 631,-111.5 631,-117.5 631,-117.5 631,-131.5 631,-131.5 631,-137.5 625,-143.5 619,-143.5"/>
<polygon fill="#add8e6" stroke="transparent" points="510.5,-124.5 510.5,-139.5 623.5,-139.5 623.5,-124.5 510.5,-124.5"/>
<text text-anchor="start" x="512.5" y="-130.5" font-family="Times,serif" font-style="italic" font-size="10.00" fill="#000000">sensebet8.0_204831:UNK</text>
<text text-anchor="start" x="518" y="-114.5" font-family="Times,serif" font-size="10.00" fill="#000000"> &#160;&#160;&#160;&#160;&#160;&#160;&#160;senseOrder &#160;&#160;&#160;&#160;&#160;</text>
<text text-anchor="start" x="610" y="-114.5" font-family="Times,serif" font-size="10.00" fill="#000000">8</text>
</g>
<!-- sensebet80204831&#45;&gt;sensebet80204831definition -->
<g id="edge11" class="edge">
<title>sensebet80204831&#45;&gt;sensebet80204831definition</title>
<path fill="none" stroke="#000088" d="M565.9073,-105.1384C565.5418,-93.1985 565.0612,-77.4978 564.6255,-63.2676"/>
<polygon fill="#000088" stroke="#000088" points="564.3186,-53.2405 569.1226,-63.0981 564.4716,-58.2381 564.6247,-63.2358 564.6247,-63.2358 564.6247,-63.2358 564.4716,-58.2381 560.1268,-63.3735 564.3186,-53.2405 564.3186,-53.2405"/>
<text text-anchor="middle" x="580" y="-73.6" font-family="Times,serif" font-size="8.00" fill="#000000">definition</text>
</g>
<!-- sensebet4078336 -->
<g id="node21" class="node">
<title>sensebet4078336</title>
<path fill="none" stroke="#000000" d="M764,-143.5C764,-143.5 665,-143.5 665,-143.5 659,-143.5 653,-137.5 653,-131.5 653,-131.5 653,-117.5 653,-117.5 653,-111.5 659,-105.5 665,-105.5 665,-105.5 764,-105.5 764,-105.5 770,-105.5 776,-111.5 776,-117.5 776,-117.5 776,-131.5 776,-131.5 776,-137.5 770,-143.5 764,-143.5"/>
<polygon fill="#add8e6" stroke="transparent" points="661.5,-124.5 661.5,-139.5 768.5,-139.5 768.5,-124.5 661.5,-124.5"/>
<text text-anchor="start" x="663.5" y="-130.5" font-family="Times,serif" font-style="italic" font-size="10.00" fill="#000000">sensebet4.0_78336:UNK</text>
<text text-anchor="start" x="667.5" y="-114.5" font-family="Times,serif" font-size="10.00" fill="#000000"> &#160;&#160;&#160;&#160;&#160;&#160;&#160;senseOrder &#160;&#160;&#160;&#160;&#160;</text>
<text text-anchor="start" x="756.5" y="-114.5" font-family="Times,serif" font-size="10.00" fill="#000000">4</text>
</g>
<!-- sensebet4078336&#45;&gt;sensebet4078336definition -->
<g id="edge12" class="edge">
<title>sensebet4078336&#45;&gt;sensebet4078336definition</title>
<path fill="none" stroke="#000088" d="M728.5273,-105.1384C739.1269,-90.5079 753.8176,-70.2307 765.6263,-53.9314"/>
<polygon fill="#000088" stroke="#000088" points="771.5018,-45.8214 769.279,-56.5597 768.5683,-49.8705 765.6348,-53.9195 765.6348,-53.9195 765.6348,-53.9195 768.5683,-49.8705 761.9907,-51.2794 771.5018,-45.8214 771.5018,-45.8214"/>
<text text-anchor="middle" x="767" y="-73.6" font-family="Times,serif" font-size="8.00" fill="#000000">definition</text>
</g>
<!-- lemma78332 -->
<g id="node22" class="node">
<title>lemma78332</title>
<path fill="none" stroke="#000000" d="M1018.5,-234C1018.5,-234 876.5,-234 876.5,-234 870.5,-234 864.5,-228 864.5,-222 864.5,-222 864.5,-208 864.5,-208 864.5,-202 870.5,-196 876.5,-196 876.5,-196 1018.5,-196 1018.5,-196 1024.5,-196 1030.5,-202 1030.5,-208 1030.5,-208 1030.5,-222 1030.5,-222 1030.5,-228 1024.5,-234 1018.5,-234"/>
<polygon fill="#add8e6" stroke="transparent" points="872.5,-215 872.5,-230 1022.5,-230 1022.5,-215 872.5,-215"/>
<text text-anchor="start" x="874.5" y="-221" font-family="Times,serif" font-style="italic" font-size="10.00" fill="#000000">lemma_78332:ontolexLexicalEntry</text>
<text text-anchor="start" x="893.5" y="-205" font-family="Times,serif" font-size="10.00" fill="#000000"> &#160;&#160;&#160;&#160;&#160;&#160;&#160;label &#160;&#160;&#160;&#160;&#160;</text>
<text text-anchor="start" x="988" y="-205" font-family="Times,serif" font-size="10.00" fill="#000000">kat</text>
</g>
<!-- lemma78332&#45;&gt;sensebet2078334 -->
<g id="edge16" class="edge">
<title>lemma78332&#45;&gt;sensebet2078334</title>
<path fill="none" stroke="#000088" d="M976.5542,-195.8073C997.079,-182.2489 1024.7712,-163.9559 1046.9683,-149.2929"/>
<polygon fill="#000088" stroke="#000088" points="1055.4877,-143.6651 1049.6242,-152.9317 1051.3158,-146.421 1047.1438,-149.1769 1047.1438,-149.1769 1047.1438,-149.1769 1051.3158,-146.421 1044.6635,-145.4222 1055.4877,-143.6651 1055.4877,-143.6651"/>
<text text-anchor="middle" x="1036" y="-171.6" font-family="Times,serif" font-size="8.00" fill="#000000">ontolexsense</text>
</g>
<!-- lemma78332&#45;&gt;lemmavorm78332 -->
<g id="edge13" class="edge">
<title>lemma78332&#45;&gt;lemmavorm78332</title>
<path fill="none" stroke="#000088" d="M937.3204,-195.8073C931.838,-185.4707 924.8961,-172.3822 918.4604,-160.2483"/>
<polygon fill="#000088" stroke="#000088" points="913.6703,-151.2169 922.3314,-157.9427 916.0131,-155.6341 918.356,-160.0513 918.356,-160.0513 918.356,-160.0513 916.0131,-155.6341 914.3805,-162.1598 913.6703,-151.2169 913.6703,-151.2169"/>
<text text-anchor="middle" x="963.5" y="-171.6" font-family="Times,serif" font-size="8.00" fill="#000000">ontolexcanonicalForm</text>
</g>
<!-- lemma78332&#45;&gt;sensebet50204707 -->
<g id="edge19" class="edge">
<title>lemma78332&#45;&gt;sensebet50204707</title>
<path fill="none" stroke="#000088" d="M864.3137,-204.3737C772.9646,-192.4543 622.0277,-172.0232 492.5,-151 467.562,-146.9524 440.3574,-142.2631 415.9955,-137.9644"/>
<polygon fill="#000088" stroke="#000088" points="406.1012,-136.2126 416.7327,-133.525 411.0246,-137.0843 415.9481,-137.9561 415.9481,-137.9561 415.9481,-137.9561 411.0246,-137.0843 415.1635,-142.3872 406.1012,-136.2126 406.1012,-136.2126"/>
<text text-anchor="middle" x="687" y="-171.6" font-family="Times,serif" font-size="8.00" fill="#000000">ontolexsense</text>
</g>
<!-- lemma78332&#45;&gt;sensebet1078333 -->
<g id="edge14" class="edge">
<title>lemma78332&#45;&gt;sensebet1078333</title>
<path fill="none" stroke="#000088" d="M1030.5215,-206.5996C1096.9006,-199.6506 1192.2902,-189.1442 1275.5,-178 1301.3554,-174.5372 1307.703,-172.8738 1333.5,-169 1388.5713,-160.7303 1403.461,-164.4545 1457.5,-151 1463.4961,-149.5071 1469.6862,-147.7132 1475.8141,-145.7716"/>
<polygon fill="#000088" stroke="#000088" points="1485.3557,-142.6208 1477.2711,-150.0296 1480.6078,-144.1886 1475.86,-145.7565 1475.86,-145.7565 1475.86,-145.7565 1480.6078,-144.1886 1474.4489,-141.4835 1485.3557,-142.6208 1485.3557,-142.6208"/>
<text text-anchor="middle" x="1354" y="-171.6" font-family="Times,serif" font-size="8.00" fill="#000000">ontolexsense</text>
</g>
<!-- lemma78332&#45;&gt;sensebet11195644 -->
<g id="edge15" class="edge">
<title>lemma78332&#45;&gt;sensebet11195644</title>
<path fill="none" stroke="#000088" d="M1011.3954,-195.9346C1052.6302,-183.4842 1107.363,-166.6843 1155.5,-151 1160.6248,-149.3302 1165.9309,-147.57 1171.2507,-145.7834"/>
<polygon fill="#000088" stroke="#000088" points="1180.8049,-142.5528 1172.7733,-150.019 1176.0684,-144.1544 1171.3318,-145.7561 1171.3318,-145.7561 1171.3318,-145.7561 1176.0684,-144.1544 1169.8904,-141.4932 1180.8049,-142.5528 1180.8049,-142.5528"/>
<text text-anchor="middle" x="1119" y="-171.6" font-family="Times,serif" font-size="8.00" fill="#000000">ontolexsense</text>
</g>
<!-- lemma78332&#45;&gt;sensebet70204817 -->
<g id="edge21" class="edge">
<title>lemma78332&#45;&gt;sensebet70204817</title>
<path fill="none" stroke="#000088" d="M1030.675,-204.37C1104.6122,-193.9589 1215.2745,-176.0089 1309.5,-151 1314.1988,-149.7529 1319.0228,-148.3397 1323.8463,-146.8308"/>
<polygon fill="#000088" stroke="#000088" points="1333.706,-143.6216 1325.5897,-150.9957 1328.9515,-145.1691 1324.197,-146.7167 1324.197,-146.7167 1324.197,-146.7167 1328.9515,-145.1691 1322.8042,-142.4376 1333.706,-143.6216 1333.706,-143.6216"/>
<text text-anchor="middle" x="1251" y="-171.6" font-family="Times,serif" font-size="8.00" fill="#000000">ontolexsense</text>
</g>
<!-- lemma78332&#45;&gt;sensebet60204722 -->
<g id="edge20" class="edge">
<title>lemma78332&#45;&gt;sensebet60204722</title>
<path fill="none" stroke="#000088" d="M1030.6057,-210.7326C1127.0053,-205.2967 1290.6107,-194.5703 1430.5,-178 1455.5333,-175.0347 1461.5929,-172.8851 1486.5,-169 1539.3514,-160.756 1553.6329,-164.0783 1605.5,-151 1610.4992,-149.7394 1615.6346,-148.2738 1620.7571,-146.691"/>
<polygon fill="#000088" stroke="#000088" points="1630.5528,-143.526 1622.4208,-150.8826 1625.795,-145.0633 1621.0372,-146.6006 1621.0372,-146.6006 1621.0372,-146.6006 1625.795,-145.0633 1619.6536,-142.3185 1630.5528,-143.526 1630.5528,-143.526"/>
<text text-anchor="middle" x="1507" y="-171.6" font-family="Times,serif" font-size="8.00" fill="#000000">ontolexsense</text>
</g>
<!-- lemma78332&#45;&gt;sensebet3078335 -->
<g id="edge17" class="edge">
<title>lemma78332&#45;&gt;sensebet3078335</title>
<path fill="none" stroke="#000088" d="M864.3047,-211.0541C735.6362,-204.0791 480.9228,-186.7938 267.5,-151 255.3001,-148.9539 242.4437,-146.2917 230.0078,-143.4451"/>
<polygon fill="#000088" stroke="#000088" points="220.1451,-141.1309 230.9087,-139.0343 225.0129,-142.2731 229.8807,-143.4154 229.8807,-143.4154 229.8807,-143.4154 225.0129,-142.2731 228.8527,-147.7964 220.1451,-141.1309 220.1451,-141.1309"/>
<text text-anchor="middle" x="474" y="-171.6" font-family="Times,serif" font-size="8.00" fill="#000000">ontolexsense</text>
</g>
<!-- lemma78332&#45;&gt;sensebet80204831 -->
<g id="edge22" class="edge">
<title>lemma78332&#45;&gt;sensebet80204831</title>
<path fill="none" stroke="#000088" d="M864.2322,-200.1878C802.998,-188.6245 717.9944,-171.169 644.5,-151 639.6254,-149.6623 634.6101,-148.1888 629.5857,-146.6426"/>
<polygon fill="#000088" stroke="#000088" points="619.9471,-143.596 630.8384,-142.3192 624.7146,-145.1029 629.4822,-146.6099 629.4822,-146.6099 629.4822,-146.6099 624.7146,-145.1029 628.1259,-150.9007 619.9471,-143.596 619.9471,-143.596"/>
<text text-anchor="middle" x="772" y="-171.6" font-family="Times,serif" font-size="8.00" fill="#000000">ontolexsense</text>
</g>
<!-- lemma78332&#45;&gt;sensebet4078336 -->
<g id="edge18" class="edge">
<title>lemma78332&#45;&gt;sensebet4078336</title>
<path fill="none" stroke="#000088" d="M898.3714,-195.9179C861.8155,-181.7191 811.7755,-162.283 773.1268,-147.2713"/>
<polygon fill="#000088" stroke="#000088" points="763.5614,-143.556 774.5122,-142.982 768.2222,-145.3664 772.8829,-147.1767 772.8829,-147.1767 772.8829,-147.1767 768.2222,-145.3664 771.2536,-151.3714 763.5614,-143.556 763.5614,-143.556"/>
<text text-anchor="middle" x="872" y="-171.6" font-family="Times,serif" font-size="8.00" fill="#000000">ontolexsense</text>
</g>
</g>
</svg>
