<svg width="716pt" height="421pt"
 viewBox="0.00 0.00 715.50 421.00" xmlns="http://www.w3.org/2000/svg" xmlns:xlink="http://www.w3.org/1999/xlink">
<g id="graph0" class="graph" transform="scale(1 1) rotate(0) translate(4 417)">
<title>G</title>
<polygon fill="#ffffff" stroke="transparent" points="-4,4 -4,-417 711.5,-417 711.5,4 -4,4"/>
<!-- q0 -->
<g id="node1" class="node">
<title>q0</title>
<path fill="none" stroke="#000000" d="M374.5,-151C374.5,-151 178.5,-151 178.5,-151 172.5,-151 166.5,-145 166.5,-139 166.5,-139 166.5,-110 166.5,-110 166.5,-104 172.5,-98 178.5,-98 178.5,-98 374.5,-98 374.5,-98 380.5,-98 386.5,-104 386.5,-110 386.5,-110 386.5,-139 386.5,-139 386.5,-145 380.5,-151 374.5,-151"/>
<polygon fill="#add8e6" stroke="transparent" points="174.5,-131.5 174.5,-146.5 378.5,-146.5 378.5,-131.5 174.5,-131.5"/>
<text text-anchor="start" x="216" y="-137.5" font-family="Times,serif" font-size="10.00" fill="#000000"> &#160;&#160;&#160;&#160;&#160;&#160;&#160;&#160;&#160;</text>
<text text-anchor="start" x="239" y="-137.5" font-family="Times,serif" font-style="italic" font-size="10.00" fill="#000000">q0:Quotation &#160;&#160;&#160;&#160;&#160;&#160;&#160;&#160;&#160;</text>
<text text-anchor="start" x="318" y="-137.5" font-family="Times,serif" font-size="10.00" fill="#000000"> &#160;&#160;&#160;&#160;&#160;&#160;&#160;</text>
<text text-anchor="start" x="176.5" y="-121.5" font-family="Times,serif" font-size="10.00" fill="#000000"> &#160;&#160;&#160;&#160;&#160;&#160;&#160;quotationText &#160;&#160;&#160;&#160;&#160;</text>
<text text-anchor="start" x="277" y="-121.5" font-family="Times,serif" font-size="10.00" fill="#000000"> &#160;&#160;&#160;&#160;&#160;&#160;&#160;de koei zei boe &#160;&#160;&#160;&#160;&#160;</text>
<text text-anchor="start" x="197.5" y="-106.5" font-family="Times,serif" font-size="10.00" fill="#000000"> &#160;&#160;&#160;&#160;&#160;&#160;&#160;title &#160;&#160;&#160;&#160;&#160;</text>
<text text-anchor="start" x="271.5" y="-106.5" font-family="Times,serif" font-size="10.00" fill="#000000"> &#160;&#160;&#160;&#160;&#160;&#160;&#160;Over pissebedden &#160;&#160;&#160;&#160;&#160;</text>
</g>
<!-- t0 -->
<g id="node2" class="node">
<title>t0</title>
<path fill="none" stroke="#000000" d="M173,-45.5C173,-45.5 12,-45.5 12,-45.5 6,-45.5 0,-39.5 0,-33.5 0,-33.5 0,-19.5 0,-19.5 0,-13.5 6,-7.5 12,-7.5 12,-7.5 173,-7.5 173,-7.5 179,-7.5 185,-13.5 185,-19.5 185,-19.5 185,-33.5 185,-33.5 185,-39.5 179,-45.5 173,-45.5"/>
<polygon fill="#add8e6" stroke="transparent" points="8.5,-26.5 8.5,-41.5 177.5,-41.5 177.5,-26.5 8.5,-26.5"/>
<text text-anchor="start" x="45.5" y="-32.5" font-family="Times,serif" font-size="10.00" fill="#000000"> &#160;&#160;&#160;&#160;&#160;&#160;&#160;&#160;&#160;</text>
<text text-anchor="start" x="68.5" y="-32.5" font-family="Times,serif" font-style="italic" font-size="10.00" fill="#000000">t0:Title &#160;&#160;&#160;&#160;&#160;&#160;&#160;&#160;&#160;</text>
<text text-anchor="start" x="121.5" y="-32.5" font-family="Times,serif" font-size="10.00" fill="#000000"> &#160;&#160;&#160;&#160;&#160;&#160;&#160;</text>
<text text-anchor="start" x="10.5" y="-16.5" font-family="Times,serif" font-size="10.00" fill="#000000"> &#160;&#160;&#160;&#160;&#160;&#160;&#160;title &#160;&#160;&#160;&#160;&#160;</text>
<text text-anchor="start" x="63.5" y="-16.5" font-family="Times,serif" font-size="10.00" fill="#000000"> &#160;&#160;&#160;&#160;&#160;&#160;&#160;Hinderlijke diertjes &#160;&#160;&#160;&#160;&#160;</text>
</g>
<!-- q0&#45;&gt;t0 -->
<g id="edge1" class="edge">
<title>q0&#45;&gt;t0</title>
<path fill="none" stroke="#000088" d="M226.707,-97.9798C198.7856,-83.1086 164.2423,-64.7106 137.1937,-50.3042"/>
<polygon fill="#000088" stroke="#000088" points="128.3284,-45.5825 139.27,-46.3117 132.7415,-47.933 137.1546,-50.2835 137.1546,-50.2835 137.1546,-50.2835 132.7415,-47.933 135.0392,-54.2553 128.3284,-45.5825 128.3284,-45.5825"/>
<text text-anchor="middle" x="217.5" y="-73.6" font-family="Times,serif" font-size="8.00" fill="#000000">containedInTitle</text>
</g>
<!-- w0 -->
<g id="node3" class="node">
<title>w0</title>
<path fill="none" stroke="#000000" d="M338,-53C338,-53 215,-53 215,-53 209,-53 203,-47 203,-41 203,-41 203,-12 203,-12 203,-6 209,0 215,0 215,0 338,0 338,0 344,0 350,-6 350,-12 350,-12 350,-41 350,-41 350,-47 344,-53 338,-53"/>
<polygon fill="#add8e6" stroke="transparent" points="211.5,-33.5 211.5,-48.5 342.5,-48.5 342.5,-33.5 211.5,-33.5"/>
<text text-anchor="start" x="221" y="-39.5" font-family="Times,serif" font-size="10.00" fill="#000000"> &#160;&#160;&#160;&#160;&#160;&#160;&#160;&#160;&#160;</text>
<text text-anchor="start" x="244" y="-39.5" font-family="Times,serif" font-style="italic" font-size="10.00" fill="#000000">w0:Witness &#160;&#160;&#160;&#160;&#160;&#160;&#160;&#160;&#160;</text>
<text text-anchor="start" x="314" y="-39.5" font-family="Times,serif" font-size="10.00" fill="#000000"> &#160;&#160;&#160;&#160;&#160;&#160;&#160;</text>
<text text-anchor="start" x="213.5" y="-23.5" font-family="Times,serif" font-size="10.00" fill="#000000"> &#160;&#160;&#160;&#160;&#160;&#160;&#160;yearFrom &#160;&#160;&#160;&#160;&#160;</text>
<text text-anchor="start" x="287.5" y="-23.5" font-family="Times,serif" font-size="10.00" fill="#000000"> &#160;&#160;&#160;&#160;&#160;&#160;&#160;1810 &#160;&#160;&#160;&#160;&#160;</text>
<text text-anchor="start" x="218" y="-8.5" font-family="Times,serif" font-size="10.00" fill="#000000"> &#160;&#160;&#160;&#160;&#160;&#160;&#160;yearTo &#160;&#160;&#160;&#160;&#160;</text>
<text text-anchor="start" x="287.5" y="-8.5" font-family="Times,serif" font-size="10.00" fill="#000000"> &#160;&#160;&#160;&#160;&#160;&#160;&#160;1812 &#160;&#160;&#160;&#160;&#160;</text>
</g>
<!-- q0&#45;&gt;w0 -->
<g id="edge2" class="edge">
<title>q0&#45;&gt;w0</title>
<path fill="none" stroke="#000088" d="M276.5,-97.9798C276.5,-87.3034 276.5,-74.8091 276.5,-63.2792"/>
<polygon fill="#000088" stroke="#000088" points="276.5,-53.0414 281.0001,-63.0414 276.5,-58.0414 276.5001,-63.0414 276.5001,-63.0414 276.5001,-63.0414 276.5,-58.0414 272.0001,-63.0415 276.5,-53.0414 276.5,-53.0414"/>
<text text-anchor="middle" x="289" y="-73.6" font-family="Times,serif" font-size="8.00" fill="#000000">witness</text>
</g>
<!-- p0 -->
<g id="node4" class="node">
<title>p0</title>
<path fill="none" stroke="#000000" d="M507,-53C507,-53 380,-53 380,-53 374,-53 368,-47 368,-41 368,-41 368,-12 368,-12 368,-6 374,0 380,0 380,0 507,0 507,0 513,0 519,-6 519,-12 519,-12 519,-41 519,-41 519,-47 513,-53 507,-53"/>
<polygon fill="#add8e6" stroke="transparent" points="376.5,-33.5 376.5,-48.5 511.5,-48.5 511.5,-33.5 376.5,-33.5"/>
<text text-anchor="start" x="378.5" y="-39.5" font-family="Times,serif" font-size="10.00" fill="#000000"> &#160;&#160;&#160;&#160;&#160;&#160;&#160;&#160;&#160;</text>
<text text-anchor="start" x="401.5" y="-39.5" font-family="Times,serif" font-style="italic" font-size="10.00" fill="#000000">p0:PlatonicText &#160;&#160;&#160;&#160;&#160;&#160;&#160;&#160;&#160;</text>
<text text-anchor="start" x="490.5" y="-39.5" font-family="Times,serif" font-size="10.00" fill="#000000"> &#160;&#160;&#160;&#160;&#160;&#160;&#160;</text>
<text text-anchor="start" x="379.5" y="-23.5" font-family="Times,serif" font-size="10.00" fill="#000000"> &#160;&#160;&#160;&#160;&#160;&#160;&#160;yearFrom &#160;&#160;&#160;&#160;&#160;</text>
<text text-anchor="start" x="455.5" y="-23.5" font-family="Times,serif" font-size="10.00" fill="#000000"> &#160;&#160;&#160;&#160;&#160;&#160;&#160;1810 &#160;&#160;&#160;&#160;&#160;</text>
<text text-anchor="start" x="384" y="-8.5" font-family="Times,serif" font-size="10.00" fill="#000000"> &#160;&#160;&#160;&#160;&#160;&#160;&#160;yearTo &#160;&#160;&#160;&#160;&#160;</text>
<text text-anchor="start" x="455.5" y="-8.5" font-family="Times,serif" font-size="10.00" fill="#000000"> &#160;&#160;&#160;&#160;&#160;&#160;&#160;1812 &#160;&#160;&#160;&#160;&#160;</text>
</g>
<!-- q0&#45;&gt;p0 -->
<g id="edge3" class="edge">
<title>q0&#45;&gt;p0</title>
<path fill="none" stroke="#000088" d="M321.6926,-97.9798C342.578,-85.7237 367.5456,-71.0721 389.4232,-58.2337"/>
<polygon fill="#000088" stroke="#000088" points="398.2713,-53.0414 391.9242,-61.9837 393.9589,-55.572 389.6466,-58.1026 389.6466,-58.1026 389.6466,-58.1026 393.9589,-55.572 387.3691,-54.2215 398.2713,-53.0414 398.2713,-53.0414"/>
<text text-anchor="middle" x="386" y="-73.6" font-family="Times,serif" font-size="8.00" fill="#000000">platonicText</text>
</g>
<!-- e0 -->
<g id="node5" class="node">
<title>e0</title>
<path fill="none" stroke="#000000" d="M521.5,-413C521.5,-413 395.5,-413 395.5,-413 389.5,-413 383.5,-407 383.5,-401 383.5,-401 383.5,-389 383.5,-389 383.5,-383 389.5,-377 395.5,-377 395.5,-377 521.5,-377 521.5,-377 527.5,-377 533.5,-383 533.5,-389 533.5,-389 533.5,-401 533.5,-401 533.5,-407 527.5,-413 521.5,-413"/>
<polygon fill="#add8e6" stroke="transparent" points="391.5,-387 391.5,-402 525.5,-402 525.5,-387 391.5,-387"/>
<text text-anchor="start" x="393.5" y="-393" font-family="Times,serif" font-size="10.00" fill="#000000"> &#160;&#160;&#160;&#160;&#160;&#160;&#160;&#160;&#160;</text>
<text text-anchor="start" x="416.5" y="-393" font-family="Times,serif" font-style="italic" font-size="10.00" fill="#000000">e0:LexicalEntry &#160;&#160;&#160;&#160;&#160;&#160;&#160;&#160;&#160;</text>
<text text-anchor="start" x="504.5" y="-393" font-family="Times,serif" font-size="10.00" fill="#000000"> &#160;&#160;&#160;&#160;&#160;&#160;&#160;</text>
</g>
<!-- s0 -->
<g id="node6" class="node">
<title>s0</title>
<path fill="none" stroke="#000000" d="M354,-332C354,-332 167,-332 167,-332 161,-332 155,-326 155,-320 155,-320 155,-306 155,-306 155,-300 161,-294 167,-294 167,-294 354,-294 354,-294 360,-294 366,-300 366,-306 366,-306 366,-320 366,-320 366,-326 360,-332 354,-332"/>
<polygon fill="#add8e6" stroke="transparent" points="163.5,-313 163.5,-328 358.5,-328 358.5,-313 163.5,-313"/>
<text text-anchor="start" x="196" y="-319" font-family="Times,serif" font-size="10.00" fill="#000000"> &#160;&#160;&#160;&#160;&#160;&#160;&#160;&#160;&#160;</text>
<text text-anchor="start" x="219" y="-319" font-family="Times,serif" font-style="italic" font-size="10.00" fill="#000000">s0:LexicalSense &#160;&#160;&#160;&#160;&#160;&#160;&#160;&#160;&#160;</text>
<text text-anchor="start" x="307" y="-319" font-family="Times,serif" font-size="10.00" fill="#000000"> &#160;&#160;&#160;&#160;&#160;&#160;&#160;</text>
<text text-anchor="start" x="165.5" y="-303" font-family="Times,serif" font-size="10.00" fill="#000000"> &#160;&#160;&#160;&#160;&#160;&#160;&#160;definition &#160;&#160;&#160;&#160;&#160;</text>
<text text-anchor="start" x="242.5" y="-303" font-family="Times,serif" font-size="10.00" fill="#000000"> &#160;&#160;&#160;&#160;&#160;&#160;&#160;De koe is een nuttig &#160;&#160;&#160;&#160;&#160;</text>
</g>
<!-- e0&#45;&gt;s0 -->
<g id="edge4" class="edge">
<title>e0&#45;&gt;s0</title>
<path fill="none" stroke="#000088" d="M414.5574,-376.8015C385.441,-364.7433 347.0084,-348.8267 315.8142,-335.9079"/>
<polygon fill="#000088" stroke="#000088" points="306.3839,-332.0024 317.3448,-331.6712 311.0034,-333.9156 315.6229,-335.8288 315.6229,-335.8288 315.6229,-335.8288 311.0034,-333.9156 313.9011,-339.9863 306.3839,-332.0024 306.3839,-332.0024"/>
<text text-anchor="middle" x="380.5" y="-352.6" font-family="Times,serif" font-size="8.00" fill="#000000">sense</text>
</g>
<!-- l0 -->
<g id="node8" class="node">
<title>l0</title>
<path fill="none" stroke="#000000" d="M521,-332C521,-332 396,-332 396,-332 390,-332 384,-326 384,-320 384,-320 384,-306 384,-306 384,-300 390,-294 396,-294 396,-294 521,-294 521,-294 527,-294 533,-300 533,-306 533,-306 533,-320 533,-320 533,-326 527,-332 521,-332"/>
<polygon fill="#add8e6" stroke="transparent" points="392.5,-313 392.5,-328 525.5,-328 525.5,-313 392.5,-313"/>
<text text-anchor="start" x="409.5" y="-319" font-family="Times,serif" font-size="10.00" fill="#000000"> &#160;&#160;&#160;&#160;&#160;&#160;&#160;&#160;&#160;</text>
<text text-anchor="start" x="432.5" y="-319" font-family="Times,serif" font-style="italic" font-size="10.00" fill="#000000">l0:Form &#160;&#160;&#160;&#160;&#160;&#160;&#160;&#160;&#160;</text>
<text text-anchor="start" x="489.5" y="-319" font-family="Times,serif" font-size="10.00" fill="#000000"> &#160;&#160;&#160;&#160;&#160;&#160;&#160;</text>
<text text-anchor="start" x="394.5" y="-303" font-family="Times,serif" font-size="10.00" fill="#000000"> &#160;&#160;&#160;&#160;&#160;&#160;&#160;writtenRep &#160;&#160;&#160;&#160;&#160;</text>
<text text-anchor="start" x="476.5" y="-303" font-family="Times,serif" font-size="10.00" fill="#000000"> &#160;&#160;&#160;&#160;&#160;&#160;&#160;koe &#160;&#160;&#160;&#160;&#160;</text>
</g>
<!-- e0&#45;&gt;l0 -->
<g id="edge5" class="edge">
<title>e0&#45;&gt;l0</title>
<path fill="none" stroke="#000088" d="M458.5,-376.8015C458.5,-366.6144 458.5,-353.6734 458.5,-342.1128"/>
<polygon fill="#000088" stroke="#000088" points="458.5,-332.0024 463.0001,-342.0024 458.5,-337.0024 458.5001,-342.0024 458.5001,-342.0024 458.5001,-342.0024 458.5,-337.0024 454.0001,-342.0025 458.5,-332.0024 458.5,-332.0024"/>
<text text-anchor="middle" x="483" y="-352.6" font-family="Times,serif" font-size="8.00" fill="#000000">canonicalForm</text>
</g>
<!-- f0 -->
<g id="node9" class="node">
<title>f0</title>
<path fill="none" stroke="#000000" d="M695.5,-332C695.5,-332 563.5,-332 563.5,-332 557.5,-332 551.5,-326 551.5,-320 551.5,-320 551.5,-306 551.5,-306 551.5,-300 557.5,-294 563.5,-294 563.5,-294 695.5,-294 695.5,-294 701.5,-294 707.5,-300 707.5,-306 707.5,-306 707.5,-320 707.5,-320 707.5,-326 701.5,-332 695.5,-332"/>
<polygon fill="#add8e6" stroke="transparent" points="559.5,-313 559.5,-328 699.5,-328 699.5,-313 559.5,-313"/>
<text text-anchor="start" x="580" y="-319" font-family="Times,serif" font-size="10.00" fill="#000000"> &#160;&#160;&#160;&#160;&#160;&#160;&#160;&#160;&#160;</text>
<text text-anchor="start" x="603" y="-319" font-family="Times,serif" font-style="italic" font-size="10.00" fill="#000000">f0:Form &#160;&#160;&#160;&#160;&#160;&#160;&#160;&#160;&#160;</text>
<text text-anchor="start" x="660" y="-319" font-family="Times,serif" font-size="10.00" fill="#000000"> &#160;&#160;&#160;&#160;&#160;&#160;&#160;</text>
<text text-anchor="start" x="561.5" y="-303" font-family="Times,serif" font-size="10.00" fill="#000000"> &#160;&#160;&#160;&#160;&#160;&#160;&#160;writtenForm &#160;&#160;&#160;&#160;&#160;</text>
<text text-anchor="start" x="647.5" y="-303" font-family="Times,serif" font-size="10.00" fill="#000000"> &#160;&#160;&#160;&#160;&#160;&#160;&#160;koei &#160;&#160;&#160;&#160;&#160;</text>
</g>
<!-- e0&#45;&gt;f0 -->
<g id="edge6" class="edge">
<title>e0&#45;&gt;f0</title>
<path fill="none" stroke="#000088" d="M496.4504,-376.8015C521.2712,-364.8992 553.9311,-349.2377 580.6805,-336.4105"/>
<polygon fill="#000088" stroke="#000088" points="589.873,-332.0024 582.8019,-340.384 585.3645,-334.1644 580.8561,-336.3264 580.8561,-336.3264 580.8561,-336.3264 585.3645,-334.1644 578.9103,-332.2688 589.873,-332.0024 589.873,-332.0024"/>
<text text-anchor="middle" x="568.5" y="-352.6" font-family="Times,serif" font-size="8.00" fill="#000000">lexicalForm</text>
</g>
<!-- s0&#45;&gt;q0 -->
<g id="edge8" class="edge">
<title>s0&#45;&gt;q0</title>
<path fill="none" stroke="#000088" d="M261.8437,-293.9406C263.5051,-270.7754 266.4844,-230.5017 269.5,-196 270.4793,-184.795 271.6374,-172.6118 272.7266,-161.53"/>
<polygon fill="#000088" stroke="#000088" points="273.7418,-151.3105 277.2311,-161.7064 273.2475,-156.2861 272.7532,-161.2616 272.7532,-161.2616 272.7532,-161.2616 273.2475,-156.2861 268.2752,-160.8167 273.7418,-151.3105 273.7418,-151.3105"/>
<text text-anchor="middle" x="282" y="-220.6" font-family="Times,serif" font-size="8.00" fill="#000000">citation</text>
</g>
<!-- a0 -->
<g id="node7" class="node">
<title>a0</title>
<path fill="none" stroke="#000000" d="M435.5,-249C435.5,-249 315.5,-249 315.5,-249 309.5,-249 303.5,-243 303.5,-237 303.5,-237 303.5,-208 303.5,-208 303.5,-202 309.5,-196 315.5,-196 315.5,-196 435.5,-196 435.5,-196 441.5,-196 447.5,-202 447.5,-208 447.5,-208 447.5,-237 447.5,-237 447.5,-243 441.5,-249 435.5,-249"/>
<polygon fill="#add8e6" stroke="transparent" points="311.5,-229.5 311.5,-244.5 439.5,-244.5 439.5,-229.5 311.5,-229.5"/>
<text text-anchor="start" x="313.5" y="-235.5" font-family="Times,serif" font-size="10.00" fill="#000000"> &#160;&#160;&#160;&#160;&#160;&#160;&#160;&#160;&#160;</text>
<text text-anchor="start" x="336.5" y="-235.5" font-family="Times,serif" font-style="italic" font-size="10.00" fill="#000000">a0:Attestation &#160;&#160;&#160;&#160;&#160;&#160;&#160;&#160;&#160;</text>
<text text-anchor="start" x="418.5" y="-235.5" font-family="Times,serif" font-size="10.00" fill="#000000"> &#160;&#160;&#160;&#160;&#160;&#160;&#160;</text>
<text text-anchor="start" x="314.5" y="-219.5" font-family="Times,serif" font-size="10.00" fill="#000000"> &#160;&#160;&#160;&#160;&#160;&#160;&#160;beginIndex &#160;&#160;&#160;&#160;&#160;</text>
<text text-anchor="start" x="399.5" y="-219.5" font-family="Times,serif" font-size="10.00" fill="#000000"> &#160;&#160;&#160;&#160;&#160;&#160;&#160;3 &#160;&#160;&#160;&#160;&#160;</text>
<text text-anchor="start" x="319" y="-204.5" font-family="Times,serif" font-size="10.00" fill="#000000"> &#160;&#160;&#160;&#160;&#160;&#160;&#160;endIndex &#160;&#160;&#160;&#160;&#160;</text>
<text text-anchor="start" x="399.5" y="-204.5" font-family="Times,serif" font-size="10.00" fill="#000000"> &#160;&#160;&#160;&#160;&#160;&#160;&#160;6 &#160;&#160;&#160;&#160;&#160;</text>
</g>
<!-- s0&#45;&gt;a0 -->
<g id="edge7" class="edge">
<title>s0&#45;&gt;a0</title>
<path fill="none" stroke="#000088" d="M284.8885,-293.8073C299.0536,-282.66 317.2856,-268.3122 333.6772,-255.4127"/>
<polygon fill="#000088" stroke="#000088" points="341.5503,-249.2169 336.4748,-258.9375 337.6211,-252.3091 333.6919,-255.4012 333.6919,-255.4012 333.6919,-255.4012 337.6211,-252.3091 330.9089,-251.8649 341.5503,-249.2169 341.5503,-249.2169"/>
<text text-anchor="middle" x="335.5" y="-269.6" font-family="Times,serif" font-size="8.00" fill="#000000">attestation</text>
</g>
<!-- a0&#45;&gt;q0 -->
<g id="edge9" class="edge">
<title>a0&#45;&gt;q0</title>
<path fill="none" stroke="#000088" d="M348.7092,-195.9798C336.9333,-184.3229 322.9683,-170.4989 310.4723,-158.1291"/>
<polygon fill="#000088" stroke="#000088" points="303.3122,-151.0414 313.5849,-154.8784 306.8657,-154.559 310.4191,-158.0765 310.4191,-158.0765 310.4191,-158.0765 306.8657,-154.559 307.2533,-161.2746 303.3122,-151.0414 303.3122,-151.0414"/>
<text text-anchor="middle" x="336" y="-171.6" font-family="Times,serif" font-size="8.00" fill="#000000">text</text>
</g>
<!-- f0&#45;&gt;a0 -->
<g id="edge10" class="edge">
<title>f0&#45;&gt;a0</title>
<path fill="none" stroke="#000088" d="M575.9435,-293.9179C541.5941,-281.6792 496.3237,-265.5494 457.498,-251.7158"/>
<polygon fill="#000088" stroke="#000088" points="447.7765,-248.2521 458.7068,-247.3695 452.4865,-249.9302 457.1964,-251.6084 457.1964,-251.6084 457.1964,-251.6084 452.4865,-249.9302 455.6861,-255.8474 447.7765,-248.2521 447.7765,-248.2521"/>
<text text-anchor="middle" x="541.5" y="-269.6" font-family="Times,serif" font-size="8.00" fill="#000000">attestation</text>
</g>
</g>
</svg>
