<svg width="667pt" height="242pt"
 viewBox="0.00 0.00 667.00 242.00" xmlns="http://www.w3.org/2000/svg" xmlns:xlink="http://www.w3.org/1999/xlink">
<g id="graph0" class="graph" transform="scale(1 1) rotate(0) translate(4 238)">
<title>G</title>
<polygon fill="#ffffff" stroke="transparent" points="-4,4 -4,-238 663,-238 663,4 -4,4"/>
<!-- sensebet1078333 -->
<g id="node1" class="node">
<title>sensebet1078333</title>
<path fill="none" stroke="#000000" d="M379,-143.5C379,-143.5 280,-143.5 280,-143.5 274,-143.5 268,-137.5 268,-131.5 268,-131.5 268,-117.5 268,-117.5 268,-111.5 274,-105.5 280,-105.5 280,-105.5 379,-105.5 379,-105.5 385,-105.5 391,-111.5 391,-117.5 391,-117.5 391,-131.5 391,-131.5 391,-137.5 385,-143.5 379,-143.5"/>
<polygon fill="#add8e6" stroke="transparent" points="276.5,-124.5 276.5,-139.5 383.5,-139.5 383.5,-124.5 276.5,-124.5"/>
<text text-anchor="start" x="278.5" y="-130.5" font-family="Times,serif" font-style="italic" font-size="10.00" fill="#000000">sensebet1.0_78333:UNK</text>
<text text-anchor="start" x="290" y="-114.5" font-family="Times,serif" font-size="10.00" fill="#000000">senseOrder</text>
<text text-anchor="start" x="363.5" y="-114.5" font-family="Times,serif" font-size="10.00" fill="#000000">1</text>
</g>
<!-- sensebet1078333definition -->
<g id="node2" class="node">
<title>sensebet1078333definition</title>
<path fill="none" stroke="#000000" d="M647,-53C647,-53 12,-53 12,-53 6,-53 0,-47 0,-41 0,-41 0,-12 0,-12 0,-6 6,0 12,0 12,0 647,0 647,0 653,0 659,-6 659,-12 659,-12 659,-41 659,-41 659,-47 653,-53 647,-53"/>
<polygon fill="#add8e6" stroke="transparent" points="8.5,-33.5 8.5,-48.5 651.5,-48.5 651.5,-33.5 8.5,-33.5"/>
<text text-anchor="start" x="255.5" y="-39.5" font-family="Times,serif" font-style="italic" font-size="10.00" fill="#000000">sensebet1.0_78333_definition:UNK</text>
<text text-anchor="start" x="46" y="-23.5" font-family="Times,serif" font-size="10.00" fill="#000000">value</text>
<text text-anchor="start" x="108.5" y="-23.5" font-family="Times,serif" font-size="10.00" fill="#000000">klein huisdier dat miauwt en spint en dat gehouden wordt als gezelschapsdier of voor het vangen van muizen en ratten; huiskat; poes</text>
<text text-anchor="start" x="10.5" y="-8.5" font-family="Times,serif" font-size="10.00" fill="#000000">definitionComplement</text>
<text text-anchor="start" x="213.5" y="-8.5" font-family="Times,serif" font-size="10.00" fill="#000000">Zowel in toepassing op dieren van het vrouwelijk als van het mannelijk geslacht.</text>
</g>
<!-- sensebet1078333&#45;&gt;sensebet1078333definition -->
<g id="edge1" class="edge">
<title>sensebet1078333&#45;&gt;sensebet1078333definition</title>
<path fill="none" stroke="#000088" d="M329.5,-105.1384C329.5,-93.1985 329.5,-77.4978 329.5,-63.2676"/>
<polygon fill="#000088" stroke="#000088" points="329.5,-53.2405 334.0001,-63.2404 329.5,-58.2405 329.5001,-63.2405 329.5001,-63.2405 329.5001,-63.2405 329.5,-58.2405 325.0001,-63.2405 329.5,-53.2405 329.5,-53.2405"/>
<text text-anchor="middle" x="345" y="-73.6" font-family="Times,serif" font-size="8.00" fill="#000000">definition</text>
</g>
<!-- lemmavorm78332 -->
<g id="node3" class="node">
<title>lemmavorm78332</title>
<path fill="none" stroke="#000000" d="M544,-151C544,-151 421,-151 421,-151 415,-151 409,-145 409,-139 409,-139 409,-110 409,-110 409,-104 415,-98 421,-98 421,-98 544,-98 544,-98 550,-98 556,-104 556,-110 556,-110 556,-139 556,-139 556,-145 550,-151 544,-151"/>
<polygon fill="#add8e6" stroke="transparent" points="417.5,-131.5 417.5,-146.5 548.5,-146.5 548.5,-131.5 417.5,-131.5"/>
<text text-anchor="start" x="430" y="-137.5" font-family="Times,serif" font-style="italic" font-size="10.00" fill="#000000">lemmavorm_78332:Form</text>
<text text-anchor="start" x="423" y="-121.5" font-family="Times,serif" font-size="10.00" fill="#000000">writtenRepresentation</text>
<text text-anchor="start" x="527.5" y="-121.5" font-family="Times,serif" font-size="10.00" fill="#000000">kat</text>
<text text-anchor="start" x="419.5" y="-106.5" font-family="Times,serif" font-size="10.00" fill="#000000">phoneticRepresentation</text>
<text text-anchor="start" x="521.5" y="-106.5" font-family="Times,serif" font-size="10.00" fill="#000000">*k ɑ t</text>
</g>
<!-- lemma78332 -->
<g id="node4" class="node">
<title>lemma78332</title>
<path fill="none" stroke="#000000" d="M489,-234C489,-234 378,-234 378,-234 372,-234 366,-228 366,-222 366,-222 366,-208 366,-208 366,-202 372,-196 378,-196 378,-196 489,-196 489,-196 495,-196 501,-202 501,-208 501,-208 501,-222 501,-222 501,-228 495,-234 489,-234"/>
<polygon fill="#add8e6" stroke="transparent" points="374.5,-215 374.5,-230 493.5,-230 493.5,-215 374.5,-215"/>
<text text-anchor="start" x="376.5" y="-221" font-family="Times,serif" font-style="italic" font-size="10.00" fill="#000000">lemma_78332:LexicalEntry</text>
<text text-anchor="start" x="395.5" y="-205" font-family="Times,serif" font-size="10.00" fill="#000000">label</text>
<text text-anchor="start" x="459" y="-205" font-family="Times,serif" font-size="10.00" fill="#000000">kat</text>
</g>
<!-- lemma78332&#45;&gt;sensebet1078333 -->
<g id="edge3" class="edge">
<title>lemma78332&#45;&gt;sensebet1078333</title>
<path fill="none" stroke="#000088" d="M411.4443,-195.8073C396.277,-182.6089 375.9539,-164.9239 359.3419,-150.4682"/>
<polygon fill="#000088" stroke="#000088" points="351.5239,-143.6651 362.0217,-146.8349 355.2958,-146.9473 359.0677,-150.2296 359.0677,-150.2296 359.0677,-150.2296 355.2958,-146.9473 356.1136,-153.6243 351.5239,-143.6651 351.5239,-143.6651"/>
<text text-anchor="middle" x="400.5" y="-171.6" font-family="Times,serif" font-size="8.00" fill="#000000">sense</text>
</g>
<!-- lemma78332&#45;&gt;lemmavorm78332 -->
<g id="edge2" class="edge">
<title>lemma78332&#45;&gt;lemmavorm78332</title>
<path fill="none" stroke="#000088" d="M443.8916,-195.8073C449.4882,-185.4707 456.5748,-172.3822 463.1446,-160.2483"/>
<polygon fill="#000088" stroke="#000088" points="468.0345,-151.2169 467.2304,-162.1533 465.6538,-155.6138 463.2732,-160.0107 463.2732,-160.0107 463.2732,-160.0107 465.6538,-155.6138 459.316,-157.8681 468.0345,-151.2169 468.0345,-151.2169"/>
<text text-anchor="middle" x="482" y="-171.6" font-family="Times,serif" font-size="8.00" fill="#000000">canonicalForm</text>
</g>
</g>
</svg>
