<svg width="794pt" height="421pt"
 viewBox="0.00 0.00 793.50 421.00" xmlns="http://www.w3.org/2000/svg" xmlns:xlink="http://www.w3.org/1999/xlink">
<g id="graph0" class="graph" transform="scale(1 1) rotate(0) translate(4 417)">
<title>G</title>
<polygon fill="#ffffff" stroke="transparent" points="-4,4 -4,-417 789.5,-417 789.5,4 -4,4"/>
<!-- q0 -->
<g id="node1" class="node">
<title>q0</title>
<path fill="none" stroke="#000000" d="M374.5,-151C374.5,-151 178.5,-151 178.5,-151 172.5,-151 166.5,-145 166.5,-139 166.5,-139 166.5,-110 166.5,-110 166.5,-104 172.5,-98 178.5,-98 178.5,-98 374.5,-98 374.5,-98 380.5,-98 386.5,-104 386.5,-110 386.5,-110 386.5,-139 386.5,-139 386.5,-145 380.5,-151 374.5,-151"/>
<polygon fill="#add8e6" stroke="transparent" points="174.5,-131.5 174.5,-146.5 378.5,-146.5 378.5,-131.5 174.5,-131.5"/>
<text text-anchor="start" x="216" y="-137.5" font-family="Times,serif" font-size="10.00" fill="#000000"> &#160;&#160;&#160;&#160;&#160;&#160;&#160;&#160;&#160;</text>
<text text-anchor="start" x="239" y="-137.5" font-family="Times,serif" font-style="italic" font-size="10.00" fill="#000000">q0:Quotation &#160;&#160;&#160;&#160;&#160;&#160;&#160;&#160;&#160;</text>
<text text-anchor="start" x="318" y="-137.5" font-family="Times,serif" font-size="10.00" fill="#000000"> &#160;&#160;&#160;&#160;&#160;&#160;&#160;</text>
<text text-anchor="start" x="176.5" y="-121.5" font-family="Times,serif" font-size="10.00" fill="#000000"> &#160;&#160;&#160;&#160;&#160;&#160;&#160;quotationText &#160;&#160;&#160;&#160;&#160;</text>
<text text-anchor="start" x="277" y="-121.5" font-family="Times,serif" font-size="10.00" fill="#000000"> &#160;&#160;&#160;&#160;&#160;&#160;&#160;de koei zei boe &#160;&#160;&#160;&#160;&#160;</text>
<text text-anchor="start" x="197.5" y="-106.5" font-family="Times,serif" font-size="10.00" fill="#000000"> &#160;&#160;&#160;&#160;&#160;&#160;&#160;title &#160;&#160;&#160;&#160;&#160;</text>
<text text-anchor="start" x="271.5" y="-106.5" font-family="Times,serif" font-size="10.00" fill="#000000"> &#160;&#160;&#160;&#160;&#160;&#160;&#160;Over pissebedden &#160;&#160;&#160;&#160;&#160;</text>
</g>
<!-- t0 -->
<g id="node2" class="node">
<title>t0</title>
<path fill="none" stroke="#000000" d="M173,-45.5C173,-45.5 12,-45.5 12,-45.5 6,-45.5 0,-39.5 0,-33.5 0,-33.5 0,-19.5 0,-19.5 0,-13.5 6,-7.5 12,-7.5 12,-7.5 173,-7.5 173,-7.5 179,-7.5 185,-13.5 185,-19.5 185,-19.5 185,-33.5 185,-33.5 185,-39.5 179,-45.5 173,-45.5"/>
<polygon fill="#add8e6" stroke="transparent" points="8.5,-26.5 8.5,-41.5 177.5,-41.5 177.5,-26.5 8.5,-26.5"/>
<text text-anchor="start" x="45.5" y="-32.5" font-family="Times,serif" font-size="10.00" fill="#000000"> &#160;&#160;&#160;&#160;&#160;&#160;&#160;&#160;&#160;</text>
<text text-anchor="start" x="68.5" y="-32.5" font-family="Times,serif" font-style="italic" font-size="10.00" fill="#000000">t0:Title &#160;&#160;&#160;&#160;&#160;&#160;&#160;&#160;&#160;</text>
<text text-anchor="start" x="121.5" y="-32.5" font-family="Times,serif" font-size="10.00" fill="#000000"> &#160;&#160;&#160;&#160;&#160;&#160;&#160;</text>
<text text-anchor="start" x="10.5" y="-16.5" font-family="Times,serif" font-size="10.00" fill="#000000"> &#160;&#160;&#160;&#160;&#160;&#160;&#160;title &#160;&#160;&#160;&#160;&#160;</text>
<text text-anchor="start" x="63.5" y="-16.5" font-family="Times,serif" font-size="10.00" fill="#000000"> &#160;&#160;&#160;&#160;&#160;&#160;&#160;Hinderlijke diertjes &#160;&#160;&#160;&#160;&#160;</text>
</g>
<!-- q0&#45;&gt;t0 -->
<g id="edge1" class="edge">
<title>q0&#45;&gt;t0</title>
<path fill="none" stroke="#000088" d="M226.707,-97.9798C198.7856,-83.1086 164.2423,-64.7106 137.1937,-50.3042"/>
<polygon fill="#000088" stroke="#000088" points="128.3284,-45.5825 139.27,-46.3117 132.7415,-47.933 137.1546,-50.2835 137.1546,-50.2835 137.1546,-50.2835 132.7415,-47.933 135.0392,-54.2553 128.3284,-45.5825 128.3284,-45.5825"/>
<text text-anchor="middle" x="217.5" y="-73.6" font-family="Times,serif" font-size="8.00" fill="#000000">containedInTitle</text>
</g>
<!-- w0 -->
<g id="node3" class="node">
<title>w0</title>
<path fill="none" stroke="#000000" d="M338,-53C338,-53 215,-53 215,-53 209,-53 203,-47 203,-41 203,-41 203,-12 203,-12 203,-6 209,0 215,0 215,0 338,0 338,0 344,0 350,-6 350,-12 350,-12 350,-41 350,-41 350,-47 344,-53 338,-53"/>
<polygon fill="#add8e6" stroke="transparent" points="211.5,-33.5 211.5,-48.5 342.5,-48.5 342.5,-33.5 211.5,-33.5"/>
<text text-anchor="start" x="221" y="-39.5" font-family="Times,serif" font-size="10.00" fill="#000000"> &#160;&#160;&#160;&#160;&#160;&#160;&#160;&#160;&#160;</text>
<text text-anchor="start" x="244" y="-39.5" font-family="Times,serif" font-style="italic" font-size="10.00" fill="#000000">w0:Witness &#160;&#160;&#160;&#160;&#160;&#160;&#160;&#160;&#160;</text>
<text text-anchor="start" x="314" y="-39.5" font-family="Times,serif" font-size="10.00" fill="#000000"> &#160;&#160;&#160;&#160;&#160;&#160;&#160;</text>
<text text-anchor="start" x="213.5" y="-23.5" font-family="Times,serif" font-size="10.00" fill="#000000"> &#160;&#160;&#160;&#160;&#160;&#160;&#160;yearFrom &#160;&#160;&#160;&#160;&#160;</text>
<text text-anchor="start" x="287.5" y="-23.5" font-family="Times,serif" font-size="10.00" fill="#000000"> &#160;&#160;&#160;&#160;&#160;&#160;&#160;1810 &#160;&#160;&#160;&#160;&#160;</text>
<text text-anchor="start" x="218" y="-8.5" font-family="Times,serif" font-size="10.00" fill="#000000"> &#160;&#160;&#160;&#160;&#160;&#160;&#160;yearTo &#160;&#160;&#160;&#160;&#160;</text>
<text text-anchor="start" x="287.5" y="-8.5" font-family="Times,serif" font-size="10.00" fill="#000000"> &#160;&#160;&#160;&#160;&#160;&#160;&#160;1812 &#160;&#160;&#160;&#160;&#160;</text>
</g>
<!-- q0&#45;&gt;w0 -->
<g id="edge2" class="edge">
<title>q0&#45;&gt;w0</title>
<path fill="none" stroke="#000088" d="M276.5,-97.9798C276.5,-87.3034 276.5,-74.8091 276.5,-63.2792"/>
<polygon fill="#000088" stroke="#000088" points="276.5,-53.0414 281.0001,-63.0414 276.5,-58.0414 276.5001,-63.0414 276.5001,-63.0414 276.5001,-63.0414 276.5,-58.0414 272.0001,-63.0415 276.5,-53.0414 276.5,-53.0414"/>
<text text-anchor="middle" x="289" y="-73.6" font-family="Times,serif" font-size="8.00" fill="#000000">witness</text>
</g>
<!-- p0 -->
<g id="node4" class="node">
<title>p0</title>
<path fill="none" stroke="#000000" d="M507,-53C507,-53 380,-53 380,-53 374,-53 368,-47 368,-41 368,-41 368,-12 368,-12 368,-6 374,0 380,0 380,0 507,0 507,0 513,0 519,-6 519,-12 519,-12 519,-41 519,-41 519,-47 513,-53 507,-53"/>
<polygon fill="#add8e6" stroke="transparent" points="376.5,-33.5 376.5,-48.5 511.5,-48.5 511.5,-33.5 376.5,-33.5"/>
<text text-anchor="start" x="378.5" y="-39.5" font-family="Times,serif" font-size="10.00" fill="#000000"> &#160;&#160;&#160;&#160;&#160;&#160;&#160;&#160;&#160;</text>
<text text-anchor="start" x="401.5" y="-39.5" font-family="Times,serif" font-style="italic" font-size="10.00" fill="#000000">p0:PlatonicText &#160;&#160;&#160;&#160;&#160;&#160;&#160;&#160;&#160;</text>
<text text-anchor="start" x="490.5" y="-39.5" font-family="Times,serif" font-size="10.00" fill="#000000"> &#160;&#160;&#160;&#160;&#160;&#160;&#160;</text>
<text text-anchor="start" x="379.5" y="-23.5" font-family="Times,serif" font-size="10.00" fill="#000000"> &#160;&#160;&#160;&#160;&#160;&#160;&#160;yearFrom &#160;&#160;&#160;&#160;&#160;</text>
<text text-anchor="start" x="455.5" y="-23.5" font-family="Times,serif" font-size="10.00" fill="#000000"> &#160;&#160;&#160;&#160;&#160;&#160;&#160;1810 &#160;&#160;&#160;&#160;&#160;</text>
<text text-anchor="start" x="384" y="-8.5" font-family="Times,serif" font-size="10.00" fill="#000000"> &#160;&#160;&#160;&#160;&#160;&#160;&#160;yearTo &#160;&#160;&#160;&#160;&#160;</text>
<text text-anchor="start" x="455.5" y="-8.5" font-family="Times,serif" font-size="10.00" fill="#000000"> &#160;&#160;&#160;&#160;&#160;&#160;&#160;1812 &#160;&#160;&#160;&#160;&#160;</text>
</g>
<!-- q0&#45;&gt;p0 -->
<g id="edge3" class="edge">
<title>q0&#45;&gt;p0</title>
<path fill="none" stroke="#000088" d="M321.6926,-97.9798C342.578,-85.7237 367.5456,-71.0721 389.4232,-58.2337"/>
<polygon fill="#000088" stroke="#000088" points="398.2713,-53.0414 391.9242,-61.9837 393.9589,-55.572 389.6466,-58.1026 389.6466,-58.1026 389.6466,-58.1026 393.9589,-55.572 387.3691,-54.2215 398.2713,-53.0414 398.2713,-53.0414"/>
<text text-anchor="middle" x="386" y="-73.6" font-family="Times,serif" font-size="8.00" fill="#000000">platonicText</text>
</g>
<!-- e0 -->
<g id="node5" class="node">
<title>e0</title>
<path fill="none" stroke="#000000" d="M568.5,-413C568.5,-413 410.5,-413 410.5,-413 404.5,-413 398.5,-407 398.5,-401 398.5,-401 398.5,-389 398.5,-389 398.5,-383 404.5,-377 410.5,-377 410.5,-377 568.5,-377 568.5,-377 574.5,-377 580.5,-383 580.5,-389 580.5,-389 580.5,-401 580.5,-401 580.5,-407 574.5,-413 568.5,-413"/>
<polygon fill="#add8e6" stroke="transparent" points="406.5,-387 406.5,-402 572.5,-402 572.5,-387 406.5,-387"/>
<text text-anchor="start" x="409" y="-393" font-family="Times,serif" font-size="10.00" fill="#000000"> &#160;&#160;&#160;&#160;&#160;&#160;&#160;&#160;&#160;</text>
<text text-anchor="start" x="432" y="-393" font-family="Times,serif" font-style="italic" font-size="10.00" fill="#000000">e0:ontolexLexicalEntry &#160;&#160;&#160;&#160;&#160;&#160;&#160;&#160;&#160;</text>
<text text-anchor="start" x="551" y="-393" font-family="Times,serif" font-size="10.00" fill="#000000"> &#160;&#160;&#160;&#160;&#160;&#160;&#160;</text>
</g>
<!-- s0 -->
<g id="node6" class="node">
<title>s0</title>
<path fill="none" stroke="#000000" d="M369.5,-332C369.5,-332 151.5,-332 151.5,-332 145.5,-332 139.5,-326 139.5,-320 139.5,-320 139.5,-306 139.5,-306 139.5,-300 145.5,-294 151.5,-294 151.5,-294 369.5,-294 369.5,-294 375.5,-294 381.5,-300 381.5,-306 381.5,-306 381.5,-320 381.5,-320 381.5,-326 375.5,-332 369.5,-332"/>
<polygon fill="#add8e6" stroke="transparent" points="147.5,-313 147.5,-328 373.5,-328 373.5,-313 147.5,-313"/>
<text text-anchor="start" x="180" y="-319" font-family="Times,serif" font-size="10.00" fill="#000000"> &#160;&#160;&#160;&#160;&#160;&#160;&#160;&#160;&#160;</text>
<text text-anchor="start" x="203" y="-319" font-family="Times,serif" font-style="italic" font-size="10.00" fill="#000000">s0:ontolexLexicalSense &#160;&#160;&#160;&#160;&#160;&#160;&#160;&#160;&#160;</text>
<text text-anchor="start" x="322" y="-319" font-family="Times,serif" font-size="10.00" fill="#000000"> &#160;&#160;&#160;&#160;&#160;&#160;&#160;</text>
<text text-anchor="start" x="149.5" y="-303" font-family="Times,serif" font-size="10.00" fill="#000000"> &#160;&#160;&#160;&#160;&#160;&#160;&#160;ontolexdefinition &#160;&#160;&#160;&#160;&#160;</text>
<text text-anchor="start" x="257.5" y="-303" font-family="Times,serif" font-size="10.00" fill="#000000"> &#160;&#160;&#160;&#160;&#160;&#160;&#160;De koe is een nuttig &#160;&#160;&#160;&#160;&#160;</text>
</g>
<!-- e0&#45;&gt;s0 -->
<g id="edge4" class="edge">
<title>e0&#45;&gt;s0</title>
<path fill="none" stroke="#000088" d="M438.9615,-376.9032C404.8648,-364.6939 359.6263,-348.495 323.2288,-335.4619"/>
<polygon fill="#000088" stroke="#000088" points="313.6973,-332.0488 324.629,-331.1835 318.4046,-333.7344 323.1119,-335.42 323.1119,-335.42 323.1119,-335.42 318.4046,-333.7344 321.5948,-339.6566 313.6973,-332.0488 313.6973,-332.0488"/>
<text text-anchor="middle" x="410" y="-352.6" font-family="Times,serif" font-size="8.00" fill="#000000">ontolexsense</text>
</g>
<!-- l0 -->
<g id="node8" class="node">
<title>l0</title>
<path fill="none" stroke="#000000" d="M567.5,-332C567.5,-332 411.5,-332 411.5,-332 405.5,-332 399.5,-326 399.5,-320 399.5,-320 399.5,-306 399.5,-306 399.5,-300 405.5,-294 411.5,-294 411.5,-294 567.5,-294 567.5,-294 573.5,-294 579.5,-300 579.5,-306 579.5,-306 579.5,-320 579.5,-320 579.5,-326 573.5,-332 567.5,-332"/>
<polygon fill="#add8e6" stroke="transparent" points="407.5,-313 407.5,-328 571.5,-328 571.5,-313 407.5,-313"/>
<text text-anchor="start" x="424.5" y="-319" font-family="Times,serif" font-size="10.00" fill="#000000"> &#160;&#160;&#160;&#160;&#160;&#160;&#160;&#160;&#160;</text>
<text text-anchor="start" x="447.5" y="-319" font-family="Times,serif" font-style="italic" font-size="10.00" fill="#000000">l0:ontolexForm &#160;&#160;&#160;&#160;&#160;&#160;&#160;&#160;&#160;</text>
<text text-anchor="start" x="535.5" y="-319" font-family="Times,serif" font-size="10.00" fill="#000000"> &#160;&#160;&#160;&#160;&#160;&#160;&#160;</text>
<text text-anchor="start" x="409.5" y="-303" font-family="Times,serif" font-size="10.00" fill="#000000"> &#160;&#160;&#160;&#160;&#160;&#160;&#160;ontolexwrittenRep &#160;&#160;&#160;&#160;&#160;</text>
<text text-anchor="start" x="522.5" y="-303" font-family="Times,serif" font-size="10.00" fill="#000000"> &#160;&#160;&#160;&#160;&#160;&#160;&#160;koe &#160;&#160;&#160;&#160;&#160;</text>
</g>
<!-- e0&#45;&gt;l0 -->
<g id="edge5" class="edge">
<title>e0&#45;&gt;l0</title>
<path fill="none" stroke="#000088" d="M489.5,-376.8015C489.5,-366.6144 489.5,-353.6734 489.5,-342.1128"/>
<polygon fill="#000088" stroke="#000088" points="489.5,-332.0024 494.0001,-342.0024 489.5,-337.0024 489.5001,-342.0024 489.5001,-342.0024 489.5001,-342.0024 489.5,-337.0024 485.0001,-342.0025 489.5,-332.0024 489.5,-332.0024"/>
<text text-anchor="middle" x="525.5" y="-352.6" font-family="Times,serif" font-size="8.00" fill="#000000">ontolexcanonicalForm</text>
</g>
<!-- f0 -->
<g id="node9" class="node">
<title>f0</title>
<path fill="none" stroke="#000000" d="M773.5,-332C773.5,-332 609.5,-332 609.5,-332 603.5,-332 597.5,-326 597.5,-320 597.5,-320 597.5,-306 597.5,-306 597.5,-300 603.5,-294 609.5,-294 609.5,-294 773.5,-294 773.5,-294 779.5,-294 785.5,-300 785.5,-306 785.5,-306 785.5,-320 785.5,-320 785.5,-326 779.5,-332 773.5,-332"/>
<polygon fill="#add8e6" stroke="transparent" points="605.5,-313 605.5,-328 777.5,-328 777.5,-313 605.5,-313"/>
<text text-anchor="start" x="626.5" y="-319" font-family="Times,serif" font-size="10.00" fill="#000000"> &#160;&#160;&#160;&#160;&#160;&#160;&#160;&#160;&#160;</text>
<text text-anchor="start" x="649.5" y="-319" font-family="Times,serif" font-style="italic" font-size="10.00" fill="#000000">f0:ontolexForm &#160;&#160;&#160;&#160;&#160;&#160;&#160;&#160;&#160;</text>
<text text-anchor="start" x="737.5" y="-319" font-family="Times,serif" font-size="10.00" fill="#000000"> &#160;&#160;&#160;&#160;&#160;&#160;&#160;</text>
<text text-anchor="start" x="607.5" y="-303" font-family="Times,serif" font-size="10.00" fill="#000000"> &#160;&#160;&#160;&#160;&#160;&#160;&#160;ontolexwrittenForm &#160;&#160;&#160;&#160;&#160;</text>
<text text-anchor="start" x="725.5" y="-303" font-family="Times,serif" font-size="10.00" fill="#000000"> &#160;&#160;&#160;&#160;&#160;&#160;&#160;koei &#160;&#160;&#160;&#160;&#160;</text>
</g>
<!-- e0&#45;&gt;f0 -->
<g id="edge6" class="edge">
<title>e0&#45;&gt;f0</title>
<path fill="none" stroke="#000088" d="M534.3303,-376.8015C564.0349,-364.7433 603.2439,-348.8267 635.0684,-335.9079"/>
<polygon fill="#000088" stroke="#000088" points="644.6891,-332.0024 637.1161,-339.9333 640.0563,-333.8831 635.4235,-335.7638 635.4235,-335.7638 635.4235,-335.7638 640.0563,-333.8831 633.7309,-331.5942 644.6891,-332.0024 644.6891,-332.0024"/>
<text text-anchor="middle" x="628" y="-352.6" font-family="Times,serif" font-size="8.00" fill="#000000">ontolexlexicalForm</text>
</g>
<!-- s0&#45;&gt;q0 -->
<g id="edge8" class="edge">
<title>s0&#45;&gt;q0</title>
<path fill="none" stroke="#000088" d="M261.8437,-293.9406C263.5051,-270.7754 266.4844,-230.5017 269.5,-196 270.4793,-184.795 271.6374,-172.6118 272.7266,-161.53"/>
<polygon fill="#000088" stroke="#000088" points="273.7418,-151.3105 277.2311,-161.7064 273.2475,-156.2861 272.7532,-161.2616 272.7532,-161.2616 272.7532,-161.2616 273.2475,-156.2861 268.2752,-160.8167 273.7418,-151.3105 273.7418,-151.3105"/>
<text text-anchor="middle" x="282" y="-220.6" font-family="Times,serif" font-size="8.00" fill="#000000">citation</text>
</g>
<!-- a0 -->
<g id="node7" class="node">
<title>a0</title>
<path fill="none" stroke="#000000" d="M435.5,-249C435.5,-249 315.5,-249 315.5,-249 309.5,-249 303.5,-243 303.5,-237 303.5,-237 303.5,-208 303.5,-208 303.5,-202 309.5,-196 315.5,-196 315.5,-196 435.5,-196 435.5,-196 441.5,-196 447.5,-202 447.5,-208 447.5,-208 447.5,-237 447.5,-237 447.5,-243 441.5,-249 435.5,-249"/>
<polygon fill="#add8e6" stroke="transparent" points="311.5,-229.5 311.5,-244.5 439.5,-244.5 439.5,-229.5 311.5,-229.5"/>
<text text-anchor="start" x="313.5" y="-235.5" font-family="Times,serif" font-size="10.00" fill="#000000"> &#160;&#160;&#160;&#160;&#160;&#160;&#160;&#160;&#160;</text>
<text text-anchor="start" x="336.5" y="-235.5" font-family="Times,serif" font-style="italic" font-size="10.00" fill="#000000">a0:Attestation &#160;&#160;&#160;&#160;&#160;&#160;&#160;&#160;&#160;</text>
<text text-anchor="start" x="418.5" y="-235.5" font-family="Times,serif" font-size="10.00" fill="#000000"> &#160;&#160;&#160;&#160;&#160;&#160;&#160;</text>
<text text-anchor="start" x="314.5" y="-219.5" font-family="Times,serif" font-size="10.00" fill="#000000"> &#160;&#160;&#160;&#160;&#160;&#160;&#160;beginIndex &#160;&#160;&#160;&#160;&#160;</text>
<text text-anchor="start" x="399.5" y="-219.5" font-family="Times,serif" font-size="10.00" fill="#000000"> &#160;&#160;&#160;&#160;&#160;&#160;&#160;3 &#160;&#160;&#160;&#160;&#160;</text>
<text text-anchor="start" x="319" y="-204.5" font-family="Times,serif" font-size="10.00" fill="#000000"> &#160;&#160;&#160;&#160;&#160;&#160;&#160;endIndex &#160;&#160;&#160;&#160;&#160;</text>
<text text-anchor="start" x="399.5" y="-204.5" font-family="Times,serif" font-size="10.00" fill="#000000"> &#160;&#160;&#160;&#160;&#160;&#160;&#160;6 &#160;&#160;&#160;&#160;&#160;</text>
</g>
<!-- s0&#45;&gt;a0 -->
<g id="edge7" class="edge">
<title>s0&#45;&gt;a0</title>
<path fill="none" stroke="#000088" d="M284.8885,-293.8073C299.0536,-282.66 317.2856,-268.3122 333.6772,-255.4127"/>
<polygon fill="#000088" stroke="#000088" points="341.5503,-249.2169 336.4748,-258.9375 337.6211,-252.3091 333.6919,-255.4012 333.6919,-255.4012 333.6919,-255.4012 337.6211,-252.3091 330.9089,-251.8649 341.5503,-249.2169 341.5503,-249.2169"/>
<text text-anchor="middle" x="335.5" y="-269.6" font-family="Times,serif" font-size="8.00" fill="#000000">attestation</text>
</g>
<!-- a0&#45;&gt;q0 -->
<g id="edge9" class="edge">
<title>a0&#45;&gt;q0</title>
<path fill="none" stroke="#000088" d="M348.7092,-195.9798C336.9333,-184.3229 322.9683,-170.4989 310.4723,-158.1291"/>
<polygon fill="#000088" stroke="#000088" points="303.3122,-151.0414 313.5849,-154.8784 306.8657,-154.559 310.4191,-158.0765 310.4191,-158.0765 310.4191,-158.0765 306.8657,-154.559 307.2533,-161.2746 303.3122,-151.0414 303.3122,-151.0414"/>
<text text-anchor="middle" x="336" y="-171.6" font-family="Times,serif" font-size="8.00" fill="#000000">text</text>
</g>
<!-- f0&#45;&gt;a0 -->
<g id="edge10" class="edge">
<title>f0&#45;&gt;a0</title>
<path fill="none" stroke="#000088" d="M624.8707,-293.9179C576.0484,-279.9356 509.4922,-260.8743 457.4188,-245.9609"/>
<polygon fill="#000088" stroke="#000088" points="447.5396,-243.1316 458.3921,-241.5588 452.3464,-244.5083 457.1532,-245.8849 457.1532,-245.8849 457.1532,-245.8849 452.3464,-244.5083 455.9142,-250.211 447.5396,-243.1316 447.5396,-243.1316"/>
<text text-anchor="middle" x="578.5" y="-269.6" font-family="Times,serif" font-size="8.00" fill="#000000">attestation</text>
</g>
</g>
</svg>
