<svg width="2580pt" height="660pt"
 viewBox="0.00 0.00 2579.50 660.00" xmlns="http://www.w3.org/2000/svg" xmlns:xlink="http://www.w3.org/1999/xlink">
<g id="graph0" class="graph" transform="scale(1 1) rotate(0) translate(4 656)">
<title>G</title>
<polygon fill="#ffffff" stroke="transparent" points="-4,4 -4,-656 2575.5,-656 2575.5,4 -4,4"/>
<!-- node1cj6aeecqx18 -->
<g id="node1" class="node">
<title>node1cj6aeecqx18</title>
<path fill="none" stroke="#000000" d="M151.5,-561.5C151.5,-561.5 13.5,-561.5 13.5,-561.5 7.5,-561.5 1.5,-555.5 1.5,-549.5 1.5,-549.5 1.5,-535.5 1.5,-535.5 1.5,-529.5 7.5,-523.5 13.5,-523.5 13.5,-523.5 151.5,-523.5 151.5,-523.5 157.5,-523.5 163.5,-529.5 163.5,-535.5 163.5,-535.5 163.5,-549.5 163.5,-549.5 163.5,-555.5 157.5,-561.5 151.5,-561.5"/>
<polygon fill="#add8e6" stroke="transparent" points="9.5,-542.5 9.5,-557.5 155.5,-557.5 155.5,-542.5 9.5,-542.5"/>
<text text-anchor="start" x="29.5" y="-548.5" font-family="Times,serif" font-style="italic" font-size="10.00" fill="#000000">node1cj6aeecqx18:Entity</text>
<text text-anchor="start" x="11.5" y="-532.5" font-family="Times,serif" font-size="10.00" fill="#000000"> &#160;&#160;&#160;&#160;&#160;&#160;&#160;value &#160;&#160;&#160;&#160;&#160;</text>
<text text-anchor="start" x="70.5" y="-532.5" font-family="Times,serif" font-size="10.00" fill="#000000"> Dit probleem speelt</text>
</g>
<!-- node1cj6aeecqx19 -->
<g id="node2" class="node">
<title>node1cj6aeecqx19</title>
<path fill="none" stroke="#000000" d="M141,-463.5C141,-463.5 12,-463.5 12,-463.5 6,-463.5 0,-457.5 0,-451.5 0,-451.5 0,-422.5 0,-422.5 0,-416.5 6,-410.5 12,-410.5 12,-410.5 141,-410.5 141,-410.5 147,-410.5 153,-416.5 153,-422.5 153,-422.5 153,-451.5 153,-451.5 153,-457.5 147,-463.5 141,-463.5"/>
<polygon fill="#add8e6" stroke="transparent" points="8.5,-444 8.5,-459 145.5,-459 145.5,-444 8.5,-444"/>
<text text-anchor="start" x="26" y="-450" font-family="Times,serif" font-style="italic" font-size="10.00" fill="#000000">node1cj6aeecqx19:UNK</text>
<text text-anchor="start" x="10.5" y="-434" font-family="Times,serif" font-size="10.00" fill="#000000"> &#160;&#160;&#160;&#160;&#160;&#160;&#160;title &#160;&#160;&#160;&#160;&#160;</text>
<text text-anchor="start" x="63.5" y="-434" font-family="Times,serif" font-size="10.00" fill="#000000">Algemeen Dagblad</text>
<text text-anchor="start" x="10.5" y="-419" font-family="Times,serif" font-size="10.00" fill="#000000"> &#160;&#160;&#160;&#160;&#160;&#160;&#160;date &#160;&#160;&#160;&#160;&#160;</text>
<text text-anchor="start" x="79" y="-419" font-family="Times,serif" font-size="10.00" fill="#000000">1994&#45;05&#45;09</text>
</g>
<!-- node1cj6aeecqx18&#45;&gt;node1cj6aeecqx19 -->
<g id="edge1" class="edge">
<title>node1cj6aeecqx18&#45;&gt;node1cj6aeecqx19</title>
<path fill="none" stroke="#000088" d="M81.3995,-523.1497C80.6225,-509.4864 79.5566,-490.7445 78.6174,-474.2303"/>
<polygon fill="#000088" stroke="#000088" points="78.0228,-463.7756 83.0834,-473.5039 78.3067,-468.7675 78.5907,-473.7594 78.5907,-473.7594 78.5907,-473.7594 78.3067,-468.7675 74.0979,-474.015 78.0228,-463.7756 78.0228,-463.7756"/>
<text text-anchor="middle" x="107.5" y="-491.6" font-family="Times,serif" font-size="8.00" fill="#000000">wasQuotedFrom</text>
</g>
<!-- node1cj6aeecqx31 -->
<g id="node3" class="node">
<title>node1cj6aeecqx31</title>
<path fill="none" stroke="#000000" d="M2557.5,-455C2557.5,-455 2423.5,-455 2423.5,-455 2417.5,-455 2411.5,-449 2411.5,-443 2411.5,-443 2411.5,-431 2411.5,-431 2411.5,-425 2417.5,-419 2423.5,-419 2423.5,-419 2557.5,-419 2557.5,-419 2563.5,-419 2569.5,-425 2569.5,-431 2569.5,-431 2569.5,-443 2569.5,-443 2569.5,-449 2563.5,-455 2557.5,-455"/>
<polygon fill="#add8e6" stroke="transparent" points="2419.5,-429 2419.5,-444 2561.5,-444 2561.5,-429 2419.5,-429"/>
<text text-anchor="start" x="2421.5" y="-435" font-family="Times,serif" font-style="italic" font-size="10.00" fill="#000000">node1cj6aeecqx31:lmfMWEEdge</text>
</g>
<!-- node1cj6aeecqx32 -->
<g id="node4" class="node">
<title>node1cj6aeecqx32</title>
<path fill="none" stroke="#000000" d="M2559.5,-358C2559.5,-358 2423.5,-358 2423.5,-358 2417.5,-358 2411.5,-352 2411.5,-346 2411.5,-346 2411.5,-334 2411.5,-334 2411.5,-328 2417.5,-322 2423.5,-322 2423.5,-322 2559.5,-322 2559.5,-322 2565.5,-322 2571.5,-328 2571.5,-334 2571.5,-334 2571.5,-346 2571.5,-346 2571.5,-352 2565.5,-358 2559.5,-358"/>
<polygon fill="#add8e6" stroke="transparent" points="2419.5,-332 2419.5,-347 2563.5,-347 2563.5,-332 2419.5,-332"/>
<text text-anchor="start" x="2422" y="-338" font-family="Times,serif" font-style="italic" font-size="10.00" fill="#000000">node1cj6aeecqx32:lmfMWENode</text>
</g>
<!-- node1cj6aeecqx31&#45;&gt;node1cj6aeecqx32 -->
<g id="edge2" class="edge">
<title>node1cj6aeecqx31&#45;&gt;node1cj6aeecqx32</title>
<path fill="none" stroke="#000088" d="M2490.6881,-418.755C2490.8348,-404.5291 2491.041,-384.521 2491.2089,-368.2321"/>
<polygon fill="#000088" stroke="#000088" points="2491.3128,-358.1631 2495.7093,-368.209 2491.2612,-363.1629 2491.2096,-368.1626 2491.2096,-368.1626 2491.2096,-368.1626 2491.2612,-363.1629 2486.7098,-368.1162 2491.3128,-358.1631 2491.3128,-358.1631"/>
<text text-anchor="middle" x="2520" y="-378.6" font-family="Times,serif" font-size="8.00" fill="#000000">lmfhasMWENode</text>
</g>
<!-- node1cj6aeecqx41 -->
<g id="node5" class="node">
<title>node1cj6aeecqx41</title>
<path fill="none" stroke="#000000" d="M2028.5,-455C2028.5,-455 1894.5,-455 1894.5,-455 1888.5,-455 1882.5,-449 1882.5,-443 1882.5,-443 1882.5,-431 1882.5,-431 1882.5,-425 1888.5,-419 1894.5,-419 1894.5,-419 2028.5,-419 2028.5,-419 2034.5,-419 2040.5,-425 2040.5,-431 2040.5,-431 2040.5,-443 2040.5,-443 2040.5,-449 2034.5,-455 2028.5,-455"/>
<polygon fill="#add8e6" stroke="transparent" points="1890.5,-429 1890.5,-444 2032.5,-444 2032.5,-429 1890.5,-429"/>
<text text-anchor="start" x="1892.5" y="-435" font-family="Times,serif" font-style="italic" font-size="10.00" fill="#000000">node1cj6aeecqx41:lmfMWEEdge</text>
</g>
<!-- node1cj6aeecqx42 -->
<g id="node6" class="node">
<title>node1cj6aeecqx42</title>
<path fill="none" stroke="#000000" d="M1960.5,-358C1960.5,-358 1824.5,-358 1824.5,-358 1818.5,-358 1812.5,-352 1812.5,-346 1812.5,-346 1812.5,-334 1812.5,-334 1812.5,-328 1818.5,-322 1824.5,-322 1824.5,-322 1960.5,-322 1960.5,-322 1966.5,-322 1972.5,-328 1972.5,-334 1972.5,-334 1972.5,-346 1972.5,-346 1972.5,-352 1966.5,-358 1960.5,-358"/>
<polygon fill="#add8e6" stroke="transparent" points="1820.5,-332 1820.5,-347 1964.5,-347 1964.5,-332 1820.5,-332"/>
<text text-anchor="start" x="1823" y="-338" font-family="Times,serif" font-style="italic" font-size="10.00" fill="#000000">node1cj6aeecqx42:lmfMWENode</text>
</g>
<!-- node1cj6aeecqx41&#45;&gt;node1cj6aeecqx42 -->
<g id="edge3" class="edge">
<title>node1cj6aeecqx41&#45;&gt;node1cj6aeecqx42</title>
<path fill="none" stroke="#000088" d="M1948.5216,-418.755C1938.0167,-403.9872 1923.0792,-382.9882 1911.2703,-366.3872"/>
<polygon fill="#000088" stroke="#000088" points="1905.4202,-358.1631 1914.8836,-363.7034 1908.3184,-362.2375 1911.2167,-366.3118 1911.2167,-366.3118 1911.2167,-366.3118 1908.3184,-362.2375 1907.5498,-368.9203 1905.4202,-358.1631 1905.4202,-358.1631"/>
<text text-anchor="middle" x="1953" y="-378.6" font-family="Times,serif" font-size="8.00" fill="#000000">lmfhasMWENode</text>
</g>
<!-- node1cj6aeecqx43 -->
<g id="node7" class="node">
<title>node1cj6aeecqx43</title>
<path fill="none" stroke="#000000" d="M1782.5,-253.5C1782.5,-253.5 1648.5,-253.5 1648.5,-253.5 1642.5,-253.5 1636.5,-247.5 1636.5,-241.5 1636.5,-241.5 1636.5,-229.5 1636.5,-229.5 1636.5,-223.5 1642.5,-217.5 1648.5,-217.5 1648.5,-217.5 1782.5,-217.5 1782.5,-217.5 1788.5,-217.5 1794.5,-223.5 1794.5,-229.5 1794.5,-229.5 1794.5,-241.5 1794.5,-241.5 1794.5,-247.5 1788.5,-253.5 1782.5,-253.5"/>
<polygon fill="#add8e6" stroke="transparent" points="1644.5,-227.5 1644.5,-242.5 1786.5,-242.5 1786.5,-227.5 1644.5,-227.5"/>
<text text-anchor="start" x="1646.5" y="-233.5" font-family="Times,serif" font-style="italic" font-size="10.00" fill="#000000">node1cj6aeecqx43:lmfMWEEdge</text>
</g>
<!-- node1cj6aeecqx42&#45;&gt;node1cj6aeecqx43 -->
<g id="edge4" class="edge">
<title>node1cj6aeecqx42&#45;&gt;node1cj6aeecqx43</title>
<path fill="none" stroke="#000088" d="M1861.2374,-321.9383C1851.3885,-316.2238 1840.4779,-309.8682 1830.5,-304 1805.1479,-289.0898 1776.7553,-272.1799 1754.5251,-258.8917"/>
<polygon fill="#000088" stroke="#000088" points="1745.7115,-253.6203 1756.6035,-254.8914 1750.0026,-256.1868 1754.2936,-258.7534 1754.2936,-258.7534 1754.2936,-258.7534 1750.0026,-256.1868 1751.9837,-262.6153 1745.7115,-253.6203 1745.7115,-253.6203"/>
<text text-anchor="middle" x="1859.5" y="-297.6" font-family="Times,serif" font-size="8.00" fill="#000000">lmfhasMWEEdge</text>
</g>
<!-- node1cj6aeecqx46 -->
<g id="node10" class="node">
<title>node1cj6aeecqx46</title>
<path fill="none" stroke="#000000" d="M1959.5,-253.5C1959.5,-253.5 1825.5,-253.5 1825.5,-253.5 1819.5,-253.5 1813.5,-247.5 1813.5,-241.5 1813.5,-241.5 1813.5,-229.5 1813.5,-229.5 1813.5,-223.5 1819.5,-217.5 1825.5,-217.5 1825.5,-217.5 1959.5,-217.5 1959.5,-217.5 1965.5,-217.5 1971.5,-223.5 1971.5,-229.5 1971.5,-229.5 1971.5,-241.5 1971.5,-241.5 1971.5,-247.5 1965.5,-253.5 1959.5,-253.5"/>
<polygon fill="#add8e6" stroke="transparent" points="1821.5,-227.5 1821.5,-242.5 1963.5,-242.5 1963.5,-227.5 1821.5,-227.5"/>
<text text-anchor="start" x="1823.5" y="-233.5" font-family="Times,serif" font-style="italic" font-size="10.00" fill="#000000">node1cj6aeecqx46:lmfMWEEdge</text>
</g>
<!-- node1cj6aeecqx42&#45;&gt;node1cj6aeecqx46 -->
<g id="edge5" class="edge">
<title>node1cj6aeecqx42&#45;&gt;node1cj6aeecqx46</title>
<path fill="none" stroke="#000088" d="M1892.5,-321.7975C1892.5,-305.8617 1892.5,-282.442 1892.5,-264.0195"/>
<polygon fill="#000088" stroke="#000088" points="1892.5,-253.8445 1897.0001,-263.8445 1892.5,-258.8445 1892.5001,-263.8445 1892.5001,-263.8445 1892.5001,-263.8445 1892.5,-258.8445 1888.0001,-263.8446 1892.5,-253.8445 1892.5,-253.8445"/>
<text text-anchor="middle" x="1921.5" y="-297.6" font-family="Times,serif" font-size="8.00" fill="#000000">lmfhasMWEEdge</text>
</g>
<!-- node1cj6aeecqx44 -->
<g id="node8" class="node">
<title>node1cj6aeecqx44</title>
<path fill="none" stroke="#000000" d="M1782.5,-149C1782.5,-149 1646.5,-149 1646.5,-149 1640.5,-149 1634.5,-143 1634.5,-137 1634.5,-137 1634.5,-125 1634.5,-125 1634.5,-119 1640.5,-113 1646.5,-113 1646.5,-113 1782.5,-113 1782.5,-113 1788.5,-113 1794.5,-119 1794.5,-125 1794.5,-125 1794.5,-137 1794.5,-137 1794.5,-143 1788.5,-149 1782.5,-149"/>
<polygon fill="#add8e6" stroke="transparent" points="1642.5,-123 1642.5,-138 1786.5,-138 1786.5,-123 1642.5,-123"/>
<text text-anchor="start" x="1645" y="-129" font-family="Times,serif" font-style="italic" font-size="10.00" fill="#000000">node1cj6aeecqx44:lmfMWENode</text>
</g>
<!-- node1cj6aeecqx43&#45;&gt;node1cj6aeecqx44 -->
<g id="edge6" class="edge">
<title>node1cj6aeecqx43&#45;&gt;node1cj6aeecqx44</title>
<path fill="none" stroke="#000088" d="M1715.3258,-217.2975C1715.1733,-201.3617 1714.9492,-177.942 1714.7729,-159.5195"/>
<polygon fill="#000088" stroke="#000088" points="1714.6755,-149.3445 1719.2711,-159.301 1714.7234,-154.3443 1714.7713,-159.3441 1714.7713,-159.3441 1714.7713,-159.3441 1714.7234,-154.3443 1710.2715,-159.3872 1714.6755,-149.3445 1714.6755,-149.3445"/>
<text text-anchor="middle" x="1745" y="-169.6" font-family="Times,serif" font-size="8.00" fill="#000000">lmfhasMWENode</text>
</g>
<!-- node1cj6aeecqx45 -->
<g id="node9" class="node">
<title>node1cj6aeecqx45</title>
<path fill="none" stroke="#000000" d="M1780.5,-68C1780.5,-68 1648.5,-68 1648.5,-68 1642.5,-68 1636.5,-62 1636.5,-56 1636.5,-56 1636.5,-12 1636.5,-12 1636.5,-6 1642.5,0 1648.5,0 1648.5,0 1780.5,0 1780.5,0 1786.5,0 1792.5,-6 1792.5,-12 1792.5,-12 1792.5,-56 1792.5,-56 1792.5,-62 1786.5,-68 1780.5,-68"/>
<polygon fill="#add8e6" stroke="transparent" points="1644.5,-49 1644.5,-64 1784.5,-64 1784.5,-49 1644.5,-49"/>
<text text-anchor="start" x="1663.5" y="-55" font-family="Times,serif" font-style="italic" font-size="10.00" fill="#000000">node1cj6aeecqx45:UNK</text>
<text text-anchor="start" x="1651" y="-39" font-family="Times,serif" font-size="10.00" fill="#000000"> &#160;&#160;&#160;&#160;&#160;&#160;&#160;componentRank &#160;&#160;&#160;&#160;&#160;</text>
<text text-anchor="start" x="1768" y="-39" font-family="Times,serif" font-size="10.00" fill="#000000">3</text>
<text text-anchor="start" x="1646.5" y="-24" font-family="Times,serif" font-size="10.00" fill="#000000"> &#160;&#160;&#160;&#160;&#160;&#160;&#160;graphicalSeparator &#160;&#160;&#160;&#160;&#160;</text>
<text text-anchor="start" x="1759.5" y="-24" font-family="Times,serif" font-size="10.00" fill="#000000">space</text>
<text text-anchor="start" x="1656.5" y="-9" font-family="Times,serif" font-size="10.00" fill="#000000"> &#160;&#160;&#160;&#160;&#160;&#160;&#160;lmfhasLemma &#160;&#160;&#160;&#160;&#160;</text>
<text text-anchor="start" x="1766" y="-9" font-family="Times,serif" font-size="10.00" fill="#000000">de</text>
</g>
<!-- node1cj6aeecqx44&#45;&gt;node1cj6aeecqx45 -->
<g id="edge7" class="edge">
<title>node1cj6aeecqx44&#45;&gt;node1cj6aeecqx45</title>
<path fill="none" stroke="#000088" d="M1714.5,-112.755C1714.5,-102.9796 1714.5,-90.4738 1714.5,-78.3206"/>
<polygon fill="#000088" stroke="#000088" points="1714.5,-68.2625 1719.0001,-78.2625 1714.5,-73.2625 1714.5001,-78.2625 1714.5001,-78.2625 1714.5001,-78.2625 1714.5,-73.2625 1710.0001,-78.2626 1714.5,-68.2625 1714.5,-68.2625"/>
<text text-anchor="middle" x="1736.5" y="-88.6" font-family="Times,serif" font-size="8.00" fill="#000000">lmfMWELex</text>
</g>
<!-- node1cj6aeecqx47 -->
<g id="node11" class="node">
<title>node1cj6aeecqx47</title>
<path fill="none" stroke="#000000" d="M1960.5,-149C1960.5,-149 1824.5,-149 1824.5,-149 1818.5,-149 1812.5,-143 1812.5,-137 1812.5,-137 1812.5,-125 1812.5,-125 1812.5,-119 1818.5,-113 1824.5,-113 1824.5,-113 1960.5,-113 1960.5,-113 1966.5,-113 1972.5,-119 1972.5,-125 1972.5,-125 1972.5,-137 1972.5,-137 1972.5,-143 1966.5,-149 1960.5,-149"/>
<polygon fill="#add8e6" stroke="transparent" points="1820.5,-123 1820.5,-138 1964.5,-138 1964.5,-123 1820.5,-123"/>
<text text-anchor="start" x="1823" y="-129" font-family="Times,serif" font-style="italic" font-size="10.00" fill="#000000">node1cj6aeecqx47:lmfMWENode</text>
</g>
<!-- node1cj6aeecqx46&#45;&gt;node1cj6aeecqx47 -->
<g id="edge8" class="edge">
<title>node1cj6aeecqx46&#45;&gt;node1cj6aeecqx47</title>
<path fill="none" stroke="#000088" d="M1892.5,-217.2975C1892.5,-201.3617 1892.5,-177.942 1892.5,-159.5195"/>
<polygon fill="#000088" stroke="#000088" points="1892.5,-149.3445 1897.0001,-159.3445 1892.5,-154.3445 1892.5001,-159.3445 1892.5001,-159.3445 1892.5001,-159.3445 1892.5,-154.3445 1888.0001,-159.3446 1892.5,-149.3445 1892.5,-149.3445"/>
<text text-anchor="middle" x="1922" y="-169.6" font-family="Times,serif" font-size="8.00" fill="#000000">lmfhasMWENode</text>
</g>
<!-- node1cj6aeecqx48 -->
<g id="node12" class="node">
<title>node1cj6aeecqx48</title>
<path fill="none" stroke="#000000" d="M1958.5,-68C1958.5,-68 1826.5,-68 1826.5,-68 1820.5,-68 1814.5,-62 1814.5,-56 1814.5,-56 1814.5,-12 1814.5,-12 1814.5,-6 1820.5,0 1826.5,0 1826.5,0 1958.5,0 1958.5,0 1964.5,0 1970.5,-6 1970.5,-12 1970.5,-12 1970.5,-56 1970.5,-56 1970.5,-62 1964.5,-68 1958.5,-68"/>
<polygon fill="#add8e6" stroke="transparent" points="1822.5,-49 1822.5,-64 1962.5,-64 1962.5,-49 1822.5,-49"/>
<text text-anchor="start" x="1841.5" y="-55" font-family="Times,serif" font-style="italic" font-size="10.00" fill="#000000">node1cj6aeecqx48:UNK</text>
<text text-anchor="start" x="1829" y="-39" font-family="Times,serif" font-size="10.00" fill="#000000"> &#160;&#160;&#160;&#160;&#160;&#160;&#160;componentRank &#160;&#160;&#160;&#160;&#160;</text>
<text text-anchor="start" x="1946" y="-39" font-family="Times,serif" font-size="10.00" fill="#000000">4</text>
<text text-anchor="start" x="1824.5" y="-24" font-family="Times,serif" font-size="10.00" fill="#000000"> &#160;&#160;&#160;&#160;&#160;&#160;&#160;graphicalSeparator &#160;&#160;&#160;&#160;&#160;</text>
<text text-anchor="start" x="1937.5" y="-24" font-family="Times,serif" font-size="10.00" fill="#000000">space</text>
<text text-anchor="start" x="1834.5" y="-9" font-family="Times,serif" font-size="10.00" fill="#000000"> &#160;&#160;&#160;&#160;&#160;&#160;&#160;lmfhasLemma &#160;&#160;&#160;&#160;&#160;</text>
<text text-anchor="start" x="1942.5" y="-9" font-family="Times,serif" font-size="10.00" fill="#000000">bel</text>
</g>
<!-- node1cj6aeecqx47&#45;&gt;node1cj6aeecqx48 -->
<g id="edge9" class="edge">
<title>node1cj6aeecqx47&#45;&gt;node1cj6aeecqx48</title>
<path fill="none" stroke="#000088" d="M1892.5,-112.755C1892.5,-102.9796 1892.5,-90.4738 1892.5,-78.3206"/>
<polygon fill="#000088" stroke="#000088" points="1892.5,-68.2625 1897.0001,-78.2625 1892.5,-73.2625 1892.5001,-78.2625 1892.5001,-78.2625 1892.5001,-78.2625 1892.5,-73.2625 1888.0001,-78.2626 1892.5,-68.2625 1892.5,-68.2625"/>
<text text-anchor="middle" x="1914.5" y="-88.6" font-family="Times,serif" font-size="8.00" fill="#000000">lmfMWELex</text>
</g>
<!-- duelmedekatdebelaanbinden -->
<g id="node13" class="node">
<title>duelmedekatdebelaanbinden</title>
<path fill="none" stroke="#000000" d="M1055.5,-652C1055.5,-652 827.5,-652 827.5,-652 821.5,-652 815.5,-646 815.5,-640 815.5,-640 815.5,-626 815.5,-626 815.5,-620 821.5,-614 827.5,-614 827.5,-614 1055.5,-614 1055.5,-614 1061.5,-614 1067.5,-620 1067.5,-626 1067.5,-626 1067.5,-640 1067.5,-640 1067.5,-646 1061.5,-652 1055.5,-652"/>
<polygon fill="#add8e6" stroke="transparent" points="823.5,-633 823.5,-648 1059.5,-648 1059.5,-633 823.5,-633"/>
<text text-anchor="start" x="825.5" y="-639" font-family="Times,serif" font-style="italic" font-size="10.00" fill="#000000">duelme_de_kat_de_bel_aanbinden:ontolexLexicalEntry</text>
<text text-anchor="start" x="837" y="-623" font-family="Times,serif" font-size="10.00" fill="#000000"> &#160;&#160;&#160;&#160;&#160;&#160;&#160;ExampleSentence &#160;&#160;&#160;&#160;&#160;</text>
<text text-anchor="start" x="969.5" y="-623" font-family="Times,serif" font-size="10.00" fill="#000000">hij heeft de kat de </text>
</g>
<!-- duelmedekatdebelaanbinden&#45;&gt;node1cj6aeecqx18 -->
<g id="edge15" class="edge">
<title>duelmedekatdebelaanbinden&#45;&gt;node1cj6aeecqx18</title>
<path fill="none" stroke="#000088" d="M815.3803,-627.9386C697.7224,-622.51 517.4135,-612.3845 361.5,-596 279.2991,-587.3617 258.3572,-586.1383 177.5,-569 170.5328,-567.5233 163.3218,-565.8268 156.1301,-564.0211"/>
<polygon fill="#000088" stroke="#000088" points="146.3598,-561.5013 157.1668,-559.6413 151.2014,-562.75 156.043,-563.9987 156.043,-563.9987 156.043,-563.9987 151.2014,-562.75 154.9192,-568.3561 146.3598,-561.5013 146.3598,-561.5013"/>
<text text-anchor="middle" x="384.5" y="-589.6" font-family="Times,serif" font-size="8.00" fill="#000000">hasAttestation</text>
</g>
<!-- mwepatternec117 -->
<g id="node14" class="node">
<title>mwepatternec117</title>
<path fill="none" stroke="#000000" d="M300.5,-560.5C300.5,-560.5 198.5,-560.5 198.5,-560.5 192.5,-560.5 186.5,-554.5 186.5,-548.5 186.5,-548.5 186.5,-536.5 186.5,-536.5 186.5,-530.5 192.5,-524.5 198.5,-524.5 198.5,-524.5 300.5,-524.5 300.5,-524.5 306.5,-524.5 312.5,-530.5 312.5,-536.5 312.5,-536.5 312.5,-548.5 312.5,-548.5 312.5,-554.5 306.5,-560.5 300.5,-560.5"/>
<polygon fill="#add8e6" stroke="transparent" points="194.5,-534.5 194.5,-549.5 304.5,-549.5 304.5,-534.5 194.5,-534.5"/>
<text text-anchor="start" x="197" y="-540.5" font-family="Times,serif" font-style="italic" font-size="10.00" fill="#000000">mwepattern_ec117:Class</text>
</g>
<!-- duelmedekatdebelaanbinden&#45;&gt;mwepatternec117 -->
<g id="edge10" class="edge">
<title>duelmedekatdebelaanbinden&#45;&gt;mwepatternec117</title>
<path fill="none" stroke="#000088" d="M815.1624,-625.1711C724.8256,-618.9493 600.4579,-609.113 491.5,-596 415.5455,-586.859 395.527,-588.304 321.5,-569 315.8028,-567.5143 309.9264,-565.7516 304.1025,-563.8519"/>
<polygon fill="#000088" stroke="#000088" points="294.3919,-560.5501 305.3083,-559.5089 299.1258,-562.1597 303.8596,-563.7694 303.8596,-563.7694 303.8596,-563.7694 299.1258,-562.1597 302.4109,-568.0298 294.3919,-560.5501 294.3919,-560.5501"/>
<text text-anchor="middle" x="524" y="-589.6" font-family="Times,serif" font-size="8.00" fill="#000000">lmfhasMWEPattern</text>
</g>
<!-- celexlemma38935 -->
<g id="node15" class="node">
<title>celexlemma38935</title>
<path fill="none" stroke="#000000" d="M450.5,-560.5C450.5,-560.5 342.5,-560.5 342.5,-560.5 336.5,-560.5 330.5,-554.5 330.5,-548.5 330.5,-548.5 330.5,-536.5 330.5,-536.5 330.5,-530.5 336.5,-524.5 342.5,-524.5 342.5,-524.5 450.5,-524.5 450.5,-524.5 456.5,-524.5 462.5,-530.5 462.5,-536.5 462.5,-536.5 462.5,-548.5 462.5,-548.5 462.5,-554.5 456.5,-560.5 450.5,-560.5"/>
<polygon fill="#add8e6" stroke="transparent" points="338.5,-534.5 338.5,-549.5 454.5,-549.5 454.5,-534.5 338.5,-534.5"/>
<text text-anchor="start" x="340.5" y="-540.5" font-family="Times,serif" font-style="italic" font-size="10.00" fill="#000000">celex_lemma_38935:Class</text>
</g>
<!-- duelmedekatdebelaanbinden&#45;&gt;celexlemma38935 -->
<g id="edge11" class="edge">
<title>duelmedekatdebelaanbinden&#45;&gt;celexlemma38935</title>
<path fill="none" stroke="#000088" d="M815.3444,-623.5978C719.8619,-614.6166 586.0536,-598.0212 471.5,-569 465.4383,-567.4643 459.1745,-565.6428 452.9697,-563.6846"/>
<polygon fill="#000088" stroke="#000088" points="443.3055,-560.5164 454.2098,-559.3556 448.0567,-562.074 452.8079,-563.6316 452.8079,-563.6316 452.8079,-563.6316 448.0567,-562.074 451.4061,-567.9077 443.3055,-560.5164 443.3055,-560.5164"/>
<text text-anchor="middle" x="618" y="-589.6" font-family="Times,serif" font-size="8.00" fill="#000000">conjugation</text>
</g>
<!-- node1cj6aeecqx10 -->
<g id="node16" class="node">
<title>node1cj6aeecqx10</title>
<path fill="none" stroke="#000000" d="M590.5,-560.5C590.5,-560.5 492.5,-560.5 492.5,-560.5 486.5,-560.5 480.5,-554.5 480.5,-548.5 480.5,-548.5 480.5,-536.5 480.5,-536.5 480.5,-530.5 486.5,-524.5 492.5,-524.5 492.5,-524.5 590.5,-524.5 590.5,-524.5 596.5,-524.5 602.5,-530.5 602.5,-536.5 602.5,-536.5 602.5,-548.5 602.5,-548.5 602.5,-554.5 596.5,-560.5 590.5,-560.5"/>
<polygon fill="#add8e6" stroke="transparent" points="488.5,-534.5 488.5,-549.5 594.5,-549.5 594.5,-534.5 488.5,-534.5"/>
<text text-anchor="start" x="490.5" y="-540.5" font-family="Times,serif" font-style="italic" font-size="10.00" fill="#000000">node1cj6aeecqx10:UNK</text>
</g>
<!-- duelmedekatdebelaanbinden&#45;&gt;node1cj6aeecqx10 -->
<g id="edge12" class="edge">
<title>duelmedekatdebelaanbinden&#45;&gt;node1cj6aeecqx10</title>
<path fill="none" stroke="#000088" d="M815.2234,-614.153C753.1994,-603.4725 677.7432,-588.3437 611.5,-569 606.2767,-567.4747 600.8892,-565.7394 595.5311,-563.9036"/>
<polygon fill="#000088" stroke="#000088" points="585.9598,-560.5141 596.8884,-559.6105 590.673,-562.1832 595.3862,-563.8523 595.3862,-563.8523 595.3862,-563.8523 590.673,-562.1832 593.884,-568.0942 585.9598,-560.5141 585.9598,-560.5141"/>
<text text-anchor="middle" x="756" y="-589.6" font-family="Times,serif" font-size="8.00" fill="#000000">lmfListOfComponents</text>
</g>
<!-- node1cj6aeecqx16 -->
<g id="node26" class="node">
<title>node1cj6aeecqx16</title>
<path fill="none" stroke="#000000" d="M754,-569C754,-569 633,-569 633,-569 627,-569 621,-563 621,-557 621,-557 621,-528 621,-528 621,-522 627,-516 633,-516 633,-516 754,-516 754,-516 760,-516 766,-522 766,-528 766,-528 766,-557 766,-557 766,-563 760,-569 754,-569"/>
<polygon fill="#add8e6" stroke="transparent" points="629.5,-549.5 629.5,-564.5 758.5,-564.5 758.5,-549.5 629.5,-549.5"/>
<text text-anchor="start" x="643" y="-555.5" font-family="Times,serif" font-style="italic" font-size="10.00" fill="#000000">node1cj6aeecqx16:UNK</text>
<text text-anchor="start" x="642" y="-539.5" font-family="Times,serif" font-size="10.00" fill="#000000"> &#160;&#160;&#160;&#160;&#160;&#160;&#160;label &#160;&#160;&#160;&#160;&#160;</text>
<text text-anchor="start" x="727.5" y="-539.5" font-family="Times,serif" font-size="10.00" fill="#000000">W</text>
<text text-anchor="start" x="631.5" y="-524.5" font-family="Times,serif" font-size="10.00" fill="#000000"> &#160;&#160;&#160;&#160;&#160;&#160;&#160;restriction &#160;&#160;&#160;&#160;&#160;</text>
<text text-anchor="start" x="708.5" y="-524.5" font-family="Times,serif" font-size="10.00" fill="#000000">unspecified</text>
</g>
<!-- duelmedekatdebelaanbinden&#45;&gt;node1cj6aeecqx16 -->
<g id="edge13" class="edge">
<title>duelmedekatdebelaanbinden&#45;&gt;node1cj6aeecqx16</title>
<path fill="none" stroke="#000088" d="M889.2086,-613.9179C856.465,-601.9691 813.5574,-586.3113 776.2651,-572.7026"/>
<polygon fill="#000088" stroke="#000088" points="766.4133,-569.1075 777.35,-568.3083 771.1104,-570.8216 775.8074,-572.5356 775.8074,-572.5356 775.8074,-572.5356 771.1104,-570.8216 774.2647,-576.7629 766.4133,-569.1075 766.4133,-569.1075"/>
<text text-anchor="middle" x="869.5" y="-589.6" font-family="Times,serif" font-size="8.00" fill="#000000">semanticVariable</text>
</g>
<!-- node1cj6aeecqx17 -->
<g id="node27" class="node">
<title>node1cj6aeecqx17</title>
<path fill="none" stroke="#000000" d="M950.5,-569C950.5,-569 796.5,-569 796.5,-569 790.5,-569 784.5,-563 784.5,-557 784.5,-557 784.5,-528 784.5,-528 784.5,-522 790.5,-516 796.5,-516 796.5,-516 950.5,-516 950.5,-516 956.5,-516 962.5,-522 962.5,-528 962.5,-528 962.5,-557 962.5,-557 962.5,-563 956.5,-569 950.5,-569"/>
<polygon fill="#add8e6" stroke="transparent" points="792.5,-549.5 792.5,-564.5 954.5,-564.5 954.5,-549.5 792.5,-549.5"/>
<text text-anchor="start" x="822.5" y="-555.5" font-family="Times,serif" font-style="italic" font-size="10.00" fill="#000000">node1cj6aeecqx17:UNK</text>
<text text-anchor="start" x="794.5" y="-539.5" font-family="Times,serif" font-size="10.00" fill="#000000"> &#160;&#160;&#160;&#160;&#160;&#160;&#160;syntacticFunction &#160;&#160;&#160;&#160;&#160;</text>
<text text-anchor="start" x="923.5" y="-539.5" font-family="Times,serif" font-size="10.00" fill="#000000">su</text>
<text text-anchor="start" x="811" y="-524.5" font-family="Times,serif" font-size="10.00" fill="#000000"> &#160;&#160;&#160;&#160;&#160;&#160;&#160;restriction &#160;&#160;&#160;&#160;&#160;</text>
<text text-anchor="start" x="904.5" y="-524.5" font-family="Times,serif" font-size="10.00" fill="#000000">unspecified</text>
</g>
<!-- duelmedekatdebelaanbinden&#45;&gt;node1cj6aeecqx17 -->
<g id="edge14" class="edge">
<title>duelmedekatdebelaanbinden&#45;&gt;node1cj6aeecqx17</title>
<path fill="none" stroke="#000088" d="M927.0789,-613.8073C919.1599,-603.268 909.0913,-589.8679 899.8252,-577.5357"/>
<polygon fill="#000088" stroke="#000088" points="893.5746,-569.2169 903.1793,-574.5084 896.5781,-573.2143 899.5817,-577.2116 899.5817,-577.2116 899.5817,-577.2116 896.5781,-573.2143 895.9841,-579.9148 893.5746,-569.2169 893.5746,-569.2169"/>
<text text-anchor="middle" x="944" y="-589.6" font-family="Times,serif" font-size="8.00" fill="#000000">SyntacticVariable</text>
</g>
<!-- node1cj6aeecqx20 -->
<g id="node28" class="node">
<title>node1cj6aeecqx20</title>
<path fill="none" stroke="#000000" d="M1134.5,-561.5C1134.5,-561.5 992.5,-561.5 992.5,-561.5 986.5,-561.5 980.5,-555.5 980.5,-549.5 980.5,-549.5 980.5,-535.5 980.5,-535.5 980.5,-529.5 986.5,-523.5 992.5,-523.5 992.5,-523.5 1134.5,-523.5 1134.5,-523.5 1140.5,-523.5 1146.5,-529.5 1146.5,-535.5 1146.5,-535.5 1146.5,-549.5 1146.5,-549.5 1146.5,-555.5 1140.5,-561.5 1134.5,-561.5"/>
<polygon fill="#add8e6" stroke="transparent" points="988.5,-542.5 988.5,-557.5 1138.5,-557.5 1138.5,-542.5 988.5,-542.5"/>
<text text-anchor="start" x="1010.5" y="-548.5" font-family="Times,serif" font-style="italic" font-size="10.00" fill="#000000">node1cj6aeecqx20:Entity</text>
<text text-anchor="start" x="990.5" y="-532.5" font-family="Times,serif" font-size="10.00" fill="#000000"> &#160;&#160;&#160;&#160;&#160;&#160;&#160;value &#160;&#160;&#160;&#160;&#160;</text>
<text text-anchor="start" x="1049.5" y="-532.5" font-family="Times,serif" font-size="10.00" fill="#000000">Volgens bronnen bij </text>
</g>
<!-- duelmedekatdebelaanbinden&#45;&gt;node1cj6aeecqx20 -->
<g id="edge16" class="edge">
<title>duelmedekatdebelaanbinden&#45;&gt;node1cj6aeecqx20</title>
<path fill="none" stroke="#000088" d="M967.3731,-613.8073C985.4889,-600.3689 1009.8749,-582.2793 1029.5517,-567.683"/>
<polygon fill="#000088" stroke="#000088" points="1037.6642,-561.6651 1032.3137,-571.2371 1033.6485,-564.644 1029.6327,-567.6229 1029.6327,-567.6229 1029.6327,-567.6229 1033.6485,-564.644 1026.9517,-564.0087 1037.6642,-561.6651 1037.6642,-561.6651"/>
<text text-anchor="middle" x="1025.5" y="-589.6" font-family="Times,serif" font-size="8.00" fill="#000000">hasAttestation</text>
</g>
<!-- node1cj6aeecqx22 -->
<g id="node30" class="node">
<title>node1cj6aeecqx22</title>
<path fill="none" stroke="#000000" d="M1320.5,-561.5C1320.5,-561.5 1176.5,-561.5 1176.5,-561.5 1170.5,-561.5 1164.5,-555.5 1164.5,-549.5 1164.5,-549.5 1164.5,-535.5 1164.5,-535.5 1164.5,-529.5 1170.5,-523.5 1176.5,-523.5 1176.5,-523.5 1320.5,-523.5 1320.5,-523.5 1326.5,-523.5 1332.5,-529.5 1332.5,-535.5 1332.5,-535.5 1332.5,-549.5 1332.5,-549.5 1332.5,-555.5 1326.5,-561.5 1320.5,-561.5"/>
<polygon fill="#add8e6" stroke="transparent" points="1172.5,-542.5 1172.5,-557.5 1324.5,-557.5 1324.5,-542.5 1172.5,-542.5"/>
<text text-anchor="start" x="1195.5" y="-548.5" font-family="Times,serif" font-style="italic" font-size="10.00" fill="#000000">node1cj6aeecqx22:Entity</text>
<text text-anchor="start" x="1174.5" y="-532.5" font-family="Times,serif" font-size="10.00" fill="#000000"> &#160;&#160;&#160;&#160;&#160;&#160;&#160;value &#160;&#160;&#160;&#160;&#160;</text>
<text text-anchor="start" x="1233.5" y="-532.5" font-family="Times,serif" font-size="10.00" fill="#000000">Eén van de zes voorm</text>
</g>
<!-- duelmedekatdebelaanbinden&#45;&gt;node1cj6aeecqx22 -->
<g id="edge17" class="edge">
<title>duelmedekatdebelaanbinden&#45;&gt;node1cj6aeecqx22</title>
<path fill="none" stroke="#000088" d="M1006.2317,-613.9179C1055.316,-599.4484 1122.8509,-579.5399 1174.15,-564.4175"/>
<polygon fill="#000088" stroke="#000088" points="1183.8569,-561.556 1175.5374,-568.7001 1179.0609,-562.9699 1174.265,-564.3837 1174.265,-564.3837 1174.265,-564.3837 1179.0609,-562.9699 1172.9925,-560.0673 1183.8569,-561.556 1183.8569,-561.556"/>
<text text-anchor="middle" x="1118.5" y="-589.6" font-family="Times,serif" font-size="8.00" fill="#000000">hasAttestation</text>
</g>
<!-- node1cj6aeecqx24 -->
<g id="node32" class="node">
<title>node1cj6aeecqx24</title>
<path fill="none" stroke="#000000" d="M1510,-561.5C1510,-561.5 1363,-561.5 1363,-561.5 1357,-561.5 1351,-555.5 1351,-549.5 1351,-549.5 1351,-535.5 1351,-535.5 1351,-529.5 1357,-523.5 1363,-523.5 1363,-523.5 1510,-523.5 1510,-523.5 1516,-523.5 1522,-529.5 1522,-535.5 1522,-535.5 1522,-549.5 1522,-549.5 1522,-555.5 1516,-561.5 1510,-561.5"/>
<polygon fill="#add8e6" stroke="transparent" points="1359.5,-542.5 1359.5,-557.5 1514.5,-557.5 1514.5,-542.5 1359.5,-542.5"/>
<text text-anchor="start" x="1384" y="-548.5" font-family="Times,serif" font-style="italic" font-size="10.00" fill="#000000">node1cj6aeecqx24:Entity</text>
<text text-anchor="start" x="1361.5" y="-532.5" font-family="Times,serif" font-size="10.00" fill="#000000"> &#160;&#160;&#160;&#160;&#160;&#160;&#160;value &#160;&#160;&#160;&#160;&#160;</text>
<text text-anchor="start" x="1420.5" y="-532.5" font-family="Times,serif" font-size="10.00" fill="#000000">Het was toenmalig D6</text>
</g>
<!-- duelmedekatdebelaanbinden&#45;&gt;node1cj6aeecqx24 -->
<g id="edge18" class="edge">
<title>duelmedekatdebelaanbinden&#45;&gt;node1cj6aeecqx24</title>
<path fill="none" stroke="#000088" d="M1067.8477,-616.5255C1146.9058,-605.2946 1250.6398,-588.8743 1341.5,-569 1348.187,-567.5373 1355.1021,-565.8852 1362.0111,-564.1386"/>
<polygon fill="#000088" stroke="#000088" points="1372.1018,-561.5229 1363.5509,-568.3883 1367.2618,-562.7776 1362.4218,-564.0322 1362.4218,-564.0322 1362.4218,-564.0322 1367.2618,-562.7776 1361.2926,-559.6762 1372.1018,-561.5229 1372.1018,-561.5229"/>
<text text-anchor="middle" x="1266.5" y="-589.6" font-family="Times,serif" font-size="8.00" fill="#000000">hasAttestation</text>
</g>
<!-- node1cj6aeecqx26 -->
<g id="node34" class="node">
<title>node1cj6aeecqx26</title>
<path fill="none" stroke="#000000" d="M1689,-561.5C1689,-561.5 1552,-561.5 1552,-561.5 1546,-561.5 1540,-555.5 1540,-549.5 1540,-549.5 1540,-535.5 1540,-535.5 1540,-529.5 1546,-523.5 1552,-523.5 1552,-523.5 1689,-523.5 1689,-523.5 1695,-523.5 1701,-529.5 1701,-535.5 1701,-535.5 1701,-549.5 1701,-549.5 1701,-555.5 1695,-561.5 1689,-561.5"/>
<polygon fill="#add8e6" stroke="transparent" points="1548.5,-542.5 1548.5,-557.5 1693.5,-557.5 1693.5,-542.5 1548.5,-542.5"/>
<text text-anchor="start" x="1568" y="-548.5" font-family="Times,serif" font-style="italic" font-size="10.00" fill="#000000">node1cj6aeecqx26:Entity</text>
<text text-anchor="start" x="1550.5" y="-532.5" font-family="Times,serif" font-size="10.00" fill="#000000"> &#160;&#160;&#160;&#160;&#160;&#160;&#160;value &#160;&#160;&#160;&#160;&#160;</text>
<text text-anchor="start" x="1609.5" y="-532.5" font-family="Times,serif" font-size="10.00" fill="#000000">Vandaar dat de initi</text>
</g>
<!-- duelmedekatdebelaanbinden&#45;&gt;node1cj6aeecqx26 -->
<g id="edge19" class="edge">
<title>duelmedekatdebelaanbinden&#45;&gt;node1cj6aeecqx26</title>
<path fill="none" stroke="#000088" d="M1067.7666,-625.9968C1187.7372,-617.7651 1372.7313,-600.9638 1530.5,-569 1537.2572,-567.631 1544.2404,-565.9902 1551.1901,-564.205"/>
<polygon fill="#000088" stroke="#000088" points="1561.3179,-561.5009 1552.8172,-568.4283 1556.4872,-562.7907 1551.6564,-564.0806 1551.6564,-564.0806 1551.6564,-564.0806 1556.4872,-562.7907 1550.4955,-559.7328 1561.3179,-561.5009 1561.3179,-561.5009"/>
<text text-anchor="middle" x="1442.5" y="-589.6" font-family="Times,serif" font-size="8.00" fill="#000000">hasAttestation</text>
</g>
<!-- node1cj6aeecqx28 -->
<g id="node36" class="node">
<title>node1cj6aeecqx28</title>
<path fill="none" stroke="#000000" d="M1868,-561.5C1868,-561.5 1731,-561.5 1731,-561.5 1725,-561.5 1719,-555.5 1719,-549.5 1719,-549.5 1719,-535.5 1719,-535.5 1719,-529.5 1725,-523.5 1731,-523.5 1731,-523.5 1868,-523.5 1868,-523.5 1874,-523.5 1880,-529.5 1880,-535.5 1880,-535.5 1880,-549.5 1880,-549.5 1880,-555.5 1874,-561.5 1868,-561.5"/>
<polygon fill="#add8e6" stroke="transparent" points="1727.5,-542.5 1727.5,-557.5 1872.5,-557.5 1872.5,-542.5 1727.5,-542.5"/>
<text text-anchor="start" x="1747" y="-548.5" font-family="Times,serif" font-style="italic" font-size="10.00" fill="#000000">node1cj6aeecqx28:Entity</text>
<text text-anchor="start" x="1729.5" y="-532.5" font-family="Times,serif" font-size="10.00" fill="#000000"> &#160;&#160;&#160;&#160;&#160;&#160;&#160;value &#160;&#160;&#160;&#160;&#160;</text>
<text text-anchor="start" x="1788.5" y="-532.5" font-family="Times,serif" font-size="10.00" fill="#000000">Subsidie voor het bl</text>
</g>
<!-- duelmedekatdebelaanbinden&#45;&gt;node1cj6aeecqx28 -->
<g id="edge20" class="edge">
<title>duelmedekatdebelaanbinden&#45;&gt;node1cj6aeecqx28</title>
<path fill="none" stroke="#000088" d="M1067.7641,-626.0432C1253.2586,-615.215 1590.3175,-593.0591 1709.5,-569 1716.2582,-567.6357 1723.242,-565.9982 1730.1921,-564.2149"/>
<polygon fill="#000088" stroke="#000088" points="1740.3204,-561.5129 1731.8183,-568.4386 1735.4893,-562.8018 1730.6583,-564.0906 1730.6583,-564.0906 1730.6583,-564.0906 1735.4893,-562.8018 1729.4983,-559.7427 1740.3204,-561.5129 1740.3204,-561.5129"/>
<text text-anchor="middle" x="1588.5" y="-589.6" font-family="Times,serif" font-size="8.00" fill="#000000">hasAttestation</text>
</g>
<!-- node1cj6aeecqx30 -->
<g id="node38" class="node">
<title>node1cj6aeecqx30</title>
<path fill="none" stroke="#000000" d="M2205.5,-560.5C2205.5,-560.5 2069.5,-560.5 2069.5,-560.5 2063.5,-560.5 2057.5,-554.5 2057.5,-548.5 2057.5,-548.5 2057.5,-536.5 2057.5,-536.5 2057.5,-530.5 2063.5,-524.5 2069.5,-524.5 2069.5,-524.5 2205.5,-524.5 2205.5,-524.5 2211.5,-524.5 2217.5,-530.5 2217.5,-536.5 2217.5,-536.5 2217.5,-548.5 2217.5,-548.5 2217.5,-554.5 2211.5,-560.5 2205.5,-560.5"/>
<polygon fill="#add8e6" stroke="transparent" points="2065.5,-534.5 2065.5,-549.5 2209.5,-549.5 2209.5,-534.5 2065.5,-534.5"/>
<text text-anchor="start" x="2068" y="-540.5" font-family="Times,serif" font-style="italic" font-size="10.00" fill="#000000">node1cj6aeecqx30:lmfMWENode</text>
</g>
<!-- duelmedekatdebelaanbinden&#45;&gt;node1cj6aeecqx30 -->
<g id="edge21" class="edge">
<title>duelmedekatdebelaanbinden&#45;&gt;node1cj6aeecqx30</title>
<path fill="none" stroke="#000088" d="M1067.693,-627.7225C1203.195,-621.67 1424.7498,-610.6614 1615.5,-596 1737.0667,-586.6562 1767.2122,-581.4516 1888.5,-569 1941.0781,-563.6022 1999.8769,-557.3545 2047.1289,-552.2815"/>
<polygon fill="#000088" stroke="#000088" points="2057.3368,-551.1846 2047.8748,-556.7273 2052.3654,-551.7188 2047.394,-552.2531 2047.394,-552.2531 2047.394,-552.2531 2052.3654,-551.7188 2046.9132,-547.7788 2057.3368,-551.1846 2057.3368,-551.1846"/>
<text text-anchor="middle" x="1745" y="-589.6" font-family="Times,serif" font-size="8.00" fill="#000000">lmfhasMWENode</text>
</g>
<!-- node1cj6aeecqx11 -->
<g id="node17" class="node">
<title>node1cj6aeecqx11</title>
<path fill="none" stroke="#000000" d="M293.5,-463.5C293.5,-463.5 183.5,-463.5 183.5,-463.5 177.5,-463.5 171.5,-457.5 171.5,-451.5 171.5,-451.5 171.5,-422.5 171.5,-422.5 171.5,-416.5 177.5,-410.5 183.5,-410.5 183.5,-410.5 293.5,-410.5 293.5,-410.5 299.5,-410.5 305.5,-416.5 305.5,-422.5 305.5,-422.5 305.5,-451.5 305.5,-451.5 305.5,-457.5 299.5,-463.5 293.5,-463.5"/>
<polygon fill="#add8e6" stroke="transparent" points="179.5,-444 179.5,-459 297.5,-459 297.5,-444 179.5,-444"/>
<text text-anchor="start" x="187.5" y="-450" font-family="Times,serif" font-style="italic" font-size="10.00" fill="#000000">node1cj6aeecqx11:UNK</text>
<text text-anchor="start" x="181.5" y="-434" font-family="Times,serif" font-size="10.00" fill="#000000"> &#160;&#160;&#160;&#160;&#160;&#160;&#160;componentRank &#160;&#160;&#160;&#160;&#160;</text>
<text text-anchor="start" x="287.5" y="-434" font-family="Times,serif" font-size="10.00" fill="#000000">1</text>
<text text-anchor="start" x="187" y="-419" font-family="Times,serif" font-size="10.00" fill="#000000"> &#160;&#160;&#160;&#160;&#160;&#160;&#160;lmfhasLemma &#160;&#160;&#160;&#160;&#160;</text>
<text text-anchor="start" x="285.5" y="-419" font-family="Times,serif" font-size="10.00" fill="#000000">de</text>
</g>
<!-- node1cj6aeecqx10&#45;&gt;node1cj6aeecqx11 -->
<g id="edge22" class="edge">
<title>node1cj6aeecqx10&#45;&gt;node1cj6aeecqx11</title>
<path fill="none" stroke="#000088" d="M495.3796,-524.4227C487.4544,-521.4939 479.2696,-518.5792 471.5,-516 402.6093,-493.1306 382.6891,-495.8834 314.5,-471 311.4448,-469.8851 308.3395,-468.7035 305.2166,-467.4756"/>
<polygon fill="#000088" stroke="#000088" points="295.8275,-463.6733 306.7854,-463.256 300.4619,-465.5501 305.0963,-467.4269 305.0963,-467.4269 305.0963,-467.4269 300.4619,-465.5501 303.4071,-471.5979 295.8275,-463.6733 295.8275,-463.6733"/>
<text text-anchor="middle" x="430.5" y="-491.6" font-family="Times,serif" font-size="8.00" fill="#000000">lmfComponent</text>
</g>
<!-- node1cj6aeecqx12 -->
<g id="node18" class="node">
<title>node1cj6aeecqx12</title>
<path fill="none" stroke="#000000" d="M449,-463.5C449,-463.5 336,-463.5 336,-463.5 330,-463.5 324,-457.5 324,-451.5 324,-451.5 324,-422.5 324,-422.5 324,-416.5 330,-410.5 336,-410.5 336,-410.5 449,-410.5 449,-410.5 455,-410.5 461,-416.5 461,-422.5 461,-422.5 461,-451.5 461,-451.5 461,-457.5 455,-463.5 449,-463.5"/>
<polygon fill="#add8e6" stroke="transparent" points="332.5,-444 332.5,-459 453.5,-459 453.5,-444 332.5,-444"/>
<text text-anchor="start" x="342" y="-450" font-family="Times,serif" font-style="italic" font-size="10.00" fill="#000000">node1cj6aeecqx12:UNK</text>
<text text-anchor="start" x="334.5" y="-434" font-family="Times,serif" font-size="10.00" fill="#000000"> &#160;&#160;&#160;&#160;&#160;&#160;&#160;componentRank &#160;&#160;&#160;&#160;&#160;</text>
<text text-anchor="start" x="442" y="-434" font-family="Times,serif" font-size="10.00" fill="#000000">2</text>
<text text-anchor="start" x="340" y="-419" font-family="Times,serif" font-size="10.00" fill="#000000"> &#160;&#160;&#160;&#160;&#160;&#160;&#160;lmfhasLemma &#160;&#160;&#160;&#160;&#160;</text>
<text text-anchor="start" x="438.5" y="-419" font-family="Times,serif" font-size="10.00" fill="#000000">kat</text>
</g>
<!-- node1cj6aeecqx10&#45;&gt;node1cj6aeecqx12 -->
<g id="edge23" class="edge">
<title>node1cj6aeecqx10&#45;&gt;node1cj6aeecqx12</title>
<path fill="none" stroke="#000088" d="M515.886,-524.3639C494.6555,-509.3316 463.9421,-487.5848 438.47,-469.5492"/>
<polygon fill="#000088" stroke="#000088" points="430.0539,-463.5902 440.8156,-465.6963 434.1346,-466.4795 438.2152,-469.3689 438.2152,-469.3689 438.2152,-469.3689 434.1346,-466.4795 435.6148,-473.0415 430.0539,-463.5902 430.0539,-463.5902"/>
<text text-anchor="middle" x="500.5" y="-491.6" font-family="Times,serif" font-size="8.00" fill="#000000">lmfComponent</text>
</g>
<!-- node1cj6aeecqx13 -->
<g id="node22" class="node">
<title>node1cj6aeecqx13</title>
<path fill="none" stroke="#000000" d="M756.5,-463.5C756.5,-463.5 646.5,-463.5 646.5,-463.5 640.5,-463.5 634.5,-457.5 634.5,-451.5 634.5,-451.5 634.5,-422.5 634.5,-422.5 634.5,-416.5 640.5,-410.5 646.5,-410.5 646.5,-410.5 756.5,-410.5 756.5,-410.5 762.5,-410.5 768.5,-416.5 768.5,-422.5 768.5,-422.5 768.5,-451.5 768.5,-451.5 768.5,-457.5 762.5,-463.5 756.5,-463.5"/>
<polygon fill="#add8e6" stroke="transparent" points="642.5,-444 642.5,-459 760.5,-459 760.5,-444 642.5,-444"/>
<text text-anchor="start" x="650.5" y="-450" font-family="Times,serif" font-style="italic" font-size="10.00" fill="#000000">node1cj6aeecqx13:UNK</text>
<text text-anchor="start" x="644.5" y="-434" font-family="Times,serif" font-size="10.00" fill="#000000"> &#160;&#160;&#160;&#160;&#160;&#160;&#160;componentRank &#160;&#160;&#160;&#160;&#160;</text>
<text text-anchor="start" x="750.5" y="-434" font-family="Times,serif" font-size="10.00" fill="#000000">3</text>
<text text-anchor="start" x="650" y="-419" font-family="Times,serif" font-size="10.00" fill="#000000"> &#160;&#160;&#160;&#160;&#160;&#160;&#160;lmfhasLemma &#160;&#160;&#160;&#160;&#160;</text>
<text text-anchor="start" x="748.5" y="-419" font-family="Times,serif" font-size="10.00" fill="#000000">de</text>
</g>
<!-- node1cj6aeecqx10&#45;&gt;node1cj6aeecqx13 -->
<g id="edge24" class="edge">
<title>node1cj6aeecqx10&#45;&gt;node1cj6aeecqx13</title>
<path fill="none" stroke="#000088" d="M569.005,-524.3639C591.9019,-509.2663 625.0707,-487.3956 652.4927,-469.3142"/>
<polygon fill="#000088" stroke="#000088" points="661.1737,-463.5902 655.3023,-472.8518 656.9994,-466.3426 652.8252,-469.095 652.8252,-469.095 652.8252,-469.095 656.9994,-466.3426 650.348,-465.3382 661.1737,-463.5902 661.1737,-463.5902"/>
<text text-anchor="middle" x="645.5" y="-491.6" font-family="Times,serif" font-size="8.00" fill="#000000">lmfComponent</text>
</g>
<!-- node1cj6aeecqx14 -->
<g id="node23" class="node">
<title>node1cj6aeecqx14</title>
<path fill="none" stroke="#000000" d="M604,-463.5C604,-463.5 491,-463.5 491,-463.5 485,-463.5 479,-457.5 479,-451.5 479,-451.5 479,-422.5 479,-422.5 479,-416.5 485,-410.5 491,-410.5 491,-410.5 604,-410.5 604,-410.5 610,-410.5 616,-416.5 616,-422.5 616,-422.5 616,-451.5 616,-451.5 616,-457.5 610,-463.5 604,-463.5"/>
<polygon fill="#add8e6" stroke="transparent" points="487.5,-444 487.5,-459 608.5,-459 608.5,-444 487.5,-444"/>
<text text-anchor="start" x="497" y="-450" font-family="Times,serif" font-style="italic" font-size="10.00" fill="#000000">node1cj6aeecqx14:UNK</text>
<text text-anchor="start" x="489.5" y="-434" font-family="Times,serif" font-size="10.00" fill="#000000"> &#160;&#160;&#160;&#160;&#160;&#160;&#160;componentRank &#160;&#160;&#160;&#160;&#160;</text>
<text text-anchor="start" x="597" y="-434" font-family="Times,serif" font-size="10.00" fill="#000000">4</text>
<text text-anchor="start" x="495" y="-419" font-family="Times,serif" font-size="10.00" fill="#000000"> &#160;&#160;&#160;&#160;&#160;&#160;&#160;lmfhasLemma &#160;&#160;&#160;&#160;&#160;</text>
<text text-anchor="start" x="593.5" y="-419" font-family="Times,serif" font-size="10.00" fill="#000000">bel</text>
</g>
<!-- node1cj6aeecqx10&#45;&gt;node1cj6aeecqx14 -->
<g id="edge25" class="edge">
<title>node1cj6aeecqx10&#45;&gt;node1cj6aeecqx14</title>
<path fill="none" stroke="#000088" d="M542.5451,-524.1233C543.3292,-510.3365 544.4288,-491.0012 545.3931,-474.0472"/>
<polygon fill="#000088" stroke="#000088" points="545.9719,-463.8695 549.8967,-474.1089 545.6879,-468.8614 545.404,-473.8533 545.404,-473.8533 545.404,-473.8533 545.6879,-468.8614 540.9112,-473.5978 545.9719,-463.8695 545.9719,-463.8695"/>
<text text-anchor="middle" x="568.5" y="-491.6" font-family="Times,serif" font-size="8.00" fill="#000000">lmfComponent</text>
</g>
<!-- node1cj6aeecqx15 -->
<g id="node24" class="node">
<title>node1cj6aeecqx15</title>
<path fill="none" stroke="#000000" d="M950.5,-471C950.5,-471 798.5,-471 798.5,-471 792.5,-471 786.5,-465 786.5,-459 786.5,-459 786.5,-415 786.5,-415 786.5,-409 792.5,-403 798.5,-403 798.5,-403 950.5,-403 950.5,-403 956.5,-403 962.5,-409 962.5,-415 962.5,-415 962.5,-459 962.5,-459 962.5,-465 956.5,-471 950.5,-471"/>
<polygon fill="#add8e6" stroke="transparent" points="794.5,-452 794.5,-467 954.5,-467 954.5,-452 794.5,-452"/>
<text text-anchor="start" x="823.5" y="-458" font-family="Times,serif" font-style="italic" font-size="10.00" fill="#000000">node1cj6aeecqx15:UNK</text>
<text text-anchor="start" x="801" y="-442" font-family="Times,serif" font-size="10.00" fill="#000000"> &#160;&#160;&#160;&#160;&#160;&#160;&#160;componentRank &#160;&#160;&#160;&#160;&#160;</text>
<text text-anchor="start" x="928" y="-442" font-family="Times,serif" font-size="10.00" fill="#000000">5</text>
<text text-anchor="start" x="806.5" y="-427" font-family="Times,serif" font-size="10.00" fill="#000000"> &#160;&#160;&#160;&#160;&#160;&#160;&#160;lmfhasLemma &#160;&#160;&#160;&#160;&#160;</text>
<text text-anchor="start" x="909.5" y="-427" font-family="Times,serif" font-size="10.00" fill="#000000">aanbinden</text>
<text text-anchor="start" x="796.5" y="-412" font-family="Times,serif" font-size="10.00" fill="#000000"> &#160;&#160;&#160;&#160;&#160;&#160;&#160;lexinfoproposition &#160;&#160;&#160;&#160;&#160;</text>
<text text-anchor="start" x="923.5" y="-412" font-family="Times,serif" font-size="10.00" fill="#000000">aan</text>
</g>
<!-- node1cj6aeecqx10&#45;&gt;node1cj6aeecqx15 -->
<g id="edge26" class="edge">
<title>node1cj6aeecqx10&#45;&gt;node1cj6aeecqx15</title>
<path fill="none" stroke="#000088" d="M587.2117,-524.466C595.2576,-521.5011 603.5884,-518.5632 611.5,-516 681.2367,-493.4066 702.7431,-493.5993 776.5388,-471.2181"/>
<polygon fill="#000088" stroke="#000088" points="786.3023,-468.2189 778.0645,-475.457 781.5227,-469.6872 776.7431,-471.1554 776.7431,-471.1554 776.7431,-471.1554 781.5227,-469.6872 775.4217,-466.8538 786.3023,-468.2189 786.3023,-468.2189"/>
<text text-anchor="middle" x="735.5" y="-491.6" font-family="Times,serif" font-size="8.00" fill="#000000">lmfComponent</text>
</g>
<!-- lexinfocommonGender -->
<g id="node19" class="node">
<title>lexinfocommonGender</title>
<path fill="none" stroke="#000000" d="M369.5,-358C369.5,-358 251.5,-358 251.5,-358 245.5,-358 239.5,-352 239.5,-346 239.5,-346 239.5,-334 239.5,-334 239.5,-328 245.5,-322 251.5,-322 251.5,-322 369.5,-322 369.5,-322 375.5,-322 381.5,-328 381.5,-334 381.5,-334 381.5,-346 381.5,-346 381.5,-352 375.5,-358 369.5,-358"/>
<polygon fill="#add8e6" stroke="transparent" points="247.5,-332 247.5,-347 373.5,-347 373.5,-332 247.5,-332"/>
<text text-anchor="start" x="250" y="-338" font-family="Times,serif" font-style="italic" font-size="10.00" fill="#000000">lexinfocommonGender:Class</text>
</g>
<!-- node1cj6aeecqx12&#45;&gt;lexinfocommonGender -->
<g id="edge27" class="edge">
<title>node1cj6aeecqx12&#45;&gt;lexinfocommonGender</title>
<path fill="none" stroke="#000088" d="M339.6584,-410.43C330.2281,-403.4009 321.5085,-394.9392 315.5,-385 312.5009,-380.0389 310.8148,-374.2015 309.9341,-368.4045"/>
<polygon fill="#000088" stroke="#000088" points="309.1091,-358.2115 314.4013,-367.8158 309.5126,-363.1952 309.916,-368.1789 309.916,-368.1789 309.916,-368.1789 309.5126,-363.1952 305.4306,-368.542 309.1091,-358.2115 309.1091,-358.2115"/>
<text text-anchor="middle" x="338" y="-378.6" font-family="Times,serif" font-size="8.00" fill="#000000">lexinfogender</text>
</g>
<!-- countable -->
<g id="node20" class="node">
<title>countable</title>
<path fill="none" stroke="#000000" d="M499.5,-358C499.5,-358 435.5,-358 435.5,-358 429.5,-358 423.5,-352 423.5,-346 423.5,-346 423.5,-334 423.5,-334 423.5,-328 429.5,-322 435.5,-322 435.5,-322 499.5,-322 499.5,-322 505.5,-322 511.5,-328 511.5,-334 511.5,-334 511.5,-346 511.5,-346 511.5,-352 505.5,-358 499.5,-358"/>
<polygon fill="#add8e6" stroke="transparent" points="431.5,-332 431.5,-347 503.5,-347 503.5,-332 431.5,-332"/>
<text text-anchor="start" x="434" y="-338" font-family="Times,serif" font-style="italic" font-size="10.00" fill="#000000">countable:Class</text>
</g>
<!-- node1cj6aeecqx12&#45;&gt;countable -->
<g id="edge28" class="edge">
<title>node1cj6aeecqx12&#45;&gt;countable</title>
<path fill="none" stroke="#000088" d="M370.4937,-410.4631C363.9248,-399.2425 360.1949,-386.3938 367.5,-376 373.4308,-367.5616 393.2522,-359.6278 413.7012,-353.3672"/>
<polygon fill="#000088" stroke="#000088" points="423.4113,-350.5233 415.0793,-357.6527 418.6129,-351.9287 413.8145,-353.3341 413.8145,-353.3341 413.8145,-353.3341 418.6129,-351.9287 412.5496,-349.0156 423.4113,-350.5233 423.4113,-350.5233"/>
<text text-anchor="middle" x="391" y="-378.6" font-family="Times,serif" font-size="8.00" fill="#000000">lexinfonumber</text>
</g>
<!-- lexinfosingular -->
<g id="node21" class="node">
<title>lexinfosingular</title>
<path fill="none" stroke="#000000" d="M639.5,-358C639.5,-358 553.5,-358 553.5,-358 547.5,-358 541.5,-352 541.5,-346 541.5,-346 541.5,-334 541.5,-334 541.5,-328 547.5,-322 553.5,-322 553.5,-322 639.5,-322 639.5,-322 645.5,-322 651.5,-328 651.5,-334 651.5,-334 651.5,-346 651.5,-346 651.5,-352 645.5,-358 639.5,-358"/>
<polygon fill="#add8e6" stroke="transparent" points="549.5,-332 549.5,-347 643.5,-347 643.5,-332 549.5,-332"/>
<text text-anchor="start" x="552" y="-338" font-family="Times,serif" font-style="italic" font-size="10.00" fill="#000000">lexinfosingular:Class</text>
</g>
<!-- node1cj6aeecqx12&#45;&gt;lexinfosingular -->
<g id="edge29" class="edge">
<title>node1cj6aeecqx12&#45;&gt;lexinfosingular</title>
<path fill="none" stroke="#000088" d="M436.5329,-410.4C456.0826,-399.1048 479.585,-386.2161 501.5,-376 512.2405,-370.9931 523.887,-366.1346 535.224,-361.6916"/>
<polygon fill="#000088" stroke="#000088" points="544.6477,-358.0629 536.9327,-365.8558 539.9817,-359.8597 535.3156,-361.6564 535.3156,-361.6564 535.3156,-361.6564 539.9817,-359.8597 533.6986,-357.4569 544.6477,-358.0629 544.6477,-358.0629"/>
<text text-anchor="middle" x="525" y="-378.6" font-family="Times,serif" font-size="8.00" fill="#000000">lexinfonumber</text>
</g>
<!-- node1cj6aeecqx14&#45;&gt;lexinfocommonGender -->
<g id="edge30" class="edge">
<title>node1cj6aeecqx14&#45;&gt;lexinfocommonGender</title>
<path fill="none" stroke="#000088" d="M489.8681,-410.4159C455.7935,-394.7237 418.5078,-377.6084 414.5,-376 402.0654,-371.0099 388.6394,-366.0523 375.6982,-361.484"/>
<polygon fill="#000088" stroke="#000088" points="365.921,-358.0723 376.8453,-357.1182 370.6418,-359.7196 375.3627,-361.3669 375.3627,-361.3669 375.3627,-361.3669 370.6418,-359.7196 373.8801,-365.6157 365.921,-358.0723 365.921,-358.0723"/>
<text text-anchor="middle" x="457" y="-378.6" font-family="Times,serif" font-size="8.00" fill="#000000">lexinfogender</text>
</g>
<!-- node1cj6aeecqx14&#45;&gt;countable -->
<g id="edge31" class="edge">
<title>node1cj6aeecqx14&#45;&gt;countable</title>
<path fill="none" stroke="#000088" d="M556.7051,-410.2286C558.9371,-398.8373 559.0725,-385.9214 552.5,-376 548.3253,-369.6982 535.6851,-363.1524 521.3852,-357.398"/>
<polygon fill="#000088" stroke="#000088" points="511.8208,-353.7414 522.7685,-353.1092 516.4912,-355.527 521.1615,-357.3125 521.1615,-357.3125 521.1615,-357.3125 516.4912,-355.527 519.5545,-361.5158 511.8208,-353.7414 511.8208,-353.7414"/>
<text text-anchor="middle" x="580" y="-378.6" font-family="Times,serif" font-size="8.00" fill="#000000">lexinfonumber</text>
</g>
<!-- node1cj6aeecqx14&#45;&gt;lexinfosingular -->
<g id="edge32" class="edge">
<title>node1cj6aeecqx14&#45;&gt;lexinfosingular</title>
<path fill="none" stroke="#000088" d="M600.2188,-410.3951C609.1901,-403.4043 617.2825,-394.9664 622.5,-385 625.649,-378.9848 624.7003,-372.6177 621.7907,-366.6253"/>
<polygon fill="#000088" stroke="#000088" points="616.3737,-358.1985 625.5665,-364.1771 619.0775,-362.4045 621.7812,-366.6105 621.7812,-366.6105 621.7812,-366.6105 619.0775,-362.4045 617.9958,-369.0438 616.3737,-358.1985 616.3737,-358.1985"/>
<text text-anchor="middle" x="648" y="-378.6" font-family="Times,serif" font-size="8.00" fill="#000000">lexinfonumber</text>
</g>
<!-- lexinfoparticiple -->
<g id="node25" class="node">
<title>lexinfoparticiple</title>
<path fill="none" stroke="#000000" d="M920.5,-358C920.5,-358 828.5,-358 828.5,-358 822.5,-358 816.5,-352 816.5,-346 816.5,-346 816.5,-334 816.5,-334 816.5,-328 822.5,-322 828.5,-322 828.5,-322 920.5,-322 920.5,-322 926.5,-322 932.5,-328 932.5,-334 932.5,-334 932.5,-346 932.5,-346 932.5,-352 926.5,-358 920.5,-358"/>
<polygon fill="#add8e6" stroke="transparent" points="824.5,-332 824.5,-347 924.5,-347 924.5,-332 824.5,-332"/>
<text text-anchor="start" x="827" y="-338" font-family="Times,serif" font-style="italic" font-size="10.00" fill="#000000">lexinfoparticiple:Class</text>
</g>
<!-- node1cj6aeecqx15&#45;&gt;lexinfoparticiple -->
<g id="edge33" class="edge">
<title>node1cj6aeecqx15&#45;&gt;lexinfoparticiple</title>
<path fill="none" stroke="#000088" d="M874.5,-402.8014C874.5,-391.5107 874.5,-379.0843 874.5,-368.2861"/>
<polygon fill="#000088" stroke="#000088" points="874.5,-358.1329 879.0001,-368.1329 874.5,-363.1329 874.5001,-368.1329 874.5001,-368.1329 874.5001,-368.1329 874.5,-363.1329 870.0001,-368.133 874.5,-358.1329 874.5,-358.1329"/>
<text text-anchor="middle" x="911" y="-378.6" font-family="Times,serif" font-size="8.00" fill="#000000">lexinfoverbFormMood</text>
</g>
<!-- node1cj6aeecqx21 -->
<g id="node29" class="node">
<title>node1cj6aeecqx21</title>
<path fill="none" stroke="#000000" d="M1128,-463.5C1128,-463.5 999,-463.5 999,-463.5 993,-463.5 987,-457.5 987,-451.5 987,-451.5 987,-422.5 987,-422.5 987,-416.5 993,-410.5 999,-410.5 999,-410.5 1128,-410.5 1128,-410.5 1134,-410.5 1140,-416.5 1140,-422.5 1140,-422.5 1140,-451.5 1140,-451.5 1140,-457.5 1134,-463.5 1128,-463.5"/>
<polygon fill="#add8e6" stroke="transparent" points="995.5,-444 995.5,-459 1132.5,-459 1132.5,-444 995.5,-444"/>
<text text-anchor="start" x="1013" y="-450" font-family="Times,serif" font-style="italic" font-size="10.00" fill="#000000">node1cj6aeecqx21:UNK</text>
<text text-anchor="start" x="997.5" y="-434" font-family="Times,serif" font-size="10.00" fill="#000000"> &#160;&#160;&#160;&#160;&#160;&#160;&#160;title &#160;&#160;&#160;&#160;&#160;</text>
<text text-anchor="start" x="1050.5" y="-434" font-family="Times,serif" font-size="10.00" fill="#000000">Algemeen Dagblad</text>
<text text-anchor="start" x="997.5" y="-419" font-family="Times,serif" font-size="10.00" fill="#000000"> &#160;&#160;&#160;&#160;&#160;&#160;&#160;date &#160;&#160;&#160;&#160;&#160;</text>
<text text-anchor="start" x="1066" y="-419" font-family="Times,serif" font-size="10.00" fill="#000000">1994&#45;05&#45;13</text>
</g>
<!-- node1cj6aeecqx20&#45;&gt;node1cj6aeecqx21 -->
<g id="edge34" class="edge">
<title>node1cj6aeecqx20&#45;&gt;node1cj6aeecqx21</title>
<path fill="none" stroke="#000088" d="M1063.5,-523.1497C1063.5,-509.4864 1063.5,-490.7445 1063.5,-474.2303"/>
<polygon fill="#000088" stroke="#000088" points="1063.5,-463.7756 1068.0001,-473.7755 1063.5,-468.7756 1063.5001,-473.7756 1063.5001,-473.7756 1063.5001,-473.7756 1063.5,-468.7756 1059.0001,-473.7756 1063.5,-463.7756 1063.5,-463.7756"/>
<text text-anchor="middle" x="1090.5" y="-491.6" font-family="Times,serif" font-size="8.00" fill="#000000">wasQuotedFrom</text>
</g>
<!-- node1cj6aeecqx23 -->
<g id="node31" class="node">
<title>node1cj6aeecqx23</title>
<path fill="none" stroke="#000000" d="M1313,-463.5C1313,-463.5 1184,-463.5 1184,-463.5 1178,-463.5 1172,-457.5 1172,-451.5 1172,-451.5 1172,-422.5 1172,-422.5 1172,-416.5 1178,-410.5 1184,-410.5 1184,-410.5 1313,-410.5 1313,-410.5 1319,-410.5 1325,-416.5 1325,-422.5 1325,-422.5 1325,-451.5 1325,-451.5 1325,-457.5 1319,-463.5 1313,-463.5"/>
<polygon fill="#add8e6" stroke="transparent" points="1180.5,-444 1180.5,-459 1317.5,-459 1317.5,-444 1180.5,-444"/>
<text text-anchor="start" x="1198" y="-450" font-family="Times,serif" font-style="italic" font-size="10.00" fill="#000000">node1cj6aeecqx23:UNK</text>
<text text-anchor="start" x="1182.5" y="-434" font-family="Times,serif" font-size="10.00" fill="#000000"> &#160;&#160;&#160;&#160;&#160;&#160;&#160;title &#160;&#160;&#160;&#160;&#160;</text>
<text text-anchor="start" x="1235.5" y="-434" font-family="Times,serif" font-size="10.00" fill="#000000">Algemeen Dagblad</text>
<text text-anchor="start" x="1182.5" y="-419" font-family="Times,serif" font-size="10.00" fill="#000000"> &#160;&#160;&#160;&#160;&#160;&#160;&#160;date &#160;&#160;&#160;&#160;&#160;</text>
<text text-anchor="start" x="1251" y="-419" font-family="Times,serif" font-size="10.00" fill="#000000">1995&#45;03&#45;08</text>
</g>
<!-- node1cj6aeecqx22&#45;&gt;node1cj6aeecqx23 -->
<g id="edge35" class="edge">
<title>node1cj6aeecqx22&#45;&gt;node1cj6aeecqx23</title>
<path fill="none" stroke="#000088" d="M1248.5,-523.1497C1248.5,-509.4864 1248.5,-490.7445 1248.5,-474.2303"/>
<polygon fill="#000088" stroke="#000088" points="1248.5,-463.7756 1253.0001,-473.7755 1248.5,-468.7756 1248.5001,-473.7756 1248.5001,-473.7756 1248.5001,-473.7756 1248.5,-468.7756 1244.0001,-473.7756 1248.5,-463.7756 1248.5,-463.7756"/>
<text text-anchor="middle" x="1275.5" y="-491.6" font-family="Times,serif" font-size="8.00" fill="#000000">wasQuotedFrom</text>
</g>
<!-- node1cj6aeecqx25 -->
<g id="node33" class="node">
<title>node1cj6aeecqx25</title>
<path fill="none" stroke="#000000" d="M1485.5,-463.5C1485.5,-463.5 1387.5,-463.5 1387.5,-463.5 1381.5,-463.5 1375.5,-457.5 1375.5,-451.5 1375.5,-451.5 1375.5,-422.5 1375.5,-422.5 1375.5,-416.5 1381.5,-410.5 1387.5,-410.5 1387.5,-410.5 1485.5,-410.5 1485.5,-410.5 1491.5,-410.5 1497.5,-416.5 1497.5,-422.5 1497.5,-422.5 1497.5,-451.5 1497.5,-451.5 1497.5,-457.5 1491.5,-463.5 1485.5,-463.5"/>
<polygon fill="#add8e6" stroke="transparent" points="1383.5,-444 1383.5,-459 1489.5,-459 1489.5,-444 1383.5,-444"/>
<text text-anchor="start" x="1385.5" y="-450" font-family="Times,serif" font-style="italic" font-size="10.00" fill="#000000">node1cj6aeecqx25:UNK</text>
<text text-anchor="start" x="1385.5" y="-434" font-family="Times,serif" font-size="10.00" fill="#000000"> &#160;&#160;&#160;&#160;&#160;&#160;&#160;title &#160;&#160;&#160;&#160;&#160;</text>
<text text-anchor="start" x="1455" y="-434" font-family="Times,serif" font-size="10.00" fill="#000000">NH</text>
<text text-anchor="start" x="1385.5" y="-419" font-family="Times,serif" font-size="10.00" fill="#000000"> &#160;&#160;&#160;&#160;&#160;&#160;&#160;date &#160;&#160;&#160;&#160;&#160;</text>
<text text-anchor="start" x="1438.5" y="-419" font-family="Times,serif" font-size="10.00" fill="#000000">1994&#45;02&#45;19</text>
</g>
<!-- node1cj6aeecqx24&#45;&gt;node1cj6aeecqx25 -->
<g id="edge36" class="edge">
<title>node1cj6aeecqx24&#45;&gt;node1cj6aeecqx25</title>
<path fill="none" stroke="#000088" d="M1436.5,-523.1497C1436.5,-509.4864 1436.5,-490.7445 1436.5,-474.2303"/>
<polygon fill="#000088" stroke="#000088" points="1436.5,-463.7756 1441.0001,-473.7755 1436.5,-468.7756 1436.5001,-473.7756 1436.5001,-473.7756 1436.5001,-473.7756 1436.5,-468.7756 1432.0001,-473.7756 1436.5,-463.7756 1436.5,-463.7756"/>
<text text-anchor="middle" x="1463.5" y="-491.6" font-family="Times,serif" font-size="8.00" fill="#000000">wasQuotedFrom</text>
</g>
<!-- node1cj6aeecqx27 -->
<g id="node35" class="node">
<title>node1cj6aeecqx27</title>
<path fill="none" stroke="#000000" d="M1669.5,-463.5C1669.5,-463.5 1571.5,-463.5 1571.5,-463.5 1565.5,-463.5 1559.5,-457.5 1559.5,-451.5 1559.5,-451.5 1559.5,-422.5 1559.5,-422.5 1559.5,-416.5 1565.5,-410.5 1571.5,-410.5 1571.5,-410.5 1669.5,-410.5 1669.5,-410.5 1675.5,-410.5 1681.5,-416.5 1681.5,-422.5 1681.5,-422.5 1681.5,-451.5 1681.5,-451.5 1681.5,-457.5 1675.5,-463.5 1669.5,-463.5"/>
<polygon fill="#add8e6" stroke="transparent" points="1567.5,-444 1567.5,-459 1673.5,-459 1673.5,-444 1567.5,-444"/>
<text text-anchor="start" x="1569.5" y="-450" font-family="Times,serif" font-style="italic" font-size="10.00" fill="#000000">node1cj6aeecqx27:UNK</text>
<text text-anchor="start" x="1569.5" y="-434" font-family="Times,serif" font-size="10.00" fill="#000000"> &#160;&#160;&#160;&#160;&#160;&#160;&#160;title &#160;&#160;&#160;&#160;&#160;</text>
<text text-anchor="start" x="1639" y="-434" font-family="Times,serif" font-size="10.00" fill="#000000">NH</text>
<text text-anchor="start" x="1569.5" y="-419" font-family="Times,serif" font-size="10.00" fill="#000000"> &#160;&#160;&#160;&#160;&#160;&#160;&#160;date &#160;&#160;&#160;&#160;&#160;</text>
<text text-anchor="start" x="1622.5" y="-419" font-family="Times,serif" font-size="10.00" fill="#000000">1994&#45;02&#45;25</text>
</g>
<!-- node1cj6aeecqx26&#45;&gt;node1cj6aeecqx27 -->
<g id="edge37" class="edge">
<title>node1cj6aeecqx26&#45;&gt;node1cj6aeecqx27</title>
<path fill="none" stroke="#000088" d="M1620.5,-523.1497C1620.5,-509.4864 1620.5,-490.7445 1620.5,-474.2303"/>
<polygon fill="#000088" stroke="#000088" points="1620.5,-463.7756 1625.0001,-473.7755 1620.5,-468.7756 1620.5001,-473.7756 1620.5001,-473.7756 1620.5001,-473.7756 1620.5,-468.7756 1616.0001,-473.7756 1620.5,-463.7756 1620.5,-463.7756"/>
<text text-anchor="middle" x="1647.5" y="-491.6" font-family="Times,serif" font-size="8.00" fill="#000000">wasQuotedFrom</text>
</g>
<!-- node1cj6aeecqx29 -->
<g id="node37" class="node">
<title>node1cj6aeecqx29</title>
<path fill="none" stroke="#000000" d="M1852,-463.5C1852,-463.5 1723,-463.5 1723,-463.5 1717,-463.5 1711,-457.5 1711,-451.5 1711,-451.5 1711,-422.5 1711,-422.5 1711,-416.5 1717,-410.5 1723,-410.5 1723,-410.5 1852,-410.5 1852,-410.5 1858,-410.5 1864,-416.5 1864,-422.5 1864,-422.5 1864,-451.5 1864,-451.5 1864,-457.5 1858,-463.5 1852,-463.5"/>
<polygon fill="#add8e6" stroke="transparent" points="1719.5,-444 1719.5,-459 1856.5,-459 1856.5,-444 1719.5,-444"/>
<text text-anchor="start" x="1737" y="-450" font-family="Times,serif" font-style="italic" font-size="10.00" fill="#000000">node1cj6aeecqx29:UNK</text>
<text text-anchor="start" x="1721.5" y="-434" font-family="Times,serif" font-size="10.00" fill="#000000"> &#160;&#160;&#160;&#160;&#160;&#160;&#160;title &#160;&#160;&#160;&#160;&#160;</text>
<text text-anchor="start" x="1774.5" y="-434" font-family="Times,serif" font-size="10.00" fill="#000000">Algemeen Dagblad</text>
<text text-anchor="start" x="1721.5" y="-419" font-family="Times,serif" font-size="10.00" fill="#000000"> &#160;&#160;&#160;&#160;&#160;&#160;&#160;date &#160;&#160;&#160;&#160;&#160;</text>
<text text-anchor="start" x="1790" y="-419" font-family="Times,serif" font-size="10.00" fill="#000000">2001&#45;04&#45;28</text>
</g>
<!-- node1cj6aeecqx28&#45;&gt;node1cj6aeecqx29 -->
<g id="edge38" class="edge">
<title>node1cj6aeecqx28&#45;&gt;node1cj6aeecqx29</title>
<path fill="none" stroke="#000088" d="M1797.299,-523.1497C1795.7301,-509.3563 1793.5725,-490.387 1791.6811,-473.7591"/>
<polygon fill="#000088" stroke="#000088" points="1790.5456,-463.7756 1796.147,-473.2029 1791.1107,-468.7435 1791.6758,-473.7115 1791.6758,-473.7115 1791.6758,-473.7115 1791.1107,-468.7435 1787.2046,-474.2201 1790.5456,-463.7756 1790.5456,-463.7756"/>
<text text-anchor="middle" x="1821.5" y="-491.6" font-family="Times,serif" font-size="8.00" fill="#000000">wasQuotedFrom</text>
</g>
<!-- node1cj6aeecqx30&#45;&gt;node1cj6aeecqx31 -->
<g id="edge39" class="edge">
<title>node1cj6aeecqx30&#45;&gt;node1cj6aeecqx31</title>
<path fill="none" stroke="#000088" d="M2212.0544,-524.4375C2265.2576,-511.0317 2338.2865,-491.5772 2401.5,-471 2412.9275,-467.2801 2425.0374,-462.9331 2436.5219,-458.6144"/>
<polygon fill="#000088" stroke="#000088" points="2445.993,-455.0079 2438.2491,-462.772 2441.3203,-456.7872 2436.6476,-458.5666 2436.6476,-458.5666 2436.6476,-458.5666 2441.3203,-456.7872 2435.0462,-454.3612 2445.993,-455.0079 2445.993,-455.0079"/>
<text text-anchor="middle" x="2366.5" y="-491.6" font-family="Times,serif" font-size="8.00" fill="#000000">lmfhasMWEEdge</text>
</g>
<!-- node1cj6aeecqx30&#45;&gt;node1cj6aeecqx41 -->
<g id="edge41" class="edge">
<title>node1cj6aeecqx30&#45;&gt;node1cj6aeecqx41</title>
<path fill="none" stroke="#000088" d="M2107.2445,-524.3639C2077.6882,-506.6469 2032.572,-479.6028 2000.3709,-460.3004"/>
<polygon fill="#000088" stroke="#000088" points="1991.6546,-455.0757 2002.5454,-456.3574 1995.9432,-457.6464 2000.2317,-460.2171 2000.2317,-460.2171 2000.2317,-460.2171 1995.9432,-457.6464 1997.9181,-464.0768 1991.6546,-455.0757 1991.6546,-455.0757"/>
<text text-anchor="middle" x="2089.5" y="-491.6" font-family="Times,serif" font-size="8.00" fill="#000000">lmfhasMWEEdge</text>
</g>
<!-- node1cj6aeecqx33 -->
<g id="node39" class="node">
<title>node1cj6aeecqx33</title>
<path fill="none" stroke="#000000" d="M2204.5,-455C2204.5,-455 2070.5,-455 2070.5,-455 2064.5,-455 2058.5,-449 2058.5,-443 2058.5,-443 2058.5,-431 2058.5,-431 2058.5,-425 2064.5,-419 2070.5,-419 2070.5,-419 2204.5,-419 2204.5,-419 2210.5,-419 2216.5,-425 2216.5,-431 2216.5,-431 2216.5,-443 2216.5,-443 2216.5,-449 2210.5,-455 2204.5,-455"/>
<polygon fill="#add8e6" stroke="transparent" points="2066.5,-429 2066.5,-444 2208.5,-444 2208.5,-429 2066.5,-429"/>
<text text-anchor="start" x="2068.5" y="-435" font-family="Times,serif" font-style="italic" font-size="10.00" fill="#000000">node1cj6aeecqx33:lmfMWEEdge</text>
</g>
<!-- node1cj6aeecqx30&#45;&gt;node1cj6aeecqx33 -->
<g id="edge40" class="edge">
<title>node1cj6aeecqx30&#45;&gt;node1cj6aeecqx33</title>
<path fill="none" stroke="#000088" d="M2137.5,-524.1233C2137.5,-507.8607 2137.5,-483.8778 2137.5,-465.1896"/>
<polygon fill="#000088" stroke="#000088" points="2137.5,-455.1661 2142.0001,-465.1661 2137.5,-460.1661 2137.5001,-465.1661 2137.5001,-465.1661 2137.5001,-465.1661 2137.5,-460.1661 2133.0001,-465.1662 2137.5,-455.1661 2137.5,-455.1661"/>
<text text-anchor="middle" x="2166.5" y="-491.6" font-family="Times,serif" font-size="8.00" fill="#000000">lmfhasMWEEdge</text>
</g>
<!-- node1cj6aeecqx49 -->
<g id="node47" class="node">
<title>node1cj6aeecqx49</title>
<path fill="none" stroke="#000000" d="M2380.5,-455C2380.5,-455 2246.5,-455 2246.5,-455 2240.5,-455 2234.5,-449 2234.5,-443 2234.5,-443 2234.5,-431 2234.5,-431 2234.5,-425 2240.5,-419 2246.5,-419 2246.5,-419 2380.5,-419 2380.5,-419 2386.5,-419 2392.5,-425 2392.5,-431 2392.5,-431 2392.5,-443 2392.5,-443 2392.5,-449 2386.5,-455 2380.5,-455"/>
<polygon fill="#add8e6" stroke="transparent" points="2242.5,-429 2242.5,-444 2384.5,-444 2384.5,-429 2242.5,-429"/>
<text text-anchor="start" x="2244.5" y="-435" font-family="Times,serif" font-style="italic" font-size="10.00" fill="#000000">node1cj6aeecqx49:lmfMWEEdge</text>
</g>
<!-- node1cj6aeecqx30&#45;&gt;node1cj6aeecqx49 -->
<g id="edge42" class="edge">
<title>node1cj6aeecqx30&#45;&gt;node1cj6aeecqx49</title>
<path fill="none" stroke="#000088" d="M2167.7555,-524.3639C2197.3118,-506.6469 2242.428,-479.6028 2274.6291,-460.3004"/>
<polygon fill="#000088" stroke="#000088" points="2283.3454,-455.0757 2277.0819,-464.0768 2279.0568,-457.6464 2274.7683,-460.2171 2274.7683,-460.2171 2274.7683,-460.2171 2279.0568,-457.6464 2272.4546,-456.3574 2283.3454,-455.0757 2283.3454,-455.0757"/>
<text text-anchor="middle" x="2254.5" y="-491.6" font-family="Times,serif" font-size="8.00" fill="#000000">lmfhasMWEEdge</text>
</g>
<!-- node1cj6aeecqx34 -->
<g id="node40" class="node">
<title>node1cj6aeecqx34</title>
<path fill="none" stroke="#000000" d="M2203.5,-358C2203.5,-358 2067.5,-358 2067.5,-358 2061.5,-358 2055.5,-352 2055.5,-346 2055.5,-346 2055.5,-334 2055.5,-334 2055.5,-328 2061.5,-322 2067.5,-322 2067.5,-322 2203.5,-322 2203.5,-322 2209.5,-322 2215.5,-328 2215.5,-334 2215.5,-334 2215.5,-346 2215.5,-346 2215.5,-352 2209.5,-358 2203.5,-358"/>
<polygon fill="#add8e6" stroke="transparent" points="2063.5,-332 2063.5,-347 2207.5,-347 2207.5,-332 2063.5,-332"/>
<text text-anchor="start" x="2066" y="-338" font-family="Times,serif" font-style="italic" font-size="10.00" fill="#000000">node1cj6aeecqx34:lmfMWENode</text>
</g>
<!-- node1cj6aeecqx33&#45;&gt;node1cj6aeecqx34 -->
<g id="edge43" class="edge">
<title>node1cj6aeecqx33&#45;&gt;node1cj6aeecqx34</title>
<path fill="none" stroke="#000088" d="M2137.1238,-418.755C2136.8305,-404.5291 2136.418,-384.521 2136.0821,-368.2321"/>
<polygon fill="#000088" stroke="#000088" points="2135.8745,-358.1631 2140.5798,-368.0682 2135.9776,-363.1621 2136.0807,-368.161 2136.0807,-368.161 2136.0807,-368.161 2135.9776,-363.1621 2131.5817,-368.2538 2135.8745,-358.1631 2135.8745,-358.1631"/>
<text text-anchor="middle" x="2166" y="-378.6" font-family="Times,serif" font-size="8.00" fill="#000000">lmfhasMWENode</text>
</g>
<!-- node1cj6aeecqx35 -->
<g id="node41" class="node">
<title>node1cj6aeecqx35</title>
<path fill="none" stroke="#000000" d="M2137.5,-253.5C2137.5,-253.5 2003.5,-253.5 2003.5,-253.5 1997.5,-253.5 1991.5,-247.5 1991.5,-241.5 1991.5,-241.5 1991.5,-229.5 1991.5,-229.5 1991.5,-223.5 1997.5,-217.5 2003.5,-217.5 2003.5,-217.5 2137.5,-217.5 2137.5,-217.5 2143.5,-217.5 2149.5,-223.5 2149.5,-229.5 2149.5,-229.5 2149.5,-241.5 2149.5,-241.5 2149.5,-247.5 2143.5,-253.5 2137.5,-253.5"/>
<polygon fill="#add8e6" stroke="transparent" points="1999.5,-227.5 1999.5,-242.5 2141.5,-242.5 2141.5,-227.5 1999.5,-227.5"/>
<text text-anchor="start" x="2001.5" y="-233.5" font-family="Times,serif" font-style="italic" font-size="10.00" fill="#000000">node1cj6aeecqx35:lmfMWEEdge</text>
</g>
<!-- node1cj6aeecqx34&#45;&gt;node1cj6aeecqx35 -->
<g id="edge44" class="edge">
<title>node1cj6aeecqx34&#45;&gt;node1cj6aeecqx35</title>
<path fill="none" stroke="#000088" d="M2124.1779,-321.7975C2113.9878,-305.4149 2098.8778,-281.1228 2087.2831,-262.4821"/>
<polygon fill="#000088" stroke="#000088" points="2081.9105,-253.8445 2091.0134,-259.9591 2084.5514,-258.0902 2087.1922,-262.3359 2087.1922,-262.3359 2087.1922,-262.3359 2084.5514,-258.0902 2083.3711,-264.7127 2081.9105,-253.8445 2081.9105,-253.8445"/>
<text text-anchor="middle" x="2142.5" y="-297.6" font-family="Times,serif" font-size="8.00" fill="#000000">lmfhasMWEEdge</text>
</g>
<!-- node1cj6aeecqx38 -->
<g id="node44" class="node">
<title>node1cj6aeecqx38</title>
<path fill="none" stroke="#000000" d="M2313.5,-253.5C2313.5,-253.5 2179.5,-253.5 2179.5,-253.5 2173.5,-253.5 2167.5,-247.5 2167.5,-241.5 2167.5,-241.5 2167.5,-229.5 2167.5,-229.5 2167.5,-223.5 2173.5,-217.5 2179.5,-217.5 2179.5,-217.5 2313.5,-217.5 2313.5,-217.5 2319.5,-217.5 2325.5,-223.5 2325.5,-229.5 2325.5,-229.5 2325.5,-241.5 2325.5,-241.5 2325.5,-247.5 2319.5,-253.5 2313.5,-253.5"/>
<polygon fill="#add8e6" stroke="transparent" points="2175.5,-227.5 2175.5,-242.5 2317.5,-242.5 2317.5,-227.5 2175.5,-227.5"/>
<text text-anchor="start" x="2177.5" y="-233.5" font-family="Times,serif" font-style="italic" font-size="10.00" fill="#000000">node1cj6aeecqx38:lmfMWEEdge</text>
</g>
<!-- node1cj6aeecqx34&#45;&gt;node1cj6aeecqx38 -->
<g id="edge45" class="edge">
<title>node1cj6aeecqx34&#45;&gt;node1cj6aeecqx38</title>
<path fill="none" stroke="#000088" d="M2155.9729,-321.8211C2162.2771,-316.1574 2169.2117,-309.8599 2175.5,-304 2190.5838,-289.9439 2207.1805,-273.9611 2220.5324,-260.9713"/>
<polygon fill="#000088" stroke="#000088" points="2227.9829,-253.7062 2223.9649,-263.9095 2224.4031,-257.1969 2220.8233,-260.6877 2220.8233,-260.6877 2220.8233,-260.6877 2224.4031,-257.1969 2217.6816,-257.4659 2227.9829,-253.7062 2227.9829,-253.7062"/>
<text text-anchor="middle" x="2212.5" y="-297.6" font-family="Times,serif" font-size="8.00" fill="#000000">lmfhasMWEEdge</text>
</g>
<!-- node1cj6aeecqx36 -->
<g id="node42" class="node">
<title>node1cj6aeecqx36</title>
<path fill="none" stroke="#000000" d="M2138.5,-149C2138.5,-149 2002.5,-149 2002.5,-149 1996.5,-149 1990.5,-143 1990.5,-137 1990.5,-137 1990.5,-125 1990.5,-125 1990.5,-119 1996.5,-113 2002.5,-113 2002.5,-113 2138.5,-113 2138.5,-113 2144.5,-113 2150.5,-119 2150.5,-125 2150.5,-125 2150.5,-137 2150.5,-137 2150.5,-143 2144.5,-149 2138.5,-149"/>
<polygon fill="#add8e6" stroke="transparent" points="1998.5,-123 1998.5,-138 2142.5,-138 2142.5,-123 1998.5,-123"/>
<text text-anchor="start" x="2001" y="-129" font-family="Times,serif" font-style="italic" font-size="10.00" fill="#000000">node1cj6aeecqx36:lmfMWENode</text>
</g>
<!-- node1cj6aeecqx35&#45;&gt;node1cj6aeecqx36 -->
<g id="edge46" class="edge">
<title>node1cj6aeecqx35&#45;&gt;node1cj6aeecqx36</title>
<path fill="none" stroke="#000088" d="M2070.5,-217.2975C2070.5,-201.3617 2070.5,-177.942 2070.5,-159.5195"/>
<polygon fill="#000088" stroke="#000088" points="2070.5,-149.3445 2075.0001,-159.3445 2070.5,-154.3445 2070.5001,-159.3445 2070.5001,-159.3445 2070.5001,-159.3445 2070.5,-154.3445 2066.0001,-159.3446 2070.5,-149.3445 2070.5,-149.3445"/>
<text text-anchor="middle" x="2100" y="-169.6" font-family="Times,serif" font-size="8.00" fill="#000000">lmfhasMWENode</text>
</g>
<!-- node1cj6aeecqx37 -->
<g id="node43" class="node">
<title>node1cj6aeecqx37</title>
<path fill="none" stroke="#000000" d="M2136.5,-68C2136.5,-68 2004.5,-68 2004.5,-68 1998.5,-68 1992.5,-62 1992.5,-56 1992.5,-56 1992.5,-12 1992.5,-12 1992.5,-6 1998.5,0 2004.5,0 2004.5,0 2136.5,0 2136.5,0 2142.5,0 2148.5,-6 2148.5,-12 2148.5,-12 2148.5,-56 2148.5,-56 2148.5,-62 2142.5,-68 2136.5,-68"/>
<polygon fill="#add8e6" stroke="transparent" points="2000.5,-49 2000.5,-64 2140.5,-64 2140.5,-49 2000.5,-49"/>
<text text-anchor="start" x="2019.5" y="-55" font-family="Times,serif" font-style="italic" font-size="10.00" fill="#000000">node1cj6aeecqx37:UNK</text>
<text text-anchor="start" x="2007" y="-39" font-family="Times,serif" font-size="10.00" fill="#000000"> &#160;&#160;&#160;&#160;&#160;&#160;&#160;componentRank &#160;&#160;&#160;&#160;&#160;</text>
<text text-anchor="start" x="2124" y="-39" font-family="Times,serif" font-size="10.00" fill="#000000">1</text>
<text text-anchor="start" x="2002.5" y="-24" font-family="Times,serif" font-size="10.00" fill="#000000"> &#160;&#160;&#160;&#160;&#160;&#160;&#160;graphicalSeparator &#160;&#160;&#160;&#160;&#160;</text>
<text text-anchor="start" x="2115.5" y="-24" font-family="Times,serif" font-size="10.00" fill="#000000">space</text>
<text text-anchor="start" x="2012.5" y="-9" font-family="Times,serif" font-size="10.00" fill="#000000"> &#160;&#160;&#160;&#160;&#160;&#160;&#160;lmfhasLemma &#160;&#160;&#160;&#160;&#160;</text>
<text text-anchor="start" x="2122" y="-9" font-family="Times,serif" font-size="10.00" fill="#000000">de</text>
</g>
<!-- node1cj6aeecqx36&#45;&gt;node1cj6aeecqx37 -->
<g id="edge47" class="edge">
<title>node1cj6aeecqx36&#45;&gt;node1cj6aeecqx37</title>
<path fill="none" stroke="#000088" d="M2070.5,-112.755C2070.5,-102.9796 2070.5,-90.4738 2070.5,-78.3206"/>
<polygon fill="#000088" stroke="#000088" points="2070.5,-68.2625 2075.0001,-78.2625 2070.5,-73.2625 2070.5001,-78.2625 2070.5001,-78.2625 2070.5001,-78.2625 2070.5,-73.2625 2066.0001,-78.2626 2070.5,-68.2625 2070.5,-68.2625"/>
<text text-anchor="middle" x="2092.5" y="-88.6" font-family="Times,serif" font-size="8.00" fill="#000000">lmfMWELex</text>
</g>
<!-- node1cj6aeecqx39 -->
<g id="node45" class="node">
<title>node1cj6aeecqx39</title>
<path fill="none" stroke="#000000" d="M2316.5,-149C2316.5,-149 2180.5,-149 2180.5,-149 2174.5,-149 2168.5,-143 2168.5,-137 2168.5,-137 2168.5,-125 2168.5,-125 2168.5,-119 2174.5,-113 2180.5,-113 2180.5,-113 2316.5,-113 2316.5,-113 2322.5,-113 2328.5,-119 2328.5,-125 2328.5,-125 2328.5,-137 2328.5,-137 2328.5,-143 2322.5,-149 2316.5,-149"/>
<polygon fill="#add8e6" stroke="transparent" points="2176.5,-123 2176.5,-138 2320.5,-138 2320.5,-123 2176.5,-123"/>
<text text-anchor="start" x="2179" y="-129" font-family="Times,serif" font-style="italic" font-size="10.00" fill="#000000">node1cj6aeecqx39:lmfMWENode</text>
</g>
<!-- node1cj6aeecqx38&#45;&gt;node1cj6aeecqx39 -->
<g id="edge48" class="edge">
<title>node1cj6aeecqx38&#45;&gt;node1cj6aeecqx39</title>
<path fill="none" stroke="#000088" d="M2246.8484,-217.2975C2247.1534,-201.3617 2247.6016,-177.942 2247.9542,-159.5195"/>
<polygon fill="#000088" stroke="#000088" points="2248.1489,-149.3445 2252.4566,-159.4289 2248.0532,-154.3436 2247.9575,-159.3427 2247.9575,-159.3427 2247.9575,-159.3427 2248.0532,-154.3436 2243.4583,-159.2566 2248.1489,-149.3445 2248.1489,-149.3445"/>
<text text-anchor="middle" x="2278" y="-169.6" font-family="Times,serif" font-size="8.00" fill="#000000">lmfhasMWENode</text>
</g>
<!-- node1cj6aeecqx40 -->
<g id="node46" class="node">
<title>node1cj6aeecqx40</title>
<path fill="none" stroke="#000000" d="M2314.5,-68C2314.5,-68 2182.5,-68 2182.5,-68 2176.5,-68 2170.5,-62 2170.5,-56 2170.5,-56 2170.5,-12 2170.5,-12 2170.5,-6 2176.5,0 2182.5,0 2182.5,0 2314.5,0 2314.5,0 2320.5,0 2326.5,-6 2326.5,-12 2326.5,-12 2326.5,-56 2326.5,-56 2326.5,-62 2320.5,-68 2314.5,-68"/>
<polygon fill="#add8e6" stroke="transparent" points="2178.5,-49 2178.5,-64 2318.5,-64 2318.5,-49 2178.5,-49"/>
<text text-anchor="start" x="2197.5" y="-55" font-family="Times,serif" font-style="italic" font-size="10.00" fill="#000000">node1cj6aeecqx40:UNK</text>
<text text-anchor="start" x="2185" y="-39" font-family="Times,serif" font-size="10.00" fill="#000000"> &#160;&#160;&#160;&#160;&#160;&#160;&#160;componentRank &#160;&#160;&#160;&#160;&#160;</text>
<text text-anchor="start" x="2302" y="-39" font-family="Times,serif" font-size="10.00" fill="#000000">2</text>
<text text-anchor="start" x="2180.5" y="-24" font-family="Times,serif" font-size="10.00" fill="#000000"> &#160;&#160;&#160;&#160;&#160;&#160;&#160;graphicalSeparator &#160;&#160;&#160;&#160;&#160;</text>
<text text-anchor="start" x="2293.5" y="-24" font-family="Times,serif" font-size="10.00" fill="#000000">space</text>
<text text-anchor="start" x="2190.5" y="-9" font-family="Times,serif" font-size="10.00" fill="#000000"> &#160;&#160;&#160;&#160;&#160;&#160;&#160;lmfhasLemma &#160;&#160;&#160;&#160;&#160;</text>
<text text-anchor="start" x="2298.5" y="-9" font-family="Times,serif" font-size="10.00" fill="#000000">kat</text>
</g>
<!-- node1cj6aeecqx39&#45;&gt;node1cj6aeecqx40 -->
<g id="edge49" class="edge">
<title>node1cj6aeecqx39&#45;&gt;node1cj6aeecqx40</title>
<path fill="none" stroke="#000088" d="M2248.5,-112.755C2248.5,-102.9796 2248.5,-90.4738 2248.5,-78.3206"/>
<polygon fill="#000088" stroke="#000088" points="2248.5,-68.2625 2253.0001,-78.2625 2248.5,-73.2625 2248.5001,-78.2625 2248.5001,-78.2625 2248.5001,-78.2625 2248.5,-73.2625 2244.0001,-78.2626 2248.5,-68.2625 2248.5,-68.2625"/>
<text text-anchor="middle" x="2270.5" y="-88.6" font-family="Times,serif" font-size="8.00" fill="#000000">lmfMWELex</text>
</g>
<!-- node1cj6aeecqx50 -->
<g id="node48" class="node">
<title>node1cj6aeecqx50</title>
<path fill="none" stroke="#000000" d="M2381.5,-358C2381.5,-358 2245.5,-358 2245.5,-358 2239.5,-358 2233.5,-352 2233.5,-346 2233.5,-346 2233.5,-334 2233.5,-334 2233.5,-328 2239.5,-322 2245.5,-322 2245.5,-322 2381.5,-322 2381.5,-322 2387.5,-322 2393.5,-328 2393.5,-334 2393.5,-334 2393.5,-346 2393.5,-346 2393.5,-352 2387.5,-358 2381.5,-358"/>
<polygon fill="#add8e6" stroke="transparent" points="2241.5,-332 2241.5,-347 2385.5,-347 2385.5,-332 2241.5,-332"/>
<text text-anchor="start" x="2244" y="-338" font-family="Times,serif" font-style="italic" font-size="10.00" fill="#000000">node1cj6aeecqx50:lmfMWENode</text>
</g>
<!-- node1cj6aeecqx49&#45;&gt;node1cj6aeecqx50 -->
<g id="edge50" class="edge">
<title>node1cj6aeecqx49&#45;&gt;node1cj6aeecqx50</title>
<path fill="none" stroke="#000088" d="M2313.5,-418.755C2313.5,-404.5291 2313.5,-384.521 2313.5,-368.2321"/>
<polygon fill="#000088" stroke="#000088" points="2313.5,-358.1631 2318.0001,-368.1631 2313.5,-363.1631 2313.5001,-368.1631 2313.5001,-368.1631 2313.5001,-368.1631 2313.5,-363.1631 2309.0001,-368.1632 2313.5,-358.1631 2313.5,-358.1631"/>
<text text-anchor="middle" x="2343" y="-378.6" font-family="Times,serif" font-size="8.00" fill="#000000">lmfhasMWENode</text>
</g>
<!-- node1cj6aeecqx51 -->
<g id="node49" class="node">
<title>node1cj6aeecqx51</title>
<path fill="none" stroke="#000000" d="M2507.5,-277C2507.5,-277 2355.5,-277 2355.5,-277 2349.5,-277 2343.5,-271 2343.5,-265 2343.5,-265 2343.5,-206 2343.5,-206 2343.5,-200 2349.5,-194 2355.5,-194 2355.5,-194 2507.5,-194 2507.5,-194 2513.5,-194 2519.5,-200 2519.5,-206 2519.5,-206 2519.5,-265 2519.5,-265 2519.5,-271 2513.5,-277 2507.5,-277"/>
<polygon fill="#add8e6" stroke="transparent" points="2351.5,-257.5 2351.5,-272.5 2511.5,-272.5 2511.5,-257.5 2351.5,-257.5"/>
<text text-anchor="start" x="2380.5" y="-263.5" font-family="Times,serif" font-style="italic" font-size="10.00" fill="#000000">node1cj6aeecqx51:UNK</text>
<text text-anchor="start" x="2358" y="-247.5" font-family="Times,serif" font-size="10.00" fill="#000000"> &#160;&#160;&#160;&#160;&#160;&#160;&#160;componentRank &#160;&#160;&#160;&#160;&#160;</text>
<text text-anchor="start" x="2485" y="-247.5" font-family="Times,serif" font-size="10.00" fill="#000000">5</text>
<text text-anchor="start" x="2353.5" y="-232.5" font-family="Times,serif" font-size="10.00" fill="#000000"> &#160;&#160;&#160;&#160;&#160;&#160;&#160;graphicalSeparator &#160;&#160;&#160;&#160;&#160;</text>
<text text-anchor="start" x="2476.5" y="-232.5" font-family="Times,serif" font-size="10.00" fill="#000000">space</text>
<text text-anchor="start" x="2363.5" y="-217.5" font-family="Times,serif" font-size="10.00" fill="#000000"> &#160;&#160;&#160;&#160;&#160;&#160;&#160;lmfhasLemma &#160;&#160;&#160;&#160;&#160;</text>
<text text-anchor="start" x="2466.5" y="-217.5" font-family="Times,serif" font-size="10.00" fill="#000000">aanbinden</text>
<text text-anchor="start" x="2353.5" y="-202.5" font-family="Times,serif" font-size="10.00" fill="#000000"> &#160;&#160;&#160;&#160;&#160;&#160;&#160;lexinfoproposition &#160;&#160;&#160;&#160;&#160;</text>
<text text-anchor="start" x="2480.5" y="-202.5" font-family="Times,serif" font-size="10.00" fill="#000000">aan</text>
</g>
<!-- node1cj6aeecqx50&#45;&gt;node1cj6aeecqx51 -->
<g id="edge51" class="edge">
<title>node1cj6aeecqx50&#45;&gt;node1cj6aeecqx51</title>
<path fill="none" stroke="#000088" d="M2334.054,-321.7975C2345.8622,-311.3403 2361.3094,-297.6603 2376.4132,-284.2845"/>
<polygon fill="#000088" stroke="#000088" points="2384.2591,-277.3362 2379.7562,-287.335 2380.5159,-280.6512 2376.7727,-283.9661 2376.7727,-283.9661 2376.7727,-283.9661 2380.5159,-280.6512 2373.7893,-280.5973 2384.2591,-277.3362 2384.2591,-277.3362"/>
<text text-anchor="middle" x="2384.5" y="-297.6" font-family="Times,serif" font-size="8.00" fill="#000000">lmfMWELex</text>
</g>
</g>
</svg>
