<svg width="1347pt" height="490pt"
 viewBox="0.00 0.00 1346.50 490.00" xmlns="http://www.w3.org/2000/svg" xmlns:xlink="http://www.w3.org/1999/xlink">
<g id="graph0" class="graph" transform="scale(1 1) rotate(0) translate(4 486)">
<title>G</title>
<polygon fill="#ffffff" stroke="transparent" points="-4,4 -4,-486 1342.5,-486 1342.5,4 -4,4"/>
<!-- celexwform147510 -->
<g id="node1" class="node">
<title>celexwform147510</title>
<path fill="none" stroke="#000000" d="M372,-399C372,-399 202,-399 202,-399 196,-399 190,-393 190,-387 190,-387 190,-343 190,-343 190,-337 196,-331 202,-331 202,-331 372,-331 372,-331 378,-331 384,-337 384,-343 384,-343 384,-387 384,-387 384,-393 378,-399 372,-399"/>
<polygon fill="#add8e6" stroke="transparent" points="198,-380 198,-395 376,-395 376,-380 198,-380"/>
<text text-anchor="start" x="214" y="-386" font-family="Times,serif" font-style="italic" font-size="10.00" fill="#000000">celex_wform_147510:ontolexForm</text>
<text text-anchor="start" x="203.5" y="-370" font-family="Times,serif" font-size="10.00" fill="#000000"> &#160;&#160;&#160;&#160;&#160;&#160;&#160;ontolexwrittenRep &#160;&#160;&#160;&#160;&#160;</text>
<text text-anchor="start" x="323" y="-370" font-family="Times,serif" font-size="10.00" fill="#000000">kattekwaad</text>
<text text-anchor="start" x="220" y="-355" font-family="Times,serif" font-size="10.00" fill="#000000"> &#160;&#160;&#160;&#160;&#160;&#160;&#160;syllabified &#160;&#160;&#160;&#160;&#160;</text>
<text text-anchor="start" x="320" y="-355" font-family="Times,serif" font-size="10.00" fill="#000000">kat&#45;te&#45;kwaad</text>
<text text-anchor="start" x="200" y="-340" font-family="Times,serif" font-size="10.00" fill="#000000"> &#160;&#160;&#160;&#160;&#160;&#160;&#160;ontolexphoneticRep &#160;&#160;&#160;&#160;&#160;</text>
<text text-anchor="start" x="321" y="-340" font-family="Times,serif" font-size="10.00" fill="#000000">ˌkɑ&#45;tə&#45;kwaːt</text>
</g>
<!-- lexinfosingular -->
<g id="node2" class="node">
<title>lexinfosingular</title>
<path fill="none" stroke="#000000" d="M98,-36C98,-36 12,-36 12,-36 6,-36 0,-30 0,-24 0,-24 0,-12 0,-12 0,-6 6,0 12,0 12,0 98,0 98,0 104,0 110,-6 110,-12 110,-12 110,-24 110,-24 110,-30 104,-36 98,-36"/>
<polygon fill="#add8e6" stroke="transparent" points="8,-10 8,-25 102,-25 102,-10 8,-10"/>
<text text-anchor="start" x="10.5" y="-16" font-family="Times,serif" font-style="italic" font-size="10.00" fill="#000000">lexinfosingular:Class</text>
</g>
<!-- celexwform147510&#45;&gt;lexinfosingular -->
<g id="edge1" class="edge">
<title>celexwform147510&#45;&gt;lexinfosingular</title>
<path fill="none" stroke="#000088" d="M206.4963,-330.9241C154.6668,-304.2976 91.3284,-261.8775 60,-203 33.3747,-152.9612 41.0709,-84.0343 48.4294,-46.0141"/>
<polygon fill="#000088" stroke="#000088" points="50.4671,-36.1514 52.8506,-46.8551 49.4554,-41.048 48.4437,-45.9446 48.4437,-45.9446 48.4437,-45.9446 49.4554,-41.048 44.0368,-45.034 50.4671,-36.1514 50.4671,-36.1514"/>
<text text-anchor="middle" x="83.5" y="-183.1" font-family="Times,serif" font-size="8.00" fill="#000000">lexinfonumber</text>
</g>
<!-- celexcomp92555 -->
<g id="node3" class="node">
<title>celexcomp92555</title>
<path fill="none" stroke="#000000" d="M722,-383C722,-383 594,-383 594,-383 588,-383 582,-377 582,-371 582,-371 582,-359 582,-359 582,-353 588,-347 594,-347 594,-347 722,-347 722,-347 728,-347 734,-353 734,-359 734,-359 734,-371 734,-371 734,-377 728,-383 722,-383"/>
<polygon fill="#add8e6" stroke="transparent" points="590,-357 590,-372 726,-372 726,-357 590,-357"/>
<text text-anchor="start" x="592" y="-363" font-family="Times,serif" font-style="italic" font-size="10.00" fill="#000000">celex_comp_92555:Component</text>
</g>
<!-- celexlemma54132 -->
<g id="node4" class="node">
<title>celexlemma54132</title>
<path fill="none" stroke="#000000" d="M674,-259C674,-259 506,-259 506,-259 500,-259 494,-253 494,-247 494,-247 494,-233 494,-233 494,-227 500,-221 506,-221 506,-221 674,-221 674,-221 680,-221 686,-227 686,-233 686,-233 686,-247 686,-247 686,-253 680,-259 674,-259"/>
<polygon fill="#add8e6" stroke="transparent" points="502,-240 502,-255 678,-255 678,-240 502,-240"/>
<text text-anchor="start" x="504" y="-246" font-family="Times,serif" font-style="italic" font-size="10.00" fill="#000000">celex_lemma_54132:ontolexLexicalEntry</text>
<text text-anchor="start" x="526" y="-230" font-family="Times,serif" font-size="10.00" fill="#000000"> &#160;&#160;&#160;&#160;&#160;&#160;&#160;label &#160;&#160;&#160;&#160;&#160;</text>
<text text-anchor="start" x="626" y="-230" font-family="Times,serif" font-size="10.00" fill="#000000">kwaad</text>
</g>
<!-- celexcomp92555&#45;&gt;celexlemma54132 -->
<g id="edge2" class="edge">
<title>celexcomp92555&#45;&gt;celexlemma54132</title>
<path fill="none" stroke="#000088" d="M648.1122,-346.8239C636.8608,-326.1411 618.3511,-292.1161 605.2482,-268.0298"/>
<polygon fill="#000088" stroke="#000088" points="600.3456,-259.0177 609.0773,-265.6516 602.735,-263.4099 605.1244,-267.8021 605.1244,-267.8021 605.1244,-267.8021 602.735,-263.4099 601.1714,-269.9525 600.3456,-259.0177 600.3456,-259.0177"/>
<text text-anchor="middle" x="652" y="-293.1" font-family="Times,serif" font-size="8.00" fill="#000000">correspondsTo</text>
</g>
<!-- celexwform165612 -->
<g id="node5" class="node">
<title>celexwform165612</title>
<path fill="none" stroke="#000000" d="M354,-149C354,-149 210,-149 210,-149 204,-149 198,-143 198,-137 198,-137 198,-93 198,-93 198,-87 204,-81 210,-81 210,-81 354,-81 354,-81 360,-81 366,-87 366,-93 366,-93 366,-137 366,-137 366,-143 360,-149 354,-149"/>
<polygon fill="#add8e6" stroke="transparent" points="206,-130 206,-145 358,-145 358,-130 206,-130"/>
<text text-anchor="start" x="209" y="-136" font-family="Times,serif" font-style="italic" font-size="10.00" fill="#000000">celex_wform_165612:ontolexForm</text>
<text text-anchor="start" x="211.5" y="-120" font-family="Times,serif" font-size="10.00" fill="#000000"> &#160;&#160;&#160;&#160;&#160;&#160;&#160;ontolexwrittenRep &#160;&#160;&#160;&#160;&#160;</text>
<text text-anchor="start" x="328" y="-120" font-family="Times,serif" font-size="10.00" fill="#000000">kwaad</text>
<text text-anchor="start" x="228" y="-105" font-family="Times,serif" font-size="10.00" fill="#000000"> &#160;&#160;&#160;&#160;&#160;&#160;&#160;syllabified &#160;&#160;&#160;&#160;&#160;</text>
<text text-anchor="start" x="328" y="-105" font-family="Times,serif" font-size="10.00" fill="#000000">kwaad</text>
<text text-anchor="start" x="208" y="-90" font-family="Times,serif" font-size="10.00" fill="#000000"> &#160;&#160;&#160;&#160;&#160;&#160;&#160;ontolexphoneticRep &#160;&#160;&#160;&#160;&#160;</text>
<text text-anchor="start" x="328.5" y="-90" font-family="Times,serif" font-size="10.00" fill="#000000">ˌkwaːt</text>
</g>
<!-- celexlemma54132&#45;&gt;celexwform165612 -->
<g id="edge3" class="edge">
<title>celexlemma54132&#45;&gt;celexwform165612</title>
<path fill="none" stroke="#000088" d="M493.8593,-223.7445C487.1457,-222.7659 480.4761,-221.8394 474,-221 453.1897,-218.3025 300.4624,-218.2047 286,-203 275.1056,-191.5465 272.3563,-174.9965 272.951,-159.3326"/>
<polygon fill="#000088" stroke="#000088" points="273.7726,-149.2296 277.4471,-159.5614 273.3673,-154.2131 272.9619,-159.1966 272.9619,-159.1966 272.9619,-159.1966 273.3673,-154.2131 268.4767,-158.8319 273.7726,-149.2296 273.7726,-149.2296"/>
<text text-anchor="middle" x="322" y="-183.1" font-family="Times,serif" font-size="8.00" fill="#000000">ontolexcanonicalForm</text>
</g>
<!-- celexlemma54132&#45;&gt;celexwform165612 -->
<g id="edge6" class="edge">
<title>celexlemma54132&#45;&gt;celexwform165612</title>
<path fill="none" stroke="#000088" d="M493.8169,-223.9588C450.1953,-216.2409 406.2515,-207.6694 397,-203 375.9412,-192.3712 376.4495,-181.699 358,-167 353.0765,-163.0774 347.8697,-159.1313 342.5831,-155.2617"/>
<polygon fill="#000088" stroke="#000088" points="334.2392,-149.2583 344.9847,-151.4459 338.2979,-152.1785 342.3565,-155.0987 342.3565,-155.0987 342.3565,-155.0987 338.2979,-152.1785 339.7283,-158.7515 334.2392,-149.2583 334.2392,-149.2583"/>
<text text-anchor="middle" x="428.5" y="-183.1" font-family="Times,serif" font-size="8.00" fill="#000000">ontolexlexicalForm</text>
</g>
<!-- node1cj5phq1nx4 -->
<g id="node6" class="node">
<title>node1cj5phq1nx4</title>
<path fill="none" stroke="#000000" d="M825,-133C825,-133 729,-133 729,-133 723,-133 717,-127 717,-121 717,-121 717,-109 717,-109 717,-103 723,-97 729,-97 729,-97 825,-97 825,-97 831,-97 837,-103 837,-109 837,-109 837,-121 837,-121 837,-127 831,-133 825,-133"/>
<polygon fill="#add8e6" stroke="transparent" points="725,-107 725,-122 829,-122 829,-107 725,-107"/>
<text text-anchor="start" x="727.5" y="-113" font-family="Times,serif" font-style="italic" font-size="10.00" fill="#000000">node1cj5phq1nx4:UNK</text>
</g>
<!-- celexlemma54132&#45;&gt;node1cj5phq1nx4 -->
<g id="edge4" class="edge">
<title>celexlemma54132&#45;&gt;node1cj5phq1nx4</title>
<path fill="none" stroke="#000088" d="M635.7151,-220.9162C646.8887,-215.6254 658.6119,-209.5253 669,-203 698.602,-184.4055 729.2043,-158.7565 750.2414,-139.946"/>
<polygon fill="#000088" stroke="#000088" points="757.8137,-133.1005 753.4134,-143.1448 754.1047,-136.4535 750.3956,-139.8066 750.3956,-139.8066 750.3956,-139.8066 754.1047,-136.4535 747.3778,-136.4685 757.8137,-133.1005 757.8137,-133.1005"/>
<text text-anchor="middle" x="770" y="-183.1" font-family="Times,serif" font-size="8.00" fill="#000000">lexinfoMorphosyntacticProperty</text>
</g>
<!-- node1cj5phq1nx5 -->
<g id="node8" class="node">
<title>node1cj5phq1nx5</title>
<path fill="none" stroke="#000000" d="M492,-133C492,-133 396,-133 396,-133 390,-133 384,-127 384,-121 384,-121 384,-109 384,-109 384,-103 390,-97 396,-97 396,-97 492,-97 492,-97 498,-97 504,-103 504,-109 504,-109 504,-121 504,-121 504,-127 498,-133 492,-133"/>
<polygon fill="#add8e6" stroke="transparent" points="392,-107 392,-122 496,-122 496,-107 392,-107"/>
<text text-anchor="start" x="394.5" y="-113" font-family="Times,serif" font-style="italic" font-size="10.00" fill="#000000">node1cj5phq1nx5:UNK</text>
</g>
<!-- celexlemma54132&#45;&gt;node1cj5phq1nx5 -->
<g id="edge5" class="edge">
<title>celexlemma54132&#45;&gt;node1cj5phq1nx5</title>
<path fill="none" stroke="#000088" d="M517.277,-220.9644C507.0613,-216.2054 497.2496,-210.3032 489,-203 470.9475,-187.0183 459.1554,-162.0704 452.1899,-142.813"/>
<polygon fill="#000088" stroke="#000088" points="448.9798,-133.339 456.451,-141.3659 450.5844,-138.0745 452.189,-142.8101 452.189,-142.8101 452.189,-142.8101 450.5844,-138.0745 447.927,-144.2542 448.9798,-133.339 448.9798,-133.339"/>
<text text-anchor="middle" x="541" y="-183.1" font-family="Times,serif" font-size="8.00" fill="#000000">lexinfoMorphosyntacticProperty</text>
</g>
<!-- celexwform165714 -->
<g id="node10" class="node">
<title>celexwform165714</title>
<path fill="none" stroke="#000000" d="M687.5,-149C687.5,-149 534.5,-149 534.5,-149 528.5,-149 522.5,-143 522.5,-137 522.5,-137 522.5,-93 522.5,-93 522.5,-87 528.5,-81 534.5,-81 534.5,-81 687.5,-81 687.5,-81 693.5,-81 699.5,-87 699.5,-93 699.5,-93 699.5,-137 699.5,-137 699.5,-143 693.5,-149 687.5,-149"/>
<polygon fill="#add8e6" stroke="transparent" points="531,-130 531,-145 692,-145 692,-130 531,-130"/>
<text text-anchor="start" x="538.5" y="-136" font-family="Times,serif" font-style="italic" font-size="10.00" fill="#000000">celex_wform_165714:ontolexForm</text>
<text text-anchor="start" x="536.5" y="-120" font-family="Times,serif" font-size="10.00" fill="#000000"> &#160;&#160;&#160;&#160;&#160;&#160;&#160;ontolexwrittenRep &#160;&#160;&#160;&#160;&#160;</text>
<text text-anchor="start" x="655" y="-120" font-family="Times,serif" font-size="10.00" fill="#000000">kwaden</text>
<text text-anchor="start" x="553" y="-105" font-family="Times,serif" font-size="10.00" fill="#000000"> &#160;&#160;&#160;&#160;&#160;&#160;&#160;syllabified &#160;&#160;&#160;&#160;&#160;</text>
<text text-anchor="start" x="653.5" y="-105" font-family="Times,serif" font-size="10.00" fill="#000000">kwa&#45;den</text>
<text text-anchor="start" x="533" y="-90" font-family="Times,serif" font-size="10.00" fill="#000000"> &#160;&#160;&#160;&#160;&#160;&#160;&#160;ontolexphoneticRep &#160;&#160;&#160;&#160;&#160;</text>
<text text-anchor="start" x="653" y="-90" font-family="Times,serif" font-size="10.00" fill="#000000">ˌkwaː&#45;də</text>
</g>
<!-- celexlemma54132&#45;&gt;celexwform165714 -->
<g id="edge7" class="edge">
<title>celexlemma54132&#45;&gt;celexwform165714</title>
<path fill="none" stroke="#000088" d="M593.2352,-220.7427C595.9839,-204.3816 600.0353,-180.2659 603.5753,-159.1947"/>
<polygon fill="#000088" stroke="#000088" points="605.264,-149.1426 608.045,-159.75 604.4356,-154.0735 603.6072,-159.0044 603.6072,-159.0044 603.6072,-159.0044 604.4356,-154.0735 599.1694,-158.2588 605.264,-149.1426 605.264,-149.1426"/>
<text text-anchor="middle" x="633.5" y="-183.1" font-family="Times,serif" font-size="8.00" fill="#000000">ontolexlexicalForm</text>
</g>
<!-- celexwform165612&#45;&gt;lexinfosingular -->
<g id="edge8" class="edge">
<title>celexwform165612&#45;&gt;lexinfosingular</title>
<path fill="none" stroke="#000088" d="M202.2875,-80.9378C170.4948,-67.3524 134.8104,-52.104 106.529,-40.019"/>
<polygon fill="#000088" stroke="#000088" points="97.2381,-36.0489 108.202,-35.8403 101.8359,-38.0136 106.4337,-39.9783 106.4337,-39.9783 106.4337,-39.9783 101.8359,-38.0136 104.6655,-44.1164 97.2381,-36.0489 97.2381,-36.0489"/>
<text text-anchor="middle" x="178.5" y="-56.6" font-family="Times,serif" font-size="8.00" fill="#000000">lexinfonumber</text>
</g>
<!-- lexinfonoun -->
<g id="node7" class="node">
<title>lexinfonoun</title>
<path fill="none" stroke="#000000" d="M858,-36C858,-36 786,-36 786,-36 780,-36 774,-30 774,-24 774,-24 774,-12 774,-12 774,-6 780,0 786,0 786,0 858,0 858,0 864,0 870,-6 870,-12 870,-12 870,-24 870,-24 870,-30 864,-36 858,-36"/>
<polygon fill="#add8e6" stroke="transparent" points="782,-10 782,-25 862,-25 862,-10 782,-10"/>
<text text-anchor="start" x="784" y="-16" font-family="Times,serif" font-style="italic" font-size="10.00" fill="#000000">lexinfonoun:Class</text>
</g>
<!-- node1cj5phq1nx4&#45;&gt;lexinfonoun -->
<g id="edge9" class="edge">
<title>node1cj5phq1nx4&#45;&gt;lexinfonoun</title>
<path fill="none" stroke="#000088" d="M775.4913,-96.9923C775.191,-84.331 776.3633,-67.338 783,-54 784.7959,-50.3908 787.117,-46.9638 789.7313,-43.7621"/>
<polygon fill="#000088" stroke="#000088" points="796.7019,-36.2922 793.1694,-46.6736 793.2906,-39.9478 789.8794,-43.6034 789.8794,-43.6034 789.8794,-43.6034 793.2906,-39.9478 786.5893,-40.5333 796.7019,-36.2922 796.7019,-36.2922"/>
<text text-anchor="middle" x="817" y="-56.6" font-family="Times,serif" font-size="8.00" fill="#000000">lexinfopartOfSpeech</text>
</g>
<!-- lexinfoneuter -->
<g id="node9" class="node">
<title>lexinfoneuter</title>
<path fill="none" stroke="#000000" d="M285,-36C285,-36 207,-36 207,-36 201,-36 195,-30 195,-24 195,-24 195,-12 195,-12 195,-6 201,0 207,0 207,0 285,0 285,0 291,0 297,-6 297,-12 297,-12 297,-24 297,-24 297,-30 291,-36 285,-36"/>
<polygon fill="#add8e6" stroke="transparent" points="203,-10 203,-25 289,-25 289,-10 203,-10"/>
<text text-anchor="start" x="205.5" y="-16" font-family="Times,serif" font-style="italic" font-size="10.00" fill="#000000">lexinfoneuter:Class</text>
</g>
<!-- node1cj5phq1nx5&#45;&gt;lexinfoneuter -->
<g id="edge10" class="edge">
<title>node1cj5phq1nx5&#45;&gt;lexinfoneuter</title>
<path fill="none" stroke="#000088" d="M407.4861,-96.9778C397.0013,-91.8108 385.5508,-86.1758 375,-81 347.5193,-67.519 316.7172,-52.4737 292.1047,-40.4674"/>
<polygon fill="#000088" stroke="#000088" points="282.9947,-36.0243 293.9553,-36.3633 287.4887,-38.2161 291.9827,-40.408 291.9827,-40.408 291.9827,-40.408 287.4887,-38.2161 290.0101,-44.4526 282.9947,-36.0243 282.9947,-36.0243"/>
<text text-anchor="middle" x="360.5" y="-56.6" font-family="Times,serif" font-size="8.00" fill="#000000">lexinfoGender</text>
</g>
<!-- lexinfoplural -->
<g id="node11" class="node">
<title>lexinfoplural</title>
<path fill="none" stroke="#000000" d="M649,-36C649,-36 573,-36 573,-36 567,-36 561,-30 561,-24 561,-24 561,-12 561,-12 561,-6 567,0 573,0 573,0 649,0 649,0 655,0 661,-6 661,-12 661,-12 661,-24 661,-24 661,-30 655,-36 649,-36"/>
<polygon fill="#add8e6" stroke="transparent" points="569,-10 569,-25 653,-25 653,-10 569,-10"/>
<text text-anchor="start" x="571" y="-16" font-family="Times,serif" font-style="italic" font-size="10.00" fill="#000000">lexinfoplural:Class</text>
</g>
<!-- celexwform165714&#45;&gt;lexinfoplural -->
<g id="edge11" class="edge">
<title>celexwform165714&#45;&gt;lexinfoplural</title>
<path fill="none" stroke="#000088" d="M611,-80.8014C611,-69.5107 611,-57.0843 611,-46.2861"/>
<polygon fill="#000088" stroke="#000088" points="611,-36.1329 615.5001,-46.1329 611,-41.1329 611.0001,-46.1329 611.0001,-46.1329 611.0001,-46.1329 611,-41.1329 606.5001,-46.133 611,-36.1329 611,-36.1329"/>
<text text-anchor="middle" x="634.5" y="-56.6" font-family="Times,serif" font-size="8.00" fill="#000000">lexinfonumber</text>
</g>
<!-- celexlemma47843 -->
<g id="node12" class="node">
<title>celexlemma47843</title>
<path fill="none" stroke="#000000" d="M823,-482C823,-482 655,-482 655,-482 649,-482 643,-476 643,-470 643,-470 643,-456 643,-456 643,-450 649,-444 655,-444 655,-444 823,-444 823,-444 829,-444 835,-450 835,-456 835,-456 835,-470 835,-470 835,-476 829,-482 823,-482"/>
<polygon fill="#add8e6" stroke="transparent" points="651,-463 651,-478 827,-478 827,-463 651,-463"/>
<text text-anchor="start" x="653" y="-469" font-family="Times,serif" font-style="italic" font-size="10.00" fill="#000000">celex_lemma_47843:ontolexLexicalEntry</text>
<text text-anchor="start" x="670" y="-453" font-family="Times,serif" font-size="10.00" fill="#000000"> &#160;&#160;&#160;&#160;&#160;&#160;&#160;label &#160;&#160;&#160;&#160;&#160;</text>
<text text-anchor="start" x="760" y="-453" font-family="Times,serif" font-size="10.00" fill="#000000">kattekwaad</text>
</g>
<!-- celexlemma47843&#45;&gt;celexwform147510 -->
<g id="edge12" class="edge">
<title>celexlemma47843&#45;&gt;celexwform147510</title>
<path fill="none" stroke="#000088" d="M642.9193,-461.8423C517.681,-459.3248 311.7303,-451.337 288,-426 283.7327,-421.4438 281.3773,-415.7523 280.2796,-409.6897"/>
<polygon fill="#000088" stroke="#000088" points="279.5042,-399.2715 284.7341,-408.9098 279.8754,-404.2577 280.2465,-409.2439 280.2465,-409.2439 280.2465,-409.2439 279.8754,-404.2577 275.7589,-409.5779 279.5042,-399.2715 279.5042,-399.2715"/>
<text text-anchor="middle" x="324" y="-419.6" font-family="Times,serif" font-size="8.00" fill="#000000">ontolexcanonicalForm</text>
</g>
<!-- celexlemma47843&#45;&gt;celexwform147510 -->
<g id="edge15" class="edge">
<title>celexlemma47843&#45;&gt;celexwform147510</title>
<path fill="none" stroke="#000088" d="M642.8154,-457.9762C554.1048,-452.4437 429.3636,-442.1302 383,-426 368.16,-420.8371 353.2706,-412.9904 339.7962,-404.6272"/>
<polygon fill="#000088" stroke="#000088" points="331.1607,-399.0797 342.0064,-400.6985 335.3675,-401.7822 339.5742,-404.4846 339.5742,-404.4846 339.5742,-404.4846 335.3675,-401.7822 337.142,-408.2707 331.1607,-399.0797 331.1607,-399.0797"/>
<text text-anchor="middle" x="414.5" y="-419.6" font-family="Times,serif" font-size="8.00" fill="#000000">ontolexlexicalForm</text>
</g>
<!-- celexlemma47843&#45;&gt;celexcomp92555 -->
<g id="edge20" class="edge">
<title>celexlemma47843&#45;&gt;celexcomp92555</title>
<path fill="none" stroke="#000088" d="M686.7231,-443.8954C679.1314,-439.0962 672.1538,-433.1994 667,-426 660.2947,-416.6332 657.6362,-404.3627 656.8073,-393.2848"/>
<polygon fill="#000088" stroke="#000088" points="656.5007,-383.1628 661.3015,-393.0219 656.6521,-388.1605 656.8036,-393.1582 656.8036,-393.1582 656.8036,-393.1582 656.6521,-388.1605 652.3056,-393.2945 656.5007,-383.1628 656.5007,-383.1628"/>
<text text-anchor="middle" x="684.5" y="-419.6" font-family="Times,serif" font-size="8.00" fill="#000000">constituent</text>
</g>
<!-- celexlemma47843&#45;&gt;celexcomp92555 -->
<g id="edge21" class="edge">
<title>celexlemma47843&#45;&gt;celexcomp92555</title>
<path fill="none" stroke="#000088" d="M723.6242,-443.6659C717.015,-435.4121 709.1747,-425.6962 702,-417 694.9279,-408.4281 687.1192,-399.1428 680.0675,-390.8227"/>
<polygon fill="#000088" stroke="#000088" points="673.5874,-383.1963 683.4918,-387.903 676.825,-387.0066 680.0626,-390.8169 680.0626,-390.8169 680.0626,-390.8169 676.825,-387.0066 676.6333,-393.7307 673.5874,-383.1963 673.5874,-383.1963"/>
<text text-anchor="middle" x="713" y="-419.6" font-family="Times,serif" font-size="8.00" fill="#000000">_3</text>
</g>
<!-- node1cj5phq1nx1 -->
<g id="node13" class="node">
<title>node1cj5phq1nx1</title>
<path fill="none" stroke="#000000" d="M861,-313C861,-313 765,-313 765,-313 759,-313 753,-307 753,-301 753,-301 753,-289 753,-289 753,-283 759,-277 765,-277 765,-277 861,-277 861,-277 867,-277 873,-283 873,-289 873,-289 873,-301 873,-301 873,-307 867,-313 861,-313"/>
<polygon fill="#add8e6" stroke="transparent" points="761,-287 761,-302 865,-302 865,-287 761,-287"/>
<text text-anchor="start" x="763.5" y="-293" font-family="Times,serif" font-style="italic" font-size="10.00" fill="#000000">node1cj5phq1nx1:UNK</text>
</g>
<!-- celexlemma47843&#45;&gt;node1cj5phq1nx1 -->
<g id="edge13" class="edge">
<title>celexlemma47843&#45;&gt;node1cj5phq1nx1</title>
<path fill="none" stroke="#000088" d="M747.3404,-443.74C750.9179,-435.4987 755.1517,-425.7721 759,-417 773.2306,-384.5617 789.7297,-347.342 800.7086,-322.6296"/>
<polygon fill="#000088" stroke="#000088" points="804.9118,-313.1726 804.9624,-324.1384 802.881,-317.7417 800.8503,-322.3107 800.8503,-322.3107 800.8503,-322.3107 802.881,-317.7417 796.7381,-320.483 804.9118,-313.1726 804.9118,-313.1726"/>
<text text-anchor="middle" x="811" y="-419.6" font-family="Times,serif" font-size="8.00" fill="#000000">lexinfoMorphosyntacticProperty</text>
</g>
<!-- node1cj5phq1nx2 -->
<g id="node14" class="node">
<title>node1cj5phq1nx2</title>
<path fill="none" stroke="#000000" d="M224,-203C224,-203 128,-203 128,-203 122,-203 116,-197 116,-191 116,-191 116,-179 116,-179 116,-173 122,-167 128,-167 128,-167 224,-167 224,-167 230,-167 236,-173 236,-179 236,-179 236,-191 236,-191 236,-197 230,-203 224,-203"/>
<polygon fill="#add8e6" stroke="transparent" points="124,-177 124,-192 228,-192 228,-177 124,-177"/>
<text text-anchor="start" x="126.5" y="-183" font-family="Times,serif" font-style="italic" font-size="10.00" fill="#000000">node1cj5phq1nx2:UNK</text>
</g>
<!-- celexlemma47843&#45;&gt;node1cj5phq1nx2 -->
<g id="edge14" class="edge">
<title>celexlemma47843&#45;&gt;node1cj5phq1nx2</title>
<path fill="none" stroke="#000088" d="M642.7768,-452.0425C589.3134,-443.1068 522.9095,-427.1564 469,-399 428.825,-378.017 428.7763,-358.8277 393,-331 332.9793,-284.3144 258.6264,-236.2322 214.3759,-208.558"/>
<polygon fill="#000088" stroke="#000088" points="205.6734,-203.1361 216.5405,-204.6047 209.9171,-205.7801 214.1609,-208.4241 214.1609,-208.4241 214.1609,-208.4241 209.9171,-205.7801 211.7812,-212.2435 205.6734,-203.1361 205.6734,-203.1361"/>
<text text-anchor="middle" x="521" y="-363.1" font-family="Times,serif" font-size="8.00" fill="#000000">lexinfoMorphosyntacticProperty</text>
</g>
<!-- celexcomp92553 -->
<g id="node15" class="node">
<title>celexcomp92553</title>
<path fill="none" stroke="#000000" d="M1006,-383C1006,-383 878,-383 878,-383 872,-383 866,-377 866,-371 866,-371 866,-359 866,-359 866,-353 872,-347 878,-347 878,-347 1006,-347 1006,-347 1012,-347 1018,-353 1018,-359 1018,-359 1018,-371 1018,-371 1018,-377 1012,-383 1006,-383"/>
<polygon fill="#add8e6" stroke="transparent" points="874,-357 874,-372 1010,-372 1010,-357 874,-357"/>
<text text-anchor="start" x="876" y="-363" font-family="Times,serif" font-style="italic" font-size="10.00" fill="#000000">celex_comp_92553:Component</text>
</g>
<!-- celexlemma47843&#45;&gt;celexcomp92553 -->
<g id="edge16" class="edge">
<title>celexlemma47843&#45;&gt;celexcomp92553</title>
<path fill="none" stroke="#000088" d="M823.171,-443.9171C838.1848,-439.0556 853.3705,-433.1322 867,-426 885.025,-416.5677 902.7948,-402.3922 916.5102,-390.0797"/>
<polygon fill="#000088" stroke="#000088" points="924.0883,-383.0955 919.7846,-393.1816 920.4116,-386.4841 916.735,-389.8726 916.735,-389.8726 916.735,-389.8726 920.4116,-386.4841 913.6853,-386.5636 924.0883,-383.0955 924.0883,-383.0955"/>
<text text-anchor="middle" x="897.5" y="-419.6" font-family="Times,serif" font-size="8.00" fill="#000000">constituent</text>
</g>
<!-- celexlemma47843&#45;&gt;celexcomp92553 -->
<g id="edge17" class="edge">
<title>celexlemma47843&#45;&gt;celexcomp92553</title>
<path fill="none" stroke="#000088" d="M835.3225,-451.6573C870.8611,-445.7472 905.7136,-437.339 919,-426 928.7215,-417.7034 934.3418,-404.8572 937.5875,-393.0895"/>
<polygon fill="#000088" stroke="#000088" points="939.8718,-383.1672 942.0135,-393.9219 938.75,-388.0397 937.6282,-392.9123 937.6282,-392.9123 937.6282,-392.9123 938.75,-388.0397 933.2429,-391.9027 939.8718,-383.1672 939.8718,-383.1672"/>
<text text-anchor="middle" x="930" y="-419.6" font-family="Times,serif" font-size="8.00" fill="#000000">_1</text>
</g>
<!-- celexcomp92554 -->
<g id="node18" class="node">
<title>celexcomp92554</title>
<path fill="none" stroke="#000000" d="M1176,-383C1176,-383 1048,-383 1048,-383 1042,-383 1036,-377 1036,-371 1036,-371 1036,-359 1036,-359 1036,-353 1042,-347 1048,-347 1048,-347 1176,-347 1176,-347 1182,-347 1188,-353 1188,-359 1188,-359 1188,-371 1188,-371 1188,-377 1182,-383 1176,-383"/>
<polygon fill="#add8e6" stroke="transparent" points="1044,-357 1044,-372 1180,-372 1180,-357 1044,-357"/>
<text text-anchor="start" x="1046" y="-363" font-family="Times,serif" font-style="italic" font-size="10.00" fill="#000000">celex_comp_92554:Component</text>
</g>
<!-- celexlemma47843&#45;&gt;celexcomp92554 -->
<g id="edge18" class="edge">
<title>celexlemma47843&#45;&gt;celexcomp92554</title>
<path fill="none" stroke="#000088" d="M835.1104,-447.3477C867.9159,-441.4184 904.7132,-434.1172 938,-426 978.1589,-416.207 987.9966,-412.6885 1027,-399 1037.5635,-395.2927 1048.7489,-391.0515 1059.4143,-386.8509"/>
<polygon fill="#000088" stroke="#000088" points="1069.0302,-383.021 1061.405,-390.9019 1064.385,-384.8711 1059.7399,-386.7213 1059.7399,-386.7213 1059.7399,-386.7213 1064.385,-384.8711 1058.0748,-382.5406 1069.0302,-383.021 1069.0302,-383.021"/>
<text text-anchor="middle" x="989.5" y="-419.6" font-family="Times,serif" font-size="8.00" fill="#000000">constituent</text>
</g>
<!-- celexlemma47843&#45;&gt;celexcomp92554 -->
<g id="edge19" class="edge">
<title>celexlemma47843&#45;&gt;celexcomp92554</title>
<path fill="none" stroke="#000088" d="M835.1717,-454.0777C900.0207,-447.27 979.3168,-437.1812 1011,-426 1035.7922,-417.2506 1061.1114,-401.9421 1080.1978,-388.8503"/>
<polygon fill="#000088" stroke="#000088" points="1088.5044,-383.0227 1082.9026,-392.4498 1084.4113,-385.8943 1080.3181,-388.766 1080.3181,-388.766 1080.3181,-388.766 1084.4113,-385.8943 1077.7336,-385.0821 1088.5044,-383.0227 1088.5044,-383.0227"/>
<text text-anchor="middle" x="1035" y="-419.6" font-family="Times,serif" font-size="8.00" fill="#000000">_2</text>
</g>
<!-- node1cj5phq1nx1&#45;&gt;lexinfonoun -->
<g id="edge22" class="edge">
<title>node1cj5phq1nx1&#45;&gt;lexinfonoun</title>
<path fill="none" stroke="#000088" d="M818.1454,-276.7412C825.6527,-249.2741 839.4279,-195.5744 846,-149 851.3496,-111.0888 849.8884,-101.2706 851,-63 851.1161,-59.0017 852.3304,-57.7723 851,-54 849.8789,-50.8211 848.345,-47.7163 846.5641,-44.7469"/>
<polygon fill="#000088" stroke="#000088" points="840.6455,-36.3057 850.0711,-41.9102 843.516,-40.3997 846.3866,-44.4936 846.3866,-44.4936 846.3866,-44.4936 843.516,-40.3997 842.702,-47.0771 840.6455,-36.3057 840.6455,-36.3057"/>
<text text-anchor="middle" x="877" y="-183.1" font-family="Times,serif" font-size="8.00" fill="#000000">lexinfopartOfSpeech</text>
</g>
<!-- node1cj5phq1nx2&#45;&gt;lexinfoneuter -->
<g id="edge23" class="edge">
<title>node1cj5phq1nx2&#45;&gt;lexinfoneuter</title>
<path fill="none" stroke="#000088" d="M153.84,-166.7933C149.0288,-161.5984 144.6044,-155.5507 142,-149 130.8344,-120.916 127.1652,-107.3308 142,-81 151.7945,-63.6154 168.5347,-50.4797 185.7561,-40.8254"/>
<polygon fill="#000088" stroke="#000088" points="194.7714,-36.0901 188.0109,-44.7241 190.3449,-38.4152 185.9183,-40.7403 185.9183,-40.7403 185.9183,-40.7403 190.3449,-38.4152 183.8258,-36.7564 194.7714,-36.0901 194.7714,-36.0901"/>
<text text-anchor="middle" x="165.5" y="-113.1" font-family="Times,serif" font-size="8.00" fill="#000000">lexinfoGender</text>
</g>
<!-- lexinfoNoun -->
<g id="node16" class="node">
<title>lexinfoNoun</title>
<path fill="none" stroke="#000000" d="M979,-258C979,-258 905,-258 905,-258 899,-258 893,-252 893,-246 893,-246 893,-234 893,-234 893,-228 899,-222 905,-222 905,-222 979,-222 979,-222 985,-222 991,-228 991,-234 991,-234 991,-246 991,-246 991,-252 985,-258 979,-258"/>
<polygon fill="#add8e6" stroke="transparent" points="901,-232 901,-247 983,-247 983,-232 901,-232"/>
<text text-anchor="start" x="903.5" y="-238" font-family="Times,serif" font-style="italic" font-size="10.00" fill="#000000">lexinfoNoun:Class</text>
</g>
<!-- celexcomp92553&#45;&gt;lexinfoNoun -->
<g id="edge24" class="edge">
<title>celexcomp92553&#45;&gt;lexinfoNoun</title>
<path fill="none" stroke="#000088" d="M942,-346.8239C942,-326.2723 942,-292.5472 942,-268.4893"/>
<polygon fill="#000088" stroke="#000088" points="942,-258.198 946.5001,-268.198 942,-263.198 942.0001,-268.198 942.0001,-268.198 942.0001,-268.198 942,-263.198 937.5001,-268.1981 942,-258.198 942,-258.198"/>
<text text-anchor="middle" x="976" y="-293.1" font-family="Times,serif" font-size="8.00" fill="#000000">lexinfopartOfSpeech</text>
</g>
<!-- node1cj5phq1nx3 -->
<g id="node17" class="node">
<title>node1cj5phq1nx3</title>
<path fill="none" stroke="#000000" d="M1143,-259C1143,-259 1021,-259 1021,-259 1015,-259 1009,-253 1009,-247 1009,-247 1009,-233 1009,-233 1009,-227 1015,-221 1021,-221 1021,-221 1143,-221 1143,-221 1149,-221 1155,-227 1155,-233 1155,-233 1155,-247 1155,-247 1155,-253 1149,-259 1143,-259"/>
<polygon fill="#add8e6" stroke="transparent" points="1017,-240 1017,-255 1147,-255 1147,-240 1017,-240"/>
<text text-anchor="start" x="1032.5" y="-246" font-family="Times,serif" font-style="italic" font-size="10.00" fill="#000000">node1cj5phq1nx3:UNK</text>
<text text-anchor="start" x="1019" y="-230" font-family="Times,serif" font-size="10.00" fill="#000000"> &#160;&#160;&#160;&#160;&#160;&#160;&#160;ontolexwrittenRep &#160;&#160;&#160;&#160;&#160;</text>
<text text-anchor="start" x="1132" y="-230" font-family="Times,serif" font-size="10.00" fill="#000000">kat</text>
</g>
<!-- celexcomp92553&#45;&gt;node1cj5phq1nx3 -->
<g id="edge25" class="edge">
<title>celexcomp92553&#45;&gt;node1cj5phq1nx3</title>
<path fill="none" stroke="#000088" d="M969.6255,-346.9329C983.4407,-337.4356 1000.128,-325.2446 1014,-313 1030.1058,-298.7837 1046.5673,-281.2071 1059.2592,-266.8634"/>
<polygon fill="#000088" stroke="#000088" points="1065.8963,-259.2691 1062.704,-269.7601 1062.606,-263.034 1059.3156,-266.7988 1059.3156,-266.7988 1059.3156,-266.7988 1062.606,-263.034 1055.9273,-263.8375 1065.8963,-259.2691 1065.8963,-259.2691"/>
<text text-anchor="middle" x="1056" y="-293.1" font-family="Times,serif" font-size="8.00" fill="#000000">stem</text>
</g>
<!-- celexlemma124345 -->
<g id="node19" class="node">
<title>celexlemma124345</title>
<path fill="none" stroke="#000000" d="M1326.5,-259C1326.5,-259 1185.5,-259 1185.5,-259 1179.5,-259 1173.5,-253 1173.5,-247 1173.5,-247 1173.5,-233 1173.5,-233 1173.5,-227 1179.5,-221 1185.5,-221 1185.5,-221 1326.5,-221 1326.5,-221 1332.5,-221 1338.5,-227 1338.5,-233 1338.5,-233 1338.5,-247 1338.5,-247 1338.5,-253 1332.5,-259 1326.5,-259"/>
<polygon fill="#add8e6" stroke="transparent" points="1182,-240 1182,-255 1331,-255 1331,-240 1182,-240"/>
<text text-anchor="start" x="1184" y="-246" font-family="Times,serif" font-style="italic" font-size="10.00" fill="#000000">celex_lemma_124345:ontolexAffix</text>
<text text-anchor="start" x="1205" y="-230" font-family="Times,serif" font-size="10.00" fill="#000000"> &#160;&#160;&#160;&#160;&#160;&#160;&#160;label &#160;&#160;&#160;&#160;&#160;</text>
<text text-anchor="start" x="1303" y="-230" font-family="Times,serif" font-size="10.00" fill="#000000">e</text>
</g>
<!-- celexcomp92554&#45;&gt;celexlemma124345 -->
<g id="edge26" class="edge">
<title>celexcomp92554&#45;&gt;celexlemma124345</title>
<path fill="none" stroke="#000088" d="M1132.9388,-346.8239C1157.5034,-325.5005 1198.4052,-289.9955 1226.2542,-265.821"/>
<polygon fill="#000088" stroke="#000088" points="1234.0916,-259.0177 1229.4898,-268.9713 1230.3157,-262.2954 1226.5399,-265.5731 1226.5399,-265.5731 1226.5399,-265.5731 1230.3157,-262.2954 1223.59,-262.1748 1234.0916,-259.0177 1234.0916,-259.0177"/>
<text text-anchor="middle" x="1233" y="-293.1" font-family="Times,serif" font-size="8.00" fill="#000000">correspondsTo</text>
</g>
</g>
</svg>
