<svg width="864pt" height="421pt"
 viewBox="0.00 0.00 864.00 421.00" xmlns="http://www.w3.org/2000/svg" xmlns:xlink="http://www.w3.org/1999/xlink">
<g id="graph0" class="graph" transform="scale(1 1) rotate(0) translate(4 417)">
<title>G</title>
<polygon fill="#ffffff" stroke="transparent" points="-4,4 -4,-417 860,-417 860,4 -4,4"/>
<!-- q0 -->
<g id="node1" class="node">
<title>q0</title>
<path fill="none" stroke="#000000" d="M419,-151C419,-151 221,-151 221,-151 215,-151 209,-145 209,-139 209,-139 209,-110 209,-110 209,-104 215,-98 221,-98 221,-98 419,-98 419,-98 425,-98 431,-104 431,-110 431,-110 431,-139 431,-139 431,-145 425,-151 419,-151"/>
<polygon fill="#add8e6" stroke="transparent" points="217,-131.5 217,-146.5 423,-146.5 423,-131.5 217,-131.5"/>
<text text-anchor="start" x="219" y="-137.5" font-family="Times,serif" font-size="10.00" fill="#000000"> &#160;&#160;&#160;&#160;&#160;&#160;&#160;&#160;&#160;</text>
<text text-anchor="start" x="242" y="-137.5" font-family="Times,serif" font-style="italic" font-size="10.00" fill="#000000"> &#160;&#160;&#160;&#160;&#160;&#160;&#160;&#160;&#160;&#160;&#160;q0 &#160;&#160;&#160;&#160;&#160;&#160;&#160;&#160;&#160;&#160;&#160;: &#160;&#160;&#160;&#160;&#160;&#160;&#160;&#160;&#160;&#160;&#160;Quotation &#160;&#160;&#160;&#160;&#160;&#160;&#160;&#160;&#160;</text>
<text text-anchor="start" x="402" y="-137.5" font-family="Times,serif" font-size="10.00" fill="#000000"> &#160;&#160;&#160;&#160;&#160;&#160;&#160;</text>
<text text-anchor="start" x="219.5" y="-121.5" font-family="Times,serif" font-size="10.00" fill="#000000"> &#160;&#160;&#160;&#160;&#160;&#160;&#160;quotationText &#160;&#160;&#160;&#160;&#160;</text>
<text text-anchor="start" x="321" y="-121.5" font-family="Times,serif" font-size="10.00" fill="#000000"> &#160;&#160;&#160;&#160;&#160;&#160;&#160;de koei zei boe &#160;&#160;&#160;&#160;&#160;</text>
<text text-anchor="start" x="240.5" y="-106.5" font-family="Times,serif" font-size="10.00" fill="#000000"> &#160;&#160;&#160;&#160;&#160;&#160;&#160;title &#160;&#160;&#160;&#160;&#160;</text>
<text text-anchor="start" x="315.5" y="-106.5" font-family="Times,serif" font-size="10.00" fill="#000000"> &#160;&#160;&#160;&#160;&#160;&#160;&#160;Over pissebedden &#160;&#160;&#160;&#160;&#160;</text>
</g>
<!-- t0 -->
<g id="node2" class="node">
<title>t0</title>
<path fill="none" stroke="#000000" d="M184,-45.5C184,-45.5 12,-45.5 12,-45.5 6,-45.5 0,-39.5 0,-33.5 0,-33.5 0,-19.5 0,-19.5 0,-13.5 6,-7.5 12,-7.5 12,-7.5 184,-7.5 184,-7.5 190,-7.5 196,-13.5 196,-19.5 196,-19.5 196,-33.5 196,-33.5 196,-39.5 190,-45.5 184,-45.5"/>
<polygon fill="#add8e6" stroke="transparent" points="8,-26.5 8,-41.5 188,-41.5 188,-26.5 8,-26.5"/>
<text text-anchor="start" x="10" y="-32.5" font-family="Times,serif" font-size="10.00" fill="#000000"> &#160;&#160;&#160;&#160;&#160;&#160;&#160;&#160;&#160;</text>
<text text-anchor="start" x="33" y="-32.5" font-family="Times,serif" font-style="italic" font-size="10.00" fill="#000000"> &#160;&#160;&#160;&#160;&#160;&#160;&#160;&#160;&#160;&#160;&#160;t0 &#160;&#160;&#160;&#160;&#160;&#160;&#160;&#160;&#160;&#160;&#160;: &#160;&#160;&#160;&#160;&#160;&#160;&#160;&#160;&#160;&#160;&#160;Title &#160;&#160;&#160;&#160;&#160;&#160;&#160;&#160;&#160;</text>
<text text-anchor="start" x="167" y="-32.5" font-family="Times,serif" font-size="10.00" fill="#000000"> &#160;&#160;&#160;&#160;&#160;&#160;&#160;</text>
<text text-anchor="start" x="12.5" y="-16.5" font-family="Times,serif" font-size="10.00" fill="#000000"> &#160;&#160;&#160;&#160;&#160;&#160;&#160;title &#160;&#160;&#160;&#160;&#160;</text>
<text text-anchor="start" x="71" y="-16.5" font-family="Times,serif" font-size="10.00" fill="#000000"> &#160;&#160;&#160;&#160;&#160;&#160;&#160;Hinderlijke diertjes &#160;&#160;&#160;&#160;&#160;</text>
</g>
<!-- q0&#45;&gt;t0 -->
<g id="edge1" class="edge">
<title>q0&#45;&gt;t0</title>
<path fill="none" stroke="#000088" d="M259.9236,-97.9798C225.7965,-82.9147 183.4701,-64.23 150.6516,-49.7426"/>
<polygon fill="#000088" stroke="#000088" points="141.2277,-45.5825 152.1933,-45.5043 145.8019,-47.6018 150.376,-49.621 150.376,-49.621 150.376,-49.621 145.8019,-47.6018 148.5587,-53.7377 141.2277,-45.5825 141.2277,-45.5825"/>
<text text-anchor="middle" x="243" y="-73.6" font-family="Times,serif" font-size="8.00" fill="#000000">containedInTitle</text>
</g>
<!-- w0 -->
<g id="node3" class="node">
<title>w0</title>
<path fill="none" stroke="#000000" d="M414.5,-53C414.5,-53 225.5,-53 225.5,-53 219.5,-53 213.5,-47 213.5,-41 213.5,-41 213.5,-12 213.5,-12 213.5,-6 219.5,0 225.5,0 225.5,0 414.5,0 414.5,0 420.5,0 426.5,-6 426.5,-12 426.5,-12 426.5,-41 426.5,-41 426.5,-47 420.5,-53 414.5,-53"/>
<polygon fill="#add8e6" stroke="transparent" points="222,-33.5 222,-48.5 419,-48.5 419,-33.5 222,-33.5"/>
<text text-anchor="start" x="224" y="-39.5" font-family="Times,serif" font-size="10.00" fill="#000000"> &#160;&#160;&#160;&#160;&#160;&#160;&#160;&#160;&#160;</text>
<text text-anchor="start" x="247" y="-39.5" font-family="Times,serif" font-style="italic" font-size="10.00" fill="#000000"> &#160;&#160;&#160;&#160;&#160;&#160;&#160;&#160;&#160;&#160;&#160;w0 &#160;&#160;&#160;&#160;&#160;&#160;&#160;&#160;&#160;&#160;&#160;: &#160;&#160;&#160;&#160;&#160;&#160;&#160;&#160;&#160;&#160;&#160;Witness &#160;&#160;&#160;&#160;&#160;&#160;&#160;&#160;&#160;</text>
<text text-anchor="start" x="398" y="-39.5" font-family="Times,serif" font-size="10.00" fill="#000000"> &#160;&#160;&#160;&#160;&#160;&#160;&#160;</text>
<text text-anchor="start" x="240.5" y="-23.5" font-family="Times,serif" font-size="10.00" fill="#000000"> &#160;&#160;&#160;&#160;&#160;&#160;&#160;yearFrom &#160;&#160;&#160;&#160;&#160;</text>
<text text-anchor="start" x="347.5" y="-23.5" font-family="Times,serif" font-size="10.00" fill="#000000"> &#160;&#160;&#160;&#160;&#160;&#160;&#160;1810 &#160;&#160;&#160;&#160;&#160;</text>
<text text-anchor="start" x="245" y="-8.5" font-family="Times,serif" font-size="10.00" fill="#000000"> &#160;&#160;&#160;&#160;&#160;&#160;&#160;yearTo &#160;&#160;&#160;&#160;&#160;</text>
<text text-anchor="start" x="347.5" y="-8.5" font-family="Times,serif" font-size="10.00" fill="#000000"> &#160;&#160;&#160;&#160;&#160;&#160;&#160;1812 &#160;&#160;&#160;&#160;&#160;</text>
</g>
<!-- q0&#45;&gt;w0 -->
<g id="edge2" class="edge">
<title>q0&#45;&gt;w0</title>
<path fill="none" stroke="#000088" d="M320,-97.9798C320,-87.3034 320,-74.8091 320,-63.2792"/>
<polygon fill="#000088" stroke="#000088" points="320,-53.0414 324.5001,-63.0414 320,-58.0414 320.0001,-63.0414 320.0001,-63.0414 320.0001,-63.0414 320,-58.0414 315.5001,-63.0415 320,-53.0414 320,-53.0414"/>
<text text-anchor="middle" x="332.5" y="-73.6" font-family="Times,serif" font-size="8.00" fill="#000000">witness</text>
</g>
<!-- p0 -->
<g id="node4" class="node">
<title>p0</title>
<path fill="none" stroke="#000000" d="M664,-53C664,-53 456,-53 456,-53 450,-53 444,-47 444,-41 444,-41 444,-12 444,-12 444,-6 450,0 456,0 456,0 664,0 664,0 670,0 676,-6 676,-12 676,-12 676,-41 676,-41 676,-47 670,-53 664,-53"/>
<polygon fill="#add8e6" stroke="transparent" points="452,-33.5 452,-48.5 668,-48.5 668,-33.5 452,-33.5"/>
<text text-anchor="start" x="454" y="-39.5" font-family="Times,serif" font-size="10.00" fill="#000000"> &#160;&#160;&#160;&#160;&#160;&#160;&#160;&#160;&#160;</text>
<text text-anchor="start" x="477" y="-39.5" font-family="Times,serif" font-style="italic" font-size="10.00" fill="#000000"> &#160;&#160;&#160;&#160;&#160;&#160;&#160;&#160;&#160;&#160;&#160;p0 &#160;&#160;&#160;&#160;&#160;&#160;&#160;&#160;&#160;&#160;&#160;: &#160;&#160;&#160;&#160;&#160;&#160;&#160;&#160;&#160;&#160;&#160;PlatonicText &#160;&#160;&#160;&#160;&#160;&#160;&#160;&#160;&#160;</text>
<text text-anchor="start" x="647" y="-39.5" font-family="Times,serif" font-size="10.00" fill="#000000"> &#160;&#160;&#160;&#160;&#160;&#160;&#160;</text>
<text text-anchor="start" x="475" y="-23.5" font-family="Times,serif" font-size="10.00" fill="#000000"> &#160;&#160;&#160;&#160;&#160;&#160;&#160;yearFrom &#160;&#160;&#160;&#160;&#160;</text>
<text text-anchor="start" x="591.5" y="-23.5" font-family="Times,serif" font-size="10.00" fill="#000000"> &#160;&#160;&#160;&#160;&#160;&#160;&#160;1810 &#160;&#160;&#160;&#160;&#160;</text>
<text text-anchor="start" x="479.5" y="-8.5" font-family="Times,serif" font-size="10.00" fill="#000000"> &#160;&#160;&#160;&#160;&#160;&#160;&#160;yearTo &#160;&#160;&#160;&#160;&#160;</text>
<text text-anchor="start" x="591.5" y="-8.5" font-family="Times,serif" font-size="10.00" fill="#000000"> &#160;&#160;&#160;&#160;&#160;&#160;&#160;1812 &#160;&#160;&#160;&#160;&#160;</text>
</g>
<!-- q0&#45;&gt;p0 -->
<g id="edge3" class="edge">
<title>q0&#45;&gt;p0</title>
<path fill="none" stroke="#000088" d="M384.9475,-97.9798C416.0296,-85.2879 453.4029,-70.0271 485.6213,-56.8713"/>
<polygon fill="#000088" stroke="#000088" points="495.0006,-53.0414 487.4439,-60.9879 490.3717,-54.9316 485.7427,-56.8218 485.7427,-56.8218 485.7427,-56.8218 490.3717,-54.9316 484.0415,-52.6557 495.0006,-53.0414 495.0006,-53.0414"/>
<text text-anchor="middle" x="468.5" y="-73.6" font-family="Times,serif" font-size="8.00" fill="#000000">platonicText</text>
</g>
<!-- e0 -->
<g id="node5" class="node">
<title>e0</title>
<path fill="none" stroke="#000000" d="M642,-413C642,-413 434,-413 434,-413 428,-413 422,-407 422,-401 422,-401 422,-389 422,-389 422,-383 428,-377 434,-377 434,-377 642,-377 642,-377 648,-377 654,-383 654,-389 654,-389 654,-401 654,-401 654,-407 648,-413 642,-413"/>
<polygon fill="#add8e6" stroke="transparent" points="430,-387 430,-402 646,-402 646,-387 430,-387"/>
<text text-anchor="start" x="432.5" y="-393" font-family="Times,serif" font-size="10.00" fill="#000000"> &#160;&#160;&#160;&#160;&#160;&#160;&#160;&#160;&#160;</text>
<text text-anchor="start" x="455.5" y="-393" font-family="Times,serif" font-style="italic" font-size="10.00" fill="#000000"> &#160;&#160;&#160;&#160;&#160;&#160;&#160;&#160;&#160;&#160;&#160;e0 &#160;&#160;&#160;&#160;&#160;&#160;&#160;&#160;&#160;&#160;&#160;: &#160;&#160;&#160;&#160;&#160;&#160;&#160;&#160;&#160;&#160;&#160;LexicalEntry &#160;&#160;&#160;&#160;&#160;&#160;&#160;&#160;&#160;</text>
<text text-anchor="start" x="624.5" y="-393" font-family="Times,serif" font-size="10.00" fill="#000000"> &#160;&#160;&#160;&#160;&#160;&#160;&#160;</text>
</g>
<!-- s0 -->
<g id="node6" class="node">
<title>s0</title>
<path fill="none" stroke="#000000" d="M407.5,-332C407.5,-332 200.5,-332 200.5,-332 194.5,-332 188.5,-326 188.5,-320 188.5,-320 188.5,-306 188.5,-306 188.5,-300 194.5,-294 200.5,-294 200.5,-294 407.5,-294 407.5,-294 413.5,-294 419.5,-300 419.5,-306 419.5,-306 419.5,-320 419.5,-320 419.5,-326 413.5,-332 407.5,-332"/>
<polygon fill="#add8e6" stroke="transparent" points="197,-313 197,-328 412,-328 412,-313 197,-313"/>
<text text-anchor="start" x="199" y="-319" font-family="Times,serif" font-size="10.00" fill="#000000"> &#160;&#160;&#160;&#160;&#160;&#160;&#160;&#160;&#160;</text>
<text text-anchor="start" x="222" y="-319" font-family="Times,serif" font-style="italic" font-size="10.00" fill="#000000"> &#160;&#160;&#160;&#160;&#160;&#160;&#160;&#160;&#160;&#160;&#160;s0 &#160;&#160;&#160;&#160;&#160;&#160;&#160;&#160;&#160;&#160;&#160;: &#160;&#160;&#160;&#160;&#160;&#160;&#160;&#160;&#160;&#160;&#160;LexicalSense &#160;&#160;&#160;&#160;&#160;&#160;&#160;&#160;&#160;</text>
<text text-anchor="start" x="391" y="-319" font-family="Times,serif" font-size="10.00" fill="#000000"> &#160;&#160;&#160;&#160;&#160;&#160;&#160;</text>
<text text-anchor="start" x="204" y="-303" font-family="Times,serif" font-size="10.00" fill="#000000"> &#160;&#160;&#160;&#160;&#160;&#160;&#160;definition &#160;&#160;&#160;&#160;&#160;</text>
<text text-anchor="start" x="291" y="-303" font-family="Times,serif" font-size="10.00" fill="#000000"> &#160;&#160;&#160;&#160;&#160;&#160;&#160;De koe is een nuttig &#160;&#160;&#160;&#160;&#160;</text>
</g>
<!-- e0&#45;&gt;s0 -->
<g id="edge4" class="edge">
<title>e0&#45;&gt;s0</title>
<path fill="none" stroke="#000088" d="M486.358,-376.9032C451.5169,-364.6939 405.2907,-348.495 368.0985,-335.4619"/>
<polygon fill="#000088" stroke="#000088" points="358.3588,-332.0488 369.2843,-331.1092 363.0774,-333.7024 367.7961,-335.356 367.7961,-335.356 367.7961,-335.356 363.0774,-333.7024 366.3079,-339.6028 358.3588,-332.0488 358.3588,-332.0488"/>
<text text-anchor="middle" x="445" y="-352.6" font-family="Times,serif" font-size="8.00" fill="#000000">sense</text>
</g>
<!-- l0 -->
<g id="node8" class="node">
<title>l0</title>
<path fill="none" stroke="#000000" d="M626,-332C626,-332 450,-332 450,-332 444,-332 438,-326 438,-320 438,-320 438,-306 438,-306 438,-300 444,-294 450,-294 450,-294 626,-294 626,-294 632,-294 638,-300 638,-306 638,-306 638,-320 638,-320 638,-326 632,-332 626,-332"/>
<polygon fill="#add8e6" stroke="transparent" points="446,-313 446,-328 630,-328 630,-313 446,-313"/>
<text text-anchor="start" x="448" y="-319" font-family="Times,serif" font-size="10.00" fill="#000000"> &#160;&#160;&#160;&#160;&#160;&#160;&#160;&#160;&#160;</text>
<text text-anchor="start" x="471" y="-319" font-family="Times,serif" font-style="italic" font-size="10.00" fill="#000000"> &#160;&#160;&#160;&#160;&#160;&#160;&#160;&#160;&#160;&#160;&#160;l0 &#160;&#160;&#160;&#160;&#160;&#160;&#160;&#160;&#160;&#160;&#160;: &#160;&#160;&#160;&#160;&#160;&#160;&#160;&#160;&#160;&#160;&#160;Form &#160;&#160;&#160;&#160;&#160;&#160;&#160;&#160;&#160;</text>
<text text-anchor="start" x="609" y="-319" font-family="Times,serif" font-size="10.00" fill="#000000"> &#160;&#160;&#160;&#160;&#160;&#160;&#160;</text>
<text text-anchor="start" x="460.5" y="-303" font-family="Times,serif" font-size="10.00" fill="#000000"> &#160;&#160;&#160;&#160;&#160;&#160;&#160;writtenRep &#160;&#160;&#160;&#160;&#160;</text>
<text text-anchor="start" x="568" y="-303" font-family="Times,serif" font-size="10.00" fill="#000000"> &#160;&#160;&#160;&#160;&#160;&#160;&#160;koe &#160;&#160;&#160;&#160;&#160;</text>
</g>
<!-- e0&#45;&gt;l0 -->
<g id="edge5" class="edge">
<title>e0&#45;&gt;l0</title>
<path fill="none" stroke="#000088" d="M538,-376.8015C538,-366.6144 538,-353.6734 538,-342.1128"/>
<polygon fill="#000088" stroke="#000088" points="538,-332.0024 542.5001,-342.0024 538,-337.0024 538.0001,-342.0024 538.0001,-342.0024 538.0001,-342.0024 538,-337.0024 533.5001,-342.0025 538,-332.0024 538,-332.0024"/>
<text text-anchor="middle" x="562.5" y="-352.6" font-family="Times,serif" font-size="8.00" fill="#000000">canonicalForm</text>
</g>
<!-- f0 -->
<g id="node9" class="node">
<title>f0</title>
<path fill="none" stroke="#000000" d="M844,-332C844,-332 668,-332 668,-332 662,-332 656,-326 656,-320 656,-320 656,-306 656,-306 656,-300 662,-294 668,-294 668,-294 844,-294 844,-294 850,-294 856,-300 856,-306 856,-306 856,-320 856,-320 856,-326 850,-332 844,-332"/>
<polygon fill="#add8e6" stroke="transparent" points="664,-313 664,-328 848,-328 848,-313 664,-313"/>
<text text-anchor="start" x="666" y="-319" font-family="Times,serif" font-size="10.00" fill="#000000"> &#160;&#160;&#160;&#160;&#160;&#160;&#160;&#160;&#160;</text>
<text text-anchor="start" x="689" y="-319" font-family="Times,serif" font-style="italic" font-size="10.00" fill="#000000"> &#160;&#160;&#160;&#160;&#160;&#160;&#160;&#160;&#160;&#160;&#160;f0 &#160;&#160;&#160;&#160;&#160;&#160;&#160;&#160;&#160;&#160;&#160;: &#160;&#160;&#160;&#160;&#160;&#160;&#160;&#160;&#160;&#160;&#160;Form &#160;&#160;&#160;&#160;&#160;&#160;&#160;&#160;&#160;</text>
<text text-anchor="start" x="827" y="-319" font-family="Times,serif" font-size="10.00" fill="#000000"> &#160;&#160;&#160;&#160;&#160;&#160;&#160;</text>
<text text-anchor="start" x="677" y="-303" font-family="Times,serif" font-size="10.00" fill="#000000"> &#160;&#160;&#160;&#160;&#160;&#160;&#160;writtenForm &#160;&#160;&#160;&#160;&#160;</text>
<text text-anchor="start" x="785" y="-303" font-family="Times,serif" font-size="10.00" fill="#000000"> &#160;&#160;&#160;&#160;&#160;&#160;&#160;koei &#160;&#160;&#160;&#160;&#160;</text>
</g>
<!-- e0&#45;&gt;f0 -->
<g id="edge6" class="edge">
<title>e0&#45;&gt;f0</title>
<path fill="none" stroke="#000088" d="M586.1109,-376.9032C618.4316,-364.7459 661.2689,-348.6328 695.8416,-335.6284"/>
<polygon fill="#000088" stroke="#000088" points="705.3581,-332.0488 697.5826,-339.7814 700.6782,-333.8092 695.9983,-335.5695 695.9983,-335.5695 695.9983,-335.5695 700.6782,-333.8092 694.414,-331.3576 705.3581,-332.0488 705.3581,-332.0488"/>
<text text-anchor="middle" x="673" y="-352.6" font-family="Times,serif" font-size="8.00" fill="#000000">lexicalForm</text>
</g>
<!-- s0&#45;&gt;q0 -->
<g id="edge8" class="edge">
<title>s0&#45;&gt;q0</title>
<path fill="none" stroke="#000088" d="M305.3437,-293.9406C307.0051,-270.7754 309.9844,-230.5017 313,-196 313.9793,-184.795 315.1374,-172.6118 316.2266,-161.53"/>
<polygon fill="#000088" stroke="#000088" points="317.2418,-151.3105 320.7311,-161.7064 316.7475,-156.2861 316.2532,-161.2616 316.2532,-161.2616 316.2532,-161.2616 316.7475,-156.2861 311.7752,-160.8167 317.2418,-151.3105 317.2418,-151.3105"/>
<text text-anchor="middle" x="325.5" y="-220.6" font-family="Times,serif" font-size="8.00" fill="#000000">citation</text>
</g>
<!-- a0 -->
<g id="node7" class="node">
<title>a0</title>
<path fill="none" stroke="#000000" d="M560.5,-249C560.5,-249 359.5,-249 359.5,-249 353.5,-249 347.5,-243 347.5,-237 347.5,-237 347.5,-208 347.5,-208 347.5,-202 353.5,-196 359.5,-196 359.5,-196 560.5,-196 560.5,-196 566.5,-196 572.5,-202 572.5,-208 572.5,-208 572.5,-237 572.5,-237 572.5,-243 566.5,-249 560.5,-249"/>
<polygon fill="#add8e6" stroke="transparent" points="356,-229.5 356,-244.5 565,-244.5 565,-229.5 356,-229.5"/>
<text text-anchor="start" x="358" y="-235.5" font-family="Times,serif" font-size="10.00" fill="#000000"> &#160;&#160;&#160;&#160;&#160;&#160;&#160;&#160;&#160;</text>
<text text-anchor="start" x="381" y="-235.5" font-family="Times,serif" font-style="italic" font-size="10.00" fill="#000000"> &#160;&#160;&#160;&#160;&#160;&#160;&#160;&#160;&#160;&#160;&#160;a0 &#160;&#160;&#160;&#160;&#160;&#160;&#160;&#160;&#160;&#160;&#160;: &#160;&#160;&#160;&#160;&#160;&#160;&#160;&#160;&#160;&#160;&#160;Attestation &#160;&#160;&#160;&#160;&#160;&#160;&#160;&#160;&#160;</text>
<text text-anchor="start" x="544" y="-235.5" font-family="Times,serif" font-size="10.00" fill="#000000"> &#160;&#160;&#160;&#160;&#160;&#160;&#160;</text>
<text text-anchor="start" x="379" y="-219.5" font-family="Times,serif" font-size="10.00" fill="#000000"> &#160;&#160;&#160;&#160;&#160;&#160;&#160;beginIndex &#160;&#160;&#160;&#160;&#160;</text>
<text text-anchor="start" x="504.5" y="-219.5" font-family="Times,serif" font-size="10.00" fill="#000000"> &#160;&#160;&#160;&#160;&#160;&#160;&#160;3 &#160;&#160;&#160;&#160;&#160;</text>
<text text-anchor="start" x="383.5" y="-204.5" font-family="Times,serif" font-size="10.00" fill="#000000"> &#160;&#160;&#160;&#160;&#160;&#160;&#160;endIndex &#160;&#160;&#160;&#160;&#160;</text>
<text text-anchor="start" x="504.5" y="-204.5" font-family="Times,serif" font-size="10.00" fill="#000000"> &#160;&#160;&#160;&#160;&#160;&#160;&#160;6 &#160;&#160;&#160;&#160;&#160;</text>
</g>
<!-- s0&#45;&gt;a0 -->
<g id="edge7" class="edge">
<title>s0&#45;&gt;a0</title>
<path fill="none" stroke="#000088" d="M337.0836,-293.8073C356.9018,-282.3101 382.5886,-267.4085 405.3523,-254.2027"/>
<polygon fill="#000088" stroke="#000088" points="414.2424,-249.0453 407.8506,-257.9558 409.9174,-251.5543 405.5925,-254.0634 405.5925,-254.0634 405.5925,-254.0634 409.9174,-251.5543 403.3344,-250.1709 414.2424,-249.0453 414.2424,-249.0453"/>
<text text-anchor="middle" x="399" y="-269.6" font-family="Times,serif" font-size="8.00" fill="#000000">attestation</text>
</g>
<!-- a0&#45;&gt;q0 -->
<g id="edge9" class="edge">
<title>a0&#45;&gt;q0</title>
<path fill="none" stroke="#000088" d="M422.114,-195.9798C404.9944,-183.9961 384.6029,-169.7221 366.5603,-157.0922"/>
<polygon fill="#000088" stroke="#000088" points="357.9163,-151.0414 368.6892,-153.0895 362.0125,-153.9087 366.1086,-156.7761 366.1086,-156.7761 366.1086,-156.7761 362.0125,-153.9087 363.528,-160.4626 357.9163,-151.0414 357.9163,-151.0414"/>
<text text-anchor="middle" x="401.5" y="-171.6" font-family="Times,serif" font-size="8.00" fill="#000000">text</text>
</g>
<!-- f0&#45;&gt;a0 -->
<g id="edge10" class="edge">
<title>f0&#45;&gt;a0</title>
<path fill="none" stroke="#000088" d="M693.5877,-293.9179C653.8455,-281.767 601.5584,-265.7805 556.5313,-252.0138"/>
<polygon fill="#000088" stroke="#000088" points="546.7447,-249.0216 557.6235,-247.6421 551.5262,-250.4836 556.3077,-251.9455 556.3077,-251.9455 556.3077,-251.9455 551.5262,-250.4836 554.992,-256.2489 546.7447,-249.0216 546.7447,-249.0216"/>
<text text-anchor="middle" x="651" y="-269.6" font-family="Times,serif" font-size="8.00" fill="#000000">attestation</text>
</g>
</g>
</svg>
