<svg width="1763pt" height="490pt"
 viewBox="0.00 0.00 1762.50 490.00" xmlns="http://www.w3.org/2000/svg" xmlns:xlink="http://www.w3.org/1999/xlink">
<g id="graph0" class="graph" transform="scale(1 1) rotate(0) translate(4 486)">
<title>G</title>
<polygon fill="#ffffff" stroke="transparent" points="-4,4 -4,-486 1758.5,-486 1758.5,4 -4,4"/>
<!-- celexwform147510 -->
<g id="node1" class="node">
<title>celexwform147510</title>
<path fill="none" stroke="#000000" d="M569.5,-399C569.5,-399 362.5,-399 362.5,-399 356.5,-399 350.5,-393 350.5,-387 350.5,-387 350.5,-343 350.5,-343 350.5,-337 356.5,-331 362.5,-331 362.5,-331 569.5,-331 569.5,-331 575.5,-331 581.5,-337 581.5,-343 581.5,-343 581.5,-387 581.5,-387 581.5,-393 575.5,-399 569.5,-399"/>
<polygon fill="#add8e6" stroke="transparent" points="359,-380 359,-395 574,-395 574,-380 359,-380"/>
<text text-anchor="start" x="361" y="-386" font-family="Times,serif" font-size="10.00" fill="#000000"> &#160;&#160;&#160;&#160;&#160;&#160;&#160;&#160;&#160;</text>
<text text-anchor="start" x="384" y="-386" font-family="Times,serif" font-style="italic" font-size="10.00" fill="#000000">celex_wform_147510:ontolexForm &#160;&#160;&#160;&#160;&#160;&#160;&#160;&#160;&#160;</text>
<text text-anchor="start" x="553" y="-386" font-family="Times,serif" font-size="10.00" fill="#000000"> &#160;&#160;&#160;&#160;&#160;&#160;&#160;</text>
<text text-anchor="start" x="365" y="-370" font-family="Times,serif" font-size="10.00" fill="#000000"> &#160;&#160;&#160;&#160;&#160;&#160;&#160;ontolexwrittenRep &#160;&#160;&#160;&#160;&#160;</text>
<text text-anchor="start" x="487.5" y="-370" font-family="Times,serif" font-size="10.00" fill="#000000"> &#160;&#160;&#160;&#160;&#160;&#160;&#160;kattekwaad &#160;&#160;&#160;&#160;&#160;</text>
<text text-anchor="start" x="381.5" y="-355" font-family="Times,serif" font-size="10.00" fill="#000000"> &#160;&#160;&#160;&#160;&#160;&#160;&#160;syllabified &#160;&#160;&#160;&#160;&#160;</text>
<text text-anchor="start" x="484.5" y="-355" font-family="Times,serif" font-size="10.00" fill="#000000"> &#160;&#160;&#160;&#160;&#160;&#160;&#160;kat&#45;te&#45;kwaad &#160;&#160;&#160;&#160;&#160;</text>
<text text-anchor="start" x="361.5" y="-340" font-family="Times,serif" font-size="10.00" fill="#000000"> &#160;&#160;&#160;&#160;&#160;&#160;&#160;ontolexphoneticRep &#160;&#160;&#160;&#160;&#160;</text>
<text text-anchor="start" x="482.5" y="-340" font-family="Times,serif" font-size="10.00" fill="#000000"> &#160;&#160;&#160;&#160;&#160;&#160;&#160;ˌkɑ&#45;tə&#45;kwaːt &#160;&#160;&#160;&#160;&#160;</text>
</g>
<!-- lexinfosingular -->
<g id="node2" class="node">
<title>lexinfosingular</title>
<path fill="none" stroke="#000000" d="M162,-36C162,-36 12,-36 12,-36 6,-36 0,-30 0,-24 0,-24 0,-12 0,-12 0,-6 6,0 12,0 12,0 162,0 162,0 168,0 174,-6 174,-12 174,-12 174,-24 174,-24 174,-30 168,-36 162,-36"/>
<polygon fill="#add8e6" stroke="transparent" points="8,-10 8,-25 166,-25 166,-10 8,-10"/>
<text text-anchor="start" x="10" y="-16" font-family="Times,serif" font-size="10.00" fill="#000000"> &#160;&#160;&#160;&#160;&#160;&#160;&#160;&#160;&#160;</text>
<text text-anchor="start" x="33" y="-16" font-family="Times,serif" font-style="italic" font-size="10.00" fill="#000000">lexinfosingular:Class &#160;&#160;&#160;&#160;&#160;&#160;&#160;&#160;&#160;</text>
<text text-anchor="start" x="145" y="-16" font-family="Times,serif" font-size="10.00" fill="#000000"> &#160;&#160;&#160;&#160;&#160;&#160;&#160;</text>
</g>
<!-- celexwform147510&#45;&gt;lexinfosingular -->
<g id="edge1" class="edge">
<title>celexwform147510&#45;&gt;lexinfosingular</title>
<path fill="none" stroke="#000088" d="M350.1127,-339.2039C274.0974,-316.2173 178.7837,-274.7472 123,-203 87.2936,-157.0755 83.8189,-85.7135 85.0288,-46.3943"/>
<polygon fill="#000088" stroke="#000088" points="85.4714,-36.2018 89.5332,-46.3876 85.2544,-41.1971 85.0375,-46.1924 85.0375,-46.1924 85.0375,-46.1924 85.2544,-41.1971 80.5417,-45.9971 85.4714,-36.2018 85.4714,-36.2018"/>
<text text-anchor="middle" x="146.5" y="-183.1" font-family="Times,serif" font-size="8.00" fill="#000000">lexinfonumber</text>
</g>
<!-- celexcomp92555 -->
<g id="node3" class="node">
<title>celexcomp92555</title>
<path fill="none" stroke="#000000" d="M994,-383C994,-383 802,-383 802,-383 796,-383 790,-377 790,-371 790,-371 790,-359 790,-359 790,-353 796,-347 802,-347 802,-347 994,-347 994,-347 1000,-347 1006,-353 1006,-359 1006,-359 1006,-371 1006,-371 1006,-377 1000,-383 994,-383"/>
<polygon fill="#add8e6" stroke="transparent" points="798,-357 798,-372 998,-372 998,-357 798,-357"/>
<text text-anchor="start" x="800" y="-363" font-family="Times,serif" font-size="10.00" fill="#000000"> &#160;&#160;&#160;&#160;&#160;&#160;&#160;&#160;&#160;</text>
<text text-anchor="start" x="823" y="-363" font-family="Times,serif" font-style="italic" font-size="10.00" fill="#000000">celex_comp_92555:Component &#160;&#160;&#160;&#160;&#160;&#160;&#160;&#160;&#160;</text>
<text text-anchor="start" x="977" y="-363" font-family="Times,serif" font-size="10.00" fill="#000000"> &#160;&#160;&#160;&#160;&#160;&#160;&#160;</text>
</g>
<!-- celexlemma54132 -->
<g id="node4" class="node">
<title>celexlemma54132</title>
<path fill="none" stroke="#000000" d="M912.5,-259C912.5,-259 679.5,-259 679.5,-259 673.5,-259 667.5,-253 667.5,-247 667.5,-247 667.5,-233 667.5,-233 667.5,-227 673.5,-221 679.5,-221 679.5,-221 912.5,-221 912.5,-221 918.5,-221 924.5,-227 924.5,-233 924.5,-233 924.5,-247 924.5,-247 924.5,-253 918.5,-259 912.5,-259"/>
<polygon fill="#add8e6" stroke="transparent" points="676,-240 676,-255 917,-255 917,-240 676,-240"/>
<text text-anchor="start" x="678" y="-246" font-family="Times,serif" font-size="10.00" fill="#000000"> &#160;&#160;&#160;&#160;&#160;&#160;&#160;&#160;&#160;</text>
<text text-anchor="start" x="701" y="-246" font-family="Times,serif" font-style="italic" font-size="10.00" fill="#000000">celex_lemma_54132:ontolexLexicalEntry &#160;&#160;&#160;&#160;&#160;&#160;&#160;&#160;&#160;</text>
<text text-anchor="start" x="896" y="-246" font-family="Times,serif" font-size="10.00" fill="#000000"> &#160;&#160;&#160;&#160;&#160;&#160;&#160;</text>
<text text-anchor="start" x="708.5" y="-230" font-family="Times,serif" font-size="10.00" fill="#000000"> &#160;&#160;&#160;&#160;&#160;&#160;&#160;label &#160;&#160;&#160;&#160;&#160;</text>
<text text-anchor="start" x="825.5" y="-230" font-family="Times,serif" font-size="10.00" fill="#000000"> &#160;&#160;&#160;&#160;&#160;&#160;&#160;kwaad &#160;&#160;&#160;&#160;&#160;</text>
</g>
<!-- celexcomp92555&#45;&gt;celexlemma54132 -->
<g id="edge2" class="edge">
<title>celexcomp92555&#45;&gt;celexlemma54132</title>
<path fill="none" stroke="#000088" d="M883.1683,-346.8239C866.0671,-325.8666 837.7877,-291.2104 818.0939,-267.0759"/>
<polygon fill="#000088" stroke="#000088" points="811.5185,-259.0177 821.3273,-263.9206 814.6796,-262.8917 817.8407,-266.7656 817.8407,-266.7656 817.8407,-266.7656 814.6796,-262.8917 814.3542,-269.6106 811.5185,-259.0177 811.5185,-259.0177"/>
<text text-anchor="middle" x="877" y="-293.1" font-family="Times,serif" font-size="8.00" fill="#000000">correspondsTo</text>
</g>
<!-- celexwform165612 -->
<g id="node5" class="node">
<title>celexwform165612</title>
<path fill="none" stroke="#000000" d="M449.5,-149C449.5,-149 242.5,-149 242.5,-149 236.5,-149 230.5,-143 230.5,-137 230.5,-137 230.5,-93 230.5,-93 230.5,-87 236.5,-81 242.5,-81 242.5,-81 449.5,-81 449.5,-81 455.5,-81 461.5,-87 461.5,-93 461.5,-93 461.5,-137 461.5,-137 461.5,-143 455.5,-149 449.5,-149"/>
<polygon fill="#add8e6" stroke="transparent" points="239,-130 239,-145 454,-145 454,-130 239,-130"/>
<text text-anchor="start" x="241" y="-136" font-family="Times,serif" font-size="10.00" fill="#000000"> &#160;&#160;&#160;&#160;&#160;&#160;&#160;&#160;&#160;</text>
<text text-anchor="start" x="264" y="-136" font-family="Times,serif" font-style="italic" font-size="10.00" fill="#000000">celex_wform_165612:ontolexForm &#160;&#160;&#160;&#160;&#160;&#160;&#160;&#160;&#160;</text>
<text text-anchor="start" x="433" y="-136" font-family="Times,serif" font-size="10.00" fill="#000000"> &#160;&#160;&#160;&#160;&#160;&#160;&#160;</text>
<text text-anchor="start" x="251" y="-120" font-family="Times,serif" font-size="10.00" fill="#000000"> &#160;&#160;&#160;&#160;&#160;&#160;&#160;ontolexwrittenRep &#160;&#160;&#160;&#160;&#160;</text>
<text text-anchor="start" x="383.5" y="-120" font-family="Times,serif" font-size="10.00" fill="#000000"> &#160;&#160;&#160;&#160;&#160;&#160;&#160;kwaad &#160;&#160;&#160;&#160;&#160;</text>
<text text-anchor="start" x="267.5" y="-105" font-family="Times,serif" font-size="10.00" fill="#000000"> &#160;&#160;&#160;&#160;&#160;&#160;&#160;syllabified &#160;&#160;&#160;&#160;&#160;</text>
<text text-anchor="start" x="383.5" y="-105" font-family="Times,serif" font-size="10.00" fill="#000000"> &#160;&#160;&#160;&#160;&#160;&#160;&#160;kwaad &#160;&#160;&#160;&#160;&#160;</text>
<text text-anchor="start" x="247.5" y="-90" font-family="Times,serif" font-size="10.00" fill="#000000"> &#160;&#160;&#160;&#160;&#160;&#160;&#160;ontolexphoneticRep &#160;&#160;&#160;&#160;&#160;</text>
<text text-anchor="start" x="381" y="-90" font-family="Times,serif" font-size="10.00" fill="#000000"> &#160;&#160;&#160;&#160;&#160;&#160;&#160;ˌkwaːt &#160;&#160;&#160;&#160;&#160;</text>
</g>
<!-- celexlemma54132&#45;&gt;celexwform165612 -->
<g id="edge3" class="edge">
<title>celexlemma54132&#45;&gt;celexwform165612</title>
<path fill="none" stroke="#000088" d="M667.4117,-222.6012C662.5482,-222.0428 657.7314,-221.5067 653,-221 604.0064,-215.7534 476.5998,-223.9466 432,-203 410.2021,-192.7625 390.9249,-174.4762 376.1755,-157.2152"/>
<polygon fill="#000088" stroke="#000088" points="369.7246,-149.3893 379.5576,-154.2434 372.9049,-153.2475 376.0852,-157.1057 376.0852,-157.1057 376.0852,-157.1057 372.9049,-153.2475 372.6129,-159.968 369.7246,-149.3893 369.7246,-149.3893"/>
<text text-anchor="middle" x="468" y="-183.1" font-family="Times,serif" font-size="8.00" fill="#000000">ontolexcanonicalForm</text>
</g>
<!-- celexlemma54132&#45;&gt;celexwform165612 -->
<g id="edge6" class="edge">
<title>celexlemma54132&#45;&gt;celexwform165612</title>
<path fill="none" stroke="#000088" d="M667.4863,-223.0899C626.6357,-216.8594 587.1144,-209.6892 568,-203 537.1961,-192.2201 533.8632,-180.1634 504,-167 492.6363,-161.991 480.632,-157.1975 468.5228,-152.6884"/>
<polygon fill="#000088" stroke="#000088" points="458.7993,-149.1346 469.7364,-148.3409 463.4954,-150.851 468.1916,-152.5675 468.1916,-152.5675 468.1916,-152.5675 463.4954,-150.851 466.6468,-156.794 458.7993,-149.1346 458.7993,-149.1346"/>
<text text-anchor="middle" x="599.5" y="-183.1" font-family="Times,serif" font-size="8.00" fill="#000000">ontolexlexicalForm</text>
</g>
<!-- node1cj5os805x4 -->
<g id="node6" class="node">
<title>node1cj5os805x4</title>
<path fill="none" stroke="#000000" d="M1100,-133C1100,-133 942,-133 942,-133 936,-133 930,-127 930,-121 930,-121 930,-109 930,-109 930,-103 936,-97 942,-97 942,-97 1100,-97 1100,-97 1106,-97 1112,-103 1112,-109 1112,-109 1112,-121 1112,-121 1112,-127 1106,-133 1100,-133"/>
<polygon fill="#add8e6" stroke="transparent" points="938,-107 938,-122 1104,-122 1104,-107 938,-107"/>
<text text-anchor="start" x="940" y="-113" font-family="Times,serif" font-size="10.00" fill="#000000"> &#160;&#160;&#160;&#160;&#160;&#160;&#160;&#160;&#160;</text>
<text text-anchor="start" x="963" y="-113" font-family="Times,serif" font-style="italic" font-size="10.00" fill="#000000">node1cj5os805x4:UNK &#160;&#160;&#160;&#160;&#160;&#160;&#160;&#160;&#160;</text>
<text text-anchor="start" x="1083" y="-113" font-family="Times,serif" font-size="10.00" fill="#000000"> &#160;&#160;&#160;&#160;&#160;&#160;&#160;</text>
</g>
<!-- celexlemma54132&#45;&gt;node1cj5os805x4 -->
<g id="edge4" class="edge">
<title>celexlemma54132&#45;&gt;node1cj5os805x4</title>
<path fill="none" stroke="#000088" d="M830.7875,-220.8201C841.156,-215.0951 852.5417,-208.8001 863,-203 902.611,-181.0318 947.7519,-155.8781 979.612,-138.1051"/>
<polygon fill="#000088" stroke="#000088" points="988.6406,-133.0677 982.1004,-141.8698 984.2743,-135.5039 979.9079,-137.94 979.9079,-137.94 979.9079,-137.94 984.2743,-135.5039 977.7153,-134.0103 988.6406,-133.0677 988.6406,-133.0677"/>
<text text-anchor="middle" x="975" y="-183.1" font-family="Times,serif" font-size="8.00" fill="#000000">lexinfoMorphosyntacticProperty</text>
</g>
<!-- node1cj5os805x5 -->
<g id="node8" class="node">
<title>node1cj5os805x5</title>
<path fill="none" stroke="#000000" d="M650,-133C650,-133 492,-133 492,-133 486,-133 480,-127 480,-121 480,-121 480,-109 480,-109 480,-103 486,-97 492,-97 492,-97 650,-97 650,-97 656,-97 662,-103 662,-109 662,-109 662,-121 662,-121 662,-127 656,-133 650,-133"/>
<polygon fill="#add8e6" stroke="transparent" points="488,-107 488,-122 654,-122 654,-107 488,-107"/>
<text text-anchor="start" x="490" y="-113" font-family="Times,serif" font-size="10.00" fill="#000000"> &#160;&#160;&#160;&#160;&#160;&#160;&#160;&#160;&#160;</text>
<text text-anchor="start" x="513" y="-113" font-family="Times,serif" font-style="italic" font-size="10.00" fill="#000000">node1cj5os805x5:UNK &#160;&#160;&#160;&#160;&#160;&#160;&#160;&#160;&#160;</text>
<text text-anchor="start" x="633" y="-113" font-family="Times,serif" font-size="10.00" fill="#000000"> &#160;&#160;&#160;&#160;&#160;&#160;&#160;</text>
</g>
<!-- celexlemma54132&#45;&gt;node1cj5os805x5 -->
<g id="edge5" class="edge">
<title>celexlemma54132&#45;&gt;node1cj5os805x5</title>
<path fill="none" stroke="#000088" d="M729.5041,-220.904C715.4493,-215.8594 700.9583,-209.8697 688,-203 654.9998,-185.5055 621.3327,-159.0984 598.6385,-139.7758"/>
<polygon fill="#000088" stroke="#000088" points="590.7955,-133.0071 601.3061,-136.1339 594.5808,-136.2739 598.366,-139.5407 598.366,-139.5407 598.366,-139.5407 594.5808,-136.2739 595.4259,-142.9474 590.7955,-133.0071 590.7955,-133.0071"/>
<text text-anchor="middle" x="740" y="-183.1" font-family="Times,serif" font-size="8.00" fill="#000000">lexinfoMorphosyntacticProperty</text>
</g>
<!-- celexwform165714 -->
<g id="node10" class="node">
<title>celexwform165714</title>
<path fill="none" stroke="#000000" d="M899.5,-149C899.5,-149 692.5,-149 692.5,-149 686.5,-149 680.5,-143 680.5,-137 680.5,-137 680.5,-93 680.5,-93 680.5,-87 686.5,-81 692.5,-81 692.5,-81 899.5,-81 899.5,-81 905.5,-81 911.5,-87 911.5,-93 911.5,-93 911.5,-137 911.5,-137 911.5,-143 905.5,-149 899.5,-149"/>
<polygon fill="#add8e6" stroke="transparent" points="689,-130 689,-145 904,-145 904,-130 689,-130"/>
<text text-anchor="start" x="691" y="-136" font-family="Times,serif" font-size="10.00" fill="#000000"> &#160;&#160;&#160;&#160;&#160;&#160;&#160;&#160;&#160;</text>
<text text-anchor="start" x="714" y="-136" font-family="Times,serif" font-style="italic" font-size="10.00" fill="#000000">celex_wform_165714:ontolexForm &#160;&#160;&#160;&#160;&#160;&#160;&#160;&#160;&#160;</text>
<text text-anchor="start" x="883" y="-136" font-family="Times,serif" font-size="10.00" fill="#000000"> &#160;&#160;&#160;&#160;&#160;&#160;&#160;</text>
<text text-anchor="start" x="698.5" y="-120" font-family="Times,serif" font-size="10.00" fill="#000000"> &#160;&#160;&#160;&#160;&#160;&#160;&#160;ontolexwrittenRep &#160;&#160;&#160;&#160;&#160;</text>
<text text-anchor="start" x="828.5" y="-120" font-family="Times,serif" font-size="10.00" fill="#000000"> &#160;&#160;&#160;&#160;&#160;&#160;&#160;kwaden &#160;&#160;&#160;&#160;&#160;</text>
<text text-anchor="start" x="715" y="-105" font-family="Times,serif" font-size="10.00" fill="#000000"> &#160;&#160;&#160;&#160;&#160;&#160;&#160;syllabified &#160;&#160;&#160;&#160;&#160;</text>
<text text-anchor="start" x="827" y="-105" font-family="Times,serif" font-size="10.00" fill="#000000"> &#160;&#160;&#160;&#160;&#160;&#160;&#160;kwa&#45;den &#160;&#160;&#160;&#160;&#160;</text>
<text text-anchor="start" x="695" y="-90" font-family="Times,serif" font-size="10.00" fill="#000000"> &#160;&#160;&#160;&#160;&#160;&#160;&#160;ontolexphoneticRep &#160;&#160;&#160;&#160;&#160;</text>
<text text-anchor="start" x="823.5" y="-90" font-family="Times,serif" font-size="10.00" fill="#000000"> &#160;&#160;&#160;&#160;&#160;&#160;&#160;ˌkwaː&#45;də &#160;&#160;&#160;&#160;&#160;</text>
</g>
<!-- celexlemma54132&#45;&gt;celexwform165714 -->
<g id="edge7" class="edge">
<title>celexlemma54132&#45;&gt;celexwform165714</title>
<path fill="none" stroke="#000088" d="M796,-220.7427C796,-204.3816 796,-180.2659 796,-159.1947"/>
<polygon fill="#000088" stroke="#000088" points="796,-149.1426 800.5001,-159.1426 796,-154.1426 796.0001,-159.1426 796.0001,-159.1426 796.0001,-159.1426 796,-154.1426 791.5001,-159.1426 796,-149.1426 796,-149.1426"/>
<text text-anchor="middle" x="827.5" y="-183.1" font-family="Times,serif" font-size="8.00" fill="#000000">ontolexlexicalForm</text>
</g>
<!-- celexwform165612&#45;&gt;lexinfosingular -->
<g id="edge8" class="edge">
<title>celexwform165612&#45;&gt;lexinfosingular</title>
<path fill="none" stroke="#000088" d="M255.0505,-80.9378C218.4606,-67.2343 177.3528,-51.8387 144.9532,-39.7045"/>
<polygon fill="#000088" stroke="#000088" points="135.1923,-36.0489 146.1354,-35.3421 139.8747,-37.8025 144.5571,-39.5562 144.5571,-39.5562 144.5571,-39.5562 139.8747,-37.8025 142.9788,-43.7704 135.1923,-36.0489 135.1923,-36.0489"/>
<text text-anchor="middle" x="224.5" y="-56.6" font-family="Times,serif" font-size="8.00" fill="#000000">lexinfonumber</text>
</g>
<!-- lexinfonoun -->
<g id="node7" class="node">
<title>lexinfonoun</title>
<path fill="none" stroke="#000000" d="M1158,-36C1158,-36 1022,-36 1022,-36 1016,-36 1010,-30 1010,-24 1010,-24 1010,-12 1010,-12 1010,-6 1016,0 1022,0 1022,0 1158,0 1158,0 1164,0 1170,-6 1170,-12 1170,-12 1170,-24 1170,-24 1170,-30 1164,-36 1158,-36"/>
<polygon fill="#add8e6" stroke="transparent" points="1018,-10 1018,-25 1162,-25 1162,-10 1018,-10"/>
<text text-anchor="start" x="1020" y="-16" font-family="Times,serif" font-size="10.00" fill="#000000"> &#160;&#160;&#160;&#160;&#160;&#160;&#160;&#160;&#160;</text>
<text text-anchor="start" x="1043" y="-16" font-family="Times,serif" font-style="italic" font-size="10.00" fill="#000000">lexinfonoun:Class &#160;&#160;&#160;&#160;&#160;&#160;&#160;&#160;&#160;</text>
<text text-anchor="start" x="1141" y="-16" font-family="Times,serif" font-size="10.00" fill="#000000"> &#160;&#160;&#160;&#160;&#160;&#160;&#160;</text>
</g>
<!-- node1cj5os805x4&#45;&gt;lexinfonoun -->
<g id="edge9" class="edge">
<title>node1cj5os805x4&#45;&gt;lexinfonoun</title>
<path fill="none" stroke="#000088" d="M1030.8657,-96.832C1037.8894,-84.4031 1047.848,-67.7515 1058,-54 1060.5143,-50.5942 1063.2856,-47.1276 1066.1139,-43.7574"/>
<polygon fill="#000088" stroke="#000088" points="1072.7227,-36.1425 1069.5667,-46.6445 1069.4454,-39.9187 1066.1681,-43.6949 1066.1681,-43.6949 1066.1681,-43.6949 1069.4454,-39.9187 1062.7696,-40.7453 1072.7227,-36.1425 1072.7227,-36.1425"/>
<text text-anchor="middle" x="1092" y="-56.6" font-family="Times,serif" font-size="8.00" fill="#000000">lexinfopartOfSpeech</text>
</g>
<!-- lexinfoneuter -->
<g id="node9" class="node">
<title>lexinfoneuter</title>
<path fill="none" stroke="#000000" d="M420,-36C420,-36 278,-36 278,-36 272,-36 266,-30 266,-24 266,-24 266,-12 266,-12 266,-6 272,0 278,0 278,0 420,0 420,0 426,0 432,-6 432,-12 432,-12 432,-24 432,-24 432,-30 426,-36 420,-36"/>
<polygon fill="#add8e6" stroke="transparent" points="274,-10 274,-25 424,-25 424,-10 274,-10"/>
<text text-anchor="start" x="276.5" y="-16" font-family="Times,serif" font-size="10.00" fill="#000000"> &#160;&#160;&#160;&#160;&#160;&#160;&#160;&#160;&#160;</text>
<text text-anchor="start" x="299.5" y="-16" font-family="Times,serif" font-style="italic" font-size="10.00" fill="#000000">lexinfoneuter:Class &#160;&#160;&#160;&#160;&#160;&#160;&#160;&#160;&#160;</text>
<text text-anchor="start" x="402.5" y="-16" font-family="Times,serif" font-size="10.00" fill="#000000"> &#160;&#160;&#160;&#160;&#160;&#160;&#160;</text>
</g>
<!-- node1cj5os805x5&#45;&gt;lexinfoneuter -->
<g id="edge10" class="edge">
<title>node1cj5os805x5&#45;&gt;lexinfoneuter</title>
<path fill="none" stroke="#000088" d="M529.7638,-96.9824C492.9646,-80.9035 438.9621,-57.3078 399.5679,-40.095"/>
<polygon fill="#000088" stroke="#000088" points="390.3915,-36.0855 401.3567,-35.9658 394.9732,-38.0874 399.5549,-40.0894 399.5549,-40.0894 399.5549,-40.0894 394.9732,-38.0874 397.7532,-44.2129 390.3915,-36.0855 390.3915,-36.0855"/>
<text text-anchor="middle" x="470.5" y="-56.6" font-family="Times,serif" font-size="8.00" fill="#000000">lexinfoGender</text>
</g>
<!-- lexinfoplural -->
<g id="node11" class="node">
<title>lexinfoplural</title>
<path fill="none" stroke="#000000" d="M867,-36C867,-36 725,-36 725,-36 719,-36 713,-30 713,-24 713,-24 713,-12 713,-12 713,-6 719,0 725,0 725,0 867,0 867,0 873,0 879,-6 879,-12 879,-12 879,-24 879,-24 879,-30 873,-36 867,-36"/>
<polygon fill="#add8e6" stroke="transparent" points="721,-10 721,-25 871,-25 871,-10 721,-10"/>
<text text-anchor="start" x="723.5" y="-16" font-family="Times,serif" font-size="10.00" fill="#000000"> &#160;&#160;&#160;&#160;&#160;&#160;&#160;&#160;&#160;</text>
<text text-anchor="start" x="746.5" y="-16" font-family="Times,serif" font-style="italic" font-size="10.00" fill="#000000">lexinfoplural:Class &#160;&#160;&#160;&#160;&#160;&#160;&#160;&#160;&#160;</text>
<text text-anchor="start" x="849.5" y="-16" font-family="Times,serif" font-size="10.00" fill="#000000"> &#160;&#160;&#160;&#160;&#160;&#160;&#160;</text>
</g>
<!-- celexwform165714&#45;&gt;lexinfoplural -->
<g id="edge11" class="edge">
<title>celexwform165714&#45;&gt;lexinfoplural</title>
<path fill="none" stroke="#000088" d="M796,-80.8014C796,-69.5107 796,-57.0843 796,-46.2861"/>
<polygon fill="#000088" stroke="#000088" points="796,-36.1329 800.5001,-46.1329 796,-41.1329 796.0001,-46.1329 796.0001,-46.1329 796.0001,-46.1329 796,-41.1329 791.5001,-46.133 796,-36.1329 796,-36.1329"/>
<text text-anchor="middle" x="819.5" y="-56.6" font-family="Times,serif" font-size="8.00" fill="#000000">lexinfonumber</text>
</g>
<!-- celexlemma47843 -->
<g id="node12" class="node">
<title>celexlemma47843</title>
<path fill="none" stroke="#000000" d="M1111.5,-482C1111.5,-482 878.5,-482 878.5,-482 872.5,-482 866.5,-476 866.5,-470 866.5,-470 866.5,-456 866.5,-456 866.5,-450 872.5,-444 878.5,-444 878.5,-444 1111.5,-444 1111.5,-444 1117.5,-444 1123.5,-450 1123.5,-456 1123.5,-456 1123.5,-470 1123.5,-470 1123.5,-476 1117.5,-482 1111.5,-482"/>
<polygon fill="#add8e6" stroke="transparent" points="875,-463 875,-478 1116,-478 1116,-463 875,-463"/>
<text text-anchor="start" x="877" y="-469" font-family="Times,serif" font-size="10.00" fill="#000000"> &#160;&#160;&#160;&#160;&#160;&#160;&#160;&#160;&#160;</text>
<text text-anchor="start" x="900" y="-469" font-family="Times,serif" font-style="italic" font-size="10.00" fill="#000000">celex_lemma_47843:ontolexLexicalEntry &#160;&#160;&#160;&#160;&#160;&#160;&#160;&#160;&#160;</text>
<text text-anchor="start" x="1095" y="-469" font-family="Times,serif" font-size="10.00" fill="#000000"> &#160;&#160;&#160;&#160;&#160;&#160;&#160;</text>
<text text-anchor="start" x="902.5" y="-453" font-family="Times,serif" font-size="10.00" fill="#000000"> &#160;&#160;&#160;&#160;&#160;&#160;&#160;label &#160;&#160;&#160;&#160;&#160;</text>
<text text-anchor="start" x="1009.5" y="-453" font-family="Times,serif" font-size="10.00" fill="#000000"> &#160;&#160;&#160;&#160;&#160;&#160;&#160;kattekwaad &#160;&#160;&#160;&#160;&#160;</text>
</g>
<!-- celexlemma47843&#45;&gt;celexwform147510 -->
<g id="edge12" class="edge">
<title>celexlemma47843&#45;&gt;celexwform147510</title>
<path fill="none" stroke="#000088" d="M866.4842,-458.3083C714.6065,-452.1296 480.6008,-440.3496 467,-426 462.5531,-421.3083 460.1697,-415.3866 459.1187,-409.0881"/>
<polygon fill="#000088" stroke="#000088" points="458.4586,-399.0029 463.6022,-408.6876 458.7852,-403.9922 459.1118,-408.9815 459.1118,-408.9815 459.1118,-408.9815 458.7852,-403.9922 454.6214,-409.2754 458.4586,-399.0029 458.4586,-399.0029"/>
<text text-anchor="middle" x="503" y="-419.6" font-family="Times,serif" font-size="8.00" fill="#000000">ontolexcanonicalForm</text>
</g>
<!-- celexlemma47843&#45;&gt;celexwform147510 -->
<g id="edge15" class="edge">
<title>celexlemma47843&#45;&gt;celexwform147510</title>
<path fill="none" stroke="#000088" d="M866.3648,-458.7601C759.4932,-453.9962 616.4606,-444.3897 562,-426 547.1133,-420.9732 532.2062,-413.1781 518.7297,-404.8211"/>
<polygon fill="#000088" stroke="#000088" points="510.0949,-399.2718 520.9403,-400.8927 514.3011,-401.975 518.5074,-404.6783 518.5074,-404.6783 518.5074,-404.6783 514.3011,-401.975 516.0744,-408.4639 510.0949,-399.2718 510.0949,-399.2718"/>
<text text-anchor="middle" x="593.5" y="-419.6" font-family="Times,serif" font-size="8.00" fill="#000000">ontolexlexicalForm</text>
</g>
<!-- celexlemma47843&#45;&gt;celexcomp92555 -->
<g id="edge20" class="edge">
<title>celexlemma47843&#45;&gt;celexcomp92555</title>
<path fill="none" stroke="#000088" d="M945.9961,-443.8367C937.5708,-438.952 929.4618,-433.041 923,-426 914.5273,-416.7679 908.7291,-404.2752 904.8675,-392.9996"/>
<polygon fill="#000088" stroke="#000088" points="901.8443,-383.1149 909.0723,-391.3615 903.3067,-387.8963 904.7691,-392.6777 904.7691,-392.6777 904.7691,-392.6777 903.3067,-387.8963 900.4659,-393.9938 901.8443,-383.1149 901.8443,-383.1149"/>
<text text-anchor="middle" x="940.5" y="-419.6" font-family="Times,serif" font-size="8.00" fill="#000000">constituent</text>
</g>
<!-- celexlemma47843&#45;&gt;celexcomp92555 -->
<g id="edge21" class="edge">
<title>celexlemma47843&#45;&gt;celexcomp92555</title>
<path fill="none" stroke="#000088" d="M980.6112,-443.5546C974.0443,-435.1021 965.9664,-425.2643 958,-417 948.9567,-407.6185 938.4108,-398.075 928.7051,-389.7684"/>
<polygon fill="#000088" stroke="#000088" points="920.8014,-383.1125 931.3491,-386.1119 924.6259,-386.3332 928.4504,-389.554 928.4504,-389.554 928.4504,-389.554 924.6259,-386.3332 925.5518,-392.996 920.8014,-383.1125 920.8014,-383.1125"/>
<text text-anchor="middle" x="969" y="-419.6" font-family="Times,serif" font-size="8.00" fill="#000000">_3</text>
</g>
<!-- node1cj5os805x1 -->
<g id="node13" class="node">
<title>node1cj5os805x1</title>
<path fill="none" stroke="#000000" d="M1148,-313C1148,-313 990,-313 990,-313 984,-313 978,-307 978,-301 978,-301 978,-289 978,-289 978,-283 984,-277 990,-277 990,-277 1148,-277 1148,-277 1154,-277 1160,-283 1160,-289 1160,-289 1160,-301 1160,-301 1160,-307 1154,-313 1148,-313"/>
<polygon fill="#add8e6" stroke="transparent" points="986,-287 986,-302 1152,-302 1152,-287 986,-287"/>
<text text-anchor="start" x="988" y="-293" font-family="Times,serif" font-size="10.00" fill="#000000"> &#160;&#160;&#160;&#160;&#160;&#160;&#160;&#160;&#160;</text>
<text text-anchor="start" x="1011" y="-293" font-family="Times,serif" font-style="italic" font-size="10.00" fill="#000000">node1cj5os805x1:UNK &#160;&#160;&#160;&#160;&#160;&#160;&#160;&#160;&#160;</text>
<text text-anchor="start" x="1131" y="-293" font-family="Times,serif" font-size="10.00" fill="#000000"> &#160;&#160;&#160;&#160;&#160;&#160;&#160;</text>
</g>
<!-- celexlemma47843&#45;&gt;node1cj5os805x1 -->
<g id="edge13" class="edge">
<title>celexlemma47843&#45;&gt;node1cj5os805x1</title>
<path fill="none" stroke="#000088" d="M1003.4887,-443.7283C1016.6188,-413.9194 1041.9034,-356.5166 1056.9302,-322.4018"/>
<polygon fill="#000088" stroke="#000088" points="1061.0588,-313.0288 1061.1459,-323.9943 1059.0432,-317.6045 1057.0277,-322.1803 1057.0277,-322.1803 1057.0277,-322.1803 1059.0432,-317.6045 1052.9095,-320.3663 1061.0588,-313.0288 1061.0588,-313.0288"/>
<text text-anchor="middle" x="1067" y="-419.6" font-family="Times,serif" font-size="8.00" fill="#000000">lexinfoMorphosyntacticProperty</text>
</g>
<!-- node1cj5os805x2 -->
<g id="node14" class="node">
<title>node1cj5os805x2</title>
<path fill="none" stroke="#000000" d="M349,-203C349,-203 191,-203 191,-203 185,-203 179,-197 179,-191 179,-191 179,-179 179,-179 179,-173 185,-167 191,-167 191,-167 349,-167 349,-167 355,-167 361,-173 361,-179 361,-179 361,-191 361,-191 361,-197 355,-203 349,-203"/>
<polygon fill="#add8e6" stroke="transparent" points="187,-177 187,-192 353,-192 353,-177 187,-177"/>
<text text-anchor="start" x="189" y="-183" font-family="Times,serif" font-size="10.00" fill="#000000"> &#160;&#160;&#160;&#160;&#160;&#160;&#160;&#160;&#160;</text>
<text text-anchor="start" x="212" y="-183" font-family="Times,serif" font-style="italic" font-size="10.00" fill="#000000">node1cj5os805x2:UNK &#160;&#160;&#160;&#160;&#160;&#160;&#160;&#160;&#160;</text>
<text text-anchor="start" x="332" y="-183" font-family="Times,serif" font-size="10.00" fill="#000000"> &#160;&#160;&#160;&#160;&#160;&#160;&#160;</text>
</g>
<!-- celexlemma47843&#45;&gt;node1cj5os805x2 -->
<g id="edge14" class="edge">
<title>celexlemma47843&#45;&gt;node1cj5os805x2</title>
<path fill="none" stroke="#000088" d="M866.1838,-450.8838C806.5973,-441.8565 736.0954,-426.1751 677,-399 632.412,-378.4962 631.9479,-356.4728 590,-331 503.0649,-278.2087 393.7953,-232.3089 328.0539,-206.6799"/>
<polygon fill="#000088" stroke="#000088" points="318.678,-203.0473 329.6283,-202.464 323.3403,-204.8537 328.0026,-206.6601 328.0026,-206.6601 328.0026,-206.6601 323.3403,-204.8537 326.3768,-210.8562 318.678,-203.0473 318.678,-203.0473"/>
<text text-anchor="middle" x="729" y="-363.1" font-family="Times,serif" font-size="8.00" fill="#000000">lexinfoMorphosyntacticProperty</text>
</g>
<!-- celexcomp92553 -->
<g id="node15" class="node">
<title>celexcomp92553</title>
<path fill="none" stroke="#000000" d="M1315,-383C1315,-383 1123,-383 1123,-383 1117,-383 1111,-377 1111,-371 1111,-371 1111,-359 1111,-359 1111,-353 1117,-347 1123,-347 1123,-347 1315,-347 1315,-347 1321,-347 1327,-353 1327,-359 1327,-359 1327,-371 1327,-371 1327,-377 1321,-383 1315,-383"/>
<polygon fill="#add8e6" stroke="transparent" points="1119,-357 1119,-372 1319,-372 1319,-357 1119,-357"/>
<text text-anchor="start" x="1121" y="-363" font-family="Times,serif" font-size="10.00" fill="#000000"> &#160;&#160;&#160;&#160;&#160;&#160;&#160;&#160;&#160;</text>
<text text-anchor="start" x="1144" y="-363" font-family="Times,serif" font-style="italic" font-size="10.00" fill="#000000">celex_comp_92553:Component &#160;&#160;&#160;&#160;&#160;&#160;&#160;&#160;&#160;</text>
<text text-anchor="start" x="1298" y="-363" font-family="Times,serif" font-size="10.00" fill="#000000"> &#160;&#160;&#160;&#160;&#160;&#160;&#160;</text>
</g>
<!-- celexlemma47843&#45;&gt;celexcomp92553 -->
<g id="edge16" class="edge">
<title>celexlemma47843&#45;&gt;celexcomp92553</title>
<path fill="none" stroke="#000088" d="M1091.4162,-443.9439C1107.7033,-439.1237 1124.1355,-433.2075 1139,-426 1158.2273,-416.6771 1177.3484,-402.3331 1192.0735,-389.8965"/>
<polygon fill="#000088" stroke="#000088" points="1199.7745,-383.2276 1195.1609,-393.1757 1195.9948,-386.5008 1192.215,-389.7739 1192.215,-389.7739 1192.215,-389.7739 1195.9948,-386.5008 1189.2692,-386.3722 1199.7745,-383.2276 1199.7745,-383.2276"/>
<text text-anchor="middle" x="1170.5" y="-419.6" font-family="Times,serif" font-size="8.00" fill="#000000">constituent</text>
</g>
<!-- celexlemma47843&#45;&gt;celexcomp92553 -->
<g id="edge17" class="edge">
<title>celexlemma47843&#45;&gt;celexcomp92553</title>
<path fill="none" stroke="#000088" d="M1123.6932,-448.2035C1153.5803,-442.6827 1180.1335,-435.3988 1192,-426 1202.4262,-417.7419 1208.9316,-404.6169 1212.9357,-392.6536"/>
<polygon fill="#000088" stroke="#000088" points="1215.742,-383.01 1217.2686,-393.8691 1214.3449,-387.8109 1212.9478,-392.6117 1212.9478,-392.6117 1212.9478,-392.6117 1214.3449,-387.8109 1208.627,-391.3543 1215.742,-383.01 1215.742,-383.01"/>
<text text-anchor="middle" x="1204" y="-419.6" font-family="Times,serif" font-size="8.00" fill="#000000">_1</text>
</g>
<!-- celexcomp92554 -->
<g id="node18" class="node">
<title>celexcomp92554</title>
<path fill="none" stroke="#000000" d="M1549,-383C1549,-383 1357,-383 1357,-383 1351,-383 1345,-377 1345,-371 1345,-371 1345,-359 1345,-359 1345,-353 1351,-347 1357,-347 1357,-347 1549,-347 1549,-347 1555,-347 1561,-353 1561,-359 1561,-359 1561,-371 1561,-371 1561,-377 1555,-383 1549,-383"/>
<polygon fill="#add8e6" stroke="transparent" points="1353,-357 1353,-372 1553,-372 1553,-357 1353,-357"/>
<text text-anchor="start" x="1355" y="-363" font-family="Times,serif" font-size="10.00" fill="#000000"> &#160;&#160;&#160;&#160;&#160;&#160;&#160;&#160;&#160;</text>
<text text-anchor="start" x="1378" y="-363" font-family="Times,serif" font-style="italic" font-size="10.00" fill="#000000">celex_comp_92554:Component &#160;&#160;&#160;&#160;&#160;&#160;&#160;&#160;&#160;</text>
<text text-anchor="start" x="1532" y="-363" font-family="Times,serif" font-size="10.00" fill="#000000"> &#160;&#160;&#160;&#160;&#160;&#160;&#160;</text>
</g>
<!-- celexlemma47843&#45;&gt;celexcomp92554 -->
<g id="edge18" class="edge">
<title>celexlemma47843&#45;&gt;celexcomp92554</title>
<path fill="none" stroke="#000088" d="M1116.9386,-443.9552C1182.3321,-432.779 1264.0426,-417.2666 1336,-399 1351.6203,-395.0347 1368.3059,-390.4182 1384.0392,-385.8894"/>
<polygon fill="#000088" stroke="#000088" points="1393.6943,-383.0875 1385.3447,-390.1963 1388.8924,-384.481 1384.0905,-385.8746 1384.0905,-385.8746 1384.0905,-385.8746 1388.8924,-384.481 1382.8364,-381.5529 1393.6943,-383.0875 1393.6943,-383.0875"/>
<text text-anchor="middle" x="1269.5" y="-419.6" font-family="Times,serif" font-size="8.00" fill="#000000">constituent</text>
</g>
<!-- celexlemma47843&#45;&gt;celexcomp92554 -->
<g id="edge19" class="edge">
<title>celexlemma47843&#45;&gt;celexcomp92554</title>
<path fill="none" stroke="#000088" d="M1123.6913,-453.5748C1176.1015,-448.0179 1236.9525,-439.3547 1291,-426 1329.7348,-416.429 1371.8646,-400.3786 1403.4497,-387.1437"/>
<polygon fill="#000088" stroke="#000088" points="1412.898,-383.137 1405.4485,-391.1841 1408.2948,-385.0891 1403.6916,-387.0412 1403.6916,-387.0412 1403.6916,-387.0412 1408.2948,-385.0891 1401.9347,-382.8983 1412.898,-383.137 1412.898,-383.137"/>
<text text-anchor="middle" x="1326" y="-419.6" font-family="Times,serif" font-size="8.00" fill="#000000">_2</text>
</g>
<!-- node1cj5os805x1&#45;&gt;lexinfonoun -->
<g id="edge22" class="edge">
<title>node1cj5os805x1&#45;&gt;lexinfonoun</title>
<path fill="none" stroke="#000088" d="M1077.4823,-276.5874C1089.5757,-249.3631 1111.3725,-196.4659 1121,-149 1128.6107,-111.4773 1124.8884,-101.2706 1126,-63 1126.1161,-59.0017 1127.5307,-57.6955 1126,-54 1124.4832,-50.3381 1122.3931,-46.8544 1119.9772,-43.5989"/>
<polygon fill="#000088" stroke="#000088" points="1113.4414,-36.0051 1123.3754,-40.6489 1116.703,-39.7947 1119.9647,-43.5844 1119.9647,-43.5844 1119.9647,-43.5844 1116.703,-39.7947 1116.554,-46.5199 1113.4414,-36.0051 1113.4414,-36.0051"/>
<text text-anchor="middle" x="1150" y="-183.1" font-family="Times,serif" font-size="8.00" fill="#000000">lexinfopartOfSpeech</text>
</g>
<!-- node1cj5os805x2&#45;&gt;lexinfoneuter -->
<g id="edge23" class="edge">
<title>node1cj5os805x2&#45;&gt;lexinfoneuter</title>
<path fill="none" stroke="#000088" d="M205.4924,-166.968C190.9105,-161.5605 178.4104,-155.3642 174,-149 156.7856,-124.1596 156.6218,-105.7261 174,-81 185.2116,-65.0478 224.7897,-50.1262 263.4759,-38.8129"/>
<polygon fill="#000088" stroke="#000088" points="273.2744,-36.0159 264.8937,-43.088 268.4664,-37.3884 263.6585,-38.7608 263.6585,-38.7608 263.6585,-38.7608 268.4664,-37.3884 262.4233,-34.4337 273.2744,-36.0159 273.2744,-36.0159"/>
<text text-anchor="middle" x="197.5" y="-113.1" font-family="Times,serif" font-size="8.00" fill="#000000">lexinfoGender</text>
</g>
<!-- lexinfoNoun -->
<g id="node16" class="node">
<title>lexinfoNoun</title>
<path fill="none" stroke="#000000" d="M1295,-258C1295,-258 1157,-258 1157,-258 1151,-258 1145,-252 1145,-246 1145,-246 1145,-234 1145,-234 1145,-228 1151,-222 1157,-222 1157,-222 1295,-222 1295,-222 1301,-222 1307,-228 1307,-234 1307,-234 1307,-246 1307,-246 1307,-252 1301,-258 1295,-258"/>
<polygon fill="#add8e6" stroke="transparent" points="1153,-232 1153,-247 1299,-247 1299,-232 1153,-232"/>
<text text-anchor="start" x="1155" y="-238" font-family="Times,serif" font-size="10.00" fill="#000000"> &#160;&#160;&#160;&#160;&#160;&#160;&#160;&#160;&#160;</text>
<text text-anchor="start" x="1178" y="-238" font-family="Times,serif" font-style="italic" font-size="10.00" fill="#000000">lexinfoNoun:Class &#160;&#160;&#160;&#160;&#160;&#160;&#160;&#160;&#160;</text>
<text text-anchor="start" x="1278" y="-238" font-family="Times,serif" font-size="10.00" fill="#000000"> &#160;&#160;&#160;&#160;&#160;&#160;&#160;</text>
</g>
<!-- celexcomp92553&#45;&gt;lexinfoNoun -->
<g id="edge24" class="edge">
<title>celexcomp92553&#45;&gt;lexinfoNoun</title>
<path fill="none" stroke="#000088" d="M1220.0179,-346.8239C1221.1687,-326.2723 1223.0574,-292.5472 1224.4046,-268.4893"/>
<polygon fill="#000088" stroke="#000088" points="1224.9809,-258.198 1228.9147,-268.434 1224.7013,-263.1902 1224.4217,-268.1824 1224.4217,-268.1824 1224.4217,-268.1824 1224.7013,-263.1902 1219.9287,-267.9307 1224.9809,-258.198 1224.9809,-258.198"/>
<text text-anchor="middle" x="1257" y="-293.1" font-family="Times,serif" font-size="8.00" fill="#000000">lexinfopartOfSpeech</text>
</g>
<!-- node1cj5os805x3 -->
<g id="node17" class="node">
<title>node1cj5os805x3</title>
<path fill="none" stroke="#000000" d="M1495,-259C1495,-259 1337,-259 1337,-259 1331,-259 1325,-253 1325,-247 1325,-247 1325,-233 1325,-233 1325,-227 1331,-221 1337,-221 1337,-221 1495,-221 1495,-221 1501,-221 1507,-227 1507,-233 1507,-233 1507,-247 1507,-247 1507,-253 1501,-259 1495,-259"/>
<polygon fill="#add8e6" stroke="transparent" points="1333,-240 1333,-255 1499,-255 1499,-240 1333,-240"/>
<text text-anchor="start" x="1335" y="-246" font-family="Times,serif" font-size="10.00" fill="#000000"> &#160;&#160;&#160;&#160;&#160;&#160;&#160;&#160;&#160;</text>
<text text-anchor="start" x="1358" y="-246" font-family="Times,serif" font-style="italic" font-size="10.00" fill="#000000">node1cj5os805x3:UNK &#160;&#160;&#160;&#160;&#160;&#160;&#160;&#160;&#160;</text>
<text text-anchor="start" x="1478" y="-246" font-family="Times,serif" font-size="10.00" fill="#000000"> &#160;&#160;&#160;&#160;&#160;&#160;&#160;</text>
<text text-anchor="start" x="1336" y="-230" font-family="Times,serif" font-size="10.00" fill="#000000"> &#160;&#160;&#160;&#160;&#160;&#160;&#160;ontolexwrittenRep &#160;&#160;&#160;&#160;&#160;</text>
<text text-anchor="start" x="1451" y="-230" font-family="Times,serif" font-size="10.00" fill="#000000"> &#160;&#160;&#160;&#160;&#160;&#160;&#160;kat &#160;&#160;&#160;&#160;&#160;</text>
</g>
<!-- celexcomp92553&#45;&gt;node1cj5os805x3 -->
<g id="edge25" class="edge">
<title>celexcomp92553&#45;&gt;node1cj5os805x3</title>
<path fill="none" stroke="#000088" d="M1247.6455,-346.8239C1281.8281,-325.1345 1339.1349,-288.7723 1377.2524,-264.5861"/>
<polygon fill="#000088" stroke="#000088" points="1386.0281,-259.0177 1379.9953,-268.1751 1381.8062,-261.6966 1377.5844,-264.3754 1377.5844,-264.3754 1377.5844,-264.3754 1381.8062,-261.6966 1375.1734,-260.5758 1386.0281,-259.0177 1386.0281,-259.0177"/>
<text text-anchor="middle" x="1360" y="-293.1" font-family="Times,serif" font-size="8.00" fill="#000000">stem</text>
</g>
<!-- celexlemma124345 -->
<g id="node19" class="node">
<title>celexlemma124345</title>
<path fill="none" stroke="#000000" d="M1742.5,-259C1742.5,-259 1537.5,-259 1537.5,-259 1531.5,-259 1525.5,-253 1525.5,-247 1525.5,-247 1525.5,-233 1525.5,-233 1525.5,-227 1531.5,-221 1537.5,-221 1537.5,-221 1742.5,-221 1742.5,-221 1748.5,-221 1754.5,-227 1754.5,-233 1754.5,-233 1754.5,-247 1754.5,-247 1754.5,-253 1748.5,-259 1742.5,-259"/>
<polygon fill="#add8e6" stroke="transparent" points="1534,-240 1534,-255 1747,-255 1747,-240 1534,-240"/>
<text text-anchor="start" x="1536" y="-246" font-family="Times,serif" font-size="10.00" fill="#000000"> &#160;&#160;&#160;&#160;&#160;&#160;&#160;&#160;&#160;</text>
<text text-anchor="start" x="1559" y="-246" font-family="Times,serif" font-style="italic" font-size="10.00" fill="#000000">celex_lemma_124345:ontolexAffix &#160;&#160;&#160;&#160;&#160;&#160;&#160;&#160;&#160;</text>
<text text-anchor="start" x="1726" y="-246" font-family="Times,serif" font-size="10.00" fill="#000000"> &#160;&#160;&#160;&#160;&#160;&#160;&#160;</text>
<text text-anchor="start" x="1565" y="-230" font-family="Times,serif" font-size="10.00" fill="#000000"> &#160;&#160;&#160;&#160;&#160;&#160;&#160;label &#160;&#160;&#160;&#160;&#160;</text>
<text text-anchor="start" x="1679" y="-230" font-family="Times,serif" font-size="10.00" fill="#000000"> &#160;&#160;&#160;&#160;&#160;&#160;&#160;e &#160;&#160;&#160;&#160;&#160;</text>
</g>
<!-- celexcomp92554&#45;&gt;celexlemma124345 -->
<g id="edge26" class="edge">
<title>celexcomp92554&#45;&gt;celexlemma124345</title>
<path fill="none" stroke="#000088" d="M1480.1914,-346.8239C1512.6389,-325.1345 1567.0367,-288.7723 1603.2192,-264.5861"/>
<polygon fill="#000088" stroke="#000088" points="1611.5495,-259.0177 1605.7366,-268.3162 1607.3926,-261.7964 1603.2358,-264.575 1603.2358,-264.575 1603.2358,-264.575 1607.3926,-261.7964 1600.735,-260.8339 1611.5495,-259.0177 1611.5495,-259.0177"/>
<text text-anchor="middle" x="1603" y="-293.1" font-family="Times,serif" font-size="8.00" fill="#000000">correspondsTo</text>
</g>
</g>
</svg>
