<svg width="1941pt" height="298pt"
 viewBox="0.00 0.00 1941.00 298.00" xmlns="http://www.w3.org/2000/svg" xmlns:xlink="http://www.w3.org/1999/xlink">
<g id="graph0" class="graph" transform="scale(1 1) rotate(0) translate(4 294)">
<title>G</title>
<polygon fill="#ffffff" stroke="transparent" points="-4,4 -4,-294 1937,-294 1937,4 -4,4"/>
<!-- cgnlexwform862735 -->
<g id="node1" class="node">
<title>cgnlexwform862735</title>
<path fill="none" stroke="#000000" d="M745.5,-201.5C745.5,-201.5 596.5,-201.5 596.5,-201.5 590.5,-201.5 584.5,-195.5 584.5,-189.5 584.5,-189.5 584.5,-100.5 584.5,-100.5 584.5,-94.5 590.5,-88.5 596.5,-88.5 596.5,-88.5 745.5,-88.5 745.5,-88.5 751.5,-88.5 757.5,-94.5 757.5,-100.5 757.5,-100.5 757.5,-189.5 757.5,-189.5 757.5,-195.5 751.5,-201.5 745.5,-201.5"/>
<polygon fill="#add8e6" stroke="transparent" points="593,-182 593,-197 750,-197 750,-182 593,-182"/>
<text text-anchor="start" x="596" y="-188" font-family="Times,serif" font-style="italic" font-size="10.00" fill="#000000">cgnlex_wform_862735:ontolexword</text>
<text text-anchor="start" x="598.5" y="-172" font-family="Times,serif" font-size="10.00" fill="#000000"> &#160;&#160;&#160;&#160;&#160;&#160;&#160;ontolexwrittenRep &#160;&#160;&#160;&#160;&#160;</text>
<text text-anchor="start" x="719" y="-172" font-family="Times,serif" font-size="10.00" fill="#000000">katjes</text>
<text text-anchor="start" x="595" y="-157" font-family="Times,serif" font-size="10.00" fill="#000000"> &#160;&#160;&#160;&#160;&#160;&#160;&#160;ontolexphoneticRep &#160;&#160;&#160;&#160;&#160;</text>
<text text-anchor="start" x="715.5" y="-157" font-family="Times,serif" font-size="10.00" fill="#000000">kAtj@s</text>
<text text-anchor="start" x="595" y="-142" font-family="Times,serif" font-size="10.00" fill="#000000"> &#160;&#160;&#160;&#160;&#160;&#160;&#160;ontolexphoneticRep &#160;&#160;&#160;&#160;&#160;</text>
<text text-anchor="start" x="715.5" y="-142" font-family="Times,serif" font-size="10.00" fill="#000000">kAtj@s</text>
<text text-anchor="start" x="611" y="-127" font-family="Times,serif" font-size="10.00" fill="#000000"> &#160;&#160;&#160;&#160;&#160;&#160;&#160;variantLabel &#160;&#160;&#160;&#160;&#160;</text>
<text text-anchor="start" x="715" y="-127" font-family="Times,serif" font-size="10.00" fill="#000000">Flemish</text>
<text text-anchor="start" x="595" y="-112" font-family="Times,serif" font-size="10.00" fill="#000000"> &#160;&#160;&#160;&#160;&#160;&#160;&#160;ontolexphoneticRep &#160;&#160;&#160;&#160;&#160;</text>
<text text-anchor="start" x="715.5" y="-112" font-family="Times,serif" font-size="10.00" fill="#000000">kAtj@s</text>
<text text-anchor="start" x="611" y="-97" font-family="Times,serif" font-size="10.00" fill="#000000"> &#160;&#160;&#160;&#160;&#160;&#160;&#160;variantLabel &#160;&#160;&#160;&#160;&#160;</text>
<text text-anchor="start" x="715" y="-97" font-family="Times,serif" font-size="10.00" fill="#000000">Flemish</text>
</g>
<!-- lexinfoneutralRegister -->
<g id="node2" class="node">
<title>lexinfoneutralRegister</title>
<path fill="none" stroke="#000000" d="M1344,-36C1344,-36 1230,-36 1230,-36 1224,-36 1218,-30 1218,-24 1218,-24 1218,-12 1218,-12 1218,-6 1224,0 1230,0 1230,0 1344,0 1344,0 1350,0 1356,-6 1356,-12 1356,-12 1356,-24 1356,-24 1356,-30 1350,-36 1344,-36"/>
<polygon fill="#add8e6" stroke="transparent" points="1226,-10 1226,-25 1348,-25 1348,-10 1226,-10"/>
<text text-anchor="start" x="1228" y="-16" font-family="Times,serif" font-style="italic" font-size="10.00" fill="#000000">lexinfoneutralRegister:Class</text>
</g>
<!-- cgnlexwform862735&#45;&gt;lexinfoneutralRegister -->
<g id="edge1" class="edge">
<title>cgnlexwform862735&#45;&gt;lexinfoneutralRegister</title>
<path fill="none" stroke="#000088" d="M659.3993,-88.0764C659.9084,-75.4642 663.2771,-63.1472 672,-54 673.1438,-52.8006 1041.7028,-31.8488 1207.6485,-22.4727"/>
<polygon fill="#000088" stroke="#000088" points="1217.8002,-21.8992 1208.0699,-26.9561 1212.8081,-22.1813 1207.8161,-22.4633 1207.8161,-22.4633 1207.8161,-22.4633 1212.8081,-22.1813 1207.5623,-17.9704 1217.8002,-21.8992 1217.8002,-21.8992"/>
<text text-anchor="middle" x="697" y="-56.6" font-family="Times,serif" font-size="8.00" fill="#000000">lexinfoRegister</text>
</g>
<!-- cgnlexwform862735&#45;&gt;lexinfoneutralRegister -->
<g id="edge2" class="edge">
<title>cgnlexwform862735&#45;&gt;lexinfoneutralRegister</title>
<path fill="none" stroke="#000088" d="M610.5007,-88.1291C604.29,-76.2124 603.32,-64.1847 613,-54 626.5662,-39.7264 947.3361,-37.053 967,-36 1049.0141,-31.6083 1142.8343,-26.297 1207.5816,-22.5865"/>
<polygon fill="#000088" stroke="#000088" points="1217.7172,-22.0051 1207.9914,-27.0704 1212.7254,-22.2915 1207.7336,-22.5778 1207.7336,-22.5778 1207.7336,-22.5778 1212.7254,-22.2915 1207.4759,-18.0852 1217.7172,-22.0051 1217.7172,-22.0051"/>
<text text-anchor="middle" x="638" y="-56.6" font-family="Times,serif" font-size="8.00" fill="#000000">lexinfoRegister</text>
</g>
<!-- lexinfoformalRegister -->
<g id="node3" class="node">
<title>lexinfoformalRegister</title>
<path fill="none" stroke="#000000" d="M946,-36C946,-36 834,-36 834,-36 828,-36 822,-30 822,-24 822,-24 822,-12 822,-12 822,-6 828,0 834,0 834,0 946,0 946,0 952,0 958,-6 958,-12 958,-12 958,-24 958,-24 958,-30 952,-36 946,-36"/>
<polygon fill="#add8e6" stroke="transparent" points="830,-10 830,-25 950,-25 950,-10 830,-10"/>
<text text-anchor="start" x="832" y="-16" font-family="Times,serif" font-style="italic" font-size="10.00" fill="#000000">lexinfoformalRegister:Class</text>
</g>
<!-- cgnlexwform862735&#45;&gt;lexinfoformalRegister -->
<g id="edge3" class="edge">
<title>cgnlexwform862735&#45;&gt;lexinfoformalRegister</title>
<path fill="none" stroke="#000088" d="M588.7435,-88.4049C584.1532,-85.8009 579.554,-83.3134 575,-81 552.8314,-69.7384 509.2243,-72.3534 526,-54 541.0533,-37.5311 703.7984,-38.2172 726,-36 753.9264,-33.211 784.5003,-29.9201 811.6041,-26.9201"/>
<polygon fill="#000088" stroke="#000088" points="821.8092,-25.7861 812.3673,-31.363 816.8398,-26.3383 811.8703,-26.8905 811.8703,-26.8905 811.8703,-26.8905 816.8398,-26.3383 811.3734,-22.4181 821.8092,-25.7861 821.8092,-25.7861"/>
<text text-anchor="middle" x="551" y="-56.6" font-family="Times,serif" font-size="8.00" fill="#000000">lexinfoRegister</text>
</g>
<!-- lexinfoplural -->
<g id="node4" class="node">
<title>lexinfoplural</title>
<path fill="none" stroke="#000000" d="M705,-36C705,-36 629,-36 629,-36 623,-36 617,-30 617,-24 617,-24 617,-12 617,-12 617,-6 623,0 629,0 629,0 705,0 705,0 711,0 717,-6 717,-12 717,-12 717,-24 717,-24 717,-30 711,-36 705,-36"/>
<polygon fill="#add8e6" stroke="transparent" points="625,-10 625,-25 709,-25 709,-10 625,-10"/>
<text text-anchor="start" x="627" y="-16" font-family="Times,serif" font-style="italic" font-size="10.00" fill="#000000">lexinfoplural:Class</text>
</g>
<!-- cgnlexwform862735&#45;&gt;lexinfoplural -->
<g id="edge4" class="edge">
<title>cgnlexwform862735&#45;&gt;lexinfoplural</title>
<path fill="none" stroke="#000088" d="M591.7501,-88.4992C586.214,-85.7064 580.6046,-83.1678 575,-81 524.4186,-61.4359 421.0246,-95.4482 456,-54 465.7275,-42.4723 547.985,-31.0866 606.8616,-24.2994"/>
<polygon fill="#000088" stroke="#000088" points="616.8266,-23.1685 607.3978,-28.7676 611.8585,-23.7324 606.8903,-24.2963 606.8903,-24.2963 606.8903,-24.2963 611.8585,-23.7324 606.3829,-19.825 616.8266,-23.1685 616.8266,-23.1685"/>
<text text-anchor="middle" x="479.5" y="-56.6" font-family="Times,serif" font-size="8.00" fill="#000000">lexinfonumber</text>
</g>
<!-- node1cj6aeecqx3 -->
<g id="node5" class="node">
<title>node1cj6aeecqx3</title>
<path fill="none" stroke="#000000" d="M118,-163C118,-163 24,-163 24,-163 18,-163 12,-157 12,-151 12,-151 12,-139 12,-139 12,-133 18,-127 24,-127 24,-127 118,-127 118,-127 124,-127 130,-133 130,-139 130,-139 130,-151 130,-151 130,-157 124,-163 118,-163"/>
<polygon fill="#add8e6" stroke="transparent" points="20,-137 20,-152 122,-152 122,-137 20,-137"/>
<text text-anchor="start" x="22.5" y="-143" font-family="Times,serif" font-style="italic" font-size="10.00" fill="#000000">node1cj6aeecqx3:UNK</text>
</g>
<!-- lexinfocommonGender -->
<g id="node6" class="node">
<title>lexinfocommonGender</title>
<path fill="none" stroke="#000000" d="M130,-36C130,-36 12,-36 12,-36 6,-36 0,-30 0,-24 0,-24 0,-12 0,-12 0,-6 6,0 12,0 12,0 130,0 130,0 136,0 142,-6 142,-12 142,-12 142,-24 142,-24 142,-30 136,-36 130,-36"/>
<polygon fill="#add8e6" stroke="transparent" points="8,-10 8,-25 134,-25 134,-10 8,-10"/>
<text text-anchor="start" x="10.5" y="-16" font-family="Times,serif" font-style="italic" font-size="10.00" fill="#000000">lexinfocommonGender:Class</text>
</g>
<!-- node1cj6aeecqx3&#45;&gt;lexinfocommonGender -->
<g id="edge5" class="edge">
<title>node1cj6aeecqx3&#45;&gt;lexinfocommonGender</title>
<path fill="none" stroke="#000088" d="M71,-126.804C71,-105.7735 71,-70.9094 71,-46.3236"/>
<polygon fill="#000088" stroke="#000088" points="71,-36.1622 75.5001,-46.1622 71,-41.1622 71.0001,-46.1622 71.0001,-46.1622 71.0001,-46.1622 71,-41.1622 66.5001,-46.1623 71,-36.1622 71,-36.1622"/>
<text text-anchor="middle" x="94.5" y="-56.6" font-family="Times,serif" font-size="8.00" fill="#000000">lexinfoGender</text>
</g>
<!-- cgnlexlemma47751 -->
<g id="node7" class="node">
<title>cgnlexlemma47751</title>
<path fill="none" stroke="#000000" d="M821,-290C821,-290 647,-290 647,-290 641,-290 635,-284 635,-278 635,-278 635,-266 635,-266 635,-260 641,-254 647,-254 647,-254 821,-254 821,-254 827,-254 833,-260 833,-266 833,-266 833,-278 833,-278 833,-284 827,-290 821,-290"/>
<polygon fill="#add8e6" stroke="transparent" points="643,-264 643,-279 825,-279 825,-264 643,-264"/>
<text text-anchor="start" x="645" y="-270" font-family="Times,serif" font-style="italic" font-size="10.00" fill="#000000">cgnlex_lemma_47751:ontolexLexicalEntry</text>
</g>
<!-- cgnlexlemma47751&#45;&gt;cgnlexwform862735 -->
<g id="edge13" class="edge">
<title>cgnlexlemma47751&#45;&gt;cgnlexwform862735</title>
<path fill="none" stroke="#000088" d="M724.9736,-253.804C719.2853,-242.3371 711.5569,-226.7575 703.7271,-210.9738"/>
<polygon fill="#000088" stroke="#000088" points="699.1201,-201.6865 707.5953,-208.6451 701.3421,-206.1657 703.564,-210.6449 703.564,-210.6449 703.564,-210.6449 701.3421,-206.1657 699.5328,-212.6446 699.1201,-201.6865 699.1201,-201.6865"/>
<text text-anchor="middle" x="736" y="-229.6" font-family="Times,serif" font-size="8.00" fill="#000000">ontolexform</text>
</g>
<!-- cgnlexlemma47751&#45;&gt;node1cj6aeecqx3 -->
<g id="edge8" class="edge">
<title>cgnlexlemma47751&#45;&gt;node1cj6aeecqx3</title>
<path fill="none" stroke="#000088" d="M634.9771,-268.031C508.4749,-262.4451 296.7219,-251.2201 220,-236 182.778,-228.6159 171.5784,-228.4589 139,-209 121.8969,-198.7844 105.5452,-183.6297 93.1643,-170.6314"/>
<polygon fill="#000088" stroke="#000088" points="86.3578,-163.281 96.4541,-167.5608 89.755,-166.9496 93.1522,-170.6183 93.1522,-170.6183 93.1522,-170.6183 89.755,-166.9496 89.8504,-173.6758 86.3578,-163.281 86.3578,-163.281"/>
<text text-anchor="middle" x="272" y="-229.6" font-family="Times,serif" font-size="8.00" fill="#000000">lexinfoMorphosyntacticProperty</text>
</g>
<!-- node1cj6aeecqx1 -->
<g id="node8" class="node">
<title>node1cj6aeecqx1</title>
<path fill="none" stroke="#000000" d="M418,-164C418,-164 296,-164 296,-164 290,-164 284,-158 284,-152 284,-152 284,-138 284,-138 284,-132 290,-126 296,-126 296,-126 418,-126 418,-126 424,-126 430,-132 430,-138 430,-138 430,-152 430,-152 430,-158 424,-164 418,-164"/>
<polygon fill="#add8e6" stroke="transparent" points="292,-145 292,-160 422,-160 422,-145 292,-145"/>
<text text-anchor="start" x="308.5" y="-151" font-family="Times,serif" font-style="italic" font-size="10.00" fill="#000000">node1cj6aeecqx1:UNK</text>
<text text-anchor="start" x="294" y="-135" font-family="Times,serif" font-size="10.00" fill="#000000"> &#160;&#160;&#160;&#160;&#160;&#160;&#160;ontolexwrittenRep &#160;&#160;&#160;&#160;&#160;</text>
<text text-anchor="start" x="407" y="-135" font-family="Times,serif" font-size="10.00" fill="#000000">kat</text>
</g>
<!-- cgnlexlemma47751&#45;&gt;node1cj6aeecqx1 -->
<g id="edge6" class="edge">
<title>cgnlexlemma47751&#45;&gt;node1cj6aeecqx1</title>
<path fill="none" stroke="#000088" d="M634.7898,-262.9307C575.6262,-254.6242 500.3389,-238.8402 439,-209 419.1323,-199.3347 399.5261,-184.2905 384.4691,-171.216"/>
<polygon fill="#000088" stroke="#000088" points="376.5994,-164.2017 387.0587,-167.4961 380.332,-167.5285 384.0645,-170.8554 384.0645,-170.8554 384.0645,-170.8554 380.332,-167.5285 381.0704,-174.2147 376.5994,-164.2017 376.5994,-164.2017"/>
<text text-anchor="middle" x="529" y="-229.6" font-family="Times,serif" font-size="8.00" fill="#000000">ontolexform</text>
</g>
<!-- node1cj6aeecqx2 -->
<g id="node9" class="node">
<title>node1cj6aeecqx2</title>
<path fill="none" stroke="#000000" d="M254,-163C254,-163 160,-163 160,-163 154,-163 148,-157 148,-151 148,-151 148,-139 148,-139 148,-133 154,-127 160,-127 160,-127 254,-127 254,-127 260,-127 266,-133 266,-139 266,-139 266,-151 266,-151 266,-157 260,-163 254,-163"/>
<polygon fill="#add8e6" stroke="transparent" points="156,-137 156,-152 258,-152 258,-137 156,-137"/>
<text text-anchor="start" x="158.5" y="-143" font-family="Times,serif" font-style="italic" font-size="10.00" fill="#000000">node1cj6aeecqx2:UNK</text>
</g>
<!-- cgnlexlemma47751&#45;&gt;node1cj6aeecqx2 -->
<g id="edge7" class="edge">
<title>cgnlexlemma47751&#45;&gt;node1cj6aeecqx2</title>
<path fill="none" stroke="#000088" d="M634.9168,-266.769C518.9137,-259.2075 334.9907,-242.3155 275,-209 257.3468,-199.1964 240.7744,-183.7822 228.4101,-170.5378"/>
<polygon fill="#000088" stroke="#000088" points="221.6401,-163.0492 231.6845,-167.4495 224.9933,-166.7582 228.3464,-170.4673 228.3464,-170.4673 228.3464,-170.4673 224.9933,-166.7582 225.0083,-173.4851 221.6401,-163.0492 221.6401,-163.0492"/>
<text text-anchor="middle" x="410" y="-229.6" font-family="Times,serif" font-size="8.00" fill="#000000">lexinfoMorphosyntacticProperty</text>
</g>
<!-- node1cj6aeecqx4 -->
<g id="node11" class="node">
<title>node1cj6aeecqx4</title>
<path fill="none" stroke="#000000" d="M554,-163C554,-163 460,-163 460,-163 454,-163 448,-157 448,-151 448,-151 448,-139 448,-139 448,-133 454,-127 460,-127 460,-127 554,-127 554,-127 560,-127 566,-133 566,-139 566,-139 566,-151 566,-151 566,-157 560,-163 554,-163"/>
<polygon fill="#add8e6" stroke="transparent" points="456,-137 456,-152 558,-152 558,-137 456,-137"/>
<text text-anchor="start" x="458.5" y="-143" font-family="Times,serif" font-style="italic" font-size="10.00" fill="#000000">node1cj6aeecqx4:UNK</text>
</g>
<!-- cgnlexlemma47751&#45;&gt;node1cj6aeecqx4 -->
<g id="edge9" class="edge">
<title>cgnlexlemma47751&#45;&gt;node1cj6aeecqx4</title>
<path fill="none" stroke="#000088" d="M646.3872,-253.9705C631.7469,-249.2238 617.0813,-243.3159 604,-236 574.1101,-219.2837 546.2962,-191.3931 528.1851,-170.8864"/>
<polygon fill="#000088" stroke="#000088" points="521.5034,-163.1538 531.4466,-167.7782 524.7725,-166.937 528.0416,-170.7203 528.0416,-170.7203 528.0416,-170.7203 524.7725,-166.937 524.6366,-173.6625 521.5034,-163.1538 521.5034,-163.1538"/>
<text text-anchor="middle" x="656" y="-229.6" font-family="Times,serif" font-size="8.00" fill="#000000">lexinfoMorphosyntacticProperty</text>
</g>
<!-- cgnlexwform147297 -->
<g id="node13" class="node">
<title>cgnlexwform147297</title>
<path fill="none" stroke="#000000" d="M1858.5,-186.5C1858.5,-186.5 1709.5,-186.5 1709.5,-186.5 1703.5,-186.5 1697.5,-180.5 1697.5,-174.5 1697.5,-174.5 1697.5,-115.5 1697.5,-115.5 1697.5,-109.5 1703.5,-103.5 1709.5,-103.5 1709.5,-103.5 1858.5,-103.5 1858.5,-103.5 1864.5,-103.5 1870.5,-109.5 1870.5,-115.5 1870.5,-115.5 1870.5,-174.5 1870.5,-174.5 1870.5,-180.5 1864.5,-186.5 1858.5,-186.5"/>
<polygon fill="#add8e6" stroke="transparent" points="1706,-167 1706,-182 1863,-182 1863,-167 1706,-167"/>
<text text-anchor="start" x="1709" y="-173" font-family="Times,serif" font-style="italic" font-size="10.00" fill="#000000">cgnlex_wform_147297:ontolexword</text>
<text text-anchor="start" x="1711.5" y="-157" font-family="Times,serif" font-size="10.00" fill="#000000"> &#160;&#160;&#160;&#160;&#160;&#160;&#160;ontolexwrittenRep &#160;&#160;&#160;&#160;&#160;</text>
<text text-anchor="start" x="1838" y="-157" font-family="Times,serif" font-size="10.00" fill="#000000">kat</text>
<text text-anchor="start" x="1708" y="-142" font-family="Times,serif" font-size="10.00" fill="#000000"> &#160;&#160;&#160;&#160;&#160;&#160;&#160;ontolexphoneticRep &#160;&#160;&#160;&#160;&#160;</text>
<text text-anchor="start" x="1836.5" y="-142" font-family="Times,serif" font-size="10.00" fill="#000000">kAt</text>
<text text-anchor="start" x="1708" y="-127" font-family="Times,serif" font-size="10.00" fill="#000000"> &#160;&#160;&#160;&#160;&#160;&#160;&#160;ontolexphoneticRep &#160;&#160;&#160;&#160;&#160;</text>
<text text-anchor="start" x="1836.5" y="-127" font-family="Times,serif" font-size="10.00" fill="#000000">kAt</text>
<text text-anchor="start" x="1724" y="-112" font-family="Times,serif" font-size="10.00" fill="#000000"> &#160;&#160;&#160;&#160;&#160;&#160;&#160;variantLabel &#160;&#160;&#160;&#160;&#160;</text>
<text text-anchor="start" x="1828" y="-112" font-family="Times,serif" font-size="10.00" fill="#000000">Flemish</text>
</g>
<!-- cgnlexlemma47751&#45;&gt;cgnlexwform147297 -->
<g id="edge10" class="edge">
<title>cgnlexlemma47751&#45;&gt;cgnlexwform147297</title>
<path fill="none" stroke="#000088" d="M833.4147,-268.0156C1058.1661,-258.6193 1591.9577,-233.9805 1670,-209 1683.8753,-204.5587 1697.9595,-198.321 1711.2754,-191.4671"/>
<polygon fill="#000088" stroke="#000088" points="1720.3595,-186.6381 1713.6418,-195.3055 1715.9445,-188.9851 1711.5295,-191.332 1711.5295,-191.332 1711.5295,-191.332 1715.9445,-188.9851 1709.4173,-187.3586 1720.3595,-186.6381 1720.3595,-186.6381"/>
<text text-anchor="middle" x="1555" y="-229.6" font-family="Times,serif" font-size="8.00" fill="#000000">ontolexform</text>
</g>
<!-- cgnlexwform807576 -->
<g id="node15" class="node">
<title>cgnlexwform807576</title>
<path fill="none" stroke="#000000" d="M1443.5,-201.5C1443.5,-201.5 1294.5,-201.5 1294.5,-201.5 1288.5,-201.5 1282.5,-195.5 1282.5,-189.5 1282.5,-189.5 1282.5,-100.5 1282.5,-100.5 1282.5,-94.5 1288.5,-88.5 1294.5,-88.5 1294.5,-88.5 1443.5,-88.5 1443.5,-88.5 1449.5,-88.5 1455.5,-94.5 1455.5,-100.5 1455.5,-100.5 1455.5,-189.5 1455.5,-189.5 1455.5,-195.5 1449.5,-201.5 1443.5,-201.5"/>
<polygon fill="#add8e6" stroke="transparent" points="1291,-182 1291,-197 1448,-197 1448,-182 1291,-182"/>
<text text-anchor="start" x="1294" y="-188" font-family="Times,serif" font-style="italic" font-size="10.00" fill="#000000">cgnlex_wform_807576:ontolexword</text>
<text text-anchor="start" x="1296.5" y="-172" font-family="Times,serif" font-size="10.00" fill="#000000"> &#160;&#160;&#160;&#160;&#160;&#160;&#160;ontolexwrittenRep &#160;&#160;&#160;&#160;&#160;</text>
<text text-anchor="start" x="1419" y="-172" font-family="Times,serif" font-size="10.00" fill="#000000">katje</text>
<text text-anchor="start" x="1293" y="-157" font-family="Times,serif" font-size="10.00" fill="#000000"> &#160;&#160;&#160;&#160;&#160;&#160;&#160;ontolexphoneticRep &#160;&#160;&#160;&#160;&#160;</text>
<text text-anchor="start" x="1415.5" y="-157" font-family="Times,serif" font-size="10.00" fill="#000000">kAtj@</text>
<text text-anchor="start" x="1293" y="-142" font-family="Times,serif" font-size="10.00" fill="#000000"> &#160;&#160;&#160;&#160;&#160;&#160;&#160;ontolexphoneticRep &#160;&#160;&#160;&#160;&#160;</text>
<text text-anchor="start" x="1415.5" y="-142" font-family="Times,serif" font-size="10.00" fill="#000000">kAtj@</text>
<text text-anchor="start" x="1309" y="-127" font-family="Times,serif" font-size="10.00" fill="#000000"> &#160;&#160;&#160;&#160;&#160;&#160;&#160;variantLabel &#160;&#160;&#160;&#160;&#160;</text>
<text text-anchor="start" x="1413" y="-127" font-family="Times,serif" font-size="10.00" fill="#000000">Flemish</text>
<text text-anchor="start" x="1293" y="-112" font-family="Times,serif" font-size="10.00" fill="#000000"> &#160;&#160;&#160;&#160;&#160;&#160;&#160;ontolexphoneticRep &#160;&#160;&#160;&#160;&#160;</text>
<text text-anchor="start" x="1415.5" y="-112" font-family="Times,serif" font-size="10.00" fill="#000000">kAtj@</text>
<text text-anchor="start" x="1309" y="-97" font-family="Times,serif" font-size="10.00" fill="#000000"> &#160;&#160;&#160;&#160;&#160;&#160;&#160;variantLabel &#160;&#160;&#160;&#160;&#160;</text>
<text text-anchor="start" x="1413" y="-97" font-family="Times,serif" font-size="10.00" fill="#000000">Flemish</text>
</g>
<!-- cgnlexlemma47751&#45;&gt;cgnlexwform807576 -->
<g id="edge11" class="edge">
<title>cgnlexlemma47751&#45;&gt;cgnlexwform807576</title>
<path fill="none" stroke="#000088" d="M833.2001,-265.2635C928.6073,-257.2328 1076.3212,-240.7078 1201,-209 1224.6612,-202.9826 1249.5481,-194.6671 1272.7024,-186.0198"/>
<polygon fill="#000088" stroke="#000088" points="1282.1665,-182.4318 1274.4112,-190.1846 1277.4912,-184.2043 1272.8159,-185.9768 1272.8159,-185.9768 1272.8159,-185.9768 1277.4912,-184.2043 1271.2207,-181.7691 1282.1665,-182.4318 1282.1665,-182.4318"/>
<text text-anchor="middle" x="1134" y="-229.6" font-family="Times,serif" font-size="8.00" fill="#000000">ontolexform</text>
</g>
<!-- cgnlexwform862734 -->
<g id="node16" class="node">
<title>cgnlexwform862734</title>
<path fill="none" stroke="#000000" d="M1180.5,-201.5C1180.5,-201.5 1031.5,-201.5 1031.5,-201.5 1025.5,-201.5 1019.5,-195.5 1019.5,-189.5 1019.5,-189.5 1019.5,-100.5 1019.5,-100.5 1019.5,-94.5 1025.5,-88.5 1031.5,-88.5 1031.5,-88.5 1180.5,-88.5 1180.5,-88.5 1186.5,-88.5 1192.5,-94.5 1192.5,-100.5 1192.5,-100.5 1192.5,-189.5 1192.5,-189.5 1192.5,-195.5 1186.5,-201.5 1180.5,-201.5"/>
<polygon fill="#add8e6" stroke="transparent" points="1028,-182 1028,-197 1185,-197 1185,-182 1028,-182"/>
<text text-anchor="start" x="1031" y="-188" font-family="Times,serif" font-style="italic" font-size="10.00" fill="#000000">cgnlex_wform_862734:ontolexword</text>
<text text-anchor="start" x="1033.5" y="-172" font-family="Times,serif" font-size="10.00" fill="#000000"> &#160;&#160;&#160;&#160;&#160;&#160;&#160;ontolexwrittenRep &#160;&#160;&#160;&#160;&#160;</text>
<text text-anchor="start" x="1156" y="-172" font-family="Times,serif" font-size="10.00" fill="#000000">katje</text>
<text text-anchor="start" x="1030" y="-157" font-family="Times,serif" font-size="10.00" fill="#000000"> &#160;&#160;&#160;&#160;&#160;&#160;&#160;ontolexphoneticRep &#160;&#160;&#160;&#160;&#160;</text>
<text text-anchor="start" x="1152.5" y="-157" font-family="Times,serif" font-size="10.00" fill="#000000">kAtj@</text>
<text text-anchor="start" x="1030" y="-142" font-family="Times,serif" font-size="10.00" fill="#000000"> &#160;&#160;&#160;&#160;&#160;&#160;&#160;ontolexphoneticRep &#160;&#160;&#160;&#160;&#160;</text>
<text text-anchor="start" x="1152.5" y="-142" font-family="Times,serif" font-size="10.00" fill="#000000">kAtj@</text>
<text text-anchor="start" x="1046" y="-127" font-family="Times,serif" font-size="10.00" fill="#000000"> &#160;&#160;&#160;&#160;&#160;&#160;&#160;variantLabel &#160;&#160;&#160;&#160;&#160;</text>
<text text-anchor="start" x="1150" y="-127" font-family="Times,serif" font-size="10.00" fill="#000000">Flemish</text>
<text text-anchor="start" x="1030" y="-112" font-family="Times,serif" font-size="10.00" fill="#000000"> &#160;&#160;&#160;&#160;&#160;&#160;&#160;ontolexphoneticRep &#160;&#160;&#160;&#160;&#160;</text>
<text text-anchor="start" x="1152.5" y="-112" font-family="Times,serif" font-size="10.00" fill="#000000">kAtj@</text>
<text text-anchor="start" x="1046" y="-97" font-family="Times,serif" font-size="10.00" fill="#000000"> &#160;&#160;&#160;&#160;&#160;&#160;&#160;variantLabel &#160;&#160;&#160;&#160;&#160;</text>
<text text-anchor="start" x="1150" y="-97" font-family="Times,serif" font-size="10.00" fill="#000000">Flemish</text>
</g>
<!-- cgnlexlemma47751&#45;&gt;cgnlexwform862734 -->
<g id="edge12" class="edge">
<title>cgnlexlemma47751&#45;&gt;cgnlexwform862734</title>
<path fill="none" stroke="#000088" d="M806.8075,-253.9984C850.7494,-242.5014 907.6084,-226.5005 957,-209 974.2407,-202.8913 992.3271,-195.7611 1009.7195,-188.5215"/>
<polygon fill="#000088" stroke="#000088" points="1019.3008,-184.4939 1011.826,-192.5175 1014.6915,-186.4315 1010.0822,-188.3691 1010.0822,-188.3691 1010.0822,-188.3691 1014.6915,-186.4315 1008.3384,-184.2207 1019.3008,-184.4939 1019.3008,-184.4939"/>
<text text-anchor="middle" x="917" y="-229.6" font-family="Times,serif" font-size="8.00" fill="#000000">ontolexform</text>
</g>
<!-- cgnlexwform147514 -->
<g id="node17" class="node">
<title>cgnlexwform147514</title>
<path fill="none" stroke="#000000" d="M936.5,-209C936.5,-209 787.5,-209 787.5,-209 781.5,-209 775.5,-203 775.5,-197 775.5,-197 775.5,-93 775.5,-93 775.5,-87 781.5,-81 787.5,-81 787.5,-81 936.5,-81 936.5,-81 942.5,-81 948.5,-87 948.5,-93 948.5,-93 948.5,-197 948.5,-197 948.5,-203 942.5,-209 936.5,-209"/>
<polygon fill="#add8e6" stroke="transparent" points="784,-190 784,-205 941,-205 941,-190 784,-190"/>
<text text-anchor="start" x="787" y="-196" font-family="Times,serif" font-style="italic" font-size="10.00" fill="#000000">cgnlex_wform_147514:ontolexword</text>
<text text-anchor="start" x="789.5" y="-180" font-family="Times,serif" font-size="10.00" fill="#000000"> &#160;&#160;&#160;&#160;&#160;&#160;&#160;ontolexwrittenRep &#160;&#160;&#160;&#160;&#160;</text>
<text text-anchor="start" x="909.5" y="-180" font-family="Times,serif" font-size="10.00" fill="#000000">katten</text>
<text text-anchor="start" x="789.5" y="-165" font-family="Times,serif" font-size="10.00" fill="#000000"> &#160;&#160;&#160;&#160;&#160;&#160;&#160;ontolexwrittenRep &#160;&#160;&#160;&#160;&#160;</text>
<text text-anchor="start" x="909.5" y="-165" font-family="Times,serif" font-size="10.00" fill="#000000">katten</text>
<text text-anchor="start" x="786" y="-150" font-family="Times,serif" font-size="10.00" fill="#000000"> &#160;&#160;&#160;&#160;&#160;&#160;&#160;ontolexphoneticRep &#160;&#160;&#160;&#160;&#160;</text>
<text text-anchor="start" x="910" y="-150" font-family="Times,serif" font-size="10.00" fill="#000000">kAt@</text>
<text text-anchor="start" x="786" y="-135" font-family="Times,serif" font-size="10.00" fill="#000000"> &#160;&#160;&#160;&#160;&#160;&#160;&#160;ontolexphoneticRep &#160;&#160;&#160;&#160;&#160;</text>
<text text-anchor="start" x="907" y="-135" font-family="Times,serif" font-size="10.00" fill="#000000">kAt@n</text>
<text text-anchor="start" x="802" y="-120" font-family="Times,serif" font-size="10.00" fill="#000000"> &#160;&#160;&#160;&#160;&#160;&#160;&#160;variantLabel &#160;&#160;&#160;&#160;&#160;</text>
<text text-anchor="start" x="906" y="-120" font-family="Times,serif" font-size="10.00" fill="#000000">Flemish</text>
<text text-anchor="start" x="786" y="-105" font-family="Times,serif" font-size="10.00" fill="#000000"> &#160;&#160;&#160;&#160;&#160;&#160;&#160;ontolexphoneticRep &#160;&#160;&#160;&#160;&#160;</text>
<text text-anchor="start" x="910" y="-105" font-family="Times,serif" font-size="10.00" fill="#000000">kAt@</text>
<text text-anchor="start" x="802" y="-90" font-family="Times,serif" font-size="10.00" fill="#000000"> &#160;&#160;&#160;&#160;&#160;&#160;&#160;variantLabel &#160;&#160;&#160;&#160;&#160;</text>
<text text-anchor="start" x="906" y="-90" font-family="Times,serif" font-size="10.00" fill="#000000">Flemish</text>
</g>
<!-- cgnlexlemma47751&#45;&gt;cgnlexwform147514 -->
<g id="edge14" class="edge">
<title>cgnlexlemma47751&#45;&gt;cgnlexwform147514</title>
<path fill="none" stroke="#000088" d="M752.3393,-253.804C762.582,-243.6413 776.0805,-230.2483 790.0925,-216.3457"/>
<polygon fill="#000088" stroke="#000088" points="797.4522,-209.0436 793.5229,-219.2813 793.9028,-212.5652 790.3534,-216.0869 790.3534,-216.0869 790.3534,-216.0869 793.9028,-212.5652 787.1839,-212.8924 797.4522,-209.0436 797.4522,-209.0436"/>
<text text-anchor="middle" x="800" y="-229.6" font-family="Times,serif" font-size="8.00" fill="#000000">ontolexform</text>
</g>
<!-- cgnlexwform802537 -->
<g id="node18" class="node">
<title>cgnlexwform802537</title>
<path fill="none" stroke="#000000" d="M1648.5,-186.5C1648.5,-186.5 1499.5,-186.5 1499.5,-186.5 1493.5,-186.5 1487.5,-180.5 1487.5,-174.5 1487.5,-174.5 1487.5,-115.5 1487.5,-115.5 1487.5,-109.5 1493.5,-103.5 1499.5,-103.5 1499.5,-103.5 1648.5,-103.5 1648.5,-103.5 1654.5,-103.5 1660.5,-109.5 1660.5,-115.5 1660.5,-115.5 1660.5,-174.5 1660.5,-174.5 1660.5,-180.5 1654.5,-186.5 1648.5,-186.5"/>
<polygon fill="#add8e6" stroke="transparent" points="1496,-167 1496,-182 1653,-182 1653,-167 1496,-167"/>
<text text-anchor="start" x="1514.5" y="-173" font-family="Times,serif" font-style="italic" font-size="10.00" fill="#000000">cgnlex_wform_802537:UNK</text>
<text text-anchor="start" x="1501.5" y="-157" font-family="Times,serif" font-size="10.00" fill="#000000"> &#160;&#160;&#160;&#160;&#160;&#160;&#160;ontolexwrittenRep &#160;&#160;&#160;&#160;&#160;</text>
<text text-anchor="start" x="1626.5" y="-157" font-family="Times,serif" font-size="10.00" fill="#000000">Kat</text>
<text text-anchor="start" x="1498" y="-142" font-family="Times,serif" font-size="10.00" fill="#000000"> &#160;&#160;&#160;&#160;&#160;&#160;&#160;ontolexphoneticRep &#160;&#160;&#160;&#160;&#160;</text>
<text text-anchor="start" x="1626.5" y="-142" font-family="Times,serif" font-size="10.00" fill="#000000">kAt</text>
<text text-anchor="start" x="1498" y="-127" font-family="Times,serif" font-size="10.00" fill="#000000"> &#160;&#160;&#160;&#160;&#160;&#160;&#160;ontolexphoneticRep &#160;&#160;&#160;&#160;&#160;</text>
<text text-anchor="start" x="1626.5" y="-127" font-family="Times,serif" font-size="10.00" fill="#000000">ka:t</text>
<text text-anchor="start" x="1514" y="-112" font-family="Times,serif" font-size="10.00" fill="#000000"> &#160;&#160;&#160;&#160;&#160;&#160;&#160;variantLabel &#160;&#160;&#160;&#160;&#160;</text>
<text text-anchor="start" x="1618" y="-112" font-family="Times,serif" font-size="10.00" fill="#000000">Flemish</text>
</g>
<!-- cgnlexlemma47751&#45;&gt;cgnlexwform802537 -->
<g id="edge15" class="edge">
<title>cgnlexlemma47751&#45;&gt;cgnlexwform802537</title>
<path fill="none" stroke="#000088" d="M833.2701,-268.8271C1004.7718,-262.4499 1349.1997,-245.4544 1464,-209 1477.6878,-204.6535 1491.5163,-198.3882 1504.5316,-191.4588"/>
<polygon fill="#000088" stroke="#000088" points="1513.4005,-186.5708 1506.8147,-195.3387 1509.0216,-188.9842 1504.6426,-191.3976 1504.6426,-191.3976 1504.6426,-191.3976 1509.0216,-188.9842 1502.4705,-187.4566 1513.4005,-186.5708 1513.4005,-186.5708"/>
<text text-anchor="middle" x="1397" y="-229.6" font-family="Times,serif" font-size="8.00" fill="#000000">ontolexform</text>
</g>
<!-- lexinfonoun -->
<g id="node10" class="node">
<title>lexinfonoun</title>
<path fill="none" stroke="#000000" d="M244,-36C244,-36 172,-36 172,-36 166,-36 160,-30 160,-24 160,-24 160,-12 160,-12 160,-6 166,0 172,0 172,0 244,0 244,0 250,0 256,-6 256,-12 256,-12 256,-24 256,-24 256,-30 250,-36 244,-36"/>
<polygon fill="#add8e6" stroke="transparent" points="168,-10 168,-25 248,-25 248,-10 168,-10"/>
<text text-anchor="start" x="170" y="-16" font-family="Times,serif" font-style="italic" font-size="10.00" fill="#000000">lexinfonoun:Class</text>
</g>
<!-- node1cj6aeecqx2&#45;&gt;lexinfonoun -->
<g id="edge16" class="edge">
<title>node1cj6aeecqx2&#45;&gt;lexinfonoun</title>
<path fill="none" stroke="#000088" d="M207.1433,-126.804C207.3089,-105.7735 207.5834,-70.9094 207.777,-46.3236"/>
<polygon fill="#000088" stroke="#000088" points="207.857,-36.1622 212.278,-46.1974 207.8176,-41.1621 207.7782,-46.1619 207.7782,-46.1619 207.7782,-46.1619 207.8176,-41.1621 203.2783,-46.1265 207.857,-36.1622 207.857,-36.1622"/>
<text text-anchor="middle" x="242" y="-56.6" font-family="Times,serif" font-size="8.00" fill="#000000">lexinfopartOfSpeech</text>
</g>
<!-- lexinfoneuter -->
<g id="node12" class="node">
<title>lexinfoneuter</title>
<path fill="none" stroke="#000000" d="M424,-36C424,-36 346,-36 346,-36 340,-36 334,-30 334,-24 334,-24 334,-12 334,-12 334,-6 340,0 346,0 346,0 424,0 424,0 430,0 436,-6 436,-12 436,-12 436,-24 436,-24 436,-30 430,-36 424,-36"/>
<polygon fill="#add8e6" stroke="transparent" points="342,-10 342,-25 428,-25 428,-10 342,-10"/>
<text text-anchor="start" x="344.5" y="-16" font-family="Times,serif" font-style="italic" font-size="10.00" fill="#000000">lexinfoneuter:Class</text>
</g>
<!-- node1cj6aeecqx4&#45;&gt;lexinfoneuter -->
<g id="edge17" class="edge">
<title>node1cj6aeecqx4&#45;&gt;lexinfoneuter</title>
<path fill="none" stroke="#000088" d="M490.7228,-126.7553C477.7117,-112.9373 458.484,-94.1519 439,-81 423.177,-70.3193 412.7318,-77.2248 400,-63 395.7779,-58.2828 392.7389,-52.3408 390.5532,-46.3349"/>
<polygon fill="#000088" stroke="#000088" points="387.6221,-36.3722 394.7616,-44.6955 389.0333,-41.1689 390.4446,-45.9656 390.4446,-45.9656 390.4446,-45.9656 389.0333,-41.1689 386.1275,-47.2357 387.6221,-36.3722 387.6221,-36.3722"/>
<text text-anchor="middle" x="423.5" y="-56.6" font-family="Times,serif" font-size="8.00" fill="#000000">lexinfoGender</text>
</g>
<!-- cgnlexwform147297&#45;&gt;lexinfoneutralRegister -->
<g id="edge18" class="edge">
<title>cgnlexwform147297&#45;&gt;lexinfoneutralRegister</title>
<path fill="none" stroke="#000088" d="M1765.3986,-103.1267C1755.0435,-84.8826 1740.2989,-65.1527 1721,-54 1691.1346,-36.741 1483.3033,-25.7944 1366.4124,-20.931"/>
<polygon fill="#000088" stroke="#000088" points="1356.0846,-20.5072 1366.2607,-16.4211 1361.0804,-20.7123 1366.0762,-20.9173 1366.0762,-20.9173 1366.0762,-20.9173 1361.0804,-20.7123 1365.8917,-25.4135 1356.0846,-20.5072 1356.0846,-20.5072"/>
<text text-anchor="middle" x="1758" y="-56.6" font-family="Times,serif" font-size="8.00" fill="#000000">lexinfoRegister</text>
</g>
<!-- cgnlexwform147297&#45;&gt;lexinfoneutralRegister -->
<g id="edge19" class="edge">
<title>cgnlexwform147297&#45;&gt;lexinfoneutralRegister</title>
<path fill="none" stroke="#000088" d="M1797.2281,-103.3154C1799.9942,-85.9984 1799.0608,-66.9604 1787,-54 1779.928,-46.4005 1505.5124,-30.124 1366.295,-22.3316"/>
<polygon fill="#000088" stroke="#000088" points="1356.1036,-21.7628 1366.3388,-17.8271 1361.0958,-22.0414 1366.088,-22.3201 1366.088,-22.3201 1366.088,-22.3201 1361.0958,-22.0414 1365.8372,-26.8131 1356.1036,-21.7628 1356.1036,-21.7628"/>
<text text-anchor="middle" x="1817" y="-56.6" font-family="Times,serif" font-size="8.00" fill="#000000">lexinfoRegister</text>
</g>
<!-- lexinfosingular -->
<g id="node14" class="node">
<title>lexinfosingular</title>
<path fill="none" stroke="#000000" d="M1730,-36C1730,-36 1644,-36 1644,-36 1638,-36 1632,-30 1632,-24 1632,-24 1632,-12 1632,-12 1632,-6 1638,0 1644,0 1644,0 1730,0 1730,0 1736,0 1742,-6 1742,-12 1742,-12 1742,-24 1742,-24 1742,-30 1736,-36 1730,-36"/>
<polygon fill="#add8e6" stroke="transparent" points="1640,-10 1640,-25 1734,-25 1734,-10 1640,-10"/>
<text text-anchor="start" x="1642.5" y="-16" font-family="Times,serif" font-style="italic" font-size="10.00" fill="#000000">lexinfosingular:Class</text>
</g>
<!-- cgnlexwform147297&#45;&gt;lexinfosingular -->
<g id="edge20" class="edge">
<title>cgnlexwform147297&#45;&gt;lexinfosingular</title>
<path fill="none" stroke="#000088" d="M1866.0603,-103.4529C1884.7538,-88.6358 1895.3942,-71.311 1881,-54 1864.7618,-34.4713 1802.2455,-25.4876 1752.511,-21.3849"/>
<polygon fill="#000088" stroke="#000088" points="1742.4332,-20.6046 1752.7508,-16.8901 1747.4183,-20.9906 1752.4034,-21.3766 1752.4034,-21.3766 1752.4034,-21.3766 1747.4183,-20.9906 1752.0559,-25.8632 1742.4332,-20.6046 1742.4332,-20.6046"/>
<text text-anchor="middle" x="1909.5" y="-56.6" font-family="Times,serif" font-size="8.00" fill="#000000">lexinfonumber</text>
</g>
<!-- cgnlexwform807576&#45;&gt;lexinfoneutralRegister -->
<g id="edge21" class="edge">
<title>cgnlexwform807576&#45;&gt;lexinfoneutralRegister</title>
<path fill="none" stroke="#000088" d="M1446.5015,-88.1281C1453.4276,-76.9101 1454.913,-65.1567 1446,-54 1435.5489,-40.9181 1400.7932,-32.2385 1366.4321,-26.6864"/>
<polygon fill="#000088" stroke="#000088" points="1356.2918,-25.1324 1366.8581,-22.1993 1361.2341,-25.8899 1366.1764,-26.6473 1366.1764,-26.6473 1366.1764,-26.6473 1361.2341,-25.8899 1365.4947,-31.0954 1356.2918,-25.1324 1356.2918,-25.1324"/>
<text text-anchor="middle" x="1476" y="-56.6" font-family="Times,serif" font-size="8.00" fill="#000000">lexinfoRegister</text>
</g>
<!-- cgnlexwform807576&#45;&gt;lexinfoneutralRegister -->
<g id="edge22" class="edge">
<title>cgnlexwform807576&#45;&gt;lexinfoneutralRegister</title>
<path fill="none" stroke="#000088" d="M1382.0272,-88.1385C1382.0109,-76.0905 1379.6584,-64.0055 1373,-54 1369.9175,-49.368 1366.1122,-45.3309 1361.8338,-41.8123"/>
<polygon fill="#000088" stroke="#000088" points="1353.6757,-36.0226 1364.4352,-38.1404 1357.7532,-38.9164 1361.8308,-41.8102 1361.8308,-41.8102 1361.8308,-41.8102 1357.7532,-38.9164 1359.2264,-45.4799 1353.6757,-36.0226 1353.6757,-36.0226"/>
<text text-anchor="middle" x="1403" y="-56.6" font-family="Times,serif" font-size="8.00" fill="#000000">lexinfoRegister</text>
</g>
<!-- cgnlexwform807576&#45;&gt;lexinfoformalRegister -->
<g id="edge23" class="edge">
<title>cgnlexwform807576&#45;&gt;lexinfoformalRegister</title>
<path fill="none" stroke="#000088" d="M1337.5135,-88.3448C1327.3127,-74.921 1314.7506,-62.1507 1300,-54 1271.7606,-38.3959 1079.2903,-26.8906 968.3797,-21.4676"/>
<polygon fill="#000088" stroke="#000088" points="958.2382,-20.9775 968.4438,-16.9655 963.2324,-21.2189 968.2265,-21.4603 968.2265,-21.4603 968.2265,-21.4603 963.2324,-21.2189 968.0093,-25.955 958.2382,-20.9775 958.2382,-20.9775"/>
<text text-anchor="middle" x="1338" y="-56.6" font-family="Times,serif" font-size="8.00" fill="#000000">lexinfoRegister</text>
</g>
<!-- cgnlexwform862734&#45;&gt;lexinfoneutralRegister -->
<g id="edge24" class="edge">
<title>cgnlexwform862734&#45;&gt;lexinfoneutralRegister</title>
<path fill="none" stroke="#000088" d="M1095.3486,-88.4298C1095.8891,-75.9533 1099.0339,-63.609 1107,-54 1120.1339,-38.1575 1165.826,-29.1375 1207.8839,-24.0882"/>
<polygon fill="#000088" stroke="#000088" points="1217.9104,-22.9489 1208.4824,-28.5492 1212.9424,-23.5135 1207.9744,-24.078 1207.9744,-24.078 1207.9744,-24.078 1212.9424,-23.5135 1207.4663,-19.6068 1217.9104,-22.9489 1217.9104,-22.9489"/>
<text text-anchor="middle" x="1132" y="-56.6" font-family="Times,serif" font-size="8.00" fill="#000000">lexinfoRegister</text>
</g>
<!-- cgnlexwform862734&#45;&gt;lexinfoneutralRegister -->
<g id="edge25" class="edge">
<title>cgnlexwform862734&#45;&gt;lexinfoneutralRegister</title>
<path fill="none" stroke="#000088" d="M1143.855,-88.2687C1154.3668,-75.6506 1166.6133,-63.2828 1180,-54 1188.6048,-48.0331 1198.2783,-42.9888 1208.1996,-38.7419"/>
<polygon fill="#000088" stroke="#000088" points="1217.7609,-34.9103 1210.1524,-42.8072 1213.1197,-36.7702 1208.4785,-38.6301 1208.4785,-38.6301 1208.4785,-38.6301 1213.1197,-36.7702 1206.8046,-34.4531 1217.7609,-34.9103 1217.7609,-34.9103"/>
<text text-anchor="middle" x="1205" y="-56.6" font-family="Times,serif" font-size="8.00" fill="#000000">lexinfoRegister</text>
</g>
<!-- cgnlexwform862734&#45;&gt;lexinfoformalRegister -->
<g id="edge26" class="edge">
<title>cgnlexwform862734&#45;&gt;lexinfoformalRegister</title>
<path fill="none" stroke="#000088" d="M1055.6841,-88.3624C1042.1873,-75.6663 1026.8951,-63.2394 1011,-54 997.788,-46.3201 982.7966,-40.1531 967.9754,-35.2446"/>
<polygon fill="#000088" stroke="#000088" points="958.2807,-32.1975 969.1699,-30.9031 963.0506,-33.6968 967.8206,-35.196 967.8206,-35.196 967.8206,-35.196 963.0506,-33.6968 966.4712,-39.489 958.2807,-32.1975 958.2807,-32.1975"/>
<text text-anchor="middle" x="1048" y="-56.6" font-family="Times,serif" font-size="8.00" fill="#000000">lexinfoRegister</text>
</g>
<!-- cgnlexwform862734&#45;&gt;lexinfosingular -->
<g id="edge27" class="edge">
<title>cgnlexwform862734&#45;&gt;lexinfosingular</title>
<path fill="none" stroke="#000088" d="M1191.2639,-88.4237C1217.7411,-71.3238 1241.8874,-56.3916 1249,-54 1283.3637,-42.4454 1508.1385,-28.204 1621.642,-21.6346"/>
<polygon fill="#000088" stroke="#000088" points="1631.9377,-21.0421 1622.2128,-26.1093 1626.946,-21.3294 1621.9542,-21.6167 1621.9542,-21.6167 1621.9542,-21.6167 1626.946,-21.3294 1621.6957,-17.1241 1631.9377,-21.0421 1631.9377,-21.0421"/>
<text text-anchor="middle" x="1272.5" y="-56.6" font-family="Times,serif" font-size="8.00" fill="#000000">lexinfonumber</text>
</g>
<!-- cgnlexwform147514&#45;&gt;lexinfoneutralRegister -->
<g id="edge28" class="edge">
<title>cgnlexwform147514&#45;&gt;lexinfoneutralRegister</title>
<path fill="none" stroke="#000088" d="M917.1528,-80.9287C929.2323,-70.3396 942.7173,-60.6592 957,-54 1000.0593,-33.9239 1124.5334,-24.7751 1207.6939,-20.8057"/>
<polygon fill="#000088" stroke="#000088" points="1217.875,-20.3356 1208.0932,-25.2921 1212.8803,-20.5662 1207.8856,-20.7969 1207.8856,-20.7969 1207.8856,-20.7969 1212.8803,-20.5662 1207.6781,-16.3017 1217.875,-20.3356 1217.875,-20.3356"/>
<text text-anchor="middle" x="982" y="-56.6" font-family="Times,serif" font-size="8.00" fill="#000000">lexinfoRegister</text>
</g>
<!-- cgnlexwform147514&#45;&gt;lexinfoneutralRegister -->
<g id="edge29" class="edge">
<title>cgnlexwform147514&#45;&gt;lexinfoneutralRegister</title>
<path fill="none" stroke="#000088" d="M869.7204,-80.9125C873.6954,-70.5956 879.5183,-61.0179 888,-54 912.0337,-34.114 1098.3281,-24.4201 1207.6628,-20.3993"/>
<polygon fill="#000088" stroke="#000088" points="1217.6703,-20.0392 1207.8386,-24.896 1212.6735,-20.2191 1207.6767,-20.3989 1207.6767,-20.3989 1207.6767,-20.3989 1212.6735,-20.2191 1207.5149,-15.9018 1217.6703,-20.0392 1217.6703,-20.0392"/>
<text text-anchor="middle" x="913" y="-56.6" font-family="Times,serif" font-size="8.00" fill="#000000">lexinfoRegister</text>
</g>
<!-- cgnlexwform147514&#45;&gt;lexinfoformalRegister -->
<g id="edge30" class="edge">
<title>cgnlexwform147514&#45;&gt;lexinfoformalRegister</title>
<path fill="none" stroke="#000088" d="M811.0528,-80.5904C808.9629,-71.5231 809.6969,-62.4279 815,-54 817.8124,-49.5304 821.3513,-45.6032 825.3519,-42.1547"/>
<polygon fill="#000088" stroke="#000088" points="833.5445,-36.096 828.1799,-45.6601 829.5244,-39.069 825.5042,-42.042 825.5042,-42.042 825.5042,-42.042 829.5244,-39.069 822.8285,-38.4239 833.5445,-36.096 833.5445,-36.096"/>
<text text-anchor="middle" x="840" y="-56.6" font-family="Times,serif" font-size="8.00" fill="#000000">lexinfoRegister</text>
</g>
<!-- cgnlexwform147514&#45;&gt;lexinfoplural -->
<g id="edge31" class="edge">
<title>cgnlexwform147514&#45;&gt;lexinfoplural</title>
<path fill="none" stroke="#000088" d="M775.449,-87.177C772.2626,-85.0872 769.105,-83.0226 766,-81 745.6638,-67.7528 722.8153,-53.1917 704.1969,-41.4084"/>
<polygon fill="#000088" stroke="#000088" points="695.6961,-36.0352 706.5535,-37.5743 699.9226,-38.7067 704.1491,-41.3782 704.1491,-41.3782 704.1491,-41.3782 699.9226,-38.7067 701.7448,-45.1821 695.6961,-36.0352 695.6961,-36.0352"/>
<text text-anchor="middle" x="760.5" y="-56.6" font-family="Times,serif" font-size="8.00" fill="#000000">lexinfonumber</text>
</g>
<!-- cgnlexwform802537&#45;&gt;lexinfoneutralRegister -->
<g id="edge32" class="edge">
<title>cgnlexwform802537&#45;&gt;lexinfoneutralRegister</title>
<path fill="none" stroke="#000088" d="M1552.0295,-103.3114C1540.4296,-85.3382 1524.5228,-65.7783 1505,-54 1481.9348,-40.0845 1418.562,-30.6021 1366.0516,-24.8771"/>
<polygon fill="#000088" stroke="#000088" points="1356.0479,-23.8168 1366.4666,-20.396 1361.0201,-24.3438 1365.9922,-24.8709 1365.9922,-24.8709 1365.9922,-24.8709 1361.0201,-24.3438 1365.5179,-29.3458 1356.0479,-23.8168 1356.0479,-23.8168"/>
<text text-anchor="middle" x="1543" y="-56.6" font-family="Times,serif" font-size="8.00" fill="#000000">lexinfoRegister</text>
</g>
<!-- cgnlexwform802537&#45;&gt;lexinfoneutralRegister -->
<g id="edge33" class="edge">
<title>cgnlexwform802537&#45;&gt;lexinfoneutralRegister</title>
<path fill="none" stroke="#000088" d="M1584.0614,-103.4921C1585.7136,-86.2078 1583.8496,-67.1465 1572,-54 1558.3311,-38.835 1445.5455,-28.3414 1366.0326,-22.7476"/>
<polygon fill="#000088" stroke="#000088" points="1356.0233,-22.0568 1366.3095,-18.2561 1361.0114,-22.4011 1365.9996,-22.7454 1365.9996,-22.7454 1365.9996,-22.7454 1361.0114,-22.4011 1365.6897,-27.2348 1356.0233,-22.0568 1356.0233,-22.0568"/>
<text text-anchor="middle" x="1602" y="-56.6" font-family="Times,serif" font-size="8.00" fill="#000000">lexinfoRegister</text>
</g>
<!-- cgnlexwform802537&#45;&gt;lexinfosingular -->
<g id="edge34" class="edge">
<title>cgnlexwform802537&#45;&gt;lexinfosingular</title>
<path fill="none" stroke="#000088" d="M1626.9983,-103.437C1640.4291,-91.3224 1654.1173,-77.4335 1665,-63 1668.9854,-57.7142 1672.546,-51.5928 1675.5819,-45.6003"/>
<polygon fill="#000088" stroke="#000088" points="1679.9065,-36.4281 1679.7121,-47.3922 1677.7742,-40.9506 1675.6418,-45.4731 1675.6418,-45.4731 1675.6418,-45.4731 1677.7742,-40.9506 1671.5715,-43.554 1679.9065,-36.4281 1679.9065,-36.4281"/>
<text text-anchor="middle" x="1693.5" y="-56.6" font-family="Times,serif" font-size="8.00" fill="#000000">lexinfonumber</text>
</g>
</g>
</svg>
