<svg width="1929pt" height="298pt"
 viewBox="0.00 0.00 1929.00 298.00" xmlns="http://www.w3.org/2000/svg" xmlns:xlink="http://www.w3.org/1999/xlink">
<g id="graph0" class="graph" transform="scale(1 1) rotate(0) translate(4 294)">
<title>G</title>
<polygon fill="#ffffff" stroke="transparent" points="-4,4 -4,-294 1925,-294 1925,4 -4,4"/>
<!-- node1cj6acqs0x4 -->
<g id="node1" class="node">
<title>node1cj6acqs0x4</title>
<path fill="none" stroke="#000000" d="M106,-163C106,-163 12,-163 12,-163 6,-163 0,-157 0,-151 0,-151 0,-139 0,-139 0,-133 6,-127 12,-127 12,-127 106,-127 106,-127 112,-127 118,-133 118,-139 118,-139 118,-151 118,-151 118,-157 112,-163 106,-163"/>
<polygon fill="#add8e6" stroke="transparent" points="8,-137 8,-152 110,-152 110,-137 8,-137"/>
<text text-anchor="start" x="10.5" y="-143" font-family="Times,serif" font-style="italic" font-size="10.00" fill="#000000">node1cj6acqs0x4:UNK</text>
</g>
<!-- lexinfoneuter -->
<g id="node2" class="node">
<title>lexinfoneuter</title>
<path fill="none" stroke="#000000" d="M98,-36C98,-36 20,-36 20,-36 14,-36 8,-30 8,-24 8,-24 8,-12 8,-12 8,-6 14,0 20,0 20,0 98,0 98,0 104,0 110,-6 110,-12 110,-12 110,-24 110,-24 110,-30 104,-36 98,-36"/>
<polygon fill="#add8e6" stroke="transparent" points="16,-10 16,-25 102,-25 102,-10 16,-10"/>
<text text-anchor="start" x="18.5" y="-16" font-family="Times,serif" font-style="italic" font-size="10.00" fill="#000000">lexinfoneuter:Class</text>
</g>
<!-- node1cj6acqs0x4&#45;&gt;lexinfoneuter -->
<g id="edge1" class="edge">
<title>node1cj6acqs0x4&#45;&gt;lexinfoneuter</title>
<path fill="none" stroke="#000088" d="M59,-126.804C59,-105.7735 59,-70.9094 59,-46.3236"/>
<polygon fill="#000088" stroke="#000088" points="59,-36.1622 63.5001,-46.1622 59,-41.1622 59.0001,-46.1622 59.0001,-46.1622 59.0001,-46.1622 59,-41.1622 54.5001,-46.1623 59,-36.1622 59,-36.1622"/>
<text text-anchor="middle" x="82.5" y="-56.6" font-family="Times,serif" font-size="8.00" fill="#000000">lexinfoGender</text>
</g>
<!-- cgnlexwform862735 -->
<g id="node3" class="node">
<title>cgnlexwform862735</title>
<path fill="none" stroke="#000000" d="M733.5,-201.5C733.5,-201.5 584.5,-201.5 584.5,-201.5 578.5,-201.5 572.5,-195.5 572.5,-189.5 572.5,-189.5 572.5,-100.5 572.5,-100.5 572.5,-94.5 578.5,-88.5 584.5,-88.5 584.5,-88.5 733.5,-88.5 733.5,-88.5 739.5,-88.5 745.5,-94.5 745.5,-100.5 745.5,-100.5 745.5,-189.5 745.5,-189.5 745.5,-195.5 739.5,-201.5 733.5,-201.5"/>
<polygon fill="#add8e6" stroke="transparent" points="581,-182 581,-197 738,-197 738,-182 581,-182"/>
<text text-anchor="start" x="584" y="-188" font-family="Times,serif" font-style="italic" font-size="10.00" fill="#000000">cgnlex_wform_862735:ontolexword</text>
<text text-anchor="start" x="586.5" y="-172" font-family="Times,serif" font-size="10.00" fill="#000000"> &#160;&#160;&#160;&#160;&#160;&#160;&#160;ontolexwrittenRep &#160;&#160;&#160;&#160;&#160;</text>
<text text-anchor="start" x="707" y="-172" font-family="Times,serif" font-size="10.00" fill="#000000">katjes</text>
<text text-anchor="start" x="583" y="-157" font-family="Times,serif" font-size="10.00" fill="#000000"> &#160;&#160;&#160;&#160;&#160;&#160;&#160;ontolexphoneticRep &#160;&#160;&#160;&#160;&#160;</text>
<text text-anchor="start" x="703.5" y="-157" font-family="Times,serif" font-size="10.00" fill="#000000">kAtj@s</text>
<text text-anchor="start" x="583" y="-142" font-family="Times,serif" font-size="10.00" fill="#000000"> &#160;&#160;&#160;&#160;&#160;&#160;&#160;ontolexphoneticRep &#160;&#160;&#160;&#160;&#160;</text>
<text text-anchor="start" x="703.5" y="-142" font-family="Times,serif" font-size="10.00" fill="#000000">kAtj@s</text>
<text text-anchor="start" x="599" y="-127" font-family="Times,serif" font-size="10.00" fill="#000000"> &#160;&#160;&#160;&#160;&#160;&#160;&#160;variantLabel &#160;&#160;&#160;&#160;&#160;</text>
<text text-anchor="start" x="703" y="-127" font-family="Times,serif" font-size="10.00" fill="#000000">Flemish</text>
<text text-anchor="start" x="583" y="-112" font-family="Times,serif" font-size="10.00" fill="#000000"> &#160;&#160;&#160;&#160;&#160;&#160;&#160;ontolexphoneticRep &#160;&#160;&#160;&#160;&#160;</text>
<text text-anchor="start" x="703.5" y="-112" font-family="Times,serif" font-size="10.00" fill="#000000">kAtj@s</text>
<text text-anchor="start" x="599" y="-97" font-family="Times,serif" font-size="10.00" fill="#000000"> &#160;&#160;&#160;&#160;&#160;&#160;&#160;variantLabel &#160;&#160;&#160;&#160;&#160;</text>
<text text-anchor="start" x="703" y="-97" font-family="Times,serif" font-size="10.00" fill="#000000">Flemish</text>
</g>
<!-- lexinfoneutralRegister -->
<g id="node4" class="node">
<title>lexinfoneutralRegister</title>
<path fill="none" stroke="#000000" d="M1332,-36C1332,-36 1218,-36 1218,-36 1212,-36 1206,-30 1206,-24 1206,-24 1206,-12 1206,-12 1206,-6 1212,0 1218,0 1218,0 1332,0 1332,0 1338,0 1344,-6 1344,-12 1344,-12 1344,-24 1344,-24 1344,-30 1338,-36 1332,-36"/>
<polygon fill="#add8e6" stroke="transparent" points="1214,-10 1214,-25 1336,-25 1336,-10 1214,-10"/>
<text text-anchor="start" x="1216" y="-16" font-family="Times,serif" font-style="italic" font-size="10.00" fill="#000000">lexinfoneutralRegister:Class</text>
</g>
<!-- cgnlexwform862735&#45;&gt;lexinfoneutralRegister -->
<g id="edge2" class="edge">
<title>cgnlexwform862735&#45;&gt;lexinfoneutralRegister</title>
<path fill="none" stroke="#000088" d="M648.0718,-88.4843C648.6539,-75.7089 652.1162,-63.215 661,-54 662.1484,-52.8088 1030.1046,-31.8525 1195.7786,-22.4739"/>
<polygon fill="#000088" stroke="#000088" points="1205.9135,-21.9003 1196.1838,-26.9583 1200.9215,-22.1829 1195.9295,-22.4655 1195.9295,-22.4655 1195.9295,-22.4655 1200.9215,-22.1829 1195.6752,-17.9726 1205.9135,-21.9003 1205.9135,-21.9003"/>
<text text-anchor="middle" x="686" y="-56.6" font-family="Times,serif" font-size="8.00" fill="#000000">lexinfoRegister</text>
</g>
<!-- cgnlexwform862735&#45;&gt;lexinfoneutralRegister -->
<g id="edge3" class="edge">
<title>cgnlexwform862735&#45;&gt;lexinfoneutralRegister</title>
<path fill="none" stroke="#000088" d="M598.5062,-88.1344C592.2953,-76.2174 591.3237,-64.1883 601,-54 614.37,-39.9226 930.613,-37.0368 950,-36 1033.8275,-31.5169 1129.8046,-26.1756 1195.6037,-22.4817"/>
<polygon fill="#000088" stroke="#000088" points="1205.8984,-21.9034 1196.1666,-26.9573 1200.9063,-22.1839 1195.9141,-22.4644 1195.9141,-22.4644 1195.9141,-22.4644 1200.9063,-22.1839 1195.6617,-17.9714 1205.8984,-21.9034 1205.8984,-21.9034"/>
<text text-anchor="middle" x="626" y="-56.6" font-family="Times,serif" font-size="8.00" fill="#000000">lexinfoRegister</text>
</g>
<!-- lexinfoformalRegister -->
<g id="node5" class="node">
<title>lexinfoformalRegister</title>
<path fill="none" stroke="#000000" d="M929,-36C929,-36 817,-36 817,-36 811,-36 805,-30 805,-24 805,-24 805,-12 805,-12 805,-6 811,0 817,0 817,0 929,0 929,0 935,0 941,-6 941,-12 941,-12 941,-24 941,-24 941,-30 935,-36 929,-36"/>
<polygon fill="#add8e6" stroke="transparent" points="813,-10 813,-25 933,-25 933,-10 813,-10"/>
<text text-anchor="start" x="815" y="-16" font-family="Times,serif" font-style="italic" font-size="10.00" fill="#000000">lexinfoformalRegister:Class</text>
</g>
<!-- cgnlexwform862735&#45;&gt;lexinfoformalRegister -->
<g id="edge4" class="edge">
<title>cgnlexwform862735&#45;&gt;lexinfoformalRegister</title>
<path fill="none" stroke="#000088" d="M576.7435,-88.4049C572.1532,-85.8009 567.554,-83.3134 563,-81 540.8314,-69.7384 497.2043,-72.3351 514,-54 529.445,-37.1394 696.2534,-38.3275 719,-36 743.6026,-33.4826 770.3812,-30.4537 794.6052,-27.6047"/>
<polygon fill="#000088" stroke="#000088" points="804.8167,-26.3968 795.4146,-32.0405 799.8513,-26.9842 794.886,-27.5716 794.886,-27.5716 794.886,-27.5716 799.8513,-26.9842 794.3573,-23.1028 804.8167,-26.3968 804.8167,-26.3968"/>
<text text-anchor="middle" x="539" y="-56.6" font-family="Times,serif" font-size="8.00" fill="#000000">lexinfoRegister</text>
</g>
<!-- lexinfoplural -->
<g id="node6" class="node">
<title>lexinfoplural</title>
<path fill="none" stroke="#000000" d="M698,-36C698,-36 622,-36 622,-36 616,-36 610,-30 610,-24 610,-24 610,-12 610,-12 610,-6 616,0 622,0 622,0 698,0 698,0 704,0 710,-6 710,-12 710,-12 710,-24 710,-24 710,-30 704,-36 698,-36"/>
<polygon fill="#add8e6" stroke="transparent" points="618,-10 618,-25 702,-25 702,-10 618,-10"/>
<text text-anchor="start" x="620" y="-16" font-family="Times,serif" font-style="italic" font-size="10.00" fill="#000000">lexinfoplural:Class</text>
</g>
<!-- cgnlexwform862735&#45;&gt;lexinfoplural -->
<g id="edge5" class="edge">
<title>cgnlexwform862735&#45;&gt;lexinfoplural</title>
<path fill="none" stroke="#000088" d="M579.7501,-88.4992C574.214,-85.7064 568.6046,-83.1678 563,-81 512.4186,-61.4359 408.9451,-95.381 444,-54 454.0468,-42.1402 539.4062,-30.7416 599.7551,-24.0548"/>
<polygon fill="#000088" stroke="#000088" points="609.9583,-22.9425 600.505,-28.4999 604.9878,-23.4844 600.0172,-24.0264 600.0172,-24.0264 600.0172,-24.0264 604.9878,-23.4844 599.5295,-19.5529 609.9583,-22.9425 609.9583,-22.9425"/>
<text text-anchor="middle" x="467.5" y="-56.6" font-family="Times,serif" font-size="8.00" fill="#000000">lexinfonumber</text>
</g>
<!-- cgnlexlemma47751 -->
<g id="node7" class="node">
<title>cgnlexlemma47751</title>
<path fill="none" stroke="#000000" d="M841,-290C841,-290 667,-290 667,-290 661,-290 655,-284 655,-278 655,-278 655,-266 655,-266 655,-260 661,-254 667,-254 667,-254 841,-254 841,-254 847,-254 853,-260 853,-266 853,-266 853,-278 853,-278 853,-284 847,-290 841,-290"/>
<polygon fill="#add8e6" stroke="transparent" points="663,-264 663,-279 845,-279 845,-264 663,-264"/>
<text text-anchor="start" x="665" y="-270" font-family="Times,serif" font-style="italic" font-size="10.00" fill="#000000">cgnlex_lemma_47751:ontolexLexicalEntry</text>
</g>
<!-- cgnlexlemma47751&#45;&gt;node1cj6acqs0x4 -->
<g id="edge9" class="edge">
<title>cgnlexlemma47751&#45;&gt;node1cj6acqs0x4</title>
<path fill="none" stroke="#000088" d="M654.721,-268.2742C522.0335,-262.799 294.0633,-251.5226 212,-236 173.0528,-228.633 161.173,-229.0839 127,-209 109.708,-198.8373 93.2478,-183.5498 80.8541,-170.4644"/>
<polygon fill="#000088" stroke="#000088" points="74.0513,-163.0698 84.1335,-167.3825 77.4365,-166.7495 80.8218,-170.4293 80.8218,-170.4293 80.8218,-170.4293 77.4365,-166.7495 77.51,-173.476 74.0513,-163.0698 74.0513,-163.0698"/>
<text text-anchor="middle" x="264" y="-229.6" font-family="Times,serif" font-size="8.00" fill="#000000">lexinfoMorphosyntacticProperty</text>
</g>
<!-- cgnlexlemma47751&#45;&gt;cgnlexwform862735 -->
<g id="edge13" class="edge">
<title>cgnlexlemma47751&#45;&gt;cgnlexwform862735</title>
<path fill="none" stroke="#000088" d="M740.3888,-253.804C731.6509,-242.1227 719.7204,-226.1736 707.6883,-210.0885"/>
<polygon fill="#000088" stroke="#000088" points="701.4033,-201.6865 710.9967,-206.9986 704.3983,-205.6903 707.3932,-209.6941 707.3932,-209.6941 707.3932,-209.6941 704.3983,-205.6903 703.7898,-212.3896 701.4033,-201.6865 701.4033,-201.6865"/>
<text text-anchor="middle" x="745" y="-229.6" font-family="Times,serif" font-size="8.00" fill="#000000">ontolexform</text>
</g>
<!-- node1cj6acqs0x1 -->
<g id="node8" class="node">
<title>node1cj6acqs0x1</title>
<path fill="none" stroke="#000000" d="M406,-164C406,-164 284,-164 284,-164 278,-164 272,-158 272,-152 272,-152 272,-138 272,-138 272,-132 278,-126 284,-126 284,-126 406,-126 406,-126 412,-126 418,-132 418,-138 418,-138 418,-152 418,-152 418,-158 412,-164 406,-164"/>
<polygon fill="#add8e6" stroke="transparent" points="280,-145 280,-160 410,-160 410,-145 280,-145"/>
<text text-anchor="start" x="296.5" y="-151" font-family="Times,serif" font-style="italic" font-size="10.00" fill="#000000">node1cj6acqs0x1:UNK</text>
<text text-anchor="start" x="282" y="-135" font-family="Times,serif" font-size="10.00" fill="#000000"> &#160;&#160;&#160;&#160;&#160;&#160;&#160;ontolexwrittenRep &#160;&#160;&#160;&#160;&#160;</text>
<text text-anchor="start" x="395" y="-135" font-family="Times,serif" font-size="10.00" fill="#000000">kat</text>
</g>
<!-- cgnlexlemma47751&#45;&gt;node1cj6acqs0x1 -->
<g id="edge6" class="edge">
<title>cgnlexlemma47751&#45;&gt;node1cj6acqs0x1</title>
<path fill="none" stroke="#000088" d="M654.8089,-258.4423C573.841,-246.3586 466.5856,-227.734 427,-209 406.7056,-199.3956 386.7827,-184.0249 371.6572,-170.7541"/>
<polygon fill="#000088" stroke="#000088" points="364.2082,-164.0474 374.6509,-167.3943 367.924,-167.393 371.6399,-170.7385 371.6399,-170.7385 371.6399,-170.7385 367.924,-167.393 368.6289,-174.0828 364.2082,-164.0474 364.2082,-164.0474"/>
<text text-anchor="middle" x="538" y="-229.6" font-family="Times,serif" font-size="8.00" fill="#000000">ontolexform</text>
</g>
<!-- node1cj6acqs0x2 -->
<g id="node9" class="node">
<title>node1cj6acqs0x2</title>
<path fill="none" stroke="#000000" d="M242,-163C242,-163 148,-163 148,-163 142,-163 136,-157 136,-151 136,-151 136,-139 136,-139 136,-133 142,-127 148,-127 148,-127 242,-127 242,-127 248,-127 254,-133 254,-139 254,-139 254,-151 254,-151 254,-157 248,-163 242,-163"/>
<polygon fill="#add8e6" stroke="transparent" points="144,-137 144,-152 246,-152 246,-137 144,-137"/>
<text text-anchor="start" x="146.5" y="-143" font-family="Times,serif" font-style="italic" font-size="10.00" fill="#000000">node1cj6acqs0x2:UNK</text>
</g>
<!-- cgnlexlemma47751&#45;&gt;node1cj6acqs0x2 -->
<g id="edge7" class="edge">
<title>cgnlexlemma47751&#45;&gt;node1cj6acqs0x2</title>
<path fill="none" stroke="#000088" d="M654.8853,-267.6087C531.4447,-260.7205 328.7762,-244.3258 263,-209 245.2105,-199.4459 228.6345,-184.0385 216.3023,-170.7352"/>
<polygon fill="#000088" stroke="#000088" points="209.5547,-163.2057 219.5798,-167.6496 212.8916,-166.9293 216.2286,-170.6529 216.2286,-170.6529 216.2286,-170.6529 212.8916,-166.9293 212.8773,-173.6561 209.5547,-163.2057 209.5547,-163.2057"/>
<text text-anchor="middle" x="404" y="-229.6" font-family="Times,serif" font-size="8.00" fill="#000000">lexinfoMorphosyntacticProperty</text>
</g>
<!-- node1cj6acqs0x3 -->
<g id="node11" class="node">
<title>node1cj6acqs0x3</title>
<path fill="none" stroke="#000000" d="M542,-163C542,-163 448,-163 448,-163 442,-163 436,-157 436,-151 436,-151 436,-139 436,-139 436,-133 442,-127 448,-127 448,-127 542,-127 542,-127 548,-127 554,-133 554,-139 554,-139 554,-151 554,-151 554,-157 548,-163 542,-163"/>
<polygon fill="#add8e6" stroke="transparent" points="444,-137 444,-152 546,-152 546,-137 444,-137"/>
<text text-anchor="start" x="446.5" y="-143" font-family="Times,serif" font-style="italic" font-size="10.00" fill="#000000">node1cj6acqs0x3:UNK</text>
</g>
<!-- cgnlexlemma47751&#45;&gt;node1cj6acqs0x3 -->
<g id="edge8" class="edge">
<title>cgnlexlemma47751&#45;&gt;node1cj6acqs0x3</title>
<path fill="none" stroke="#000088" d="M667.6088,-253.979C648.9728,-249.0227 629.5934,-243.0339 612,-236 589.2724,-226.9134 583.7764,-223.4224 564,-209 548.2576,-197.5194 532.2092,-182.8473 519.5559,-170.4483"/>
<polygon fill="#000088" stroke="#000088" points="512.1492,-163.0707 522.4099,-166.9396 515.6917,-166.5992 519.2342,-170.1278 519.2342,-170.1278 519.2342,-170.1278 515.6917,-166.5992 516.0585,-173.3161 512.1492,-163.0707 512.1492,-163.0707"/>
<text text-anchor="middle" x="664" y="-229.6" font-family="Times,serif" font-size="8.00" fill="#000000">lexinfoMorphosyntacticProperty</text>
</g>
<!-- cgnlexwform147297 -->
<g id="node13" class="node">
<title>cgnlexwform147297</title>
<path fill="none" stroke="#000000" d="M1846.5,-186.5C1846.5,-186.5 1697.5,-186.5 1697.5,-186.5 1691.5,-186.5 1685.5,-180.5 1685.5,-174.5 1685.5,-174.5 1685.5,-115.5 1685.5,-115.5 1685.5,-109.5 1691.5,-103.5 1697.5,-103.5 1697.5,-103.5 1846.5,-103.5 1846.5,-103.5 1852.5,-103.5 1858.5,-109.5 1858.5,-115.5 1858.5,-115.5 1858.5,-174.5 1858.5,-174.5 1858.5,-180.5 1852.5,-186.5 1846.5,-186.5"/>
<polygon fill="#add8e6" stroke="transparent" points="1694,-167 1694,-182 1851,-182 1851,-167 1694,-167"/>
<text text-anchor="start" x="1697" y="-173" font-family="Times,serif" font-style="italic" font-size="10.00" fill="#000000">cgnlex_wform_147297:ontolexword</text>
<text text-anchor="start" x="1699.5" y="-157" font-family="Times,serif" font-size="10.00" fill="#000000"> &#160;&#160;&#160;&#160;&#160;&#160;&#160;ontolexwrittenRep &#160;&#160;&#160;&#160;&#160;</text>
<text text-anchor="start" x="1826" y="-157" font-family="Times,serif" font-size="10.00" fill="#000000">kat</text>
<text text-anchor="start" x="1696" y="-142" font-family="Times,serif" font-size="10.00" fill="#000000"> &#160;&#160;&#160;&#160;&#160;&#160;&#160;ontolexphoneticRep &#160;&#160;&#160;&#160;&#160;</text>
<text text-anchor="start" x="1824.5" y="-142" font-family="Times,serif" font-size="10.00" fill="#000000">kAt</text>
<text text-anchor="start" x="1696" y="-127" font-family="Times,serif" font-size="10.00" fill="#000000"> &#160;&#160;&#160;&#160;&#160;&#160;&#160;ontolexphoneticRep &#160;&#160;&#160;&#160;&#160;</text>
<text text-anchor="start" x="1824.5" y="-127" font-family="Times,serif" font-size="10.00" fill="#000000">kAt</text>
<text text-anchor="start" x="1712" y="-112" font-family="Times,serif" font-size="10.00" fill="#000000"> &#160;&#160;&#160;&#160;&#160;&#160;&#160;variantLabel &#160;&#160;&#160;&#160;&#160;</text>
<text text-anchor="start" x="1816" y="-112" font-family="Times,serif" font-size="10.00" fill="#000000">Flemish</text>
</g>
<!-- cgnlexlemma47751&#45;&gt;cgnlexwform147297 -->
<g id="edge10" class="edge">
<title>cgnlexlemma47751&#45;&gt;cgnlexwform147297</title>
<path fill="none" stroke="#000088" d="M853.1774,-271.0408C1055.817,-268.1122 1510.6398,-256.3106 1658,-209 1671.8714,-204.5465 1685.9537,-198.3028 1699.2689,-191.4466"/>
<polygon fill="#000088" stroke="#000088" points="1708.3526,-186.6167 1701.6358,-195.2847 1703.9379,-188.9641 1699.5231,-191.3115 1699.5231,-191.3115 1699.5231,-191.3115 1703.9379,-188.9641 1697.4105,-187.3382 1708.3526,-186.6167 1708.3526,-186.6167"/>
<text text-anchor="middle" x="1588" y="-229.6" font-family="Times,serif" font-size="8.00" fill="#000000">ontolexform</text>
</g>
<!-- cgnlexwform807576 -->
<g id="node15" class="node">
<title>cgnlexwform807576</title>
<path fill="none" stroke="#000000" d="M1431.5,-201.5C1431.5,-201.5 1282.5,-201.5 1282.5,-201.5 1276.5,-201.5 1270.5,-195.5 1270.5,-189.5 1270.5,-189.5 1270.5,-100.5 1270.5,-100.5 1270.5,-94.5 1276.5,-88.5 1282.5,-88.5 1282.5,-88.5 1431.5,-88.5 1431.5,-88.5 1437.5,-88.5 1443.5,-94.5 1443.5,-100.5 1443.5,-100.5 1443.5,-189.5 1443.5,-189.5 1443.5,-195.5 1437.5,-201.5 1431.5,-201.5"/>
<polygon fill="#add8e6" stroke="transparent" points="1279,-182 1279,-197 1436,-197 1436,-182 1279,-182"/>
<text text-anchor="start" x="1282" y="-188" font-family="Times,serif" font-style="italic" font-size="10.00" fill="#000000">cgnlex_wform_807576:ontolexword</text>
<text text-anchor="start" x="1284.5" y="-172" font-family="Times,serif" font-size="10.00" fill="#000000"> &#160;&#160;&#160;&#160;&#160;&#160;&#160;ontolexwrittenRep &#160;&#160;&#160;&#160;&#160;</text>
<text text-anchor="start" x="1407" y="-172" font-family="Times,serif" font-size="10.00" fill="#000000">katje</text>
<text text-anchor="start" x="1281" y="-157" font-family="Times,serif" font-size="10.00" fill="#000000"> &#160;&#160;&#160;&#160;&#160;&#160;&#160;ontolexphoneticRep &#160;&#160;&#160;&#160;&#160;</text>
<text text-anchor="start" x="1403.5" y="-157" font-family="Times,serif" font-size="10.00" fill="#000000">kAtj@</text>
<text text-anchor="start" x="1281" y="-142" font-family="Times,serif" font-size="10.00" fill="#000000"> &#160;&#160;&#160;&#160;&#160;&#160;&#160;ontolexphoneticRep &#160;&#160;&#160;&#160;&#160;</text>
<text text-anchor="start" x="1403.5" y="-142" font-family="Times,serif" font-size="10.00" fill="#000000">kAtj@</text>
<text text-anchor="start" x="1297" y="-127" font-family="Times,serif" font-size="10.00" fill="#000000"> &#160;&#160;&#160;&#160;&#160;&#160;&#160;variantLabel &#160;&#160;&#160;&#160;&#160;</text>
<text text-anchor="start" x="1401" y="-127" font-family="Times,serif" font-size="10.00" fill="#000000">Flemish</text>
<text text-anchor="start" x="1281" y="-112" font-family="Times,serif" font-size="10.00" fill="#000000"> &#160;&#160;&#160;&#160;&#160;&#160;&#160;ontolexphoneticRep &#160;&#160;&#160;&#160;&#160;</text>
<text text-anchor="start" x="1403.5" y="-112" font-family="Times,serif" font-size="10.00" fill="#000000">kAtj@</text>
<text text-anchor="start" x="1297" y="-97" font-family="Times,serif" font-size="10.00" fill="#000000"> &#160;&#160;&#160;&#160;&#160;&#160;&#160;variantLabel &#160;&#160;&#160;&#160;&#160;</text>
<text text-anchor="start" x="1401" y="-97" font-family="Times,serif" font-size="10.00" fill="#000000">Flemish</text>
</g>
<!-- cgnlexlemma47751&#45;&gt;cgnlexwform807576 -->
<g id="edge11" class="edge">
<title>cgnlexlemma47751&#45;&gt;cgnlexwform807576</title>
<path fill="none" stroke="#000088" d="M853.0783,-264.0162C942.2682,-255.34 1076.3908,-238.583 1190,-209 1213.3717,-202.9142 1237.9582,-194.6182 1260.8635,-186.0169"/>
<polygon fill="#000088" stroke="#000088" points="1270.2278,-182.4493 1262.4851,-190.2147 1265.5554,-184.2294 1260.883,-186.0096 1260.883,-186.0096 1260.883,-186.0096 1265.5554,-184.2294 1259.2809,-181.8044 1270.2278,-182.4493 1270.2278,-182.4493"/>
<text text-anchor="middle" x="1127" y="-229.6" font-family="Times,serif" font-size="8.00" fill="#000000">ontolexform</text>
</g>
<!-- cgnlexwform862734 -->
<g id="node16" class="node">
<title>cgnlexwform862734</title>
<path fill="none" stroke="#000000" d="M1168.5,-201.5C1168.5,-201.5 1019.5,-201.5 1019.5,-201.5 1013.5,-201.5 1007.5,-195.5 1007.5,-189.5 1007.5,-189.5 1007.5,-100.5 1007.5,-100.5 1007.5,-94.5 1013.5,-88.5 1019.5,-88.5 1019.5,-88.5 1168.5,-88.5 1168.5,-88.5 1174.5,-88.5 1180.5,-94.5 1180.5,-100.5 1180.5,-100.5 1180.5,-189.5 1180.5,-189.5 1180.5,-195.5 1174.5,-201.5 1168.5,-201.5"/>
<polygon fill="#add8e6" stroke="transparent" points="1016,-182 1016,-197 1173,-197 1173,-182 1016,-182"/>
<text text-anchor="start" x="1019" y="-188" font-family="Times,serif" font-style="italic" font-size="10.00" fill="#000000">cgnlex_wform_862734:ontolexword</text>
<text text-anchor="start" x="1021.5" y="-172" font-family="Times,serif" font-size="10.00" fill="#000000"> &#160;&#160;&#160;&#160;&#160;&#160;&#160;ontolexwrittenRep &#160;&#160;&#160;&#160;&#160;</text>
<text text-anchor="start" x="1144" y="-172" font-family="Times,serif" font-size="10.00" fill="#000000">katje</text>
<text text-anchor="start" x="1018" y="-157" font-family="Times,serif" font-size="10.00" fill="#000000"> &#160;&#160;&#160;&#160;&#160;&#160;&#160;ontolexphoneticRep &#160;&#160;&#160;&#160;&#160;</text>
<text text-anchor="start" x="1140.5" y="-157" font-family="Times,serif" font-size="10.00" fill="#000000">kAtj@</text>
<text text-anchor="start" x="1018" y="-142" font-family="Times,serif" font-size="10.00" fill="#000000"> &#160;&#160;&#160;&#160;&#160;&#160;&#160;ontolexphoneticRep &#160;&#160;&#160;&#160;&#160;</text>
<text text-anchor="start" x="1140.5" y="-142" font-family="Times,serif" font-size="10.00" fill="#000000">kAtj@</text>
<text text-anchor="start" x="1034" y="-127" font-family="Times,serif" font-size="10.00" fill="#000000"> &#160;&#160;&#160;&#160;&#160;&#160;&#160;variantLabel &#160;&#160;&#160;&#160;&#160;</text>
<text text-anchor="start" x="1138" y="-127" font-family="Times,serif" font-size="10.00" fill="#000000">Flemish</text>
<text text-anchor="start" x="1018" y="-112" font-family="Times,serif" font-size="10.00" fill="#000000"> &#160;&#160;&#160;&#160;&#160;&#160;&#160;ontolexphoneticRep &#160;&#160;&#160;&#160;&#160;</text>
<text text-anchor="start" x="1140.5" y="-112" font-family="Times,serif" font-size="10.00" fill="#000000">kAtj@</text>
<text text-anchor="start" x="1034" y="-97" font-family="Times,serif" font-size="10.00" fill="#000000"> &#160;&#160;&#160;&#160;&#160;&#160;&#160;variantLabel &#160;&#160;&#160;&#160;&#160;</text>
<text text-anchor="start" x="1138" y="-97" font-family="Times,serif" font-size="10.00" fill="#000000">Flemish</text>
</g>
<!-- cgnlexlemma47751&#45;&gt;cgnlexwform862734 -->
<g id="edge12" class="edge">
<title>cgnlexlemma47751&#45;&gt;cgnlexwform862734</title>
<path fill="none" stroke="#000088" d="M813.7362,-253.9407C851.8789,-242.0313 902.211,-225.6125 946,-209 962.8943,-202.5907 980.678,-195.3448 997.8287,-188.0916"/>
<polygon fill="#000088" stroke="#000088" points="1007.282,-184.0665 999.8441,-192.1244 1002.6816,-186.0253 998.0812,-187.9841 998.0812,-187.9841 998.0812,-187.9841 1002.6816,-186.0253 996.3184,-183.8438 1007.282,-184.0665 1007.282,-184.0665"/>
<text text-anchor="middle" x="913" y="-229.6" font-family="Times,serif" font-size="8.00" fill="#000000">ontolexform</text>
</g>
<!-- cgnlexwform147514 -->
<g id="node17" class="node">
<title>cgnlexwform147514</title>
<path fill="none" stroke="#000000" d="M924.5,-209C924.5,-209 775.5,-209 775.5,-209 769.5,-209 763.5,-203 763.5,-197 763.5,-197 763.5,-93 763.5,-93 763.5,-87 769.5,-81 775.5,-81 775.5,-81 924.5,-81 924.5,-81 930.5,-81 936.5,-87 936.5,-93 936.5,-93 936.5,-197 936.5,-197 936.5,-203 930.5,-209 924.5,-209"/>
<polygon fill="#add8e6" stroke="transparent" points="772,-190 772,-205 929,-205 929,-190 772,-190"/>
<text text-anchor="start" x="775" y="-196" font-family="Times,serif" font-style="italic" font-size="10.00" fill="#000000">cgnlex_wform_147514:ontolexword</text>
<text text-anchor="start" x="777.5" y="-180" font-family="Times,serif" font-size="10.00" fill="#000000"> &#160;&#160;&#160;&#160;&#160;&#160;&#160;ontolexwrittenRep &#160;&#160;&#160;&#160;&#160;</text>
<text text-anchor="start" x="897.5" y="-180" font-family="Times,serif" font-size="10.00" fill="#000000">katten</text>
<text text-anchor="start" x="777.5" y="-165" font-family="Times,serif" font-size="10.00" fill="#000000"> &#160;&#160;&#160;&#160;&#160;&#160;&#160;ontolexwrittenRep &#160;&#160;&#160;&#160;&#160;</text>
<text text-anchor="start" x="897.5" y="-165" font-family="Times,serif" font-size="10.00" fill="#000000">katten</text>
<text text-anchor="start" x="774" y="-150" font-family="Times,serif" font-size="10.00" fill="#000000"> &#160;&#160;&#160;&#160;&#160;&#160;&#160;ontolexphoneticRep &#160;&#160;&#160;&#160;&#160;</text>
<text text-anchor="start" x="898" y="-150" font-family="Times,serif" font-size="10.00" fill="#000000">kAt@</text>
<text text-anchor="start" x="774" y="-135" font-family="Times,serif" font-size="10.00" fill="#000000"> &#160;&#160;&#160;&#160;&#160;&#160;&#160;ontolexphoneticRep &#160;&#160;&#160;&#160;&#160;</text>
<text text-anchor="start" x="895" y="-135" font-family="Times,serif" font-size="10.00" fill="#000000">kAt@n</text>
<text text-anchor="start" x="790" y="-120" font-family="Times,serif" font-size="10.00" fill="#000000"> &#160;&#160;&#160;&#160;&#160;&#160;&#160;variantLabel &#160;&#160;&#160;&#160;&#160;</text>
<text text-anchor="start" x="894" y="-120" font-family="Times,serif" font-size="10.00" fill="#000000">Flemish</text>
<text text-anchor="start" x="774" y="-105" font-family="Times,serif" font-size="10.00" fill="#000000"> &#160;&#160;&#160;&#160;&#160;&#160;&#160;ontolexphoneticRep &#160;&#160;&#160;&#160;&#160;</text>
<text text-anchor="start" x="898" y="-105" font-family="Times,serif" font-size="10.00" fill="#000000">kAt@</text>
<text text-anchor="start" x="790" y="-90" font-family="Times,serif" font-size="10.00" fill="#000000"> &#160;&#160;&#160;&#160;&#160;&#160;&#160;variantLabel &#160;&#160;&#160;&#160;&#160;</text>
<text text-anchor="start" x="894" y="-90" font-family="Times,serif" font-size="10.00" fill="#000000">Flemish</text>
</g>
<!-- cgnlexlemma47751&#45;&gt;cgnlexwform147514 -->
<g id="edge14" class="edge">
<title>cgnlexlemma47751&#45;&gt;cgnlexwform147514</title>
<path fill="none" stroke="#000088" d="M767.7545,-253.804C775.2955,-243.8278 785.1897,-230.7387 795.4913,-217.1105"/>
<polygon fill="#000088" stroke="#000088" points="801.5891,-209.0436 799.1488,-219.7345 798.574,-213.0322 795.559,-217.0209 795.559,-217.0209 795.559,-217.0209 798.574,-213.0322 791.9692,-214.3073 801.5891,-209.0436 801.5891,-209.0436"/>
<text text-anchor="middle" x="807" y="-229.6" font-family="Times,serif" font-size="8.00" fill="#000000">ontolexform</text>
</g>
<!-- cgnlexwform802537 -->
<g id="node18" class="node">
<title>cgnlexwform802537</title>
<path fill="none" stroke="#000000" d="M1636.5,-186.5C1636.5,-186.5 1487.5,-186.5 1487.5,-186.5 1481.5,-186.5 1475.5,-180.5 1475.5,-174.5 1475.5,-174.5 1475.5,-115.5 1475.5,-115.5 1475.5,-109.5 1481.5,-103.5 1487.5,-103.5 1487.5,-103.5 1636.5,-103.5 1636.5,-103.5 1642.5,-103.5 1648.5,-109.5 1648.5,-115.5 1648.5,-115.5 1648.5,-174.5 1648.5,-174.5 1648.5,-180.5 1642.5,-186.5 1636.5,-186.5"/>
<polygon fill="#add8e6" stroke="transparent" points="1484,-167 1484,-182 1641,-182 1641,-167 1484,-167"/>
<text text-anchor="start" x="1502.5" y="-173" font-family="Times,serif" font-style="italic" font-size="10.00" fill="#000000">cgnlex_wform_802537:UNK</text>
<text text-anchor="start" x="1489.5" y="-157" font-family="Times,serif" font-size="10.00" fill="#000000"> &#160;&#160;&#160;&#160;&#160;&#160;&#160;ontolexwrittenRep &#160;&#160;&#160;&#160;&#160;</text>
<text text-anchor="start" x="1614.5" y="-157" font-family="Times,serif" font-size="10.00" fill="#000000">Kat</text>
<text text-anchor="start" x="1486" y="-142" font-family="Times,serif" font-size="10.00" fill="#000000"> &#160;&#160;&#160;&#160;&#160;&#160;&#160;ontolexphoneticRep &#160;&#160;&#160;&#160;&#160;</text>
<text text-anchor="start" x="1614.5" y="-142" font-family="Times,serif" font-size="10.00" fill="#000000">kAt</text>
<text text-anchor="start" x="1486" y="-127" font-family="Times,serif" font-size="10.00" fill="#000000"> &#160;&#160;&#160;&#160;&#160;&#160;&#160;ontolexphoneticRep &#160;&#160;&#160;&#160;&#160;</text>
<text text-anchor="start" x="1614.5" y="-127" font-family="Times,serif" font-size="10.00" fill="#000000">ka:t</text>
<text text-anchor="start" x="1502" y="-112" font-family="Times,serif" font-size="10.00" fill="#000000"> &#160;&#160;&#160;&#160;&#160;&#160;&#160;variantLabel &#160;&#160;&#160;&#160;&#160;</text>
<text text-anchor="start" x="1606" y="-112" font-family="Times,serif" font-size="10.00" fill="#000000">Flemish</text>
</g>
<!-- cgnlexlemma47751&#45;&gt;cgnlexwform802537 -->
<g id="edge15" class="edge">
<title>cgnlexlemma47751&#45;&gt;cgnlexwform802537</title>
<path fill="none" stroke="#000088" d="M853.0016,-268.4176C1018.5189,-261.5382 1344.0108,-243.9608 1453,-209 1466.5822,-204.6432 1480.2943,-198.3728 1493.1946,-191.4416"/>
<polygon fill="#000088" stroke="#000088" points="1501.9844,-186.5528 1495.4325,-195.3462 1497.6148,-188.9831 1493.2452,-191.4135 1493.2452,-191.4135 1493.2452,-191.4135 1497.6148,-188.9831 1491.0578,-187.4808 1501.9844,-186.5528 1501.9844,-186.5528"/>
<text text-anchor="middle" x="1389" y="-229.6" font-family="Times,serif" font-size="8.00" fill="#000000">ontolexform</text>
</g>
<!-- lexinfonoun -->
<g id="node10" class="node">
<title>lexinfonoun</title>
<path fill="none" stroke="#000000" d="M231,-36C231,-36 159,-36 159,-36 153,-36 147,-30 147,-24 147,-24 147,-12 147,-12 147,-6 153,0 159,0 159,0 231,0 231,0 237,0 243,-6 243,-12 243,-12 243,-24 243,-24 243,-30 237,-36 231,-36"/>
<polygon fill="#add8e6" stroke="transparent" points="155,-10 155,-25 235,-25 235,-10 155,-10"/>
<text text-anchor="start" x="157" y="-16" font-family="Times,serif" font-style="italic" font-size="10.00" fill="#000000">lexinfonoun:Class</text>
</g>
<!-- node1cj6acqs0x2&#45;&gt;lexinfonoun -->
<g id="edge16" class="edge">
<title>node1cj6acqs0x2&#45;&gt;lexinfonoun</title>
<path fill="none" stroke="#000088" d="M195,-126.804C195,-105.7735 195,-70.9094 195,-46.3236"/>
<polygon fill="#000088" stroke="#000088" points="195,-36.1622 199.5001,-46.1622 195,-41.1622 195.0001,-46.1622 195.0001,-46.1622 195.0001,-46.1622 195,-41.1622 190.5001,-46.1623 195,-36.1622 195,-36.1622"/>
<text text-anchor="middle" x="229" y="-56.6" font-family="Times,serif" font-size="8.00" fill="#000000">lexinfopartOfSpeech</text>
</g>
<!-- lexinfocommonGender -->
<g id="node12" class="node">
<title>lexinfocommonGender</title>
<path fill="none" stroke="#000000" d="M432,-36C432,-36 314,-36 314,-36 308,-36 302,-30 302,-24 302,-24 302,-12 302,-12 302,-6 308,0 314,0 314,0 432,0 432,0 438,0 444,-6 444,-12 444,-12 444,-24 444,-24 444,-30 438,-36 432,-36"/>
<polygon fill="#add8e6" stroke="transparent" points="310,-10 310,-25 436,-25 436,-10 310,-10"/>
<text text-anchor="start" x="312.5" y="-16" font-family="Times,serif" font-style="italic" font-size="10.00" fill="#000000">lexinfocommonGender:Class</text>
</g>
<!-- node1cj6acqs0x3&#45;&gt;lexinfocommonGender -->
<g id="edge17" class="edge">
<title>node1cj6acqs0x3&#45;&gt;lexinfocommonGender</title>
<path fill="none" stroke="#000088" d="M479.026,-126.9885C466.0311,-113.1161 446.6814,-94.1487 427,-81 410.7899,-70.1704 399.9245,-77.5947 387,-63 382.83,-58.2912 379.902,-52.3525 377.8461,-46.3472"/>
<polygon fill="#000088" stroke="#000088" points="375.1442,-36.3832 382.1046,-44.8569 376.4528,-41.2089 377.7614,-46.0347 377.7614,-46.0347 377.7614,-46.0347 376.4528,-41.2089 373.4183,-47.2124 375.1442,-36.3832 375.1442,-36.3832"/>
<text text-anchor="middle" x="410.5" y="-56.6" font-family="Times,serif" font-size="8.00" fill="#000000">lexinfoGender</text>
</g>
<!-- cgnlexwform147297&#45;&gt;lexinfoneutralRegister -->
<g id="edge18" class="edge">
<title>cgnlexwform147297&#45;&gt;lexinfoneutralRegister</title>
<path fill="none" stroke="#000088" d="M1753.3986,-103.1267C1743.0435,-84.8826 1728.2989,-65.1527 1709,-54 1679.1346,-36.741 1471.3033,-25.7944 1354.4124,-20.931"/>
<polygon fill="#000088" stroke="#000088" points="1344.0846,-20.5072 1354.2607,-16.4211 1349.0804,-20.7123 1354.0762,-20.9173 1354.0762,-20.9173 1354.0762,-20.9173 1349.0804,-20.7123 1353.8917,-25.4135 1344.0846,-20.5072 1344.0846,-20.5072"/>
<text text-anchor="middle" x="1746" y="-56.6" font-family="Times,serif" font-size="8.00" fill="#000000">lexinfoRegister</text>
</g>
<!-- cgnlexwform147297&#45;&gt;lexinfoneutralRegister -->
<g id="edge19" class="edge">
<title>cgnlexwform147297&#45;&gt;lexinfoneutralRegister</title>
<path fill="none" stroke="#000088" d="M1785.2281,-103.3154C1787.9942,-85.9984 1787.0608,-66.9604 1775,-54 1767.928,-46.4005 1493.5124,-30.124 1354.295,-22.3316"/>
<polygon fill="#000088" stroke="#000088" points="1344.1036,-21.7628 1354.3388,-17.8271 1349.0958,-22.0414 1354.088,-22.3201 1354.088,-22.3201 1354.088,-22.3201 1349.0958,-22.0414 1353.8372,-26.8131 1344.1036,-21.7628 1344.1036,-21.7628"/>
<text text-anchor="middle" x="1805" y="-56.6" font-family="Times,serif" font-size="8.00" fill="#000000">lexinfoRegister</text>
</g>
<!-- lexinfosingular -->
<g id="node14" class="node">
<title>lexinfosingular</title>
<path fill="none" stroke="#000000" d="M1718,-36C1718,-36 1632,-36 1632,-36 1626,-36 1620,-30 1620,-24 1620,-24 1620,-12 1620,-12 1620,-6 1626,0 1632,0 1632,0 1718,0 1718,0 1724,0 1730,-6 1730,-12 1730,-12 1730,-24 1730,-24 1730,-30 1724,-36 1718,-36"/>
<polygon fill="#add8e6" stroke="transparent" points="1628,-10 1628,-25 1722,-25 1722,-10 1628,-10"/>
<text text-anchor="start" x="1630.5" y="-16" font-family="Times,serif" font-style="italic" font-size="10.00" fill="#000000">lexinfosingular:Class</text>
</g>
<!-- cgnlexwform147297&#45;&gt;lexinfosingular -->
<g id="edge20" class="edge">
<title>cgnlexwform147297&#45;&gt;lexinfosingular</title>
<path fill="none" stroke="#000088" d="M1854.0603,-103.4529C1872.7538,-88.6358 1883.3942,-71.311 1869,-54 1852.7618,-34.4713 1790.2455,-25.4876 1740.511,-21.3849"/>
<polygon fill="#000088" stroke="#000088" points="1730.4332,-20.6046 1740.7508,-16.8901 1735.4183,-20.9906 1740.4034,-21.3766 1740.4034,-21.3766 1740.4034,-21.3766 1735.4183,-20.9906 1740.0559,-25.8632 1730.4332,-20.6046 1730.4332,-20.6046"/>
<text text-anchor="middle" x="1897.5" y="-56.6" font-family="Times,serif" font-size="8.00" fill="#000000">lexinfonumber</text>
</g>
<!-- cgnlexwform807576&#45;&gt;lexinfoneutralRegister -->
<g id="edge21" class="edge">
<title>cgnlexwform807576&#45;&gt;lexinfoneutralRegister</title>
<path fill="none" stroke="#000088" d="M1434.5015,-88.1281C1441.4276,-76.9101 1442.913,-65.1567 1434,-54 1423.5489,-40.9181 1388.7932,-32.2385 1354.4321,-26.6864"/>
<polygon fill="#000088" stroke="#000088" points="1344.2918,-25.1324 1354.8581,-22.1993 1349.2341,-25.8899 1354.1764,-26.6473 1354.1764,-26.6473 1354.1764,-26.6473 1349.2341,-25.8899 1353.4947,-31.0954 1344.2918,-25.1324 1344.2918,-25.1324"/>
<text text-anchor="middle" x="1463" y="-56.6" font-family="Times,serif" font-size="8.00" fill="#000000">lexinfoRegister</text>
</g>
<!-- cgnlexwform807576&#45;&gt;lexinfoneutralRegister -->
<g id="edge22" class="edge">
<title>cgnlexwform807576&#45;&gt;lexinfoneutralRegister</title>
<path fill="none" stroke="#000088" d="M1370.0272,-88.1385C1370.0109,-76.0905 1367.6584,-64.0055 1361,-54 1357.9175,-49.368 1354.1122,-45.3309 1349.8338,-41.8123"/>
<polygon fill="#000088" stroke="#000088" points="1341.6757,-36.0226 1352.4352,-38.1404 1345.7532,-38.9164 1349.8308,-41.8102 1349.8308,-41.8102 1349.8308,-41.8102 1345.7532,-38.9164 1347.2264,-45.4799 1341.6757,-36.0226 1341.6757,-36.0226"/>
<text text-anchor="middle" x="1390" y="-56.6" font-family="Times,serif" font-size="8.00" fill="#000000">lexinfoRegister</text>
</g>
<!-- cgnlexwform807576&#45;&gt;lexinfoformalRegister -->
<g id="edge23" class="edge">
<title>cgnlexwform807576&#45;&gt;lexinfoformalRegister</title>
<path fill="none" stroke="#000088" d="M1325.5193,-88.3344C1315.3184,-74.9107 1302.7548,-62.1429 1288,-54 1259.3338,-38.1797 1063.5482,-26.7269 951.4317,-21.3792"/>
<polygon fill="#000088" stroke="#000088" points="941.1836,-20.8963 951.3844,-16.8721 946.1781,-21.1317 951.1725,-21.3671 951.1725,-21.3671 951.1725,-21.3671 946.1781,-21.1317 950.9607,-25.8621 941.1836,-20.8963 941.1836,-20.8963"/>
<text text-anchor="middle" x="1325" y="-56.6" font-family="Times,serif" font-size="8.00" fill="#000000">lexinfoRegister</text>
</g>
<!-- cgnlexwform862734&#45;&gt;lexinfoneutralRegister -->
<g id="edge24" class="edge">
<title>cgnlexwform862734&#45;&gt;lexinfoneutralRegister</title>
<path fill="none" stroke="#000088" d="M1083.3486,-88.4298C1083.8891,-75.9533 1087.0339,-63.609 1095,-54 1108.1339,-38.1575 1153.826,-29.1375 1195.8839,-24.0882"/>
<polygon fill="#000088" stroke="#000088" points="1205.9104,-22.9489 1196.4824,-28.5492 1200.9424,-23.5135 1195.9744,-24.078 1195.9744,-24.078 1195.9744,-24.078 1200.9424,-23.5135 1195.4663,-19.6068 1205.9104,-22.9489 1205.9104,-22.9489"/>
<text text-anchor="middle" x="1120" y="-56.6" font-family="Times,serif" font-size="8.00" fill="#000000">lexinfoRegister</text>
</g>
<!-- cgnlexwform862734&#45;&gt;lexinfoneutralRegister -->
<g id="edge25" class="edge">
<title>cgnlexwform862734&#45;&gt;lexinfoneutralRegister</title>
<path fill="none" stroke="#000088" d="M1131.855,-88.2687C1142.3668,-75.6506 1154.6133,-63.2828 1168,-54 1176.6048,-48.0331 1186.2783,-42.9888 1196.1996,-38.7419"/>
<polygon fill="#000088" stroke="#000088" points="1205.7609,-34.9103 1198.1524,-42.8072 1201.1197,-36.7702 1196.4785,-38.6301 1196.4785,-38.6301 1196.4785,-38.6301 1201.1197,-36.7702 1194.8046,-34.4531 1205.7609,-34.9103 1205.7609,-34.9103"/>
<text text-anchor="middle" x="1193" y="-56.6" font-family="Times,serif" font-size="8.00" fill="#000000">lexinfoRegister</text>
</g>
<!-- cgnlexwform862734&#45;&gt;lexinfoformalRegister -->
<g id="edge26" class="edge">
<title>cgnlexwform862734&#45;&gt;lexinfoformalRegister</title>
<path fill="none" stroke="#000088" d="M1044.006,-88.4768C1030.4461,-75.7016 1015.0442,-63.2097 999,-54 984.2382,-45.5264 967.3429,-38.9308 950.822,-33.8394"/>
<polygon fill="#000088" stroke="#000088" points="941.1569,-31.0125 952.0181,-29.5007 945.9559,-32.4162 950.7548,-33.8198 950.7548,-33.8198 950.7548,-33.8198 945.9559,-32.4162 949.4916,-38.1389 941.1569,-31.0125 941.1569,-31.0125"/>
<text text-anchor="middle" x="1036" y="-56.6" font-family="Times,serif" font-size="8.00" fill="#000000">lexinfoRegister</text>
</g>
<!-- cgnlexwform862734&#45;&gt;lexinfosingular -->
<g id="edge27" class="edge">
<title>cgnlexwform862734&#45;&gt;lexinfosingular</title>
<path fill="none" stroke="#000088" d="M1179.2639,-88.4237C1205.7411,-71.3238 1229.8874,-56.3916 1237,-54 1271.3637,-42.4454 1496.1385,-28.204 1609.642,-21.6346"/>
<polygon fill="#000088" stroke="#000088" points="1619.9377,-21.0421 1610.2128,-26.1093 1614.946,-21.3294 1609.9542,-21.6167 1609.9542,-21.6167 1609.9542,-21.6167 1614.946,-21.3294 1609.6957,-17.1241 1619.9377,-21.0421 1619.9377,-21.0421"/>
<text text-anchor="middle" x="1260.5" y="-56.6" font-family="Times,serif" font-size="8.00" fill="#000000">lexinfonumber</text>
</g>
<!-- cgnlexwform147514&#45;&gt;lexinfoneutralRegister -->
<g id="edge28" class="edge">
<title>cgnlexwform147514&#45;&gt;lexinfoneutralRegister</title>
<path fill="none" stroke="#000088" d="M905.1528,-80.9287C917.2323,-70.3396 930.7173,-60.6592 945,-54 988.0593,-33.9239 1112.5334,-24.7751 1195.6939,-20.8057"/>
<polygon fill="#000088" stroke="#000088" points="1205.875,-20.3356 1196.0932,-25.2921 1200.8803,-20.5662 1195.8856,-20.7969 1195.8856,-20.7969 1195.8856,-20.7969 1200.8803,-20.5662 1195.6781,-16.3017 1205.875,-20.3356 1205.875,-20.3356"/>
<text text-anchor="middle" x="970" y="-56.6" font-family="Times,serif" font-size="8.00" fill="#000000">lexinfoRegister</text>
</g>
<!-- cgnlexwform147514&#45;&gt;lexinfoneutralRegister -->
<g id="edge29" class="edge">
<title>cgnlexwform147514&#45;&gt;lexinfoneutralRegister</title>
<path fill="none" stroke="#000088" d="M856.9868,-80.9485C860.8512,-70.6282 866.5775,-61.04 875,-54 899.0262,-33.9177 1086.3005,-24.2928 1195.8811,-20.3378"/>
<polygon fill="#000088" stroke="#000088" points="1205.9094,-19.9838 1196.0745,-24.8339 1200.9126,-20.1603 1195.9157,-20.3367 1195.9157,-20.3367 1195.9157,-20.3367 1200.9126,-20.1603 1195.7569,-15.8395 1205.9094,-19.9838 1205.9094,-19.9838"/>
<text text-anchor="middle" x="900" y="-56.6" font-family="Times,serif" font-size="8.00" fill="#000000">lexinfoRegister</text>
</g>
<!-- cgnlexwform147514&#45;&gt;lexinfoformalRegister -->
<g id="edge30" class="edge">
<title>cgnlexwform147514&#45;&gt;lexinfoformalRegister</title>
<path fill="none" stroke="#000088" d="M799.2658,-80.7224C797.1447,-71.6358 797.8132,-62.5 803,-54 805.7328,-49.5216 809.2202,-45.5767 813.1743,-42.1062"/>
<polygon fill="#000088" stroke="#000088" points="821.2782,-36.0011 815.9988,-45.6125 817.2847,-39.0097 813.2911,-42.0183 813.2911,-42.0183 813.2911,-42.0183 817.2847,-39.0097 810.5834,-38.4241 821.2782,-36.0011 821.2782,-36.0011"/>
<text text-anchor="middle" x="828" y="-56.6" font-family="Times,serif" font-size="8.00" fill="#000000">lexinfoRegister</text>
</g>
<!-- cgnlexwform147514&#45;&gt;lexinfoplural -->
<g id="edge31" class="edge">
<title>cgnlexwform147514&#45;&gt;lexinfoplural</title>
<path fill="none" stroke="#000088" d="M763.2961,-86.5512C760.499,-84.6777 757.728,-82.8234 755,-81 735.4876,-67.9577 713.666,-53.4791 695.8623,-41.6938"/>
<polygon fill="#000088" stroke="#000088" points="687.4727,-36.1428 698.2956,-37.908 691.6426,-38.9018 695.8125,-41.6609 695.8125,-41.6609 695.8125,-41.6609 691.6426,-38.9018 693.3293,-45.4138 687.4727,-36.1428 687.4727,-36.1428"/>
<text text-anchor="middle" x="749.5" y="-56.6" font-family="Times,serif" font-size="8.00" fill="#000000">lexinfonumber</text>
</g>
<!-- cgnlexwform802537&#45;&gt;lexinfoneutralRegister -->
<g id="edge32" class="edge">
<title>cgnlexwform802537&#45;&gt;lexinfoneutralRegister</title>
<path fill="none" stroke="#000088" d="M1539.5814,-103.313C1527.7861,-85.34 1511.6632,-65.78 1492,-54 1469.1195,-40.2925 1406.5994,-30.8255 1354.5112,-25.0526"/>
<polygon fill="#000088" stroke="#000088" points="1344.2474,-23.9471 1354.6719,-20.544 1349.2187,-24.4826 1354.1899,-25.0181 1354.1899,-25.0181 1354.1899,-25.0181 1349.2187,-24.4826 1353.708,-29.4922 1344.2474,-23.9471 1344.2474,-23.9471"/>
<text text-anchor="middle" x="1529" y="-56.6" font-family="Times,serif" font-size="8.00" fill="#000000">lexinfoRegister</text>
</g>
<!-- cgnlexwform802537&#45;&gt;lexinfoneutralRegister -->
<g id="edge33" class="edge">
<title>cgnlexwform802537&#45;&gt;lexinfoneutralRegister</title>
<path fill="none" stroke="#000088" d="M1571.0139,-103.3818C1572.2613,-86.0771 1569.9962,-67.0304 1558,-54 1544.3356,-39.1576 1433.4258,-28.6254 1354.5921,-22.9293"/>
<polygon fill="#000088" stroke="#000088" points="1344.1794,-22.1914 1354.4725,-18.4096 1349.1669,-22.5449 1354.1544,-22.8984 1354.1544,-22.8984 1354.1544,-22.8984 1349.1669,-22.5449 1353.8362,-27.3871 1344.1794,-22.1914 1344.1794,-22.1914"/>
<text text-anchor="middle" x="1588" y="-56.6" font-family="Times,serif" font-size="8.00" fill="#000000">lexinfoRegister</text>
</g>
<!-- cgnlexwform802537&#45;&gt;lexinfosingular -->
<g id="edge34" class="edge">
<title>cgnlexwform802537&#45;&gt;lexinfosingular</title>
<path fill="none" stroke="#000088" d="M1614.9983,-103.437C1628.4291,-91.3224 1642.1173,-77.4335 1653,-63 1656.9854,-57.7142 1660.546,-51.5928 1663.5819,-45.6003"/>
<polygon fill="#000088" stroke="#000088" points="1667.9065,-36.4281 1667.7121,-47.3922 1665.7742,-40.9506 1663.6418,-45.4731 1663.6418,-45.4731 1663.6418,-45.4731 1665.7742,-40.9506 1659.5715,-43.554 1667.9065,-36.4281 1667.9065,-36.4281"/>
<text text-anchor="middle" x="1681.5" y="-56.6" font-family="Times,serif" font-size="8.00" fill="#000000">lexinfonumber</text>
</g>
</g>
</svg>
