<svg width="300pt" height="144pt"
 viewBox="0.00 0.00 299.50 144.00" xmlns="http://www.w3.org/2000/svg" xmlns:xlink="http://www.w3.org/1999/xlink">
<g id="graph0" class="graph" transform="scale(1 1) rotate(0) translate(4 140)">
<title>G</title>
<polygon fill="#ffffff" stroke="transparent" points="-4,4 -4,-140 295.5,-140 295.5,4 -4,4"/>
<!-- lemmavorm78332 -->
<g id="node1" class="node">
<title>lemmavorm78332</title>
<path fill="none" stroke="#000000" d="M135,-53C135,-53 12,-53 12,-53 6,-53 0,-47 0,-41 0,-41 0,-12 0,-12 0,-6 6,0 12,0 12,0 135,0 135,0 141,0 147,-6 147,-12 147,-12 147,-41 147,-41 147,-47 141,-53 135,-53"/>
<polygon fill="#add8e6" stroke="transparent" points="8.5,-33.5 8.5,-48.5 139.5,-48.5 139.5,-33.5 8.5,-33.5"/>
<text text-anchor="start" x="21" y="-39.5" font-family="Times,serif" font-style="italic" font-size="10.00" fill="#000000">lemmavorm_78332:Form</text>
<text text-anchor="start" x="14" y="-23.5" font-family="Times,serif" font-size="10.00" fill="#000000">writtenRepresentation</text>
<text text-anchor="start" x="118.5" y="-23.5" font-family="Times,serif" font-size="10.00" fill="#000000">kat</text>
<text text-anchor="start" x="10.5" y="-8.5" font-family="Times,serif" font-size="10.00" fill="#000000">phoneticRepresentation</text>
<text text-anchor="start" x="112.5" y="-8.5" font-family="Times,serif" font-size="10.00" fill="#000000">*k ɑ t</text>
</g>
<!-- lemma78332 -->
<g id="node2" class="node">
<title>lemma78332</title>
<path fill="none" stroke="#000000" d="M206,-136C206,-136 95,-136 95,-136 89,-136 83,-130 83,-124 83,-124 83,-110 83,-110 83,-104 89,-98 95,-98 95,-98 206,-98 206,-98 212,-98 218,-104 218,-110 218,-110 218,-124 218,-124 218,-130 212,-136 206,-136"/>
<polygon fill="#add8e6" stroke="transparent" points="91.5,-117 91.5,-132 210.5,-132 210.5,-117 91.5,-117"/>
<text text-anchor="start" x="93.5" y="-123" font-family="Times,serif" font-style="italic" font-size="10.00" fill="#000000">lemma_78332:LexicalEntry</text>
<text text-anchor="start" x="112.5" y="-107" font-family="Times,serif" font-size="10.00" fill="#000000">label</text>
<text text-anchor="start" x="176" y="-107" font-family="Times,serif" font-size="10.00" fill="#000000">kat</text>
</g>
<!-- lemma78332&#45;&gt;lemmavorm78332 -->
<g id="edge1" class="edge">
<title>lemma78332&#45;&gt;lemmavorm78332</title>
<path fill="none" stroke="#000088" d="M134.1703,-97.8073C125.1169,-87.1667 113.5825,-73.6099 103.007,-61.1803"/>
<polygon fill="#000088" stroke="#000088" points="96.2315,-53.2169 106.139,-57.9171 99.4716,-57.0251 102.7117,-60.8332 102.7117,-60.8332 102.7117,-60.8332 99.4716,-57.0251 99.2844,-63.7493 96.2315,-53.2169 96.2315,-53.2169"/>
<text text-anchor="middle" x="144" y="-73.6" font-family="Times,serif" font-size="8.00" fill="#000000">canonicalForm</text>
</g>
<!-- sensebet1078333 -->
<g id="node3" class="node">
<title>sensebet1078333</title>
<path fill="none" stroke="#000000" d="M279.5,-44.5C279.5,-44.5 177.5,-44.5 177.5,-44.5 171.5,-44.5 165.5,-38.5 165.5,-32.5 165.5,-32.5 165.5,-20.5 165.5,-20.5 165.5,-14.5 171.5,-8.5 177.5,-8.5 177.5,-8.5 279.5,-8.5 279.5,-8.5 285.5,-8.5 291.5,-14.5 291.5,-20.5 291.5,-20.5 291.5,-32.5 291.5,-32.5 291.5,-38.5 285.5,-44.5 279.5,-44.5"/>
<polygon fill="#add8e6" stroke="transparent" points="173.5,-18.5 173.5,-33.5 283.5,-33.5 283.5,-18.5 173.5,-18.5"/>
<text text-anchor="start" x="176" y="-24.5" font-family="Times,serif" font-style="italic" font-size="10.00" fill="#000000">sensebet1.0_78333:Class</text>
</g>
<!-- lemma78332&#45;&gt;sensebet1078333 -->
<g id="edge2" class="edge">
<title>lemma78332&#45;&gt;sensebet1078333</title>
<path fill="none" stroke="#000088" d="M167.0418,-97.8073C178.4368,-84.5862 193.712,-66.863 206.1828,-52.3937"/>
<polygon fill="#000088" stroke="#000088" points="212.7801,-44.7392 209.6601,-55.2519 209.5158,-48.5266 206.2515,-52.314 206.2515,-52.314 206.2515,-52.314 209.5158,-48.5266 202.8428,-49.3761 212.7801,-44.7392 212.7801,-44.7392"/>
<text text-anchor="middle" x="198.5" y="-73.6" font-family="Times,serif" font-size="8.00" fill="#000000">sense</text>
</g>
</g>
</svg>
