<svg width="953pt" height="242pt"
 viewBox="0.00 0.00 953.00 242.00" xmlns="http://www.w3.org/2000/svg" xmlns:xlink="http://www.w3.org/1999/xlink">
<g id="graph0" class="graph" transform="scale(1 1) rotate(0) translate(4 238)">
<title>G</title>
<polygon fill="#ffffff" stroke="transparent" points="-4,4 -4,-238 949,-238 949,4 -4,4"/>
<!-- sensebet1078333definition -->
<g id="node1" class="node">
<title>sensebet1078333definition</title>
<path fill="none" stroke="#000000" d="M933,-53C933,-53 298,-53 298,-53 292,-53 286,-47 286,-41 286,-41 286,-12 286,-12 286,-6 292,0 298,0 298,0 933,0 933,0 939,0 945,-6 945,-12 945,-12 945,-41 945,-41 945,-47 939,-53 933,-53"/>
<polygon fill="#add8e6" stroke="transparent" points="294.5,-33.5 294.5,-48.5 937.5,-48.5 937.5,-33.5 294.5,-33.5"/>
<text text-anchor="start" x="541.5" y="-39.5" font-family="Times,serif" font-style="italic" font-size="10.00" fill="#000000">sensebet1.0_78333_definition:UNK</text>
<text text-anchor="start" x="332" y="-23.5" font-family="Times,serif" font-size="10.00" fill="#000000">value</text>
<text text-anchor="start" x="394.5" y="-23.5" font-family="Times,serif" font-size="10.00" fill="#000000">klein huisdier dat miauwt en spint en dat gehouden wordt als gezelschapsdier of voor het vangen van muizen en ratten; huiskat; poes</text>
<text text-anchor="start" x="296.5" y="-8.5" font-family="Times,serif" font-size="10.00" fill="#000000">definitionComplement</text>
<text text-anchor="start" x="499.5" y="-8.5" font-family="Times,serif" font-size="10.00" fill="#000000">Zowel in toepassing op dieren van het vrouwelijk als van het mannelijk geslacht.</text>
</g>
<!-- sensebet11195644definition -->
<g id="node2" class="node">
<title>sensebet11195644definition</title>
<path fill="none" stroke="#000000" d="M256.5,-45.5C256.5,-45.5 40.5,-45.5 40.5,-45.5 34.5,-45.5 28.5,-39.5 28.5,-33.5 28.5,-33.5 28.5,-19.5 28.5,-19.5 28.5,-13.5 34.5,-7.5 40.5,-7.5 40.5,-7.5 256.5,-7.5 256.5,-7.5 262.5,-7.5 268.5,-13.5 268.5,-19.5 268.5,-19.5 268.5,-33.5 268.5,-33.5 268.5,-39.5 262.5,-45.5 256.5,-45.5"/>
<polygon fill="#add8e6" stroke="transparent" points="36.5,-26.5 36.5,-41.5 260.5,-41.5 260.5,-26.5 36.5,-26.5"/>
<text text-anchor="start" x="71.5" y="-32.5" font-family="Times,serif" font-style="italic" font-size="10.00" fill="#000000">sensebet1.1_195644_definition:UNK</text>
<text text-anchor="start" x="38.5" y="-16.5" font-family="Times,serif" font-size="10.00" fill="#000000">value</text>
<text text-anchor="start" x="65.5" y="-16.5" font-family="Times,serif" font-size="10.00" fill="#000000">beeld of afbeelding van een kat, bv. in de kunst</text>
</g>
<!-- lemmavorm78332 -->
<g id="node3" class="node">
<title>lemmavorm78332</title>
<path fill="none" stroke="#000000" d="M135,-151C135,-151 12,-151 12,-151 6,-151 0,-145 0,-139 0,-139 0,-110 0,-110 0,-104 6,-98 12,-98 12,-98 135,-98 135,-98 141,-98 147,-104 147,-110 147,-110 147,-139 147,-139 147,-145 141,-151 135,-151"/>
<polygon fill="#add8e6" stroke="transparent" points="8.5,-131.5 8.5,-146.5 139.5,-146.5 139.5,-131.5 8.5,-131.5"/>
<text text-anchor="start" x="21" y="-137.5" font-family="Times,serif" font-style="italic" font-size="10.00" fill="#000000">lemmavorm_78332:Form</text>
<text text-anchor="start" x="14" y="-121.5" font-family="Times,serif" font-size="10.00" fill="#000000">writtenRepresentation</text>
<text text-anchor="start" x="118.5" y="-121.5" font-family="Times,serif" font-size="10.00" fill="#000000">kat</text>
<text text-anchor="start" x="10.5" y="-106.5" font-family="Times,serif" font-size="10.00" fill="#000000">phoneticRepresentation</text>
<text text-anchor="start" x="112.5" y="-106.5" font-family="Times,serif" font-size="10.00" fill="#000000">*k ɑ t</text>
</g>
<!-- sensebet11195644 -->
<g id="node4" class="node">
<title>sensebet11195644</title>
<path fill="none" stroke="#000000" d="M282,-143.5C282,-143.5 177,-143.5 177,-143.5 171,-143.5 165,-137.5 165,-131.5 165,-131.5 165,-117.5 165,-117.5 165,-111.5 171,-105.5 177,-105.5 177,-105.5 282,-105.5 282,-105.5 288,-105.5 294,-111.5 294,-117.5 294,-117.5 294,-131.5 294,-131.5 294,-137.5 288,-143.5 282,-143.5"/>
<polygon fill="#add8e6" stroke="transparent" points="173.5,-124.5 173.5,-139.5 286.5,-139.5 286.5,-124.5 173.5,-124.5"/>
<text text-anchor="start" x="175.5" y="-130.5" font-family="Times,serif" font-style="italic" font-size="10.00" fill="#000000">sensebet1.1_195644:UNK</text>
<text text-anchor="start" x="185" y="-114.5" font-family="Times,serif" font-size="10.00" fill="#000000">subsenseOrder</text>
<text text-anchor="start" x="268.5" y="-114.5" font-family="Times,serif" font-size="10.00" fill="#000000">1</text>
</g>
<!-- sensebet11195644&#45;&gt;sensebet11195644definition -->
<g id="edge1" class="edge">
<title>sensebet11195644&#45;&gt;sensebet11195644definition</title>
<path fill="none" stroke="#000088" d="M213.497,-105.1384C201.4045,-90.5079 184.6448,-70.2307 171.1729,-53.9314"/>
<polygon fill="#000088" stroke="#000088" points="164.4697,-45.8214 174.3092,-50.6625 167.6552,-49.6754 170.8406,-53.5294 170.8406,-53.5294 170.8406,-53.5294 167.6552,-49.6754 167.372,-56.3963 164.4697,-45.8214 164.4697,-45.8214"/>
<text text-anchor="middle" x="206" y="-73.6" font-family="Times,serif" font-size="8.00" fill="#000000">definition</text>
</g>
<!-- lemma78332 -->
<g id="node5" class="node">
<title>lemma78332</title>
<path fill="none" stroke="#000000" d="M285,-234C285,-234 174,-234 174,-234 168,-234 162,-228 162,-222 162,-222 162,-208 162,-208 162,-202 168,-196 174,-196 174,-196 285,-196 285,-196 291,-196 297,-202 297,-208 297,-208 297,-222 297,-222 297,-228 291,-234 285,-234"/>
<polygon fill="#add8e6" stroke="transparent" points="170.5,-215 170.5,-230 289.5,-230 289.5,-215 170.5,-215"/>
<text text-anchor="start" x="172.5" y="-221" font-family="Times,serif" font-style="italic" font-size="10.00" fill="#000000">lemma_78332:LexicalEntry</text>
<text text-anchor="start" x="191.5" y="-205" font-family="Times,serif" font-size="10.00" fill="#000000">label</text>
<text text-anchor="start" x="255" y="-205" font-family="Times,serif" font-size="10.00" fill="#000000">kat</text>
</g>
<!-- lemma78332&#45;&gt;lemmavorm78332 -->
<g id="edge2" class="edge">
<title>lemma78332&#45;&gt;lemmavorm78332</title>
<path fill="none" stroke="#000088" d="M196.4164,-195.8073C176.5982,-184.3101 150.9114,-169.4085 128.1477,-156.2027"/>
<polygon fill="#000088" stroke="#000088" points="119.2576,-151.0453 130.1656,-152.1709 123.5826,-153.5543 127.9075,-156.0634 127.9075,-156.0634 127.9075,-156.0634 123.5826,-153.5543 125.6494,-159.9558 119.2576,-151.0453 119.2576,-151.0453"/>
<text text-anchor="middle" x="189" y="-171.6" font-family="Times,serif" font-size="8.00" fill="#000000">canonicalForm</text>
</g>
<!-- lemma78332&#45;&gt;sensebet11195644 -->
<g id="edge4" class="edge">
<title>lemma78332&#45;&gt;sensebet11195644</title>
<path fill="none" stroke="#000088" d="M229.5,-195.8073C229.5,-183.5687 229.5,-167.4725 229.5,-153.6705"/>
<polygon fill="#000088" stroke="#000088" points="229.5,-143.6651 234.0001,-153.665 229.5,-148.6651 229.5001,-153.6651 229.5001,-153.6651 229.5001,-153.6651 229.5,-148.6651 225.0001,-153.6651 229.5,-143.6651 229.5,-143.6651"/>
<text text-anchor="middle" x="238.5" y="-171.6" font-family="Times,serif" font-size="8.00" fill="#000000">sense</text>
</g>
<!-- sensebet1078333 -->
<g id="node6" class="node">
<title>sensebet1078333</title>
<path fill="none" stroke="#000000" d="M584,-143.5C584,-143.5 485,-143.5 485,-143.5 479,-143.5 473,-137.5 473,-131.5 473,-131.5 473,-117.5 473,-117.5 473,-111.5 479,-105.5 485,-105.5 485,-105.5 584,-105.5 584,-105.5 590,-105.5 596,-111.5 596,-117.5 596,-117.5 596,-131.5 596,-131.5 596,-137.5 590,-143.5 584,-143.5"/>
<polygon fill="#add8e6" stroke="transparent" points="481.5,-124.5 481.5,-139.5 588.5,-139.5 588.5,-124.5 481.5,-124.5"/>
<text text-anchor="start" x="483.5" y="-130.5" font-family="Times,serif" font-style="italic" font-size="10.00" fill="#000000">sensebet1.0_78333:UNK</text>
<text text-anchor="start" x="495" y="-114.5" font-family="Times,serif" font-size="10.00" fill="#000000">senseOrder</text>
<text text-anchor="start" x="568.5" y="-114.5" font-family="Times,serif" font-size="10.00" fill="#000000">1</text>
</g>
<!-- lemma78332&#45;&gt;sensebet1078333 -->
<g id="edge3" class="edge">
<title>lemma78332&#45;&gt;sensebet1078333</title>
<path fill="none" stroke="#000088" d="M293.81,-195.9179C343.3955,-181.2048 411.9338,-160.868 463.1944,-145.6579"/>
<polygon fill="#000088" stroke="#000088" points="472.8805,-142.7838 464.5738,-149.9426 468.0871,-144.2062 463.2937,-145.6285 463.2937,-145.6285 463.2937,-145.6285 468.0871,-144.2062 462.0135,-141.3144 472.8805,-142.7838 472.8805,-142.7838"/>
<text text-anchor="middle" x="390.5" y="-171.6" font-family="Times,serif" font-size="8.00" fill="#000000">sense</text>
</g>
<!-- sensebet1078333&#45;&gt;sensebet1078333definition -->
<g id="edge5" class="edge">
<title>sensebet1078333&#45;&gt;sensebet1078333definition</title>
<path fill="none" stroke="#000088" d="M550.503,-105.1384C560.8507,-92.6189 574.616,-75.9646 586.8142,-61.2062"/>
<polygon fill="#000088" stroke="#000088" points="593.3982,-53.2405 590.4959,-63.8153 590.2127,-57.0945 587.0273,-60.9484 587.0273,-60.9484 587.0273,-60.9484 590.2127,-57.0945 583.5587,-58.0815 593.3982,-53.2405 593.3982,-53.2405"/>
<text text-anchor="middle" x="592" y="-73.6" font-family="Times,serif" font-size="8.00" fill="#000000">definition</text>
</g>
</g>
</svg>
