<svg width="674pt" height="421pt"
 viewBox="0.00 0.00 674.00 421.00" xmlns="http://www.w3.org/2000/svg" xmlns:xlink="http://www.w3.org/1999/xlink">
<g id="graph0" class="graph" transform="scale(1 1) rotate(0) translate(4 417)">
<title>G</title>
<polygon fill="#ffffff" stroke="transparent" points="-4,4 -4,-417 670,-417 670,4 -4,4"/>
<!-- q0 -->
<g id="node1" class="node">
<title>q0</title>
<path fill="none" stroke="#000000" d="M315.5,-151C315.5,-151 143.5,-151 143.5,-151 137.5,-151 131.5,-145 131.5,-139 131.5,-139 131.5,-110 131.5,-110 131.5,-104 137.5,-98 143.5,-98 143.5,-98 315.5,-98 315.5,-98 321.5,-98 327.5,-104 327.5,-110 327.5,-110 327.5,-139 327.5,-139 327.5,-145 321.5,-151 315.5,-151"/>
<polygon fill="#add8e6" stroke="transparent" points="139.5,-131.5 139.5,-146.5 319.5,-146.5 319.5,-131.5 139.5,-131.5"/>
<text text-anchor="start" x="201" y="-137.5" font-family="Times,serif" font-style="italic" font-size="10.00" fill="#000000">q0:Quotation</text>
<text text-anchor="start" x="141.5" y="-121.5" font-family="Times,serif" font-size="10.00" fill="#000000"> &#160;&#160;&#160;&#160;&#160;&#160;&#160;quotationText &#160;&#160;&#160;&#160;&#160;</text>
<text text-anchor="start" x="236.5" y="-121.5" font-family="Times,serif" font-size="10.00" fill="#000000">The kine all said bo</text>
<text text-anchor="start" x="162.5" y="-106.5" font-family="Times,serif" font-size="10.00" fill="#000000"> &#160;&#160;&#160;&#160;&#160;&#160;&#160;title &#160;&#160;&#160;&#160;&#160;</text>
<text text-anchor="start" x="240.5" y="-106.5" font-family="Times,serif" font-size="10.00" fill="#000000">Over pissebedden</text>
</g>
<!-- t0 -->
<g id="node2" class="node">
<title>t0</title>
<path fill="none" stroke="#000000" d="M141,-45.5C141,-45.5 12,-45.5 12,-45.5 6,-45.5 0,-39.5 0,-33.5 0,-33.5 0,-19.5 0,-19.5 0,-13.5 6,-7.5 12,-7.5 12,-7.5 141,-7.5 141,-7.5 147,-7.5 153,-13.5 153,-19.5 153,-19.5 153,-33.5 153,-33.5 153,-39.5 147,-45.5 141,-45.5"/>
<polygon fill="#add8e6" stroke="transparent" points="8.5,-26.5 8.5,-41.5 145.5,-41.5 145.5,-26.5 8.5,-26.5"/>
<text text-anchor="start" x="61.5" y="-32.5" font-family="Times,serif" font-style="italic" font-size="10.00" fill="#000000">t0:Title</text>
<text text-anchor="start" x="10.5" y="-16.5" font-family="Times,serif" font-size="10.00" fill="#000000"> &#160;&#160;&#160;&#160;&#160;&#160;&#160;title &#160;&#160;&#160;&#160;&#160;</text>
<text text-anchor="start" x="63.5" y="-16.5" font-family="Times,serif" font-size="10.00" fill="#000000">Hinderlijke diertjes</text>
</g>
<!-- q0&#45;&gt;t0 -->
<g id="edge1" class="edge">
<title>q0&#45;&gt;t0</title>
<path fill="none" stroke="#000088" d="M188.096,-97.9798C165.2826,-83.3673 137.1527,-65.3494 114.8428,-51.0595"/>
<polygon fill="#000088" stroke="#000088" points="106.2921,-45.5825 117.14,-47.1869 110.5025,-48.2794 114.7128,-50.9762 114.7128,-50.9762 114.7128,-50.9762 110.5025,-48.2794 112.2857,-54.7655 106.2921,-45.5825 106.2921,-45.5825"/>
<text text-anchor="middle" x="185.5" y="-73.6" font-family="Times,serif" font-size="8.00" fill="#000000">containedInTitle</text>
</g>
<!-- w0 -->
<g id="node3" class="node">
<title>w0</title>
<path fill="none" stroke="#000000" d="M275.5,-53C275.5,-53 183.5,-53 183.5,-53 177.5,-53 171.5,-47 171.5,-41 171.5,-41 171.5,-12 171.5,-12 171.5,-6 177.5,0 183.5,0 183.5,0 275.5,0 275.5,0 281.5,0 287.5,-6 287.5,-12 287.5,-12 287.5,-41 287.5,-41 287.5,-47 281.5,-53 275.5,-53"/>
<polygon fill="#add8e6" stroke="transparent" points="179.5,-33.5 179.5,-48.5 279.5,-48.5 279.5,-33.5 179.5,-33.5"/>
<text text-anchor="start" x="206" y="-39.5" font-family="Times,serif" font-style="italic" font-size="10.00" fill="#000000">w0:Witness</text>
<text text-anchor="start" x="181.5" y="-23.5" font-family="Times,serif" font-size="10.00" fill="#000000"> &#160;&#160;&#160;&#160;&#160;&#160;&#160;yearFrom &#160;&#160;&#160;&#160;&#160;</text>
<text text-anchor="start" x="255.5" y="-23.5" font-family="Times,serif" font-size="10.00" fill="#000000">1810</text>
<text text-anchor="start" x="186" y="-8.5" font-family="Times,serif" font-size="10.00" fill="#000000"> &#160;&#160;&#160;&#160;&#160;&#160;&#160;yearTo &#160;&#160;&#160;&#160;&#160;</text>
<text text-anchor="start" x="255.5" y="-8.5" font-family="Times,serif" font-size="10.00" fill="#000000">1812</text>
</g>
<!-- q0&#45;&gt;w0 -->
<g id="edge2" class="edge">
<title>q0&#45;&gt;w0</title>
<path fill="none" stroke="#000088" d="M229.5,-97.9798C229.5,-87.3034 229.5,-74.8091 229.5,-63.2792"/>
<polygon fill="#000088" stroke="#000088" points="229.5,-53.0414 234.0001,-63.0414 229.5,-58.0414 229.5001,-63.0414 229.5001,-63.0414 229.5001,-63.0414 229.5,-58.0414 225.0001,-63.0415 229.5,-53.0414 229.5,-53.0414"/>
<text text-anchor="middle" x="242" y="-73.6" font-family="Times,serif" font-size="8.00" fill="#000000">witness</text>
</g>
<!-- p0 -->
<g id="node4" class="node">
<title>p0</title>
<path fill="none" stroke="#000000" d="M409.5,-53C409.5,-53 317.5,-53 317.5,-53 311.5,-53 305.5,-47 305.5,-41 305.5,-41 305.5,-12 305.5,-12 305.5,-6 311.5,0 317.5,0 317.5,0 409.5,0 409.5,0 415.5,0 421.5,-6 421.5,-12 421.5,-12 421.5,-41 421.5,-41 421.5,-47 415.5,-53 409.5,-53"/>
<polygon fill="#add8e6" stroke="transparent" points="313.5,-33.5 313.5,-48.5 413.5,-48.5 413.5,-33.5 313.5,-33.5"/>
<text text-anchor="start" x="330" y="-39.5" font-family="Times,serif" font-style="italic" font-size="10.00" fill="#000000">p0:PlatonicText</text>
<text text-anchor="start" x="315.5" y="-23.5" font-family="Times,serif" font-size="10.00" fill="#000000"> &#160;&#160;&#160;&#160;&#160;&#160;&#160;yearFrom &#160;&#160;&#160;&#160;&#160;</text>
<text text-anchor="start" x="389.5" y="-23.5" font-family="Times,serif" font-size="10.00" fill="#000000">1810</text>
<text text-anchor="start" x="320" y="-8.5" font-family="Times,serif" font-size="10.00" fill="#000000"> &#160;&#160;&#160;&#160;&#160;&#160;&#160;yearTo &#160;&#160;&#160;&#160;&#160;</text>
<text text-anchor="start" x="389.5" y="-8.5" font-family="Times,serif" font-size="10.00" fill="#000000">1812</text>
</g>
<!-- q0&#45;&gt;p0 -->
<g id="edge3" class="edge">
<title>q0&#45;&gt;p0</title>
<path fill="none" stroke="#000088" d="M265.7623,-97.9798C282.1482,-85.9961 301.6657,-71.7221 318.9351,-59.0922"/>
<polygon fill="#000088" stroke="#000088" points="327.2087,-53.0414 321.7934,-62.5769 323.1728,-55.993 319.137,-58.9446 319.137,-58.9446 319.137,-58.9446 323.1728,-55.993 316.4805,-55.3124 327.2087,-53.0414 327.2087,-53.0414"/>
<text text-anchor="middle" x="322" y="-73.6" font-family="Times,serif" font-size="8.00" fill="#000000">platonicText</text>
</g>
<!-- e0 -->
<g id="node5" class="node">
<title>e0</title>
<path fill="none" stroke="#000000" d="M462.5,-413C462.5,-413 368.5,-413 368.5,-413 362.5,-413 356.5,-407 356.5,-401 356.5,-401 356.5,-389 356.5,-389 356.5,-383 362.5,-377 368.5,-377 368.5,-377 462.5,-377 462.5,-377 468.5,-377 474.5,-383 474.5,-389 474.5,-389 474.5,-401 474.5,-401 474.5,-407 468.5,-413 462.5,-413"/>
<polygon fill="#add8e6" stroke="transparent" points="364.5,-387 364.5,-402 466.5,-402 466.5,-387 364.5,-387"/>
<text text-anchor="start" x="367" y="-393" font-family="Times,serif" font-style="italic" font-size="10.00" fill="#000000">e0:ontolexLexicalEntry</text>
</g>
<!-- s0 -->
<g id="node6" class="node">
<title>s0</title>
<path fill="none" stroke="#000000" d="M309.5,-332C309.5,-332 117.5,-332 117.5,-332 111.5,-332 105.5,-326 105.5,-320 105.5,-320 105.5,-306 105.5,-306 105.5,-300 111.5,-294 117.5,-294 117.5,-294 309.5,-294 309.5,-294 315.5,-294 321.5,-300 321.5,-306 321.5,-306 321.5,-320 321.5,-320 321.5,-326 315.5,-332 309.5,-332"/>
<polygon fill="#add8e6" stroke="transparent" points="113.5,-313 113.5,-328 313.5,-328 313.5,-313 113.5,-313"/>
<text text-anchor="start" x="165" y="-319" font-family="Times,serif" font-style="italic" font-size="10.00" fill="#000000">s0:ontolexLexicalSense</text>
<text text-anchor="start" x="115.5" y="-303" font-family="Times,serif" font-size="10.00" fill="#000000"> &#160;&#160;&#160;&#160;&#160;&#160;&#160;ontolexdefinition &#160;&#160;&#160;&#160;&#160;</text>
<text text-anchor="start" x="223.5" y="-303" font-family="Times,serif" font-size="10.00" fill="#000000">Cows are useful anim</text>
</g>
<!-- e0&#45;&gt;s0 -->
<g id="edge4" class="edge">
<title>e0&#45;&gt;s0</title>
<path fill="none" stroke="#000088" d="M370.6697,-376.8015C340.9651,-364.7433 301.7561,-348.8267 269.9316,-335.9079"/>
<polygon fill="#000088" stroke="#000088" points="260.3109,-332.0024 271.2691,-331.5942 264.9437,-333.8831 269.5765,-335.7638 269.5765,-335.7638 269.5765,-335.7638 264.9437,-333.8831 267.8839,-339.9333 260.3109,-332.0024 260.3109,-332.0024"/>
<text text-anchor="middle" x="348" y="-352.6" font-family="Times,serif" font-size="8.00" fill="#000000">ontolexsense</text>
</g>
<!-- l0 -->
<g id="node8" class="node">
<title>l0</title>
<path fill="none" stroke="#000000" d="M479,-332C479,-332 352,-332 352,-332 346,-332 340,-326 340,-320 340,-320 340,-306 340,-306 340,-300 346,-294 352,-294 352,-294 479,-294 479,-294 485,-294 491,-300 491,-306 491,-306 491,-320 491,-320 491,-326 485,-332 479,-332"/>
<polygon fill="#add8e6" stroke="transparent" points="348.5,-313 348.5,-328 483.5,-328 483.5,-313 348.5,-313"/>
<text text-anchor="start" x="383.5" y="-319" font-family="Times,serif" font-style="italic" font-size="10.00" fill="#000000">l0:ontolexForm</text>
<text text-anchor="start" x="350.5" y="-303" font-family="Times,serif" font-size="10.00" fill="#000000"> &#160;&#160;&#160;&#160;&#160;&#160;&#160;ontolexwrittenRep &#160;&#160;&#160;&#160;&#160;</text>
<text text-anchor="start" x="463.5" y="-303" font-family="Times,serif" font-size="10.00" fill="#000000">cow</text>
</g>
<!-- e0&#45;&gt;l0 -->
<g id="edge5" class="edge">
<title>e0&#45;&gt;l0</title>
<path fill="none" stroke="#000088" d="M415.5,-376.8015C415.5,-366.6144 415.5,-353.6734 415.5,-342.1128"/>
<polygon fill="#000088" stroke="#000088" points="415.5,-332.0024 420.0001,-342.0024 415.5,-337.0024 415.5001,-342.0024 415.5001,-342.0024 415.5001,-342.0024 415.5,-337.0024 411.0001,-342.0025 415.5,-332.0024 415.5,-332.0024"/>
<text text-anchor="middle" x="451.5" y="-352.6" font-family="Times,serif" font-size="8.00" fill="#000000">ontolexcanonicalForm</text>
</g>
<!-- f0 -->
<g id="node9" class="node">
<title>f0</title>
<path fill="none" stroke="#000000" d="M654,-332C654,-332 521,-332 521,-332 515,-332 509,-326 509,-320 509,-320 509,-306 509,-306 509,-300 515,-294 521,-294 521,-294 654,-294 654,-294 660,-294 666,-300 666,-306 666,-306 666,-320 666,-320 666,-326 660,-332 654,-332"/>
<polygon fill="#add8e6" stroke="transparent" points="517.5,-313 517.5,-328 658.5,-328 658.5,-313 517.5,-313"/>
<text text-anchor="start" x="555.5" y="-319" font-family="Times,serif" font-style="italic" font-size="10.00" fill="#000000">f0:ontolexForm</text>
<text text-anchor="start" x="519.5" y="-303" font-family="Times,serif" font-size="10.00" fill="#000000"> &#160;&#160;&#160;&#160;&#160;&#160;&#160;ontolexwrittenForm &#160;&#160;&#160;&#160;&#160;</text>
<text text-anchor="start" x="637.5" y="-303" font-family="Times,serif" font-size="10.00" fill="#000000">kine</text>
</g>
<!-- e0&#45;&gt;f0 -->
<g id="edge6" class="edge">
<title>e0&#45;&gt;f0</title>
<path fill="none" stroke="#000088" d="M453.7891,-376.9039C465.8605,-371.1878 479.2422,-364.8399 491.5,-359 506.8367,-351.6933 523.5369,-343.703 538.644,-336.462"/>
<polygon fill="#000088" stroke="#000088" points="547.818,-332.0632 540.7466,-340.4445 543.3095,-334.225 538.801,-336.3868 538.801,-336.3868 538.801,-336.3868 543.3095,-334.225 536.8554,-332.3291 547.818,-332.0632 547.818,-332.0632"/>
<text text-anchor="middle" x="541" y="-352.6" font-family="Times,serif" font-size="8.00" fill="#000000">ontolexlexicalForm</text>
</g>
<!-- s0&#45;&gt;q0 -->
<g id="edge8" class="edge">
<title>s0&#45;&gt;q0</title>
<path fill="none" stroke="#000088" d="M214.8437,-293.9406C216.5051,-270.7754 219.4844,-230.5017 222.5,-196 223.4793,-184.795 224.6374,-172.6118 225.7266,-161.53"/>
<polygon fill="#000088" stroke="#000088" points="226.7418,-151.3105 230.2311,-161.7064 226.2475,-156.2861 225.7532,-161.2616 225.7532,-161.2616 225.7532,-161.2616 226.2475,-156.2861 221.2752,-160.8167 226.7418,-151.3105 226.7418,-151.3105"/>
<text text-anchor="middle" x="235" y="-220.6" font-family="Times,serif" font-size="8.00" fill="#000000">citation</text>
</g>
<!-- a0 -->
<g id="node7" class="node">
<title>a0</title>
<path fill="none" stroke="#000000" d="M354,-249C354,-249 269,-249 269,-249 263,-249 257,-243 257,-237 257,-237 257,-208 257,-208 257,-202 263,-196 269,-196 269,-196 354,-196 354,-196 360,-196 366,-202 366,-208 366,-208 366,-237 366,-237 366,-243 360,-249 354,-249"/>
<polygon fill="#add8e6" stroke="transparent" points="265.5,-229.5 265.5,-244.5 358.5,-244.5 358.5,-229.5 265.5,-229.5"/>
<text text-anchor="start" x="282.5" y="-235.5" font-family="Times,serif" font-style="italic" font-size="10.00" fill="#000000">a0:Attestation</text>
<text text-anchor="start" x="267.5" y="-219.5" font-family="Times,serif" font-size="10.00" fill="#000000"> &#160;&#160;&#160;&#160;&#160;&#160;&#160;beginIndex &#160;&#160;&#160;&#160;&#160;</text>
<text text-anchor="start" x="350.5" y="-219.5" font-family="Times,serif" font-size="10.00" fill="#000000">5</text>
<text text-anchor="start" x="272" y="-204.5" font-family="Times,serif" font-size="10.00" fill="#000000"> &#160;&#160;&#160;&#160;&#160;&#160;&#160;endIndex &#160;&#160;&#160;&#160;&#160;</text>
<text text-anchor="start" x="350.5" y="-204.5" font-family="Times,serif" font-size="10.00" fill="#000000">8</text>
</g>
<!-- s0&#45;&gt;a0 -->
<g id="edge7" class="edge">
<title>s0&#45;&gt;a0</title>
<path fill="none" stroke="#000088" d="M234.2833,-293.8073C246.1349,-282.8626 261.3274,-268.8329 275.0963,-256.1177"/>
<polygon fill="#000088" stroke="#000088" points="282.569,-249.2169 278.2753,-259.3073 278.8957,-252.6091 275.2223,-256.0013 275.2223,-256.0013 275.2223,-256.0013 278.8957,-252.6091 272.1694,-252.6953 282.569,-249.2169 282.569,-249.2169"/>
<text text-anchor="middle" x="279.5" y="-269.6" font-family="Times,serif" font-size="8.00" fill="#000000">attestation</text>
</g>
<!-- a0&#45;&gt;q0 -->
<g id="edge9" class="edge">
<title>a0&#45;&gt;q0</title>
<path fill="none" stroke="#000088" d="M289.3096,-195.9798C279.7382,-184.5408 268.4207,-171.015 258.2203,-158.8243"/>
<polygon fill="#000088" stroke="#000088" points="251.7081,-151.0414 261.5766,-155.823 254.9167,-154.8761 258.1254,-158.7108 258.1254,-158.7108 258.1254,-158.7108 254.9167,-154.8761 254.6742,-161.5986 251.7081,-151.0414 251.7081,-151.0414"/>
<text text-anchor="middle" x="280" y="-171.6" font-family="Times,serif" font-size="8.00" fill="#000000">text</text>
</g>
<!-- f0&#45;&gt;a0 -->
<g id="edge10" class="edge">
<title>f0&#45;&gt;a0</title>
<path fill="none" stroke="#000088" d="M529.3047,-293.9179C484.4184,-279.1997 422.3697,-258.854 375.9778,-243.6422"/>
<polygon fill="#000088" stroke="#000088" points="366.3277,-240.4779 377.2321,-239.3178 371.0789,-242.0359 375.83,-243.5938 375.83,-243.5938 375.83,-243.5938 371.0789,-242.0359 374.4278,-247.8698 366.3277,-240.4779 366.3277,-240.4779"/>
<text text-anchor="middle" x="490.5" y="-269.6" font-family="Times,serif" font-size="8.00" fill="#000000">attestation</text>
</g>
</g>
</svg>
