<svg width="1339pt" height="490pt"
 viewBox="0.00 0.00 1338.50 490.00" xmlns="http://www.w3.org/2000/svg" xmlns:xlink="http://www.w3.org/1999/xlink">
<g id="graph0" class="graph" transform="scale(1 1) rotate(0) translate(4 486)">
<title>G</title>
<polygon fill="#ffffff" stroke="transparent" points="-4,4 -4,-486 1334.5,-486 1334.5,4 -4,4"/>
<!-- celexwform147510 -->
<g id="node1" class="node">
<title>celexwform147510</title>
<path fill="none" stroke="#000000" d="M366,-399C366,-399 196,-399 196,-399 190,-399 184,-393 184,-387 184,-387 184,-343 184,-343 184,-337 190,-331 196,-331 196,-331 366,-331 366,-331 372,-331 378,-337 378,-343 378,-343 378,-387 378,-387 378,-393 372,-399 366,-399"/>
<polygon fill="#add8e6" stroke="transparent" points="192,-380 192,-395 370,-395 370,-380 192,-380"/>
<text text-anchor="start" x="208" y="-386" font-family="Times,serif" font-style="italic" font-size="10.00" fill="#000000">celex_wform_147510:ontolexForm</text>
<text text-anchor="start" x="197.5" y="-370" font-family="Times,serif" font-size="10.00" fill="#000000"> &#160;&#160;&#160;&#160;&#160;&#160;&#160;ontolexwrittenRep &#160;&#160;&#160;&#160;&#160;</text>
<text text-anchor="start" x="317" y="-370" font-family="Times,serif" font-size="10.00" fill="#000000">kattekwaad</text>
<text text-anchor="start" x="214" y="-355" font-family="Times,serif" font-size="10.00" fill="#000000"> &#160;&#160;&#160;&#160;&#160;&#160;&#160;syllabified &#160;&#160;&#160;&#160;&#160;</text>
<text text-anchor="start" x="314" y="-355" font-family="Times,serif" font-size="10.00" fill="#000000">kat&#45;te&#45;kwaad</text>
<text text-anchor="start" x="194" y="-340" font-family="Times,serif" font-size="10.00" fill="#000000"> &#160;&#160;&#160;&#160;&#160;&#160;&#160;ontolexphoneticRep &#160;&#160;&#160;&#160;&#160;</text>
<text text-anchor="start" x="315" y="-340" font-family="Times,serif" font-size="10.00" fill="#000000">ˌkɑ&#45;tə&#45;kwaːt</text>
</g>
<!-- lexinfosingular -->
<g id="node2" class="node">
<title>lexinfosingular</title>
<path fill="none" stroke="#000000" d="M98,-36C98,-36 12,-36 12,-36 6,-36 0,-30 0,-24 0,-24 0,-12 0,-12 0,-6 6,0 12,0 12,0 98,0 98,0 104,0 110,-6 110,-12 110,-12 110,-24 110,-24 110,-30 104,-36 98,-36"/>
<polygon fill="#add8e6" stroke="transparent" points="8,-10 8,-25 102,-25 102,-10 8,-10"/>
<text text-anchor="start" x="10.5" y="-16" font-family="Times,serif" font-style="italic" font-size="10.00" fill="#000000">lexinfosingular:Class</text>
</g>
<!-- celexwform147510&#45;&gt;lexinfosingular -->
<g id="edge1" class="edge">
<title>celexwform147510&#45;&gt;lexinfosingular</title>
<path fill="none" stroke="#000088" d="M205.087,-330.9867C154.8465,-304.0477 92.7524,-261.2339 62,-203 35.5222,-152.8606 42.2128,-83.9717 48.9319,-45.9849"/>
<polygon fill="#000088" stroke="#000088" points="50.8002,-36.1314 53.3584,-46.7947 49.8687,-41.0439 48.9372,-45.9563 48.9372,-45.9563 48.9372,-45.9563 49.8687,-41.0439 44.516,-45.118 50.8002,-36.1314 50.8002,-36.1314"/>
<text text-anchor="middle" x="85.5" y="-183.1" font-family="Times,serif" font-size="8.00" fill="#000000">lexinfonumber</text>
</g>
<!-- celexcomp92555 -->
<g id="node3" class="node">
<title>celexcomp92555</title>
<path fill="none" stroke="#000000" d="M716,-383C716,-383 588,-383 588,-383 582,-383 576,-377 576,-371 576,-371 576,-359 576,-359 576,-353 582,-347 588,-347 588,-347 716,-347 716,-347 722,-347 728,-353 728,-359 728,-359 728,-371 728,-371 728,-377 722,-383 716,-383"/>
<polygon fill="#add8e6" stroke="transparent" points="584,-357 584,-372 720,-372 720,-357 584,-357"/>
<text text-anchor="start" x="586" y="-363" font-family="Times,serif" font-style="italic" font-size="10.00" fill="#000000">celex_comp_92555:Component</text>
</g>
<!-- celexlemma54132 -->
<g id="node4" class="node">
<title>celexlemma54132</title>
<path fill="none" stroke="#000000" d="M669,-259C669,-259 501,-259 501,-259 495,-259 489,-253 489,-247 489,-247 489,-233 489,-233 489,-227 495,-221 501,-221 501,-221 669,-221 669,-221 675,-221 681,-227 681,-233 681,-233 681,-247 681,-247 681,-253 675,-259 669,-259"/>
<polygon fill="#add8e6" stroke="transparent" points="497,-240 497,-255 673,-255 673,-240 497,-240"/>
<text text-anchor="start" x="499" y="-246" font-family="Times,serif" font-style="italic" font-size="10.00" fill="#000000">celex_lemma_54132:ontolexLexicalEntry</text>
<text text-anchor="start" x="521" y="-230" font-family="Times,serif" font-size="10.00" fill="#000000"> &#160;&#160;&#160;&#160;&#160;&#160;&#160;label &#160;&#160;&#160;&#160;&#160;</text>
<text text-anchor="start" x="621" y="-230" font-family="Times,serif" font-size="10.00" fill="#000000">kwaad</text>
</g>
<!-- celexcomp92555&#45;&gt;celexlemma54132 -->
<g id="edge2" class="edge">
<title>celexcomp92555&#45;&gt;celexlemma54132</title>
<path fill="none" stroke="#000088" d="M642.2576,-346.8239C631.1717,-326.1411 612.9342,-292.1161 600.024,-268.0298"/>
<polygon fill="#000088" stroke="#000088" points="595.1935,-259.0177 603.8839,-265.7056 597.5556,-263.4246 599.9177,-267.8315 599.9177,-267.8315 599.9177,-267.8315 597.5556,-263.4246 595.9515,-269.9574 595.1935,-259.0177 595.1935,-259.0177"/>
<text text-anchor="middle" x="646" y="-293.1" font-family="Times,serif" font-size="8.00" fill="#000000">correspondsTo</text>
</g>
<!-- celexwform165612 -->
<g id="node5" class="node">
<title>celexwform165612</title>
<path fill="none" stroke="#000000" d="M354,-149C354,-149 210,-149 210,-149 204,-149 198,-143 198,-137 198,-137 198,-93 198,-93 198,-87 204,-81 210,-81 210,-81 354,-81 354,-81 360,-81 366,-87 366,-93 366,-93 366,-137 366,-137 366,-143 360,-149 354,-149"/>
<polygon fill="#add8e6" stroke="transparent" points="206,-130 206,-145 358,-145 358,-130 206,-130"/>
<text text-anchor="start" x="209" y="-136" font-family="Times,serif" font-style="italic" font-size="10.00" fill="#000000">celex_wform_165612:ontolexForm</text>
<text text-anchor="start" x="211.5" y="-120" font-family="Times,serif" font-size="10.00" fill="#000000"> &#160;&#160;&#160;&#160;&#160;&#160;&#160;ontolexwrittenRep &#160;&#160;&#160;&#160;&#160;</text>
<text text-anchor="start" x="328" y="-120" font-family="Times,serif" font-size="10.00" fill="#000000">kwaad</text>
<text text-anchor="start" x="228" y="-105" font-family="Times,serif" font-size="10.00" fill="#000000"> &#160;&#160;&#160;&#160;&#160;&#160;&#160;syllabified &#160;&#160;&#160;&#160;&#160;</text>
<text text-anchor="start" x="328" y="-105" font-family="Times,serif" font-size="10.00" fill="#000000">kwaad</text>
<text text-anchor="start" x="208" y="-90" font-family="Times,serif" font-size="10.00" fill="#000000"> &#160;&#160;&#160;&#160;&#160;&#160;&#160;ontolexphoneticRep &#160;&#160;&#160;&#160;&#160;</text>
<text text-anchor="start" x="328.5" y="-90" font-family="Times,serif" font-size="10.00" fill="#000000">ˌkwaːt</text>
</g>
<!-- celexlemma54132&#45;&gt;celexwform165612 -->
<g id="edge3" class="edge">
<title>celexlemma54132&#45;&gt;celexwform165612</title>
<path fill="none" stroke="#000088" d="M488.9777,-223.9128C481.8862,-222.8763 474.8359,-221.8922 468,-221 447.85,-218.3701 299.9821,-217.7458 286,-203 275.1235,-191.5294 272.3777,-174.9762 272.9701,-159.3144"/>
<polygon fill="#000088" stroke="#000088" points="273.7895,-149.2135 277.4661,-159.5447 273.3852,-154.1971 272.9808,-159.1808 272.9808,-159.1808 272.9808,-159.1808 273.3852,-154.1971 268.4956,-158.8169 273.7895,-149.2135 273.7895,-149.2135"/>
<text text-anchor="middle" x="322" y="-183.1" font-family="Times,serif" font-size="8.00" fill="#000000">ontolexcanonicalForm</text>
</g>
<!-- celexlemma54132&#45;&gt;celexwform165612 -->
<g id="edge6" class="edge">
<title>celexlemma54132&#45;&gt;celexwform165612</title>
<path fill="none" stroke="#000088" d="M488.9347,-223.9358C446.0082,-216.2867 403.0042,-207.7839 394,-203 374.0178,-192.3835 375.412,-181.4507 358,-167 353.2367,-163.0468 348.1757,-159.0999 343.0161,-155.2478"/>
<polygon fill="#000088" stroke="#000088" points="334.8555,-149.2853 345.5847,-151.5514 338.8927,-152.2351 342.9299,-155.1849 342.9299,-155.1849 342.9299,-155.1849 338.8927,-152.2351 340.2751,-158.8183 334.8555,-149.2853 334.8555,-149.2853"/>
<text text-anchor="middle" x="425.5" y="-183.1" font-family="Times,serif" font-size="8.00" fill="#000000">ontolexlexicalForm</text>
</g>
<!-- node1cj697i7cx8 -->
<g id="node6" class="node">
<title>node1cj697i7cx8</title>
<path fill="none" stroke="#000000" d="M817,-133C817,-133 725,-133 725,-133 719,-133 713,-127 713,-121 713,-121 713,-109 713,-109 713,-103 719,-97 725,-97 725,-97 817,-97 817,-97 823,-97 829,-103 829,-109 829,-109 829,-121 829,-121 829,-127 823,-133 817,-133"/>
<polygon fill="#add8e6" stroke="transparent" points="721,-107 721,-122 821,-122 821,-107 721,-107"/>
<text text-anchor="start" x="723" y="-113" font-family="Times,serif" font-style="italic" font-size="10.00" fill="#000000">node1cj697i7cx8:UNK</text>
</g>
<!-- celexlemma54132&#45;&gt;node1cj697i7cx8 -->
<g id="edge4" class="edge">
<title>celexlemma54132&#45;&gt;node1cj697i7cx8</title>
<path fill="none" stroke="#000088" d="M631.7662,-220.8469C642.9532,-215.5979 654.6478,-209.5342 665,-203 694.2336,-184.548 724.246,-158.8805 744.8392,-140.027"/>
<polygon fill="#000088" stroke="#000088" points="752.2493,-133.1641 747.9703,-143.2606 748.5809,-136.5616 744.9125,-139.9591 744.9125,-139.9591 744.9125,-139.9591 748.5809,-136.5616 741.8548,-136.6575 752.2493,-133.1641 752.2493,-133.1641"/>
<text text-anchor="middle" x="765" y="-183.1" font-family="Times,serif" font-size="8.00" fill="#000000">lexinfoMorphosyntacticProperty</text>
</g>
<!-- node1cj697i7cx9 -->
<g id="node8" class="node">
<title>node1cj697i7cx9</title>
<path fill="none" stroke="#000000" d="M488,-133C488,-133 396,-133 396,-133 390,-133 384,-127 384,-121 384,-121 384,-109 384,-109 384,-103 390,-97 396,-97 396,-97 488,-97 488,-97 494,-97 500,-103 500,-109 500,-109 500,-121 500,-121 500,-127 494,-133 488,-133"/>
<polygon fill="#add8e6" stroke="transparent" points="392,-107 392,-122 492,-122 492,-107 392,-107"/>
<text text-anchor="start" x="394" y="-113" font-family="Times,serif" font-style="italic" font-size="10.00" fill="#000000">node1cj697i7cx9:UNK</text>
</g>
<!-- celexlemma54132&#45;&gt;node1cj697i7cx9 -->
<g id="edge5" class="edge">
<title>celexlemma54132&#45;&gt;node1cj697i7cx9</title>
<path fill="none" stroke="#000088" d="M512.6191,-220.8846C502.6135,-216.1411 493.031,-210.2645 485,-203 467.3626,-187.0459 456.1623,-162.2576 449.6299,-143.0501"/>
<polygon fill="#000088" stroke="#000088" points="446.5499,-133.3185 453.8577,-141.4946 448.0587,-138.0855 449.5674,-142.8524 449.5674,-142.8524 449.5674,-142.8524 448.0587,-138.0855 445.2772,-144.2103 446.5499,-133.3185 446.5499,-133.3185"/>
<text text-anchor="middle" x="537" y="-183.1" font-family="Times,serif" font-size="8.00" fill="#000000">lexinfoMorphosyntacticProperty</text>
</g>
<!-- celexwform165714 -->
<g id="node10" class="node">
<title>celexwform165714</title>
<path fill="none" stroke="#000000" d="M683.5,-149C683.5,-149 530.5,-149 530.5,-149 524.5,-149 518.5,-143 518.5,-137 518.5,-137 518.5,-93 518.5,-93 518.5,-87 524.5,-81 530.5,-81 530.5,-81 683.5,-81 683.5,-81 689.5,-81 695.5,-87 695.5,-93 695.5,-93 695.5,-137 695.5,-137 695.5,-143 689.5,-149 683.5,-149"/>
<polygon fill="#add8e6" stroke="transparent" points="527,-130 527,-145 688,-145 688,-130 527,-130"/>
<text text-anchor="start" x="534.5" y="-136" font-family="Times,serif" font-style="italic" font-size="10.00" fill="#000000">celex_wform_165714:ontolexForm</text>
<text text-anchor="start" x="532.5" y="-120" font-family="Times,serif" font-size="10.00" fill="#000000"> &#160;&#160;&#160;&#160;&#160;&#160;&#160;ontolexwrittenRep &#160;&#160;&#160;&#160;&#160;</text>
<text text-anchor="start" x="651" y="-120" font-family="Times,serif" font-size="10.00" fill="#000000">kwaden</text>
<text text-anchor="start" x="549" y="-105" font-family="Times,serif" font-size="10.00" fill="#000000"> &#160;&#160;&#160;&#160;&#160;&#160;&#160;syllabified &#160;&#160;&#160;&#160;&#160;</text>
<text text-anchor="start" x="649.5" y="-105" font-family="Times,serif" font-size="10.00" fill="#000000">kwa&#45;den</text>
<text text-anchor="start" x="529" y="-90" font-family="Times,serif" font-size="10.00" fill="#000000"> &#160;&#160;&#160;&#160;&#160;&#160;&#160;ontolexphoneticRep &#160;&#160;&#160;&#160;&#160;</text>
<text text-anchor="start" x="649" y="-90" font-family="Times,serif" font-size="10.00" fill="#000000">ˌkwaː&#45;də</text>
</g>
<!-- celexlemma54132&#45;&gt;celexwform165714 -->
<g id="edge7" class="edge">
<title>celexlemma54132&#45;&gt;celexwform165714</title>
<path fill="none" stroke="#000088" d="M588.3893,-220.7427C591.2688,-204.3816 595.5132,-180.2659 599.2217,-159.1947"/>
<polygon fill="#000088" stroke="#000088" points="600.9909,-149.1426 603.6893,-159.7713 600.1242,-154.0669 599.2575,-158.9912 599.2575,-158.9912 599.2575,-158.9912 600.1242,-154.0669 594.8256,-158.2112 600.9909,-149.1426 600.9909,-149.1426"/>
<text text-anchor="middle" x="629.5" y="-183.1" font-family="Times,serif" font-size="8.00" fill="#000000">ontolexlexicalForm</text>
</g>
<!-- celexwform165612&#45;&gt;lexinfosingular -->
<g id="edge8" class="edge">
<title>celexwform165612&#45;&gt;lexinfosingular</title>
<path fill="none" stroke="#000088" d="M202.2875,-80.9378C170.4948,-67.3524 134.8104,-52.104 106.529,-40.019"/>
<polygon fill="#000088" stroke="#000088" points="97.2381,-36.0489 108.202,-35.8403 101.8359,-38.0136 106.4337,-39.9783 106.4337,-39.9783 106.4337,-39.9783 101.8359,-38.0136 104.6655,-44.1164 97.2381,-36.0489 97.2381,-36.0489"/>
<text text-anchor="middle" x="178.5" y="-56.6" font-family="Times,serif" font-size="8.00" fill="#000000">lexinfonumber</text>
</g>
<!-- lexinfonoun -->
<g id="node7" class="node">
<title>lexinfonoun</title>
<path fill="none" stroke="#000000" d="M851,-36C851,-36 779,-36 779,-36 773,-36 767,-30 767,-24 767,-24 767,-12 767,-12 767,-6 773,0 779,0 779,0 851,0 851,0 857,0 863,-6 863,-12 863,-12 863,-24 863,-24 863,-30 857,-36 851,-36"/>
<polygon fill="#add8e6" stroke="transparent" points="775,-10 775,-25 855,-25 855,-10 775,-10"/>
<text text-anchor="start" x="777" y="-16" font-family="Times,serif" font-style="italic" font-size="10.00" fill="#000000">lexinfonoun:Class</text>
</g>
<!-- node1cj697i7cx8&#45;&gt;lexinfonoun -->
<g id="edge9" class="edge">
<title>node1cj697i7cx8&#45;&gt;lexinfonoun</title>
<path fill="none" stroke="#000088" d="M768.7075,-96.7389C767.9345,-84.1155 768.5604,-67.2724 775,-54 776.7843,-50.3225 779.1269,-46.8506 781.785,-43.6213"/>
<polygon fill="#000088" stroke="#000088" points="788.9037,-36.1152 785.2875,-46.4677 785.463,-39.7432 782.0223,-43.3711 782.0223,-43.3711 782.0223,-43.3711 785.463,-39.7432 778.7572,-40.2745 788.9037,-36.1152 788.9037,-36.1152"/>
<text text-anchor="middle" x="809" y="-56.6" font-family="Times,serif" font-size="8.00" fill="#000000">lexinfopartOfSpeech</text>
</g>
<!-- lexinfoneuter -->
<g id="node9" class="node">
<title>lexinfoneuter</title>
<path fill="none" stroke="#000000" d="M284,-36C284,-36 206,-36 206,-36 200,-36 194,-30 194,-24 194,-24 194,-12 194,-12 194,-6 200,0 206,0 206,0 284,0 284,0 290,0 296,-6 296,-12 296,-12 296,-24 296,-24 296,-30 290,-36 284,-36"/>
<polygon fill="#add8e6" stroke="transparent" points="202,-10 202,-25 288,-25 288,-10 202,-10"/>
<text text-anchor="start" x="204.5" y="-16" font-family="Times,serif" font-style="italic" font-size="10.00" fill="#000000">lexinfoneuter:Class</text>
</g>
<!-- node1cj697i7cx9&#45;&gt;lexinfoneuter -->
<g id="edge10" class="edge">
<title>node1cj697i7cx9&#45;&gt;lexinfoneuter</title>
<path fill="none" stroke="#000088" d="M406.594,-96.8803C396.4138,-91.7118 385.2833,-86.1004 375,-81 347.5063,-67.3635 316.5938,-52.3691 291.8128,-40.4306"/>
<polygon fill="#000088" stroke="#000088" points="282.6353,-36.0139 293.5976,-36.2956 287.1407,-38.1822 291.6461,-40.3505 291.6461,-40.3505 291.6461,-40.3505 287.1407,-38.1822 289.6947,-44.4053 282.6353,-36.0139 282.6353,-36.0139"/>
<text text-anchor="middle" x="359.5" y="-56.6" font-family="Times,serif" font-size="8.00" fill="#000000">lexinfoGender</text>
</g>
<!-- lexinfoplural -->
<g id="node11" class="node">
<title>lexinfoplural</title>
<path fill="none" stroke="#000000" d="M645,-36C645,-36 569,-36 569,-36 563,-36 557,-30 557,-24 557,-24 557,-12 557,-12 557,-6 563,0 569,0 569,0 645,0 645,0 651,0 657,-6 657,-12 657,-12 657,-24 657,-24 657,-30 651,-36 645,-36"/>
<polygon fill="#add8e6" stroke="transparent" points="565,-10 565,-25 649,-25 649,-10 565,-10"/>
<text text-anchor="start" x="567" y="-16" font-family="Times,serif" font-style="italic" font-size="10.00" fill="#000000">lexinfoplural:Class</text>
</g>
<!-- celexwform165714&#45;&gt;lexinfoplural -->
<g id="edge11" class="edge">
<title>celexwform165714&#45;&gt;lexinfoplural</title>
<path fill="none" stroke="#000088" d="M607,-80.8014C607,-69.5107 607,-57.0843 607,-46.2861"/>
<polygon fill="#000088" stroke="#000088" points="607,-36.1329 611.5001,-46.1329 607,-41.1329 607.0001,-46.1329 607.0001,-46.1329 607.0001,-46.1329 607,-41.1329 602.5001,-46.133 607,-36.1329 607,-36.1329"/>
<text text-anchor="middle" x="630.5" y="-56.6" font-family="Times,serif" font-size="8.00" fill="#000000">lexinfonumber</text>
</g>
<!-- celexlemma47843 -->
<g id="node12" class="node">
<title>celexlemma47843</title>
<path fill="none" stroke="#000000" d="M817,-482C817,-482 649,-482 649,-482 643,-482 637,-476 637,-470 637,-470 637,-456 637,-456 637,-450 643,-444 649,-444 649,-444 817,-444 817,-444 823,-444 829,-450 829,-456 829,-456 829,-470 829,-470 829,-476 823,-482 817,-482"/>
<polygon fill="#add8e6" stroke="transparent" points="645,-463 645,-478 821,-478 821,-463 645,-463"/>
<text text-anchor="start" x="647" y="-469" font-family="Times,serif" font-style="italic" font-size="10.00" fill="#000000">celex_lemma_47843:ontolexLexicalEntry</text>
<text text-anchor="start" x="664" y="-453" font-family="Times,serif" font-size="10.00" fill="#000000"> &#160;&#160;&#160;&#160;&#160;&#160;&#160;label &#160;&#160;&#160;&#160;&#160;</text>
<text text-anchor="start" x="754" y="-453" font-family="Times,serif" font-size="10.00" fill="#000000">kattekwaad</text>
</g>
<!-- celexlemma47843&#45;&gt;celexwform147510 -->
<g id="edge12" class="edge">
<title>celexlemma47843&#45;&gt;celexwform147510</title>
<path fill="none" stroke="#000088" d="M636.9193,-461.8423C511.681,-459.3248 305.7303,-451.337 282,-426 277.7327,-421.4438 275.3773,-415.7523 274.2796,-409.6897"/>
<polygon fill="#000088" stroke="#000088" points="273.5042,-399.2715 278.7341,-408.9098 273.8754,-404.2577 274.2465,-409.2439 274.2465,-409.2439 274.2465,-409.2439 273.8754,-404.2577 269.7589,-409.5779 273.5042,-399.2715 273.5042,-399.2715"/>
<text text-anchor="middle" x="318" y="-419.6" font-family="Times,serif" font-size="8.00" fill="#000000">ontolexcanonicalForm</text>
</g>
<!-- celexlemma47843&#45;&gt;celexwform147510 -->
<g id="edge15" class="edge">
<title>celexlemma47843&#45;&gt;celexwform147510</title>
<path fill="none" stroke="#000088" d="M636.8154,-457.9762C548.1048,-452.4437 423.3636,-442.1302 377,-426 362.16,-420.8371 347.2706,-412.9904 333.7962,-404.6272"/>
<polygon fill="#000088" stroke="#000088" points="325.1607,-399.0797 336.0064,-400.6985 329.3675,-401.7822 333.5742,-404.4846 333.5742,-404.4846 333.5742,-404.4846 329.3675,-401.7822 331.142,-408.2707 325.1607,-399.0797 325.1607,-399.0797"/>
<text text-anchor="middle" x="408.5" y="-419.6" font-family="Times,serif" font-size="8.00" fill="#000000">ontolexlexicalForm</text>
</g>
<!-- celexlemma47843&#45;&gt;celexcomp92555 -->
<g id="edge20" class="edge">
<title>celexlemma47843&#45;&gt;celexcomp92555</title>
<path fill="none" stroke="#000088" d="M680.7231,-443.8954C673.1314,-439.0962 666.1538,-433.1994 661,-426 654.2947,-416.6332 651.6362,-404.3627 650.8073,-393.2848"/>
<polygon fill="#000088" stroke="#000088" points="650.5007,-383.1628 655.3015,-393.0219 650.6521,-388.1605 650.8036,-393.1582 650.8036,-393.1582 650.8036,-393.1582 650.6521,-388.1605 646.3056,-393.2945 650.5007,-383.1628 650.5007,-383.1628"/>
<text text-anchor="middle" x="678.5" y="-419.6" font-family="Times,serif" font-size="8.00" fill="#000000">constituent</text>
</g>
<!-- celexlemma47843&#45;&gt;celexcomp92555 -->
<g id="edge21" class="edge">
<title>celexlemma47843&#45;&gt;celexcomp92555</title>
<path fill="none" stroke="#000088" d="M717.6242,-443.6659C711.015,-435.4121 703.1747,-425.6962 696,-417 688.9279,-408.4281 681.1192,-399.1428 674.0675,-390.8227"/>
<polygon fill="#000088" stroke="#000088" points="667.5874,-383.1963 677.4918,-387.903 670.825,-387.0066 674.0626,-390.8169 674.0626,-390.8169 674.0626,-390.8169 670.825,-387.0066 670.6333,-393.7307 667.5874,-383.1963 667.5874,-383.1963"/>
<text text-anchor="middle" x="707" y="-419.6" font-family="Times,serif" font-size="8.00" fill="#000000">_3</text>
</g>
<!-- node1cj697i7cx5 -->
<g id="node13" class="node">
<title>node1cj697i7cx5</title>
<path fill="none" stroke="#000000" d="M854,-313C854,-313 762,-313 762,-313 756,-313 750,-307 750,-301 750,-301 750,-289 750,-289 750,-283 756,-277 762,-277 762,-277 854,-277 854,-277 860,-277 866,-283 866,-289 866,-289 866,-301 866,-301 866,-307 860,-313 854,-313"/>
<polygon fill="#add8e6" stroke="transparent" points="758,-287 758,-302 858,-302 858,-287 758,-287"/>
<text text-anchor="start" x="760" y="-293" font-family="Times,serif" font-style="italic" font-size="10.00" fill="#000000">node1cj697i7cx5:UNK</text>
</g>
<!-- celexlemma47843&#45;&gt;node1cj697i7cx5 -->
<g id="edge13" class="edge">
<title>celexlemma47843&#45;&gt;node1cj697i7cx5</title>
<path fill="none" stroke="#000088" d="M741.3112,-443.7271C744.8837,-435.4837 749.1217,-425.7589 753,-417 767.4491,-384.3671 784.3607,-346.9707 795.5772,-322.2766"/>
<polygon fill="#000088" stroke="#000088" points="799.7238,-313.155 799.682,-324.1209 797.6546,-317.7068 795.5854,-322.2585 795.5854,-322.2585 795.5854,-322.2585 797.6546,-317.7068 791.4888,-320.3962 799.7238,-313.155 799.7238,-313.155"/>
<text text-anchor="middle" x="805" y="-419.6" font-family="Times,serif" font-size="8.00" fill="#000000">lexinfoMorphosyntacticProperty</text>
</g>
<!-- node1cj697i7cx6 -->
<g id="node14" class="node">
<title>node1cj697i7cx6</title>
<path fill="none" stroke="#000000" d="M222,-203C222,-203 130,-203 130,-203 124,-203 118,-197 118,-191 118,-191 118,-179 118,-179 118,-173 124,-167 130,-167 130,-167 222,-167 222,-167 228,-167 234,-173 234,-179 234,-179 234,-191 234,-191 234,-197 228,-203 222,-203"/>
<polygon fill="#add8e6" stroke="transparent" points="126,-177 126,-192 226,-192 226,-177 126,-177"/>
<text text-anchor="start" x="128" y="-183" font-family="Times,serif" font-style="italic" font-size="10.00" fill="#000000">node1cj697i7cx6:UNK</text>
</g>
<!-- celexlemma47843&#45;&gt;node1cj697i7cx6 -->
<g id="edge14" class="edge">
<title>celexlemma47843&#45;&gt;node1cj697i7cx6</title>
<path fill="none" stroke="#000088" d="M636.7768,-452.0425C583.3134,-443.1068 516.9095,-427.1564 463,-399 422.825,-378.017 422.5939,-359.0606 387,-331 328.2532,-284.6868 255.7847,-236.3095 212.8759,-208.5051"/>
<polygon fill="#000088" stroke="#000088" points="204.4426,-203.0588 215.2844,-204.7037 208.6429,-205.7714 212.8431,-208.484 212.8431,-208.484 212.8431,-208.484 208.6429,-205.7714 210.4018,-212.2642 204.4426,-203.0588 204.4426,-203.0588"/>
<text text-anchor="middle" x="515" y="-363.1" font-family="Times,serif" font-size="8.00" fill="#000000">lexinfoMorphosyntacticProperty</text>
</g>
<!-- celexcomp92553 -->
<g id="node15" class="node">
<title>celexcomp92553</title>
<path fill="none" stroke="#000000" d="M998,-383C998,-383 870,-383 870,-383 864,-383 858,-377 858,-371 858,-371 858,-359 858,-359 858,-353 864,-347 870,-347 870,-347 998,-347 998,-347 1004,-347 1010,-353 1010,-359 1010,-359 1010,-371 1010,-371 1010,-377 1004,-383 998,-383"/>
<polygon fill="#add8e6" stroke="transparent" points="866,-357 866,-372 1002,-372 1002,-357 866,-357"/>
<text text-anchor="start" x="868" y="-363" font-family="Times,serif" font-style="italic" font-size="10.00" fill="#000000">celex_comp_92553:Component</text>
</g>
<!-- celexlemma47843&#45;&gt;celexcomp92553 -->
<g id="edge16" class="edge">
<title>celexlemma47843&#45;&gt;celexcomp92553</title>
<path fill="none" stroke="#000088" d="M817.5878,-443.9553C832.4832,-439.0994 847.5203,-433.1681 861,-426 878.6753,-416.6008 895.9782,-402.4271 909.2988,-390.1073"/>
<polygon fill="#000088" stroke="#000088" points="916.6544,-383.1179 912.5049,-393.2684 913.0298,-386.5621 909.4052,-390.0063 909.4052,-390.0063 909.4052,-390.0063 913.0298,-386.5621 906.3054,-386.7441 916.6544,-383.1179 916.6544,-383.1179"/>
<text text-anchor="middle" x="891.5" y="-419.6" font-family="Times,serif" font-size="8.00" fill="#000000">constituent</text>
</g>
<!-- celexlemma47843&#45;&gt;celexcomp92553 -->
<g id="edge17" class="edge">
<title>celexlemma47843&#45;&gt;celexcomp92553</title>
<path fill="none" stroke="#000088" d="M829.4854,-451.8455C865.051,-445.9664 899.8795,-437.5305 913,-426 922.5003,-417.651 927.7054,-404.7987 930.556,-393.0405"/>
<polygon fill="#000088" stroke="#000088" points="932.5038,-383.1297 934.9908,-393.8099 931.5395,-388.0359 930.5753,-392.942 930.5753,-392.942 930.5753,-392.942 931.5395,-388.0359 926.1597,-392.0742 932.5038,-383.1297 932.5038,-383.1297"/>
<text text-anchor="middle" x="923" y="-419.6" font-family="Times,serif" font-size="8.00" fill="#000000">_1</text>
</g>
<!-- celexcomp92554 -->
<g id="node18" class="node">
<title>celexcomp92554</title>
<path fill="none" stroke="#000000" d="M1168,-383C1168,-383 1040,-383 1040,-383 1034,-383 1028,-377 1028,-371 1028,-371 1028,-359 1028,-359 1028,-353 1034,-347 1040,-347 1040,-347 1168,-347 1168,-347 1174,-347 1180,-353 1180,-359 1180,-359 1180,-371 1180,-371 1180,-377 1174,-383 1168,-383"/>
<polygon fill="#add8e6" stroke="transparent" points="1036,-357 1036,-372 1172,-372 1172,-357 1036,-357"/>
<text text-anchor="start" x="1038" y="-363" font-family="Times,serif" font-style="italic" font-size="10.00" fill="#000000">celex_comp_92554:Component</text>
</g>
<!-- celexlemma47843&#45;&gt;celexcomp92554 -->
<g id="edge18" class="edge">
<title>celexlemma47843&#45;&gt;celexcomp92554</title>
<path fill="none" stroke="#000088" d="M829.1425,-447.2884C861.6569,-441.3779 898.0612,-434.1033 931,-426 970.7262,-416.227 980.4191,-412.6086 1019,-399 1029.4429,-395.3165 1040.4974,-391.1196 1051.0572,-386.9617"/>
<polygon fill="#000088" stroke="#000088" points="1060.5841,-383.1699 1052.957,-391.0489 1055.9385,-385.0189 1051.2929,-386.8679 1051.2929,-386.8679 1051.2929,-386.8679 1055.9385,-385.0189 1049.6288,-382.6869 1060.5841,-383.1699 1060.5841,-383.1699"/>
<text text-anchor="middle" x="981.5" y="-419.6" font-family="Times,serif" font-size="8.00" fill="#000000">constituent</text>
</g>
<!-- celexlemma47843&#45;&gt;celexcomp92554 -->
<g id="edge19" class="edge">
<title>celexlemma47843&#45;&gt;celexcomp92554</title>
<path fill="none" stroke="#000088" d="M829.1507,-453.9655C893.3955,-447.1398 971.6626,-437.0767 1003,-426 1027.7879,-417.2384 1053.1071,-401.9299 1072.1946,-388.8412"/>
<polygon fill="#000088" stroke="#000088" points="1080.5017,-383.0151 1074.8984,-392.4413 1076.4081,-385.8861 1072.3145,-388.7571 1072.3145,-388.7571 1072.3145,-388.7571 1076.4081,-385.8861 1069.7306,-385.0729 1080.5017,-383.0151 1080.5017,-383.0151"/>
<text text-anchor="middle" x="1027" y="-419.6" font-family="Times,serif" font-size="8.00" fill="#000000">_2</text>
</g>
<!-- node1cj697i7cx5&#45;&gt;lexinfonoun -->
<g id="edge22" class="edge">
<title>node1cj697i7cx5&#45;&gt;lexinfonoun</title>
<path fill="none" stroke="#000088" d="M812.6482,-276.7065C819.4356,-249.1951 831.9113,-195.4396 838,-149 842.9772,-111.0381 841.8884,-101.2706 843,-63 843.1161,-59.0017 844.2981,-57.7835 843,-54 841.8605,-50.679 840.2757,-47.4283 838.4339,-44.3232"/>
<polygon fill="#000088" stroke="#000088" points="832.7198,-36.0206 842.0962,-41.707 835.5545,-40.1394 838.3892,-44.2582 838.3892,-44.2582 838.3892,-44.2582 835.5545,-40.1394 834.6823,-46.8095 832.7198,-36.0206 832.7198,-36.0206"/>
<text text-anchor="middle" x="869" y="-183.1" font-family="Times,serif" font-size="8.00" fill="#000000">lexinfopartOfSpeech</text>
</g>
<!-- node1cj697i7cx6&#45;&gt;lexinfoneuter -->
<g id="edge23" class="edge">
<title>node1cj697i7cx6&#45;&gt;lexinfoneuter</title>
<path fill="none" stroke="#000088" d="M153.84,-166.7933C149.0288,-161.5984 144.6044,-155.5507 142,-149 130.8344,-120.916 127.2218,-107.3626 142,-81 151.7323,-63.6388 168.4143,-50.4895 185.5519,-40.816"/>
<polygon fill="#000088" stroke="#000088" points="194.521,-36.0703 187.7866,-44.7247 190.1015,-38.4088 185.682,-40.7472 185.682,-40.7472 185.682,-40.7472 190.1015,-38.4088 183.5774,-36.7697 194.521,-36.0703 194.521,-36.0703"/>
<text text-anchor="middle" x="165.5" y="-113.1" font-family="Times,serif" font-size="8.00" fill="#000000">lexinfoGender</text>
</g>
<!-- lexinfoNoun -->
<g id="node16" class="node">
<title>lexinfoNoun</title>
<path fill="none" stroke="#000000" d="M971,-258C971,-258 897,-258 897,-258 891,-258 885,-252 885,-246 885,-246 885,-234 885,-234 885,-228 891,-222 897,-222 897,-222 971,-222 971,-222 977,-222 983,-228 983,-234 983,-234 983,-246 983,-246 983,-252 977,-258 971,-258"/>
<polygon fill="#add8e6" stroke="transparent" points="893,-232 893,-247 975,-247 975,-232 893,-232"/>
<text text-anchor="start" x="895.5" y="-238" font-family="Times,serif" font-style="italic" font-size="10.00" fill="#000000">lexinfoNoun:Class</text>
</g>
<!-- celexcomp92553&#45;&gt;lexinfoNoun -->
<g id="edge24" class="edge">
<title>celexcomp92553&#45;&gt;lexinfoNoun</title>
<path fill="none" stroke="#000088" d="M934,-346.8239C934,-326.2723 934,-292.5472 934,-268.4893"/>
<polygon fill="#000088" stroke="#000088" points="934,-258.198 938.5001,-268.198 934,-263.198 934.0001,-268.198 934.0001,-268.198 934.0001,-268.198 934,-263.198 929.5001,-268.1981 934,-258.198 934,-258.198"/>
<text text-anchor="middle" x="968" y="-293.1" font-family="Times,serif" font-size="8.00" fill="#000000">lexinfopartOfSpeech</text>
</g>
<!-- node1cj697i7cx7 -->
<g id="node17" class="node">
<title>node1cj697i7cx7</title>
<path fill="none" stroke="#000000" d="M1135,-259C1135,-259 1013,-259 1013,-259 1007,-259 1001,-253 1001,-247 1001,-247 1001,-233 1001,-233 1001,-227 1007,-221 1013,-221 1013,-221 1135,-221 1135,-221 1141,-221 1147,-227 1147,-233 1147,-233 1147,-247 1147,-247 1147,-253 1141,-259 1135,-259"/>
<polygon fill="#add8e6" stroke="transparent" points="1009,-240 1009,-255 1139,-255 1139,-240 1009,-240"/>
<text text-anchor="start" x="1026" y="-246" font-family="Times,serif" font-style="italic" font-size="10.00" fill="#000000">node1cj697i7cx7:UNK</text>
<text text-anchor="start" x="1011" y="-230" font-family="Times,serif" font-size="10.00" fill="#000000"> &#160;&#160;&#160;&#160;&#160;&#160;&#160;ontolexwrittenRep &#160;&#160;&#160;&#160;&#160;</text>
<text text-anchor="start" x="1124" y="-230" font-family="Times,serif" font-size="10.00" fill="#000000">kat</text>
</g>
<!-- celexcomp92553&#45;&gt;node1cj697i7cx7 -->
<g id="edge25" class="edge">
<title>celexcomp92553&#45;&gt;node1cj697i7cx7</title>
<path fill="none" stroke="#000088" d="M961.6255,-346.9329C975.4407,-337.4356 992.128,-325.2446 1006,-313 1022.1058,-298.7837 1038.5673,-281.2071 1051.2592,-266.8634"/>
<polygon fill="#000088" stroke="#000088" points="1057.8963,-259.2691 1054.704,-269.7601 1054.606,-263.034 1051.3156,-266.7988 1051.3156,-266.7988 1051.3156,-266.7988 1054.606,-263.034 1047.9273,-263.8375 1057.8963,-259.2691 1057.8963,-259.2691"/>
<text text-anchor="middle" x="1048" y="-293.1" font-family="Times,serif" font-size="8.00" fill="#000000">stem</text>
</g>
<!-- celexlemma124345 -->
<g id="node19" class="node">
<title>celexlemma124345</title>
<path fill="none" stroke="#000000" d="M1318.5,-259C1318.5,-259 1177.5,-259 1177.5,-259 1171.5,-259 1165.5,-253 1165.5,-247 1165.5,-247 1165.5,-233 1165.5,-233 1165.5,-227 1171.5,-221 1177.5,-221 1177.5,-221 1318.5,-221 1318.5,-221 1324.5,-221 1330.5,-227 1330.5,-233 1330.5,-233 1330.5,-247 1330.5,-247 1330.5,-253 1324.5,-259 1318.5,-259"/>
<polygon fill="#add8e6" stroke="transparent" points="1174,-240 1174,-255 1323,-255 1323,-240 1174,-240"/>
<text text-anchor="start" x="1176" y="-246" font-family="Times,serif" font-style="italic" font-size="10.00" fill="#000000">celex_lemma_124345:ontolexAffix</text>
<text text-anchor="start" x="1197" y="-230" font-family="Times,serif" font-size="10.00" fill="#000000"> &#160;&#160;&#160;&#160;&#160;&#160;&#160;label &#160;&#160;&#160;&#160;&#160;</text>
<text text-anchor="start" x="1295" y="-230" font-family="Times,serif" font-size="10.00" fill="#000000">e</text>
</g>
<!-- celexcomp92554&#45;&gt;celexlemma124345 -->
<g id="edge26" class="edge">
<title>celexcomp92554&#45;&gt;celexlemma124345</title>
<path fill="none" stroke="#000088" d="M1124.9388,-346.8239C1149.5034,-325.5005 1190.4052,-289.9955 1218.2542,-265.821"/>
<polygon fill="#000088" stroke="#000088" points="1226.0916,-259.0177 1221.4898,-268.9713 1222.3157,-262.2954 1218.5399,-265.5731 1218.5399,-265.5731 1218.5399,-265.5731 1222.3157,-262.2954 1215.59,-262.1748 1226.0916,-259.0177 1226.0916,-259.0177"/>
<text text-anchor="middle" x="1225" y="-293.1" font-family="Times,serif" font-size="8.00" fill="#000000">correspondsTo</text>
</g>
</g>
</svg>
