<svg width="1940pt" height="298pt"
 viewBox="0.00 0.00 1940.00 298.00" xmlns="http://www.w3.org/2000/svg" xmlns:xlink="http://www.w3.org/1999/xlink">
<g id="graph0" class="graph" transform="scale(1 1) rotate(0) translate(4 294)">
<title>G</title>
<polygon fill="#ffffff" stroke="transparent" points="-4,4 -4,-294 1936,-294 1936,4 -4,4"/>
<!-- node1cj697i7cx3 -->
<g id="node1" class="node">
<title>node1cj697i7cx3</title>
<path fill="none" stroke="#000000" d="M120,-163C120,-163 28,-163 28,-163 22,-163 16,-157 16,-151 16,-151 16,-139 16,-139 16,-133 22,-127 28,-127 28,-127 120,-127 120,-127 126,-127 132,-133 132,-139 132,-139 132,-151 132,-151 132,-157 126,-163 120,-163"/>
<polygon fill="#add8e6" stroke="transparent" points="24,-137 24,-152 124,-152 124,-137 24,-137"/>
<text text-anchor="start" x="26" y="-143" font-family="Times,serif" font-style="italic" font-size="10.00" fill="#000000">node1cj697i7cx3:UNK</text>
</g>
<!-- lexinfocommonGender -->
<g id="node2" class="node">
<title>lexinfocommonGender</title>
<path fill="none" stroke="#000000" d="M130,-36C130,-36 12,-36 12,-36 6,-36 0,-30 0,-24 0,-24 0,-12 0,-12 0,-6 6,0 12,0 12,0 130,0 130,0 136,0 142,-6 142,-12 142,-12 142,-24 142,-24 142,-30 136,-36 130,-36"/>
<polygon fill="#add8e6" stroke="transparent" points="8,-10 8,-25 134,-25 134,-10 8,-10"/>
<text text-anchor="start" x="10.5" y="-16" font-family="Times,serif" font-style="italic" font-size="10.00" fill="#000000">lexinfocommonGender:Class</text>
</g>
<!-- node1cj697i7cx3&#45;&gt;lexinfocommonGender -->
<g id="edge1" class="edge">
<title>node1cj697i7cx3&#45;&gt;lexinfocommonGender</title>
<path fill="none" stroke="#000088" d="M73.5702,-126.804C73.0734,-105.7735 72.2498,-70.9094 71.6691,-46.3236"/>
<polygon fill="#000088" stroke="#000088" points="71.429,-36.1622 76.164,-46.0531 71.5472,-41.1609 71.6653,-46.1595 71.6653,-46.1595 71.6653,-46.1595 71.5472,-41.1609 67.1665,-46.2658 71.429,-36.1622 71.429,-36.1622"/>
<text text-anchor="middle" x="96.5" y="-56.6" font-family="Times,serif" font-size="8.00" fill="#000000">lexinfoGender</text>
</g>
<!-- cgnlexwform862735 -->
<g id="node3" class="node">
<title>cgnlexwform862735</title>
<path fill="none" stroke="#000000" d="M744.5,-201.5C744.5,-201.5 595.5,-201.5 595.5,-201.5 589.5,-201.5 583.5,-195.5 583.5,-189.5 583.5,-189.5 583.5,-100.5 583.5,-100.5 583.5,-94.5 589.5,-88.5 595.5,-88.5 595.5,-88.5 744.5,-88.5 744.5,-88.5 750.5,-88.5 756.5,-94.5 756.5,-100.5 756.5,-100.5 756.5,-189.5 756.5,-189.5 756.5,-195.5 750.5,-201.5 744.5,-201.5"/>
<polygon fill="#add8e6" stroke="transparent" points="592,-182 592,-197 749,-197 749,-182 592,-182"/>
<text text-anchor="start" x="595" y="-188" font-family="Times,serif" font-style="italic" font-size="10.00" fill="#000000">cgnlex_wform_862735:ontolexword</text>
<text text-anchor="start" x="597.5" y="-172" font-family="Times,serif" font-size="10.00" fill="#000000"> &#160;&#160;&#160;&#160;&#160;&#160;&#160;ontolexwrittenRep &#160;&#160;&#160;&#160;&#160;</text>
<text text-anchor="start" x="718" y="-172" font-family="Times,serif" font-size="10.00" fill="#000000">katjes</text>
<text text-anchor="start" x="594" y="-157" font-family="Times,serif" font-size="10.00" fill="#000000"> &#160;&#160;&#160;&#160;&#160;&#160;&#160;ontolexphoneticRep &#160;&#160;&#160;&#160;&#160;</text>
<text text-anchor="start" x="714.5" y="-157" font-family="Times,serif" font-size="10.00" fill="#000000">kAtj@s</text>
<text text-anchor="start" x="594" y="-142" font-family="Times,serif" font-size="10.00" fill="#000000"> &#160;&#160;&#160;&#160;&#160;&#160;&#160;ontolexphoneticRep &#160;&#160;&#160;&#160;&#160;</text>
<text text-anchor="start" x="714.5" y="-142" font-family="Times,serif" font-size="10.00" fill="#000000">kAtj@s</text>
<text text-anchor="start" x="610" y="-127" font-family="Times,serif" font-size="10.00" fill="#000000"> &#160;&#160;&#160;&#160;&#160;&#160;&#160;variantLabel &#160;&#160;&#160;&#160;&#160;</text>
<text text-anchor="start" x="714" y="-127" font-family="Times,serif" font-size="10.00" fill="#000000">Flemish</text>
<text text-anchor="start" x="594" y="-112" font-family="Times,serif" font-size="10.00" fill="#000000"> &#160;&#160;&#160;&#160;&#160;&#160;&#160;ontolexphoneticRep &#160;&#160;&#160;&#160;&#160;</text>
<text text-anchor="start" x="714.5" y="-112" font-family="Times,serif" font-size="10.00" fill="#000000">kAtj@s</text>
<text text-anchor="start" x="610" y="-97" font-family="Times,serif" font-size="10.00" fill="#000000"> &#160;&#160;&#160;&#160;&#160;&#160;&#160;variantLabel &#160;&#160;&#160;&#160;&#160;</text>
<text text-anchor="start" x="714" y="-97" font-family="Times,serif" font-size="10.00" fill="#000000">Flemish</text>
</g>
<!-- lexinfoneutralRegister -->
<g id="node4" class="node">
<title>lexinfoneutralRegister</title>
<path fill="none" stroke="#000000" d="M1343,-36C1343,-36 1229,-36 1229,-36 1223,-36 1217,-30 1217,-24 1217,-24 1217,-12 1217,-12 1217,-6 1223,0 1229,0 1229,0 1343,0 1343,0 1349,0 1355,-6 1355,-12 1355,-12 1355,-24 1355,-24 1355,-30 1349,-36 1343,-36"/>
<polygon fill="#add8e6" stroke="transparent" points="1225,-10 1225,-25 1347,-25 1347,-10 1225,-10"/>
<text text-anchor="start" x="1227" y="-16" font-family="Times,serif" font-style="italic" font-size="10.00" fill="#000000">lexinfoneutralRegister:Class</text>
</g>
<!-- cgnlexwform862735&#45;&gt;lexinfoneutralRegister -->
<g id="edge2" class="edge">
<title>cgnlexwform862735&#45;&gt;lexinfoneutralRegister</title>
<path fill="none" stroke="#000088" d="M655.3901,-88.1482C655.3601,-75.5337 658.3216,-63.1978 667,-54 667.2865,-53.6963 1039.6355,-32.1994 1206.6194,-22.5733"/>
<polygon fill="#000088" stroke="#000088" points="1216.8326,-21.9846 1207.1082,-27.0527 1211.8409,-22.2724 1206.8492,-22.5602 1206.8492,-22.5602 1206.8492,-22.5602 1211.8409,-22.2724 1206.5902,-18.0676 1216.8326,-21.9846 1216.8326,-21.9846"/>
<text text-anchor="middle" x="692" y="-56.6" font-family="Times,serif" font-size="8.00" fill="#000000">lexinfoRegister</text>
</g>
<!-- cgnlexwform862735&#45;&gt;lexinfoneutralRegister -->
<g id="edge3" class="edge">
<title>cgnlexwform862735&#45;&gt;lexinfoneutralRegister</title>
<path fill="none" stroke="#000088" d="M604.8835,-88.0318C598.3243,-76.2479 597.1962,-64.2992 607,-54 620.998,-39.2947 951.7264,-37.081 972,-36 1051.8001,-31.7451 1142.9827,-26.4723 1206.4524,-22.736"/>
<polygon fill="#000088" stroke="#000088" points="1216.788,-22.1267 1207.0702,-27.2075 1211.7967,-22.421 1206.8054,-22.7153 1206.8054,-22.7153 1206.8054,-22.7153 1211.7967,-22.421 1206.5405,-18.2231 1216.788,-22.1267 1216.788,-22.1267"/>
<text text-anchor="middle" x="632" y="-56.6" font-family="Times,serif" font-size="8.00" fill="#000000">lexinfoRegister</text>
</g>
<!-- lexinfoformalRegister -->
<g id="node5" class="node">
<title>lexinfoformalRegister</title>
<path fill="none" stroke="#000000" d="M951,-36C951,-36 839,-36 839,-36 833,-36 827,-30 827,-24 827,-24 827,-12 827,-12 827,-6 833,0 839,0 839,0 951,0 951,0 957,0 963,-6 963,-12 963,-12 963,-24 963,-24 963,-30 957,-36 951,-36"/>
<polygon fill="#add8e6" stroke="transparent" points="835,-10 835,-25 955,-25 955,-10 835,-10"/>
<text text-anchor="start" x="837" y="-16" font-family="Times,serif" font-style="italic" font-size="10.00" fill="#000000">lexinfoformalRegister:Class</text>
</g>
<!-- cgnlexwform862735&#45;&gt;lexinfoformalRegister -->
<g id="edge4" class="edge">
<title>cgnlexwform862735&#45;&gt;lexinfoformalRegister</title>
<path fill="none" stroke="#000088" d="M587.7435,-88.4049C583.1532,-85.8009 578.554,-83.3134 574,-81 551.8314,-69.7384 508.2496,-72.3765 525,-54 539.5833,-38.001 697.4541,-38.1013 719,-36 750.9969,-32.8795 786.2505,-29.3017 816.749,-26.1622"/>
<polygon fill="#000088" stroke="#000088" points="826.8981,-25.1156 817.4125,-30.6177 821.9245,-25.6285 816.9509,-26.1414 816.9509,-26.1414 816.9509,-26.1414 821.9245,-25.6285 816.4892,-21.6652 826.8981,-25.1156 826.8981,-25.1156"/>
<text text-anchor="middle" x="550" y="-56.6" font-family="Times,serif" font-size="8.00" fill="#000000">lexinfoRegister</text>
</g>
<!-- lexinfoplural -->
<g id="node6" class="node">
<title>lexinfoplural</title>
<path fill="none" stroke="#000000" d="M698,-36C698,-36 622,-36 622,-36 616,-36 610,-30 610,-24 610,-24 610,-12 610,-12 610,-6 616,0 622,0 622,0 698,0 698,0 704,0 710,-6 710,-12 710,-12 710,-24 710,-24 710,-30 704,-36 698,-36"/>
<polygon fill="#add8e6" stroke="transparent" points="618,-10 618,-25 702,-25 702,-10 618,-10"/>
<text text-anchor="start" x="620" y="-16" font-family="Times,serif" font-style="italic" font-size="10.00" fill="#000000">lexinfoplural:Class</text>
</g>
<!-- cgnlexwform862735&#45;&gt;lexinfoplural -->
<g id="edge5" class="edge">
<title>cgnlexwform862735&#45;&gt;lexinfoplural</title>
<path fill="none" stroke="#000088" d="M590.7501,-88.4992C585.214,-85.7064 579.6046,-83.1678 574,-81 523.4186,-61.4359 420.1252,-95.5329 455,-54 473.2279,-32.2922 546.108,-23.6706 599.8075,-20.2486"/>
<polygon fill="#000088" stroke="#000088" points="609.9314,-19.6496 600.2146,-24.7324 604.9401,-19.9449 599.9488,-20.2403 599.9488,-20.2403 599.9488,-20.2403 604.9401,-19.9449 599.683,-15.7481 609.9314,-19.6496 609.9314,-19.6496"/>
<text text-anchor="middle" x="478.5" y="-56.6" font-family="Times,serif" font-size="8.00" fill="#000000">lexinfonumber</text>
</g>
<!-- node1cj697i7cx1 -->
<g id="node7" class="node">
<title>node1cj697i7cx1</title>
<path fill="none" stroke="#000000" d="M419,-164C419,-164 297,-164 297,-164 291,-164 285,-158 285,-152 285,-152 285,-138 285,-138 285,-132 291,-126 297,-126 297,-126 419,-126 419,-126 425,-126 431,-132 431,-138 431,-138 431,-152 431,-152 431,-158 425,-164 419,-164"/>
<polygon fill="#add8e6" stroke="transparent" points="293,-145 293,-160 423,-160 423,-145 293,-145"/>
<text text-anchor="start" x="310" y="-151" font-family="Times,serif" font-style="italic" font-size="10.00" fill="#000000">node1cj697i7cx1:UNK</text>
<text text-anchor="start" x="295" y="-135" font-family="Times,serif" font-size="10.00" fill="#000000"> &#160;&#160;&#160;&#160;&#160;&#160;&#160;ontolexwrittenRep &#160;&#160;&#160;&#160;&#160;</text>
<text text-anchor="start" x="408" y="-135" font-family="Times,serif" font-size="10.00" fill="#000000">kat</text>
</g>
<!-- node1cj697i7cx4 -->
<g id="node8" class="node">
<title>node1cj697i7cx4</title>
<path fill="none" stroke="#000000" d="M255,-163C255,-163 163,-163 163,-163 157,-163 151,-157 151,-151 151,-151 151,-139 151,-139 151,-133 157,-127 163,-127 163,-127 255,-127 255,-127 261,-127 267,-133 267,-139 267,-139 267,-151 267,-151 267,-157 261,-163 255,-163"/>
<polygon fill="#add8e6" stroke="transparent" points="159,-137 159,-152 259,-152 259,-137 159,-137"/>
<text text-anchor="start" x="161" y="-143" font-family="Times,serif" font-style="italic" font-size="10.00" fill="#000000">node1cj697i7cx4:UNK</text>
</g>
<!-- lexinfoneuter -->
<g id="node9" class="node">
<title>lexinfoneuter</title>
<path fill="none" stroke="#000000" d="M250,-36C250,-36 172,-36 172,-36 166,-36 160,-30 160,-24 160,-24 160,-12 160,-12 160,-6 166,0 172,0 172,0 250,0 250,0 256,0 262,-6 262,-12 262,-12 262,-24 262,-24 262,-30 256,-36 250,-36"/>
<polygon fill="#add8e6" stroke="transparent" points="168,-10 168,-25 254,-25 254,-10 168,-10"/>
<text text-anchor="start" x="170.5" y="-16" font-family="Times,serif" font-style="italic" font-size="10.00" fill="#000000">lexinfoneuter:Class</text>
</g>
<!-- node1cj697i7cx4&#45;&gt;lexinfoneuter -->
<g id="edge6" class="edge">
<title>node1cj697i7cx4&#45;&gt;lexinfoneuter</title>
<path fill="none" stroke="#000088" d="M209.2866,-126.804C209.6177,-105.7735 210.1668,-70.9094 210.554,-46.3236"/>
<polygon fill="#000088" stroke="#000088" points="210.714,-36.1622 215.0559,-46.2319 210.6352,-41.1616 210.5564,-46.161 210.5564,-46.161 210.5564,-46.161 210.6352,-41.1616 206.057,-46.0901 210.714,-36.1622 210.714,-36.1622"/>
<text text-anchor="middle" x="234.5" y="-56.6" font-family="Times,serif" font-size="8.00" fill="#000000">lexinfoGender</text>
</g>
<!-- node1cj697i7cx2 -->
<g id="node10" class="node">
<title>node1cj697i7cx2</title>
<path fill="none" stroke="#000000" d="M553,-163C553,-163 461,-163 461,-163 455,-163 449,-157 449,-151 449,-151 449,-139 449,-139 449,-133 455,-127 461,-127 461,-127 553,-127 553,-127 559,-127 565,-133 565,-139 565,-139 565,-151 565,-151 565,-157 559,-163 553,-163"/>
<polygon fill="#add8e6" stroke="transparent" points="457,-137 457,-152 557,-152 557,-137 457,-137"/>
<text text-anchor="start" x="459" y="-143" font-family="Times,serif" font-style="italic" font-size="10.00" fill="#000000">node1cj697i7cx2:UNK</text>
</g>
<!-- lexinfonoun -->
<g id="node11" class="node">
<title>lexinfonoun</title>
<path fill="none" stroke="#000000" d="M399,-36C399,-36 327,-36 327,-36 321,-36 315,-30 315,-24 315,-24 315,-12 315,-12 315,-6 321,0 327,0 327,0 399,0 399,0 405,0 411,-6 411,-12 411,-12 411,-24 411,-24 411,-30 405,-36 399,-36"/>
<polygon fill="#add8e6" stroke="transparent" points="323,-10 323,-25 403,-25 403,-10 323,-10"/>
<text text-anchor="start" x="325" y="-16" font-family="Times,serif" font-style="italic" font-size="10.00" fill="#000000">lexinfonoun:Class</text>
</g>
<!-- node1cj697i7cx2&#45;&gt;lexinfonoun -->
<g id="edge7" class="edge">
<title>node1cj697i7cx2&#45;&gt;lexinfonoun</title>
<path fill="none" stroke="#000088" d="M492.3165,-126.7595C479.8215,-112.3786 460.6557,-92.8376 440,-81 414.7345,-66.5205 397.8299,-83.3498 377,-63 372.3143,-58.4223 369.1902,-52.3066 367.1091,-46.0625"/>
<polygon fill="#000088" stroke="#000088" points="364.623,-36.3473 371.4617,-44.9195 365.8626,-41.1912 367.1022,-46.0351 367.1022,-46.0351 367.1022,-46.0351 365.8626,-41.1912 362.7427,-47.1508 364.623,-36.3473 364.623,-36.3473"/>
<text text-anchor="middle" x="411" y="-56.6" font-family="Times,serif" font-size="8.00" fill="#000000">lexinfopartOfSpeech</text>
</g>
<!-- cgnlexlemma47751 -->
<g id="node12" class="node">
<title>cgnlexlemma47751</title>
<path fill="none" stroke="#000000" d="M852,-290C852,-290 678,-290 678,-290 672,-290 666,-284 666,-278 666,-278 666,-266 666,-266 666,-260 672,-254 678,-254 678,-254 852,-254 852,-254 858,-254 864,-260 864,-266 864,-266 864,-278 864,-278 864,-284 858,-290 852,-290"/>
<polygon fill="#add8e6" stroke="transparent" points="674,-264 674,-279 856,-279 856,-264 674,-264"/>
<text text-anchor="start" x="676" y="-270" font-family="Times,serif" font-style="italic" font-size="10.00" fill="#000000">cgnlex_lemma_47751:ontolexLexicalEntry</text>
</g>
<!-- cgnlexlemma47751&#45;&gt;node1cj697i7cx3 -->
<g id="edge10" class="edge">
<title>cgnlexlemma47751&#45;&gt;node1cj697i7cx3</title>
<path fill="none" stroke="#000088" d="M665.8806,-268.3901C533.4104,-263.0499 305.8289,-251.9297 224,-236 186.3378,-228.6682 174.9766,-228.6149 142,-209 124.7617,-198.7465 108.3033,-183.4559 95.8971,-170.3917"/>
<polygon fill="#000088" stroke="#000088" points="89.0856,-163.0118 99.1748,-167.3081 92.4768,-166.686 95.8681,-170.3602 95.8681,-170.3602 95.8681,-170.3602 92.4768,-166.686 92.5613,-173.4123 89.0856,-163.0118 89.0856,-163.0118"/>
<text text-anchor="middle" x="276" y="-229.6" font-family="Times,serif" font-size="8.00" fill="#000000">lexinfoMorphosyntacticProperty</text>
</g>
<!-- cgnlexlemma47751&#45;&gt;cgnlexwform862735 -->
<g id="edge15" class="edge">
<title>cgnlexlemma47751&#45;&gt;cgnlexwform862735</title>
<path fill="none" stroke="#000088" d="M751.3888,-253.804C742.6509,-242.1227 730.7204,-226.1736 718.6883,-210.0885"/>
<polygon fill="#000088" stroke="#000088" points="712.4033,-201.6865 721.9967,-206.9986 715.3983,-205.6903 718.3932,-209.6941 718.3932,-209.6941 718.3932,-209.6941 715.3983,-205.6903 714.7898,-212.3896 712.4033,-201.6865 712.4033,-201.6865"/>
<text text-anchor="middle" x="756" y="-229.6" font-family="Times,serif" font-size="8.00" fill="#000000">ontolexform</text>
</g>
<!-- cgnlexlemma47751&#45;&gt;node1cj697i7cx1 -->
<g id="edge8" class="edge">
<title>cgnlexlemma47751&#45;&gt;node1cj697i7cx1</title>
<path fill="none" stroke="#000088" d="M665.8035,-265.5302C599.3264,-258.1835 511.2594,-242.4959 440,-209 419.6806,-199.4487 399.757,-184.0795 384.6373,-170.7962"/>
<polygon fill="#000088" stroke="#000088" points="377.1919,-164.0819 387.6319,-167.4372 380.9051,-167.4305 384.6182,-170.779 384.6182,-170.779 384.6182,-170.779 380.9051,-167.4305 381.6045,-174.1209 377.1919,-164.0819 377.1919,-164.0819"/>
<text text-anchor="middle" x="527" y="-229.6" font-family="Times,serif" font-size="8.00" fill="#000000">ontolexform</text>
</g>
<!-- cgnlexlemma47751&#45;&gt;node1cj697i7cx4 -->
<g id="edge11" class="edge">
<title>cgnlexlemma47751&#45;&gt;node1cj697i7cx4</title>
<path fill="none" stroke="#000088" d="M665.8801,-267.8154C542.7637,-261.1559 340.9992,-245.0136 276,-209 258.4744,-199.2897 242.1423,-183.8781 229.9909,-170.6116"/>
<polygon fill="#000088" stroke="#000088" points="223.3421,-163.1078 233.342,-167.6081 226.658,-166.8501 229.9739,-170.5924 229.9739,-170.5924 229.9739,-170.5924 226.658,-166.8501 226.6058,-173.5767 223.3421,-163.1078 223.3421,-163.1078"/>
<text text-anchor="middle" x="415" y="-229.6" font-family="Times,serif" font-size="8.00" fill="#000000">lexinfoMorphosyntacticProperty</text>
</g>
<!-- cgnlexlemma47751&#45;&gt;node1cj697i7cx2 -->
<g id="edge9" class="edge">
<title>cgnlexlemma47751&#45;&gt;node1cj697i7cx2</title>
<path fill="none" stroke="#000088" d="M672.9467,-253.9629C639.8816,-244.3955 603.7039,-230.0936 575,-209 559.4214,-197.5517 543.6012,-182.8819 531.1449,-170.4759"/>
<polygon fill="#000088" stroke="#000088" points="523.856,-163.0931 534.084,-167.0478 527.3689,-166.6512 530.8817,-170.2093 530.8817,-170.2093 530.8817,-170.2093 527.3689,-166.6512 527.6794,-173.3709 523.856,-163.0931 523.856,-163.0931"/>
<text text-anchor="middle" x="674" y="-229.6" font-family="Times,serif" font-size="8.00" fill="#000000">lexinfoMorphosyntacticProperty</text>
</g>
<!-- cgnlexwform147297 -->
<g id="node13" class="node">
<title>cgnlexwform147297</title>
<path fill="none" stroke="#000000" d="M1840.5,-186.5C1840.5,-186.5 1691.5,-186.5 1691.5,-186.5 1685.5,-186.5 1679.5,-180.5 1679.5,-174.5 1679.5,-174.5 1679.5,-115.5 1679.5,-115.5 1679.5,-109.5 1685.5,-103.5 1691.5,-103.5 1691.5,-103.5 1840.5,-103.5 1840.5,-103.5 1846.5,-103.5 1852.5,-109.5 1852.5,-115.5 1852.5,-115.5 1852.5,-174.5 1852.5,-174.5 1852.5,-180.5 1846.5,-186.5 1840.5,-186.5"/>
<polygon fill="#add8e6" stroke="transparent" points="1688,-167 1688,-182 1845,-182 1845,-167 1688,-167"/>
<text text-anchor="start" x="1691" y="-173" font-family="Times,serif" font-style="italic" font-size="10.00" fill="#000000">cgnlex_wform_147297:ontolexword</text>
<text text-anchor="start" x="1693.5" y="-157" font-family="Times,serif" font-size="10.00" fill="#000000"> &#160;&#160;&#160;&#160;&#160;&#160;&#160;ontolexwrittenRep &#160;&#160;&#160;&#160;&#160;</text>
<text text-anchor="start" x="1820" y="-157" font-family="Times,serif" font-size="10.00" fill="#000000">kat</text>
<text text-anchor="start" x="1690" y="-142" font-family="Times,serif" font-size="10.00" fill="#000000"> &#160;&#160;&#160;&#160;&#160;&#160;&#160;ontolexphoneticRep &#160;&#160;&#160;&#160;&#160;</text>
<text text-anchor="start" x="1818.5" y="-142" font-family="Times,serif" font-size="10.00" fill="#000000">kAt</text>
<text text-anchor="start" x="1690" y="-127" font-family="Times,serif" font-size="10.00" fill="#000000"> &#160;&#160;&#160;&#160;&#160;&#160;&#160;ontolexphoneticRep &#160;&#160;&#160;&#160;&#160;</text>
<text text-anchor="start" x="1818.5" y="-127" font-family="Times,serif" font-size="10.00" fill="#000000">kAt</text>
<text text-anchor="start" x="1706" y="-112" font-family="Times,serif" font-size="10.00" fill="#000000"> &#160;&#160;&#160;&#160;&#160;&#160;&#160;variantLabel &#160;&#160;&#160;&#160;&#160;</text>
<text text-anchor="start" x="1810" y="-112" font-family="Times,serif" font-size="10.00" fill="#000000">Flemish</text>
</g>
<!-- cgnlexlemma47751&#45;&gt;cgnlexwform147297 -->
<g id="edge12" class="edge">
<title>cgnlexlemma47751&#45;&gt;cgnlexwform147297</title>
<path fill="none" stroke="#000088" d="M864.1665,-270.9028C1064.4146,-267.722 1510.2861,-255.4834 1655,-209 1668.6802,-204.6058 1682.5237,-198.3545 1695.5771,-191.4631"/>
<polygon fill="#000088" stroke="#000088" points="1704.4761,-186.6047 1697.8552,-195.3463 1700.0875,-189.0007 1695.6989,-191.3966 1695.6989,-191.3966 1695.6989,-191.3966 1700.0875,-189.0007 1693.5426,-187.4469 1704.4761,-186.6047 1704.4761,-186.6047"/>
<text text-anchor="middle" x="1587" y="-229.6" font-family="Times,serif" font-size="8.00" fill="#000000">ontolexform</text>
</g>
<!-- cgnlexwform807576 -->
<g id="node15" class="node">
<title>cgnlexwform807576</title>
<path fill="none" stroke="#000000" d="M1411.5,-201.5C1411.5,-201.5 1262.5,-201.5 1262.5,-201.5 1256.5,-201.5 1250.5,-195.5 1250.5,-189.5 1250.5,-189.5 1250.5,-100.5 1250.5,-100.5 1250.5,-94.5 1256.5,-88.5 1262.5,-88.5 1262.5,-88.5 1411.5,-88.5 1411.5,-88.5 1417.5,-88.5 1423.5,-94.5 1423.5,-100.5 1423.5,-100.5 1423.5,-189.5 1423.5,-189.5 1423.5,-195.5 1417.5,-201.5 1411.5,-201.5"/>
<polygon fill="#add8e6" stroke="transparent" points="1259,-182 1259,-197 1416,-197 1416,-182 1259,-182"/>
<text text-anchor="start" x="1262" y="-188" font-family="Times,serif" font-style="italic" font-size="10.00" fill="#000000">cgnlex_wform_807576:ontolexword</text>
<text text-anchor="start" x="1264.5" y="-172" font-family="Times,serif" font-size="10.00" fill="#000000"> &#160;&#160;&#160;&#160;&#160;&#160;&#160;ontolexwrittenRep &#160;&#160;&#160;&#160;&#160;</text>
<text text-anchor="start" x="1387" y="-172" font-family="Times,serif" font-size="10.00" fill="#000000">katje</text>
<text text-anchor="start" x="1261" y="-157" font-family="Times,serif" font-size="10.00" fill="#000000"> &#160;&#160;&#160;&#160;&#160;&#160;&#160;ontolexphoneticRep &#160;&#160;&#160;&#160;&#160;</text>
<text text-anchor="start" x="1383.5" y="-157" font-family="Times,serif" font-size="10.00" fill="#000000">kAtj@</text>
<text text-anchor="start" x="1261" y="-142" font-family="Times,serif" font-size="10.00" fill="#000000"> &#160;&#160;&#160;&#160;&#160;&#160;&#160;ontolexphoneticRep &#160;&#160;&#160;&#160;&#160;</text>
<text text-anchor="start" x="1383.5" y="-142" font-family="Times,serif" font-size="10.00" fill="#000000">kAtj@</text>
<text text-anchor="start" x="1277" y="-127" font-family="Times,serif" font-size="10.00" fill="#000000"> &#160;&#160;&#160;&#160;&#160;&#160;&#160;variantLabel &#160;&#160;&#160;&#160;&#160;</text>
<text text-anchor="start" x="1381" y="-127" font-family="Times,serif" font-size="10.00" fill="#000000">Flemish</text>
<text text-anchor="start" x="1261" y="-112" font-family="Times,serif" font-size="10.00" fill="#000000"> &#160;&#160;&#160;&#160;&#160;&#160;&#160;ontolexphoneticRep &#160;&#160;&#160;&#160;&#160;</text>
<text text-anchor="start" x="1383.5" y="-112" font-family="Times,serif" font-size="10.00" fill="#000000">kAtj@</text>
<text text-anchor="start" x="1277" y="-97" font-family="Times,serif" font-size="10.00" fill="#000000"> &#160;&#160;&#160;&#160;&#160;&#160;&#160;variantLabel &#160;&#160;&#160;&#160;&#160;</text>
<text text-anchor="start" x="1381" y="-97" font-family="Times,serif" font-size="10.00" fill="#000000">Flemish</text>
</g>
<!-- cgnlexlemma47751&#45;&gt;cgnlexwform807576 -->
<g id="edge13" class="edge">
<title>cgnlexlemma47751&#45;&gt;cgnlexwform807576</title>
<path fill="none" stroke="#000088" d="M864.2037,-266.06C953.7673,-258.7353 1088.3776,-242.8132 1201,-209 1214.1729,-205.045 1227.6865,-200.0057 1240.8422,-194.4961"/>
<polygon fill="#000088" stroke="#000088" points="1250.3482,-190.41 1242.9381,-198.4934 1245.7546,-192.3846 1241.161,-194.3591 1241.161,-194.3591 1241.161,-194.3591 1245.7546,-192.3846 1239.3839,-190.2249 1250.3482,-190.41 1250.3482,-190.41"/>
<text text-anchor="middle" x="1151" y="-229.6" font-family="Times,serif" font-size="8.00" fill="#000000">ontolexform</text>
</g>
<!-- cgnlexwform862734 -->
<g id="node16" class="node">
<title>cgnlexwform862734</title>
<path fill="none" stroke="#000000" d="M1179.5,-201.5C1179.5,-201.5 1030.5,-201.5 1030.5,-201.5 1024.5,-201.5 1018.5,-195.5 1018.5,-189.5 1018.5,-189.5 1018.5,-100.5 1018.5,-100.5 1018.5,-94.5 1024.5,-88.5 1030.5,-88.5 1030.5,-88.5 1179.5,-88.5 1179.5,-88.5 1185.5,-88.5 1191.5,-94.5 1191.5,-100.5 1191.5,-100.5 1191.5,-189.5 1191.5,-189.5 1191.5,-195.5 1185.5,-201.5 1179.5,-201.5"/>
<polygon fill="#add8e6" stroke="transparent" points="1027,-182 1027,-197 1184,-197 1184,-182 1027,-182"/>
<text text-anchor="start" x="1030" y="-188" font-family="Times,serif" font-style="italic" font-size="10.00" fill="#000000">cgnlex_wform_862734:ontolexword</text>
<text text-anchor="start" x="1032.5" y="-172" font-family="Times,serif" font-size="10.00" fill="#000000"> &#160;&#160;&#160;&#160;&#160;&#160;&#160;ontolexwrittenRep &#160;&#160;&#160;&#160;&#160;</text>
<text text-anchor="start" x="1155" y="-172" font-family="Times,serif" font-size="10.00" fill="#000000">katje</text>
<text text-anchor="start" x="1029" y="-157" font-family="Times,serif" font-size="10.00" fill="#000000"> &#160;&#160;&#160;&#160;&#160;&#160;&#160;ontolexphoneticRep &#160;&#160;&#160;&#160;&#160;</text>
<text text-anchor="start" x="1151.5" y="-157" font-family="Times,serif" font-size="10.00" fill="#000000">kAtj@</text>
<text text-anchor="start" x="1029" y="-142" font-family="Times,serif" font-size="10.00" fill="#000000"> &#160;&#160;&#160;&#160;&#160;&#160;&#160;ontolexphoneticRep &#160;&#160;&#160;&#160;&#160;</text>
<text text-anchor="start" x="1151.5" y="-142" font-family="Times,serif" font-size="10.00" fill="#000000">kAtj@</text>
<text text-anchor="start" x="1045" y="-127" font-family="Times,serif" font-size="10.00" fill="#000000"> &#160;&#160;&#160;&#160;&#160;&#160;&#160;variantLabel &#160;&#160;&#160;&#160;&#160;</text>
<text text-anchor="start" x="1149" y="-127" font-family="Times,serif" font-size="10.00" fill="#000000">Flemish</text>
<text text-anchor="start" x="1029" y="-112" font-family="Times,serif" font-size="10.00" fill="#000000"> &#160;&#160;&#160;&#160;&#160;&#160;&#160;ontolexphoneticRep &#160;&#160;&#160;&#160;&#160;</text>
<text text-anchor="start" x="1151.5" y="-112" font-family="Times,serif" font-size="10.00" fill="#000000">kAtj@</text>
<text text-anchor="start" x="1045" y="-97" font-family="Times,serif" font-size="10.00" fill="#000000"> &#160;&#160;&#160;&#160;&#160;&#160;&#160;variantLabel &#160;&#160;&#160;&#160;&#160;</text>
<text text-anchor="start" x="1149" y="-97" font-family="Times,serif" font-size="10.00" fill="#000000">Flemish</text>
</g>
<!-- cgnlexlemma47751&#45;&gt;cgnlexwform862734 -->
<g id="edge14" class="edge">
<title>cgnlexlemma47751&#45;&gt;cgnlexwform862734</title>
<path fill="none" stroke="#000088" d="M824.7362,-253.9407C862.8789,-242.0313 913.211,-225.6125 957,-209 973.8943,-202.5907 991.678,-195.3448 1008.8287,-188.0916"/>
<polygon fill="#000088" stroke="#000088" points="1018.282,-184.0665 1010.8441,-192.1244 1013.6816,-186.0253 1009.0812,-187.9841 1009.0812,-187.9841 1009.0812,-187.9841 1013.6816,-186.0253 1007.3184,-183.8438 1018.282,-184.0665 1018.282,-184.0665"/>
<text text-anchor="middle" x="924" y="-229.6" font-family="Times,serif" font-size="8.00" fill="#000000">ontolexform</text>
</g>
<!-- cgnlexwform147514 -->
<g id="node17" class="node">
<title>cgnlexwform147514</title>
<path fill="none" stroke="#000000" d="M935.5,-209C935.5,-209 786.5,-209 786.5,-209 780.5,-209 774.5,-203 774.5,-197 774.5,-197 774.5,-93 774.5,-93 774.5,-87 780.5,-81 786.5,-81 786.5,-81 935.5,-81 935.5,-81 941.5,-81 947.5,-87 947.5,-93 947.5,-93 947.5,-197 947.5,-197 947.5,-203 941.5,-209 935.5,-209"/>
<polygon fill="#add8e6" stroke="transparent" points="783,-190 783,-205 940,-205 940,-190 783,-190"/>
<text text-anchor="start" x="786" y="-196" font-family="Times,serif" font-style="italic" font-size="10.00" fill="#000000">cgnlex_wform_147514:ontolexword</text>
<text text-anchor="start" x="788.5" y="-180" font-family="Times,serif" font-size="10.00" fill="#000000"> &#160;&#160;&#160;&#160;&#160;&#160;&#160;ontolexwrittenRep &#160;&#160;&#160;&#160;&#160;</text>
<text text-anchor="start" x="908.5" y="-180" font-family="Times,serif" font-size="10.00" fill="#000000">katten</text>
<text text-anchor="start" x="788.5" y="-165" font-family="Times,serif" font-size="10.00" fill="#000000"> &#160;&#160;&#160;&#160;&#160;&#160;&#160;ontolexwrittenRep &#160;&#160;&#160;&#160;&#160;</text>
<text text-anchor="start" x="908.5" y="-165" font-family="Times,serif" font-size="10.00" fill="#000000">katten</text>
<text text-anchor="start" x="785" y="-150" font-family="Times,serif" font-size="10.00" fill="#000000"> &#160;&#160;&#160;&#160;&#160;&#160;&#160;ontolexphoneticRep &#160;&#160;&#160;&#160;&#160;</text>
<text text-anchor="start" x="909" y="-150" font-family="Times,serif" font-size="10.00" fill="#000000">kAt@</text>
<text text-anchor="start" x="785" y="-135" font-family="Times,serif" font-size="10.00" fill="#000000"> &#160;&#160;&#160;&#160;&#160;&#160;&#160;ontolexphoneticRep &#160;&#160;&#160;&#160;&#160;</text>
<text text-anchor="start" x="906" y="-135" font-family="Times,serif" font-size="10.00" fill="#000000">kAt@n</text>
<text text-anchor="start" x="801" y="-120" font-family="Times,serif" font-size="10.00" fill="#000000"> &#160;&#160;&#160;&#160;&#160;&#160;&#160;variantLabel &#160;&#160;&#160;&#160;&#160;</text>
<text text-anchor="start" x="905" y="-120" font-family="Times,serif" font-size="10.00" fill="#000000">Flemish</text>
<text text-anchor="start" x="785" y="-105" font-family="Times,serif" font-size="10.00" fill="#000000"> &#160;&#160;&#160;&#160;&#160;&#160;&#160;ontolexphoneticRep &#160;&#160;&#160;&#160;&#160;</text>
<text text-anchor="start" x="909" y="-105" font-family="Times,serif" font-size="10.00" fill="#000000">kAt@</text>
<text text-anchor="start" x="801" y="-90" font-family="Times,serif" font-size="10.00" fill="#000000"> &#160;&#160;&#160;&#160;&#160;&#160;&#160;variantLabel &#160;&#160;&#160;&#160;&#160;</text>
<text text-anchor="start" x="905" y="-90" font-family="Times,serif" font-size="10.00" fill="#000000">Flemish</text>
</g>
<!-- cgnlexlemma47751&#45;&gt;cgnlexwform147514 -->
<g id="edge16" class="edge">
<title>cgnlexlemma47751&#45;&gt;cgnlexwform147514</title>
<path fill="none" stroke="#000088" d="M778.7545,-253.804C786.2955,-243.8278 796.1897,-230.7387 806.4913,-217.1105"/>
<polygon fill="#000088" stroke="#000088" points="812.5891,-209.0436 810.1488,-219.7345 809.574,-213.0322 806.559,-217.0209 806.559,-217.0209 806.559,-217.0209 809.574,-213.0322 802.9692,-214.3073 812.5891,-209.0436 812.5891,-209.0436"/>
<text text-anchor="middle" x="818" y="-229.6" font-family="Times,serif" font-size="8.00" fill="#000000">ontolexform</text>
</g>
<!-- cgnlexwform802537 -->
<g id="node18" class="node">
<title>cgnlexwform802537</title>
<path fill="none" stroke="#000000" d="M1633.5,-186.5C1633.5,-186.5 1484.5,-186.5 1484.5,-186.5 1478.5,-186.5 1472.5,-180.5 1472.5,-174.5 1472.5,-174.5 1472.5,-115.5 1472.5,-115.5 1472.5,-109.5 1478.5,-103.5 1484.5,-103.5 1484.5,-103.5 1633.5,-103.5 1633.5,-103.5 1639.5,-103.5 1645.5,-109.5 1645.5,-115.5 1645.5,-115.5 1645.5,-174.5 1645.5,-174.5 1645.5,-180.5 1639.5,-186.5 1633.5,-186.5"/>
<polygon fill="#add8e6" stroke="transparent" points="1481,-167 1481,-182 1638,-182 1638,-167 1481,-167"/>
<text text-anchor="start" x="1499.5" y="-173" font-family="Times,serif" font-style="italic" font-size="10.00" fill="#000000">cgnlex_wform_802537:UNK</text>
<text text-anchor="start" x="1486.5" y="-157" font-family="Times,serif" font-size="10.00" fill="#000000"> &#160;&#160;&#160;&#160;&#160;&#160;&#160;ontolexwrittenRep &#160;&#160;&#160;&#160;&#160;</text>
<text text-anchor="start" x="1611.5" y="-157" font-family="Times,serif" font-size="10.00" fill="#000000">Kat</text>
<text text-anchor="start" x="1483" y="-142" font-family="Times,serif" font-size="10.00" fill="#000000"> &#160;&#160;&#160;&#160;&#160;&#160;&#160;ontolexphoneticRep &#160;&#160;&#160;&#160;&#160;</text>
<text text-anchor="start" x="1611.5" y="-142" font-family="Times,serif" font-size="10.00" fill="#000000">kAt</text>
<text text-anchor="start" x="1483" y="-127" font-family="Times,serif" font-size="10.00" fill="#000000"> &#160;&#160;&#160;&#160;&#160;&#160;&#160;ontolexphoneticRep &#160;&#160;&#160;&#160;&#160;</text>
<text text-anchor="start" x="1611.5" y="-127" font-family="Times,serif" font-size="10.00" fill="#000000">ka:t</text>
<text text-anchor="start" x="1499" y="-112" font-family="Times,serif" font-size="10.00" fill="#000000"> &#160;&#160;&#160;&#160;&#160;&#160;&#160;variantLabel &#160;&#160;&#160;&#160;&#160;</text>
<text text-anchor="start" x="1603" y="-112" font-family="Times,serif" font-size="10.00" fill="#000000">Flemish</text>
</g>
<!-- cgnlexlemma47751&#45;&gt;cgnlexwform802537 -->
<g id="edge17" class="edge">
<title>cgnlexlemma47751&#45;&gt;cgnlexwform802537</title>
<path fill="none" stroke="#000088" d="M864.2168,-267.3263C1023.5483,-259.035 1329.1021,-239.6793 1433,-209 1448.3942,-204.4543 1464.1491,-198.0523 1479.075,-191.0395"/>
<polygon fill="#000088" stroke="#000088" points="1488.2507,-186.6053 1481.205,-195.0082 1483.7488,-188.7809 1479.247,-190.9565 1479.247,-190.9565 1479.247,-190.9565 1483.7488,-188.7809 1477.2889,-186.9048 1488.2507,-186.6053 1488.2507,-186.6053"/>
<text text-anchor="middle" x="1358" y="-229.6" font-family="Times,serif" font-size="8.00" fill="#000000">ontolexform</text>
</g>
<!-- cgnlexwform147297&#45;&gt;lexinfoneutralRegister -->
<g id="edge18" class="edge">
<title>cgnlexwform147297&#45;&gt;lexinfoneutralRegister</title>
<path fill="none" stroke="#000088" d="M1755.515,-103.4332C1748.7322,-85.2562 1737.9076,-65.4943 1721,-54 1706.5422,-44.1711 1486.8356,-29.803 1365.3403,-22.5494"/>
<polygon fill="#000088" stroke="#000088" points="1355.3333,-21.9548 1365.5826,-18.056 1360.3245,-22.2514 1365.3157,-22.5481 1365.3157,-22.5481 1365.3157,-22.5481 1360.3245,-22.2514 1365.0487,-27.0401 1355.3333,-21.9548 1355.3333,-21.9548"/>
<text text-anchor="middle" x="1756" y="-56.6" font-family="Times,serif" font-size="8.00" fill="#000000">lexinfoRegister</text>
</g>
<!-- cgnlexwform147297&#45;&gt;lexinfoneutralRegister -->
<g id="edge19" class="edge">
<title>cgnlexwform147297&#45;&gt;lexinfoneutralRegister</title>
<path fill="none" stroke="#000088" d="M1789.1265,-103.1117C1795.252,-85.9656 1797.2033,-67.1154 1785,-54 1777.9471,-46.42 1504.4255,-30.1522 1365.403,-22.3494"/>
<polygon fill="#000088" stroke="#000088" points="1355.2249,-21.7797 1365.4607,-17.8456 1360.217,-22.0592 1365.2092,-22.3386 1365.2092,-22.3386 1365.2092,-22.3386 1360.217,-22.0592 1364.9577,-26.8316 1355.2249,-21.7797 1355.2249,-21.7797"/>
<text text-anchor="middle" x="1815" y="-56.6" font-family="Times,serif" font-size="8.00" fill="#000000">lexinfoRegister</text>
</g>
<!-- lexinfosingular -->
<g id="node14" class="node">
<title>lexinfosingular</title>
<path fill="none" stroke="#000000" d="M1729,-36C1729,-36 1643,-36 1643,-36 1637,-36 1631,-30 1631,-24 1631,-24 1631,-12 1631,-12 1631,-6 1637,0 1643,0 1643,0 1729,0 1729,0 1735,0 1741,-6 1741,-12 1741,-12 1741,-24 1741,-24 1741,-30 1735,-36 1729,-36"/>
<polygon fill="#add8e6" stroke="transparent" points="1639,-10 1639,-25 1733,-25 1733,-10 1639,-10"/>
<text text-anchor="start" x="1641.5" y="-16" font-family="Times,serif" font-style="italic" font-size="10.00" fill="#000000">lexinfosingular:Class</text>
</g>
<!-- cgnlexwform147297&#45;&gt;lexinfosingular -->
<g id="edge20" class="edge">
<title>cgnlexwform147297&#45;&gt;lexinfosingular</title>
<path fill="none" stroke="#000088" d="M1852.6896,-110.6523C1879.4345,-95.0525 1897.7292,-75.3218 1880,-54 1863.7618,-34.4713 1801.2455,-25.4876 1751.511,-21.3849"/>
<polygon fill="#000088" stroke="#000088" points="1741.4332,-20.6046 1751.7508,-16.8901 1746.4183,-20.9906 1751.4034,-21.3766 1751.4034,-21.3766 1751.4034,-21.3766 1746.4183,-20.9906 1751.0559,-25.8632 1741.4332,-20.6046 1741.4332,-20.6046"/>
<text text-anchor="middle" x="1908.5" y="-56.6" font-family="Times,serif" font-size="8.00" fill="#000000">lexinfonumber</text>
</g>
<!-- cgnlexwform807576&#45;&gt;lexinfoneutralRegister -->
<g id="edge21" class="edge">
<title>cgnlexwform807576&#45;&gt;lexinfoneutralRegister</title>
<path fill="none" stroke="#000088" d="M1423.5103,-107.4825C1446.3584,-92.3155 1460.7628,-73.7307 1445,-54 1434.5489,-40.9181 1399.7932,-32.2385 1365.4321,-26.6864"/>
<polygon fill="#000088" stroke="#000088" points="1355.2918,-25.1324 1365.8581,-22.1993 1360.2341,-25.8899 1365.1764,-26.6473 1365.1764,-26.6473 1365.1764,-26.6473 1360.2341,-25.8899 1364.4947,-31.0954 1355.2918,-25.1324 1355.2918,-25.1324"/>
<text text-anchor="middle" x="1475" y="-56.6" font-family="Times,serif" font-size="8.00" fill="#000000">lexinfoRegister</text>
</g>
<!-- cgnlexwform807576&#45;&gt;lexinfoneutralRegister -->
<g id="edge22" class="edge">
<title>cgnlexwform807576&#45;&gt;lexinfoneutralRegister</title>
<path fill="none" stroke="#000088" d="M1375.4396,-88.227C1378.9426,-76.4309 1378.9395,-64.4279 1372,-54 1368.9175,-49.368 1365.1122,-45.3309 1360.8338,-41.8123"/>
<polygon fill="#000088" stroke="#000088" points="1352.6757,-36.0226 1363.4352,-38.1404 1356.7532,-38.9164 1360.8308,-41.8102 1360.8308,-41.8102 1360.8308,-41.8102 1356.7532,-38.9164 1358.2264,-45.4799 1352.6757,-36.0226 1352.6757,-36.0226"/>
<text text-anchor="middle" x="1401" y="-56.6" font-family="Times,serif" font-size="8.00" fill="#000000">lexinfoRegister</text>
</g>
<!-- cgnlexwform807576&#45;&gt;lexinfoformalRegister -->
<g id="edge23" class="edge">
<title>cgnlexwform807576&#45;&gt;lexinfoformalRegister</title>
<path fill="none" stroke="#000088" d="M1324.3026,-88.4696C1318.6831,-75.2148 1310.6032,-62.4965 1299,-54 1286.0744,-44.5351 1087.3182,-30.3317 973.5027,-22.9118"/>
<polygon fill="#000088" stroke="#000088" points="963.437,-22.2589 973.7074,-18.4157 968.4265,-22.5826 973.416,-22.9063 973.416,-22.9063 973.416,-22.9063 968.4265,-22.5826 973.1247,-27.3969 963.437,-22.2589 963.437,-22.2589"/>
<text text-anchor="middle" x="1333" y="-56.6" font-family="Times,serif" font-size="8.00" fill="#000000">lexinfoRegister</text>
</g>
<!-- cgnlexwform862734&#45;&gt;lexinfoneutralRegister -->
<g id="edge24" class="edge">
<title>cgnlexwform862734&#45;&gt;lexinfoneutralRegister</title>
<path fill="none" stroke="#000088" d="M1094.3486,-88.4298C1094.8891,-75.9533 1098.0339,-63.609 1106,-54 1119.1339,-38.1575 1164.826,-29.1375 1206.8839,-24.0882"/>
<polygon fill="#000088" stroke="#000088" points="1216.9104,-22.9489 1207.4824,-28.5492 1211.9424,-23.5135 1206.9744,-24.078 1206.9744,-24.078 1206.9744,-24.078 1211.9424,-23.5135 1206.4663,-19.6068 1216.9104,-22.9489 1216.9104,-22.9489"/>
<text text-anchor="middle" x="1131" y="-56.6" font-family="Times,serif" font-size="8.00" fill="#000000">lexinfoRegister</text>
</g>
<!-- cgnlexwform862734&#45;&gt;lexinfoneutralRegister -->
<g id="edge25" class="edge">
<title>cgnlexwform862734&#45;&gt;lexinfoneutralRegister</title>
<path fill="none" stroke="#000088" d="M1142.855,-88.2687C1153.3668,-75.6506 1165.6133,-63.2828 1179,-54 1187.6048,-48.0331 1197.2783,-42.9888 1207.1996,-38.7419"/>
<polygon fill="#000088" stroke="#000088" points="1216.7609,-34.9103 1209.1524,-42.8072 1212.1197,-36.7702 1207.4785,-38.6301 1207.4785,-38.6301 1207.4785,-38.6301 1212.1197,-36.7702 1205.8046,-34.4531 1216.7609,-34.9103 1216.7609,-34.9103"/>
<text text-anchor="middle" x="1204" y="-56.6" font-family="Times,serif" font-size="8.00" fill="#000000">lexinfoRegister</text>
</g>
<!-- cgnlexwform862734&#45;&gt;lexinfoformalRegister -->
<g id="edge26" class="edge">
<title>cgnlexwform862734&#45;&gt;lexinfoformalRegister</title>
<path fill="none" stroke="#000088" d="M1054.3394,-88.2845C1040.9072,-75.6659 1025.7308,-63.294 1010,-54 998.5892,-47.2583 985.7834,-41.6487 972.9718,-37.0237"/>
<polygon fill="#000088" stroke="#000088" points="963.1966,-33.6764 974.1151,-32.6587 967.9269,-35.2962 972.6573,-36.916 972.6573,-36.916 972.6573,-36.916 967.9269,-35.2962 971.1994,-41.1734 963.1966,-33.6764 963.1966,-33.6764"/>
<text text-anchor="middle" x="1046" y="-56.6" font-family="Times,serif" font-size="8.00" fill="#000000">lexinfoRegister</text>
</g>
<!-- cgnlexwform862734&#45;&gt;lexinfosingular -->
<g id="edge27" class="edge">
<title>cgnlexwform862734&#45;&gt;lexinfosingular</title>
<path fill="none" stroke="#000088" d="M1190.2639,-88.4237C1216.7411,-71.3238 1240.8874,-56.3916 1248,-54 1282.3637,-42.4454 1507.1385,-28.204 1620.642,-21.6346"/>
<polygon fill="#000088" stroke="#000088" points="1630.9377,-21.0421 1621.2128,-26.1093 1625.946,-21.3294 1620.9542,-21.6167 1620.9542,-21.6167 1620.9542,-21.6167 1625.946,-21.3294 1620.6957,-17.1241 1630.9377,-21.0421 1630.9377,-21.0421"/>
<text text-anchor="middle" x="1271.5" y="-56.6" font-family="Times,serif" font-size="8.00" fill="#000000">lexinfonumber</text>
</g>
<!-- cgnlexwform147514&#45;&gt;lexinfoneutralRegister -->
<g id="edge28" class="edge">
<title>cgnlexwform147514&#45;&gt;lexinfoneutralRegister</title>
<path fill="none" stroke="#000088" d="M916.1528,-80.9287C928.2323,-70.3396 941.7173,-60.6592 956,-54 999.0593,-33.9239 1123.5334,-24.7751 1206.6939,-20.8057"/>
<polygon fill="#000088" stroke="#000088" points="1216.875,-20.3356 1207.0932,-25.2921 1211.8803,-20.5662 1206.8856,-20.7969 1206.8856,-20.7969 1206.8856,-20.7969 1211.8803,-20.5662 1206.6781,-16.3017 1216.875,-20.3356 1216.875,-20.3356"/>
<text text-anchor="middle" x="981" y="-56.6" font-family="Times,serif" font-size="8.00" fill="#000000">lexinfoRegister</text>
</g>
<!-- cgnlexwform147514&#45;&gt;lexinfoneutralRegister -->
<g id="edge29" class="edge">
<title>cgnlexwform147514&#45;&gt;lexinfoneutralRegister</title>
<path fill="none" stroke="#000088" d="M867.9868,-80.9485C871.8512,-70.6282 877.5775,-61.04 886,-54 898.1226,-43.8673 1093.6504,-30.0333 1206.7589,-22.8208"/>
<polygon fill="#000088" stroke="#000088" points="1216.7675,-22.1862 1207.0724,-27.3101 1211.7776,-22.5026 1206.7876,-22.8191 1206.7876,-22.8191 1206.7876,-22.8191 1211.7776,-22.5026 1206.5028,-18.3281 1216.7675,-22.1862 1216.7675,-22.1862"/>
<text text-anchor="middle" x="911" y="-56.6" font-family="Times,serif" font-size="8.00" fill="#000000">lexinfoRegister</text>
</g>
<!-- cgnlexwform147514&#45;&gt;lexinfoformalRegister -->
<g id="edge30" class="edge">
<title>cgnlexwform147514&#45;&gt;lexinfoformalRegister</title>
<path fill="none" stroke="#000088" d="M809.9407,-80.9311C807.7437,-71.7238 808.4771,-62.4984 814,-54 816.9127,-49.5181 820.5261,-45.5896 824.5966,-42.147"/>
<polygon fill="#000088" stroke="#000088" points="832.9235,-36.1076 827.4705,-45.6216 828.8759,-39.0432 824.8284,-41.9789 824.8284,-41.9789 824.8284,-41.9789 828.8759,-39.0432 822.1864,-38.3361 832.9235,-36.1076 832.9235,-36.1076"/>
<text text-anchor="middle" x="839" y="-56.6" font-family="Times,serif" font-size="8.00" fill="#000000">lexinfoRegister</text>
</g>
<!-- cgnlexwform147514&#45;&gt;lexinfoplural -->
<g id="edge31" class="edge">
<title>cgnlexwform147514&#45;&gt;lexinfoplural</title>
<path fill="none" stroke="#000088" d="M774.4024,-86.3883C771.5747,-84.5616 768.7685,-82.7614 766,-81 746.3214,-68.4799 741.0435,-65.9273 721,-54 714.0898,-49.888 706.7299,-45.5278 699.6007,-41.3145"/>
<polygon fill="#000088" stroke="#000088" points="690.7451,-36.086 701.6441,-37.2952 695.0507,-38.6281 699.3562,-41.1702 699.3562,-41.1702 699.3562,-41.1702 695.0507,-38.6281 697.0684,-45.0452 690.7451,-36.086 690.7451,-36.086"/>
<text text-anchor="middle" x="758.5" y="-56.6" font-family="Times,serif" font-size="8.00" fill="#000000">lexinfonumber</text>
</g>
<!-- cgnlexwform802537&#45;&gt;lexinfoneutralRegister -->
<g id="edge32" class="edge">
<title>cgnlexwform802537&#45;&gt;lexinfoneutralRegister</title>
<path fill="none" stroke="#000088" d="M1543.3205,-103.4278C1534.4599,-85.479 1521.5759,-65.9062 1504,-54 1481.6603,-38.8668 1418.0383,-29.4944 1365.2534,-24.1213"/>
<polygon fill="#000088" stroke="#000088" points="1355.1966,-23.1318 1365.5892,-19.6327 1360.1726,-23.6215 1365.1485,-24.1111 1365.1485,-24.1111 1365.1485,-24.1111 1360.1726,-23.6215 1364.7079,-28.5895 1355.1966,-23.1318 1355.1966,-23.1318"/>
<text text-anchor="middle" x="1540" y="-56.6" font-family="Times,serif" font-size="8.00" fill="#000000">lexinfoRegister</text>
</g>
<!-- cgnlexwform802537&#45;&gt;lexinfoneutralRegister -->
<g id="edge33" class="edge">
<title>cgnlexwform802537&#45;&gt;lexinfoneutralRegister</title>
<path fill="none" stroke="#000088" d="M1576.2135,-103.2302C1580.3299,-86.1051 1580.6612,-67.2385 1569,-54 1555.6649,-38.8611 1444.6652,-28.4098 1365.7227,-22.8117"/>
<polygon fill="#000088" stroke="#000088" points="1355.2952,-22.0871 1365.5832,-18.2913 1360.2832,-22.4338 1365.2711,-22.7804 1365.2711,-22.7804 1365.2711,-22.7804 1360.2832,-22.4338 1364.9591,-27.2696 1355.2952,-22.0871 1355.2952,-22.0871"/>
<text text-anchor="middle" x="1599" y="-56.6" font-family="Times,serif" font-size="8.00" fill="#000000">lexinfoRegister</text>
</g>
<!-- cgnlexwform802537&#45;&gt;lexinfosingular -->
<g id="edge34" class="edge">
<title>cgnlexwform802537&#45;&gt;lexinfosingular</title>
<path fill="none" stroke="#000088" d="M1621.755,-103.4844C1636.8065,-91.6075 1651.983,-77.8225 1664,-63 1668.2409,-57.769 1671.9291,-51.5852 1675.011,-45.5036"/>
<polygon fill="#000088" stroke="#000088" points="1679.3472,-36.1825 1679.2093,-47.1476 1677.2382,-40.716 1675.1292,-45.2495 1675.1292,-45.2495 1675.1292,-45.2495 1677.2382,-40.716 1671.0491,-43.3514 1679.3472,-36.1825 1679.3472,-36.1825"/>
<text text-anchor="middle" x="1693.5" y="-56.6" font-family="Times,serif" font-size="8.00" fill="#000000">lexinfonumber</text>
</g>
</g>
</svg>
