<svg width="4949pt" height="242pt"
 viewBox="0.00 0.00 4948.50 242.00" xmlns="http://www.w3.org/2000/svg" xmlns:xlink="http://www.w3.org/1999/xlink">
<g id="graph0" class="graph" transform="scale(1 1) rotate(0) translate(4 238)">
<title>G</title>
<polygon fill="#ffffff" stroke="transparent" points="-4,4 -4,-238 4944.5,-238 4944.5,4 -4,4"/>
<!-- sensebet4078336definition -->
<g id="node1" class="node">
<title>sensebet4078336definition</title>
<path fill="none" stroke="#000000" d="M2205.5,-45.5C2205.5,-45.5 2060.5,-45.5 2060.5,-45.5 2054.5,-45.5 2048.5,-39.5 2048.5,-33.5 2048.5,-33.5 2048.5,-19.5 2048.5,-19.5 2048.5,-13.5 2054.5,-7.5 2060.5,-7.5 2060.5,-7.5 2205.5,-7.5 2205.5,-7.5 2211.5,-7.5 2217.5,-13.5 2217.5,-19.5 2217.5,-19.5 2217.5,-33.5 2217.5,-33.5 2217.5,-39.5 2211.5,-45.5 2205.5,-45.5"/>
<polygon fill="#add8e6" stroke="transparent" points="2057,-26.5 2057,-41.5 2210,-41.5 2210,-26.5 2057,-26.5"/>
<text text-anchor="start" x="2059" y="-32.5" font-family="Times,serif" font-style="italic" font-size="10.00" fill="#000000">sensebet4.0_78336_definition:UNK</text>
<text text-anchor="start" x="2065" y="-16.5" font-family="Times,serif" font-size="10.00" fill="#000000">value</text>
<text text-anchor="start" x="2104" y="-16.5" font-family="Times,serif" font-size="10.00" fill="#000000">bitse opmerking; snauw</text>
</g>
<!-- sensebet1078333definition -->
<g id="node2" class="node">
<title>sensebet1078333definition</title>
<path fill="none" stroke="#000000" d="M4335.5,-53C4335.5,-53 3700.5,-53 3700.5,-53 3694.5,-53 3688.5,-47 3688.5,-41 3688.5,-41 3688.5,-12 3688.5,-12 3688.5,-6 3694.5,0 3700.5,0 3700.5,0 4335.5,0 4335.5,0 4341.5,0 4347.5,-6 4347.5,-12 4347.5,-12 4347.5,-41 4347.5,-41 4347.5,-47 4341.5,-53 4335.5,-53"/>
<polygon fill="#add8e6" stroke="transparent" points="3697,-33.5 3697,-48.5 4340,-48.5 4340,-33.5 3697,-33.5"/>
<text text-anchor="start" x="3944" y="-39.5" font-family="Times,serif" font-style="italic" font-size="10.00" fill="#000000">sensebet1.0_78333_definition:UNK</text>
<text text-anchor="start" x="3734.5" y="-23.5" font-family="Times,serif" font-size="10.00" fill="#000000">value</text>
<text text-anchor="start" x="3797" y="-23.5" font-family="Times,serif" font-size="10.00" fill="#000000">klein huisdier dat miauwt en spint en dat gehouden wordt als gezelschapsdier of voor het vangen van muizen en ratten; huiskat; poes</text>
<text text-anchor="start" x="3699" y="-8.5" font-family="Times,serif" font-size="10.00" fill="#000000">definitionComplement</text>
<text text-anchor="start" x="3902" y="-8.5" font-family="Times,serif" font-size="10.00" fill="#000000">Zowel in toepassing op dieren van het vrouwelijk als van het mannelijk geslacht.</text>
</g>
<!-- sensebet80204831definition -->
<g id="node3" class="node">
<title>sensebet80204831definition</title>
<path fill="none" stroke="#000000" d="M2018,-53C2018,-53 1468,-53 1468,-53 1462,-53 1456,-47 1456,-41 1456,-41 1456,-12 1456,-12 1456,-6 1462,0 1468,0 1468,0 2018,0 2018,0 2024,0 2030,-6 2030,-12 2030,-12 2030,-41 2030,-41 2030,-47 2024,-53 2018,-53"/>
<polygon fill="#add8e6" stroke="transparent" points="1464,-33.5 1464,-48.5 2022,-48.5 2022,-33.5 1464,-33.5"/>
<text text-anchor="start" x="1666" y="-39.5" font-family="Times,serif" font-style="italic" font-size="10.00" fill="#000000">sensebet8.0_204831_definition:UNK</text>
<text text-anchor="start" x="1501.5" y="-23.5" font-family="Times,serif" font-size="10.00" fill="#000000">value</text>
<text text-anchor="start" x="1564" y="-23.5" font-family="Times,serif" font-size="10.00" fill="#000000">gesel van touwen met geknoopte uiteinden waarmee men vroeger misdadige matrozen of slaven strafte; geselkat</text>
<text text-anchor="start" x="1466" y="-8.5" font-family="Times,serif" font-size="10.00" fill="#000000">definitionComplement</text>
<text text-anchor="start" x="1588.5" y="-8.5" font-family="Times,serif" font-size="10.00" fill="#000000">Alleen in historiserend taalgebruik en meestal in de verbinding kat met de negen (of zeven) staarten.</text>
</g>
<!-- sensebet3078335definition -->
<g id="node4" class="node">
<title>sensebet3078335definition</title>
<path fill="none" stroke="#000000" d="M208,-45.5C208,-45.5 12,-45.5 12,-45.5 6,-45.5 0,-39.5 0,-33.5 0,-33.5 0,-19.5 0,-19.5 0,-13.5 6,-7.5 12,-7.5 12,-7.5 208,-7.5 208,-7.5 214,-7.5 220,-13.5 220,-19.5 220,-19.5 220,-33.5 220,-33.5 220,-39.5 214,-45.5 208,-45.5"/>
<polygon fill="#add8e6" stroke="transparent" points="8,-26.5 8,-41.5 212,-41.5 212,-26.5 8,-26.5"/>
<text text-anchor="start" x="35.5" y="-32.5" font-family="Times,serif" font-style="italic" font-size="10.00" fill="#000000">sensebet3.0_78335_definition:UNK</text>
<text text-anchor="start" x="10" y="-16.5" font-family="Times,serif" font-size="10.00" fill="#000000">value</text>
<text text-anchor="start" x="37" y="-16.5" font-family="Times,serif" font-size="10.00" fill="#000000">bitse, vinnige vrouw; bits of vinnig meisje</text>
</g>
<!-- sensebet11195644definition -->
<g id="node5" class="node">
<title>sensebet11195644definition</title>
<path fill="none" stroke="#000000" d="M3033,-45.5C3033,-45.5 2817,-45.5 2817,-45.5 2811,-45.5 2805,-39.5 2805,-33.5 2805,-33.5 2805,-19.5 2805,-19.5 2805,-13.5 2811,-7.5 2817,-7.5 2817,-7.5 3033,-7.5 3033,-7.5 3039,-7.5 3045,-13.5 3045,-19.5 3045,-19.5 3045,-33.5 3045,-33.5 3045,-39.5 3039,-45.5 3033,-45.5"/>
<polygon fill="#add8e6" stroke="transparent" points="2813,-26.5 2813,-41.5 3037,-41.5 3037,-26.5 2813,-26.5"/>
<text text-anchor="start" x="2848" y="-32.5" font-family="Times,serif" font-style="italic" font-size="10.00" fill="#000000">sensebet1.1_195644_definition:UNK</text>
<text text-anchor="start" x="2815" y="-16.5" font-family="Times,serif" font-size="10.00" fill="#000000">value</text>
<text text-anchor="start" x="2842" y="-16.5" font-family="Times,serif" font-size="10.00" fill="#000000">beeld of afbeelding van een kat, bv. in de kunst</text>
</g>
<!-- sensebet2078334 -->
<g id="node6" class="node">
<title>sensebet2078334</title>
<path fill="none" stroke="#000000" d="M2560.5,-143.5C2560.5,-143.5 2461.5,-143.5 2461.5,-143.5 2455.5,-143.5 2449.5,-137.5 2449.5,-131.5 2449.5,-131.5 2449.5,-117.5 2449.5,-117.5 2449.5,-111.5 2455.5,-105.5 2461.5,-105.5 2461.5,-105.5 2560.5,-105.5 2560.5,-105.5 2566.5,-105.5 2572.5,-111.5 2572.5,-117.5 2572.5,-117.5 2572.5,-131.5 2572.5,-131.5 2572.5,-137.5 2566.5,-143.5 2560.5,-143.5"/>
<polygon fill="#add8e6" stroke="transparent" points="2458,-124.5 2458,-139.5 2565,-139.5 2565,-124.5 2458,-124.5"/>
<text text-anchor="start" x="2460" y="-130.5" font-family="Times,serif" font-style="italic" font-size="10.00" fill="#000000">sensebet2.0_78334:UNK</text>
<text text-anchor="start" x="2471.5" y="-114.5" font-family="Times,serif" font-size="10.00" fill="#000000">senseOrder</text>
<text text-anchor="start" x="2545" y="-114.5" font-family="Times,serif" font-size="10.00" fill="#000000">2</text>
</g>
<!-- sensebet2078334definition -->
<g id="node7" class="node">
<title>sensebet2078334definition</title>
<path fill="none" stroke="#000000" d="M2774.5,-53C2774.5,-53 2247.5,-53 2247.5,-53 2241.5,-53 2235.5,-47 2235.5,-41 2235.5,-41 2235.5,-12 2235.5,-12 2235.5,-6 2241.5,0 2247.5,0 2247.5,0 2774.5,0 2774.5,0 2780.5,0 2786.5,-6 2786.5,-12 2786.5,-12 2786.5,-41 2786.5,-41 2786.5,-47 2780.5,-53 2774.5,-53"/>
<polygon fill="#add8e6" stroke="transparent" points="2244,-33.5 2244,-48.5 2779,-48.5 2779,-33.5 2244,-33.5"/>
<text text-anchor="start" x="2437" y="-39.5" font-family="Times,serif" font-style="italic" font-size="10.00" fill="#000000">sensebet2.0_78334_definition:UNK</text>
<text text-anchor="start" x="2281.5" y="-23.5" font-family="Times,serif" font-size="10.00" fill="#000000">value</text>
<text text-anchor="start" x="2344" y="-23.5" font-family="Times,serif" font-size="10.00" fill="#000000">roofdier dat behoort tot de familie van de katachtigen (Felidae), bv. een tijger, leeuw of huiskat; katachtige</text>
<text text-anchor="start" x="2246" y="-8.5" font-family="Times,serif" font-size="10.00" fill="#000000">definitionComplement</text>
<text text-anchor="start" x="2514" y="-8.5" font-family="Times,serif" font-size="10.00" fill="#000000">Vaak in het meervoud.</text>
</g>
<!-- sensebet2078334&#45;&gt;sensebet2078334definition -->
<g id="edge1" class="edge">
<title>sensebet2078334&#45;&gt;sensebet2078334definition</title>
<path fill="none" stroke="#000088" d="M2511,-105.1384C2511,-93.1985 2511,-77.4978 2511,-63.2676"/>
<polygon fill="#000088" stroke="#000088" points="2511,-53.2405 2515.5001,-63.2404 2511,-58.2405 2511.0001,-63.2405 2511.0001,-63.2405 2511.0001,-63.2405 2511,-58.2405 2506.5001,-63.2405 2511,-53.2405 2511,-53.2405"/>
<text text-anchor="middle" x="2526.5" y="-73.6" font-family="Times,serif" font-size="8.00" fill="#000000">definition</text>
</g>
<!-- lemmavorm78332 -->
<g id="node8" class="node">
<title>lemmavorm78332</title>
<path fill="none" stroke="#000000" d="M2419.5,-151C2419.5,-151 2296.5,-151 2296.5,-151 2290.5,-151 2284.5,-145 2284.5,-139 2284.5,-139 2284.5,-110 2284.5,-110 2284.5,-104 2290.5,-98 2296.5,-98 2296.5,-98 2419.5,-98 2419.5,-98 2425.5,-98 2431.5,-104 2431.5,-110 2431.5,-110 2431.5,-139 2431.5,-139 2431.5,-145 2425.5,-151 2419.5,-151"/>
<polygon fill="#add8e6" stroke="transparent" points="2293,-131.5 2293,-146.5 2424,-146.5 2424,-131.5 2293,-131.5"/>
<text text-anchor="start" x="2305.5" y="-137.5" font-family="Times,serif" font-style="italic" font-size="10.00" fill="#000000">lemmavorm_78332:Form</text>
<text text-anchor="start" x="2298.5" y="-121.5" font-family="Times,serif" font-size="10.00" fill="#000000">writtenRepresentation</text>
<text text-anchor="start" x="2403" y="-121.5" font-family="Times,serif" font-size="10.00" fill="#000000">kat</text>
<text text-anchor="start" x="2295" y="-106.5" font-family="Times,serif" font-size="10.00" fill="#000000">phoneticRepresentation</text>
<text text-anchor="start" x="2397" y="-106.5" font-family="Times,serif" font-size="10.00" fill="#000000">*k ɑ t</text>
</g>
<!-- sensebet50204707 -->
<g id="node9" class="node">
<title>sensebet50204707</title>
<path fill="none" stroke="#000000" d="M1436.5,-143.5C1436.5,-143.5 1331.5,-143.5 1331.5,-143.5 1325.5,-143.5 1319.5,-137.5 1319.5,-131.5 1319.5,-131.5 1319.5,-117.5 1319.5,-117.5 1319.5,-111.5 1325.5,-105.5 1331.5,-105.5 1331.5,-105.5 1436.5,-105.5 1436.5,-105.5 1442.5,-105.5 1448.5,-111.5 1448.5,-117.5 1448.5,-117.5 1448.5,-131.5 1448.5,-131.5 1448.5,-137.5 1442.5,-143.5 1436.5,-143.5"/>
<polygon fill="#add8e6" stroke="transparent" points="1328,-124.5 1328,-139.5 1441,-139.5 1441,-124.5 1328,-124.5"/>
<text text-anchor="start" x="1330" y="-130.5" font-family="Times,serif" font-style="italic" font-size="10.00" fill="#000000">sensebet5.0_204707:UNK</text>
<text text-anchor="start" x="1343" y="-114.5" font-family="Times,serif" font-size="10.00" fill="#000000">senseOrder</text>
<text text-anchor="start" x="1419.5" y="-114.5" font-family="Times,serif" font-size="10.00" fill="#000000">5</text>
</g>
<!-- sensebet50204707definition -->
<g id="node10" class="node">
<title>sensebet50204707definition</title>
<path fill="none" stroke="#000000" d="M1425.5,-53C1425.5,-53 250.5,-53 250.5,-53 244.5,-53 238.5,-47 238.5,-41 238.5,-41 238.5,-12 238.5,-12 238.5,-6 244.5,0 250.5,0 250.5,0 1425.5,0 1425.5,0 1431.5,0 1437.5,-6 1437.5,-12 1437.5,-12 1437.5,-41 1437.5,-41 1437.5,-47 1431.5,-53 1425.5,-53"/>
<polygon fill="#add8e6" stroke="transparent" points="247,-33.5 247,-48.5 1430,-48.5 1430,-33.5 247,-33.5"/>
<text text-anchor="start" x="761.5" y="-39.5" font-family="Times,serif" font-style="italic" font-size="10.00" fill="#000000">sensebet5.0_204707_definition:UNK</text>
<text text-anchor="start" x="284.5" y="-23.5" font-family="Times,serif" font-size="10.00" fill="#000000">value</text>
<text text-anchor="start" x="347" y="-23.5" font-family="Times,serif" font-size="10.00" fill="#000000">middeleeuws belegeringswerktuig in de vorm van een lage, langwerpige houten constructie op rollen, die de aanvallers tegen een vestingmuur plaatsten om beschut en ongehinderd een bres in de muur te slaan, een muur te ondergraven of een vestinggracht te dempen</text>
<text text-anchor="start" x="249" y="-8.5" font-family="Times,serif" font-size="10.00" fill="#000000">definitionComplement</text>
<text text-anchor="start" x="815" y="-8.5" font-family="Times,serif" font-size="10.00" fill="#000000">Alleen in historiserend taalgebruik.</text>
</g>
<!-- sensebet50204707&#45;&gt;sensebet50204707definition -->
<g id="edge2" class="edge">
<title>sensebet50204707&#45;&gt;sensebet50204707definition</title>
<path fill="none" stroke="#000088" d="M1319.4921,-112.9217C1240.3401,-98.7149 1103.4043,-74.1367 995.7527,-54.8146"/>
<polygon fill="#000088" stroke="#000088" points="985.7588,-53.0208 996.3965,-50.3583 990.6802,-53.9042 995.6015,-54.7875 995.6015,-54.7875 995.6015,-54.7875 990.6802,-53.9042 994.8065,-59.2168 985.7588,-53.0208 985.7588,-53.0208"/>
<text text-anchor="middle" x="1143.5" y="-73.6" font-family="Times,serif" font-size="8.00" fill="#000000">definition</text>
</g>
<!-- relationsensebet11195644 -->
<g id="node11" class="node">
<title>relationsensebet11195644</title>
<path fill="none" stroke="#000000" d="M3181,-233C3181,-233 3001,-233 3001,-233 2995,-233 2989,-227 2989,-221 2989,-221 2989,-209 2989,-209 2989,-203 2995,-197 3001,-197 3001,-197 3181,-197 3181,-197 3187,-197 3193,-203 3193,-209 3193,-209 3193,-221 3193,-221 3193,-227 3187,-233 3181,-233"/>
<polygon fill="#add8e6" stroke="transparent" points="2997,-207 2997,-222 3185,-222 3185,-207 2997,-207"/>
<text text-anchor="start" x="2999" y="-213" font-family="Times,serif" font-style="italic" font-size="10.00" fill="#000000">relation_sensebet1.1_195644:SenseRelation</text>
</g>
<!-- sensebet1078333 -->
<g id="node12" class="node">
<title>sensebet1078333</title>
<path fill="none" stroke="#000000" d="M3144,-142.5C3144,-142.5 3038,-142.5 3038,-142.5 3032,-142.5 3026,-136.5 3026,-130.5 3026,-130.5 3026,-118.5 3026,-118.5 3026,-112.5 3032,-106.5 3038,-106.5 3038,-106.5 3144,-106.5 3144,-106.5 3150,-106.5 3156,-112.5 3156,-118.5 3156,-118.5 3156,-130.5 3156,-130.5 3156,-136.5 3150,-142.5 3144,-142.5"/>
<polygon fill="#add8e6" stroke="transparent" points="3034,-116.5 3034,-131.5 3148,-131.5 3148,-116.5 3034,-116.5"/>
<text text-anchor="start" x="3036" y="-122.5" font-family="Times,serif" font-style="italic" font-size="10.00" fill="#000000">sense_bet1.0_78333:Class</text>
</g>
<!-- relationsensebet11195644&#45;&gt;sensebet1078333 -->
<g id="edge3" class="edge">
<title>relationsensebet11195644&#45;&gt;sensebet1078333</title>
<path fill="none" stroke="#000088" d="M3091,-196.686C3091,-184.174 3091,-167.342 3091,-153.0789"/>
<polygon fill="#000088" stroke="#000088" points="3091,-142.7868 3095.5001,-152.7867 3091,-147.7868 3091.0001,-152.7868 3091.0001,-152.7868 3091.0001,-152.7868 3091,-147.7868 3086.5001,-152.7868 3091,-142.7868 3091,-142.7868"/>
<text text-anchor="middle" x="3102" y="-171.6" font-family="Times,serif" font-size="8.00" fill="#000000">source</text>
</g>
<!-- sensebet11195644 -->
<g id="node13" class="node">
<title>sensebet11195644</title>
<path fill="none" stroke="#000000" d="M2848,-142.5C2848,-142.5 2736,-142.5 2736,-142.5 2730,-142.5 2724,-136.5 2724,-130.5 2724,-130.5 2724,-118.5 2724,-118.5 2724,-112.5 2730,-106.5 2736,-106.5 2736,-106.5 2848,-106.5 2848,-106.5 2854,-106.5 2860,-112.5 2860,-118.5 2860,-118.5 2860,-130.5 2860,-130.5 2860,-136.5 2854,-142.5 2848,-142.5"/>
<polygon fill="#add8e6" stroke="transparent" points="2732,-116.5 2732,-131.5 2852,-131.5 2852,-116.5 2732,-116.5"/>
<text text-anchor="start" x="2734.5" y="-122.5" font-family="Times,serif" font-style="italic" font-size="10.00" fill="#000000">sense_bet1.1_195644:Class</text>
</g>
<!-- relationsensebet11195644&#45;&gt;sensebet11195644 -->
<g id="edge4" class="edge">
<title>relationsensebet11195644&#45;&gt;sensebet11195644</title>
<path fill="none" stroke="#000088" d="M3038.3495,-196.8889C3011.476,-187.9448 2978.1695,-177.3176 2948,-169 2913.7018,-159.5442 2904.2201,-160.7348 2870,-151 2864.36,-149.3956 2858.5259,-147.6253 2852.7045,-145.7835"/>
<polygon fill="#000088" stroke="#000088" points="2842.9559,-142.6331 2853.8552,-141.4263 2847.7137,-144.1707 2852.4714,-145.7083 2852.4714,-145.7083 2852.4714,-145.7083 2847.7137,-144.1707 2851.0875,-149.9902 2842.9559,-142.6331 2842.9559,-142.6331"/>
<text text-anchor="middle" x="2984.5" y="-171.6" font-family="Times,serif" font-size="8.00" fill="#000000">target</text>
</g>
<!-- metonymie -->
<g id="node14" class="node">
<title>metonymie</title>
<path fill="none" stroke="#000000" d="M3402,-142.5C3402,-142.5 3334,-142.5 3334,-142.5 3328,-142.5 3322,-136.5 3322,-130.5 3322,-130.5 3322,-118.5 3322,-118.5 3322,-112.5 3328,-106.5 3334,-106.5 3334,-106.5 3402,-106.5 3402,-106.5 3408,-106.5 3414,-112.5 3414,-118.5 3414,-118.5 3414,-130.5 3414,-130.5 3414,-136.5 3408,-142.5 3402,-142.5"/>
<polygon fill="#add8e6" stroke="transparent" points="3330,-116.5 3330,-131.5 3406,-131.5 3406,-116.5 3330,-116.5"/>
<text text-anchor="start" x="3332.5" y="-122.5" font-family="Times,serif" font-style="italic" font-size="10.00" fill="#000000">metonymie:Class</text>
</g>
<!-- relationsensebet11195644&#45;&gt;metonymie -->
<g id="edge5" class="edge">
<title>relationsensebet11195644&#45;&gt;metonymie</title>
<path fill="none" stroke="#000088" d="M3165.264,-196.9394C3208.8861,-185.5063 3264.7558,-169.4262 3313,-151 3316.4191,-149.6941 3319.9166,-148.2584 3323.409,-146.7515"/>
<polygon fill="#000088" stroke="#000088" points="3332.5846,-142.6373 3325.3011,-150.8349 3328.0223,-144.683 3323.4599,-146.7288 3323.4599,-146.7288 3323.4599,-146.7288 3328.0223,-144.683 3321.6187,-142.6226 3332.5846,-142.6373 3332.5846,-142.6373"/>
<text text-anchor="middle" x="3273" y="-171.6" font-family="Times,serif" font-size="8.00" fill="#000000">category</text>
</g>
<!-- sensebet1078333&#45;&gt;sensebet1078333definition -->
<g id="edge6" class="edge">
<title>sensebet1078333&#45;&gt;sensebet1078333definition</title>
<path fill="none" stroke="#000088" d="M3136.073,-106.4826C3145.8103,-103.183 3156.1439,-100.1181 3166,-98 3179.0941,-95.186 3448.3625,-72.8083 3680.7168,-53.8264"/>
<polygon fill="#000088" stroke="#000088" points="3690.7054,-53.0107 3681.1049,-58.3098 3685.722,-53.4177 3680.7386,-53.8247 3680.7386,-53.8247 3680.7386,-53.8247 3685.722,-53.4177 3680.3722,-49.3397 3690.7054,-53.0107 3690.7054,-53.0107"/>
<text text-anchor="middle" x="3466.5" y="-73.6" font-family="Times,serif" font-size="8.00" fill="#000000">definition</text>
</g>
<!-- sensebet11195644&#45;&gt;sensebet11195644definition -->
<g id="edge7" class="edge">
<title>sensebet11195644&#45;&gt;sensebet11195644definition</title>
<path fill="none" stroke="#000088" d="M2816.7046,-106.2966C2837.5792,-90.9153 2867.6939,-68.7256 2890.8704,-51.6481"/>
<polygon fill="#000088" stroke="#000088" points="2899.0652,-45.6098 2893.6841,-55.1646 2895.04,-48.5758 2891.0147,-51.5418 2891.0147,-51.5418 2891.0147,-51.5418 2895.04,-48.5758 2888.3453,-47.9191 2899.0652,-45.6098 2899.0652,-45.6098"/>
<text text-anchor="middle" x="2877.5" y="-73.6" font-family="Times,serif" font-size="8.00" fill="#000000">definition</text>
</g>
<!-- sensebet70204817definition -->
<g id="node15" class="node">
<title>sensebet70204817definition</title>
<path fill="none" stroke="#000000" d="M3658.5,-45.5C3658.5,-45.5 3075.5,-45.5 3075.5,-45.5 3069.5,-45.5 3063.5,-39.5 3063.5,-33.5 3063.5,-33.5 3063.5,-19.5 3063.5,-19.5 3063.5,-13.5 3069.5,-7.5 3075.5,-7.5 3075.5,-7.5 3658.5,-7.5 3658.5,-7.5 3664.5,-7.5 3670.5,-13.5 3670.5,-19.5 3670.5,-19.5 3670.5,-33.5 3670.5,-33.5 3670.5,-39.5 3664.5,-45.5 3658.5,-45.5"/>
<polygon fill="#add8e6" stroke="transparent" points="3072,-26.5 3072,-41.5 3663,-41.5 3663,-26.5 3072,-26.5"/>
<text text-anchor="start" x="3290.5" y="-32.5" font-family="Times,serif" font-style="italic" font-size="10.00" fill="#000000">sensebet7.0_204817_definition:UNK</text>
<text text-anchor="start" x="3074" y="-16.5" font-family="Times,serif" font-size="10.00" fill="#000000">value</text>
<text text-anchor="start" x="3101" y="-16.5" font-family="Times,serif" font-size="10.00" fill="#000000">toestel waaraan een takel hangt en dat langs een geleidingsbaan wordt voortbewogen om lasten tussen vaste punten te vervoeren; loopkat</text>
</g>
<!-- sensebet70204817 -->
<g id="node16" class="node">
<title>sensebet70204817</title>
<path fill="none" stroke="#000000" d="M2995.5,-143.5C2995.5,-143.5 2890.5,-143.5 2890.5,-143.5 2884.5,-143.5 2878.5,-137.5 2878.5,-131.5 2878.5,-131.5 2878.5,-117.5 2878.5,-117.5 2878.5,-111.5 2884.5,-105.5 2890.5,-105.5 2890.5,-105.5 2995.5,-105.5 2995.5,-105.5 3001.5,-105.5 3007.5,-111.5 3007.5,-117.5 3007.5,-117.5 3007.5,-131.5 3007.5,-131.5 3007.5,-137.5 3001.5,-143.5 2995.5,-143.5"/>
<polygon fill="#add8e6" stroke="transparent" points="2887,-124.5 2887,-139.5 3000,-139.5 3000,-124.5 2887,-124.5"/>
<text text-anchor="start" x="2889" y="-130.5" font-family="Times,serif" font-style="italic" font-size="10.00" fill="#000000">sensebet7.0_204817:UNK</text>
<text text-anchor="start" x="2902" y="-114.5" font-family="Times,serif" font-size="10.00" fill="#000000">senseOrder</text>
<text text-anchor="start" x="2978.5" y="-114.5" font-family="Times,serif" font-size="10.00" fill="#000000">7</text>
</g>
<!-- sensebet70204817&#45;&gt;sensebet70204817definition -->
<g id="edge8" class="edge">
<title>sensebet70204817&#45;&gt;sensebet70204817definition</title>
<path fill="none" stroke="#000088" d="M2993.2453,-105.4262C3001.136,-102.7449 3009.2463,-100.1684 3017,-98 3090.996,-77.306 3175.3432,-59.896 3242.6925,-47.4381"/>
<polygon fill="#000088" stroke="#000088" points="3252.9265,-45.5589 3243.9037,-51.791 3248.0088,-46.4619 3243.091,-47.365 3243.091,-47.365 3243.091,-47.365 3248.0088,-46.4619 3242.2782,-42.939 3252.9265,-45.5589 3252.9265,-45.5589"/>
<text text-anchor="middle" x="3136.5" y="-73.6" font-family="Times,serif" font-size="8.00" fill="#000000">definition</text>
</g>
<!-- sensebet60204722 -->
<g id="node17" class="node">
<title>sensebet60204722</title>
<path fill="none" stroke="#000000" d="M3291.5,-143.5C3291.5,-143.5 3186.5,-143.5 3186.5,-143.5 3180.5,-143.5 3174.5,-137.5 3174.5,-131.5 3174.5,-131.5 3174.5,-117.5 3174.5,-117.5 3174.5,-111.5 3180.5,-105.5 3186.5,-105.5 3186.5,-105.5 3291.5,-105.5 3291.5,-105.5 3297.5,-105.5 3303.5,-111.5 3303.5,-117.5 3303.5,-117.5 3303.5,-131.5 3303.5,-131.5 3303.5,-137.5 3297.5,-143.5 3291.5,-143.5"/>
<polygon fill="#add8e6" stroke="transparent" points="3183,-124.5 3183,-139.5 3296,-139.5 3296,-124.5 3183,-124.5"/>
<text text-anchor="start" x="3185" y="-130.5" font-family="Times,serif" font-style="italic" font-size="10.00" fill="#000000">sensebet6.0_204722:UNK</text>
<text text-anchor="start" x="3198" y="-114.5" font-family="Times,serif" font-size="10.00" fill="#000000">senseOrder</text>
<text text-anchor="start" x="3274.5" y="-114.5" font-family="Times,serif" font-size="10.00" fill="#000000">6</text>
</g>
<!-- sensebet60204722definition -->
<g id="node18" class="node">
<title>sensebet60204722definition</title>
<path fill="none" stroke="#000000" d="M4928.5,-53C4928.5,-53 4377.5,-53 4377.5,-53 4371.5,-53 4365.5,-47 4365.5,-41 4365.5,-41 4365.5,-12 4365.5,-12 4365.5,-6 4371.5,0 4377.5,0 4377.5,0 4928.5,0 4928.5,0 4934.5,0 4940.5,-6 4940.5,-12 4940.5,-12 4940.5,-41 4940.5,-41 4940.5,-47 4934.5,-53 4928.5,-53"/>
<polygon fill="#add8e6" stroke="transparent" points="4374,-33.5 4374,-48.5 4933,-48.5 4933,-33.5 4374,-33.5"/>
<text text-anchor="start" x="4576.5" y="-39.5" font-family="Times,serif" font-style="italic" font-size="10.00" fill="#000000">sensebet6.0_204722_definition:UNK</text>
<text text-anchor="start" x="4411.5" y="-23.5" font-family="Times,serif" font-size="10.00" fill="#000000">value</text>
<text text-anchor="start" x="4474" y="-23.5" font-family="Times,serif" font-size="10.00" fill="#000000">hoog boven de wal uitstekende opstellingsplaats voor geschut, op een bastion of elders in een verdedigingswerk</text>
<text text-anchor="start" x="4376" y="-8.5" font-family="Times,serif" font-size="10.00" fill="#000000">definitionComplement</text>
<text text-anchor="start" x="4630" y="-8.5" font-family="Times,serif" font-size="10.00" fill="#000000">Alleen in historiserend taalgebruik.</text>
</g>
<!-- sensebet60204722&#45;&gt;sensebet60204722definition -->
<g id="edge9" class="edge">
<title>sensebet60204722&#45;&gt;sensebet60204722definition</title>
<path fill="none" stroke="#000088" d="M3285.7756,-105.3699C3294.683,-102.4109 3304.0277,-99.7579 3313,-98 3424.1595,-76.2206 4201.8078,-61.4154 4354.8515,-53.0661"/>
<polygon fill="#000088" stroke="#000088" points="4365.1475,-52.4514 4355.4335,-57.5395 4360.1564,-52.7494 4355.1653,-53.0475 4355.1653,-53.0475 4355.1653,-53.0475 4360.1564,-52.7494 4354.8971,-48.5555 4365.1475,-52.4514 4365.1475,-52.4514"/>
<text text-anchor="middle" x="3793.5" y="-73.6" font-family="Times,serif" font-size="8.00" fill="#000000">definition</text>
</g>
<!-- sensebet3078335 -->
<g id="node19" class="node">
<title>sensebet3078335</title>
<path fill="none" stroke="#000000" d="M618.5,-143.5C618.5,-143.5 519.5,-143.5 519.5,-143.5 513.5,-143.5 507.5,-137.5 507.5,-131.5 507.5,-131.5 507.5,-117.5 507.5,-117.5 507.5,-111.5 513.5,-105.5 519.5,-105.5 519.5,-105.5 618.5,-105.5 618.5,-105.5 624.5,-105.5 630.5,-111.5 630.5,-117.5 630.5,-117.5 630.5,-131.5 630.5,-131.5 630.5,-137.5 624.5,-143.5 618.5,-143.5"/>
<polygon fill="#add8e6" stroke="transparent" points="516,-124.5 516,-139.5 623,-139.5 623,-124.5 516,-124.5"/>
<text text-anchor="start" x="518" y="-130.5" font-family="Times,serif" font-style="italic" font-size="10.00" fill="#000000">sensebet3.0_78335:UNK</text>
<text text-anchor="start" x="529.5" y="-114.5" font-family="Times,serif" font-size="10.00" fill="#000000">senseOrder</text>
<text text-anchor="start" x="603" y="-114.5" font-family="Times,serif" font-size="10.00" fill="#000000">3</text>
</g>
<!-- sensebet3078335&#45;&gt;sensebet3078335definition -->
<g id="edge10" class="edge">
<title>sensebet3078335&#45;&gt;sensebet3078335definition</title>
<path fill="none" stroke="#000088" d="M507.2215,-111.7375C439.0551,-97.6019 326.1255,-74.0261 229,-53 221.1318,-51.2967 212.9748,-49.5145 204.7885,-47.7145"/>
<polygon fill="#000088" stroke="#000088" points="194.8058,-45.5142 205.5401,-43.2723 199.6886,-46.5905 204.5714,-47.6668 204.5714,-47.6668 204.5714,-47.6668 199.6886,-46.5905 203.6028,-52.0613 194.8058,-45.5142 194.8058,-45.5142"/>
<text text-anchor="middle" x="366.5" y="-73.6" font-family="Times,serif" font-size="8.00" fill="#000000">definition</text>
</g>
<!-- sensebet80204831 -->
<g id="node20" class="node">
<title>sensebet80204831</title>
<path fill="none" stroke="#000000" d="M1918.5,-143.5C1918.5,-143.5 1813.5,-143.5 1813.5,-143.5 1807.5,-143.5 1801.5,-137.5 1801.5,-131.5 1801.5,-131.5 1801.5,-117.5 1801.5,-117.5 1801.5,-111.5 1807.5,-105.5 1813.5,-105.5 1813.5,-105.5 1918.5,-105.5 1918.5,-105.5 1924.5,-105.5 1930.5,-111.5 1930.5,-117.5 1930.5,-117.5 1930.5,-131.5 1930.5,-131.5 1930.5,-137.5 1924.5,-143.5 1918.5,-143.5"/>
<polygon fill="#add8e6" stroke="transparent" points="1810,-124.5 1810,-139.5 1923,-139.5 1923,-124.5 1810,-124.5"/>
<text text-anchor="start" x="1812" y="-130.5" font-family="Times,serif" font-style="italic" font-size="10.00" fill="#000000">sensebet8.0_204831:UNK</text>
<text text-anchor="start" x="1825" y="-114.5" font-family="Times,serif" font-size="10.00" fill="#000000">senseOrder</text>
<text text-anchor="start" x="1901.5" y="-114.5" font-family="Times,serif" font-size="10.00" fill="#000000">8</text>
</g>
<!-- sensebet80204831&#45;&gt;sensebet80204831definition -->
<g id="edge11" class="edge">
<title>sensebet80204831&#45;&gt;sensebet80204831definition</title>
<path fill="none" stroke="#000088" d="M1841.9924,-105.372C1825.7202,-92.4072 1803.7854,-74.9307 1784.699,-59.7236"/>
<polygon fill="#000088" stroke="#000088" points="1776.7183,-53.365 1787.3436,-56.077 1780.6289,-56.4807 1784.5394,-59.5965 1784.5394,-59.5965 1784.5394,-59.5965 1780.6289,-56.4807 1781.7352,-63.116 1776.7183,-53.365 1776.7183,-53.365"/>
<text text-anchor="middle" x="1823.5" y="-73.6" font-family="Times,serif" font-size="8.00" fill="#000000">definition</text>
</g>
<!-- sensebet4078336 -->
<g id="node21" class="node">
<title>sensebet4078336</title>
<path fill="none" stroke="#000000" d="M2218.5,-143.5C2218.5,-143.5 2119.5,-143.5 2119.5,-143.5 2113.5,-143.5 2107.5,-137.5 2107.5,-131.5 2107.5,-131.5 2107.5,-117.5 2107.5,-117.5 2107.5,-111.5 2113.5,-105.5 2119.5,-105.5 2119.5,-105.5 2218.5,-105.5 2218.5,-105.5 2224.5,-105.5 2230.5,-111.5 2230.5,-117.5 2230.5,-117.5 2230.5,-131.5 2230.5,-131.5 2230.5,-137.5 2224.5,-143.5 2218.5,-143.5"/>
<polygon fill="#add8e6" stroke="transparent" points="2116,-124.5 2116,-139.5 2223,-139.5 2223,-124.5 2116,-124.5"/>
<text text-anchor="start" x="2118" y="-130.5" font-family="Times,serif" font-style="italic" font-size="10.00" fill="#000000">sensebet4.0_78336:UNK</text>
<text text-anchor="start" x="2129.5" y="-114.5" font-family="Times,serif" font-size="10.00" fill="#000000">senseOrder</text>
<text text-anchor="start" x="2203" y="-114.5" font-family="Times,serif" font-size="10.00" fill="#000000">4</text>
</g>
<!-- sensebet4078336&#45;&gt;sensebet4078336definition -->
<g id="edge12" class="edge">
<title>sensebet4078336&#45;&gt;sensebet4078336definition</title>
<path fill="none" stroke="#000088" d="M2161.8876,-105.1384C2156.661,-90.9105 2149.4728,-71.3426 2143.5745,-55.286"/>
<polygon fill="#000088" stroke="#000088" points="2140.0977,-45.8214 2147.7699,-53.6564 2141.8218,-50.5148 2143.5459,-55.2081 2143.5459,-55.2081 2143.5459,-55.2081 2141.8218,-50.5148 2139.3219,-56.7598 2140.0977,-45.8214 2140.0977,-45.8214"/>
<text text-anchor="middle" x="2167.5" y="-73.6" font-family="Times,serif" font-size="8.00" fill="#000000">definition</text>
</g>
<!-- lemma78332 -->
<g id="node22" class="node">
<title>lemma78332</title>
<path fill="none" stroke="#000000" d="M2452.5,-234C2452.5,-234 2341.5,-234 2341.5,-234 2335.5,-234 2329.5,-228 2329.5,-222 2329.5,-222 2329.5,-208 2329.5,-208 2329.5,-202 2335.5,-196 2341.5,-196 2341.5,-196 2452.5,-196 2452.5,-196 2458.5,-196 2464.5,-202 2464.5,-208 2464.5,-208 2464.5,-222 2464.5,-222 2464.5,-228 2458.5,-234 2452.5,-234"/>
<polygon fill="#add8e6" stroke="transparent" points="2338,-215 2338,-230 2457,-230 2457,-215 2338,-215"/>
<text text-anchor="start" x="2340" y="-221" font-family="Times,serif" font-style="italic" font-size="10.00" fill="#000000">lemma_78332:LexicalEntry</text>
<text text-anchor="start" x="2359" y="-205" font-family="Times,serif" font-size="10.00" fill="#000000">label</text>
<text text-anchor="start" x="2422.5" y="-205" font-family="Times,serif" font-size="10.00" fill="#000000">kat</text>
</g>
<!-- lemma78332&#45;&gt;sensebet2078334 -->
<g id="edge16" class="edge">
<title>lemma78332&#45;&gt;sensebet2078334</title>
<path fill="none" stroke="#000088" d="M2421.1765,-195.8073C2437.9532,-182.4889 2460.4848,-164.6019 2478.7842,-150.0748"/>
<polygon fill="#000088" stroke="#000088" points="2486.8584,-143.6651 2481.8242,-153.4071 2482.9423,-146.7739 2479.0263,-149.8827 2479.0263,-149.8827 2479.0263,-149.8827 2482.9423,-146.7739 2476.2283,-146.3582 2486.8584,-143.6651 2486.8584,-143.6651"/>
<text text-anchor="middle" x="2463" y="-171.6" font-family="Times,serif" font-size="8.00" fill="#000000">sense</text>
</g>
<!-- lemma78332&#45;&gt;lemmavorm78332 -->
<g id="edge13" class="edge">
<title>lemma78332&#45;&gt;lemmavorm78332</title>
<path fill="none" stroke="#000088" d="M2388.7291,-195.8073C2384.3183,-185.572 2378.7448,-172.6386 2373.5593,-160.6055"/>
<polygon fill="#000088" stroke="#000088" points="2369.5134,-151.2169 2377.6036,-158.6196 2371.4922,-155.8087 2373.471,-160.4005 2373.471,-160.4005 2373.471,-160.4005 2371.4922,-155.8087 2369.3384,-162.1814 2369.5134,-151.2169 2369.5134,-151.2169"/>
<text text-anchor="middle" x="2404.5" y="-171.6" font-family="Times,serif" font-size="8.00" fill="#000000">canonicalForm</text>
</g>
<!-- lemma78332&#45;&gt;sensebet50204707 -->
<g id="edge19" class="edge">
<title>lemma78332&#45;&gt;sensebet50204707</title>
<path fill="none" stroke="#000088" d="M2329.356,-208.9568C2147.4119,-192.7021 1648.5395,-148.1336 1458.689,-131.1726"/>
<polygon fill="#000088" stroke="#000088" points="1448.5276,-130.2648 1458.8884,-126.6726 1453.5078,-130.7098 1458.4879,-131.1547 1458.4879,-131.1547 1458.4879,-131.1547 1453.5078,-130.7098 1458.0875,-135.6369 1448.5276,-130.2648 1448.5276,-130.2648"/>
<text text-anchor="middle" x="1990" y="-171.6" font-family="Times,serif" font-size="8.00" fill="#000000">sense</text>
</g>
<!-- lemma78332&#45;&gt;sensebet1078333 -->
<g id="edge14" class="edge">
<title>lemma78332&#45;&gt;sensebet1078333</title>
<path fill="none" stroke="#000088" d="M2464.6209,-210.2706C2602.8491,-200.2345 2913.4517,-175.6953 3017,-151 3023.0977,-149.5458 3029.3898,-147.7601 3035.6102,-145.8089"/>
<polygon fill="#000088" stroke="#000088" points="3045.2878,-142.6301 3037.1915,-150.0261 3040.5375,-144.1904 3035.7872,-145.7508 3035.7872,-145.7508 3035.7872,-145.7508 3040.5375,-144.1904 3034.3829,-141.4755 3045.2878,-142.6301 3045.2878,-142.6301"/>
<text text-anchor="middle" x="2909" y="-171.6" font-family="Times,serif" font-size="8.00" fill="#000000">sense</text>
</g>
<!-- lemma78332&#45;&gt;sensebet11195644 -->
<g id="edge15" class="edge">
<title>lemma78332&#45;&gt;sensebet11195644</title>
<path fill="none" stroke="#000088" d="M2464.9029,-199.4425C2534.108,-183.5866 2641.3227,-159.0223 2713.9776,-142.376"/>
<polygon fill="#000088" stroke="#000088" points="2723.9926,-140.0814 2715.2502,-146.7011 2719.1189,-141.1981 2714.2452,-142.3148 2714.2452,-142.3148 2714.2452,-142.3148 2719.1189,-141.1981 2713.2402,-137.9284 2723.9926,-140.0814 2723.9926,-140.0814"/>
<text text-anchor="middle" x="2603" y="-171.6" font-family="Times,serif" font-size="8.00" fill="#000000">sense</text>
</g>
<!-- lemma78332&#45;&gt;sensebet70204817 -->
<g id="edge21" class="edge">
<title>lemma78332&#45;&gt;sensebet70204817</title>
<path fill="none" stroke="#000088" d="M2464.6551,-210.2955C2557.0519,-202.8619 2727.4054,-185.5494 2869,-151 2874.22,-149.7263 2879.5849,-148.2175 2884.9266,-146.5761"/>
<polygon fill="#000088" stroke="#000088" points="2894.4803,-143.5003 2886.3405,-150.8484 2889.7208,-145.0326 2884.9614,-146.5649 2884.9614,-146.5649 2884.9614,-146.5649 2889.7208,-145.0326 2883.5823,-142.2814 2894.4803,-143.5003 2894.4803,-143.5003"/>
<text text-anchor="middle" x="2788" y="-171.6" font-family="Times,serif" font-size="8.00" fill="#000000">sense</text>
</g>
<!-- lemma78332&#45;&gt;sensebet60204722 -->
<g id="edge20" class="edge">
<title>lemma78332&#45;&gt;sensebet60204722</title>
<path fill="none" stroke="#000088" d="M2464.7858,-213.0097C2576.2895,-209.2464 2805.2733,-199.4591 2998,-178 3035.3621,-173.8399 3128.5951,-160.3766 3165,-151 3169.9122,-149.7348 3174.9581,-148.2783 3179.9953,-146.7127"/>
<polygon fill="#000088" stroke="#000088" points="3189.6339,-143.5892 3181.5082,-150.9529 3184.8774,-145.1306 3180.1209,-146.6721 3180.1209,-146.6721 3180.1209,-146.6721 3184.8774,-145.1306 3178.7336,-142.3912 3189.6339,-143.5892 3189.6339,-143.5892"/>
<text text-anchor="middle" x="3071" y="-171.6" font-family="Times,serif" font-size="8.00" fill="#000000">sense</text>
</g>
<!-- lemma78332&#45;&gt;sensebet3078335 -->
<g id="edge17" class="edge">
<title>lemma78332&#45;&gt;sensebet3078335</title>
<path fill="none" stroke="#000088" d="M2329.4993,-211.6582C2043.704,-197.5091 934.5192,-142.596 640.7375,-128.0516"/>
<polygon fill="#000088" stroke="#000088" points="630.6335,-127.5513 640.8438,-123.5514 635.6273,-127.7986 640.6212,-128.0459 640.6212,-128.0459 640.6212,-128.0459 635.6273,-127.7986 640.3987,-132.5404 630.6335,-127.5513 630.6335,-127.5513"/>
<text text-anchor="middle" x="1656" y="-171.6" font-family="Times,serif" font-size="8.00" fill="#000000">sense</text>
</g>
<!-- lemma78332&#45;&gt;sensebet80204831 -->
<g id="edge22" class="edge">
<title>lemma78332&#45;&gt;sensebet80204831</title>
<path fill="none" stroke="#000088" d="M2329.479,-203.4922C2229.8622,-186.5142 2044.1579,-154.864 1940.6213,-137.2179"/>
<polygon fill="#000088" stroke="#000088" points="1930.5576,-135.5028 1941.1716,-132.7469 1935.4866,-136.3429 1940.4155,-137.1829 1940.4155,-137.1829 1940.4155,-137.1829 1935.4866,-136.3429 1939.6594,-141.619 1930.5576,-135.5028 1930.5576,-135.5028"/>
<text text-anchor="middle" x="2188" y="-171.6" font-family="Times,serif" font-size="8.00" fill="#000000">sense</text>
</g>
<!-- lemma78332&#45;&gt;sensebet4078336 -->
<g id="edge18" class="edge">
<title>lemma78332&#45;&gt;sensebet4078336</title>
<path fill="none" stroke="#000088" d="M2348.9257,-195.9179C2313.1542,-181.7191 2264.1881,-162.283 2226.3687,-147.2713"/>
<polygon fill="#000088" stroke="#000088" points="2217.0086,-143.556 2227.9634,-143.0628 2221.6559,-145.4007 2226.3032,-147.2454 2226.3032,-147.2454 2226.3032,-147.2454 2221.6559,-145.4007 2224.6429,-151.428 2217.0086,-143.556 2217.0086,-143.556"/>
<text text-anchor="middle" x="2312" y="-171.6" font-family="Times,serif" font-size="8.00" fill="#000000">sense</text>
</g>
</g>
</svg>
